<?xml version="1.0" encoding="UTF-8"?>
<svg version="1.1" xmlns="http://www.w3.org/2000/svg" width="512" height="512">
<path d="M0 0 C40.73258691 37.09857902 66.02515215 90.53183589 68.75683594 145.60009766 C71.35658136 205.24748248 50.85149524 260.57794808 10.75683594 304.60009766 C-27.93161451 345.99314124 -82.40228689 369.90666696 -138.90722656 371.81884766 C-198.08328558 373.11538802 -253.02557579 351.0823785 -295.70410156 310.33056641 C-335.85961751 271.24795203 -358.30392739 216.78829495 -359.52661133 160.9831543 C-360.09627253 102.0016777 -337.31308052 47.55856006 -296.32836914 5.44873047 C-227.86859712 -63.56894457 -117.13368472 -75.618845 0 0 Z " fill="#20BF55" transform="translate(401.2431640625,98.39990234375)"/>
<path d="M0 0 C5.00230198 2.45567552 8.49851535 5.9970307 11 11 C11.0922065 13.33849534 11.11749202 15.67971042 11.11352539 18.02001953 C11.11367142 18.74207581 11.11381744 19.46413208 11.1139679 20.20806885 C11.11327007 22.59968041 11.10548375 24.99121451 11.09765625 27.3828125 C11.09579161 29.03905189 11.09436792 30.69529184 11.09336853 32.35153198 C11.08954699 36.71467608 11.07971978 41.077787 11.06866455 45.44091797 C11.05844264 49.89159699 11.05386924 54.34228137 11.04882812 58.79296875 C11.0380972 67.52866108 11.02102512 76.26432641 11 85 C11.91375397 84.99111755 12.82750793 84.98223511 13.76895142 84.9730835 C22.39069116 84.89285261 31.01230507 84.83199237 39.63433266 84.79275131 C44.06676822 84.77189861 48.49889467 84.74362367 52.93115234 84.69824219 C57.21055504 84.65470123 61.48966088 84.63084546 65.76926804 84.62049103 C67.39993333 84.61311441 69.03058284 84.5987094 70.66112137 84.57707977 C72.94972777 84.54793491 75.23711604 84.54404844 77.52587891 84.54589844 C79.47779648 84.53257477 79.47779648 84.53257477 81.46914673 84.51898193 C87.10922132 85.28734515 91.56849027 88.62897792 95.08203125 93.09765625 C97.05982719 97.19632273 96.70754427 101.60405365 96 106 C93.81473658 110.45146251 91.0605479 113.18885145 87 116 C83.46817642 117.17727453 80.68663738 117.11994258 76.95825195 117.11352539 C76.24580322 117.11367142 75.53335449 117.11381744 74.79931641 117.1139679 C72.445607 117.11327151 70.09197683 117.10549192 67.73828125 117.09765625 C66.10589135 117.0957911 64.47350089 117.09436765 62.84111023 117.09336853 C58.54538425 117.08955101 54.24969211 117.07972724 49.95397949 117.06866455 C45.57023577 117.05843399 41.18648659 117.05386738 36.80273438 117.04882812 C28.2018074 117.0381043 19.60090791 117.02103705 11 117 C11.00999275 118.35183884 11.00999275 118.35183884 11.02018738 119.73098755 C11.08036359 128.23502131 11.12600752 136.73898328 11.15543652 145.24318123 C11.17107503 149.6150129 11.19228001 153.98666824 11.22631836 158.35839844 C11.25897675 162.57943321 11.27686667 166.80029865 11.28463173 171.02145004 C11.29016363 172.62976623 11.30096615 174.23807342 11.31719017 175.84631729 C11.33905107 178.10363859 11.34196339 180.36026521 11.34057617 182.61767578 C11.35056892 184.54294601 11.35056892 184.54294601 11.36076355 186.5071106 C10.90024953 190.96577765 9.54044407 194.34980419 6.46484375 197.64453125 C1.30268386 201.59206528 -1.6273053 202.51838473 -8.09765625 202.484375 C-12.98268701 201.66910742 -15.94968106 198.76129553 -19 195 C-21.38967249 191.32207893 -21.24173709 188.07070474 -21.22705078 183.75292969 C-21.22734283 183.03058136 -21.22763489 182.30823303 -21.22793579 181.56399536 C-21.22654562 179.18316517 -21.21099934 176.80265033 -21.1953125 174.421875 C-21.19158125 172.76849539 -21.18873481 171.11511357 -21.18673706 169.46173096 C-21.17910938 165.11500926 -21.15946833 160.76842171 -21.1373291 156.42175293 C-21.11685204 151.98431208 -21.10773136 147.5468495 -21.09765625 143.109375 C-21.07622161 134.40618851 -21.04209612 125.70311096 -21 117 C-21.91375397 117.00888245 -22.82750793 117.01776489 -23.76895142 117.0269165 C-32.39069116 117.10714739 -41.01230507 117.16800763 -49.63433266 117.20724869 C-54.06676822 117.22810139 -58.49889467 117.25637633 -62.93115234 117.30175781 C-67.21055504 117.34529877 -71.48966088 117.36915454 -75.76926804 117.37950897 C-77.39993333 117.38688559 -79.03058284 117.4012906 -80.66112137 117.42292023 C-82.94972777 117.45206509 -85.23711604 117.45595156 -87.52587891 117.45410156 C-89.47779648 117.46742523 -89.47779648 117.46742523 -91.46914673 117.48101807 C-96.78930155 116.75623842 -99.82315367 114.33587961 -103.3125 110.375 C-106.76579359 105.51480903 -106.97477321 100.84077821 -106 95 C-103.35632805 90.47525377 -99.91200553 86.93037281 -95 85 C-91.70965576 84.75949097 -91.70965576 84.75949097 -87.75292969 84.77294922 C-87.03058136 84.77265717 -86.30823303 84.77236511 -85.56399536 84.77206421 C-83.18316517 84.77345438 -80.80265033 84.78900066 -78.421875 84.8046875 C-76.76849539 84.80841875 -75.11511357 84.81126519 -73.46173096 84.81326294 C-69.11500926 84.82089062 -64.76842171 84.84053167 -60.42175293 84.8626709 C-55.98431208 84.88314796 -51.5468495 84.89226864 -47.109375 84.90234375 C-38.40618851 84.92377839 -29.70311096 84.95790388 -21 85 C-21.00888245 84.08624603 -21.01776489 83.17249207 -21.0269165 82.23104858 C-21.10714739 73.60930884 -21.16800763 64.98769493 -21.20724869 56.36566734 C-21.22810139 51.93323178 -21.25637633 47.50110533 -21.30175781 43.06884766 C-21.34529877 38.78944496 -21.36915454 34.51033912 -21.37950897 30.23073196 C-21.38688559 28.60006667 -21.4012906 26.96941716 -21.42292023 25.33887863 C-21.45206509 23.05027223 -21.45595156 20.76288396 -21.45410156 18.47412109 C-21.46298401 17.17284271 -21.47186646 15.87156433 -21.48101807 14.53085327 C-20.71265485 8.89077868 -17.37102208 4.43150973 -12.90234375 0.91796875 C-8.80367727 -1.05982719 -4.39594635 -0.70754427 0 0 Z " fill="#ECEAE9" transform="translate(261,155)"/>
</svg>
