<?xml version="1.0" standalone="no"?>
<!DOCTYPE svg PUBLIC "-//W3C//DTD SVG 20010904//EN"
 "http://www.w3.org/TR/2001/REC-SVG-20010904/DTD/svg10.dtd">
<svg version="1.0" xmlns="http://www.w3.org/2000/svg"
 width="512.000000pt" height="512.000000pt" viewBox="0 0 512.000000 512.000000"
 preserveAspectRatio="xMidYMid meet">

<g transform="translate(0.000000,512.000000) scale(0.100000,-0.100000)"
fill="#000000" stroke="none">
<path d="M2315 5109 c-797 -81 -1501 -518 -1927 -1196 -487 -774 -516 -1777
-75 -2578 256 -466 643 -836 1122 -1071 260 -127 509 -203 810 -246 119 -17
512 -16 635 1 622 86 1148 360 1572 820 349 378 572 861 650 1406 17 118 17
512 0 630 -59 416 -191 769 -410 1099 -92 140 -185 254 -315 385 -398 403
-895 653 -1462 737 -122 18 -477 26 -600 13z m455 -210 c546 -50 1064 -293
1450 -679 421 -421 661 -975 687 -1584 28 -689 -283 -1401 -809 -1852 -443
-378 -956 -567 -1533 -566 -373 1 -691 75 -1030 242 -259 127 -454 268 -651
472 -348 361 -564 799 -640 1303 -25 165 -25 494 -1 655 83 540 319 1001 701
1367 492 473 1150 705 1826 642z"/>
<path d="M2347 4095 c-686 -94 -1232 -644 -1322 -1333 -111 -848 485 -1626
1333 -1737 848 -111 1624 484 1737 1332 135 1012 -734 1876 -1748 1738z"/>
</g>
</svg>
