<?xml version="1.0" encoding="UTF-8"?>
<svg version="1.1" xmlns="http://www.w3.org/2000/svg" width="512" height="512">
<path d="M0 0 C1.18703018 -0.00043808 1.18703018 -0.00043808 2.39804077 -0.00088501 C4.97893764 0.00049345 7.55953527 0.01598361 10.14038086 0.03173828 C11.94355614 0.03547371 13.74673346 0.03831817 15.5499115 0.04031372 C20.26974198 0.04790851 24.98944715 0.06752083 29.70922852 0.08972168 C34.53587144 0.11027011 39.36253482 0.11933459 44.18920898 0.12939453 C53.64043557 0.15077104 63.09156962 0.1848562 72.54272461 0.22705078 C72.55730713 1.07299805 72.57188965 1.91894531 72.58691406 2.79052734 C72.64869409 5.98911737 72.72297045 9.18712852 72.80517578 12.38525391 C72.83802505 13.75819322 72.86617528 15.13125465 72.88916016 16.50439453 C73.17733669 33.27994754 76.38904356 47.56672508 88.14819336 60.09033203 C100.4041855 71.02675569 112.72286178 73.63773025 128.66772461 73.91455078 C130.01931846 73.94780531 131.37088234 73.98230215 132.72241211 74.01806641 C135.99576573 74.09990025 139.26887315 74.16926191 142.54272461 74.22705078 C142.65986835 91.2131325 142.74786388 108.19908697 142.80178547 125.18548107 C142.82749505 133.07374313 142.86250551 140.96175324 142.91992188 148.84985352 C142.9699804 155.73042094 143.00206821 162.61080578 143.01316708 169.49155027 C143.01964824 173.13016308 143.03472589 176.76825384 143.07137489 180.40669823 C143.1120929 184.48270548 143.1126598 188.55782286 143.11035156 192.6340332 C143.13731613 194.41537155 143.13731613 194.41537155 143.16482544 196.23269653 C143.08643963 209.10295792 138.7095788 220.1082745 129.54272461 229.22705078 C121.19332069 236.35097768 111.72815454 240.32752823 100.68759155 240.36749268 C99.73740143 240.37320282 98.7872113 240.37891296 97.80822754 240.38479614 C96.26213806 240.38647293 96.26213806 240.38647293 94.68481445 240.38818359 C93.04236252 240.39563095 93.04236252 240.39563095 91.36672974 240.40322876 C87.74570078 240.4178279 84.12471566 240.42464945 80.50366211 240.43017578 C77.98125203 240.43593003 75.45884195 240.44168773 72.93643188 240.44744873 C68.32134176 240.45661126 63.70626473 240.4629135 59.09116781 240.46594548 C52.32317919 240.47041756 45.5553934 240.48792993 38.78746641 240.51694608 C32.90511409 240.54127964 27.02282866 240.5488953 21.14043045 240.55062103 C18.64869713 240.55363802 16.15696446 240.56163414 13.66526413 240.57480621 C10.16902301 240.5919661 6.67326873 240.58996176 3.17700195 240.58349609 C2.15842102 240.59271088 1.13984009 240.60192566 0.09039307 240.61141968 C-13.25646262 240.53456105 -24.74236996 236.29654063 -34.60571289 227.23876953 C-44.74095798 216.22684712 -45.90684866 203.88401759 -45.87719727 189.62255859 C-45.88454647 187.94775835 -45.89313516 186.27296317 -45.90286255 184.59817505 C-45.92500057 180.06900874 -45.92801302 175.54002479 -45.92611504 171.01081181 C-45.92599495 167.21895842 -45.93457486 163.42714313 -45.94289255 159.6353004 C-45.96209984 150.68213381 -45.9650206 141.72906045 -45.95825195 132.77587891 C-45.95161693 123.56620134 -45.97446 114.35692487 -46.01156569 105.14732862 C-46.04234582 97.21747458 -46.05361361 89.287749 -46.04972887 81.35783648 C-46.04766952 76.63181892 -46.05301373 71.90611343 -46.07762146 67.18015289 C-46.10002325 62.73117347 -46.09790029 58.28284192 -46.07769394 53.83385849 C-46.07430721 52.2106233 -46.07927096 50.58734334 -46.09367752 48.96416855 C-46.20948786 34.93653366 -43.5843234 22.60622447 -33.45727539 12.22705078 C-23.72047419 3.50694368 -12.95574091 -0.12848579 0 0 Z M8.54272461 106.22705078 C6.18653919 109.11304466 6.18653919 109.11304466 6.73022461 112.72705078 C7.6193889 116.72797429 7.6193889 116.72797429 10.54272461 119.22705078 C14.07480745 120.39869912 17.45900305 120.36040094 21.15966797 120.37231445 C22.14336113 120.37735237 22.14336113 120.37735237 23.14692688 120.38249207 C25.30882678 120.39196951 27.47064899 120.39394347 29.63256836 120.39501953 C31.1394504 120.39823403 32.64633212 120.40159825 34.1532135 120.40510559 C37.30966923 120.41108861 40.4660976 120.41294631 43.62255859 120.41235352 C47.66211791 120.41225187 51.70150157 120.42591036 55.74101925 120.44312572 C58.852593 120.45425689 61.9641244 120.45627239 65.07571602 120.45574379 C66.56482105 120.45692198 68.05392724 120.46133471 69.54301262 120.46907616 C71.62759512 120.47889998 73.71179779 120.47598893 75.79638672 120.4699707 C76.98123154 120.47139572 78.16607635 120.47282074 79.38682556 120.47428894 C83.47675044 120.15387771 86.35558217 119.29547898 89.41772461 116.53955078 C91.07856216 113.12560693 90.46225168 110.83947855 89.54272461 107.22705078 C87.64738586 104.64249794 86.65445944 104.26429573 83.54272461 103.22705078 C81.31553807 103.12224897 79.08532901 103.07837813 76.85571289 103.06591797 C76.18055634 103.06095306 75.50539978 103.05598816 74.80978394 103.0508728 C72.5775246 103.0362748 70.34533632 103.02945332 68.11303711 103.02392578 C66.55988564 103.01817258 65.0067342 103.01241487 63.45358276 103.00665283 C60.19699778 102.99614971 56.94043743 102.99030248 53.68383789 102.98681641 C49.5152639 102.98133171 45.34701655 102.95730155 41.178545 102.92884445 C37.97003229 102.91020189 34.76159803 102.90501163 31.55303574 102.90348053 C30.01647022 102.90045734 28.47990597 102.89244005 26.94339371 102.87929535 C24.79151948 102.86219967 22.64044037 102.86412312 20.48852539 102.87060547 C19.26513458 102.86695984 18.04174377 102.86331421 16.78128052 102.85955811 C13.21861596 103.26382876 11.37968364 104.07077066 8.54272461 106.22705078 Z M8.54272461 165.22705078 C6.19722787 168.74529589 5.96281058 170.08480772 6.54272461 174.22705078 C9.17357322 177.59755436 10.66821481 179.06262972 14.91967773 179.86196899 C16.2080957 179.86594696 17.49651367 179.86992493 18.82397461 179.87402344 C19.89566895 179.88716583 19.89566895 179.88716583 20.98901367 179.90057373 C23.34087612 179.92250568 25.69084447 179.90803944 28.04272461 179.89111328 C29.68270222 179.89448326 31.3226774 179.8993374 32.96264648 179.90560913 C36.39583164 179.91297197 39.82836533 179.9022947 43.26147461 179.87890625 C47.65681818 179.85041791 52.05063526 179.86682517 56.44592285 179.89676857 C59.83125255 179.91485802 63.2162218 179.90907617 66.6015625 179.89612961 C68.2218443 179.8928001 69.84215909 179.8968667 71.46240234 179.90852737 C73.72963817 179.92126445 75.99442102 179.90182475 78.26147461 179.87402344 C79.54989258 179.87004547 80.83831055 179.8660675 82.16577148 179.86196899 C86.41645286 179.06277667 87.90450631 177.58934698 90.54272461 174.22705078 C91.29287656 171.18396787 91.29287656 171.18396787 90.54272461 168.22705078 C88.67562551 165.92429522 87.1862472 164.54881208 84.54272461 163.22705078 C82.28687651 163.12469699 80.02793404 163.08860469 77.76977539 163.08178711 C77.07365143 163.0784285 76.37752747 163.07506989 75.66030884 163.0716095 C73.3528669 163.06208982 71.04549747 163.0601558 68.73803711 163.05908203 C67.13621999 163.05586987 65.53440317 163.05250583 63.93258667 163.04899597 C60.5716687 163.04300196 57.21077646 163.04115632 53.84985352 163.04174805 C49.54334384 163.04184962 45.23699921 163.02820367 40.93052864 163.01097584 C37.62083173 162.99985586 34.31117471 162.99782885 31.00146103 162.99835777 C29.41384182 162.99717741 27.8262216 162.99275249 26.23862076 162.98502541 C24.01711741 162.97522663 21.79597202 162.9781031 19.57446289 162.98413086 C18.31030548 162.98270584 17.04614807 162.98128082 15.74368286 162.97981262 C12.68582677 163.21599774 11.03396109 163.49433539 8.54272461 165.22705078 Z " fill="#FD666F" transform="translate(207.457275390625,135.77294921875)"/>
<path d="M0 0 C4.5823584 2.67583943 7.99214877 6.14326411 11.72192383 9.88769531 C12.50537674 10.66590637 13.28882965 11.44411743 14.09602356 12.24591064 C15.74617408 13.88965363 17.3924784 15.53726573 19.03515625 17.18847656 C21.54368262 19.70551301 24.07028796 22.20333358 26.59887695 24.70019531 C28.20352403 26.30323019 29.80707696 27.90736121 31.40942383 29.51269531 C32.1625737 30.25461121 32.91572357 30.9965271 33.69169617 31.76092529 C39.39285642 37.53836305 42.7926549 42.48468948 42.80395508 50.90332031 C42.82329102 51.86109375 42.84262695 52.81886719 42.86254883 53.80566406 C41.5486954 62.17501383 36.38417811 67.55435214 30.60083008 73.29785156 C29.84860168 74.05627853 29.09637329 74.81470551 28.3213501 75.59611511 C26.73607982 77.18845571 25.14570727 78.77573129 23.55053711 80.3581543 C21.12190059 82.77290593 18.71825193 85.2107192 16.31567383 87.65136719 C14.76634447 89.20164768 13.21560912 90.75052457 11.66333008 92.29785156 C10.9515863 93.02285355 10.23984253 93.74785553 9.50653076 94.49482727 C4.54373381 99.36711452 0.01916492 102.56660184 -7.13745117 103.18066406 C-13.98949504 102.25752343 -18.56200309 100.51541026 -23.07104492 94.96582031 C-25.57460379 89.94786465 -25.39091561 84.41131556 -24.63354492 78.96582031 C-22.57547697 74.8496844 -19.86797937 72.17307464 -16.63354492 68.96582031 C-17.77307617 68.96171143 -18.91260742 68.95760254 -20.08666992 68.95336914 C-24.34379343 68.93147819 -28.60000571 68.87708646 -32.85668945 68.81323242 C-34.69351419 68.79013888 -36.53046972 68.77567712 -38.36743164 68.77026367 C-41.01945691 68.76091035 -43.66944956 68.71978398 -46.32104492 68.67285156 C-47.53872559 68.67875053 -47.53872559 68.67875053 -48.78100586 68.68476868 C-54.81795104 68.53277749 -58.94947972 66.79933782 -63.63354492 62.96582031 C-67.44635274 57.92307449 -68.15456168 53.21802136 -67.63354492 46.96582031 C-65.83062064 41.72362201 -63.42390608 37.93128198 -58.63354492 34.96582031 C-53.88103747 33.03590807 -49.46267253 32.63150006 -44.39135742 32.55175781 C-43.62298553 32.53239166 -42.85461365 32.51302551 -42.06295776 32.49307251 C-39.62826354 32.43367914 -37.19352099 32.38705404 -34.75854492 32.34082031 C-33.09967106 32.30260338 -31.44081625 32.26354952 -29.78198242 32.22363281 C-25.73265951 32.12801124 -21.68324379 32.04383331 -17.63354492 31.96582031 C-18.05506836 31.4953125 -18.4765918 31.02480469 -18.91088867 30.54003906 C-19.45874023 29.91742188 -20.0065918 29.29480469 -20.57104492 28.65332031 C-21.11631836 28.0384375 -21.6615918 27.42355469 -22.22338867 26.79003906 C-25.72164832 22.2645896 -25.15817237 16.39457389 -24.63354492 10.96582031 C-23.09613222 5.69748888 -19.61144359 2.49973505 -14.91479492 -0.15527344 C-9.90614915 -2.08497429 -4.96359847 -1.94917986 0 0 Z " fill="#FD666F" transform="translate(109.633544921875,218.0341796875)"/>
<path d="M0 0 C4.71326471 2.67819154 8.13502605 5.85235841 9.71484375 11.125 C10.7303106 18.29673465 9.97942418 23.27643256 5.71484375 29.125 C4.73023477 30.1401577 3.7336384 31.14415472 2.71484375 32.125 C3.73320312 32.13958252 4.7515625 32.15416504 5.80078125 32.16918945 C9.61053047 32.22754429 13.41971141 32.30477178 17.22900391 32.38745117 C18.87181312 32.42052678 20.51473122 32.44861177 22.15771484 32.47143555 C24.53139275 32.50530405 26.90408816 32.55763075 29.27734375 32.61328125 C30.36378174 32.62286613 30.36378174 32.62286613 31.47216797 32.63264465 C37.05341197 32.79044004 42.91662551 33.66956795 47.24780273 37.47016907 C50.83716818 41.56178939 52.5302722 45.13162723 53.02734375 50.5 C52.44011003 57.31191117 49.87626174 61.71891147 44.71484375 66.125 C40.77488002 68.85608394 36.40784911 68.47502432 31.79296875 68.5390625 C30.93298279 68.55842865 30.07299683 68.5777948 29.18695068 68.5977478 C26.44634854 68.65741814 23.70570411 68.7038786 20.96484375 68.75 C19.10414858 68.78819134 17.24347087 68.82724375 15.3828125 68.8671875 C10.82696511 68.96310935 6.27103496 69.04718668 1.71484375 69.125 C2.20855469 69.66769531 2.70226562 70.21039063 3.2109375 70.76953125 C3.85160156 71.48496094 4.49226563 72.20039063 5.15234375 72.9375 C5.79042969 73.64519531 6.42851562 74.35289062 7.0859375 75.08203125 C10.58820866 79.47456799 10.30123036 84.76607793 9.71484375 90.125 C7.78454909 95.68508788 3.9352855 99.51477912 -1.28515625 102.125 C-3.17576687 102.30000341 -5.07450265 102.39224916 -6.97265625 102.4375 C-8.49439453 102.49357422 -8.49439453 102.49357422 -10.046875 102.55078125 C-17.72165551 101.54167259 -22.81765344 96.04890118 -28.046875 90.796875 C-28.75995316 90.0890387 -29.47303131 89.38120239 -30.2077179 88.6519165 C-31.70645406 87.1595755 -33.20136563 85.66338468 -34.69262695 84.16357422 C-36.96403175 81.88365682 -39.25346943 79.62302745 -41.54492188 77.36328125 C-43.00503773 75.90477768 -44.46405938 74.44517771 -45.921875 72.984375 C-46.60110519 72.31637878 -47.28033539 71.64838257 -47.98014832 70.96014404 C-52.8776064 65.99065144 -56.62672869 60.9981033 -57.81640625 54 C-57.80609375 53.05125 -57.79578125 52.1025 -57.78515625 51.125 C-57.79546875 50.17625 -57.80578125 49.2275 -57.81640625 48.25 C-56.36875176 39.73438534 -51.12096008 34.37608496 -45.1953125 28.5390625 C-44.41377304 27.75606781 -43.63223358 26.97307312 -42.82701111 26.16635132 C-41.18189601 24.5228884 -39.53186074 22.88433737 -37.87719727 21.25048828 C-35.34675211 18.74910624 -32.83560868 16.22947032 -30.32617188 13.70703125 C-28.72116389 12.10825808 -27.11508052 10.51056361 -25.5078125 8.9140625 C-24.75871109 8.16202545 -24.00960968 7.4099884 -23.23780823 6.63516235 C-22.53034958 5.94038788 -21.82289093 5.2456134 -21.09399414 4.52978516 C-20.47762589 3.91881989 -19.86125763 3.30785461 -19.22621155 2.67837524 C-13.79958334 -1.66441186 -6.44400934 -2.46744973 0 0 Z " fill="#FD6670" transform="translate(417.28515625,217.875)"/>
<path d="M0 0 C1.12326691 0.15485367 1.12326691 0.15485367 2.26922607 0.31283569 C26.2858957 3.66070005 26.2858957 3.66070005 32.4375 10.5625 C35.55324771 16.16197542 35.86540809 21.10626335 34.296875 27.265625 C32.55290678 31.92677643 29.87326472 34.53695377 25.8125 37.4375 C17.32466765 40.26677745 8.03612541 38.2195205 -0.5625 36.6875 C-11.2074103 34.89139324 -21.8056076 33.4648496 -32.5625 32.5625 C-33.24038574 32.50465332 -33.91827148 32.44680664 -34.61669922 32.38720703 C-61.74178457 30.16037298 -88.48736598 32.42486679 -115.27001953 36.88549805 C-135.24186549 40.17077939 -135.24186549 40.17077939 -142.87109375 35.83984375 C-146.45117893 33.13617665 -148.17413176 29.72760472 -149.5625 25.5625 C-150.24486986 19.89099968 -149.53045519 15.49717788 -147.0234375 10.38671875 C-142.90767993 5.24752414 -137.47427807 3.69835964 -131.25 2.5625 C-130.41114258 2.40225342 -129.57228516 2.24200684 -128.70800781 2.0769043 C-120.1226317 0.52135261 -111.47017743 -0.56469107 -102.8125 -1.625 C-102.1264267 -1.70967529 -101.44035339 -1.79435059 -100.73348999 -1.8815918 C-66.98498647 -5.99865216 -33.62623227 -4.71102148 0 0 Z " fill="#FD666F" transform="translate(315.5625,403.4375)"/>
<path d="M0 0 C1.9721149 0.29401885 3.94481946 0.58409875 5.91796875 0.87109375 C7.01028809 1.03206543 8.10260742 1.19303711 9.22802734 1.35888672 C46.93503495 6.78816162 84.01402921 8.1568629 121.73828125 1.71484375 C122.86451904 1.52374023 123.99075684 1.33263672 125.15112305 1.13574219 C127.26173846 0.76758789 129.36918658 0.38049541 131.47192383 -0.03027344 C138.53810283 -1.30751749 145.73235583 -1.78864301 151.99462891 2.29956055 C156.04923311 5.53464027 158.51618603 8.40112291 159.1484375 13.6796875 C159.22775118 19.91374265 159.24955771 24.07818086 154.8125 28.875 C154.1525 29.596875 153.4925 30.31875 152.8125 31.0625 C144.76087413 35.92702396 134.04987719 36.62216362 124.875 37.9375 C123.81732422 38.09798828 122.75964844 38.25847656 121.66992188 38.42382812 C103.92997452 41.02068109 86.30005857 42.2597258 68.375 42.1875 C67.42405457 42.18567719 66.47310913 42.18385437 65.49334717 42.18197632 C48.76251532 42.12839549 32.39609494 41.22177722 15.8125 38.875 C15.15213745 38.78307373 14.4917749 38.69114746 13.81140137 38.59643555 C8.9713368 37.92017675 4.14073508 37.19325762 -0.6875 36.4375 C-2.58604736 36.14806519 -2.58604736 36.14806519 -4.52294922 35.8527832 C-12.3415629 34.54148419 -17.10694781 33.28858485 -22.5 27.3125 C-25.82977118 22.50283052 -25.80681151 17.5348191 -25.1875 11.875 C-23.50982346 7.04256214 -20.49857939 3.58195683 -16.1875 0.875 C-10.27586607 -1.37171946 -6.04372352 -1.02156287 0 0 Z " fill="#FD666F" transform="translate(191.1875,67.125)"/>
<path d="M0 0 C15.20203679 2.32694872 23.53893806 14.79774715 32.63671875 26.109375 C34.34110939 28.19408421 36.06241039 30.23809574 37.83203125 32.265625 C50.5943487 46.91660342 50.5943487 46.91660342 52 57 C48.04192285 57.11761144 44.08430379 57.18771882 40.125 57.25 C38.46210938 57.30027344 38.46210938 57.30027344 36.765625 57.3515625 C26.20471907 57.47580845 18.2072342 54.79894402 10.04296875 48.05078125 C2.45450769 40.43330122 -0.0792303 31.58547053 -0.1953125 21.09375 C-0.18212852 18.56242583 -0.15843983 16.03113762 -0.125 13.5 C-0.11597656 12.200625 -0.10695313 10.90125 -0.09765625 9.5625 C-0.07421733 6.37480701 -0.0414044 3.1875018 0 0 Z " fill="#FD666F" transform="translate(296,137)"/>
</svg>
