<?xml version="1.0" encoding="UTF-8"?>
<svg version="1.1" xmlns="http://www.w3.org/2000/svg" width="512" height="512">
<path d="M0 0 C0.89115509 -0.00974854 1.78231018 -0.01949707 2.70046997 -0.02954102 C22.63293108 -0.20264286 41.86559565 0.06369901 61.4453125 4.23828125 C62.77079102 4.51115967 62.77079102 4.51115967 64.12304688 4.78955078 C105.34784078 13.49342708 143.65278781 33.55407357 174.4453125 62.23828125 C175.83675916 63.45166344 177.23239889 64.66025928 178.6328125 65.86328125 C185.12642006 71.55168147 190.72060083 77.62806502 196.12890625 84.36328125 C197.62026628 86.21427785 199.13192996 88.04918974 200.66796875 89.86328125 C211.37655764 102.55494215 219.73850793 116.5738543 227.4453125 131.23828125 C227.79303711 131.88893555 228.14076172 132.53958984 228.49902344 133.20996094 C239.66788692 154.35997462 246.75126165 178.69014258 250.4453125 202.23828125 C250.62787598 203.39384521 250.81043945 204.54940918 250.99853516 205.73999023 C252.59886637 217.00999862 252.84447883 228.17905615 252.8203125 239.55078125 C252.81949677 240.99969254 252.81949677 240.99969254 252.81866455 242.47787476 C252.75654087 266.55129834 249.41615617 289.15610162 242.4453125 312.23828125 C242.19442871 313.07343262 241.94354492 313.90858398 241.68505859 314.76904297 C231.64027637 347.38390177 213.65619439 377.32137709 190.4453125 402.23828125 C189.23193031 403.62972791 188.02333447 405.02536764 186.8203125 406.42578125 C181.13191228 412.91938881 175.05552873 418.51356958 168.3203125 423.921875 C166.4693159 425.41323503 164.63440401 426.92489871 162.8203125 428.4609375 C150.1286516 439.16952639 136.10973945 447.53147668 121.4453125 455.23828125 C120.7946582 455.58600586 120.14400391 455.93373047 119.47363281 456.29199219 C98.32361913 467.46085567 73.99345117 474.5442304 50.4453125 478.23828125 C49.28974854 478.42084473 48.13418457 478.6034082 46.94360352 478.79150391 C35.67359513 480.39183512 24.5045376 480.63744758 13.1328125 480.61328125 C12.16687164 480.61273743 11.20093079 480.6121936 10.20571899 480.6116333 C-5.69146444 480.57060916 -20.9742443 479.64585488 -36.5546875 476.23828125 C-37.54082031 476.02397461 -38.52695313 475.80966797 -39.54296875 475.58886719 C-80.68601851 466.32763679 -118.66455293 447.01341561 -149.5546875 418.23828125 C-150.94613416 417.02489906 -152.34177389 415.81630322 -153.7421875 414.61328125 C-160.2414509 408.91992651 -165.84238567 402.83961232 -171.25 396.09375 C-172.69580225 394.30242552 -174.16644909 392.53057919 -175.671875 390.7890625 C-207.31744649 353.8692291 -227.34870952 301.35876015 -227.79296875 252.68359375 C-227.8027626 251.79257462 -227.81255646 250.90155548 -227.82264709 249.98353577 C-228.06977464 221.65429212 -225.7888597 195.50365266 -217.5546875 168.23828125 C-217.17836182 166.9855542 -217.17836182 166.9855542 -216.79443359 165.70751953 C-203.42490392 122.29738749 -175.36083111 81.26686088 -139.5546875 53.23828125 C-138.56984375 52.44808594 -137.585 51.65789062 -136.5703125 50.84375 C-98.53859031 20.59941859 -48.96468094 0.44659656 0 0 Z " fill="#FE5A54" transform="translate(243.5546875,15.76171875)"/>
<path d="M0 0 C6.08499421 5.08491407 11.81128412 10.50391602 17.52514648 15.99902344 C18.03504938 16.4882642 18.54495228 16.97750496 19.07030678 17.4815712 C29.12168591 27.1261549 39.09305672 36.85248209 49.03697109 46.60772324 C55.35489391 52.80281275 61.69505108 58.97116584 68.09643555 65.08007812 C73.70300264 70.43056528 79.26095647 75.82648207 84.7671991 81.2802279 C87.67441099 84.15667182 90.59902832 87.00692703 93.58318901 89.80364227 C114.00643739 108.99339816 114.00643739 108.99339816 114.58040714 122.65736008 C114.42271469 127.8505775 113.81912089 132.87529992 113 138 C112.85260002 139.45469755 112.71841846 140.91086501 112.60403442 142.36853027 C112.34556613 145.51934269 111.90818883 148.57258169 111.375 151.6875 C111.10876831 153.34664429 111.10876831 153.34664429 110.8371582 155.03930664 C108.95188017 166.22379655 106.27775386 177.14654998 103 188 C102.74911621 188.83515137 102.49823242 189.67030273 102.23974609 190.53076172 C92.19496387 223.14562052 74.21088189 253.08309584 51 278 C49.78661781 279.39144666 48.57802197 280.78708639 47.375 282.1875 C41.68659978 288.68110756 35.61021623 294.27528833 28.875 299.68359375 C27.0240034 301.17495378 25.18909151 302.68661746 23.375 304.22265625 C10.6833391 314.93124514 -3.33557305 323.29319543 -18 331 C-18.6506543 331.34772461 -19.30130859 331.69544922 -19.97167969 332.05371094 C-41.25200958 343.29139159 -65.38013371 350.0159814 -89 354 C-90.06734375 354.19263428 -90.06734375 354.19263428 -91.15625 354.38916016 C-94.95520995 355.06283485 -98.72278151 355.48732042 -102.56741714 355.78237915 C-104.29943635 355.937327 -106.02807756 356.13224248 -107.7528038 356.35409546 C-117.75285562 357.5825937 -127.94198412 358.67167295 -136.59185791 352.69775391 C-142.24986734 348.06883034 -147.1735631 342.75950795 -152.1328125 337.40625 C-153.9958513 335.49460533 -155.86343049 333.58879301 -157.73849487 331.68908691 C-162.12352716 327.22396833 -166.4381817 322.69705397 -170.73001564 318.14247942 C-175.62785941 312.95165617 -180.60184373 307.83651163 -185.58281159 302.72560215 C-195.80706851 292.2312514 -205.93513736 281.64737978 -216 271 C-213.07091216 269.53545608 -210.50384894 269.88748226 -207.2321167 269.89993286 C-206.52818669 269.90119513 -205.82425667 269.90245741 -205.09899545 269.90375793 C-202.72839306 269.90915695 -200.35788004 269.92168448 -197.98730469 269.93408203 C-196.29233434 269.93927278 -194.59736246 269.9439814 -192.90238953 269.94824219 C-189.24592453 269.95819952 -185.5894849 269.97105542 -181.9330368 269.98596573 C-176.1511889 270.00898674 -170.36934453 270.02232041 -164.58746338 270.03366089 C-148.14371345 270.06712902 -131.70001403 270.10869619 -115.25634766 270.17138672 C-106.17953592 270.20591019 -97.10276193 270.22971974 -88.02589154 270.24159515 C-83.22123543 270.24836833 -78.41673918 270.26083346 -73.61214447 270.28662491 C-69.09122629 270.3108911 -64.57049032 270.32126966 -60.04950905 270.32102966 C-58.39107742 270.3234505 -56.73264401 270.33102411 -55.07426262 270.34415817 C-52.8078844 270.361357 -50.54223678 270.35996307 -48.27581787 270.35403442 C-47.00818478 270.35809862 -45.74055168 270.36216282 -44.43450546 270.36635017 C-40.00667885 269.8940449 -36.84464333 268.31760238 -33.25 265.75 C-29.16939133 260.03714787 -29.42373174 251.99937162 -28.96875 245.27734375 C-28.88661255 244.138452 -28.8044751 242.99956024 -28.71984863 241.82615662 C-27.82308576 229.0805819 -27.15352423 216.32242565 -26.5 203.5625 C-25.73839569 188.71541213 -24.87540311 173.89023666 -23.73692322 159.06694031 C-22.72915472 145.75994554 -22.06855352 132.43591544 -21.39819336 119.10839844 C-20.61127946 103.57409219 -19.59620546 88.06800604 -18.44506836 72.55712891 C-18.30443683 70.6506273 -18.16391035 68.74411795 -18.02349091 66.83760071 C-17.68353503 62.22497711 -17.34216892 57.61245993 -17 53 C-18.11576227 53.0129051 -19.23152454 53.0258102 -20.38109779 53.03910637 C-47.56593768 53.35029538 -74.75054582 53.580145 -101.93679237 53.72537041 C-115.08415769 53.79747298 -128.23034445 53.89572057 -141.37695312 54.05615234 C-152.8394916 54.19596591 -164.30117638 54.28607838 -175.76454389 54.31723893 C-181.83139547 54.33544695 -187.89580548 54.37804015 -193.9618721 54.48022079 C-199.68034258 54.57575944 -205.39538353 54.60446507 -211.11457634 54.58350754 C-213.20521044 54.58733704 -215.29596754 54.61489599 -217.38590813 54.66887665 C-227.29939969 54.91221773 -234.91775809 54.96152951 -242.47200239 47.92926419 C-250 40.07239419 -250 40.07239419 -250 38 C-248.10380354 37.99641747 -248.10380354 37.99641747 -246.16930008 37.99276257 C-216.17528511 37.93542828 -186.18135057 37.86271601 -156.18742283 37.77101372 C-152.49734472 37.75974528 -148.80726624 37.74860687 -145.1171875 37.73754883 C-144.01522451 37.7342433 -144.01522451 37.7342433 -142.89099964 37.730871 C-130.98883773 37.6954787 -119.08667588 37.67062549 -107.18448082 37.64965298 C-94.97576533 37.6279063 -82.76711826 37.59486672 -70.55846095 37.55129844 C-63.02235615 37.52476211 -55.48633663 37.50708137 -47.95018741 37.50065396 C-42.17578411 37.49478659 -36.40152268 37.47322307 -30.62718582 37.44572449 C-28.25519533 37.43690549 -25.88317948 37.43322961 -23.51117325 37.43499184 C-20.28059821 37.43663462 -17.05062251 37.42003013 -13.82012939 37.39872742 C-12.87460748 37.40357499 -11.92908556 37.40842257 -10.95491147 37.41341704 C-6.00303781 37.36660923 -6.00303781 37.36660923 -1.41462326 35.69143391 C0.92085787 32.89895051 0.48878083 29.73182268 0.390625 26.26953125 C0.38213531 25.14390022 0.38213531 25.14390022 0.37347412 23.99552917 C0.35109668 21.60053496 0.30090171 19.20704131 0.25 16.8125 C0.22993659 15.18817266 0.21168553 13.56382185 0.1953125 11.93945312 C0.15122794 7.95905793 0.08219427 3.97978329 0 0 Z " fill="#DB3A3C" transform="translate(383,140)"/>
<path d="M0 0 C72.6 0 145.2 0 220 0 C220 9.0233934 219.8463093 17.71321854 219.09375 26.65625 C218.35519806 36.00612828 217.71406083 45.3527507 217.21875 54.71875 C217.12847534 56.4210376 217.12847534 56.4210376 217.03637695 58.15771484 C216.85549133 61.60503834 216.67723371 65.05248694 216.5 68.5 C215.79688496 82.17684658 215.04896168 95.84083386 214 109.49609375 C212.86081965 124.32634741 212.08351416 139.16950663 211.32275391 154.02319336 C210.91089294 162.01724555 210.47453983 170.00941188 210 178 C209.92990723 179.18841492 209.85981445 180.37682983 209.78759766 181.60125732 C209.57140778 185.14029279 209.33581127 188.67749267 209.09375 192.21484375 C209.02933716 193.28191055 208.96492432 194.34897736 208.89855957 195.44837952 C208.37548644 202.66698383 207.77331589 209.90695152 202 214.9375 C197.52356034 218.01505227 194.44203697 218.12916727 189.11186218 218.14717102 C188.40707774 218.15084771 187.70229331 218.1545244 186.97615176 218.1583125 C184.60868693 218.16934735 182.241266 218.17319281 179.8737793 218.17700195 C178.17865866 218.18326669 176.48353939 218.1899135 174.78842163 218.19691467 C170.17884407 218.21432177 165.56927688 218.22487538 160.9596746 218.2331202 C158.08028531 218.2382704 155.20089924 218.24434608 152.32151222 218.25063133 C143.3140129 218.26968159 134.30652176 218.28391375 125.29900616 218.2922433 C114.89843704 218.30201971 104.49808052 218.32835046 94.09758633 218.36874419 C86.06012944 218.3988902 78.02273355 218.41371068 69.98522121 218.41702431 C65.18391128 218.41937628 60.38282853 218.42835589 55.58157921 218.45348549 C51.06468044 218.47674512 46.54815877 218.48100799 42.03121567 218.47072411 C40.37439915 218.47022814 38.7175642 218.47656647 37.06080437 218.49028015 C34.7964471 218.50797296 32.53344705 218.50090719 30.26908875 218.48774719 C28.36958733 218.49132972 28.36958733 218.49132972 26.43171215 218.49498463 C21.00864846 217.71277067 17.97938657 215.27055555 14.6875 211 C12.43498531 206.99552944 11.88363078 203.62584904 11.53515625 199.08203125 C11.45845703 198.09299805 11.38175781 197.10396484 11.30273438 196.08496094 C11.22345703 195.00504883 11.14417969 193.92513672 11.0625 192.8125 C10.97677734 191.6668457 10.89105469 190.52119141 10.80273438 189.34082031 C9.50001859 171.57348866 8.43790925 153.78807941 7.53515625 135.99609375 C7.49663544 135.23767181 7.45811462 134.47924988 7.41842651 133.69784546 C7.37960358 132.93291779 7.34078064 132.16799011 7.30078125 131.37988281 C7.22137804 129.815754 7.14195078 128.2516264 7.0625 126.6875 C7.02286133 125.90564331 6.98322266 125.12378662 6.94238281 124.3182373 C6.22497399 110.27495953 5.29244082 96.25129869 4.30453491 82.22473145 C3.25130105 67.23710281 2.37408357 52.24716598 1.64648438 37.24023438 C1.57451648 35.77342286 1.50226054 34.30662545 1.4296875 32.83984375 C1.39546692 32.14353851 1.36124634 31.44723328 1.32598877 30.72982788 C1.12913764 26.91150348 0.83961937 23.1190464 0.4453125 19.31640625 C-0.09227477 12.89836871 0 6.44051286 0 0 Z " fill="#FEFEFE" transform="translate(146,193)"/>
<path d="M0 0 C0.66365067 -0.0049649 1.32730133 -0.00992981 2.01106262 -0.01504517 C4.21148714 -0.02967542 6.41183948 -0.03647135 8.61230469 -0.04199219 C10.14206952 -0.0477444 11.67183433 -0.05350212 13.20159912 -0.05926514 C16.41288591 -0.06977858 19.62414764 -0.07561851 22.83544922 -0.07910156 C26.94230099 -0.08457696 31.04881965 -0.10858279 35.15556717 -0.13707352 C38.31779939 -0.15573897 41.47995215 -0.16090764 44.6422348 -0.16243744 C46.15564539 -0.16545737 47.6690548 -0.17346362 49.18241119 -0.18662262 C51.30545499 -0.20376013 53.42769553 -0.2017843 55.55078125 -0.1953125 C56.75720276 -0.19895813 57.96362427 -0.20260376 59.206604 -0.20635986 C64.60499535 0.38983072 68.46747231 2.50645487 71.84667969 6.72363281 C72.3378125 7.32304688 72.82894531 7.92246094 73.33496094 8.54003906 C75.35378882 11.2690735 75.65534946 12.95502511 75.63183594 16.29394531 C75.62861328 17.09960938 75.62539063 17.90527344 75.62207031 18.73535156 C75.61369141 19.57710937 75.6053125 20.41886719 75.59667969 21.28613281 C75.59216797 22.135625 75.58765625 22.98511719 75.58300781 23.86035156 C75.57120843 25.9606419 75.55327275 28.06089612 75.53417969 30.16113281 C76.80418823 30.14447823 76.80418823 30.14447823 78.09985352 30.12748718 C86.10285485 30.02704724 94.10564264 29.95104756 102.10913086 29.90207195 C106.22325666 29.87604581 110.336859 29.84077755 114.45068359 29.78393555 C118.42537536 29.72936352 122.3995656 29.69965981 126.37460327 29.6867466 C127.88642261 29.67755155 129.39821639 29.65959569 130.90982056 29.63248253 C146.39372708 29.36595279 146.39372708 29.36595279 152.53417969 35.16113281 C157.77004731 41.1497081 157.11364115 48.17002285 157.00073242 55.76904297 C156.97155882 57.92004448 156.98018782 60.06860859 156.99316406 62.21972656 C156.94591201 72.61517726 156.94591201 72.61517726 155.27567011 74.82991189 C153.10495005 76.48924227 151.97904519 76.53606002 149.26628017 76.53586292 C147.95289721 76.54667274 147.95289721 76.54667274 146.61298126 76.55770093 C145.65034695 76.55032665 144.68771264 76.54295236 143.69590759 76.53535461 C142.16284724 76.54131622 142.16284724 76.54131622 140.59881598 76.54739827 C137.15777885 76.55705942 133.71714895 76.54517994 130.27612305 76.53344727 C127.81590114 76.53587395 125.35568022 76.53959207 122.89546204 76.54450989 C116.89732294 76.55295867 110.89934471 76.54738962 104.90122407 76.53524695 C97.92086864 76.52164095 90.94054197 76.52326353 83.96017665 76.52538028 C71.50882678 76.52857155 59.05753409 76.51689406 46.60620117 76.49731445 C34.51471211 76.4783056 22.42329005 76.47122779 10.33178711 76.47680664 C-2.82595775 76.48285945 -15.98367313 76.48269683 -29.14141554 76.47132081 C-30.54340358 76.47011348 -31.94539163 76.46890749 -33.34737968 76.46770287 C-34.03724086 76.46709933 -34.72710204 76.46649579 -35.43786811 76.46587396 C-40.30760721 76.46198897 -45.17733536 76.46239066 -50.04707527 76.46428871 C-56.59612128 76.46662788 -63.14509302 76.45810884 -69.69412422 76.44222832 C-72.10405622 76.43796993 -74.51399696 76.43714527 -76.92393112 76.43991852 C-80.20089436 76.44311858 -83.47759558 76.43411371 -86.75453186 76.42182922 C-88.20182941 76.42749821 -88.20182941 76.42749821 -89.67836529 76.43328172 C-90.55134618 76.42744953 -91.42432708 76.42161733 -92.32376194 76.41560841 C-93.08081694 76.41474163 -93.83787194 76.41387485 -94.61786801 76.41298181 C-96.46582031 76.16113281 -96.46582031 76.16113281 -98.46582031 74.16113281 C-98.6900737 71.6502487 -98.79392893 69.25279098 -98.80175781 66.73925781 C-98.80841461 66.00165222 -98.81507141 65.26404663 -98.82192993 64.50408936 C-98.83206438 62.94057714 -98.83674671 61.37702159 -98.83642578 59.81347656 C-98.84077879 57.43383147 -98.87702927 55.056072 -98.91503906 52.67675781 C-98.92091137 51.1559308 -98.92487799 49.635095 -98.92675781 48.11425781 C-98.94831436 47.0545578 -98.94831436 47.0545578 -98.9703064 45.97344971 C-98.9237705 40.87765513 -97.75565513 38.02129696 -94.46582031 34.16113281 C-89.97373285 30.59785852 -87.06447112 29.66583569 -81.35888672 29.70703125 C-80.67526062 29.70644714 -79.99163452 29.70586304 -79.28729248 29.70526123 C-77.04679056 29.70802911 -74.8076498 29.73905601 -72.56738281 29.77050781 C-71.00654833 29.7779749 -69.44570442 29.78366563 -67.88485718 29.78765869 C-63.79113553 29.8028784 -59.69798809 29.84212774 -55.60449219 29.88647461 C-51.42162848 29.92750697 -47.23867133 29.94568664 -43.05566406 29.96582031 C-34.85878696 30.00862633 -26.66237521 30.07683227 -18.46582031 30.16113281 C-18.51222656 28.93136719 -18.55863281 27.70160156 -18.60644531 26.43457031 C-18.64398067 24.80178222 -18.68037894 23.1689677 -18.71582031 21.53613281 C-18.74933594 20.72789063 -18.78285156 19.91964844 -18.81738281 19.08691406 C-18.90698441 13.57641578 -18.10758209 10.55417309 -14.46582031 6.16113281 C-9.8060949 1.46796439 -6.56211405 0.03723793 0 0 Z " fill="#FEFEFE" transform="translate(227.4658203125,100.8388671875)"/>
<path d="M0 0 C0.66 -0.0103125 1.32 -0.020625 2 -0.03125 C5.11301779 0.79564535 6.08340143 1.87513361 8 4.5 C8.60919092 7.928684 8.53566554 11.33029554 8.50170898 14.8046875 C8.50711197 15.85223206 8.51251495 16.89977661 8.51808167 17.97906494 C8.53059754 21.44466328 8.51405816 24.90943554 8.49609375 28.375 C8.49624867 30.78108768 8.49773649 33.18717562 8.50050354 35.59326172 C8.50188882 40.63715642 8.48930743 45.68076721 8.46655273 50.72460938 C8.43816811 57.19467487 8.4409039 63.66426848 8.45364285 70.1343689 C8.46059299 75.10314983 8.45281827 80.07182141 8.44038582 85.04058838 C8.43586487 87.42644837 8.43554011 89.81232008 8.43945122 92.19818115 C8.44235684 95.53080365 8.42588671 98.86277252 8.40405273 102.1953125 C8.40855438 103.18452698 8.41305603 104.17374146 8.41769409 105.19293213 C8.40778946 106.10137878 8.39788483 107.00982544 8.38768005 107.94580078 C8.38525016 108.73334747 8.38282026 109.52089417 8.38031673 110.33230591 C7.90058722 113.06662373 6.84875257 114.4595238 5 116.5 C2.36135393 117.49152409 -0.19265017 117.65281945 -3 117.5 C-6.26711826 115.82455474 -6.827811 115.01656699 -8 111.5 C-8.09677477 110.03704946 -8.13914963 108.57014512 -8.14717102 107.10401917 C-8.15432632 106.20536133 -8.16148163 105.30670349 -8.16885376 104.3808136 C-8.17154266 103.39735458 -8.17423157 102.41389557 -8.17700195 101.40063477 C-8.18357315 100.36298981 -8.19014435 99.32534485 -8.19691467 98.2562561 C-8.21664785 94.81797212 -8.22830835 91.37973174 -8.23828125 87.94140625 C-8.24235678 86.7686659 -8.2464323 85.59592556 -8.25063133 84.38764763 C-8.27148889 78.18445893 -8.28579384 71.98129236 -8.29516602 65.77807617 C-8.30624946 59.36065901 -8.34067286 52.94358678 -8.38033772 46.52629185 C-8.40643213 41.59957721 -8.41485131 36.67294581 -8.41844749 31.74616814 C-8.42332946 29.3798177 -8.43498886 27.01347137 -8.45348549 24.64718819 C-8.47773111 21.34076344 -8.47693871 18.03524545 -8.4699707 14.72875977 C-8.48278076 13.74732498 -8.49559082 12.7658902 -8.50878906 11.75471497 C-8.45773309 5.12639804 -8.45773309 5.12639804 -6.09562683 1.89390564 C-3.83534129 0.3904773 -2.69101571 -0.04204712 0 0 Z " fill="#DB3B3D" transform="translate(306,234.5)"/>
<path d="M0 0 C0.66 -0.0103125 1.32 -0.020625 2 -0.03125 C5.10801565 0.79431666 6.08426167 1.88307399 8 4.5 C8.6083484 7.89295643 8.53569518 11.25798991 8.50170898 14.69702148 C8.50711197 15.73320618 8.51251495 16.76939087 8.51808167 17.8369751 C8.53059804 21.26530441 8.51405673 24.69279867 8.49609375 28.12109375 C8.49624868 30.50236556 8.49773668 32.88363763 8.50050354 35.26490784 C8.50188888 40.25752906 8.48930734 45.24986348 8.46655273 50.24243164 C8.4381835 56.64289808 8.44089964 63.04288728 8.45364285 69.44338894 C8.46059772 74.36159848 8.45281258 79.27969769 8.44038582 84.19789314 C8.4358684 86.5578068 8.43553704 88.91773229 8.43945122 91.27764702 C8.44236108 94.57653957 8.42586577 97.87477451 8.40405273 101.17358398 C8.40855438 102.14985245 8.41305603 103.12612091 8.41769409 104.13197327 C8.36380509 109.03633845 8.28447976 112.56395634 5 116.5 C2.19084526 117.90457737 0.11189466 117.74895157 -3 117.5 C-6.1359157 115.72015595 -6.84102736 114.97691793 -8 111.5 C-8.09677477 110.03704946 -8.13914963 108.57014512 -8.14717102 107.10401917 C-8.15432632 106.20536133 -8.16148163 105.30670349 -8.16885376 104.3808136 C-8.17154266 103.39735458 -8.17423157 102.41389557 -8.17700195 101.40063477 C-8.18357315 100.36298981 -8.19014435 99.32534485 -8.19691467 98.2562561 C-8.21664785 94.81797212 -8.22830835 91.37973174 -8.23828125 87.94140625 C-8.24235678 86.7686659 -8.2464323 85.59592556 -8.25063133 84.38764763 C-8.27148889 78.18445893 -8.28579384 71.98129236 -8.29516602 65.77807617 C-8.30624946 59.36065901 -8.34067286 52.94358678 -8.38033772 46.52629185 C-8.40643213 41.59957721 -8.41485131 36.67294581 -8.41844749 31.74616814 C-8.42332946 29.3798177 -8.43498886 27.01347137 -8.45348549 24.64718819 C-8.47773111 21.34076344 -8.47693871 18.03524545 -8.4699707 14.72875977 C-8.48278076 13.74732498 -8.49559082 12.7658902 -8.50878906 11.75471497 C-8.45773309 5.12639804 -8.45773309 5.12639804 -6.09562683 1.89390564 C-3.83534129 0.3904773 -2.69101571 -0.04204712 0 0 Z " fill="#DB3A3C" transform="translate(256,234.5)"/>
<path d="M0 0 C0.66 -0.0103125 1.32 -0.020625 2 -0.03125 C5.10801565 0.79431666 6.08426167 1.88307399 8 4.5 C8.6083484 7.89295643 8.53569518 11.25798991 8.50170898 14.69702148 C8.50711197 15.73320618 8.51251495 16.76939087 8.51808167 17.8369751 C8.53059804 21.26530441 8.51405673 24.69279867 8.49609375 28.12109375 C8.49624868 30.50236556 8.49773668 32.88363763 8.50050354 35.26490784 C8.50188888 40.25752906 8.48930734 45.24986348 8.46655273 50.24243164 C8.4381835 56.64289808 8.44089964 63.04288728 8.45364285 69.44338894 C8.46059772 74.36159848 8.45281258 79.27969769 8.44038582 84.19789314 C8.4358684 86.5578068 8.43553704 88.91773229 8.43945122 91.27764702 C8.44236108 94.57653957 8.42586577 97.87477451 8.40405273 101.17358398 C8.40855438 102.14985245 8.41305603 103.12612091 8.41769409 104.13197327 C8.36379895 109.03689736 8.28240355 112.56103392 5 116.5 C3.1328125 117.3828125 3.1328125 117.3828125 1.125 117.625 C0.46757812 117.73070312 -0.18984375 117.83640625 -0.8671875 117.9453125 C-4.4878403 117.18935202 -5.76837453 115.39677267 -8 112.5 C-8.74118374 109.03039537 -8.67306146 105.61872258 -8.63110352 102.08178711 C-8.63825882 101.03409653 -8.64541412 99.98640594 -8.65278625 98.90696716 C-8.66968407 95.44664811 -8.65026429 91.98762245 -8.62890625 88.52734375 C-8.62973478 86.12268466 -8.63219355 83.71802562 -8.63621521 81.31336975 C-8.63907389 76.27539002 -8.62436318 71.23785469 -8.59692383 66.19995117 C-8.56282335 59.73765519 -8.56886508 53.27615304 -8.5875864 46.81381893 C-8.59814668 41.84930283 -8.58922759 36.88497196 -8.57420158 31.9204731 C-8.56901344 29.53740552 -8.5695092 27.15431865 -8.57574654 24.77125359 C-8.58118747 21.44335079 -8.56085869 18.11659098 -8.53344727 14.78881836 C-8.53997314 13.80117493 -8.54649902 12.81353149 -8.55322266 11.79595947 C-8.45968624 5.12866729 -8.45968624 5.12866729 -6.09165955 1.89015198 C-3.83379718 0.38953882 -2.68781293 -0.04199708 0 0 Z " fill="#DB3B3D" transform="translate(206,234.5)"/>
<path d="M0 0 C7.88867408 6.76172064 7.88867408 6.76172064 10.52734375 9.39453125 C11.09130859 9.95720703 11.65527344 10.51988281 12.23632812 11.09960938 C12.79771484 11.66486328 13.35910156 12.23011719 13.9375 12.8125 C14.52595703 13.39708984 15.11441406 13.98167969 15.72070312 14.58398438 C20 18.87322154 20 18.87322154 20 20 C13.73 20 7.46 20 1 20 C0.67 13.4 0.34 6.8 0 0 Z " fill="#DB3B3D" transform="translate(302,111)"/>
</svg>
