<?xml version="1.0" encoding="UTF-8"?>
<svg version="1.1" xmlns="http://www.w3.org/2000/svg" width="512" height="512">
<path d="M0 0 C1.13573456 -0.0065712 2.27146912 -0.0131424 3.44161987 -0.01991272 C7.19187492 -0.03958781 10.94209005 -0.05129462 14.69238281 -0.0612793 C15.97624123 -0.06535482 17.26009964 -0.06943035 18.58286285 -0.07362938 C24.67720723 -0.09231937 30.77153174 -0.1068917 36.86589885 -0.11524135 C43.87618403 -0.12500749 50.88615295 -0.15132165 57.89632678 -0.19174224 C63.98852873 -0.22565219 70.08059865 -0.23739523 76.17288971 -0.24144554 C78.75477495 -0.24630751 81.33665691 -0.25791027 83.91847992 -0.27648354 C87.53705363 -0.30090009 91.15480617 -0.2999049 94.7734375 -0.29296875 C95.83144562 -0.30577881 96.88945374 -0.31858887 97.97952271 -0.33178711 C109.15605348 -0.25401958 117.98174623 3.76420433 126.20800781 11.30200195 C134.85660074 20.33327598 136.09758393 31.01001713 137.02832031 43.0090332 C139.7661124 77.48971658 153.36589711 107.83875084 179.68847656 130.80981445 C202.64364102 149.18607556 228.61177533 157.68814532 257.77246094 159.2121582 C269.82005788 160.03446682 279.50218189 164.41775051 287.96972656 173.1105957 C293.72497477 180.20739361 295.7636114 187.49938581 295.79267883 196.45304871 C295.79635552 197.18767832 295.80003221 197.92230793 295.80382031 198.67919904 C295.81483779 201.14225958 295.81869784 203.6052779 295.82250977 206.06835938 C295.82877633 207.83444858 295.8354233 209.60053647 295.84242249 211.36662292 C295.86345817 217.17189619 295.87383058 222.97716969 295.88378906 228.7824707 C295.88783806 230.78554104 295.89195503 232.78861123 295.89613914 234.79168129 C295.91519681 244.21193252 295.92942158 253.63217593 295.93775111 263.05244273 C295.94749893 273.89605231 295.97375161 284.73945641 296.01425201 295.58299369 C296.04453046 303.98072446 296.05923141 312.37839679 296.06253213 320.77618104 C296.06487102 325.78294482 296.07367772 330.78948929 296.0989933 335.79619408 C296.12248228 340.51832907 296.12642469 345.24010364 296.11623192 349.96228218 C296.11574132 351.68220604 296.12191877 353.4021489 296.13578796 355.12201691 C296.24586598 369.59963599 294.57000229 383.86933068 287.95800781 396.98950195 C287.61987061 397.68470947 287.2817334 398.37991699 286.93334961 399.09619141 C283.59128565 405.72307914 279.39446229 411.47314102 274.64550781 417.17700195 C273.86304688 418.16571289 273.08058594 419.15442383 272.27441406 420.1730957 C258.97797012 435.36620922 238.53810865 445.50012511 218.64550781 448.17700195 C215.53230086 448.32164548 212.42286468 448.32483649 209.3066864 448.32417297 C208.37433743 448.32784966 207.44198846 448.33152635 206.48138648 448.33531445 C203.3612019 448.34631594 200.24105066 448.35018919 197.12084961 448.35400391 C194.8815653 448.36027142 192.64228202 448.36691847 190.40299988 448.37391663 C183.05024944 448.39493202 175.69749885 448.40531934 168.34472656 448.4152832 C165.80859682 448.41933224 163.27246719 448.42344921 160.73633766 448.42763329 C150.18046071 448.44450079 139.62458588 448.45913329 129.06869793 448.46638203 C126.33250108 448.46829163 123.59630424 448.470212 120.86010742 448.47216797 C119.84012376 448.47289358 119.84012376 448.47289358 118.79953436 448.47363385 C107.80532006 448.4819189 96.8112151 448.50723097 85.81704845 448.53974865 C74.50421596 448.57293318 63.19145832 448.59050924 51.8785699 448.59402627 C45.53717004 448.59636924 39.19594297 448.60523112 32.85458946 448.63048744 C26.87994606 448.6538984 20.90558763 448.65794923 14.93091011 448.64772606 C12.74979576 448.64723368 10.56866677 448.65346502 8.38759613 448.6672821 C-7.4567143 448.76195888 -22.74887085 447.75560669 -37.16699219 440.48950195 C-38.20980347 439.98229614 -38.20980347 439.98229614 -39.27368164 439.46484375 C-45.90056937 436.12277979 -51.65063125 431.92595643 -57.35449219 427.17700195 C-58.83755859 426.00331055 -58.83755859 426.00331055 -60.35058594 424.8059082 C-75.47938251 411.56575203 -85.79825681 391.03128968 -88.35449219 371.17700195 C-88.50558194 367.25426557 -88.50231232 363.33377528 -88.50166321 359.40849304 C-88.5053399 358.21479672 -88.50901658 357.02110039 -88.51280469 355.79123145 C-88.52190404 352.4855314 -88.52653518 349.17988088 -88.529194 345.87417305 C-88.5331088 342.30540507 -88.54268645 338.73665131 -88.55140686 335.16789246 C-88.57114055 326.55177352 -88.58123462 317.93565346 -88.59013465 309.31951758 C-88.59452358 305.25573874 -88.5998889 301.19196119 -88.60512352 297.12818336 C-88.62213449 283.60762522 -88.63662598 270.08706786 -88.64387226 256.56650066 C-88.64578197 253.06028429 -88.64770233 249.55406791 -88.6496582 246.04785156 C-88.65014194 245.17646311 -88.65062568 244.30507465 -88.65112408 243.40728048 C-88.65941438 229.30914507 -88.68473495 215.21109477 -88.71723888 201.11299648 C-88.75038347 186.61805369 -88.76832778 172.12315404 -88.7715165 157.62817317 C-88.77367502 149.49826929 -88.7823264 141.36848945 -88.80797768 133.23862267 C-88.82978623 126.31088305 -88.83768566 119.38329762 -88.82801089 112.45552757 C-88.82349503 108.92726997 -88.82519159 105.39932979 -88.84477234 101.87111664 C-88.9265998 84.2402665 -88.76526404 67.39535937 -80.60449219 51.30200195 C-80.26305176 50.60349121 -79.92161133 49.90498047 -79.56982422 49.18530273 C-76.46621643 43.02496086 -72.69874256 37.53368356 -68.35449219 32.17700195 C-67.68933594 31.26821289 -67.68933594 31.26821289 -67.01074219 30.34106445 C-51.56290261 10.27771183 -24.50392438 0.06180319 0 0 Z M75.75488281 212.4543457 C63.80884603 227.87358207 62.61823238 246.83859149 64.95019531 265.63256836 C67.11429864 277.83049258 72.52641245 287.94078462 82.64550781 295.17700195 C93.87805434 302.89782107 109.57496949 303.42888768 122.52050781 301.05200195 C135.27537915 298.08187957 144.57298323 292.55803135 151.83300781 281.67700195 C160.3815207 266.32176432 160.91152582 246.86020298 157.52050781 229.86450195 C154.54552396 219.42425489 149.26242751 210.22015515 139.88378906 204.48950195 C119.69793709 193.73749885 92.00173785 195.19926385 75.75488281 212.4543457 Z M184.52832031 212.7355957 C173.62528359 226.87335079 171.05150999 244.50595755 173.07910156 261.89575195 C175.12398121 274.19043208 179.35845379 285.66432575 189.38378906 293.63012695 C200.24340114 301.05742641 212.83453952 303.38232015 225.83300781 301.48950195 C232.93128324 300.08865025 241.19910516 298.31630102 245.64550781 292.17700195 C245.77509205 289.40861146 245.71828031 287.13726624 245.39550781 284.42700195 C245.32976562 283.72961914 245.26402344 283.03223633 245.19628906 282.3137207 C245.03191455 280.59952933 244.84128127 278.88789172 244.64550781 277.17700195 C241.32544344 277.85331136 238.63939607 279.10703616 235.64550781 280.67700195 C227.58358013 284.90459818 219.15422053 285.29248888 210.16113281 283.7512207 C203.70854509 281.71290326 200.45677186 276.95858603 196.89550781 271.48950195 C191.77932971 257.93162997 192.06876996 241.45103589 197.96972656 228.2043457 C201.46119355 221.98202003 204.78525981 218.46375129 211.64550781 216.17700195 C221.35247882 215.2884148 228.5785513 215.67794804 237.19238281 220.7668457 C239.40943765 222.0412992 241.15173555 222.71670287 243.64550781 223.17700195 C245.41682877 220.10907406 245.96603422 217.77483808 246.02050781 214.23950195 C246.04886719 213.40547852 246.07722656 212.57145508 246.10644531 211.7121582 C245.473823 208.23273547 244.12756354 206.67146796 241.64550781 204.17700195 C238.85659242 202.55946238 238.85659242 202.55946238 235.77050781 201.42700195 C234.76246094 201.0196582 233.75441406 200.61231445 232.71582031 200.19262695 C215.47026351 194.48798984 196.86683965 199.57284329 184.52832031 212.7355957 Z M-29.35449219 200.17700195 C-31.98538832 204.12334616 -31.64982827 207.51774727 -31.64501953 212.09887695 C-31.65173676 213.01133179 -31.65845398 213.92378662 -31.66537476 214.8638916 C-31.68439847 217.88498351 -31.68828088 220.90585386 -31.69042969 223.92700195 C-31.69685356 226.02303154 -31.7035816 228.11906022 -31.71060181 230.21508789 C-31.7225848 234.60996582 -31.72628147 239.00476508 -31.72509766 243.3996582 C-31.72489418 249.03924932 -31.75222174 254.67833814 -31.78664207 260.31781006 C-31.80884419 264.64658947 -31.81293729 268.97524661 -31.8118782 273.30407715 C-31.81424329 275.38376602 -31.82311749 277.46345781 -31.83854294 279.54309082 C-31.85807181 282.44746452 -31.8524171 285.35073668 -31.84033203 288.25512695 C-31.85157104 289.11859741 -31.86281006 289.98206787 -31.87438965 290.8717041 C-31.87961619 295.45657626 -31.87961619 295.45657626 -29.51924133 299.21035767 C-26.4607401 300.57609686 -23.9062795 300.56609718 -20.56152344 300.57543945 C-19.57296608 300.58178406 -19.57296608 300.58178406 -18.56443787 300.58825684 C-16.43145951 300.5946468 -14.29983422 300.57583292 -12.16699219 300.55200195 C-11.08061462 300.54502289 -11.08061462 300.54502289 -9.97229004 300.53790283 C7.04257822 300.40896654 22.81834027 299.41572668 37.02050781 288.86450195 C47.62091554 278.01170357 51.45093315 263.74604097 51.95800781 248.86450195 C51.65776886 235.87916725 48.5283387 222.54854068 39.47753906 212.83325195 C26.09775152 200.73723933 10.2752013 199.51339094 -6.89331055 199.71044922 C-9.70842365 199.73993592 -12.52170621 199.73090572 -15.33691406 199.71801758 C-17.13054302 199.72424147 -18.92416611 199.73262175 -20.71777344 199.7434082 C-21.55722 199.74047256 -22.39666656 199.73753693 -23.2615509 199.73451233 C-25.84293079 199.74151939 -25.84293079 199.74151939 -29.35449219 200.17700195 Z " fill="#0071FF" transform="translate(152.3544921875,31.822998046875)"/>
<path d="M0 0 C7.12019748 4.1705877 12.82146448 10.55610604 18.5625 16.375 C19.46935547 17.2825 20.37621094 18.19 21.31054688 19.125 C24.95335178 22.79157956 28.53942112 26.44750269 31.88305664 30.38964844 C37.19348817 36.49577734 43.01113395 42.12089365 48.74728012 47.82244492 C50.9012451 49.96354163 53.05197854 52.10783868 55.20193481 54.25296021 C59.75680799 58.79646953 64.3156261 63.33600774 68.875 67.875 C74.18109683 73.15749629 79.48556463 78.44160741 84.78586197 83.72992325 C86.90720457 85.84477338 89.03152892 87.95659732 91.15597534 90.06832886 C92.44771737 91.35644076 93.73932056 92.64469192 95.03076172 93.93310547 C95.62396713 94.52114456 96.21717255 95.10918365 96.82835388 95.71504211 C101.88396104 100.76998704 101.88396104 100.76998704 102.3125 105.3125 C101.95124058 109.57536111 100.98007946 111.01992054 98 114 C87.03476291 119.48261854 61.99649898 115.6663494 50.7421875 112.38671875 C38.50395267 107.85167348 28.07187218 102.38569926 18 94 C17.01128906 93.21753906 16.02257812 92.43507813 15.00390625 91.62890625 C-0.27231658 78.25972814 -10.16686627 57.9396371 -13 38 C-13.27349302 33.24250099 -13.35415608 28.48699725 -13.4050293 23.72290039 C-13.42670512 22.19728085 -13.46092099 20.67178879 -13.50756836 19.14672852 C-13.57458984 16.92929542 -13.60201012 14.71439643 -13.62109375 12.49609375 C-13.6461499 11.17794678 -13.67120605 9.8597998 -13.69702148 8.50170898 C-12.98418358 4.92054117 -12.74894232 4.33084379 -10.17211914 2.07446289 C-6.24913709 -0.49103996 -4.60444769 -0.87325732 0 0 Z " fill="#0071FF" transform="translate(333,45)"/>
<path d="M0 0 C7.06568086 3.83111026 9.62405633 9.20887775 12.09375 16.578125 C13.19786108 20.53084267 13.70210304 24.28310536 13.875 28.375 C13.9265625 29.1071875 13.978125 29.839375 14.03125 30.59375 C14.44787191 41.00929764 13.03579916 53.15764224 6.55859375 61.60546875 C2.21492704 66.17085395 -2.20181653 69.20591709 -8.63671875 69.578125 C-24.86193088 69.88752878 -24.86193088 69.88752878 -30.7890625 65.00390625 C-39.52103103 56.03535729 -40.46209011 42.99897052 -40.3359375 31.140625 C-39.78493617 21.30423089 -38.11541924 11.72430237 -31.125 4.375 C-22.42239996 -2.46511177 -10.39779449 -4.23288593 0 0 Z " fill="#0071FF" transform="translate(277.125,247.625)"/>
<path d="M0 0 C26.02702703 0 26.02702703 0 33.875 6.3125 C34.57625 7.199375 35.2775 8.08625 36 9 C36.43957031 9.5259375 36.87914062 10.051875 37.33203125 10.59375 C42.97905421 17.7542402 43.34445098 25.55652949 43.3125 34.375 C43.32861328 35.25671875 43.34472656 36.1384375 43.36132812 37.046875 C43.36776227 45.82304517 41.64450048 54.06532798 36 61 C25.37921306 71.14875196 14.47519028 70 0 70 C0 46.9 0 23.8 0 0 Z " fill="#0071FF" transform="translate(140,247)"/>
</svg>
