<?xml version="1.0" encoding="UTF-8"?>
<svg version="1.1" xmlns="http://www.w3.org/2000/svg" width="512" height="512">
<path d="M0 0 C0.8474881 -0.00100708 1.6949762 -0.00201416 2.56814575 -0.00305176 C15.14002812 0.0070582 27.32332643 0.42275739 39.625 3.25 C40.61234131 3.4668042 40.61234131 3.4668042 41.61962891 3.68798828 C66.59506302 9.29953767 90.42476176 20.50457971 105.53125 41.95703125 C114.54087448 56.21590727 116.98660133 72.81687587 113.96484375 89.3125 C112.02873791 97.62685926 109.14691637 105.5855645 106.27441406 113.61474609 C100.9827674 128.52989871 97.33169053 143.38311504 96.625 159.25 C96.955 159.91 97.285 160.57 97.625 161.25 C98.27214966 160.60008496 98.91929932 159.95016993 99.58605957 159.28056049 C115.34430468 143.4560181 131.1108816 127.63981954 146.88673401 111.83282948 C154.51566315 104.18844158 162.14176309 96.54127098 169.76123047 88.88745117 C176.40354761 82.21520144 183.05114858 75.54826921 189.70510674 68.88762778 C193.22705276 65.36177608 196.7463242 61.83334615 200.25927734 58.29853249 C203.56873033 54.96865352 206.88522586 51.64595275 210.20715523 48.32852173 C211.42230453 47.11254996 212.63490294 45.89402257 213.84467888 44.6727047 C223.21592075 35.2164932 231.33456743 27.43589357 245.375 26.875 C254.15917246 27.08310384 260.8777478 29.32378518 267.36621094 35.3347168 C268.6686676 36.53830338 268.6686676 36.53830338 269.99743652 37.76620483 C276.80605933 44.2022908 283.48521599 50.76453704 290.13964844 57.35961914 C291.96416515 59.16247745 293.79492263 60.95904167 295.63183594 62.74926758 C298.31629038 65.36639502 300.98013834 68.00306775 303.640625 70.64453125 C304.45323792 71.42931351 305.26585083 72.21409576 306.10308838 73.0226593 C312.44667493 79.38915995 318.43926779 87.32665093 319.3515625 96.5703125 C318.72384019 120.08575602 301.84473394 132.17964171 286.12817383 147.86035156 C284.38251608 149.60572673 282.63707951 151.35132313 280.8918457 153.09712219 C277.15681135 156.83238292 273.42026799 160.56612375 269.68229103 164.29843903 C264.2780258 169.69452415 258.87657436 175.09341886 253.47577222 180.49296984 C244.71000967 189.25655203 235.94202346 198.01790587 227.17260742 206.77783203 C218.66165963 215.27957932 210.15177879 223.78239227 201.64331055 232.28662109 C201.11750229 232.81216663 200.59169403 233.33771216 200.04995219 233.87918332 C197.41173128 236.51609904 194.77353113 239.15303552 192.13534129 241.78998232 C170.30177594 263.6132067 148.46455118 285.43276585 126.625 307.25 C127.82576172 307.44118408 129.02652344 307.63236816 130.26367188 307.8293457 C131.87373122 308.09045227 133.4837554 308.35177574 135.09375 308.61328125 C135.88104492 308.73803833 136.66833984 308.86279541 137.47949219 308.99133301 C156.70997283 312.13553634 176.19086219 319.71187592 192.625 330.25 C194.97049674 333.76824511 195.20491403 335.10775694 194.625 339.25 C192.3622256 342.31140066 190.92800618 344.01456586 187.1171875 344.703125 C181.82270956 344.01614576 177.58888663 341.54322578 172.875 339.125 C165.64483215 335.54122172 158.4871051 332.20422631 150.8125 329.6875 C149.78527832 329.3479126 149.78527832 329.3479126 148.73730469 329.00146484 C139.61781495 326.13692439 130.86679729 324.9048469 121.3125 324.9375 C119.86907227 324.91333008 119.86907227 324.91333008 118.39648438 324.88867188 C117.46513672 324.88802734 116.53378906 324.88738281 115.57421875 324.88671875 C114.74237061 324.88373779 113.91052246 324.88075684 113.0534668 324.87768555 C107.06611679 325.79562148 103.16091691 330.45271178 99.11328125 334.58227539 C98.4799437 335.22013977 97.84660614 335.85800415 97.19407654 336.51519775 C95.82237196 337.89783804 94.45295145 339.28274726 93.08557129 340.66966438 C90.91080852 342.87471952 88.72932689 345.07292115 86.54589844 347.26939392 C80.33984439 353.51506775 74.14639136 359.77318119 67.95654297 366.03491211 C64.16416769 369.87038157 60.36420662 373.69820935 56.55990601 377.52184868 C55.12186931 378.97035128 53.68674626 380.42175327 52.25479126 381.87626839 C31.15774016 403.30486112 10.55732632 413.35166214 -17.875 422.75 C-20.29723646 423.56011796 -22.71911379 424.37131054 -25.140625 425.18359375 C-29.90485793 426.78058112 -34.6735151 428.363275 -39.4453125 429.9375 C-44.02073626 431.45196398 -48.57438908 433.01539939 -53.1171875 434.625 C-54.18908325 434.99902954 -55.260979 435.37305908 -56.36535645 435.75842285 C-58.35679248 436.45487322 -60.34386517 437.16400348 -62.32507324 437.88903809 C-69.16164554 440.25743845 -76.83761811 442.12299569 -83.79309082 439.25183105 C-89.20252629 436.2333641 -92.40787167 432.15138498 -94.375 426.25 C-95.26640884 417.41948119 -92.25860263 409.87673794 -89.375 401.6875 C-88.89197076 400.28363548 -88.41018908 398.87934105 -87.9296875 397.47460938 C-86.7591403 394.06132768 -85.57179467 390.65418059 -84.375 387.25 C-85.23440186 387.18530518 -86.09380371 387.12061035 -86.97924805 387.05395508 C-146.71408428 382.40866543 -146.71408428 382.40866543 -165.75 361.875 C-173.89594798 351.53953421 -176.48532207 340.17528765 -175.375 327.25 C-169.10471603 290.58074438 -135.86070286 257.02551341 -107.69921875 235.07421875 C-105.39062873 233.26226658 -103.22978697 231.3527974 -101.0625 229.375 C-97.38388478 226.05703334 -93.54571483 223.02102744 -89.625 220 C-83.53265837 215.29149379 -77.87160346 210.23783939 -72.26953125 204.9609375 C-69.9498466 202.78838534 -67.60366634 200.68769912 -65.1875 198.625 C-53.16333789 188.13530209 -34.96160311 171.39614004 -32.9375 154.625 C-33.01763033 151.19897294 -33.01763033 151.19897294 -35.3125 149.4375 C-61.86804947 139.14045021 -94.41729113 152.09894436 -119.11376953 162.32910156 C-135.01271122 168.80403225 -150.65306943 172.40459945 -167.375 166.25 C-180.31002224 160.21490968 -186.94128992 151.03890603 -192.375 138.25 C-197.40848283 121.31426957 -192.41585253 103.09913303 -184.3125 88.125 C-179.65719792 79.98865257 -173.74821333 73.07959533 -167.375 66.25 C-166.35986328 65.13044922 -166.35986328 65.13044922 -165.32421875 63.98828125 C-131.2063919 27.97096083 -76.41753517 7.47371801 -28.375 1.25 C-27.68809082 1.1557373 -27.00118164 1.06147461 -26.29345703 0.96435547 C-17.56667348 -0.081362 -8.7763475 0.00722289 0 0 Z M-86.375 33.25 C-87.57962891 33.74838379 -87.57962891 33.74838379 -88.80859375 34.25683594 C-112.3783662 44.12047316 -133.28748163 57.32432764 -152.375 74.25 C-153.04015625 74.83007812 -153.7053125 75.41015625 -154.390625 76.0078125 C-166.79090764 87.53891645 -176.94439709 104.61413488 -178.3359375 121.5703125 C-178.47352974 131.00914034 -175.90843451 138.23192215 -169.62109375 145.19140625 C-163.57105596 151.04588726 -156.95848506 153.25033357 -148.625 153.6875 C-139.25452864 153.33720201 -130.54115381 149.88546857 -122.125 146 C-106.21096102 138.69857016 -88.71579119 133.66480406 -71.375 131.25 C-70.05822266 131.05664062 -70.05822266 131.05664062 -68.71484375 130.859375 C-54.57359503 129.11183857 -36.50426163 128.49813567 -24.375 137.25 C-20.27018907 141.06990117 -17.78256532 145.33269037 -17.00390625 150.90625 C-16.52206714 171.54030147 -31.63258595 187.85408913 -45.05078125 202.01904297 C-51.22338191 208.40626566 -57.58249884 214.5236939 -64.375 220.25 C-65.4579874 221.18378806 -66.53991943 222.11880079 -67.62109375 223.0546875 C-72.8073719 227.53680495 -77.99641249 231.99860822 -83.375 236.25 C-103.45252343 252.14744888 -123.93428587 269.7301036 -139.375 290.25 C-139.77912109 290.77770996 -140.18324219 291.30541992 -140.59960938 291.84912109 C-150.49210719 304.82834761 -161.65125934 321.11482552 -159.375 338.25 C-157.51773328 346.39101911 -152.83907714 352.9774486 -145.8125 357.4375 C-127.40198954 367.50191239 -106.72111226 370.31923832 -86.0078125 370.265625 C-85.17580322 370.26449707 -84.34379395 370.26336914 -83.48657227 370.26220703 C-81.44937955 370.25928213 -79.41218917 370.25479903 -77.375 370.25 C-77.04814209 369.26306152 -76.72128418 368.27612305 -76.38452148 367.25927734 C-75.14445186 363.52440855 -73.89042019 359.79434327 -72.63256836 356.06542969 C-72.09469442 354.46477832 -71.56038833 352.86292266 -71.0300293 351.25976562 C-63.25196885 327.7710533 -51.8918833 311.10692259 -34.16088867 294.01269531 C-32.87441531 292.7599195 -31.58880157 291.50626044 -30.30397034 290.25180054 C-27.56470571 287.57896322 -24.82142361 284.91034404 -22.07536888 282.24448395 C-17.72824939 278.02036554 -13.40270675 273.77459408 -9.0818634 269.52362061 C-7.98211906 268.44189729 -7.98211906 268.44189729 -6.86015767 267.33832097 C-5.36278554 265.86535406 -3.86547401 264.39232554 -2.36822188 262.91923666 C7.67136693 253.04283937 17.72319814 243.18013907 27.83813477 233.38085938 C34.69161997 226.74093373 41.50872463 220.06594513 48.28626651 213.34849238 C51.86433538 209.80495105 55.45808686 206.28160062 59.09720802 202.80069733 C62.5155736 199.53041995 65.88375808 196.21571831 69.2202549 192.86201859 C70.44696147 191.64554803 71.69073912 190.44599979 72.95264816 189.26608658 C79.69739742 183.17876342 79.69739742 183.17876342 82.90266585 174.99075603 C82.8593086 170.25861413 82.03278402 165.76453465 80.99651086 161.16130686 C80.21421863 157.13665868 80.64852759 153.16193499 81.125 149.125 C81.219021 148.26285889 81.31304199 147.40071777 81.40991211 146.51245117 C83.78312671 127.25959693 90.13611078 108.95320197 96.78051758 90.82348633 C100.53859717 79.37106743 99.7530069 66.41845002 94.3359375 55.69921875 C83.58965081 36.76391679 64.62956083 26.59930279 44.20141602 20.89282227 C42.01479639 20.31926278 39.82323985 19.77716177 37.625 19.25 C36.95710449 19.08483887 36.28920898 18.91967773 35.60107422 18.74951172 C-3.85435245 9.48673008 -49.70886579 17.92003394 -86.375 33.25 Z " fill="#FCA65F" transform="translate(193.375,35.75)"/>
<path d="M0 0 C2.37786865 1.89530945 2.37786865 1.89530945 4.74121094 4.0847168 C5.60951538 4.88710785 6.47781982 5.6894989 7.37243652 6.51620483 C14.18105933 12.9522908 20.86021599 19.51453704 27.51464844 26.10961914 C29.33916515 27.91247745 31.16992263 29.70904167 33.00683594 31.49926758 C35.69129038 34.11639502 38.35513834 36.75306775 41.015625 39.39453125 C41.82823792 40.17931351 42.64085083 40.96409576 43.47808838 41.7726593 C49.82167493 48.13915995 55.81426779 56.07665093 56.7265625 65.3203125 C56.09884019 88.83575602 39.21973394 100.92964171 23.50317383 116.61035156 C21.75751608 118.35572673 20.01207951 120.10132313 18.2668457 121.84712219 C14.53181135 125.58238292 10.79526799 129.31612375 7.05729103 133.04843903 C1.6530258 138.44452415 -3.74842564 143.84341886 -9.14922778 149.24296984 C-17.91499033 158.00655203 -26.68297654 166.76790587 -35.45239258 175.52783203 C-43.96334037 184.02957932 -52.47322121 192.53239227 -60.98168945 201.03662109 C-61.50749771 201.56216663 -62.03330597 202.08771216 -62.57504781 202.62918332 C-65.21326872 205.26609904 -67.85146887 207.90303552 -70.48965871 210.53998232 C-92.32322406 232.3632067 -114.16044882 254.18276585 -136 276 C-134.79923828 276.19118408 -133.59847656 276.38236816 -132.36132812 276.5793457 C-130.75126878 276.84045227 -129.1412446 277.10177574 -127.53125 277.36328125 C-126.74395508 277.48803833 -125.95666016 277.61279541 -125.14550781 277.74133301 C-105.91502717 280.88553634 -86.43413781 288.46187592 -70 299 C-67.65450326 302.51824511 -67.42008597 303.85775694 -68 308 C-70.2627744 311.06140066 -71.69699382 312.76456586 -75.5078125 313.453125 C-80.80229044 312.76614576 -85.03611337 310.29322578 -89.75 307.875 C-96.98016785 304.29122172 -104.1378949 300.95422631 -111.8125 298.4375 C-112.83972168 298.0979126 -112.83972168 298.0979126 -113.88769531 297.75146484 C-123.00718505 294.88692439 -131.75820271 293.6548469 -141.3125 293.6875 C-142.75592773 293.66333008 -142.75592773 293.66333008 -144.22851562 293.63867188 C-145.15986328 293.63802734 -146.09121094 293.63738281 -147.05078125 293.63671875 C-147.88262939 293.63373779 -148.71447754 293.63075684 -149.5715332 293.62768555 C-155.50728092 294.5377102 -159.41044461 299.13344539 -163.44262695 303.21557617 C-164.0675856 303.84024277 -164.69254425 304.46490936 -165.33644104 305.10850525 C-167.39183332 307.16528593 -169.44005892 309.22904995 -171.48828125 311.29296875 C-172.91559369 312.72401305 -174.34334962 314.15461514 -175.77153015 315.58479309 C-179.52255863 319.34344433 -183.2675411 323.10806376 -187.0112915 326.8739624 C-190.83527087 330.71842936 -194.66494414 334.55721503 -198.49414062 338.39648438 C-206.00167386 345.92544359 -213.50283143 353.46072082 -221 361 C-221.94226329 357.64155896 -221.90579631 355.69055362 -221.00390625 352.296875 C-220.77509766 351.39839844 -220.54628906 350.49992187 -220.31054688 349.57421875 C-219.8159723 347.70697374 -219.32118427 345.83978524 -218.82617188 343.97265625 C-217.42754791 338.48002097 -216.53980268 333.67366564 -217 328 C-217.99 326.515 -217.99 326.515 -219 325 C-163.56 269.56 -108.12 214.12 -51 157 C-55.04727301 152.27818149 -59.07067008 147.78797049 -63.46435547 143.42211914 C-64.07970657 142.80662201 -64.69505768 142.19112488 -65.32905579 141.55697632 C-67.3394021 139.54732002 -69.35325411 137.54121726 -71.3671875 135.53515625 C-72.77130661 134.13290456 -74.17520336 132.73043019 -75.57888794 131.32774353 C-79.25584379 127.65458732 -82.93579391 123.98444546 -86.61639404 120.31494141 C-90.37890237 116.56270233 -94.13854579 112.80759507 -97.8984375 109.05273438 C-105.26283749 101.69902664 -112.63040667 94.34850292 -120 87 C-118.6418386 83.96868929 -117.11605974 81.86367783 -114.7762146 79.51551819 C-114.11189423 78.84411301 -113.44757385 78.17270782 -112.76312256 77.48095703 C-112.03482239 76.75513428 -111.30652222 76.02931152 -110.55615234 75.28149414 C-109.78842499 74.50865585 -109.02069763 73.73581757 -108.22970581 72.93955994 C-105.68694764 70.38288804 -103.13681187 67.83372869 -100.5859375 65.28515625 C-98.81412025 63.50945204 -97.04252708 61.7335242 -95.27114868 59.9573822 C-91.55380437 56.23257109 -87.83266404 52.51159089 -84.10888672 48.79321289 C-79.81722636 44.50758032 -75.53479683 40.21288146 -71.25682867 35.91358477 C-67.12980694 31.7667521 -62.99439669 27.62837189 -58.85570145 23.49319267 C-57.10154778 21.73852666 -55.34974733 19.98150475 -53.60038376 18.22206306 C-51.14745913 15.75674997 -48.6851122 13.30123512 -46.22021484 10.84790039 C-45.50406006 10.12410187 -44.78790527 9.40030334 -44.05004883 8.65457153 C-31.67870391 -3.58939307 -16.24339169 -8.56857161 0 0 Z " fill="#E49656" transform="translate(456,67)"/>
<path d="M0 0 C0.8474881 -0.00100708 1.6949762 -0.00201416 2.56814575 -0.00305176 C15.14002812 0.0070582 27.32332643 0.42275739 39.625 3.25 C40.61234131 3.4668042 40.61234131 3.4668042 41.61962891 3.68798828 C66.59506302 9.29953767 90.42476176 20.50457971 105.53125 41.95703125 C114.54087448 56.21590727 116.98660133 72.81687587 113.96484375 89.3125 C112.02873791 97.62685926 109.14691637 105.5855645 106.27441406 113.61474609 C101.09309811 128.21891812 94.80349455 146.14691243 96.98828125 161.86328125 C96.35893573 165.99801365 93.08638169 168.30121166 90.125 171.0625 C89.50496094 171.65998047 88.88492187 172.25746094 88.24609375 172.87304688 C86.71674512 174.34357441 85.17228534 175.7983573 83.625 177.25 C81.625 176.25 81.625 176.25 81.04296875 174.6328125 C76.0027369 145.89878048 86.02318713 117.44702575 95.78051758 90.82348633 C99.14218789 80.57909005 99.0404944 68.13938446 94.625 58.25 C92.83501071 54.75450468 90.84309778 51.48930122 88.625 48.25 C87.99851562 47.32574219 87.99851562 47.32574219 87.359375 46.3828125 C76.05502379 31.60543772 55.01968327 24.42143384 37.625 20.25 C36.95710449 20.08483887 36.28920898 19.91967773 35.60107422 19.74951172 C-3.85435245 10.48673008 -49.70886579 18.92003394 -86.375 34.25 C-87.17808594 34.58225586 -87.98117188 34.91451172 -88.80859375 35.25683594 C-120.78470203 48.63841323 -158.7224241 70.46521532 -173.01171875 103.90234375 C-177.23081833 115.03641457 -179.38647003 126.2124858 -174.37109375 137.51171875 C-170.60260203 144.0412836 -165.75908702 148.69981785 -158.5625 151.125 C-145.54800345 154.39330214 -134.02817177 150.49531305 -122.125 145 C-106.21096102 137.69857016 -88.71579119 132.66480406 -71.375 130.25 C-70.05822266 130.05664062 -70.05822266 130.05664062 -68.71484375 129.859375 C-54.64578674 128.12075982 -36.40178738 127.43967902 -24.375 136.25 C-19.88977497 140.46369795 -16.87252862 144.68874249 -16.00390625 150.90625 C-15.52136533 171.57035527 -30.68912969 187.94976106 -44.14892578 202.1171875 C-50.62257633 208.80056006 -57.25007747 215.26148985 -64.375 221.25 C-65.45680814 222.18234327 -66.53742222 223.11607286 -67.6171875 224.05078125 C-72.80453172 228.5344928 -77.99496185 232.99746159 -83.375 237.25 C-103.11510038 252.8802762 -123.15122493 270.10171359 -138.375 290.25 C-138.98335693 291.04374023 -138.98335693 291.04374023 -139.60400391 291.85351562 C-149.48388351 304.81735311 -160.67631644 321.13198868 -158.375 338.25 C-156.50020755 346.02530202 -152.64255759 352.07535239 -145.875 356.375 C-131.53564585 364.28056769 -115.94168964 367.94489699 -99.6640625 368.66015625 C-98.9961821 368.69106857 -98.3283017 368.7219809 -97.6401825 368.75382996 C-94.3041918 368.90352811 -90.98309942 369.00588242 -87.64282227 369.03979492 C-85.79901978 369.10517456 -85.79901978 369.10517456 -83.91796875 369.171875 C-82.82508545 369.18831055 -81.73220215 369.20474609 -80.60620117 369.22167969 C-76.46210911 370.54052485 -75.03384638 372.52873712 -72.35417175 375.85388184 C-68.95740311 379.96623794 -65.09273424 383.62332191 -61.30107307 387.36852646 C-59.81485543 388.83709889 -58.33242802 390.30940578 -56.85093689 391.78274536 C-52.64475905 395.96466706 -48.43268837 400.14061862 -44.21655273 404.3125 C-41.6237041 406.87864493 -39.03568495 409.44957806 -36.45062065 412.02356339 C-35.467265 413.00070453 -34.48201515 413.97594321 -33.4948597 414.94924545 C-32.12368161 416.30131296 -30.75905321 417.66001319 -29.39477539 419.01904297 C-28.61646866 419.78989227 -27.83816193 420.56074158 -27.03627014 421.35494995 C-25.375 423.25 -25.375 423.25 -25.375 425.25 C-31.14006978 427.22760608 -36.90587218 429.20305583 -42.67236328 431.17651367 C-44.63382919 431.84812194 -46.59509384 432.5203183 -48.55615234 433.19311523 C-51.37544859 434.16024091 -54.19546259 435.12524721 -57.015625 436.08984375 C-57.89180481 436.39091537 -58.76798462 436.691987 -59.67071533 437.00218201 C-60.49126404 437.282397 -61.31181274 437.562612 -62.15722656 437.85131836 C-62.87670471 438.09780624 -63.59618286 438.34429413 -64.33746338 438.59825134 C-70.58190407 440.59566616 -77.44755593 441.76105642 -83.73046875 439.34375 C-89.12104577 436.18829028 -92.38017372 432.23447883 -94.375 426.25 C-95.26640884 417.41948119 -92.25860263 409.87673794 -89.375 401.6875 C-88.89197076 400.28363548 -88.41018908 398.87934105 -87.9296875 397.47460938 C-86.7591403 394.06132768 -85.57179467 390.65418059 -84.375 387.25 C-85.23440186 387.18530518 -86.09380371 387.12061035 -86.97924805 387.05395508 C-146.71408428 382.40866543 -146.71408428 382.40866543 -165.75 361.875 C-173.89594798 351.53953421 -176.48532207 340.17528765 -175.375 327.25 C-169.10471603 290.58074438 -135.86070286 257.02551341 -107.69921875 235.07421875 C-105.39062873 233.26226658 -103.22978697 231.3527974 -101.0625 229.375 C-97.38388478 226.05703334 -93.54571483 223.02102744 -89.625 220 C-83.53265837 215.29149379 -77.87160346 210.23783939 -72.26953125 204.9609375 C-69.9498466 202.78838534 -67.60366634 200.68769912 -65.1875 198.625 C-53.16333789 188.13530209 -34.96160311 171.39614004 -32.9375 154.625 C-33.01763033 151.19897294 -33.01763033 151.19897294 -35.3125 149.4375 C-61.86804947 139.14045021 -94.41729113 152.09894436 -119.11376953 162.32910156 C-135.01271122 168.80403225 -150.65306943 172.40459945 -167.375 166.25 C-180.31002224 160.21490968 -186.94128992 151.03890603 -192.375 138.25 C-197.40848283 121.31426957 -192.41585253 103.09913303 -184.3125 88.125 C-179.65719792 79.98865257 -173.74821333 73.07959533 -167.375 66.25 C-166.35986328 65.13044922 -166.35986328 65.13044922 -165.32421875 63.98828125 C-131.2063919 27.97096083 -76.41753517 7.47371801 -28.375 1.25 C-27.68809082 1.1557373 -27.00118164 1.06147461 -26.29345703 0.96435547 C-17.56667348 -0.081362 -8.7763475 0.00722289 0 0 Z " fill="#3F4A57" transform="translate(193.375,35.75)"/>
<path d="M0 0 C1.12203486 0.95659776 2.24334251 1.91404854 3.36434269 2.8718586 C3.9888488 3.40494735 4.61335491 3.9380361 5.25678545 4.48727906 C7.25152801 6.21827014 9.14358536 8.02323219 11.00756836 9.89404297 C11.70776596 10.5943161 12.40796356 11.29458923 13.12937927 12.01608276 C13.85883255 12.75069733 14.58828583 13.48531189 15.33984375 14.2421875 C16.10680069 15.01055939 16.87375763 15.77893127 17.66395569 16.57058716 C20.0908474 19.00303509 22.51422127 21.43895322 24.9375 23.875 C26.59156486 25.53408552 28.24585945 27.19294202 29.90039062 28.8515625 C33.9362546 32.89839736 37.96903679 36.94828428 42 41 C37.94400249 45.84939239 33.71345233 50.45675294 29.27636719 54.95828247 C28.29965781 55.95426541 28.29965781 55.95426541 27.30321693 56.97036922 C25.13676718 59.17802429 22.96692628 61.3823112 20.796875 63.58642578 C19.23556639 65.17530574 17.67434011 66.7642666 16.1131897 68.353302 C1.87558839 82.83576384 -12.4147072 97.26627645 -26.7194519 111.68239021 C-28.63244583 113.61054775 -30.54529182 115.53885191 -32.45800781 117.46728516 C-32.93332357 117.94649469 -33.40863932 118.42570422 -33.89835858 118.91943525 C-41.58422869 126.67009455 -49.2380084 134.45169071 -56.87992764 142.24566068 C-64.75158624 150.27260873 -72.65641376 158.26581663 -80.59073639 166.23091114 C-85.03457819 170.69395657 -89.46276568 175.17025125 -93.85559082 179.68356705 C-97.99496419 183.93536638 -102.17363123 188.14437235 -106.38435745 192.32548141 C-107.91240932 193.85658443 -109.42625254 195.40203999 -110.92341232 196.96336365 C-122.49880522 209.00879489 -133.78018765 214.33052041 -150.644907 215.12452424 C-153 215 -153 215 -155.375 213.5625 C-157.88898465 209.5981396 -156.9484484 206.4524383 -156 202 C-155.24923473 198.91873422 -154.46615741 195.8536603 -153.62109375 192.796875 C-153.01209045 190.05444504 -152.73496503 187.79491424 -153 185 C-154.98827671 182.57973773 -154.98827671 182.57973773 -158.875 182.6875 C-163.84415321 182.77580482 -168.35059727 183.9688474 -173.10546875 185.34375 C-176.1595515 186.03617362 -178.87902385 186.11096804 -182 186 C-182 182 -182 182 -180.83301067 180.33621669 C-180.28013787 179.78486277 -179.72726507 179.23350885 -179.15763855 178.66544724 C-178.52366055 178.02350505 -177.88968256 177.38156286 -177.23649311 176.72016788 C-176.17426423 175.67541604 -176.17426423 175.67541604 -175.09057617 174.60955811 C-174.34736964 173.86293388 -173.60416311 173.11630965 -172.83843517 172.34706044 C-170.33270349 169.83471303 -167.81289052 167.33697567 -165.29296875 164.83886719 C-163.49902933 163.04605544 -161.70596902 161.25236365 -159.91372681 159.45785522 C-156.04651211 155.58972813 -152.17323542 151.72783489 -148.29434204 147.87142181 C-142.68611497 142.29567642 -137.08894068 136.70894354 -131.49441898 131.11945072 C-122.41782022 122.05161064 -113.33232118 112.9927427 -104.24121094 103.93945312 C-95.40905805 95.14400551 -86.58110803 86.34437452 -77.75878906 77.5390625 C-77.21515587 76.9964802 -76.67152267 76.4538979 -76.11141574 75.89487371 C-73.38424607 73.17292411 -70.65715894 70.45089183 -67.93011284 67.72881842 C-45.29952492 45.13971036 -22.65448908 22.56513852 0 0 Z " fill="#F19F5B" transform="translate(364,182)"/>
<path d="M0 0 C2.37786865 1.89530945 2.37786865 1.89530945 4.74121094 4.0847168 C5.60951538 4.88710785 6.47781982 5.6894989 7.37243652 6.51620483 C14.18105933 12.9522908 20.86021599 19.51453704 27.51464844 26.10961914 C29.33916515 27.91247745 31.16992263 29.70904167 33.00683594 31.49926758 C35.69129038 34.11639502 38.35513834 36.75306775 41.015625 39.39453125 C42.23454437 40.57170464 42.23454437 40.57170464 43.47808838 41.7726593 C49.82167493 48.13915995 55.81426779 56.07665093 56.7265625 65.3203125 C56.07071782 89.8892633 37.25354763 102.88788846 20.8125 119.25 C18.98348987 121.07398404 17.15471197 122.898201 15.32617188 124.72265625 C10.88678753 129.15112532 6.44454867 133.57671435 2 138 C-1.13349687 136.60961241 -3.25516164 134.9925774 -5.66998291 132.57052612 C-6.38227051 131.86098785 -7.09455811 131.15144958 -7.82843018 130.42041016 C-8.59951111 129.64213867 -9.37059204 128.86386719 -10.16503906 128.06201172 C-10.9849231 127.24241974 -11.80480713 126.42282776 -12.64953613 125.57839966 C-15.35966624 122.86687568 -18.06264248 120.14833508 -20.765625 117.4296875 C-22.64277429 115.5488083 -24.520312 113.66832513 -26.39837646 111.7883606 C-30.83634406 107.34417974 -35.26918925 102.89492578 -39.70021415 98.44382393 C-44.74583409 93.37584024 -49.79714216 88.31354229 -54.84893465 83.25171256 C-65.23896097 72.84078771 -75.62183072 62.42274494 -86 52 C-82.64168022 48.0234296 -79.25536081 44.12954027 -75.59033203 40.42919922 C-74.36843674 39.19289261 -74.36843674 39.19289261 -73.12185669 37.93161011 C-72.25922211 37.06472565 -71.39658752 36.19784119 -70.5078125 35.3046875 C-69.60304169 34.39421661 -68.69827087 33.48374573 -67.76608276 32.54568481 C-65.86012478 30.629293 -63.95190685 28.7151817 -62.04248047 26.80224609 C-59.6128566 24.36712902 -57.19266453 21.92285875 -54.77453804 19.47633171 C-52.44226418 17.12082171 -50.09931297 14.77602541 -47.7578125 12.4296875 C-46.89922638 11.55875458 -46.04064026 10.68782166 -45.15603638 9.79049683 C-32.38906643 -2.92979888 -17.12686555 -9.03461399 0 0 Z " fill="#EC708A" transform="translate(456,67)"/>
<path d="M0 0 C2.64729962 4.82742872 0.88887581 9.87266839 -0.4375 14.875 C-1.73895661 19.79092854 -2.40684588 23.86856452 -1.9375 28.9375 C-0.16105418 31.17472113 -0.16105418 31.17472113 2.1640625 30.984375 C6.24007081 30.50484461 10.16719419 29.98191148 14.125 28.875 C18.33595332 27.74523204 22.74214078 27.14500807 27.0625 27.9375 C28.83203125 29.2109375 28.83203125 29.2109375 30.0625 30.9375 C29.86204074 37.25196681 28.36238516 43.06805895 26.68359375 49.140625 C25.91224702 52.6141109 25.34875922 55.59923603 27.0625 58.8125 C32.41914461 61.82561259 41.4499752 57.95069483 47.01171875 56.55859375 C53.71480607 55.19394473 53.71480607 55.19394473 56.875 56.9375 C60.99596965 63.87808047 56.64942517 76.07681736 55.02148438 83.34326172 C52.92260296 91.57241263 50.96624955 96.37686392 43.52441406 100.9152832 C42.95410461 101.24793182 42.38379517 101.58058044 41.79620361 101.92330933 C40.17636594 102.87089013 38.57746085 103.85400349 36.98046875 104.83959961 C28.5684755 109.88539695 20.08915765 113.46801709 10.80957031 116.61303711 C8.53172181 117.38543663 6.26177897 118.17830838 3.9921875 118.97460938 C2.52644896 119.48294674 1.06031696 119.99015135 -0.40625 120.49609375 C-1.07507202 120.72832138 -1.74389404 120.96054901 -2.4329834 121.19981384 C-9.98570813 123.74906804 -9.98570813 123.74906804 -13.9375 123.9375 C-16.63987732 122.13746643 -16.63987732 122.13746643 -19.40795898 119.40454102 C-19.91762711 118.91035172 -20.42729523 118.41616241 -20.95240784 117.90699768 C-22.63109406 116.26929517 -24.28268074 114.60706985 -25.93359375 112.94140625 C-27.09239092 111.79240516 -28.25207726 110.64430019 -29.41261292 109.49705505 C-31.84089306 107.08812117 -34.25554674 104.66646051 -36.66186523 102.2355957 C-39.74443992 99.12435914 -42.86169599 96.05075889 -45.99063015 92.98623753 C-48.39410649 90.62310892 -50.77618164 88.23928582 -53.15254402 85.84892082 C-54.293529 84.7069633 -55.44147823 83.57191981 -56.59643364 82.4440937 C-58.21112499 80.86178326 -59.79432461 79.25334095 -61.37280273 77.63500977 C-62.73464943 76.27147118 -62.73464943 76.27147118 -64.12400818 74.88038635 C-66.70163282 70.69748555 -65.97491455 68.68030725 -64.9375 63.9375 C-64.3243828 61.70718455 -63.6441304 59.49424495 -62.8984375 57.3046875 C-62.28077515 55.48723022 -62.28077515 55.48723022 -61.65063477 53.63305664 C-61.20599318 52.35904711 -60.75992228 51.08553563 -60.3125 49.8125 C-60.08585663 49.16376923 -59.85921326 48.51503845 -59.6257019 47.84664917 C-55.22446277 35.29903397 -50.50297237 23.96500691 -42.5 13.25 C-42.06953369 12.66033447 -41.63906738 12.07066895 -41.19555664 11.46313477 C-37.70553989 7.05677021 -34.29108365 5.42503272 -28.9375 3.9375 C-28.14529053 3.70925537 -27.35308105 3.48101074 -26.53686523 3.24584961 C-23.99156329 2.54087105 -21.43755901 1.88919143 -18.875 1.25 C-18.01583984 1.02505859 -17.15667969 0.80011719 -16.27148438 0.56835938 C-4.4031004 -2.41460344 -4.4031004 -2.41460344 0 0 Z " fill="#FADF95" transform="translate(181.9375,336.0625)"/>
<path d="M0 0 C3.13349687 1.39038759 5.25516164 3.0074226 7.66998291 5.42947388 C8.38227051 6.13901215 9.09455811 6.84855042 9.82843018 7.57958984 C10.98505157 8.74699707 10.98505157 8.74699707 12.16503906 9.93798828 C13.39486511 11.16737625 13.39486511 11.16737625 14.64953613 12.42160034 C17.35966624 15.13312432 20.06264248 17.85166492 22.765625 20.5703125 C24.64277429 22.4511917 26.520312 24.33167487 28.39837646 26.2116394 C32.83634406 30.65582026 37.26918925 35.10507422 41.70021415 39.55617607 C46.74583409 44.62415976 51.79714216 49.68645771 56.84893465 54.74828744 C67.23896097 65.15921229 77.62183072 75.57725506 88 86 C81.71154591 93.41557128 81.71154591 93.41557128 78.74853516 96.36499023 C77.90834335 97.20506874 77.90834335 97.20506874 77.05117798 98.06211853 C76.46967987 98.63845535 75.88818176 99.21479218 75.2890625 99.80859375 C74.67606293 100.42017838 74.06306335 101.031763 73.43148804 101.66188049 C71.49835436 103.58947559 69.56175013 105.51353928 67.625 107.4375 C66.30315301 108.75432404 64.98153628 110.07137926 63.66015625 111.38867188 C60.44275701 114.59512373 57.22224319 117.79841629 54 121 C48.687124 116.56256247 43.74262837 111.88042951 38.86157227 106.97509766 C38.08026443 106.19393585 37.2989566 105.41277405 36.49397278 104.60794067 C33.9324042 102.04567983 31.37438812 99.47990363 28.81640625 96.9140625 C27.03300993 95.12879956 25.24939154 93.34375842 23.46556091 91.55892944 C19.26360797 87.35355877 15.06388593 83.14596893 10.86525911 78.93727815 C6.08120723 74.14201069 1.29428207 69.34961586 -3.49287498 64.55744863 C-13.33176179 54.70813696 -23.16707255 44.85526086 -33 35 C-31.59372922 32.07396629 -30.23827317 29.99243355 -27.92724609 27.70019531 C-27.30675385 27.07985413 -26.6862616 26.45951294 -26.04696655 25.82037354 C-25.37920197 25.16293152 -24.71143738 24.5054895 -24.0234375 23.828125 C-23.33819 23.1457074 -22.6529425 22.46328979 -21.94692993 21.76019287 C-19.76094155 19.58538402 -17.56809571 17.41763928 -15.375 15.25 C-13.89016745 13.7752001 -12.40578694 12.29994494 -10.921875 10.82421875 C-7.2864709 7.21084552 -3.64490176 3.60379147 0 0 Z " fill="#414B58" transform="translate(369,119)"/>
<path d="M0 0 C4.88049925 3.9419417 9.0580583 8.11950075 13 13 C-7.97780097 34.36658125 -28.99977175 55.68893103 -50.08318416 76.95129476 C-52.5787318 79.46810148 -55.07390533 81.98527878 -57.56884766 84.50268555 C-58.06550011 85.00379728 -58.56215256 85.50490901 -59.07385509 86.02120594 C-67.08866626 94.10975854 -75.07287326 102.22787145 -83.04594703 110.35754456 C-91.24294167 118.71416674 -99.47252394 127.03765902 -107.73251665 135.33202106 C-112.36448579 139.98606464 -116.9805605 144.65364453 -121.56102371 149.35843468 C-125.8825873 153.79632263 -130.24342195 158.19163501 -134.63618851 162.55901909 C-136.23197998 164.15944643 -137.81351798 165.77425017 -139.37841034 167.40490341 C-150.59783342 179.07177026 -160.68343951 184.54572727 -177 186 C-178.66654865 186.01983329 -180.33352199 186.02507647 -182 186 C-182 182 -182 182 -180.83301067 180.33621669 C-180.28013787 179.78486277 -179.72726507 179.23350885 -179.15763855 178.66544724 C-178.52366055 178.02350505 -177.88968256 177.38156286 -177.23649311 176.72016788 C-176.17426423 175.67541604 -176.17426423 175.67541604 -175.09057617 174.60955811 C-174.34736964 173.86293388 -173.60416311 173.11630965 -172.83843517 172.34706044 C-170.33270349 169.83471303 -167.81289052 167.33697567 -165.29296875 164.83886719 C-163.49902933 163.04605544 -161.70596902 161.25236365 -159.91372681 159.45785522 C-156.04651211 155.58972813 -152.17323542 151.72783489 -148.29434204 147.87142181 C-142.68611497 142.29567642 -137.08894068 136.70894354 -131.49441898 131.11945072 C-122.41782022 122.05161064 -113.33232118 112.9927427 -104.24121094 103.93945312 C-95.40905805 95.14400551 -86.58110803 86.34437452 -77.75878906 77.5390625 C-77.21515587 76.9964802 -76.67152267 76.4538979 -76.11141574 75.89487371 C-73.38424607 73.17292411 -70.65715894 70.45089183 -67.93011284 67.72881842 C-45.29952492 45.13971036 -22.65448908 22.56513852 0 0 Z " fill="#FCA65E" transform="translate(393,211)"/>
<path d="M0 0 C22.1912841 18.33193035 22.1912841 18.33193035 23.5 31.96875 C23.96467068 41.0625592 22.97697921 49.17449283 17.04101562 56.37695312 C7.59268959 66.62457889 -2.30923604 76.41916316 -12.1875 86.25 C-14.01651013 88.07398404 -15.84528803 89.898201 -17.67382812 91.72265625 C-22.11321247 96.15112532 -26.55545133 100.57671435 -31 105 C-34.01409306 103.55695686 -36.10472016 102.13408132 -38.453125 99.7421875 C-39.071875 99.11699219 -39.690625 98.49179688 -40.328125 97.84765625 C-40.96234375 97.19667969 -41.5965625 96.54570312 -42.25 95.875 C-42.8996875 95.21628906 -43.549375 94.55757813 -44.21875 93.87890625 C-45.81711727 92.25703357 -47.41061897 90.6306719 -49 89 C-45.86807287 85.85716445 -42.71989369 82.73129422 -39.56445312 79.61206055 C-35.37992428 75.47551873 -31.20200676 71.33238133 -27.02889252 67.18432903 C-24.51458127 64.68567296 -21.99753307 62.18990693 -19.47412109 59.70043945 C-16.54721806 56.81263115 -13.63277527 53.91252155 -10.71875 51.01171875 C-9.81966919 50.1281218 -8.92058838 49.24452484 -7.9942627 48.33415222 C0.07521705 40.26683797 6.22895616 32.6087597 6.375 20.75 C6.2882724 14.42611255 4.8276638 9.6037279 2 4 C1.62617188 3.24847656 1.25234375 2.49695313 0.8671875 1.72265625 C0.58101563 1.15417969 0.29484375 0.58570312 0 0 Z " fill="#D6657D" transform="translate(489,100)"/>
<path d="M0 0 C2 1 2 1 4 3 C4.89315962 14.16449531 2.80476307 31.88217699 -4.578125 40.640625 C-7.05457497 42.74626963 -9.47092566 44.35533272 -12.26629639 45.98580933 C-13.88613406 46.93339013 -15.48503915 47.91650349 -17.08203125 48.90209961 C-25.4940245 53.94789695 -33.97334235 57.53051709 -43.25292969 60.67553711 C-45.53077819 61.44793663 -47.80072103 62.24080838 -50.0703125 63.03710938 C-51.53605104 63.54544674 -53.00218304 64.05265135 -54.46875 64.55859375 C-55.13757202 64.79082138 -55.80639404 65.02304901 -56.4954834 65.26231384 C-64.03846413 67.80827917 -64.03846413 67.80827917 -68 68 C-70.14990234 66.64477539 -70.14990234 66.64477539 -72.0859375 64.59765625 C-72.78847656 63.87255859 -73.49101562 63.14746094 -74.21484375 62.40039062 C-74.92769531 61.62888672 -75.64054688 60.85738281 -76.375 60.0625 C-77.11105469 59.29486328 -77.84710938 58.52722656 -78.60546875 57.73632812 C-80.42034859 55.83895375 -82.21695823 53.9272444 -84 52 C-80.49920984 50.09706505 -76.8806987 48.89080001 -73.1015625 47.64453125 C-71.7199042 47.18208222 -70.33839896 46.71917569 -68.95703125 46.25585938 C-66.80896611 45.53846288 -64.6601073 44.82402022 -62.50830078 44.11791992 C-36.99292507 35.7246261 -19.07219539 21.85270725 -1 2 C-0.67 1.34 -0.34 0.68 0 0 Z " fill="#E2CA87" transform="translate(236,392)"/>
<path d="M0 0 C1.12664062 0.21527344 2.25328125 0.43054688 3.4140625 0.65234375 C4.1452832 0.78624512 4.87650391 0.92014648 5.62988281 1.05810547 C22.77268415 4.31640018 38.59650654 10.42308482 54.0390625 18.46484375 C54.75610352 18.83770508 55.47314453 19.21056641 56.21191406 19.59472656 C59.48347959 21.36448467 61.31624961 22.50562441 63.4140625 25.65234375 C63.8515625 28.52734375 63.8515625 28.52734375 63.4140625 31.65234375 C61.1512881 34.71374441 59.71706868 36.41690961 55.90625 37.10546875 C50.61177206 36.41848951 46.37794913 33.94556953 41.6640625 31.52734375 C34.43389465 27.94356547 27.2761676 24.60657006 19.6015625 22.08984375 C18.91674805 21.86345215 18.23193359 21.63706055 17.52636719 21.40380859 C7.71365196 18.32151775 -1.43061276 17.37194349 -11.7109375 17.52734375 C-12.85820312 17.53636719 -14.00546875 17.54539062 -15.1875 17.5546875 C-17.98720498 17.57801837 -20.78645445 17.61075143 -23.5859375 17.65234375 C-22.12948468 15.95175461 -20.67225548 14.25187197 -19.21240234 12.55419922 C-17.86141265 10.97446195 -16.52800528 9.37970843 -15.19921875 7.78125 C-10.50222516 2.5419889 -7.2426229 -0.74466404 0 0 Z " fill="#3F4B57" transform="translate(324.5859375,343.34765625)"/>
<path d="M0 0 C1.1078354 0.94106385 2.21444803 1.88356727 3.32055664 2.82666016 C3.93693497 3.35135895 4.55331329 3.87605774 5.18836975 4.41665649 C7.71791903 6.62745278 10.07881136 8.98400056 12.4375 11.375 C13.30246094 12.24898437 14.16742188 13.12296875 15.05859375 14.0234375 C15.69925781 14.67570313 16.33992188 15.32796875 17 16 C12.97251947 20.83298806 8.75620587 25.38110004 4.2890625 29.80859375 C3.67606293 30.42017838 3.06306335 31.031763 2.43148804 31.66188049 C0.49835436 33.58947559 -1.43824987 35.51353928 -3.375 37.4375 C-4.69684699 38.75432404 -6.01846372 40.07137926 -7.33984375 41.38867188 C-10.55724299 44.59512373 -13.77775681 47.79841629 -17 51 C-18.11102333 50.05069805 -19.22161661 49.10089277 -20.33203125 48.15087891 C-20.95053955 47.6220108 -21.56904785 47.0931427 -22.20629883 46.54824829 C-24.52683392 44.54525886 -26.78425709 42.49342988 -29 40.375 C-30.175625 39.27285156 -30.175625 39.27285156 -31.375 38.1484375 C-33 36 -33 36 -32.79225159 34.07769775 C-31.86832216 31.65467188 -30.78988428 30.42765035 -28.94897461 28.60839844 C-28.30838608 27.9680365 -27.66779755 27.32767456 -27.00779724 26.66790771 C-26.31299759 25.98859192 -25.61819794 25.30927612 -24.90234375 24.609375 C-24.19348526 23.90476135 -23.48462677 23.20014771 -22.75428772 22.47418213 C-20.4889672 20.22565215 -18.21343792 17.98777762 -15.9375 15.75 C-14.39970665 14.22725292 -12.86258869 12.70382346 -11.32617188 11.1796875 C-7.55858198 7.4451719 -3.78255735 3.7193515 0 0 Z " fill="#3A434F" transform="translate(440,189)"/>
</svg>
