<?xml version="1.0" encoding="UTF-8"?>
<svg version="1.1" xmlns="http://www.w3.org/2000/svg" width="512" height="512">
<path d="M0 0 C1.02447235 -0.01142029 2.0489447 -0.02284058 3.10446167 -0.03460693 C4.21777359 -0.03684265 5.33108551 -0.03907837 6.47813416 -0.04138184 C7.65927795 -0.05131165 8.84042175 -0.06124146 10.05735779 -0.07147217 C13.29125886 -0.09564322 16.52501554 -0.11059473 19.75899053 -0.11949348 C21.78448219 -0.12537174 23.80995164 -0.13358469 25.83543205 -0.14250183 C32.18714094 -0.16983662 38.53879851 -0.18917432 44.89056212 -0.19690561 C52.19533422 -0.20584814 59.4993543 -0.24086088 66.80389792 -0.2989068 C72.46699964 -0.3423282 78.12989132 -0.36232424 83.79315752 -0.36498785 C87.16736263 -0.36707172 90.54086023 -0.37861814 93.91488838 -0.41462708 C97.68914382 -0.44895671 101.461596 -0.44493815 105.23594666 -0.43200684 C106.33508896 -0.4504364 107.43423126 -0.46886597 108.56668091 -0.487854 C117.48623052 -0.39271168 125.28081533 2.2381751 132.024086 8.25726128 C136.22190389 12.70043829 139.00317026 17.83890874 141.64976501 23.30432129 C142.26749535 24.54540146 142.26749535 24.54540146 142.89770508 25.81155396 C143.75602944 27.5415311 144.60864071 29.2743539 145.45567322 31.0098877 C146.75707781 33.6756641 148.07585695 36.33227834 149.39781189 38.98791504 C150.23280514 40.67621853 151.0668256 42.36500357 151.89976501 44.05432129 C152.49022865 45.2479982 152.49022865 45.2479982 153.09262085 46.46578979 C155.80992126 52.0463188 155.80992126 52.0463188 155.80992126 54.28088379 C156.74383635 54.27719662 157.67775143 54.27350945 158.63996696 54.26971054 C181.38411011 54.18083735 204.12823068 54.1151452 226.87251091 54.0736351 C237.87156732 54.05302658 248.87050889 54.02493861 259.86949158 53.97912598 C269.45833036 53.93920593 279.04708595 53.91343855 288.63600552 53.90452981 C293.71136407 53.89932384 298.78648467 53.88712344 303.86176682 53.85796356 C308.64372617 53.83071285 313.42535066 53.82245828 318.20738029 53.82845306 C319.95766078 53.82735714 321.70795304 53.81946096 323.45816612 53.80406189 C334.61955425 53.71071779 344.82324279 54.05367129 353.62242126 61.84338379 C354.65302673 62.71156738 354.65302673 62.71156738 355.70445251 63.59729004 C363.95849053 74.11774295 363.5222218 84.91298354 363.44102478 97.64831543 C363.4461695 99.70265825 363.45345493 101.75699665 363.46270752 103.81132507 C363.48115793 109.36505464 363.46832341 114.91830162 363.44861722 120.47201085 C363.43217911 126.29693321 363.44105069 132.12182625 363.44613647 137.94676208 C363.45065129 147.72561309 363.43482451 157.50427244 363.40684509 167.28308105 C363.37478716 178.57409462 363.37481451 189.86476277 363.39205986 201.15580088 C363.40794559 212.03798235 363.40117875 222.92003769 363.38412285 233.80221367 C363.37726663 238.42439589 363.37827012 243.04647657 363.3856678 247.6686573 C363.39335163 253.11483451 363.38113582 258.56062045 363.35381889 264.00673103 C363.34695635 266.00048664 363.34681411 267.99427895 363.35403442 269.98803329 C363.39014513 281.26172531 363.16655704 290.18118105 357.12242126 300.03088379 C348.38459874 308.53254895 339.25277179 311.42665519 327.22398376 311.37854004 C326.52220001 311.37712509 325.82041626 311.37571014 325.09736633 311.37425232 C322.87650622 311.36869669 320.65575042 311.35615271 318.43492126 311.34338379 C316.92059981 311.33836304 315.40627677 311.33380115 313.89195251 311.32971191 C310.19790874 311.31874186 306.5039252 311.30150827 302.80992126 311.28088379 C302.8203949 312.20312744 302.83086853 313.12537109 302.84165955 314.07556152 C302.8759889 317.53652507 302.90093956 320.99730449 302.91978455 324.45837402 C302.92976797 325.94896319 302.94335948 327.43953315 302.96080017 328.93005371 C303.11212701 342.20675811 302.47555208 352.53433986 293.49742126 362.96838379 C285.95116724 369.46167214 280.23529854 371.44339113 270.32554626 371.37854004 C269.50995239 371.37712509 268.69435852 371.37571014 267.85404968 371.37425232 C265.25596915 371.36866682 262.65797564 371.35611699 260.05992126 371.34338379 C258.29559959 371.33836691 256.53127657 371.33380433 254.76695251 371.32971191 C250.44790871 371.31870214 246.12892973 371.30144748 241.80992126 371.28088379 C241.82563171 372.25847656 241.84134216 373.23606934 241.85752869 374.24328613 C241.91235516 377.91474982 241.94646032 381.5861783 241.97471619 385.25793457 C241.98968397 386.8387259 242.01006564 388.41947657 242.03623962 390.00012207 C242.24840138 403.15415067 241.70965755 413.65485947 232.43492126 423.90588379 C226.13904603 429.60215185 220.26552921 432.52655818 211.72439861 432.53815269 C209.91737249 432.54782603 209.91737249 432.54782603 208.0738408 432.55769479 C206.75897071 432.55459759 205.44410062 432.55150038 204.08938599 432.54830933 C202.6716881 432.55204728 201.25399228 432.55664938 199.83629972 432.56203997 C195.94506625 432.57426741 192.05391878 432.57400981 188.16267049 432.57165122 C183.96418711 432.57124299 179.76573128 432.58228278 175.56726074 432.59176636 C167.3433737 432.60837582 159.11951533 432.61387588 150.89561292 432.61499111 C144.21056918 432.61594159 137.5255349 432.62005188 130.84049416 432.62639236 C111.88541944 432.64400446 92.93036737 432.65323126 73.97528442 432.65173142 C72.95351487 432.6516515 71.93174532 432.65157159 70.87901306 432.65148926 C69.85599538 432.6514075 68.8329777 432.65132574 67.77895949 432.6512415 C51.19874163 432.65042856 34.61861461 432.66956828 18.03842302 432.69776599 C1.01228629 432.72649355 -16.01380613 432.74030636 -33.03996772 432.73857844 C-42.59818494 432.7379145 -52.15630694 432.74340839 -61.71450233 432.76493454 C-69.85239508 432.78314462 -77.99014941 432.78749509 -86.1280537 432.77391569 C-90.27907848 432.76738522 -94.42983772 432.7672716 -98.58083725 432.78462219 C-102.38385043 432.8003546 -106.18638756 432.79748793 -109.98938914 432.78005393 C-112.01052967 432.77553466 -114.03168497 432.79064001 -116.05276805 432.80653322 C-126.65299552 432.72612417 -133.69089196 430.30079622 -141.46351624 423.08557129 C-145.83428133 418.51703402 -148.30728611 414.13232907 -148.32988644 407.70736599 C-148.3384233 406.29165645 -148.3384233 406.29165645 -148.34713262 404.84734672 C-148.3483125 403.80845946 -148.34949238 402.76957219 -148.35070801 401.69920349 C-148.35579583 400.59705319 -148.36088365 399.49490288 -148.36612564 398.35935408 C-148.38188707 394.64691931 -148.39038496 390.93450405 -148.39881897 387.2220459 C-148.40592596 385.24387165 -148.41303917 383.26569739 -148.4206593 381.28752505 C-148.45398376 372.63199345 -148.47550599 363.97644998 -148.49385914 355.32087526 C-148.49865478 353.06654816 -148.50363804 350.81222154 -148.50866437 348.55789495 C-148.53963868 334.55546434 -148.56632113 320.55302957 -148.58308315 306.5505743 C-148.58703259 303.30711294 -148.59103559 300.06365164 -148.59510803 296.82019043 C-148.59611639 296.01405344 -148.59712475 295.20791644 -148.59816367 294.37735105 C-148.61516229 281.32505308 -148.65626213 268.27294498 -148.70713102 255.22073966 C-148.75894193 241.81638988 -148.78803006 228.41213764 -148.79528004 215.00768858 C-148.79993819 207.48318359 -148.81464578 199.9589894 -148.85502434 192.43458366 C-148.88938011 186.02474392 -148.9032415 179.61527107 -148.8906002 173.20534455 C-148.88478575 169.93699023 -148.89184477 166.66957135 -148.91876984 163.40130043 C-148.94645332 159.85071125 -148.93693894 156.30205531 -148.91833496 152.75144958 C-148.93512989 151.72817737 -148.95192482 150.70490516 -148.96922868 149.65062469 C-148.87249708 142.2430195 -146.78441486 137.10807522 -142.19007874 131.28088379 C-134.11754265 123.7123189 -125.41745666 121.10214519 -114.48304749 121.18322754 C-113.39495537 121.18534996 -113.39495537 121.18534996 -112.28488159 121.18751526 C-109.98240424 121.19308448 -107.68002639 121.20563118 -105.37757874 121.21838379 C-103.81052285 121.22340277 -102.24346544 121.22796498 -100.67640686 121.23205566 C-96.84759285 121.24304381 -93.01885263 121.26028706 -89.19007874 121.28088379 C-89.20578918 119.89751831 -89.20578918 119.89751831 -89.22181702 118.48620605 C-89.25614637 115.02524251 -89.28109703 111.56446309 -89.29994202 108.10339355 C-89.30992544 106.61280439 -89.32351696 105.12223443 -89.34095764 103.63171387 C-89.4830733 91.16315495 -89.1260977 80.58194152 -81.19007874 70.28088379 C-72.98723535 62.36089707 -63.80001263 60.13844405 -52.60414124 60.18322754 C-51.90235748 60.18464249 -51.20057373 60.18605743 -50.4775238 60.18751526 C-48.25666369 60.19307089 -46.03590789 60.20561486 -43.81507874 60.21838379 C-42.30075728 60.22340453 -40.78643424 60.22796643 -39.27210999 60.23205566 C-35.57806621 60.24302572 -31.88408267 60.2602593 -28.19007874 60.28088379 C-28.20578918 59.33358398 -28.22149963 58.38628418 -28.23768616 57.41027832 C-28.28922374 53.85048806 -28.32662549 50.29110196 -28.35487366 46.7310791 C-28.36983618 45.19878835 -28.3902137 43.6665395 -28.41639709 42.13439941 C-28.62690873 29.48719069 -27.96004264 18.1873441 -19.19007874 8.28088379 C-13.47244249 3.571649 -7.54086224 0.05058699 0 0 Z M2.80992126 31.28088379 C2.80992126 40.85088379 2.80992126 50.42088379 2.80992126 60.28088379 C6.2426947 60.32986816 9.67546814 60.37885254 13.21226501 60.42932129 C16.55841715 60.48342124 19.90450113 60.5406933 23.25059509 60.5982666 C25.56564702 60.6364117 27.8807553 60.67128911 30.19590759 60.70275879 C33.53489745 60.74872466 36.87350421 60.80666625 40.21226501 60.86682129 C41.23762863 60.8783725 42.26299225 60.88992371 43.31942749 60.90182495 C51.05161459 61.05854264 58.95969329 61.42310625 65.49742126 65.96838379 C66.18191345 66.42600098 66.86640564 66.88361816 67.57164001 67.35510254 C73.562403 72.50945882 77.21290743 78.4033891 80.55210876 85.49572754 C80.96534393 86.35146866 81.3785791 87.20720978 81.80433655 88.08888245 C83.10786622 90.79404578 84.39657505 93.50596177 85.68492126 96.21838379 C86.57196767 98.06585718 87.45997942 99.91286739 88.34898376 101.75939941 C90.51382338 106.26128473 92.66541003 110.76928176 94.80992126 115.28088379 C96.21990717 115.28308363 96.21990717 115.28308363 97.65837765 115.28532791 C120.54416572 115.32194405 143.42980769 115.38142144 166.31547451 115.46478653 C177.38288042 115.50457379 188.45021525 115.53696791 199.51768494 115.55187988 C209.16555848 115.56489797 218.81327561 115.59186679 228.46106106 115.63549685 C233.56818715 115.65810798 238.67512036 115.67379467 243.78230095 115.67276764 C248.59307503 115.67202083 253.40342278 115.6899802 258.21408653 115.72205162 C259.97603663 115.73054379 261.73803458 115.73230519 263.49999619 115.72668648 C275.61359902 115.69321414 284.8110701 116.67790815 294.01695251 125.22229004 C300.11609801 132.22501265 301.90976919 140.11434685 301.96813965 149.20346069 C301.98282288 150.94494133 301.98282288 150.94494133 301.99780273 152.72160339 C302.0035582 153.98108292 302.00931366 155.24056244 302.01524353 156.53820801 C302.02483215 157.88883253 302.03484279 159.23945411 302.04524231 160.59007263 C302.07219094 164.24454059 302.09325461 167.89902132 302.1132443 171.55353308 C302.13516607 175.37723441 302.16252437 179.20089679 302.18930054 183.02456665 C302.23914392 190.2598276 302.28411362 197.49511027 302.3273229 204.73041356 C302.37676683 212.96984122 302.43165835 221.20922979 302.48700249 229.4486196 C302.60069424 246.39267288 302.70684193 263.33676213 302.80992126 280.28088379 C312.37992126 280.28088379 321.94992126 280.28088379 331.80992126 280.28088379 C331.80992126 215.93088379 331.80992126 151.58088379 331.80992126 85.28088379 C272.73807005 85.11040519 272.73807005 85.11040519 213.66612244 84.98303223 C202.22654724 84.93762207 202.22654724 84.93762207 196.86676025 84.91131592 C193.13303596 84.89434925 189.3994724 84.8884505 185.66571045 84.88934326 C180.89437866 84.89011737 176.12347276 84.87172307 171.35225165 84.83979464 C169.60664183 84.83131372 167.86098381 84.82941226 166.11536252 84.83505964 C153.83051931 84.86975352 142.82466511 84.1587161 133.50376892 75.22668457 C130.70396623 72.01042233 128.8404894 68.54383349 126.99742126 64.71838379 C126.59144714 63.91352539 126.18547302 63.10866699 125.76719666 62.27941895 C124.43107292 59.62138286 123.12068959 56.95150413 121.80992126 54.28088379 C120.28982287 51.23228594 118.76458377 48.18629688 117.23887634 45.14050293 C116.255112 43.171847 115.27568142 41.20101864 114.30088806 39.22790527 C113.85914246 38.33531006 113.41739685 37.44271484 112.96226501 36.52307129 C112.57030945 35.72755859 112.17835388 34.9320459 111.77452087 34.11242676 C110.94404239 32.31629086 110.94404239 32.31629086 109.80992126 31.28088379 C108.41848438 31.18545284 107.02223759 31.15899804 105.62753296 31.16062927 C104.72584381 31.15925461 103.82415466 31.15787994 102.8951416 31.15646362 C101.39974098 31.16185654 101.39974098 31.16185654 99.87413025 31.1673584 C98.83035217 31.16721237 97.7865741 31.16706635 96.71116638 31.16691589 C93.24276184 31.16761552 89.77441024 31.17541026 86.30601501 31.18322754 C83.90847808 31.18509154 81.51094077 31.18651553 79.11340332 31.18751526 C72.78896542 31.19134185 66.46455032 31.20117333 60.14012146 31.21221924 C53.69216724 31.22243034 47.24420936 31.22701223 40.79624939 31.23205566 C28.13412836 31.24279548 15.47203027 31.26039341 2.80992126 31.28088379 Z M-58.19007874 92.28088379 C-58.27783479 94.42647206 -58.29703092 96.574928 -58.28773499 98.72229004 C-58.28451233 100.02746582 -58.28128967 101.3326416 -58.27796936 102.67736816 C-58.26961275 104.06604069 -58.26114779 105.45471256 -58.25257874 106.84338379 C-58.2475654 108.23596035 -58.2430022 109.6285386 -58.23890686 111.02111816 C-58.22707307 114.44108249 -58.21058754 117.86096223 -58.19007874 121.28088379 C-57.58588104 121.28675003 -56.98168335 121.29261627 -56.35917664 121.29866028 C-50.03151639 121.36293573 -43.70434879 121.44744087 -37.37709045 121.54333496 C-35.02038598 121.57644835 -32.66360479 121.60452192 -30.30677795 121.62731934 C-26.90556862 121.66111571 -23.50505377 121.7134444 -20.10414124 121.76916504 C-19.06206512 121.77555496 -18.01998901 121.78194489 -16.94633484 121.78852844 C-6.47211561 121.99579829 2.79483287 124.27997522 10.80992126 131.28088379 C16.96037895 139.54857325 21.08060974 149.6278489 25.62242126 158.84338379 C26.78285544 161.19189869 27.94448718 163.53980286 29.10842896 165.88658142 C29.82737133 167.33670727 30.54417234 168.78789715 31.25860596 170.24024963 C32.71288278 173.47591707 32.71288278 173.47591707 34.80992126 176.28088379 C37.1529062 176.38203593 39.46665604 176.41802668 41.81027222 176.41218567 C42.92190549 176.41535924 42.92190549 176.41535924 44.055996 176.41859692 C46.55853966 176.42462522 49.0610333 176.42359475 51.56358337 176.42272949 C53.35043931 176.42575928 55.13729448 176.42928023 56.92414856 176.43325806 C60.78305078 176.44116398 64.64194369 176.44629844 68.50085258 176.44954872 C74.60720536 176.45544912 80.71349953 176.47198225 86.81982422 176.4908905 C88.90929695 176.49722859 90.99876972 176.5035542 93.08824253 176.50986767 C94.65834054 176.51461639 94.65834054 176.51461639 96.2601577 176.51946104 C110.48156894 176.56154385 124.70295392 176.59448962 138.92442322 176.60681152 C148.50857944 176.615201 158.09259166 176.63772915 167.67667586 176.67616719 C172.74861937 176.69590675 177.8203477 176.70833959 182.89233208 176.7033329 C187.67027555 176.69867448 192.44781217 176.71255712 197.22567368 176.740345 C198.97431032 176.74723812 200.72298921 176.74740367 202.47162437 176.74014473 C212.97307365 176.70097368 221.33861243 177.45692857 230.55992126 182.90588379 C240.01558183 192.88685883 241.10608789 203.61676352 241.12876892 216.76525879 C241.13808116 218.11618135 241.14825174 219.46709822 241.15921021 220.81800842 C241.18637838 224.46410062 241.20162021 228.11015447 241.21463823 231.75632095 C241.23032684 235.57469299 241.25709863 239.39298737 241.28266907 243.21130371 C241.32935582 250.43232368 241.36614864 257.65335841 241.39934194 264.87445164 C241.43763495 273.0994381 241.48702619 281.32434638 241.5373261 289.54926682 C241.64049561 306.45975487 241.72833965 323.37027571 241.80992126 340.28088379 C251.70992126 340.28088379 261.60992126 340.28088379 271.80992126 340.28088379 C271.80992126 276.26088379 271.80992126 212.24088379 271.80992126 146.28088379 C212.6930273 146.07081702 212.6930273 146.07081702 153.57603455 145.89294434 C142.13194275 145.84301758 142.13194275 145.84301758 136.77131653 145.81587219 C133.03424323 145.7979644 129.29724787 145.78833568 125.56013489 145.7837677 C120.78636519 145.77765908 116.01285312 145.75726203 111.23917937 145.72672236 C109.49152037 145.7179373 107.74382759 145.71408087 105.99614739 145.71584451 C93.58532202 145.72457159 82.16368401 145.47896492 72.80992126 136.28088379 C66.17712711 128.18973913 62.02412267 118.04139284 57.43492126 108.71838379 C56.59563932 107.02474589 55.75580017 105.331384 54.91539001 103.63830566 C52.87379234 99.52232069 50.83978315 95.40266825 48.80992126 91.28088379 C35.00651239 91.25755321 21.20310657 91.23997025 7.39968204 91.22907162 C0.99092998 91.22384213 -5.41780888 91.21674329 -11.82655334 91.20544434 C-18.00567315 91.1946178 -24.18478022 91.18860745 -30.36390877 91.18600655 C-32.72713484 91.18415187 -35.09036017 91.18053046 -37.45358086 91.17515373 C-40.7510977 91.1679464 -44.04856121 91.16689272 -47.34608459 91.1673584 C-48.82745911 91.16196548 -48.82745911 91.16196548 -50.33876038 91.15646362 C-51.23203537 91.15783829 -52.12531036 91.15921295 -53.0456543 91.16062927 C-53.82641295 91.15970748 -54.60717161 91.15878569 -55.41158962 91.15783596 C-57.21512088 91.08705436 -57.21512088 91.08705436 -58.19007874 92.28088379 Z M-118.19007874 152.28088379 C-118.19007874 234.45088379 -118.19007874 316.62088379 -118.19007874 401.28088379 C-9.62007874 401.28088379 98.94992126 401.28088379 210.80992126 401.28088379 C210.80992126 337.26088379 210.80992126 273.24088379 210.80992126 207.28088379 C152.02212914 207.07081789 152.02212914 207.07081789 93.23423767 206.89294434 C81.85362244 206.84301758 81.85362244 206.84301758 76.5226593 206.81587219 C72.80641926 206.79796505 69.0902576 206.78833582 65.37397766 206.7837677 C60.62671915 206.77765876 55.87971967 206.75726064 51.13255763 206.72672236 C49.39466753 206.71793779 47.65674347 206.71408077 45.91883206 206.71584451 C33.21355027 206.72482934 21.76675738 206.03708092 11.80992126 197.28088379 C5.81024244 189.41649822 1.740009 180.31618946 -2.44007874 171.40588379 C-3.35851584 169.46158437 -4.27904654 167.51831624 -5.20222473 165.57626343 C-6.030718 163.83146569 -6.85326696 162.08384894 -7.6754303 160.33605957 C-9.04261138 157.57833808 -10.60645011 154.92026483 -12.19007874 152.28088379 C-47.17007874 152.28088379 -82.15007874 152.28088379 -118.19007874 152.28088379 Z " fill="#000000" transform="translate(148.19007873535156,40.7191162109375)"/>
<path d="M0 0 C5.15201748 2.34182613 7.86274625 5.83606855 10 11 C10.51371073 13.87970781 10.51790136 16.64470868 10.4375 19.5625 C10.44458984 20.29146484 10.45167969 21.02042969 10.45898438 21.77148438 C10.39021939 27.64824541 9.00408773 31.87802476 4.875 36.25 C0.45828279 38.93843656 -3.97385502 40.47097426 -9.18359375 39.66015625 C-14.35082383 38.00937764 -16.9193745 35.38755753 -20 31 C-21.67387623 27.65224754 -21.22672443 23.92753953 -21.25 20.25 C-21.270625 19.45078125 -21.29125 18.6515625 -21.3125 17.828125 C-21.34564789 12.78964514 -20.79524609 9.3621774 -18 5 C-12.16551207 -0.2652696 -7.71405294 -0.76376762 0 0 Z " fill="#000000" transform="translate(316,377)"/>
<path d="M0 0 C3.70849701 3.25624128 6.26388298 6.04841369 6.73950195 11.14770508 C6.80607304 13.45276227 6.84735182 15.75664151 6.875 18.0625 C6.90400391 18.85720703 6.93300781 19.65191406 6.96289062 20.47070312 C7.03489482 27.16709344 5.01687738 30.72744547 0.3125 35.5625 C-3.8965559 38.14532976 -7.77551246 38.76078728 -12.5546875 37.84375 C-17.77992415 36.18744857 -20.35587221 33.7323677 -23.4375 29.25 C-25.65919973 22.5849008 -25.71678455 13.19262263 -23.53125 6.45703125 C-18.49943891 -2.13897937 -8.74262082 -4.45078878 0 0 Z " fill="#000000" transform="translate(275.4375,378.75)"/>
</svg>
