<?xml version="1.0" encoding="UTF-8"?>
<svg version="1.1" xmlns="http://www.w3.org/2000/svg" width="512" height="512">
<path d="M0 0 C0.91968063 -0.00571014 1.83936127 -0.01142029 2.78691101 -0.01730347 C3.783452 -0.01842133 4.77999298 -0.01953918 5.80673218 -0.02069092 C6.86578262 -0.02565582 7.92483307 -0.03062073 9.01597595 -0.03573608 C12.51312919 -0.05032173 16.01023714 -0.05715172 19.50741577 -0.06268311 C21.93688966 -0.06843501 24.36636354 -0.07419274 26.7958374 -0.07995605 C31.88492036 -0.09045404 36.97398757 -0.09630541 42.06307983 -0.09979248 C48.59481532 -0.10529203 55.12634391 -0.12935632 61.6580143 -0.15776443 C66.67304097 -0.17634861 71.68801721 -0.18159403 76.70307541 -0.18312836 C79.11210646 -0.18616209 81.52113647 -0.1942147 83.93013382 -0.20731354 C87.2915066 -0.22429475 90.65236563 -0.22251375 94.01376343 -0.21600342 C95.5146476 -0.22982559 95.5146476 -0.22982559 97.04585266 -0.243927 C98.41691414 -0.23557327 98.41691414 -0.23557327 99.81567383 -0.22705078 C100.61021784 -0.22851734 101.40476185 -0.2299839 102.22338295 -0.2314949 C104.80841044 0.23581043 105.65186718 1.12373803 107.28085327 3.14044189 C108.44317627 5.13124084 108.44317627 5.13124084 109.56161499 7.42486572 C110.19775223 8.71684624 110.19775223 8.71684624 110.84674072 10.03492737 C111.29679474 10.96306747 111.74684875 11.89120758 112.21054077 12.84747314 C113.18050813 14.81561386 114.15056297 16.78371146 115.12069702 18.75177002 C116.63937281 21.85119349 118.15534938 24.95190931 119.66903687 28.05377197 C121.13432022 31.05094246 122.60948741 34.04309554 124.08554077 37.03497314 C124.53154633 37.95704056 124.97755188 38.87910797 125.43707275 39.82911682 C128.83406643 46.70191456 132.27106217 52.36991255 139.03085327 56.39044189 C140.1987439 57.10973877 140.1987439 57.10973877 141.39022827 57.84356689 C148.02340131 60.81953101 154.87705767 61.43713796 162.06980896 61.41891479 C162.90645991 61.4247072 163.74311087 61.4304996 164.60511488 61.43646753 C167.38256585 61.45334692 170.15984946 61.45633355 172.93734741 61.45928955 C174.93865358 61.46859606 176.93995589 61.47876581 178.94125366 61.48973083 C184.35582912 61.51696332 189.77037865 61.53216023 195.18500447 61.54515886 C200.85048336 61.56081897 206.51590954 61.58760001 212.18135071 61.6131897 C222.90144442 61.65992651 233.62154809 61.6966953 244.34169143 61.72986257 C256.54968117 61.76811998 268.75761792 61.81752067 280.96556294 61.86784673 C306.07062041 61.97109077 331.17571194 62.06037564 356.28085327 62.14044189 C357.86891892 65.31657318 357.42132853 68.7424677 357.41456604 72.23033142 C357.4168316 73.0764802 357.41909715 73.92262898 357.42143136 74.79441863 C357.42779099 77.64634564 357.42694073 80.49822536 357.42611694 83.35015869 C357.42910729 85.38833173 357.43250953 87.42650419 357.43629456 89.4646759 C357.44515332 95.01444028 357.44747351 100.56418926 357.44811034 106.11396003 C357.44905829 110.74356876 357.45273544 115.37317387 357.45628244 120.00278121 C357.46443479 130.92651826 357.46686603 141.85024707 357.46615601 152.77398682 C357.46555559 164.0460401 357.47609833 175.31804548 357.49189967 186.59008664 C357.50497463 196.2614962 357.51033989 205.9328901 357.5097006 215.60430843 C357.50944552 221.38312608 357.51230204 227.16190121 357.52287865 232.94071007 C357.53255838 238.37842501 357.53263961 243.81605678 357.52536201 249.25377464 C357.52431589 251.24879579 357.5266807 253.24382211 357.53272247 255.23883438 C357.54044167 257.9645321 357.53579793 260.6899426 357.52809143 263.41563416 C357.53323499 264.20319727 357.53837856 264.99076039 357.54367799 265.80218905 C357.50985548 271.22440206 357.2648192 276.7915011 353.62460327 281.10137939 C353.01616577 281.56802002 352.40772827 282.03466064 351.78085327 282.51544189 C351.17241577 282.99755127 350.56397827 283.47966064 349.93710327 283.97637939 C346.66446411 286.27648899 344.48425694 286.26804252 340.50735092 286.27466297 C339.27046359 286.27912082 338.03357625 286.28357866 336.75920749 286.28817159 C335.37398703 286.28808228 333.98876658 286.28789241 332.60354614 286.28761292 C331.14179106 286.29091056 329.68003689 286.29463592 328.21828389 286.29875439 C324.18682619 286.30879383 320.15538339 286.3124943 316.12391496 286.3151437 C311.78159337 286.31904101 307.43928364 286.32861973 303.0969696 286.33735657 C292.6030625 286.3571372 282.1091544 286.36718919 271.6152333 286.37608436 C266.67686072 286.38046462 261.73848922 286.38583211 256.80011749 286.39107323 C240.38964943 286.40808707 223.97918204 286.42258208 207.56870651 286.42982197 C203.30820464 286.43173195 199.04770278 286.43365227 194.78720093 286.43560791 C193.72823755 286.43609165 192.66927417 286.43657539 191.57822099 286.43707379 C174.41697371 286.44537719 157.25579606 286.47071865 140.09457919 286.50318859 C122.48663226 286.53623291 104.87872076 286.55426835 87.27074265 286.55746621 C77.3800031 286.55963374 67.48936509 286.56841786 57.5986557 286.59392738 C49.17658973 286.61559852 40.75464995 286.62370252 32.33255926 286.6139606 C28.03408778 286.60940546 23.73587688 286.61137228 19.43744087 286.63072205 C15.50305836 286.64828032 11.56912792 286.64741618 7.6347411 286.63182475 C6.21074116 286.62943746 4.78671051 286.63383012 3.36275765 286.6456534 C-9.94585566 286.74931996 -9.94585566 286.74931996 -14.71914673 282.14044189 C-15.49242058 281.45357268 -16.26569443 280.76670347 -17.06240082 280.05902004 C-19.58552695 275.61419797 -19.27106082 271.47172784 -19.2270813 266.44319153 C-19.23332126 265.35284432 -19.23956122 264.26249711 -19.24599028 263.13910908 C-19.26196909 259.4786087 -19.24929624 255.8187697 -19.23672485 252.15826416 C-19.2421438 249.53674938 -19.24926517 246.91523764 -19.25796509 244.29373169 C-19.27575598 237.90817167 -19.2719077 231.52279966 -19.26031452 225.13723225 C-19.25128189 219.94716946 -19.25005546 214.75715938 -19.25440979 209.56709099 C-19.25532919 208.45917349 -19.25532919 208.45917349 -19.25626716 207.32887382 C-19.25754606 205.82839687 -19.25884291 204.32791992 -19.26015753 202.827443 C-19.27156519 188.7555168 -19.25844714 174.68369481 -19.23695606 160.6117857 C-19.21908859 148.5388474 -19.22218588 136.46606296 -19.2406311 124.39312744 C-19.26204095 110.37319926 -19.27046263 96.35336246 -19.25818205 82.33342022 C-19.25690786 80.83814968 -19.25565037 79.34287913 -19.25440979 77.84760857 C-19.25379269 77.11191034 -19.25317559 76.37621211 -19.25253978 75.61821999 C-19.24908694 70.43522678 -19.25491388 65.25229156 -19.264328 60.06930733 C-19.27672317 53.09169899 -19.26788808 46.11438615 -19.24475098 39.13680649 C-19.23945561 36.57374874 -19.24099172 34.01066656 -19.24980164 31.44761848 C-19.26070742 27.95297223 -19.24705194 24.45926226 -19.2270813 20.9646759 C-19.23600419 19.94668036 -19.24492707 18.92868481 -19.25412035 17.87984091 C-19.18863234 11.98503846 -18.63263279 8.63740593 -14.71914673 4.14044189 C-10.12000245 0.72056538 -5.62915165 0.02105478 0 0 Z M238.53085327 219.01544189 C236.26288464 222.16539833 235.53825312 223.3652441 235.28085327 227.14044189 C235.23057983 227.87262939 235.1803064 228.60481689 235.12850952 229.35919189 C234.85365339 236.48346273 235.56457893 243.1137362 240.46835327 248.57794189 C244.69058629 250.9236269 248.53911858 252.6181307 253.43319702 251.76544189 C258.02444698 250.26067468 260.72879325 248.36115655 263.28085327 244.14044189 C266.21932337 238.11657819 266.28305779 230.46244886 264.78085327 223.98419189 C263.17893767 219.83377421 260.63216175 216.9890541 257.28085327 214.14044189 C249.26860985 211.46969409 244.21066408 213.07745786 238.53085327 219.01544189 Z M287.46835327 219.20294189 C284.88398691 223.41953964 285.02937065 227.66511194 284.96835327 232.45294189 C284.93934937 233.19995361 284.91034546 233.94696533 284.88046265 234.71661377 C284.81993228 240.02000489 285.82355767 242.90779691 289.28085327 247.14044189 C293.04567934 250.90526797 295.94426519 252.04843176 301.28085327 252.14044189 C307.15425386 250.41892793 309.8516182 247.98171493 313.28085327 243.14044189 C314.49433081 239.50000927 314.50335047 236.11989004 314.53085327 232.32794189 C314.55147827 231.62862549 314.57210327 230.92930908 314.59335327 230.20880127 C314.62926416 225.41020907 313.81930036 222.20436906 311.28085327 218.14044189 C306.62570781 213.93945697 303.75049368 212.78608099 297.60116577 212.85528564 C293.12314417 213.4056149 290.3537264 215.91958626 287.46835327 219.20294189 Z " fill="#000000" transform="translate(18.719146728515625,180.85955810546875)"/>
<path d="M0 0 C1.11292923 -0.00058411 2.22585846 -0.00116821 3.37251282 -0.00177002 C7.03585449 0.00100742 10.69837345 0.03208498 14.36157227 0.06347656 C16.90747127 0.07094012 19.45337603 0.07663251 21.99928284 0.08062744 C28.00576152 0.0943178 34.01188932 0.12581406 40.01822764 0.1660254 C46.85981438 0.21082842 53.70141557 0.23275149 60.54311264 0.25280714 C74.60906328 0.29454965 88.67475481 0.36484815 102.74047852 0.45410156 C104.17782796 3.1546202 105.6135394 5.85598878 107.04833984 8.55786133 C107.65358868 9.69441036 107.65358868 9.69441036 108.27106476 10.85391998 C111.99575523 17.87329677 115.40312381 25.01996131 118.74243164 32.22949219 C124.18458987 44.57145094 124.18458987 44.57145094 133.05297852 54.39160156 C133.72973633 54.91625 134.40649414 55.44089844 135.10375977 55.98144531 C141.70026429 59.66571525 148.15672881 60.89949436 155.63659668 60.84609985 C156.48479272 60.85204111 157.33298877 60.85798238 158.20688772 60.86410367 C161.02356002 60.88029784 163.83978566 60.87546174 166.65649414 60.87060547 C168.68573507 60.87799097 170.71497156 60.88669767 172.74420166 60.8966217 C178.23531957 60.91988448 183.72632434 60.92509048 189.21748543 60.9272809 C194.96391703 60.93295011 200.71027535 60.95622645 206.45666504 60.97787476 C217.33140766 61.0163562 228.20612923 61.04060414 239.0809226 61.05899942 C258.58453918 61.09245547 278.08809308 61.15003006 297.59163427 61.21299112 C304.4397302 61.23453044 311.28780411 61.24977216 318.13592625 61.25983071 C322.38173104 61.2668238 326.62751995 61.27769956 330.8733139 61.28947258 C332.84989345 61.29404892 334.82647786 61.2968823 336.80306244 61.29789543 C339.4888179 61.29945571 342.17449052 61.30700382 344.86022949 61.31607056 C345.65271292 61.3150023 346.44519635 61.31393405 347.26169443 61.31283343 C352.62644169 61.34006474 352.62644169 61.34006474 353.74047852 62.45410156 C353.84722528 65.1819951 353.88826222 67.88487635 353.88764954 70.61355591 C353.89132622 71.47926803 353.89500291 72.34498014 353.89879102 73.23692596 C353.9098744 76.16104894 353.91367957 79.08513645 353.91748047 82.00927734 C353.92374172 84.09656387 353.93038821 86.18384926 353.93739319 88.27113342 C353.95483704 93.95937545 353.9653646 99.64760905 353.97359872 105.33587122 C353.97874272 108.88764118 353.98481878 112.4394085 353.99110985 115.99117661 C354.01017312 127.09758767 354.02440067 138.20399205 354.03272182 149.31041634 C354.04249319 162.14188928 354.06880546 174.97318966 354.10922271 187.80460179 C354.13936653 197.71378036 354.15418914 207.62290944 354.15750283 217.53213298 C354.15985572 223.454108 354.16884692 229.37589892 354.193964 235.29782486 C354.21721862 240.87101772 354.22148833 246.44390494 354.21120262 252.01713371 C354.21070648 254.06215238 354.21704984 256.10718596 354.23075867 258.15215874 C354.24843886 260.9460545 354.24139031 263.73884895 354.22822571 266.53274536 C354.24467958 267.74429533 354.24467958 267.74429533 354.26146585 268.98032105 C354.19782781 274.58169456 352.9824214 277.85420213 349.74047852 282.45410156 C343.85379145 287.98856387 335.22617759 286.90962234 327.74047852 286.70410156 C326.48879883 286.68605469 325.23711914 286.66800781 323.94750977 286.64941406 C320.8776961 286.60254668 317.80949678 286.53694466 314.74047852 286.45410156 C314.7355133 285.26057241 314.7355133 285.26057241 314.73044777 284.04293156 C314.64914838 264.66215466 314.55703322 245.28145661 314.45295143 225.90078831 C314.40287731 216.52835781 314.35643385 207.15593584 314.31860352 197.78344727 C314.28561274 189.61226408 314.24574254 181.44114802 314.19768846 173.27003902 C314.17249381 168.94544113 314.15069192 164.62088737 314.13713455 160.29623604 C314.12425015 156.22097734 314.10212772 152.14587052 314.07309532 148.07069588 C314.0640692 146.57965239 314.05834099 145.08858447 314.05626488 143.59751511 C314.03662837 131.63059362 313.48309644 121.17253278 305.74047852 111.45410156 C294.03400318 100.35169702 278.94478714 101.0078202 263.83520508 101.02172852 C261.84330645 101.01269839 259.85141335 101.00236813 257.85952759 100.99084473 C252.48436165 100.96339554 247.1093015 100.95400668 241.73407459 100.94799066 C236.10463628 100.93857542 230.47527602 100.91236956 224.84588623 100.88798523 C214.20026166 100.84440299 203.55465231 100.81580524 192.90896583 100.79266185 C180.78311735 100.76556574 168.65734772 100.72165699 156.53155565 100.67637312 C131.60123942 100.5836454 106.67089846 100.51191039 81.74047852 100.45410156 C80.4669463 98.08143071 79.19515279 95.70785452 77.92431641 93.33374023 C77.56739967 92.66920586 77.21048294 92.00467148 76.84275055 91.31999969 C73.7604734 85.55653114 70.93816254 79.69058387 68.17797852 73.76660156 C59.85488093 54.96309086 59.85488093 54.96309086 44.11547852 42.64160156 C39.03237613 40.85310258 34.19347513 40.33225929 28.8269043 40.2487793 C27.68617462 40.22883408 26.54544495 40.20888885 25.37014771 40.18833923 C24.15431 40.17162674 22.93847229 40.15491425 21.68579102 40.13769531 C20.42910614 40.11691422 19.17242126 40.09613312 17.87765503 40.07472229 C14.55362151 40.02055544 11.22957594 39.97026364 7.90545654 39.921875 C4.50666134 39.87143661 1.10795035 39.81586773 -2.29077148 39.76074219 C-8.9469542 39.65381899 -15.60320035 39.55200693 -22.25952148 39.45410156 C-22.37620566 34.93348715 -22.44693793 30.41326309 -22.50952148 25.89160156 C-22.54303711 24.61478516 -22.57655273 23.33796875 -22.61108398 22.02246094 C-22.73889164 9.72097389 -22.73889164 9.72097389 -18.25952148 4.45410156 C-12.22816435 0.05568215 -7.32715256 -0.10124019 0 0 Z " fill="#000000" transform="translate(90.259521484375,112.5458984375)"/>
<path d="M0 0 C0.9787912 -0.00137466 1.9575824 -0.00274933 2.96603394 -0.00416565 C4.58227661 0.00122726 4.58227661 0.00122726 6.23117065 0.00672913 C7.36287689 0.0065831 8.49458313 0.00643707 9.6605835 0.00628662 C13.41573986 0.00698544 17.17084713 0.01477645 20.92599487 0.02259827 C23.52388482 0.02446255 26.12177511 0.02588641 28.71966553 0.02688599 C34.8678202 0.03031906 41.0159545 0.03820721 47.16410148 0.04823548 C54.16280305 0.05940385 61.16150545 0.06490889 68.16021371 0.06993091 C82.5587128 0.08039001 96.95719696 0.09798495 111.35568237 0.12025452 C111.63050446 0.68100174 111.90532654 1.24174896 112.18847656 1.81948853 C115.06426507 7.6821292 117.95439269 13.53753979 120.85275269 19.38905334 C121.93095349 21.57051812 123.00554921 23.75376874 124.0763855 25.93885803 C125.62084861 29.08878768 127.17838579 32.23195667 128.73849487 35.37416077 C129.21062408 36.34422562 129.6827533 37.31429047 130.16918945 38.31375122 C134.13578719 46.25020307 138.12390285 52.61517094 146.35568237 56.49525452 C147.34568237 56.97736389 148.33568237 57.45947327 149.35568237 57.95619202 C154.93379747 60.12061688 160.44273373 60.2657659 166.36386108 60.2515564 C167.15287984 60.25367211 167.9418986 60.25578782 168.75482702 60.25796765 C171.38937103 60.2639423 174.0238668 60.26296933 176.65841675 60.26210022 C178.55102113 60.26513331 180.44362478 60.26865518 182.33622742 60.27262878 C186.40731385 60.28050518 190.47839157 60.28565788 194.54948425 60.28891945 C200.98698601 60.29483729 207.42443272 60.31138384 213.86190796 60.33026123 C216.06690213 60.33659814 218.27189633 60.34292377 220.47689056 60.3492384 C221.58094207 60.35240421 222.68499357 60.35557002 223.82250118 60.35883176 C238.80637097 60.40089836 253.79021445 60.43389932 268.7741394 60.44618225 C278.8867658 60.45455706 288.99925521 60.47702287 299.11181307 60.51553792 C304.46189086 60.53531145 309.81176381 60.54769865 315.16188049 60.54270363 C320.19184874 60.53806429 325.22142813 60.55182354 330.25131798 60.57971573 C332.09678051 60.58663844 333.94228316 60.58674249 335.78774452 60.57951546 C338.30812795 60.57064219 340.82722473 60.58629497 343.34750366 60.60800171 C344.44157854 60.5953379 344.44157854 60.5953379 345.55775595 60.58241826 C351.90715415 60.68346962 355.224244 63.09347006 359.69767475 67.34725475 C361.90890931 71.04552057 361.92063885 74.30202409 361.88380432 78.48825073 C361.89633931 79.74800981 361.89633931 79.74800981 361.90912753 81.03321856 C361.93209822 83.8460801 361.92649173 86.65814558 361.92086792 89.47108459 C361.93119993 91.48838172 361.94318857 93.50567095 361.95671082 95.52294922 C361.98778543 101.00241616 361.99303434 106.48162023 361.99177909 111.96116471 C361.99260911 116.53617574 362.00484881 121.1111296 362.0167287 125.68612307 C362.04411501 136.48101642 362.04942807 147.27577322 362.04196167 158.07069397 C362.03472173 169.20385776 362.06812792 180.33638815 362.12101907 191.46941453 C362.16479779 201.02968148 362.18151584 210.5897438 362.17698318 220.15010947 C362.17466074 225.85923577 362.18298616 231.56785048 362.21805382 237.27688026 C362.25001023 242.64765252 362.24819928 248.0173764 362.22060966 253.38816261 C362.21615447 255.35697445 362.22360179 257.32585543 362.2439537 259.29456711 C362.40511425 276.0200827 362.40511425 276.0200827 357.98954773 281.29144287 C353.83063511 285.07802553 350.20586838 285.24187105 344.71896362 285.21791077 C343.42023315 285.21468811 342.12150269 285.21146545 340.78341675 285.20814514 C339.41167129 285.19978983 338.0399265 285.19132489 336.66818237 285.18275452 C335.28472042 285.17773787 333.90125674 285.17317525 332.51779175 285.16908264 C329.13037842 285.15727981 325.74305204 285.1408147 322.35568237 285.12025452 C322.35421581 284.31002901 322.35274925 283.4998035 322.35123825 282.66502571 C322.31414152 262.92501346 322.25508878 243.1851725 322.17177963 223.44529915 C322.13201757 213.89912265 322.0996107 204.35302826 322.08468628 194.80677795 C322.07165507 186.48355084 322.04465294 178.16050458 322.00106931 169.83737934 C321.9784875 165.43276857 321.96276972 161.0283806 321.96379852 156.62370682 C321.96454708 152.47198508 321.94651828 148.32075523 321.91451454 144.16916084 C321.90604421 142.65113 321.90424602 141.13304379 321.90987968 139.61499977 C321.94545903 128.54773165 320.86597556 119.70344673 313.35568237 111.12025452 C313.35568237 110.46025452 313.35568237 109.80025452 313.35568237 109.12025452 C312.50296753 108.70453186 312.50296753 108.70453186 311.63302612 108.28041077 C308.57457684 106.72233283 305.6328505 104.97661218 302.67208862 103.24134827 C297.65049219 100.81099721 292.44931746 100.96887781 286.97181702 100.96203613 C286.13041666 100.95709816 285.2890163 100.95216018 284.42211896 100.94707257 C281.60464661 100.93172272 278.78719701 100.92334374 275.96969604 100.91493225 C273.94927775 100.90535175 271.92886146 100.89534157 269.90844727 100.88493347 C264.42339387 100.85789697 258.93833188 100.83688058 253.45324874 100.81693149 C247.72102909 100.79506423 241.98883588 100.76767915 236.25663757 100.74087524 C225.40182458 100.69095839 214.5469969 100.6460158 203.69215518 100.60285288 C191.33433668 100.55347192 178.97654472 100.49855696 166.61875188 100.44317329 C141.19775348 100.32936869 115.77672961 100.22252631 90.35568237 100.12025452 C88.76882703 97.1169263 87.18392134 94.11257324 85.59933472 91.10804749 C85.15504623 90.26723129 84.71075775 89.4264151 84.25300598 88.56011963 C80.04899212 80.58477642 76.03905093 72.52119438 72.08956909 64.41664124 C71.21758001 62.63027803 70.33751395 60.84786464 69.45724487 59.06556702 C68.95531616 58.0396344 68.45338745 57.01370178 67.93624878 55.9566803 C65.20213619 51.05014338 62.33459585 47.75286313 57.48068237 44.93275452 C56.6582605 44.44419983 55.83583862 43.95564514 54.98849487 43.45228577 C50.01648744 40.93677459 45.63958722 39.87067657 40.07492065 39.80140686 C38.85410797 39.78153717 37.63329529 39.76166748 36.37548828 39.74119568 C35.07215546 39.72964447 33.76882263 39.71809326 32.42599487 39.70619202 C31.06692349 39.68746302 29.70786352 39.66788833 28.34881592 39.64750671 C24.78808346 39.5963621 21.22731337 39.55664248 17.66641235 39.5193634 C14.02628405 39.47921231 10.38630988 39.42817088 6.74630737 39.37806702 C-0.38378787 39.28151737 -7.51397998 39.19704615 -14.64431763 39.12025452 C-14.73191944 34.93288784 -14.78491197 30.74575921 -14.83181763 26.55775452 C-14.85695435 25.37632874 -14.88209106 24.19490295 -14.9079895 22.97767639 C-14.97641648 14.83486649 -14.65836322 9.50186665 -9.08181763 3.24525452 C-5.78519031 0.37127173 -4.26654517 -0.0046075 0 0 Z " fill="#000000" transform="translate(150.64431762695313,44.87974548339844)"/>
</svg>
