<?xml version="1.0" encoding="UTF-8"?>
<svg version="1.1" xmlns="http://www.w3.org/2000/svg" width="512" height="512">
<path d="M0 0 C1.24324036 -0.00997513 2.48648071 -0.01995026 3.76739502 -0.03022766 C5.13752734 -0.03112339 6.50765982 -0.031787 7.87779236 -0.03224182 C9.32702561 -0.03986722 10.77625482 -0.04829538 12.22547913 -0.0574646 C16.1576894 -0.07938707 20.0898219 -0.08820619 24.02208638 -0.09329104 C26.48310146 -0.09693921 28.94409633 -0.10318186 31.40510368 -0.11029243 C40.0035936 -0.13478527 48.60202326 -0.14783714 57.20054626 -0.15138245 C65.19343145 -0.15501106 73.18593108 -0.18485819 81.1786986 -0.22678703 C88.05622567 -0.26158992 94.93362569 -0.27693266 101.81124014 -0.27762848 C105.91189936 -0.27841831 110.01216623 -0.28701949 114.11273384 -0.31562614 C117.97645041 -0.34197693 121.83945425 -0.34391864 125.70322037 -0.3279705 C127.11241281 -0.32616904 128.52164783 -0.33272763 129.93074989 -0.34878922 C141.93740122 -0.47717491 152.23649402 1.86967907 161.11924744 10.37229919 C163.98449741 13.57096605 166.20055489 17.02565673 168.38536072 20.71165466 C169.40876595 22.38094528 170.43220519 24.05021504 171.45567322 25.71946716 C171.99353455 26.60795349 172.53139587 27.49643982 173.08555603 28.41184998 C176.27154096 33.66093475 179.51788188 38.87236054 182.76036072 44.08665466 C183.38692566 45.10622253 184.0134906 46.12579041 184.65904236 47.17625427 C190.74277009 57.19260891 190.74277009 57.19260891 199.69786072 64.52415466 C200.49965759 65.00368591 201.30145447 65.48321716 202.12754822 65.97727966 C207.98769799 68.79694593 213.56685455 69.56745226 220.00030518 69.53244019 C221.19313221 69.53795374 221.19313221 69.53795374 222.41005677 69.54357868 C225.05985006 69.55351423 227.70943166 69.54941675 230.35923767 69.5453949 C232.2652051 69.54978454 234.17117061 69.55508757 236.07713318 69.56123352 C240.17494186 69.57271658 244.27269895 69.5781917 248.37052345 69.57911491 C254.85543118 69.58105904 261.34023255 69.59913139 267.82510376 69.61987305 C283.93325378 69.66901563 300.04143265 69.69992965 316.14964294 69.72117615 C328.66822674 69.7377134 341.18671919 69.76056793 353.70524186 69.80419689 C360.14611796 69.82593205 366.58682035 69.83403492 373.02773058 69.83180416 C377.04239014 69.83347565 381.05693712 69.84755346 385.07155609 69.86501694 C386.92663183 69.87059708 388.78173111 69.8711196 390.6368084 69.86607933 C403.85649776 69.83393969 415.27821463 70.30514534 425.82286072 79.27415466 C435.46076662 89.62753829 436.00593942 100.74667266 435.82286072 114.27415466 C437.05520447 114.23934998 438.28754822 114.20454529 439.55723572 114.16868591 C453.21678599 113.89496959 465.65145029 114.40672663 476.82286072 123.27415466 C483.88201259 130.34685577 487.96729926 138.21798149 488.09755337 148.28249127 C488.09455098 149.02775395 488.09154858 149.77301664 488.0884552 150.54086304 C488.08561929 151.3318385 488.08278337 152.12281397 488.07986152 152.93775839 C487.94948631 161.31315263 486.64827389 169.35019637 485.135849 177.56932068 C484.84533414 179.21322664 484.55618781 180.85737494 484.26828003 182.5017395 C483.49004844 186.92424616 482.69301765 191.34317026 481.89237452 195.76166654 C481.04356363 200.46547175 480.21281108 205.17246781 479.37995911 209.87911987 C477.79277233 218.83329158 476.19003022 227.7846033 474.58141887 236.7349481 C472.79101585 246.70056179 471.01673779 256.66902021 469.24448824 266.6378758 C467.01426998 279.18274961 464.78168219 291.72718538 462.5353241 304.2691803 C459.6766667 320.23309789 456.81998963 336.19690344 454.05398297 352.17718184 C453.69548587 354.2483283 453.33632428 356.31935852 452.97699547 358.39036083 C451.91697228 364.50322582 450.86323734 370.61707605 449.82118225 376.73303223 C449.45982784 378.82482273 449.09826039 380.91657645 448.73643494 383.00828552 C448.50844271 384.36983293 448.50844271 384.36983293 448.27584457 385.75888634 C445.89647313 399.40522685 441.84271423 408.86494337 431.65489197 418.44993591 C421.90773827 424.72844733 411.87416192 424.84738115 400.69172668 424.78208923 C398.96447542 424.78670389 397.23722809 424.79306059 395.5099889 424.80099821 C390.78625148 424.81763674 386.06283891 424.80947018 381.3391006 424.79705334 C376.236121 424.78798283 371.13319627 424.8019824 366.03022766 424.81297302 C356.04300596 424.83074071 346.05590463 424.82692626 336.06867824 424.81532246 C327.95163509 424.80628255 319.83462563 424.80506655 311.71757889 424.80941772 C309.98356073 424.81033712 309.98356073 424.81033712 308.21451191 424.81127509 C305.86599435 424.81255401 303.51747681 424.81385087 301.16895927 424.81516546 C279.15809239 424.82656587 257.14729219 424.81346546 235.13643624 424.79196399 C216.2530691 424.77408878 197.36980031 424.77720169 178.48643494 424.79563904 C156.55029307 424.81704707 134.6142096 424.82547227 112.67805874 424.81318998 C110.33887618 424.8119158 107.9996936 424.81065832 105.66051102 424.80941772 C103.93418079 424.80849207 103.93418079 424.80849207 102.1729752 424.80754772 C94.0653389 424.80409498 85.95773966 424.80992144 77.8501091 424.81933594 C67.97027725 424.83055632 58.09057251 424.82751476 48.21075521 424.80621296 C43.17062945 424.7957039 38.1307156 424.79157846 33.09059143 424.80480957 C28.47545632 424.8167418 23.86072928 424.81015714 19.24563111 424.78889936 C17.57757803 424.7844369 15.90949037 424.78669158 14.24145959 424.79640251 C2.25534193 424.86082237 -6.34750849 423.56178855 -15.38807678 415.13352966 C-21.55951485 408.71954599 -24.42185838 402.6636359 -24.4372015 393.59796524 C-24.44100717 392.94907939 -24.44481284 392.30019354 -24.44873384 391.63164449 C-24.45902916 389.46025523 -24.45514734 387.28912838 -24.45129395 385.11772156 C-24.45574747 383.54399383 -24.46106189 381.97026833 -24.46716267 380.39654613 C-24.48133932 376.07398986 -24.48300602 371.75150551 -24.48256576 367.42892933 C-24.48421425 362.76620815 -24.49728133 358.10351658 -24.50875854 353.44081116 C-24.53160462 343.24660567 -24.53952864 333.05242101 -24.54458499 322.8581934 C-24.54784226 316.49237572 -24.5543649 310.12656408 -24.56158638 303.76074982 C-24.58115128 286.13371602 -24.59755631 268.50668784 -24.60046291 250.87964249 C-24.60065048 249.75174133 -24.60083805 248.62384018 -24.60103131 247.46176021 C-24.60139756 245.17525975 -24.60176125 242.88875929 -24.60212242 240.60225883 C-24.60230523 239.46724617 -24.60248804 238.33223352 -24.60267639 237.16282654 C-24.60285694 236.02642781 -24.60303749 234.89002908 -24.60322351 233.71919402 C-24.60676559 215.30314477 -24.63379058 196.88721242 -24.67117428 178.47120371 C-24.7092532 159.56133169 -24.72862036 140.65151769 -24.72892243 121.74160647 C-24.72950706 111.12531459 -24.73800341 100.50916218 -24.76692009 89.89290619 C-24.79142829 80.85362509 -24.79872056 71.81453435 -24.78367256 62.77522901 C-24.77650158 58.16430242 -24.7773693 53.55375176 -24.80008316 48.94286728 C-24.82069361 44.71846087 -24.81805378 40.49471893 -24.79720832 36.27031955 C-24.79371737 34.74542702 -24.79860675 33.22048634 -24.81291275 31.69565693 C-24.88891762 23.0334932 -24.51019872 15.48787952 -19.17713928 8.27415466 C-13.44517744 2.87066005 -7.97150566 0.03437062 0 0 Z " fill="#F9C639" transform="translate(24.177139282226563,43.72584533691406)"/>
<path d="M0 0 C1.24324036 -0.00997513 2.48648071 -0.01995026 3.76739502 -0.03022766 C5.13752734 -0.03112339 6.50765982 -0.031787 7.87779236 -0.03224182 C9.32702561 -0.03986722 10.77625482 -0.04829538 12.22547913 -0.0574646 C16.1576894 -0.07938707 20.0898219 -0.08820619 24.02208638 -0.09329104 C26.48310146 -0.09693921 28.94409633 -0.10318186 31.40510368 -0.11029243 C40.0035936 -0.13478527 48.60202326 -0.14783714 57.20054626 -0.15138245 C65.19343145 -0.15501106 73.18593108 -0.18485819 81.1786986 -0.22678703 C88.05622567 -0.26158992 94.93362569 -0.27693266 101.81124014 -0.27762848 C105.91189936 -0.27841831 110.01216623 -0.28701949 114.11273384 -0.31562614 C117.97645041 -0.34197693 121.83945425 -0.34391864 125.70322037 -0.3279705 C127.11241281 -0.32616904 128.52164783 -0.33272763 129.93074989 -0.34878922 C141.93740122 -0.47717491 152.23649402 1.86967907 161.11924744 10.37229919 C163.98449741 13.57096605 166.20055489 17.02565673 168.38536072 20.71165466 C169.40876595 22.38094528 170.43220519 24.05021504 171.45567322 25.71946716 C171.99353455 26.60795349 172.53139587 27.49643982 173.08555603 28.41184998 C176.27154096 33.66093475 179.51788188 38.87236054 182.76036072 44.08665466 C183.38692566 45.10622253 184.0134906 46.12579041 184.65904236 47.17625427 C190.74277009 57.19260891 190.74277009 57.19260891 199.69786072 64.52415466 C200.49965759 65.00368591 201.30145447 65.48321716 202.12754822 65.97727966 C207.98769799 68.79694593 213.56685455 69.56745226 220.00030518 69.53244019 C221.19313221 69.53795374 221.19313221 69.53795374 222.41005677 69.54357868 C225.05985006 69.55351423 227.70943166 69.54941675 230.35923767 69.5453949 C232.2652051 69.54978454 234.17117061 69.55508757 236.07713318 69.56123352 C240.17494186 69.57271658 244.27269895 69.5781917 248.37052345 69.57911491 C254.85543118 69.58105904 261.34023255 69.59913139 267.82510376 69.61987305 C283.93325378 69.66901563 300.04143265 69.69992965 316.14964294 69.72117615 C328.66822674 69.7377134 341.18671919 69.76056793 353.70524186 69.80419689 C360.14611796 69.82593205 366.58682035 69.83403492 373.02773058 69.83180416 C377.04239014 69.83347565 381.05693712 69.84755346 385.07155609 69.86501694 C386.92663183 69.87059708 388.78173111 69.8711196 390.6368084 69.86607933 C403.85649776 69.83393969 415.27821463 70.30514534 425.82286072 79.27415466 C433.25106635 87.25379914 435.29495164 94.53584663 435.01036072 105.21165466 C434.99682556 106.18167419 434.98329041 107.15169373 434.96934509 108.15110779 C434.93424748 110.52604596 434.88508347 112.89979844 434.82286072 115.27415466 C434.00354572 115.27475175 433.18423073 115.27534884 432.34008801 115.27596402 C383.78155583 115.31185742 335.22308561 115.36849555 286.66461087 115.45207562 C280.83422305 115.46209308 275.00383495 115.47193721 269.17344666 115.48167419 C268.01272061 115.48361557 266.85199457 115.48555694 265.65609501 115.48755714 C246.86142785 115.51857881 228.0667729 115.53555827 209.27208497 115.54734889 C189.9872102 115.55975957 170.70239953 115.58725914 151.41756523 115.62876773 C139.51764999 115.65390542 127.61784105 115.66727174 115.71789889 115.66558424 C107.55782434 115.66555448 99.39785806 115.68018032 91.23782571 115.70631894 C86.52979967 115.72096751 81.82199568 115.72916553 77.11395073 115.71995735 C72.80053777 115.71166382 68.48757075 115.72184335 64.17422388 115.74649128 C62.61686557 115.75216992 61.05946491 115.75116716 59.50211944 115.74266711 C47.52787964 115.68293005 38.25125292 117.43829895 28.86192322 125.23509216 C18.00079696 136.09621842 17.00370568 152.263648 14.63560486 166.67088318 C13.76953785 171.93533636 12.88403858 177.19651703 11.99864197 182.45774841 C11.81786102 183.53358185 11.63708008 184.60941528 11.45082092 185.71784973 C9.67243867 196.25479184 7.75918703 206.76529547 5.82286072 217.27415466 C3.04074593 232.40133981 0.38250917 247.5452491 -2.17713928 262.71165466 C-4.79550829 278.22442211 -7.47279662 293.72464425 -10.23963928 309.21165466 C-10.40425659 310.13323364 -10.5688739 311.05481262 -10.73847961 312.00431824 C-11.06838592 313.85098937 -11.39830125 315.69765889 -11.72822571 317.54432678 C-11.97170746 318.90719315 -11.97170746 318.90719315 -12.22010803 320.29759216 C-12.46238129 321.6533284 -12.46238129 321.6533284 -12.70954895 323.03645325 C-14.51203333 333.13273005 -16.28452431 343.23422355 -18.05213928 353.33665466 C-18.19757172 354.16663971 -18.34300415 354.99662476 -18.49284363 355.85176086 C-20.09310416 364.986281 -21.67380114 374.12305982 -23.17713928 383.27415466 C-23.50713928 383.27415466 -23.83713928 383.27415466 -24.17713928 383.27415466 C-24.2915907 336.94556239 -24.37969125 290.61698509 -24.43246593 244.2882793 C-24.43871944 238.81840159 -24.44519106 233.34852415 -24.45179749 227.87864685 C-24.45310904 226.78969556 -24.45442059 225.70074428 -24.45577189 224.57879446 C-24.47752674 206.94805591 -24.51694874 189.31739889 -24.56290326 171.6867087 C-24.60966561 153.59516697 -24.63743422 135.50366794 -24.64758176 117.41206825 C-24.65444135 106.24910616 -24.67610456 95.08637456 -24.71672162 83.92348342 C-24.7431572 76.26802823 -24.7511384 68.61269215 -24.74464617 60.95719464 C-24.74144457 56.54071658 -24.74634245 52.1246412 -24.77316666 47.70823479 C-24.79756723 43.6612399 -24.79868322 39.61491699 -24.78163376 35.56789063 C-24.7795278 34.1074127 -24.78581315 32.64689219 -24.80155519 31.18649758 C-24.88902047 22.56797784 -24.39871632 15.41070177 -19.17713928 8.27415466 C-13.44964855 2.86840557 -7.96816956 0.03435623 0 0 Z " fill="#FE8E27" transform="translate(24.177139282226563,43.72584533691406)"/>
<path d="M0 0 C0.66 0.33 1.32 0.66 2 1 C-0.97 3.97 -3.94 6.94 -7 10 C-7 6.04435836 -5.59478606 4.89133304 -3 2 C-2.01 1.34 -1.02 0.68 0 0 Z " fill="#FEA528" transform="translate(11,47)"/>
</svg>
