<?xml version="1.0" encoding="UTF-8"?>
<svg version="1.1" xmlns="http://www.w3.org/2000/svg" width="512" height="512">
<path d="M0 0 C1.79159745 -0.00457178 3.58319315 -0.00988029 5.37478638 -0.0158844 C9.11500203 -0.02477628 12.85500373 -0.02243777 16.59521484 -0.01245117 C21.3547972 -0.00097226 26.1136364 -0.02117656 30.87312126 -0.05036831 C34.56922996 -0.06884019 38.26516419 -0.06841603 41.96130753 -0.06273079 C43.71454027 -0.06257888 45.46778584 -0.06851327 47.22097397 -0.08102226 C61.05265655 -0.16582352 74.5460892 0.8567811 85.4453125 10.43359375 C94.20280667 19.50447737 97.57649852 29.9118116 97.62231445 42.32226562 C97.62888565 43.10190674 97.63545685 43.88154785 97.64222717 44.68481445 C97.66188541 47.25732538 97.6736095 49.82977796 97.68359375 52.40234375 C97.68766928 53.28620255 97.6917448 54.17006134 97.69594383 55.08070374 C97.71677831 59.76408654 97.73108824 64.44744032 97.74047852 69.13085938 C97.75150414 73.93762687 97.78586686 78.74392651 97.82565022 83.55052948 C97.85196484 87.27234682 97.8601837 90.99405548 97.86375999 94.71595764 C97.86859204 96.48595825 97.88010784 98.25595513 97.89879799 100.02586365 C98.03606098 113.89224513 97.12214338 127.52863116 87.4453125 138.43359375 C79.7440138 145.43359375 79.7440138 145.43359375 76.4453125 145.43359375 C76.44807788 146.87751904 76.44807788 146.87751904 76.45089912 148.35061455 C76.49542065 171.84031575 76.52822191 195.33001144 76.54893684 218.81974602 C76.55922227 230.17948792 76.57322999 241.53920184 76.59619141 252.89892578 C76.61620935 262.80719718 76.62904877 272.7154483 76.63348949 282.62373936 C76.63608271 287.86359426 76.64212011 293.10339118 76.65677261 298.34322739 C76.67048974 303.28929995 76.67450702 308.23529144 76.67152786 313.18138123 C76.67207178 314.9831143 76.67596414 316.78485048 76.68372345 318.58656693 C76.74632208 333.890924 75.94562049 349.13807034 72.2578125 364.05859375 C72.04495605 364.9312085 71.83209961 365.80382324 71.61279297 366.70288086 C65.07236505 392.14175208 49.20296251 416.74845656 26.4453125 430.43359375 C0.15124413 445.85094362 -27.63303108 449.76409893 -57.671875 449.69238281 C-59.61574432 449.69510111 -61.55961262 449.6986667 -63.503479 449.70300293 C-68.72662185 449.71202952 -73.94968464 449.70862334 -79.17282867 449.70224476 C-84.67365209 449.69713384 -90.17446925 449.70189022 -95.67529297 449.70501709 C-104.90788995 449.70864203 -114.14045479 449.70389646 -123.37304688 449.69433594 C-134.00333927 449.68345426 -144.63355491 449.68698088 -155.26384544 449.69798875 C-164.43809345 449.70710376 -173.61231852 449.7083264 -182.7865696 449.70311141 C-188.24523804 449.70001477 -193.70387057 449.69951818 -199.16253662 449.70618439 C-204.2976409 449.71201894 -209.43264751 449.70785084 -214.56774139 449.69639587 C-216.43721099 449.69378161 -218.306689 449.69445795 -220.17615509 449.6989212 C-257.98759651 449.78077807 -292.44027938 441.87616136 -320.3046875 414.99609375 C-346.41672088 388.18132859 -351.71104554 351.8376032 -351.69995117 315.99755859 C-351.70294843 314.05457495 -351.70635225 312.1115919 -351.71012878 310.16860962 C-351.71891613 304.92034192 -351.72130469 299.67209055 -351.72194457 294.4238162 C-351.72265816 291.13572873 -351.72479833 287.84764533 -351.72744179 284.55955887 C-351.73667837 273.06232696 -351.74077886 261.56510659 -351.73999023 250.06787109 C-351.73939016 239.39340205 -351.74993248 228.71898365 -351.7657339 218.04452741 C-351.77886109 208.84492711 -351.78417195 199.64534325 -351.78353482 190.44573367 C-351.78328132 184.96684968 -351.78605009 179.48801075 -351.79671288 174.0091362 C-351.80648128 168.84949618 -351.80641391 163.68994346 -351.79919624 158.53030014 C-351.79816112 156.65115733 -351.8004484 154.77200883 -351.8065567 152.89287567 C-351.85366772 137.37822401 -351.10647554 121.93740058 -347.3671875 106.80859375 C-347.15433105 105.935979 -346.94147461 105.06336426 -346.72216797 104.16430664 C-340.19761986 78.78719967 -324.3576117 54.03479446 -301.5546875 40.43359375 C-275.45496219 25.15587399 -248.59884089 21.25661639 -218.75097656 21.32006836 C-216.87730918 21.32035092 -215.00364168 21.32019116 -213.12997437 21.31962585 C-208.07711727 21.31934056 -203.02428422 21.32519377 -197.97143269 21.33219981 C-192.67836443 21.33847816 -187.38529553 21.33904068 -182.09222412 21.34022522 C-172.08406612 21.34332537 -162.07591912 21.35152093 -152.06776595 21.36157471 C-140.66746423 21.37277683 -129.26716196 21.37825661 -117.8668561 21.38327014 C-94.42946048 21.39370471 -70.99207461 21.41127854 -47.5546875 21.43359375 C-47.24853516 20.645896 -46.94238281 19.85819824 -46.62695312 19.04663086 C-43.51692992 11.46771957 -36.8625081 6.68983135 -29.5546875 3.43359375 C-19.84704411 -0.22715755 -10.20932392 -0.02297433 0 0 Z M9.21720886 30.29615784 C8.59510025 30.93061325 7.97299164 31.56506866 7.33203125 32.21875 C6.67701126 32.87564316 6.02199127 33.53253632 5.34712219 34.20933533 C3.97129116 35.59186165 2.59904894 36.97796771 1.23022461 38.36743164 C-0.87062448 40.49958194 -2.98209387 42.62073968 -5.09570312 44.74023438 C-6.43291986 46.08661596 -7.76953007 47.43360027 -9.10546875 48.78125 C-9.73769852 49.41772964 -10.36992828 50.05420929 -11.02131653 50.7099762 C-11.60249741 51.30076462 -12.18367828 51.89155304 -12.7824707 52.50024414 C-13.29509964 53.01970108 -13.80772858 53.53915802 -14.33589172 54.07435608 C-17.1122587 57.17064395 -16.82689174 60.20906672 -16.76953125 64.1796875 C-16.36388683 68.43526627 -14.57189535 70.59076439 -11.3671875 73.24609375 C-7.64488485 74.81773265 -4.5395046 75.03415682 -0.5546875 74.43359375 C3.22934056 72.6735807 6.20167876 70.0371074 9.4453125 67.43359375 C9.43643005 68.05920197 9.42754761 68.68481018 9.418396 69.32937622 C9.32978555 75.85067595 9.2695212 82.37180416 9.22558594 88.89355469 C9.20549179 91.32624256 9.17821162 93.75888226 9.14355469 96.19140625 C9.0949419 99.6915273 9.07232111 103.19100877 9.0546875 106.69140625 C9.03404236 107.77600128 9.01339722 108.86059631 8.99212646 109.97805786 C8.99030393 116.13477232 9.28616309 119.77410262 13.4453125 124.43359375 C16.49677234 126.95436492 18.53513444 128.28189741 22.4453125 128.93359375 C27.40914426 128.10628846 30.30005778 125.71662153 33.60058594 122.01904297 C36.58142788 117.35818337 35.93756319 112.03032408 35.8359375 106.69140625 C35.82744781 105.00614334 35.82744781 105.00614334 35.81878662 103.28683472 C35.7964565 99.71031484 35.74626396 96.13480912 35.6953125 92.55859375 C35.67524326 90.12892075 35.65699323 87.699232 35.640625 85.26953125 C35.59660267 79.3238747 35.52972321 73.3788067 35.4453125 67.43359375 C35.91582031 67.85511719 36.38632812 68.27664062 36.87109375 68.7109375 C37.49371094 69.25878906 38.11632812 69.80664062 38.7578125 70.37109375 C39.68013672 71.18900391 39.68013672 71.18900391 40.62109375 72.0234375 C44.43974835 74.9753311 48.81661563 74.93179009 53.4453125 74.43359375 C57.6435973 72.66098461 59.49892935 70.52099836 61.4453125 66.43359375 C62.68775363 63.06125354 62.49728822 61.60576331 61.4453125 58.12109375 C57.36875134 49.60957992 49.04269989 42.792017 42.5078125 36.18359375 C41.65251953 35.29929687 40.79722656 34.415 39.91601562 33.50390625 C35.06994885 28.60978542 30.91077511 24.91655458 24.4453125 22.43359375 C17.64260422 22.43359375 13.83183931 25.70472725 9.21720886 30.29615784 Z M-299.8359375 82.8359375 C-317.27787454 102.99479165 -318.8746436 130.70646863 -318.81347656 156.09594727 C-318.81619373 158.01483288 -318.8197587 159.93371746 -318.82409668 161.8526001 C-318.83313604 167.01574475 -318.82971184 172.17880858 -318.82333851 177.34195447 C-318.81823509 182.77345813 -318.82298186 188.20495539 -318.82611084 193.63645935 C-318.82973761 202.75236235 -318.82498502 211.86823281 -318.81542969 220.98413086 C-318.80454438 231.48947333 -318.80807651 241.99473815 -318.8190825 252.50007874 C-318.82818832 261.55789238 -318.82942469 270.61568278 -318.82420516 279.67349952 C-318.82110394 285.06670937 -318.82062493 290.45988285 -318.82727814 295.85309029 C-318.83309925 300.92495952 -318.82896844 305.99672962 -318.81748962 311.06858826 C-318.81486847 312.918353 -318.81556396 314.76812625 -318.82001495 316.6178875 C-318.84981278 330.270859 -318.22832826 343.52043958 -314.4921875 356.74609375 C-314.15058594 357.97972656 -313.80898438 359.21335937 -313.45703125 360.484375 C-312.67553277 363.33020343 -312.67553277 363.33020343 -311.5546875 365.43359375 C-306.40575246 363.74816024 -302.24983623 360.69852741 -297.8203125 357.66796875 C-296.96160049 357.08613327 -296.10288849 356.50429779 -295.21815491 355.90483093 C-293.37124449 354.65276254 -291.52575541 353.3985955 -289.68154907 352.14254761 C-285.81195805 349.50761017 -281.9347721 346.88394977 -278.05805969 344.25950623 C-275.11201264 342.26476604 -272.1670487 340.26843418 -269.22216797 338.27197266 C-261.81776356 333.25483116 -254.40244031 328.25422843 -246.96936035 323.27966309 C-245.58114417 322.34948327 -244.19415457 321.41746996 -242.80847168 320.48352051 C-226.39430679 309.42134263 -212.04915119 303.46209921 -191.93359375 307.0859375 C-182.75175576 309.86795083 -175.8442737 315.54071106 -168.5546875 321.55859375 C-157.33894615 330.61543653 -145.83477294 333.53991741 -131.5546875 332.43359375 C-115.7581554 329.6120489 -105.64356403 320.21712679 -94.0859375 309.68359375 C-90.57669264 306.56426499 -86.92306627 303.63610242 -83.2734375 300.68359375 C-80.63321021 298.49857806 -78.0873903 296.24187984 -75.5546875 293.93359375 C-71.25476959 290.01468123 -66.79549203 286.34188506 -62.2734375 282.68359375 C-59.63321021 280.49857806 -57.0873903 278.24187984 -54.5546875 275.93359375 C-50.25476959 272.01468123 -45.79549203 268.34188506 -41.2734375 264.68359375 C-38.63321021 262.49857806 -36.0873903 260.24187984 -33.5546875 257.93359375 C-31.89010469 256.43128159 -30.22341409 254.93130178 -28.5546875 253.43359375 C-27.70390625 252.66789063 -26.853125 251.9021875 -25.9765625 251.11328125 C-13.76480757 240.57974995 -1.24913173 235.09989533 15.01171875 235.52734375 C24.34585661 236.44511373 31.37897051 239.92155021 39.4453125 244.43359375 C40.7653125 245.09359375 42.0853125 245.75359375 43.4453125 246.43359375 C43.4453125 214.75359375 43.4453125 183.07359375 43.4453125 150.43359375 C23.91079041 150.22393725 23.91079041 150.22393725 4.37597656 150.0456543 C1.90428191 150.01333165 -0.56739925 149.97995336 -3.0390625 149.9453125 C-4.29477051 149.9390686 -5.55047852 149.93282471 -6.84423828 149.9263916 C-19.6321397 149.72025603 -32.1929658 147.80944544 -41.58984375 138.39453125 C-48.46487468 130.1328168 -51.60793094 120.84180392 -51.76000977 110.17456055 C-51.77995499 108.93365158 -51.79990021 107.69274261 -51.82044983 106.41423035 C-51.83743007 105.07042564 -51.85430902 103.72661966 -51.87109375 102.3828125 C-51.89168276 100.99989732 -51.91267973 99.61698815 -51.93406677 98.23408508 C-51.98908649 94.60591526 -52.0385838 90.97769054 -52.08691406 87.34942627 C-52.13727648 83.64240675 -52.19288537 79.93546629 -52.24804688 76.22851562 C-52.35538234 68.96360875 -52.45688123 61.69863583 -52.5546875 54.43359375 C-76.33025524 54.36327489 -100.10580722 54.31049408 -123.88145828 54.27815723 C-134.92279808 54.2627385 -145.96407298 54.24174535 -157.00537109 54.20727539 C-166.63752151 54.1772192 -176.26962488 54.15798254 -185.9018209 54.15132827 C-190.99422012 54.14744328 -196.08648485 54.13841922 -201.17884064 54.11640358 C-205.98869859 54.0957811 -210.79836886 54.08981098 -215.60826683 54.09427071 C-217.35756392 54.09345686 -219.10686843 54.08764667 -220.85612679 54.07597733 C-251.37277887 53.88268167 -278.25453745 60.10894944 -299.8359375 82.8359375 Z " fill="#000000" transform="translate(393.5546875,20.56640625)"/>
<path d="M0 0 C11.71606424 13.00268693 14.70301211 27.00404161 14.13623047 43.88427734 C13.85482634 48.25461458 12.73246396 52.00688185 11 56 C10.52433594 57.20462891 10.52433594 57.20462891 10.0390625 58.43359375 C4.41013901 71.22841628 -5.58394281 79.35885152 -18 85 C-31.27500478 89.99923844 -45.86312097 89.35035249 -58.83984375 83.78125 C-72.43727129 76.91578869 -81.73267223 66.58522279 -86.50878906 52.14648438 C-90.38500475 38.76792734 -88.88415702 24.50712917 -82.5390625 12.15625 C-74.47336907 -1.76423612 -63.50452545 -9.85300645 -48 -14 C-30.64167121 -17.9628339 -12.78057423 -11.92729932 0 0 Z " fill="#000000" transform="translate(229,134)"/>
</svg>
