<?xml version="1.0" encoding="UTF-8"?>
<svg version="1.1" xmlns="http://www.w3.org/2000/svg" width="512" height="512">
<path d="M0 0 C0.70423792 -0.00235223 1.40847584 -0.00470446 2.1340543 -0.00712797 C4.49972187 -0.01379807 6.86533427 -0.01336035 9.23101044 -0.01294994 C10.94197851 -0.01624981 12.6529458 -0.01997564 14.36391211 -0.02409142 C19.07057326 -0.03410562 23.77722166 -0.03782729 28.48389196 -0.04048073 C33.55840693 -0.04438551 38.63291182 -0.05396375 43.70742035 -0.0626936 C55.96505193 -0.08245331 68.22268432 -0.0925237 80.48032784 -0.10142139 C86.25360178 -0.10580518 92.0268748 -0.11117176 97.80014801 -0.11641026 C116.9935436 -0.13342221 136.18693861 -0.14791613 155.38034058 -0.155159 C160.36079662 -0.15706887 165.34125266 -0.15898921 170.32170868 -0.16094494 C172.17849598 -0.16167055 172.17849598 -0.16167055 174.07279414 -0.16241082 C194.12288756 -0.17071017 214.1729213 -0.19604567 234.22298867 -0.22852562 C254.81090686 -0.26160477 275.39879473 -0.27960854 295.98673964 -0.28280324 C307.54489054 -0.28496756 319.10295442 -0.2937049 330.66107941 -0.31926441 C340.50505824 -0.34098307 350.3489289 -0.34901606 360.19292897 -0.33929763 C365.21326939 -0.33475632 370.23338669 -0.33662946 375.25369644 -0.35605907 C379.85568927 -0.37371546 384.45729662 -0.37267292 389.05929369 -0.35716178 C390.71818487 -0.35478947 392.37710292 -0.35908958 394.0359531 -0.37099043 C412.36547748 -0.49427303 427.89430164 4.15474498 441.15862274 17.17718983 C450.20255518 26.53710769 457.03128335 40.04919806 457.05846882 53.2109499 C457.06292666 54.21610598 457.06738451 55.22126206 457.07197744 56.25687742 C457.07170089 57.90261944 457.07170089 57.90261944 457.07141876 59.58160877 C457.07509545 60.75277162 457.07877214 61.92393447 457.08256024 63.1305871 C457.09166844 66.37785198 457.09629269 69.62508716 457.09894955 72.87236261 C457.10286067 76.3763132 457.11243849 79.88024927 457.12116241 83.38419056 C457.14090495 91.84497577 457.15099063 100.30576213 457.1598902 108.76656461 C457.16427708 112.75465202 457.16964289 116.7427381 457.17487907 120.73082447 C457.19188981 133.99485721 457.20638257 147.25888913 457.21362782 160.5229311 C457.21553759 163.96334808 457.21745794 167.40376506 457.21941376 170.84418201 C457.2198975 171.69924153 457.22038124 172.55430104 457.22087964 173.43527144 C457.2291747 187.27751233 457.25450344 201.11966666 457.28699443 214.96186978 C457.3201076 229.18555866 457.33808045 243.40920362 457.34127206 257.63293123 C457.34343331 265.6140524 457.35212535 273.59504736 457.37773323 281.57613087 C457.39949856 288.37518558 457.40746214 295.17408343 457.39776645 301.97316903 C457.39323841 305.4381429 457.3950196 308.90279351 457.41452789 312.36772251 C457.43228421 316.13573941 457.42512097 319.90294589 457.41199493 323.67096424 C457.4284488 325.2899376 457.4284488 325.2899376 457.44523507 326.94161749 C457.30561589 343.63589537 450.20659115 357.73880888 438.70940399 369.47015858 C428.67630775 379.06703324 415.71530593 384.24867607 401.84849548 384.26844215 C401.14425756 384.27079438 400.44001964 384.27314661 399.71444118 384.27557012 C397.34877361 384.28224022 394.98316122 384.2818025 392.61748505 384.2813921 C390.90651698 384.28469196 389.19554968 384.28841779 387.48458338 384.29253358 C382.77792222 384.30254778 378.07127382 384.30626944 373.36460352 384.30892289 C368.29008855 384.31282767 363.21558366 384.32240591 358.14107513 384.33113575 C345.88344356 384.35089547 333.62581116 384.36096585 321.36816764 384.36986354 C315.5948937 384.37424734 309.82162068 384.37961392 304.04834747 384.38485241 C284.85495189 384.40186437 265.66155687 384.41635829 246.46815491 384.42360115 C241.48769887 384.42551102 236.50724283 384.42743136 231.5267868 384.42938709 C229.6699995 384.4301127 229.6699995 384.4301127 227.77570134 384.43085297 C207.72560792 384.43915233 187.67557418 384.46448782 167.62550682 384.49696777 C147.03758863 384.53004692 126.44970075 384.5480507 105.86175585 384.55124539 C94.30360495 384.55340971 82.74554107 384.56214705 71.18741608 384.58770657 C61.34343725 384.60942523 51.49956658 384.61745821 41.65556651 384.60773978 C36.63522609 384.60319848 31.61510879 384.60507161 26.59479904 384.62450123 C21.99280621 384.64215762 17.39119886 384.64111508 12.7892018 384.62560394 C11.13031062 384.62323163 9.47139257 384.62753173 7.81254238 384.63943259 C-11.26163138 384.76772362 -26.70562343 379.35186496 -40.41168976 365.91937733 C-49.27567611 356.6524825 -55.18318508 344.02693215 -55.20997334 331.05749226 C-55.21443118 330.05233617 -55.21888902 329.04718009 -55.22348195 328.01156473 C-55.22329759 326.91440339 -55.22311323 325.81724204 -55.22292328 324.68683338 C-55.22659997 323.51567053 -55.23027665 322.34450768 -55.23406476 321.13785505 C-55.24317296 317.89059017 -55.2477972 314.64335499 -55.25045407 311.39607954 C-55.25436519 307.89212895 -55.26394301 304.38819288 -55.27266693 300.88425159 C-55.29240947 292.42346639 -55.30249515 283.96268002 -55.31139472 275.50187755 C-55.3157816 271.51379014 -55.32114741 267.52570405 -55.32638359 263.53761768 C-55.34339433 250.27358495 -55.35788709 237.00955302 -55.36513233 223.74551105 C-55.36704211 220.30509407 -55.36896246 216.8646771 -55.37091827 213.42426014 C-55.37140201 212.56920063 -55.37188575 211.71414112 -55.37238415 210.83317071 C-55.38067922 196.99092982 -55.40600796 183.14877549 -55.43849895 169.30657238 C-55.47161212 155.0828835 -55.48958497 140.85923854 -55.49277657 126.63551092 C-55.49493783 118.65438975 -55.50362986 110.67339479 -55.52923775 102.69231129 C-55.55100308 95.89325657 -55.55896666 89.09435873 -55.54927097 82.29527313 C-55.54474293 78.83029926 -55.54652412 75.36564864 -55.56603241 71.90071964 C-55.58378873 68.13270274 -55.57662549 64.36549626 -55.56349945 60.59747791 C-55.5744687 59.51816234 -55.58543794 58.43884677 -55.59673959 57.32682467 C-55.46284192 41.31666934 -49.14744084 27.2209448 -38.03278351 15.89984608 C-27.85466187 6.06533196 -14.11621502 0.02012159 0 0 Z " fill="#41BBA9" transform="translate(55.07575225830078,-0.13422107696533203)"/>
<path d="M0 0 C1.94231853 -0.00457216 3.88463544 -0.00988077 5.82695007 -0.0158844 C9.88234053 -0.02477643 13.93753366 -0.02243795 17.99291992 -0.01245117 C23.15021111 -0.00097879 28.30681579 -0.02116678 33.46401691 -0.05036831 C37.47159543 -0.06885361 41.47901324 -0.06841327 45.48662376 -0.06273079 C47.38613026 -0.06257901 49.28564867 -0.06850235 51.18511391 -0.08102226 C71.28349182 -0.19484412 89.41588278 3.27168065 104.5390625 17.8046875 C116.17799285 30.83796558 121.25818054 44.99804983 121.51171875 62.37109375 C121.54664429 63.97078003 121.54664429 63.97078003 121.58227539 65.6027832 C121.52267139 71.48509729 120.83991891 75.7386181 117.64208984 80.71704102 C110.41228172 87.78696882 102.31056301 87.01611261 92.81298828 86.98291016 C91.17139766 86.99161182 89.52981515 87.00198061 87.88824463 87.0138855 C83.44182369 87.04060974 78.99574333 87.04182917 74.54925776 87.0367589 C70.8316761 87.03461553 67.11416281 87.04439632 63.39659584 87.05396974 C54.62290615 87.07614106 45.84938772 87.07704581 37.07568359 87.06494141 C28.03743319 87.05286336 18.99980561 87.07748347 9.96166146 87.12008154 C2.18985383 87.15535848 -5.58175597 87.16730923 -13.35364068 87.16080606 C-17.99018365 87.15718691 -22.62628236 87.16238604 -27.26275253 87.19023514 C-31.62480348 87.21545674 -35.98588654 87.21144507 -40.34792328 87.18541336 C-41.94380908 87.18069642 -43.53976368 87.18609917 -45.13557053 87.20265961 C-54.13256134 87.28925431 -61.3328154 87.00176791 -68.11328125 80.43359375 C-74.1208577 72.65840347 -71.87105661 58.70767949 -71.11328125 49.43359375 C-69.08066143 35.8164237 -60.46452678 22.19720804 -49.97265625 13.46484375 C-46.66080095 11.11215965 -43.2913162 9.02423754 -39.73828125 7.05859375 C-39.16255371 6.73648926 -38.58682617 6.41438477 -37.99365234 6.08251953 C-25.92192381 -0.17701799 -13.23257263 -0.02748011 0 0 Z " fill="#FCFEFB" transform="translate(135.11328125,212.56640625)"/>
<path d="M0 0 C1.01674805 0.00829834 2.03349609 0.01659668 3.08105469 0.02514648 C17.2799233 0.34474614 28.55216732 5.44126471 38.9375 15.1875 C49.50202184 26.44477738 54.27117339 38.71516155 54.02416992 53.99633789 C53.84072496 59.33895957 53.41093828 64.34734509 51.6875 69.4375 C51.46578125 70.19546875 51.2440625 70.9534375 51.015625 71.734375 C46.5786791 84.87778078 36.9754688 94.59216802 24.89453125 100.89453125 C12.15764781 106.99066719 -1.46852738 108.69402105 -15.1875 104.875 C-30.3490755 99.5238557 -41.54705323 88.82662026 -48.7421875 74.61328125 C-53.74751894 62.6845169 -54.35944365 47.30379514 -50.3125 35 C-47.60016349 28.38006003 -43.91597992 22.88524747 -39.3125 17.4375 C-38.76851562 16.78136719 -38.22453125 16.12523438 -37.6640625 15.44921875 C-27.78331673 4.5803984 -14.3161997 -0.15036035 0 0 Z " fill="#FDFEFB" transform="translate(159.3125,85.5625)"/>
<path d="M0 0 C1.05701111 -0.00708481 2.11402222 -0.01416962 3.20306396 -0.02146912 C4.35744965 -0.0189917 5.51183533 -0.01651428 6.70120239 -0.01396179 C8.53104675 -0.02162819 8.53104675 -0.02162819 10.39785767 -0.02944946 C13.74097404 -0.04096904 17.08384249 -0.04341877 20.42696142 -0.04088616 C23.22011477 -0.03981583 26.01324529 -0.04470153 28.80639374 -0.04949158 C35.39797495 -0.06058505 41.98949918 -0.06102538 48.58108521 -0.05497742 C55.37485543 -0.04893963 62.16841844 -0.06124391 68.96215332 -0.08254749 C74.80008477 -0.1001789 80.63795036 -0.10616235 86.47590744 -0.10290974 C89.96036355 -0.10109887 93.44467191 -0.10371319 96.92910385 -0.11762428 C100.81676065 -0.13256439 104.70415487 -0.12321897 108.59182739 -0.11161804 C109.74216461 -0.11926178 110.89250183 -0.12690552 112.07769775 -0.13478088 C118.51698531 -0.09227663 123.48352577 0.18728365 128.42044067 4.79585266 C132.60955494 10.27392516 133.39743344 13.4469516 132.77590942 20.26069641 C130.95056351 25.53391794 128.16871739 28.05760727 123.77590942 31.26069641 C120.78520546 32.25759773 118.79608853 32.39333413 115.67207336 32.40786743 C114.0886187 32.41860039 114.0886187 32.41860039 112.47317505 32.42955017 C110.73620361 32.43358353 110.73620361 32.43358353 108.96414185 32.43769836 C107.13451653 32.44755516 107.13451653 32.44755516 105.26792908 32.45761108 C101.22240963 32.47735849 97.17692981 32.48901081 93.13137817 32.49897766 C91.73757724 32.50302597 90.3437765 32.50714292 88.94997597 32.51132774 C82.40178676 32.53037385 75.85360879 32.54460648 69.30539721 32.55293971 C61.75113745 32.56271251 54.19717067 32.58903523 46.64301413 32.62944061 C40.80086749 32.65961473 34.95880478 32.67440977 29.11658174 32.67772073 C25.62868227 32.68006962 22.14109601 32.68900867 18.65328026 32.7141819 C14.76071192 32.74182322 10.86852832 32.73762748 6.9758606 32.73066711 C5.2479982 32.7498822 5.2479982 32.7498822 3.48522949 32.76948547 C-2.73705269 32.72888162 -6.51790865 32.47819921 -11.22409058 28.26069641 C-15.72842702 23.14766585 -16.74396572 19.91694232 -16.70846558 13.16304016 C-15.89319799 8.2780094 -12.98538611 5.31101535 -9.22409058 2.26069641 C-6.05128847 0.34825592 -3.68442666 0.00824208 0 0 Z " fill="#FDFEFB" transform="translate(315.2240905761719,95.73930358886719)"/>
<path d="M0 0 C1.23969543 -0.00700928 2.47939087 -0.01401855 3.75665283 -0.02124023 C7.14536741 -0.03580093 10.5331015 -0.03242837 13.92176056 -0.01972389 C17.47438334 -0.00956921 21.02696535 -0.0189964 24.57958984 -0.02526855 C30.54467252 -0.03253782 36.50955684 -0.02297635 42.47460938 -0.00390625 C49.36279636 0.01786133 56.25050971 0.01080943 63.13868523 -0.01121187 C69.0616097 -0.02938659 74.98439192 -0.03191415 80.90733528 -0.0214572 C84.44096765 -0.01523356 87.97437768 -0.01435521 91.50799561 -0.02760315 C95.4482248 -0.04134469 99.38792704 -0.022278 103.328125 0 C104.49402161 -0.00809692 105.65991821 -0.01619385 106.86114502 -0.02453613 C113.10313878 0.04086052 116.94556141 0.27980891 121.6640625 4.51757812 C125.74457596 9.14951233 127.09228549 11.97019172 127.00390625 18.06835938 C126.42318217 22.25357772 124.59652025 25.50778083 121.6640625 28.51757812 C115.41488346 33.08011827 110.09127466 33.08938042 102.50585938 33.03515625 C101.29688492 33.04216553 100.08791046 33.0491748 98.84230042 33.05639648 C95.54240783 33.07093985 92.24352441 33.06759588 88.94368935 33.05488014 C85.48096037 33.04471141 82.01827277 33.05415652 78.55554199 33.0604248 C72.74186516 33.06769002 66.92839197 33.05814332 61.11474609 33.0390625 C54.40548554 33.01729569 47.6967113 33.02434787 40.98746252 33.04636812 C35.21396919 33.06455446 29.44062175 33.06706474 23.66710901 33.05661345 C20.22456047 33.05039617 16.78224006 33.04949378 13.33970642 33.0627594 C9.50036909 33.07652223 5.66157094 33.05741541 1.82226562 33.03515625 C0.68958755 33.04325317 -0.44309052 33.0513501 -1.61009216 33.05969238 C-8.0801912 32.99027371 -12.08158896 32.3881165 -17.3359375 28.51757812 C-21.92554507 23.56563312 -22.69929065 19.58686877 -22.61328125 13.02148438 C-22.0721087 8.13568714 -19.48612822 5.54888746 -15.95849609 2.38586426 C-11.15168388 -0.69923572 -5.5114086 -0.03827565 0 0 Z " fill="#FBFEFA" transform="translate(321.3359375,266.482421875)"/>
<path d="M0 0 C1.04288681 -0.01004562 2.08577362 -0.02009125 3.16026306 -0.03044128 C4.30418015 -0.03627228 5.44809723 -0.04210327 6.62667847 -0.04811096 C7.83185623 -0.05789474 9.037034 -0.06767853 10.2787323 -0.07775879 C14.27735426 -0.10773516 18.27594048 -0.12941208 22.27462769 -0.14796448 C22.95583601 -0.1512618 23.63704432 -0.15455912 24.33889532 -0.15795636 C30.76868725 -0.18874315 37.19848399 -0.21543953 43.62832832 -0.23237514 C51.83913253 -0.25425822 60.04928089 -0.29617999 68.25982296 -0.36581272 C74.04001491 -0.41315968 79.82003063 -0.43732307 85.60041034 -0.44457203 C89.04890745 -0.44951351 92.49666505 -0.46444712 95.9449501 -0.50431633 C99.79868619 -0.54828546 103.65158966 -0.5442621 107.50558472 -0.53639221 C108.63735641 -0.55639282 109.76912811 -0.57639343 110.93519592 -0.59700012 C118.44070682 -0.52835357 123.33475265 1.07223079 128.95431519 6.16062927 C132.14991372 10.61509995 132.72319811 14.83184347 131.95431519 20.16062927 C129.95134851 25.83570153 126.3408134 29.46738017 120.95431519 32.16062927 C119.27245825 32.26417085 117.58654611 32.30446556 115.90153503 32.31452942 C114.83189011 32.32312988 113.76224518 32.33173035 112.66018677 32.34059143 C110.89212677 32.34698135 110.89212677 32.34698135 109.08834839 32.35350037 C107.23209084 32.3657666 107.23209084 32.3657666 105.33833313 32.37828064 C101.22725755 32.4031712 97.11621882 32.41981173 93.00509644 32.43406677 C91.58934205 32.43942677 90.17358773 32.44480428 88.75783348 32.45019913 C82.86701623 32.47183133 76.97620173 32.49056648 71.0853548 32.50182152 C62.64733671 32.51804953 54.20977994 32.55119477 45.77193576 32.60822237 C39.8372279 32.64696172 33.9026432 32.66645906 27.96781224 32.67174208 C24.4244562 32.675391 20.88159211 32.68736141 17.33837318 32.71984482 C13.38119715 32.75560203 9.42459656 32.75154435 5.46725464 32.74412537 C3.71437637 32.76873337 3.71437637 32.76873337 1.92608643 32.7938385 C-5.09882669 32.73991746 -8.838056 31.98757798 -14.04568481 27.16062927 C-17.59716263 22.23438585 -17.90755105 17.04047226 -17.04568481 11.16062927 C-13.35628307 3.78182579 -8.18990941 0.06202079 0 0 Z " fill="#FBFEFB" transform="translate(316.0456848144531,180.83937072753906)"/>
</svg>
