<?xml version="1.0" standalone="no"?>
<!DOCTYPE svg PUBLIC "-//W3C//DTD SVG 20010904//EN"
 "http://www.w3.org/TR/2001/REC-SVG-20010904/DTD/svg10.dtd">
<svg version="1.0" xmlns="http://www.w3.org/2000/svg"
 width="512.000000pt" height="512.000000pt" viewBox="0 0 512.000000 512.000000"
 preserveAspectRatio="xMidYMid meet">

<g transform="translate(0.000000,512.000000) scale(0.100000,-0.100000)"
fill="#000000" stroke="none">
<path d="M1435 4790 c-315 -43 -573 -230 -705 -513 -22 -46 -50 -124 -62 -173
l-23 -89 0 -1455 0 -1455 23 -89 c70 -275 244 -489 495 -606 46 -22 124 -50
173 -62 l89 -23 1135 0 1135 0 89 23 c269 68 478 236 601 481 20 41 49 118 63
170 l27 96 0 900 c0 860 -1 902 -19 951 -39 104 -128 195 -226 229 -25 9 -103
20 -175 25 -157 11 -220 23 -336 60 -302 99 -568 328 -711 615 -80 158 -115
297 -128 500 -6 85 -15 146 -27 177 -40 102 -115 177 -221 223 -45 19 -71 20
-592 21 -300 1 -572 -2 -605 -6z m1983 -1970 c95 -12 181 -41 220 -75 24 -21
27 -30 26 -89 -1 -91 -8 -96 -91 -59 -176 80 -357 68 -461 -31 -128 -120 -134
-400 -11 -526 60 -62 117 -84 214 -84 44 0 92 5 108 12 l27 12 0 115 0 115
-100 0 c-99 0 -101 0 -110 26 -11 28 -13 94 -4 118 5 14 32 16 199 16 175 0
193 -2 209 -19 15 -17 17 -43 14 -249 -4 -271 2 -259 -121 -293 -107 -31 -309
-33 -402 -5 -177 53 -289 170 -324 334 -16 76 -14 237 4 307 53 206 205 344
414 374 80 12 97 12 189 1z m-1660 -16 l23 -7 -3 -426 c-3 -414 -4 -427 -25
-466 -52 -98 -160 -141 -298 -120 -72 10 -95 39 -95 117 0 90 6 96 73 73 66
-22 101 -15 122 25 13 24 15 89 15 408 0 281 3 381 12 390 13 13 135 17 176 6z
m683 -4 c109 -21 193 -81 232 -169 34 -73 30 -197 -7 -279 -60 -130 -166 -191
-348 -200 l-108 -5 0 -162 c0 -136 -3 -165 -16 -176 -17 -14 -161 -18 -182 -5
-9 5 -12 125 -12 491 l0 484 22 15 c18 13 55 16 194 16 94 0 195 -5 225 -10z"/>
<path d="M2210 2475 l0 -165 73 0 c92 0 134 20 165 80 42 83 22 192 -42 231
-24 15 -50 19 -113 19 l-83 0 0 -165z"/>
<path d="M3230 4635 c-24 -26 -25 -30 -24 -178 1 -119 6 -171 23 -241 41 -169
130 -326 252 -442 81 -77 140 -116 243 -165 131 -61 234 -82 413 -83 146 -1
152 0 176 22 34 32 41 66 21 107 -9 21 -222 238 -506 518 -476 468 -491 482
-532 485 -34 2 -46 -2 -66 -23z"/>
</g>
</svg>
