<?xml version="1.0" encoding="UTF-8"?>
<svg version="1.1" xmlns="http://www.w3.org/2000/svg" width="512" height="512">
<path d="M0 0 C17.28816422 13.62316985 28.72861261 31.91003755 31.86328125 53.83203125 C32.11864837 58.46240466 32.09722175 63.07861678 32.05859375 67.71484375 C32.05576385 69.01026093 32.05293396 70.3056781 32.05001831 71.64035034 C32.04245733 75.0499269 32.02287571 78.45932745 32.00061035 81.86883545 C31.97998752 85.36175151 31.9709818 88.85469659 31.9609375 92.34765625 C31.93962098 99.17585261 31.90557861 106.00393343 31.86328125 112.83203125 C32.60318802 113.02724869 33.34309479 113.22246613 34.10542297 113.42359924 C35.08423935 113.68543503 36.06305573 113.94727081 37.0715332 114.21704102 C38.03831497 114.47413345 39.00509674 114.73122589 40.00117493 114.99610901 C65.54606888 122.45688879 88.18589025 142.22081063 101.18505859 165.16503906 C111.45554332 184.14140802 116.01812558 203.63864537 116.00854492 225.15649414 C116.01358284 226.8024054 116.01358284 226.8024054 116.01872253 228.48156738 C116.02817767 232.08928579 116.03017313 235.69695749 116.03125 239.3046875 C116.03446713 241.8318229 116.03783155 244.35895812 116.04133606 246.88609314 C116.04731432 252.17919419 116.04922043 257.47227809 116.04858398 262.76538086 C116.04798506 268.84271791 116.05850626 274.91996567 116.07432765 280.99728018 C116.08910001 286.88602988 116.09256872 292.77474495 116.09197426 298.66351128 C116.09314584 301.14831341 116.09752081 303.63311636 116.10530663 306.11790657 C116.1987845 339.04080554 116.1987845 339.04080554 111.36328125 354.64453125 C111.10828857 355.47291504 110.8532959 356.30129883 110.59057617 357.15478516 C101.17070973 386.06280399 80.5148027 408.96733196 53.67089844 422.92529297 C33.16500918 433.21147243 12.92844669 434.45634792 -9.68828583 434.36933327 C-13.22140107 434.35902067 -16.75448024 434.36864844 -20.28759766 434.37487793 C-26.21459548 434.38210237 -32.14139226 434.37270522 -38.06835938 434.35351562 C-44.86624331 434.33175684 -51.66364691 434.33881195 -58.46151924 434.36082125 C-64.3568837 434.37912556 -70.25210578 434.38146114 -76.14748955 434.37106657 C-79.64277866 434.36491315 -83.13784403 434.36376496 -86.63311768 434.37721252 C-122.76475449 434.49708994 -152.25691151 426.2634252 -178.70214844 400.28076172 C-200.70899477 378.05669328 -210.26378518 348.20681218 -210.29785156 317.44165039 C-210.30281647 316.34904907 -210.30778137 315.25644775 -210.31289673 314.1307373 C-210.32741016 310.54288077 -210.33430344 306.95506848 -210.33984375 303.3671875 C-210.34267113 302.13132841 -210.3454985 300.89546932 -210.34841156 299.62215996 C-210.36182787 293.74939271 -210.37173466 287.8766412 -210.37561345 282.00385958 C-210.3796352 275.9522919 -210.39185303 269.90088022 -210.41796875 263.84936523 C-210.44572033 257.31496627 -210.45837434 250.78070064 -210.460289 244.24624443 C-210.46328723 241.77507857 -210.4712181 239.30391296 -210.48447418 236.83278084 C-210.67018133 199.54282994 -203.17555238 169.54615748 -177.13671875 141.83203125 C-176.62109375 141.24035156 -176.10546875 140.64867187 -175.57421875 140.0390625 C-167.40598688 131.08378746 -156.17420156 124.49208977 -145.32421875 119.33203125 C-144.34026123 118.86132202 -144.34026123 118.86132202 -143.33642578 118.38110352 C-139.42741069 116.60881636 -135.5206124 115.33498633 -131.37231445 114.22851562 C-130.38955032 113.96502319 -129.40678619 113.70153076 -128.39424133 113.43005371 C-127.64925888 113.2327063 -126.90427643 113.03535889 -126.13671875 112.83203125 C-126.1456012 112.13062515 -126.15448364 111.42921906 -126.16363525 110.70655823 C-126.24460938 104.01608756 -126.30509599 97.32575848 -126.34396744 90.63490391 C-126.36462521 87.19705955 -126.39252866 83.75962822 -126.43847656 80.32202148 C-126.91001777 44.04786369 -126.91001777 44.04786369 -118.44921875 28.45703125 C-118.10673096 27.80331543 -117.76424316 27.14959961 -117.41137695 26.47607422 C-106.76022918 6.86023049 -89.29120211 -5.68496705 -68.4140625 -12.2578125 C-44.97450148 -18.76724959 -19.79300979 -13.68010016 0 0 Z M-83.01171875 34.64453125 C-91.31229679 44.75650642 -93.45116993 56.23425051 -93.33203125 68.890625 C-93.33001709 69.905802 -93.32800293 70.920979 -93.32592773 71.96691895 C-93.31551732 75.73450279 -93.28759497 79.50202188 -93.26171875 83.26953125 C-93.22046875 91.70515625 -93.17921875 100.14078125 -93.13671875 108.83203125 C-62.77671875 108.83203125 -32.41671875 108.83203125 -1.13671875 108.83203125 C-1.05421875 100.49953125 -0.97171875 92.16703125 -0.88671875 83.58203125 C-0.85030273 80.97651367 -0.81388672 78.37099609 -0.77636719 75.68652344 C-0.76466714 73.58399271 -0.75447845 71.48145281 -0.74609375 69.37890625 C-0.71539795 67.7868335 -0.71539795 67.7868335 -0.68408203 66.16259766 C-0.67832973 53.61682417 -4.81077448 41.68331346 -13.39453125 32.38671875 C-24.61171137 21.73215581 -36.45812087 18.16951548 -51.62109375 18.52734375 C-64.32849747 19.16854302 -74.38058699 25.56599741 -83.01171875 34.64453125 Z M-97.38671875 206.45703125 C-109.112564 221.89847356 -112.35287933 240.03270911 -109.84814453 259.01953125 C-107.95288364 269.11402145 -103.11589806 279.17300763 -95.63671875 286.26953125 C-93.74042676 288.40129052 -93.15531066 289.47817091 -93.00366211 292.36450195 C-94.01141685 303.0222195 -95.80265269 313.51739876 -97.62817383 324.05908203 C-98.0447653 326.47718112 -98.45238385 328.89667568 -98.859375 331.31640625 C-98.98748062 332.03850281 -99.11558624 332.76059937 -99.24757385 333.50457764 C-100.49429194 340.95019392 -101.58005823 348.31513334 -97.13671875 354.83203125 C-92.6310536 359.37462809 -89.0325777 360.93640611 -82.62628174 360.98977661 C-81.87973328 360.99089447 -81.13318481 360.99201233 -80.36401367 360.99316406 C-79.17812401 361.00061142 -79.17812401 361.00061142 -77.96827698 361.00820923 C-75.35123831 361.02282106 -72.73426027 361.02963145 -70.1171875 361.03515625 C-68.2973887 361.04090881 -66.47758991 361.04666653 -64.65779114 361.0524292 C-60.8404614 361.0629366 -57.02315271 361.06878088 -53.20581055 361.07226562 C-48.31991409 361.07774775 -43.43429667 361.10177085 -38.54848766 361.13023758 C-34.78834731 361.14888345 -31.02827388 361.15407061 -27.2680912 361.1556015 C-25.46720162 361.15862449 -23.66631312 361.1666411 -21.86546898 361.17978668 C-19.34263408 361.19688695 -16.82047715 361.19495729 -14.29760742 361.18847656 C-13.18689377 361.20229874 -13.18689377 361.20229874 -12.05374146 361.21640015 C-6.6535986 361.17305761 -2.52836569 360.01348594 1.5078125 356.33203125 C6.34353065 350.12161062 6.45454162 345.01001093 5.58764648 337.41815186 C5.2049343 334.86909263 4.77774053 332.33175857 4.33203125 329.79296875 C4.17665894 328.86787506 4.02128662 327.94278137 3.86120605 326.98965454 C3.36881885 324.06089022 2.86702458 321.13386208 2.36328125 318.20703125 C1.86012098 315.27297488 1.35924231 312.33861715 0.86535645 309.40298462 C0.55929937 307.5844763 0.24798253 305.76684265 -0.06945801 303.95028687 C-2.18307845 291.41270229 -2.18307845 291.41270229 0.1484375 287.890625 C0.73496094 287.35566406 1.32148438 286.82070313 1.92578125 286.26953125 C13.21849925 274.44997245 16.37799467 258.81628245 16.28320312 243.02954102 C15.863438 227.19551613 9.42280607 212.6499137 -1.5625 201.1796875 C-9.69852821 193.75972854 -18.68542161 188.37534852 -29.13671875 184.83203125 C-29.83539063 184.58710938 -30.5340625 184.3421875 -31.25390625 184.08984375 C-55.59583757 177.17559867 -81.40167552 187.91561309 -97.38671875 206.45703125 Z " fill="#4781F0" transform="translate(303.13671875,46.16796875)"/>
<path d="M0 0 C8.34180132 4.93254339 14.68265899 11.91762108 17.24609375 21.328125 C18.24499314 32.43216942 17.65857719 42.16551381 10.37109375 51.140625 C8.35793143 53.3372654 6.48466408 54.89546475 4.05859375 56.703125 C0.3547976 60.1600014 -0.74728636 63.41466702 -1.75390625 68.328125 C-1.78763048 71.47924051 -1.31028581 74.43516579 -0.734375 77.52734375 C-0.59695389 78.36602493 -0.45953278 79.20470612 -0.31794739 80.06880188 C0.12055646 82.72165052 0.58825594 85.36825361 1.05859375 88.015625 C1.51221196 90.67439201 1.95965329 93.33408487 2.40299988 95.99458313 C2.6795143 97.64196834 2.96293122 99.28821488 3.25434875 100.93302917 C3.38415634 101.68433609 3.51396393 102.43564301 3.64770508 103.2097168 C3.76334305 103.86207809 3.87898102 104.51443939 3.99812317 105.18656921 C4.31041904 107.88365945 4.24609375 110.61301461 4.24609375 113.328125 C-8.29390625 113.328125 -20.83390625 113.328125 -33.75390625 113.328125 C-32.63534955 98.78688789 -32.63534955 98.78688789 -31.45703125 92.375 C-31.21779499 91.00016584 -30.97954132 89.6251604 -30.7421875 88.25 C-30.37445086 86.15286733 -30.00009468 84.05773382 -29.60888672 81.96484375 C-27.27839478 70.33405828 -27.27839478 70.33405828 -30.75390625 59.328125 C-32.70584212 57.00554106 -32.70584212 57.00554106 -35.06640625 55.390625 C-40.69285846 50.81052769 -45.53203015 44.67252004 -46.75390625 37.328125 C-47.51853486 25.85869578 -46.9400485 17.26695066 -39.50390625 8.078125 C-29.28602665 -2.90554857 -13.8502854 -6.45891799 0 0 Z " fill="#4781F0" transform="translate(270.75390625,262.671875)"/>
</svg>
