<?xml version="1.0" encoding="UTF-8"?>
<svg version="1.1" xmlns="http://www.w3.org/2000/svg" width="512" height="512">
<path d="M0 0 C1.27821233 -0.00507454 2.55642467 -0.01014909 3.87337071 -0.0153774 C5.30005582 -0.0159791 6.72674099 -0.01647817 8.15342617 -0.01688576 C9.6626913 -0.02089998 11.17195534 -0.02533813 12.68121809 -0.03016531 C16.83951072 -0.04214139 20.99779174 -0.04778167 25.15609825 -0.05234647 C29.63685899 -0.05829871 34.11760583 -0.06990957 38.5983572 -0.08063698 C49.42557204 -0.10517063 60.25279149 -0.11979005 71.08002558 -0.13269705 C74.13778131 -0.13640844 77.19553658 -0.14038172 80.25329185 -0.14444971 C99.23821037 -0.16968695 118.22312961 -0.19174188 137.20806122 -0.20417786 C141.60655183 -0.2071076 146.00504242 -0.21006925 150.40353298 -0.21308327 C151.49676899 -0.21382932 152.59000501 -0.21457537 153.71636938 -0.21534403 C171.42452136 -0.22799652 189.1325729 -0.26121748 206.84067792 -0.3028851 C225.01820134 -0.34530685 243.19567334 -0.36887322 261.37324613 -0.37409842 C271.58046802 -0.37751238 281.78753298 -0.3892658 291.99470615 -0.42220116 C300.68820453 -0.45020619 309.38151384 -0.46119902 318.07505382 -0.4500057 C322.50977318 -0.44482011 326.94409662 -0.4476992 331.37875843 -0.47247124 C335.44229655 -0.49498038 339.50515473 -0.49421132 343.5687049 -0.47526737 C345.03514541 -0.47246965 346.5016322 -0.47805331 347.96799839 -0.4930803 C356.70979493 -0.57715362 363.60307877 0.05435887 370.92721462 5.13701439 C373.18112087 7.48857689 373.18112087 7.48857689 374.48971462 9.76201439 C374.94475368 10.51740501 375.39979275 11.27279564 375.86862087 12.05107689 C377.68191199 15.62413023 378.04100073 18.37548388 377.98971462 22.32451439 C377.98069118 23.22556908 377.97166775 24.12662376 377.96237087 25.05498314 C377.94496853 26.08558861 377.94496853 26.08558861 377.92721462 27.13701439 C378.533074 27.07900658 379.13893337 27.02099876 379.76315212 26.96123314 C386.83314084 26.58054144 392.20083594 27.84962243 397.92721462 32.13701439 C402.49462202 37.42705419 405.08124521 42.27665919 404.98971462 49.32451439 C404.98069118 50.22556908 404.97166775 51.12662376 404.96237087 52.05498314 C404.94496853 53.08558861 404.94496853 53.08558861 404.92721462 54.13701439 C405.533074 54.07900658 406.13893337 54.02099876 406.76315212 53.96123314 C413.83314084 53.58054144 419.20083594 54.84962243 424.92721462 59.13701439 C430.29063968 65.3490138 432.07967891 70.62762927 432.04746914 78.74887657 C432.04875078 79.92265923 432.04875078 79.92265923 432.05005831 81.12015468 C432.0517095 83.75039074 432.0461976 86.38056347 432.04074001 89.01079369 C432.04045804 90.89298565 432.04061608 92.77517772 432.04118252 94.65736961 C432.04147009 99.77480694 432.03557985 104.89222096 432.02860856 110.00965285 C432.02236833 115.35482462 432.02177069 120.69999689 432.02058315 126.04517174 C432.01747182 136.17050205 432.00926108 146.2958216 431.99923366 156.42114717 C431.98806641 167.94699358 431.98256053 179.47284049 431.97753823 190.99869096 C431.96707831 214.71147141 431.94948268 238.4242423 431.92721462 262.13701439 C432.67124538 262.11888695 433.41527615 262.10075951 434.18185329 262.08208275 C435.16387722 262.06798363 436.14590115 262.05388451 437.15768337 262.03935814 C438.61404202 262.01216698 438.61404202 262.01216698 440.09982204 261.9844265 C446.18199931 262.31266765 450.29794163 265.15534082 454.30221462 269.57451439 C458.56257511 274.70360761 459.22245836 279.64476424 459.20136929 286.1633358 C459.20660596 286.96642321 459.21184264 287.76951063 459.21723801 288.59693402 C459.23222761 291.28523075 459.23294293 293.97333696 459.23361111 296.66167259 C459.24123328 298.59029524 459.24966088 300.51891485 459.25883389 302.44753075 C459.28077981 307.68521395 459.28957791 312.92283877 459.29466033 318.16056275 C459.29830374 321.43363147 459.30454372 324.70668489 459.31166172 327.97974777 C459.33615639 339.40058502 459.34920819 350.82137683 459.35275173 362.242239 C459.35638717 372.88448719 459.38628322 383.52644701 459.42815632 394.16860706 C459.46285646 403.30847007 459.47830013 412.4482375 459.47899777 421.58816594 C459.47979066 427.04569906 459.48853528 432.50293843 459.51699543 437.96040344 C459.54317119 443.0946145 459.54538383 448.22828814 459.52933979 453.36253548 C459.52752493 455.2442708 459.53421933 457.126037 459.5501585 459.00770569 C459.57063386 461.58235134 459.56005988 464.15511915 459.54194546 466.72974205 C459.55514543 467.46954553 459.56834539 468.20934902 459.58194536 468.97157079 C459.47472277 475.67091102 456.56485318 480.54849387 451.82955837 485.19560814 C451.18115993 485.6506472 450.5327615 486.10568626 449.86471462 486.57451439 C449.21373806 487.04760033 448.5627615 487.52068626 447.89205837 488.00810814 C443.49296733 490.5356177 438.94194983 490.28005885 433.98947334 490.26844215 C433.17991252 490.27049479 432.3703517 490.27254742 431.53625873 490.27466226 C428.80634801 490.28034517 426.07648753 490.27887342 423.34657192 490.27745628 C421.37645338 490.28003917 419.40633537 490.28305212 417.43621808 490.28645968 C412.00881488 490.29454178 406.58142489 490.29631993 401.15401638 490.29705715 C395.30590545 490.29890558 389.45780143 490.30645181 383.60969448 490.31319237 C370.14923119 490.32749325 356.68877043 490.33330311 343.22830086 490.33788431 C335.91129203 490.34045395 328.59428413 490.34457735 321.27727604 490.3487072 C299.18184874 490.3609557 277.08642222 490.37123541 254.99099159 490.37458229 C253.56208577 490.37480392 252.13317996 490.37502571 250.70427414 490.37524764 C249.27190593 490.37546828 247.83953773 490.37568877 246.40716952 490.37590909 C243.53356151 490.37635164 240.65995349 490.37679876 237.78634548 490.37724876 C236.71761356 490.37741285 236.71761356 490.37741285 235.62729109 490.37758025 C212.51907238 490.38121178 189.41088502 490.39713568 166.30267832 490.42043913 C141.87541893 490.44502777 117.44817745 490.45875466 93.02090532 490.45995021 C79.70349206 490.46080196 66.38611596 490.46664529 53.0687151 490.48476982 C41.73063205 490.50014596 30.39260275 490.50530596 19.05451127 490.49703172 C13.26738929 490.49311653 7.48037563 490.49409718 1.69326687 490.50808907 C-3.60229694 490.52077571 -8.89767046 490.51967667 -14.19323381 490.50749835 C-16.11112831 490.50553226 -18.02903605 490.50866161 -19.94691191 490.51734272 C-22.55068043 490.52838425 -25.15377129 490.52098311 -27.75752068 490.50895119 C-28.50486531 490.51654638 -29.25220995 490.52414157 -30.02220139 490.53196692 C-36.5467688 490.46672769 -41.84441885 488.62724546 -46.82278538 484.32451439 C-47.37450413 483.86431908 -47.92622288 483.40412376 -48.49466038 482.92998314 C-53.60529877 477.12358952 -53.50453336 471.36730851 -53.46719456 464.02925682 C-53.47328566 462.9067979 -53.47937676 461.78433898 -53.48565245 460.62786615 C-53.50230844 456.86469959 -53.49750276 453.10187043 -53.49270725 449.33867455 C-53.50004606 446.64143269 -53.50853889 443.94421615 -53.51837254 441.24698448 C-53.53941559 434.67978663 -53.54396804 428.11267709 -53.54218465 421.54544951 C-53.54087646 416.20669118 -53.54468409 410.86796038 -53.55210972 405.52920723 C-53.55420894 403.99073263 -53.55630654 402.45225803 -53.55840254 400.91378343 C-53.55944607 400.14801372 -53.56048959 399.38224401 -53.56156474 398.59326915 C-53.58046258 384.11403726 -53.57941832 369.63485604 -53.57259542 355.15561692 C-53.56702028 341.91464388 -53.58784488 328.67386433 -53.62095588 315.4329365 C-53.65470309 301.831862 -53.66985994 288.23088016 -53.66523886 274.62976301 C-53.6629952 266.99588448 -53.66822201 259.36218479 -53.69313145 251.72834206 C-53.71415794 245.22922409 -53.7177234 238.73038303 -53.69883186 232.23125364 C-53.68968197 228.91667036 -53.69122491 225.6027096 -53.70918751 222.28814697 C-53.72733542 218.69120568 -53.71466145 215.09563869 -53.69424534 211.49873924 C-53.70676319 210.45612391 -53.71928103 209.41350858 -53.73217821 208.33929884 C-53.64154945 200.89143291 -51.81148681 195.98573647 -46.59474421 190.61547816 C-41.23931358 185.85294373 -36.8067476 184.88030481 -29.76028538 185.01201439 C-28.50602757 185.03006126 -27.25176975 185.04810814 -25.95950413 185.06670189 C-25.00688694 185.08990501 -24.05426975 185.11310814 -23.07278538 185.13701439 C-23.07739434 184.28040529 -23.08200331 183.4237962 -23.08675194 182.54122925 C-23.19728991 161.67477848 -23.27997056 140.80837835 -23.33184624 119.94169617 C-23.35760131 109.85060787 -23.39270025 99.75971531 -23.44998264 89.66875267 C-23.49990021 80.87097901 -23.53209599 72.07334715 -23.54322785 63.27543581 C-23.54973248 58.61918858 -23.56496375 53.96334693 -23.60143566 49.30723 C-23.63552731 44.9191811 -23.64581195 40.53170247 -23.63832378 36.14353371 C-23.63969247 34.53837033 -23.6495465 32.93318668 -23.66881275 31.32813835 C-23.77127872 22.3466628 -23.46950143 14.69534274 -18.07278538 7.13701439 C-15.72122288 4.88310814 -15.72122288 4.88310814 -13.44778538 3.57451439 C-12.69239475 3.11947533 -11.93700413 2.66443626 -11.15872288 2.19560814 C-7.29608518 0.23535568 -4.27712887 0.00899438 0 0 Z " fill="#F6F6F6" transform="translate(53.07278537750244,10.862985610961914)"/>
<path d="M0 0 C1.25743515 -0.00708481 2.5148703 -0.01416962 3.81040955 -0.02146912 C5.1963352 -0.01917547 6.58226051 -0.0166658 7.96818542 -0.01396179 C9.43375915 -0.01831101 10.8993306 -0.02349486 12.36489868 -0.02944946 C16.34024525 -0.04283021 20.31549668 -0.04341902 24.29086137 -0.04088616 C27.61324981 -0.03981552 30.93561908 -0.04470236 34.25800341 -0.04949158 C42.09956308 -0.06058423 49.94107484 -0.06102597 57.78263855 -0.05497742 C65.86184526 -0.04894114 73.94087767 -0.06124035 82.02005464 -0.08254749 C88.96460795 -0.10018629 95.90910591 -0.10616113 102.85368079 -0.10290974 C106.99769466 -0.10109989 111.14158426 -0.10370292 115.28557777 -0.11762428 C119.1852665 -0.13023466 123.08468453 -0.12822838 126.98436928 -0.11521339 C128.41135247 -0.11285478 129.83835489 -0.11555657 131.26531601 -0.12383652 C148.20330042 -0.21499063 148.20330042 -0.21499063 154.57048035 6.01069641 C156.846592 9.39234801 158.2068345 12.50950129 159.75798035 16.26069641 C161.67691353 16.26616486 161.67691353 16.26616486 163.63461304 16.27174377 C175.68573122 16.30867141 187.73659334 16.36641986 199.78751659 16.44459915 C205.98316705 16.48412247 212.17867433 16.51628727 218.37443542 16.5316925 C224.35276224 16.54682689 230.33069557 16.58121572 236.30884743 16.62900543 C238.59058018 16.64385238 240.87236911 16.65173932 243.15415001 16.65258026 C246.34828611 16.65494162 249.54132746 16.68195561 252.73527527 16.71479797 C253.68042496 16.70976761 254.62557465 16.70473724 255.59936523 16.69955444 C259.84950467 16.7672468 262.14009788 16.87034147 265.80383301 19.18495178 C269.89708885 23.53291146 270.12226273 27.29459744 270.13298035 33.13569641 C270.15747253 33.8305011 270.18196472 34.52530579 270.2071991 35.24116516 C270.23639159 40.40823623 269.0890226 43.34526077 265.75798035 47.26069641 C261.98274205 49.9531183 257.76116345 49.52773055 253.31755066 49.48774719 C252.04383354 49.48818527 252.04383354 49.48818527 250.74438477 49.4886322 C247.94152052 49.48724039 245.13892308 49.47168617 242.33610535 49.45600891 C240.39126226 49.45227825 238.44641729 49.44943153 236.50157166 49.44743347 C231.38547059 49.43980118 226.26948328 49.42015611 221.15342712 49.39802551 C215.93178343 49.37755841 210.71012135 49.3684299 205.4884491 49.35835266 C195.24490957 49.33690989 185.00145442 49.30277876 174.75798035 49.26069641 C176.29849227 52.8538788 177.86910959 56.43311739 179.44548035 60.01069641 C179.88053894 61.02647766 180.31559753 62.04225891 180.76383972 63.08882141 C183.87466734 70.28008579 183.87466734 70.28008579 189.75798035 75.26069641 C193.04058304 76.35489731 195.44176055 76.38539737 198.89788818 76.38526917 C200.82606636 76.38911369 200.82606636 76.38911369 202.79319763 76.39303589 C204.22099312 76.39096587 205.64878853 76.38884311 207.07658386 76.38667297 C208.57802381 76.38806776 210.07946337 76.38996709 211.5809021 76.39233398 C214.81716795 76.39683282 218.05342112 76.39868711 221.28969002 76.39879608 C226.41326227 76.39993673 231.53676251 76.41277868 236.66030884 76.42835999 C237.52533903 76.43093284 238.39036923 76.43350569 239.28161246 76.43615651 C241.05074125 76.4414233 242.81986999 76.44670878 244.58899868 76.45201254 C256.51683751 76.48709875 268.44458757 76.51367848 280.3724823 76.51118469 C288.4177732 76.50959307 296.46281894 76.52570476 304.50803131 76.56189132 C308.76288134 76.58030739 313.01732232 76.58973278 317.27220345 76.57741547 C321.28039838 76.56592545 325.28786315 76.57780567 329.29596138 76.60704994 C330.76078983 76.61365629 332.22568585 76.61188275 333.69048691 76.60075188 C342.34636058 76.54047579 349.59429779 77.0035217 356.75798035 82.26069641 C362.65291546 88.50280536 363.91330671 93.24719881 363.87823486 101.72706604 C363.8795165 102.85925304 363.8795165 102.85925304 363.88082403 104.01431251 C363.88247178 106.54470677 363.87696897 109.07503481 363.87150574 111.60542297 C363.87122369 113.41879779 363.87138195 115.23217273 363.87194824 117.04554749 C363.87223552 121.97078336 363.86634994 126.89599495 363.85937428 131.82122517 C363.85312926 136.96753123 363.85253604 142.11383783 363.85134888 147.26014709 C363.84823896 157.00649346 363.84003013 166.75282863 363.82999939 176.49917006 C363.81882773 187.5945762 363.81332514 198.68998288 363.80830395 209.78539324 C363.79784725 232.61050051 363.78025435 255.43559783 363.75798035 278.26069641 C374.03346428 278.22255927 384.30858612 278.16308109 394.58378506 278.07679367 C399.3556494 278.03738251 404.12733096 278.00516293 408.89933777 277.98970032 C413.50964246 277.9744917 418.11944444 277.93997199 422.72952461 277.89238739 C424.48321715 277.87761682 426.23698147 277.86965789 427.99073601 277.86881256 C442.87732345 277.87160509 442.87732345 277.87160509 455.63298035 270.82319641 C459.83335478 265.75803901 461.20162365 262.16889254 461.15670776 255.59814453 C461.16335459 254.83433167 461.17000142 254.0705188 461.17684966 253.2835601 C461.19547692 250.72852086 461.1928746 248.17395003 461.19035339 245.61885071 C461.19937073 243.78561746 461.20969788 241.95239025 461.22123718 240.11917114 C461.24883663 235.14440339 461.25809572 230.16974994 461.26409125 225.19491553 C461.27346723 219.99518276 461.29967 214.79553564 461.32409668 209.59585571 C461.3677867 199.75040028 461.39631832 189.90496144 461.41942006 180.05943853 C461.44645829 168.85029678 461.49037067 157.64124108 461.53570879 146.43216074 C461.62859093 123.3750526 461.70025535 100.31791747 461.75798035 77.26069641 C463.66664056 77.21826917 465.57557554 77.1880941 467.48454285 77.16304016 C468.54753601 77.14491272 469.61052917 77.12678528 470.70573425 77.10810852 C476.95400088 77.42047187 481.00988261 80.15882438 485.13298035 84.69819641 C489.39334084 89.82728963 490.05322408 94.76844627 490.03213501 101.28701782 C490.03737169 102.09010523 490.04260837 102.89319265 490.04800373 103.72061604 C490.06299333 106.40891277 490.06370865 109.09701898 490.06437683 111.78535461 C490.07199901 113.71397726 490.0804266 115.64259687 490.08959961 117.57121277 C490.11154554 122.80889597 490.12034363 128.04652079 490.12542605 133.28424478 C490.12906946 136.55731349 490.13530944 139.83036691 490.14242744 143.10342979 C490.16692211 154.52426704 490.17997391 165.94505886 490.18351746 177.36592102 C490.18715289 188.00816921 490.21704894 198.65012903 490.25892204 209.29228908 C490.29362218 218.43215209 490.30906585 227.57191952 490.30976349 236.71184796 C490.31055638 242.16938109 490.31930101 247.62662045 490.34776115 253.08408546 C490.37393692 258.21829653 490.37614956 263.35197017 490.36010551 268.4862175 C490.35829066 270.36795282 490.36498506 272.24971902 490.38092422 274.13138771 C490.40139958 276.70603336 490.39082561 279.27880117 490.37271118 281.85342407 C490.38591115 282.59322756 490.39911112 283.33303104 490.41271108 284.09525281 C490.30548849 290.79459305 487.3956189 295.67217589 482.6603241 300.31929016 C482.01192566 300.77432922 481.36352722 301.22936829 480.69548035 301.69819641 C480.04450378 302.17128235 479.39352722 302.64436829 478.7228241 303.13179016 C474.32373306 305.65929972 469.77271556 305.40374087 464.82023907 305.39212418 C464.01067824 305.39417681 463.20111742 305.39622944 462.36702445 305.39834428 C459.63711373 305.4040272 456.90725326 305.40255544 454.17733765 305.40113831 C452.20721911 305.40372119 450.23710109 305.40673414 448.26698381 305.41014171 C442.8395806 305.4182238 437.41219061 305.42000195 431.9847821 305.42073917 C426.13667118 305.42258761 420.28856715 305.43013383 414.44046021 305.43687439 C400.97999691 305.45117527 387.51953615 305.45698513 374.05906658 305.46156633 C366.74205775 305.46413597 359.42504986 305.46825937 352.10804176 305.47238922 C330.01261446 305.48463772 307.91718794 305.49491743 285.82175732 305.49826431 C284.3928515 305.49848595 282.96394568 305.49870773 281.53503986 305.49892966 C280.10267166 305.49915031 278.67030345 305.49937079 277.23793525 305.49959111 C274.36432723 305.50003367 271.49071922 305.50048078 268.61711121 305.50093079 C267.54837928 305.50109487 267.54837928 305.50109487 266.45805682 305.50126227 C243.34983811 305.5048938 220.24165075 305.52081771 197.13344405 305.54412115 C172.70618465 305.5687098 148.27894318 305.58243668 123.85167104 305.58363223 C110.53425778 305.58448399 97.21688168 305.59032731 83.89948082 305.60845184 C72.56139778 305.62382798 61.22336848 305.62898798 49.885277 305.62071374 C44.09815501 305.61679855 38.31114135 305.6177792 32.52403259 305.63177109 C27.22846878 305.64445773 21.93309527 305.64335869 16.63753191 305.63118038 C14.71963741 305.62921428 12.80172968 305.63234363 10.88385382 305.64102474 C8.28008529 305.65206627 5.67699443 305.64466513 3.07324505 305.63263321 C2.32590041 305.6402284 1.57855578 305.6478236 0.80856434 305.65564895 C-5.71600307 305.59040971 -11.01365313 303.75092748 -15.99201965 299.44819641 C-16.5437384 298.9880011 -17.09545715 298.52780579 -17.66389465 298.05366516 C-22.77453305 292.24727154 -22.67376764 286.49099053 -22.63642883 279.15293884 C-22.64251994 278.03047992 -22.64861104 276.908021 -22.65488672 275.75154817 C-22.67154272 271.98838161 -22.66673703 268.22555246 -22.66194153 264.46235657 C-22.66928034 261.76511471 -22.67777317 259.06789817 -22.68760681 256.3706665 C-22.70864987 249.80346866 -22.71320231 243.23635911 -22.71141893 236.66913153 C-22.71011073 231.33037321 -22.71391837 225.9916424 -22.72134399 220.65288925 C-22.72344322 219.11441465 -22.72554082 217.57594005 -22.72763681 216.03746545 C-22.72868034 215.27169574 -22.72972387 214.50592603 -22.73079902 213.71695118 C-22.74969685 199.23771928 -22.7486526 184.75853806 -22.74182969 170.27929895 C-22.73625455 157.0383259 -22.75707915 143.79754635 -22.79019016 130.55661853 C-22.82393736 116.95554402 -22.83909422 103.35456218 -22.83447313 89.75344503 C-22.83222948 82.1195665 -22.83745628 74.48586681 -22.86236572 66.85202408 C-22.88339222 60.35290611 -22.88695767 53.85406505 -22.86806613 47.35493566 C-22.85891625 44.04035238 -22.86045918 40.72639162 -22.87842178 37.41182899 C-22.89656969 33.8148877 -22.88389573 30.21932071 -22.86347961 26.62242126 C-22.87599746 25.57980593 -22.88851531 24.5371906 -22.90141249 23.46298087 C-22.81078372 16.01511494 -20.98072109 11.10941849 -15.76397848 5.73916018 C-10.82508849 1.34705144 -6.50903427 0.01224596 0 0 Z " fill="#9694FE" transform="translate(22.242019653320313,195.7393035888672)"/>
<path d="M0 0 C1.60508688 -0.02105151 3.21025335 -0.03609426 4.81542969 -0.04858398 C6.15622589 -0.06211159 6.15622589 -0.06211159 7.52410889 -0.07591248 C12.42737556 0.07442496 16.13395525 2.10545703 20 5 C24.56740739 10.2900398 27.15403059 15.1396448 27.0625 22.1875 C27.05347656 23.08855469 27.04445313 23.98960938 27.03515625 24.91796875 C27.02355469 25.60503906 27.01195312 26.29210937 27 27 C27.60585938 26.94199219 28.21171875 26.88398437 28.8359375 26.82421875 C35.90592622 26.44352705 41.27362132 27.71260804 47 32 C51.98822963 37.77744243 54.12451271 42.73066198 54.12698364 50.36024475 C54.12854611 51.01130009 54.13010858 51.66235543 54.1317184 52.33313972 C54.13572914 54.52948899 54.13254384 56.72576928 54.12939453 58.92211914 C54.13071425 60.50625968 54.13245571 62.09039991 54.13458443 63.67453957 C54.13909447 68.03765713 54.13718765 72.40075201 54.1341486 76.76387 C54.13234739 80.49987086 54.13423791 84.23586615 54.13616323 87.97186667 C54.14243996 100.26516658 54.13657278 112.55844773 54.12738323 124.85174465 C54.12500945 128.04976582 54.12283561 131.24778707 54.12070465 134.44580841 C54.10332513 159.95267873 54.07161758 185.459513 54.03174138 210.96635723 C54.00540534 228.02526961 53.99522581 245.08413519 53.99414062 262.14306641 C53.99270624 281.6936073 53.96872958 301.24398357 53.91650963 320.79445744 C53.88949143 331.10123334 53.87225308 341.40781647 53.88043213 351.71463013 C53.88731723 360.48190199 53.87388682 369.248843 53.83376455 378.01603109 C53.81392999 382.48314243 53.8037003 386.94972495 53.81954193 391.4168644 C53.83380154 395.50500791 53.82033694 399.59209964 53.78503966 403.680107 C53.7771273 405.15581669 53.77925391 406.63162278 53.79261041 408.10729325 C53.86626452 416.97653712 53.25001026 423.35848464 47 430 C39.36811063 436.20091012 32.03391295 436.27996275 22.6015625 436.1953125 C21.41146576 436.1924826 20.22136902 436.18965271 18.99520874 436.18673706 C15.20503563 436.17556817 11.41510134 436.15046917 7.625 436.125 C5.05078467 436.11496597 2.47656562 436.10584085 -0.09765625 436.09765625 C-6.39851858 436.07563957 -12.69924222 436.0421945 -19 436 C-16.63460967 434.42307312 -14.68936925 433.415079 -12.125 432.3125 C-6.74571872 429.65252452 -4.11089755 425.83433298 -1.95336878 420.3296355 C-0.89895418 416.64709799 -0.74518521 413.57779128 -0.73828697 409.74926949 C-0.73229288 408.68280715 -0.73229288 408.68280715 -0.72617769 407.59480011 C-0.71520839 405.2123094 -0.71840398 402.83005112 -0.7215271 400.44754028 C-0.71652396 398.72231753 -0.71064811 396.99709713 -0.70397437 395.27188003 C-0.68816259 390.53096785 -0.68474303 385.79011492 -0.68332577 381.04917955 C-0.67963379 375.93674562 -0.66447931 370.82434426 -0.65071106 365.71192932 C-0.62842808 356.85426296 -0.61342103 347.99660817 -0.60334396 339.13891983 C-0.58876369 326.33216402 -0.56322868 313.52544853 -0.53501268 300.71871637 C-0.48953284 279.94106898 -0.45292295 259.16341579 -0.421875 238.38574219 C-0.39169434 218.20116151 -0.35734629 198.01659503 -0.31738281 177.83203125 C-0.31492126 176.58803043 -0.31245972 175.34402962 -0.30992357 174.06233181 C-0.29754907 167.82159777 -0.28509252 161.58086389 -0.27259517 155.34013009 C-0.16900953 103.56010654 -0.07981215 51.78006528 0 0 Z " fill="#E2E2E2" transform="translate(431,38)"/>
<path d="M0 0 C6.05175653 0.09523508 10.71248656 1.7437507 15.5625 5.375 C20.55072963 11.15244243 22.68701271 16.10566198 22.68948364 23.73524475 C22.69182735 24.71182776 22.69182735 24.71182776 22.6942184 25.70813972 C22.69822914 27.90448899 22.69504384 30.10076928 22.69189453 32.29711914 C22.69321425 33.88125968 22.69495571 35.46539991 22.69708443 37.04953957 C22.70159447 41.41265713 22.69968765 45.77575201 22.6966486 50.13887 C22.69484739 53.87487086 22.69673791 57.61086615 22.69866323 61.34686667 C22.70493996 73.64016658 22.69907278 85.93344773 22.68988323 98.22674465 C22.68750945 101.42476582 22.68533561 104.62278707 22.68320465 107.82080841 C22.66582513 133.32767873 22.63411758 158.834513 22.59424138 184.34135723 C22.56790534 201.40026961 22.55772581 218.45913519 22.55664062 235.51806641 C22.55520624 255.0686073 22.53122958 274.61898357 22.47900963 294.16945744 C22.45199143 304.47623334 22.43475308 314.78281647 22.44293213 325.08963013 C22.44981723 333.85690199 22.43638682 342.623843 22.39626455 351.39103109 C22.37642999 355.85814243 22.3662003 360.32472495 22.38204193 364.7918644 C22.39630154 368.88000791 22.38283694 372.96709964 22.34753966 377.055107 C22.3396273 378.53081669 22.34175391 380.00662278 22.35511041 381.48229325 C22.42876452 390.35153712 21.81251026 396.73348464 15.5625 403.375 C9.7859386 408.06845614 4.22541953 409.63796256 -3.1484375 409.5703125 C-4.39238281 409.56386719 -5.63632812 409.55742187 -6.91796875 409.55078125 C-8.20316406 409.53402344 -9.48835938 409.51726562 -10.8125 409.5 C-12.12089844 409.49097656 -13.42929687 409.48195313 -14.77734375 409.47265625 C-17.9975837 409.44915085 -21.21744707 409.41629087 -24.4375 409.375 C-22.47754284 408.38127269 -20.55566329 407.42116501 -18.5078125 406.62109375 C-12.41578981 404.08886745 -9.03422078 400.43951236 -6.4375 394.375 C-5.57690372 389.03986565 -5.63176231 383.76433998 -5.68473816 378.37963867 C-5.67870142 376.75152585 -5.67003152 375.12342104 -5.65896684 373.49533463 C-5.63622243 369.03651356 -5.65063137 364.57847632 -5.67122233 360.11967349 C-5.68688576 355.30581632 -5.66787568 350.49208039 -5.65307617 345.67823792 C-5.63213382 337.34275015 -5.63294146 329.00749349 -5.648489 320.67199707 C-5.67085102 308.61928237 -5.65917898 296.56678733 -5.63905505 284.51407743 C-5.60723097 264.95711749 -5.60136653 245.40024112 -5.61254883 225.84326172 C-5.62333968 206.85008154 -5.62438635 187.85694874 -5.6105957 168.86376953 C-5.60975045 167.69281018 -5.6089052 166.52185084 -5.60803434 165.31540787 C-5.59943396 153.67852605 -5.58922063 142.04164581 -5.57835948 130.4047659 C-5.57414059 125.88435043 -5.56999386 121.3639349 -5.56588342 116.84351933 C-5.56384704 114.61364652 -5.56177988 112.38377373 -5.55968145 110.15390098 C-5.54649313 95.94338824 -5.54214695 81.73290914 -5.54738748 67.52239132 C-5.54995435 60.364312 -5.54932806 53.20623416 -5.5477524 46.04815465 C-5.54677036 40.37520527 -5.55000366 34.70227941 -5.55646725 29.02933389 C-5.55935284 25.60103854 -5.55816536 22.17275412 -5.55574302 18.74445879 C-5.55547912 17.16531195 -5.5569545 15.58616375 -5.56026533 14.00702035 C-5.56452857 11.87482799 -5.56276999 9.74272652 -5.55940533 7.61053467 C-5.55999972 6.42195232 -5.56059411 5.23336998 -5.56120652 4.00876999 C-5.361545 -0.24211767 -3.8820881 0.15746379 0 0 Z " fill="#D1D1D1" transform="translate(462.4375,64.625)"/>
<path d="M0 0 C1.0248989 -0.00644889 2.04979781 -0.01289778 3.10575426 -0.0195421 C4.23005802 -0.01644489 5.35436179 -0.01334769 6.51273537 -0.01015663 C7.70840051 -0.01468774 8.90406566 -0.01921886 10.13596308 -0.02388728 C13.45607481 -0.03437014 16.7759702 -0.03585499 20.09608316 -0.03349853 C23.67627234 -0.03309076 27.25642907 -0.04412564 30.83660316 -0.05361366 C37.85123756 -0.07023313 44.86583834 -0.07572363 51.88049076 -0.07683842 C57.58162698 -0.07778841 63.2827521 -0.08189628 68.98388481 -0.08823967 C85.1437597 -0.10585441 101.303608 -0.11507814 117.46349256 -0.11357872 C118.33484431 -0.11349881 119.20619606 -0.1134189 120.10395241 -0.11333656 C121.4125738 -0.11321392 121.4125738 -0.11321392 122.74763198 -0.1130888 C136.88889667 -0.11227576 151.03005489 -0.13141734 165.17128877 -0.1596133 C179.68759128 -0.18832898 194.20384184 -0.20215433 208.72017348 -0.20042574 C216.87154614 -0.1997614 225.02280718 -0.20527302 233.17415428 -0.22678185 C240.11397654 -0.24497633 247.05363656 -0.2493553 253.99347232 -0.235763 C257.53452297 -0.22922458 261.07526222 -0.22914718 264.61628342 -0.2464695 C268.45455229 -0.26505289 272.2923644 -0.25266845 276.13065529 -0.23720741 C277.25049761 -0.24749454 278.37033993 -0.25778167 279.52411687 -0.26838052 C285.6409045 -0.21376551 289.30330294 0.14039878 293.94867897 4.25726891 C296.63650802 7.75300034 296.31589643 11.89078353 296.32367897 16.13226891 C296.34817116 16.82707359 296.37266335 17.52187828 296.39789772 18.23773766 C296.42709021 23.40480873 295.27972123 26.34183327 291.94867897 30.25726891 C288.86580328 32.19854116 286.49079515 32.50881309 282.87894726 32.51453781 C281.33544876 32.52421115 281.33544876 32.52421115 279.76076847 32.53407991 C278.06745322 32.5294341 278.06745322 32.5294341 276.33992958 32.52469444 C275.13947532 32.52922556 273.93902105 32.53375667 272.70218939 32.53842509 C269.36874576 32.54890808 266.0355176 32.55039278 262.70207274 32.54803634 C259.10758769 32.54762858 255.51313496 32.55866331 251.91866493 32.56815147 C244.87629209 32.58477063 237.83395272 32.59026141 230.79156191 32.59137623 C225.06848729 32.59232616 219.34542372 32.59643371 213.6223526 32.60277748 C197.40207455 32.6203915 181.18182297 32.62961597 164.96153528 32.62811653 C164.08693381 32.62803662 163.21233234 32.62795671 162.3112278 32.62787437 C161.43556061 32.62779261 160.55989343 32.62771085 159.65769088 32.62762661 C145.46078534 32.62681341 131.26398582 32.64595923 117.06711096 32.67415111 C102.4954427 32.70285935 87.92382619 32.71669258 73.35212892 32.71496356 C65.16893025 32.71429899 56.98584276 32.71982026 48.80266953 32.74131966 C41.83646845 32.75950429 34.87042895 32.7639012 27.90421445 32.75030081 C24.34911129 32.74375761 20.79431837 32.74370215 17.23924446 32.76100731 C13.38748885 32.77956409 9.53618949 32.7672189 5.684412 32.75174522 C4.55776589 32.76203235 3.43111978 32.77231948 2.27033287 32.78291833 C-5.29936482 32.71542848 -5.29936482 32.71542848 -9.20423794 30.33622742 C-13.13421595 25.91289569 -13.41565263 22.19654827 -13.42632103 16.38226891 C-13.45081322 15.68746422 -13.4753054 14.99265953 -13.50053978 14.27680016 C-13.52973227 9.10972908 -12.38236329 6.17270454 -9.05132103 2.25726891 C-5.97366449 0.32050606 -3.60529076 0.00573744 0 0 Z " fill="#AABCED" transform="translate(89.05132102966309,134.74273109436035)"/>
<path d="M0 0 C1.19243602 -0.00467997 2.38487204 -0.00935994 3.61344248 -0.01418173 C6.92000227 -0.0240789 10.22605102 -0.02051505 13.53257978 -0.01122308 C17.09980173 -0.00443875 20.66697884 -0.01491079 24.23419189 -0.02316284 C31.22130935 -0.03650939 38.20833018 -0.03361823 45.19545143 -0.02492492 C50.87416037 -0.01815186 56.55284221 -0.01723002 62.23155403 -0.02049637 C63.03954973 -0.02095607 63.84754542 -0.02141577 64.68002583 -0.0218894 C66.32142779 -0.02284857 67.96282973 -0.02382121 69.60423166 -0.02480717 C84.9995163 -0.0333639 100.39474736 -0.02352278 115.79002322 -0.00740607 C128.99998067 0.00599483 142.20985904 0.00367146 155.41981506 -0.01016235 C170.75817354 -0.02621755 186.09648504 -0.03253722 201.43485075 -0.02332556 C203.07054586 -0.02236991 204.70624098 -0.0214268 206.34193611 -0.02049637 C207.54913759 -0.01980213 207.54913759 -0.01980213 208.78072698 -0.01909386 C214.45212594 -0.0165036 220.1234951 -0.0208758 225.79488945 -0.02793503 C232.70722751 -0.03634967 239.61946336 -0.03407079 246.53178971 -0.0180928 C250.05861405 -0.01020916 253.585268 -0.00711992 257.11209106 -0.01704025 C260.93493112 -0.02763056 264.75749226 -0.01498392 268.58032227 0 C270.25322615 -0.01003825 270.25322615 -0.01003825 271.95992607 -0.02027929 C277.48956082 0.02188355 281.62040783 0.17230022 286.35365295 3.38095093 C289.70533846 7.35620583 289.84231167 11.30954752 289.79115295 16.31845093 C289.81113342 17.0087439 289.83111389 17.69903687 289.85169983 18.4102478 C289.84683241 23.54537628 288.59288643 26.45052477 285.35365295 30.38095093 C282.08702137 32.55870532 281.17129157 32.63225163 277.3913517 32.63821983 C275.84561468 32.64789317 275.84561468 32.64789317 274.26865065 32.65776193 C273.13297003 32.65466473 271.9972894 32.65156752 270.82719421 32.64837646 C269.62351082 32.65290758 268.41982743 32.65743869 267.17966878 32.66210711 C263.83256464 32.67260161 260.48567483 32.67407284 257.13856936 32.67171836 C253.53111503 32.67131102 249.92369302 32.68234144 246.31625366 32.6918335 C239.24633816 32.70846235 232.176456 32.71394389 225.10652258 32.71505825 C219.36101749 32.71600783 213.61552342 32.72011361 207.87002182 32.7264595 C191.58849811 32.74407703 175.30700078 32.75329757 159.02546747 32.75179856 C157.70823667 32.75167869 157.70823667 32.75167869 156.36439514 32.7515564 C155.04556019 32.75143375 155.04556019 32.75143375 153.70008211 32.75130863 C139.44814768 32.75049558 125.19631891 32.76963678 110.94441505 32.79783313 C96.31853788 32.82654155 81.69271227 32.84037455 67.0668062 32.83864558 C58.85229367 32.83798097 50.63789189 32.84350415 42.42340469 32.86500168 C35.42973122 32.88318667 28.43621869 32.88758301 21.44253184 32.87398283 C17.87325921 32.8674395 14.3042956 32.86738459 10.73505211 32.88468933 C6.86791684 32.90324574 3.00123603 32.89090106 -0.86592102 32.87542725 C-2.56274979 32.89085794 -2.56274979 32.89085794 -4.29385793 32.90660036 C-11.89388201 32.83910836 -11.89388201 32.83910836 -15.80181313 30.4596653 C-19.75662841 26.00275004 -19.9855207 22.29565137 -19.95884705 16.44345093 C-19.97496033 15.74026733 -19.99107361 15.03708374 -20.00767517 14.31259155 C-20.01189957 9.80515406 -19.5258024 6.8877386 -16.64634705 3.38095093 C-11.76717817 -0.79515388 -6.071898 -0.03636165 0 0 Z " fill="#AABCED" transform="translate(95.64634704589844,56.619049072265625)"/>
<path d="M0 0 C8.58 0 17.16 0 26 0 C26.44730469 1.88460938 26.89460938 3.76921875 27.35546875 5.7109375 C31.19004948 21.91659166 31.19004948 21.91659166 35.5 38 C38.99449241 50.58017269 41.93641561 63.30800753 45 76 C45.33 50.92 45.66 25.84 46 0 C51.94 0 57.88 0 64 0 C64 42.9 64 85.8 64 130 C56.74 130 49.48 130 42 130 C41.319375 127.07125 40.63875 124.1425 39.9375 121.125 C37.67005206 111.49296742 35.12834628 101.94720916 32.52392578 92.40161133 C30.66460909 85.55677888 28.92996589 78.70141325 27.34960938 71.78735352 C26.04571009 66.1025502 24.56389385 60.48069293 23.02734375 54.85546875 C21.62331008 49.58633861 20.32254307 44.29017229 19 39 C18.67 69.03 18.34 99.06 18 130 C12.06 130 6.12 130 0 130 C0 87.1 0 44.2 0 0 Z " fill="#F5F5F7" transform="translate(160,322)"/>
<path d="M0 0 C44.69330169 0 44.69330169 0 53.2734375 8.1015625 C59.142869 14.5552813 60.14747405 21.13131291 60.23828125 29.609375 C60.246353 30.33562073 60.25442474 31.06186646 60.26274109 31.81011963 C60.27652436 33.34311579 60.28727206 34.87614189 60.29516602 36.40917969 C60.30666966 37.96265788 60.32709616 39.51609704 60.35668945 41.06933594 C60.57459685 52.52712596 59.80851797 61.67019453 51.78125 70.49609375 C42.54568355 78.2936663 31.64492782 77 20 77 C20 94.49 20 111.98 20 130 C13.4 130 6.8 130 0 130 C0 87.1 0 44.2 0 0 Z " fill="#F6F6F7" transform="translate(88,322)"/>
<path d="M0 0 C5.37051735 3.828022 9.32041495 9.37744076 10.87475586 15.83642578 C11.30860405 18.47629403 11.42655282 20.90939 11.41015625 23.58203125 C11.40693359 24.51337891 11.40371094 25.44472656 11.40039062 26.40429688 C11.38782227 27.84385742 11.38782227 27.84385742 11.375 29.3125 C11.37048828 30.29154297 11.36597656 31.27058594 11.36132812 32.27929688 C11.34958702 34.68622431 11.33165289 37.09312013 11.3125 39.5 C5.0425 39.5 -1.2275 39.5 -7.6875 39.5 C-8.0625 31.3125 -8.0625 31.3125 -8.16552734 28.76098633 C-8.38054358 24.66838093 -8.6612662 21.15962635 -10.6875 17.5 C-13.8512897 15.39080687 -14.95247605 15.15638407 -18.625 15.0625 C-19.47964844 15.02253906 -20.33429688 14.98257812 -21.21484375 14.94140625 C-24.85281403 15.7632542 -25.71702857 17.37990134 -27.6875 20.5 C-28.06970636 23.33572986 -28.22567345 25.77760819 -28.18920898 28.60742188 C-28.19461197 29.4096669 -28.20001495 30.21191193 -28.20558167 31.03846741 C-28.21805789 33.68227375 -28.20158584 36.32498873 -28.18359375 38.96875 C-28.18374876 40.81050676 -28.18523815 42.65226386 -28.18800354 44.49401855 C-28.18938704 48.35081431 -28.17683779 52.20723797 -28.15405273 56.06396484 C-28.12566826 61.00377916 -28.12840609 65.94297533 -28.14114285 70.88283539 C-28.14810303 74.68501043 -28.14030686 78.48704298 -28.12788582 82.28919983 C-28.12337462 84.11043247 -28.12303162 85.93168042 -28.12695122 87.75291443 C-28.12986677 90.29978709 -28.11334045 92.8458126 -28.09155273 95.39257812 C-28.09830521 96.51799767 -28.09830521 96.51799767 -28.10519409 97.66615295 C-28.04220357 102.1053677 -27.43316106 104.97163396 -24.6875 108.5 C-20.91311386 110.38719307 -16.2636945 109.99774563 -12.3125 108.75 C-10.21604887 107.13734528 -9.65433583 105.9791448 -8.6875 103.5 C-8.45719093 101.11649515 -8.33230346 98.72200729 -8.2734375 96.328125 C-8.25407135 95.6457074 -8.2347052 94.96328979 -8.2147522 94.26019287 C-8.15518902 92.09025392 -8.10866554 89.92026123 -8.0625 87.75 C-8.02429869 86.27471703 -7.9852457 84.79945585 -7.9453125 83.32421875 C-7.84950765 79.71634582 -7.76539084 76.10830917 -7.6875 72.5 C-10.9875 72.5 -14.2875 72.5 -17.6875 72.5 C-17.6875 66.56 -17.6875 60.62 -17.6875 54.5 C-8.1175 54.5 1.4525 54.5 11.3125 54.5 C11.40464496 61.72314104 11.48419317 68.94421862 11.53222656 76.16748047 C11.55226324 78.62132706 11.57950032 81.07512637 11.61425781 83.52880859 C11.66312498 87.06880403 11.6855492 90.60816468 11.703125 94.1484375 C11.72377014 95.23426117 11.74441528 96.32008484 11.76568604 97.43881226 C11.76859541 107.45684115 9.16202318 115.45812452 2.2421875 122.80859375 C-5.79683991 129.85494773 -15.44815844 130.12241528 -25.6875 129.5 C-33.57455799 128.37680395 -39.78940015 123.65011846 -44.6875 117.5 C-50.35428712 108.2963486 -49.30597219 97.4270318 -49.2890625 87.0390625 C-49.29685024 85.04185637 -49.30552241 83.04465351 -49.31503296 81.04745483 C-49.32990329 76.87332392 -49.32941461 72.69953149 -49.31884766 68.52539062 C-49.30726462 63.20379742 -49.34112777 57.88359789 -49.387537 52.56223488 C-49.41715015 48.44064375 -49.41873656 44.319383 -49.41251755 40.19770432 C-49.41353704 38.23708715 -49.42388112 36.27644979 -49.44414139 34.31593704 C-49.54494148 23.19919759 -49.58589712 13.79616877 -42.6875 4.5 C-40.19340925 2.00742571 -37.78438514 0.18116622 -34.6875 -1.5 C-34.08292969 -1.83644531 -33.47835937 -2.17289062 -32.85546875 -2.51953125 C-22.90673982 -7.1064189 -9.27179332 -5.46125597 0 0 Z " fill="#F6F6F7" transform="translate(286.6875,324.5)"/>
<path d="M0 0 C13.34311888 -0.09264486 26.68616135 -0.16373726 40.02953625 -0.20724869 C46.22529135 -0.22813109 52.42082654 -0.25646127 58.61645508 -0.30175781 C64.59461443 -0.34519134 70.57256213 -0.36913219 76.55086708 -0.37950897 C78.83266851 -0.38690475 81.11445824 -0.4013468 83.39616966 -0.42292023 C86.59013353 -0.45192029 89.78322076 -0.45595732 92.97729492 -0.45410156 C94.39501945 -0.47567322 94.39501945 -0.47567322 95.84138489 -0.49768066 C100.1005704 -0.47087017 102.37011235 -0.39675288 106.04585266 1.91851807 C110.1343438 6.27342022 110.36427578 10.03029929 110.375 15.875 C110.39949219 16.56980469 110.42398438 17.26460937 110.44921875 17.98046875 C110.47841124 23.14753982 109.33104226 26.08456436 106 30 C102.2134978 32.69657501 97.92841735 32.30692927 93.46777344 32.31884766 C92.60887512 32.32889328 91.74997681 32.3389389 90.86505127 32.34928894 C88.02983257 32.38014711 85.19470842 32.39716343 82.359375 32.4140625 C80.3921019 32.43277202 78.42483684 32.45234528 76.45758057 32.4727478 C71.28239684 32.52409774 66.10718709 32.56370821 60.93188477 32.60089111 C55.6498367 32.64091277 50.36789716 32.69201351 45.0859375 32.7421875 C34.72403454 32.8389807 24.36207034 32.92337469 14 33 C13.50135185 31.79654182 13.50135185 31.79654182 12.99263 30.56877136 C12.55073837 29.50475601 12.10884674 28.44074066 11.65356445 27.34448242 C11.21800735 26.29467697 10.78245026 25.24487152 10.33369446 24.16325378 C8.37054024 19.50704863 6.28519392 14.90927687 4.1875 10.3125 C3.38762529 8.55936731 2.58935254 6.8055025 1.79296875 5.05078125 C1.4477417 4.29450439 1.10251465 3.53822754 0.74682617 2.7590332 C0 1 0 1 0 0 Z " fill="#AABCED" transform="translate(182,213)"/>
<path d="M0 0 C13 0 13 0 18 3 C21.36323236 8.04484854 20.32732437 13.95118357 20.3125 19.875 C20.32861328 21.15503906 20.34472656 22.43507813 20.36132812 23.75390625 C20.36197266 24.98753906 20.36261719 26.22117187 20.36328125 27.4921875 C20.36626221 28.61995605 20.36924316 29.74772461 20.37231445 30.90966797 C19.94810672 34.43073121 19.22301594 36.24480659 17 39 C12 41 12 41 0 41 C0 27.47 0 13.94 0 0 Z " fill="#9A98FE" transform="translate(108,340)"/>
</svg>
