<?xml version="1.0" standalone="no"?>
<!DOCTYPE svg PUBLIC "-//W3C//DTD SVG 20010904//EN"
 "http://www.w3.org/TR/2001/REC-SVG-20010904/DTD/svg10.dtd">
<svg version="1.0" xmlns="http://www.w3.org/2000/svg"
 width="512.000000pt" height="512.000000pt" viewBox="0 0 512.000000 512.000000"
 preserveAspectRatio="xMidYMid meet">

<g transform="translate(0.000000,512.000000) scale(0.100000,-0.100000)"
fill="#000000" stroke="none">
<path d="M1570 4670 c-117 -43 -216 -137 -263 -252 l-22 -53 -3 -1345 c-2
-1005 0 -1359 9 -1400 33 -158 155 -283 314 -325 52 -13 226 -15 1385 -15 856
0 1341 4 1369 11 123 28 235 119 293 236 l33 68 0 1391 0 1390 -37 75 c-46 93
-112 158 -206 202 l-67 32 -1375 2 c-1348 2 -1376 2 -1430 -17z m2698 -1682
l2 -1278 -1280 0 -1280 0 0 1280 0 1280 1278 -2 1277 -3 3 -1277z"/>
<path d="M3580 3621 c-59 -18 -103 -58 -445 -400 l-360 -361 -150 150 c-157
156 -206 189 -278 190 -88 0 -177 -69 -203 -158 -17 -57 -13 -95 17 -152 22
-44 483 -502 526 -524 44 -22 128 -20 177 4 27 13 196 174 488 467 468 469
487 492 488 576 0 86 -69 177 -154 202 -54 16 -68 17 -106 6z"/>
<path d="M545 3393 c-44 -23 -74 -53 -96 -95 -19 -37 -19 -73 -17 -1296 l3
-1258 37 -75 c46 -93 112 -158 206 -202 l67 -32 1258 -3 c1222 -2 1258 -2
1295 17 75 39 112 101 112 191 0 85 -44 163 -110 194 -18 8 -354 12 -1235 16
l-1210 5 -5 1210 c-4 1000 -7 1214 -19 1235 -22 41 -64 81 -100 96 -45 19
-148 17 -186 -3z"/>
</g>
</svg>
