<?xml version="1.0" encoding="UTF-8"?>
<svg version="1.1" xmlns="http://www.w3.org/2000/svg" width="512" height="512">
<path d="M0 0 C1.8495658 -0.00230691 3.69913068 -0.00548498 5.54869366 -0.00945449 C10.61053424 -0.01777943 15.67229911 -0.01368767 20.73413992 -0.00748205 C26.20115253 -0.00294915 31.66815231 -0.00994548 37.13516235 -0.01544189 C47.83690851 -0.02432858 58.5386266 -0.0224171 69.24037385 -0.01661661 C77.93900931 -0.01209728 86.6376369 -0.0114884 95.33627319 -0.01366425 C96.57496869 -0.01397071 97.81366418 -0.01427718 99.0898959 -0.01459293 C101.60639199 -0.01523239 104.12288807 -0.01588082 106.63938415 -0.01653811 C129.55653387 -0.02207681 152.47367132 -0.0163359 175.39081816 -0.00585292 C196.29774439 0.00363782 217.20464625 0.00278855 238.11157227 -0.0067749 C261.61739909 -0.0174913 285.12321518 -0.02168998 308.62904453 -0.01555037 C311.13621076 -0.01491329 313.64337698 -0.01428454 316.15054321 -0.01366425 C317.38407191 -0.01335569 318.61760062 -0.01304714 319.88850898 -0.01272924 C328.57528332 -0.01100341 337.26204902 -0.013915 345.94882202 -0.01862335 C356.53709392 -0.02423626 367.12533618 -0.02270707 377.71360469 -0.01206186 C383.11442112 -0.00681071 388.51518813 -0.00473898 393.91600418 -0.01136017 C398.86297268 -0.01733317 403.8098461 -0.01402217 408.75680602 -0.00340506 C410.5433358 -0.00117678 412.32987366 -0.00229446 414.11639822 -0.00715664 C428.59634605 -0.04353246 441.4486622 -0.04364122 452.7824707 10.07427979 C461.69148899 19.43822667 462.35208286 29.84168252 462.2746582 42.19146729 C462.27735961 43.7226384 462.28124739 45.25380783 462.28625488 46.78497314 C462.29211958 49.97890716 462.28368602 53.17239074 462.26489258 56.36627197 C462.24210422 60.43460456 462.25524377 64.50188121 462.27918243 68.57017517 C462.29372323 71.72747575 462.28899687 74.88453113 462.27867126 78.0418396 C462.27602676 79.54076263 462.27919243 81.03970883 462.28858948 82.53860474 C462.34905339 94.88977252 460.68500555 104.14383057 451.9387207 113.27740479 C440.55040535 123.53094138 425.90295338 122.54716937 411.48681641 122.50793457 C409.63725061 122.51024148 407.78768573 122.51341955 405.93812275 122.51738906 C400.87628216 122.525714 395.81451729 122.52162224 390.75267649 122.51541662 C385.28566387 122.51088372 379.8186641 122.51788005 374.35165405 122.52337646 C363.64990789 122.53226315 352.94818981 122.53035167 342.24644256 122.52455118 C333.5478071 122.52003186 324.84917951 122.51942297 316.15054321 122.52159882 C314.29249997 122.52205852 314.29249997 122.52205852 312.3969205 122.5225275 C309.88042442 122.52316696 307.36392834 122.52381539 304.84743226 122.52447268 C281.93028254 122.53001138 259.01314508 122.52427047 236.09599824 122.51378749 C215.18907202 122.50429675 194.28217015 122.50514603 173.37524414 122.51470947 C149.86941732 122.52542587 126.36360122 122.52962455 102.85777187 122.52348495 C100.35060565 122.52284786 97.84343942 122.52221911 95.33627319 122.52159882 C94.10274449 122.52129026 92.86921579 122.52098171 91.59830743 122.52066381 C82.91153308 122.51893798 74.22476739 122.52184957 65.53799438 122.52655792 C54.94972248 122.53217083 44.36148023 122.53064164 33.77321172 122.51999643 C28.37239529 122.51474528 22.97162827 122.51267355 17.57081223 122.51929474 C12.62384373 122.52526774 7.6769703 122.52195674 2.73001039 122.51133963 C0.94348061 122.50911135 -0.84305725 122.51022903 -2.62958181 122.51509121 C-17.10952965 122.55146703 -29.96184579 122.55157579 -41.2956543 112.43365479 C-50.20467259 103.0697079 -50.86526646 92.66625205 -50.7878418 80.31646729 C-50.7905432 78.78529617 -50.79443098 77.25412674 -50.79943848 75.72296143 C-50.80530318 72.52902741 -50.79686961 69.33554383 -50.77807617 66.1416626 C-50.75528781 62.07333001 -50.76842737 58.00605336 -50.79236603 53.9377594 C-50.80690682 50.78045882 -50.80218046 47.62340344 -50.79185486 44.46609497 C-50.78921035 42.96717195 -50.79237602 41.46822574 -50.80177307 39.96932983 C-50.86223698 27.61816205 -49.19818914 18.364104 -40.4519043 9.23052979 C-29.06358895 -1.02300681 -14.41613698 -0.0392348 0 0 Z " fill="#FF2046" transform="translate(50.256591796875,194.74603271484375)"/>
</svg>
