<?xml version="1.0" encoding="UTF-8"?>
<svg version="1.1" xmlns="http://www.w3.org/2000/svg" width="512" height="489">
<path d="M0 0 C1.29935246 -0.00905664 2.59870492 -0.01811328 3.93743169 -0.02744436 C5.37239009 -0.02234044 6.80734749 -0.01694837 8.24230385 -0.01129913 C9.77208613 -0.01618904 11.30186472 -0.02237931 12.83163702 -0.02975702 C17.03267543 -0.04616705 21.23352631 -0.04383647 25.43458557 -0.03838205 C29.96639627 -0.03571317 34.49815683 -0.05024098 39.02994728 -0.06247711 C47.90723295 -0.08353919 56.78445333 -0.08807152 65.66176103 -0.08628923 C72.87694704 -0.08498201 80.09211267 -0.0887837 87.30729485 -0.09621429 C89.38499979 -0.09831347 91.46270474 -0.10041107 93.54040968 -0.10250711 C94.57451651 -0.10355064 95.60862334 -0.10459417 96.67406674 -0.10566932 C116.23506671 -0.12457479 135.79602919 -0.12352053 155.35703452 -0.11669999 C173.2538859 -0.11112413 191.15059415 -0.13195126 209.04741208 -0.16506046 C227.42165464 -0.19878921 245.79582862 -0.21396682 264.17010272 -0.20934343 C274.48674764 -0.20709794 284.80326027 -0.21235361 295.11987877 -0.23723602 C303.90267658 -0.25823857 312.68526955 -0.2618515 321.46807574 -0.24293643 C325.94913536 -0.23377219 330.42981293 -0.23265652 334.9108429 -0.25329208 C339.01426724 -0.27197976 343.11699605 -0.26752385 347.22039373 -0.24474627 C348.70352423 -0.24055489 350.18670781 -0.24477874 351.66978221 -0.25834221 C359.83075548 -0.32788601 366.20710231 -0.25221106 372.49001503 5.38311005 C374.54860878 7.4807663 374.54860878 7.4807663 375.92751503 9.44561005 C376.40060097 10.09658661 376.8736869 10.74756317 377.36110878 11.4182663 C379.48736828 15.11898785 379.60795915 18.41935658 379.55251503 22.63311005 C379.54349159 23.5251413 379.53446815 24.41717255 379.52517128 25.33623505 C379.50776894 26.34943817 379.50776894 26.34943817 379.49001503 27.38311005 C380.26345253 27.32510223 381.03689003 27.26709442 381.83376503 27.2073288 C388.05040731 26.93804355 392.6228606 27.00733509 397.73610878 30.7542038 C402.62762188 35.29710127 406.30530365 39.92048317 406.58767128 46.74248505 C406.57026894 47.92584442 406.57026894 47.92584442 406.55251503 49.13311005 C406.54349159 49.9323288 406.53446815 50.73154755 406.52517128 51.55498505 C406.50776894 52.45990692 406.50776894 52.45990692 406.49001503 53.38311005 C407.65017128 53.40437958 407.65017128 53.40437958 408.83376503 53.4260788 C415.92653024 53.75087126 421.13710389 54.5189948 426.49001503 59.38311005 C432.34959672 65.8453183 433.64490456 70.42542499 433.61026955 79.07726288 C433.61155118 80.24620185 433.61155118 80.24620185 433.61285871 81.43875575 C433.61450686 84.05206645 433.609003 86.66531307 433.60354042 89.27861786 C433.60325838 91.15110523 433.60341661 93.02359271 433.60398293 94.89608002 C433.60427024 99.98246746 433.59838413 105.06883139 433.59140897 110.15521336 C433.58516449 115.46968276 433.58457076 120.78415268 433.58338356 126.09862518 C433.58027348 136.16371508 433.57206443 146.22879415 433.56203407 156.29387927 C433.55086292 167.75203551 433.54535995 179.21019227 433.54033864 190.6683526 C433.52988157 214.23994443 433.51228836 237.81152663 433.49001503 261.38311005 C434.09112099 261.36933319 434.69222694 261.35555634 435.31154823 261.341362 C436.10907509 261.33064667 436.90660194 261.31993134 437.72829628 261.3088913 C438.51502724 261.29511444 439.30175819 261.28133759 440.11232948 261.26714325 C446.71474992 261.58916293 451.93019548 264.71965823 456.49001503 269.38311005 C459.99463055 274.76586238 461.07365488 279.44018726 460.99122047 285.78365326 C460.99675487 286.59071508 461.00228927 287.3977769 461.00799137 288.22929513 C461.0215226 290.91321144 461.00667025 293.5961856 460.99172401 296.2800827 C460.99550987 298.21239363 461.00101211 300.14470183 461.00809669 302.07700348 C461.0220318 307.31035272 461.01089591 312.54337249 460.99438548 317.77670336 C460.98051415 323.25784329 460.98699729 328.7389645 460.99051857 334.22011566 C460.99321858 343.42163643 460.97976143 352.6230266 460.95656776 361.8245163 C460.92994359 372.46055837 460.92821676 383.09638232 460.93995613 393.73244631 C460.95073609 403.97015905 460.94454612 414.20779294 460.93040085 424.44549942 C460.92464456 428.80023692 460.9247209 433.15491666 460.92946625 437.509655 C460.93423955 442.63644029 460.92411959 447.76298677 460.9025116 452.88972664 C460.89694898 454.77067192 460.89647361 456.65164017 460.90146446 458.53258705 C460.90742428 461.1008341 460.89489911 463.66835266 460.87769508 466.23653412 C460.88671015 467.35190833 460.88671015 467.35190833 460.89590734 468.48981535 C460.82094806 474.64683635 459.15869639 478.54328188 455.05251503 483.07061005 C449.22490768 488.32967034 445.43294214 489.53266325 437.61005878 489.51453781 C436.79459871 489.51659045 435.97913864 489.51864308 435.13896766 489.52075791 C432.38297761 489.52645099 429.62703718 489.52496783 426.87104225 489.52355194 C424.88457488 489.52613425 422.89810802 489.52914703 420.9116419 489.53255534 C415.43444246 489.54064428 409.95725611 489.54241596 404.4800514 489.54315281 C398.58013517 489.54500006 392.68022578 489.5525457 386.78031349 489.55928802 C373.19801518 489.5735943 359.61571787 489.57939948 346.03341359 489.58397997 C339.3236914 489.58631491 332.61397006 489.58991744 325.90424854 489.59367535 C302.94266853 489.60651119 279.98108901 489.61723068 257.0195055 489.62067795 C255.5778147 489.62089958 254.13612391 489.62112137 252.69443311 489.6213433 C251.24923324 489.62156394 249.80403337 489.62178442 248.35883349 489.62200475 C245.45944544 489.6224473 242.56005738 489.62289442 239.66066933 489.62334442 C238.94178836 489.62345381 238.2229074 489.6235632 237.48224216 489.62367591 C214.16634351 489.62730749 190.85047594 489.64323118 167.53458919 489.66653479 C142.89186421 489.69111957 118.24915699 489.70485014 93.60641938 489.70604587 C90.90234299 489.70621732 88.1982666 489.70643275 85.49419022 489.7066803 C84.82835572 489.70673607 84.16252123 489.70679184 83.47650994 489.70684929 C73.41670525 489.70792952 63.3569293 489.71724664 53.2971344 489.73086548 C41.85762274 489.74623663 30.41816435 489.75140459 18.97864433 489.74312738 C13.13899664 489.73921036 7.2994563 489.74020163 1.4598217 489.75418472 C-3.88260654 489.76686061 -9.22484607 489.76578193 -14.56727382 489.75359401 C-16.50334986 489.75162603 -18.43943898 489.75476585 -20.3754966 489.76343837 C-23.00139742 489.77445936 -25.6266238 489.76709373 -28.2525053 489.75504684 C-29.38751762 489.76643963 -29.38751762 489.76643963 -30.54545948 489.77806258 C-36.74169713 489.71643587 -40.64054355 488.07864994 -45.19748497 483.94561005 C-49.39884523 479.29004868 -51.6303661 476.15547703 -51.64420605 469.75715351 C-51.64866389 468.80166357 -51.65312173 467.84617363 -51.65771466 466.86172944 C-51.6575303 465.80980509 -51.65734594 464.75788074 -51.65715599 463.6740799 C-51.66083268 462.5582678 -51.66450937 461.44245571 -51.66829747 460.29283112 C-51.67935676 456.53426391 -51.68318196 452.77572432 -51.68698692 449.01714325 C-51.69324986 446.33020614 -51.69988354 443.64327201 -51.70689964 440.95633698 C-51.72666294 432.87887728 -51.73673021 424.80141633 -51.74562743 416.72393849 C-51.75001066 412.91999704 -51.75537739 409.11605698 -51.7606163 405.31211662 C-51.77762864 392.66665467 -51.7921227 380.02119358 -51.79936504 367.37572193 C-51.80127493 364.09408632 -51.80319527 360.81245071 -51.80515099 357.53081512 C-51.8058766 356.30736494 -51.8058766 356.30736494 -51.80661687 355.05919858 C-51.81491675 341.84717039 -51.84025291 328.63523275 -51.87273166 315.4232441 C-51.90580583 301.85843981 -51.92381414 288.29368154 -51.92700928 274.72883672 C-51.92917408 267.11281322 -51.93791819 259.49692177 -51.96347046 251.88093758 C-51.9851824 245.39460065 -51.99322552 238.90842783 -51.98350368 232.42205868 C-51.97896027 229.11363945 -51.98303126 225.80562932 -52.00026512 222.49724197 C-52.01792154 218.90689452 -52.01090749 215.31740606 -51.99773216 211.72705841 C-52.00870141 210.68628767 -52.01967065 209.64551693 -52.0309723 208.57320768 C-51.96097758 200.67287621 -50.33571484 195.27306105 -44.75998497 189.57061005 C-38.86315997 185.60159322 -34.4004238 184.21604433 -27.23654747 184.3088913 C-25.62513878 184.32496429 -25.62513878 184.32496429 -23.98117638 184.341362 C-23.16568321 184.35513885 -22.35019005 184.36891571 -21.50998497 184.38311005 C-21.51275035 183.5288893 -21.51551573 182.67466856 -21.51836491 181.79456234 C-21.58463375 161.0042322 -21.63426996 140.21392028 -21.66542149 119.42350674 C-21.68088675 109.36939385 -21.70196981 99.31535149 -21.73630333 89.26128387 C-21.76621605 80.49759977 -21.78556245 71.73396676 -21.79225045 62.97023302 C-21.79615953 58.33040421 -21.80533938 53.69072152 -21.82717514 49.05093956 C-21.84756985 44.68187368 -21.85381273 40.31301384 -21.84930801 35.94390488 C-21.85013188 34.34233925 -21.85607978 32.74076657 -21.86760139 31.13924217 C-21.88259265 28.94752978 -21.87891501 26.75658883 -21.87074852 24.56485748 C-21.8735139 23.33979461 -21.87627928 22.11473173 -21.87912846 20.85254574 C-21.30186441 15.42706609 -19.29658704 10.79736037 -15.69748497 6.63311005 C-15.23728966 6.0813913 -14.77709435 5.52967255 -14.30295372 4.96123505 C-9.94126232 1.12218641 -5.70657181 0.00800269 0 0 Z " fill="#F6F6F6" transform="translate(51.50998497009277,-0.38311004638671875)"/>
<path d="M0 0 C1.47586409 0.00252665 2.9517308 0.00378943 4.42759705 0.00389099 C8.41735443 0.00839093 12.40676677 0.0323216 16.3964138 0.06121445 C19.73383693 0.08385964 23.07127446 0.09758167 26.40874338 0.11154079 C34.28450324 0.14488747 42.16004391 0.19469492 50.03564453 0.25439453 C58.14724209 0.31555885 66.25858349 0.34722684 74.37038279 0.36467552 C81.34910057 0.38082857 88.32754654 0.41618467 95.30610037 0.46663857 C99.46796744 0.49648444 103.6295394 0.51896225 107.79151917 0.52258301 C111.70549716 0.52675352 115.61859075 0.55496435 119.53228951 0.60130501 C120.96405971 0.61428656 122.39593512 0.6189191 123.82775688 0.61434746 C131.73678501 0.59454193 138.36527593 0.64948535 144.35742188 6.328125 C146.40454102 9.30957031 146.40454102 9.30957031 147.89257812 12.65625 C148.17368439 13.27048828 148.45479065 13.88472656 148.74441528 14.51757812 C149.65850907 16.52855308 150.53873425 18.55254443 151.41992188 20.578125 C152.05667227 21.9916111 152.6957947 23.40403078 153.3371582 24.81542969 C155.02342347 28.54005222 156.68235679 32.27618564 158.33435059 36.01611328 C161.05023362 42.15366545 163.80483328 48.27386277 166.56417847 54.39196777 C167.53020711 56.54532458 168.48285104 58.70422362 169.43383789 60.86425781 C170.02651258 62.19090844 170.61951313 63.51741357 171.21289062 64.84375 C171.72489014 66.00165039 172.23688965 67.15955078 172.7644043 68.35253906 C174.94217295 72.42037728 176.76020671 74.6889037 181.08644295 76.42030621 C184.51172053 77.37094864 187.32291296 77.57600527 190.87155151 77.57295227 C192.16401794 77.57688995 193.45648438 77.58082764 194.78811646 77.58488464 C196.2081915 77.57927641 197.62826595 77.57351886 199.04833984 77.56762695 C200.55346776 77.56874063 202.05859523 77.57079967 203.5637207 77.57373047 C206.79832253 77.5784439 210.03285171 77.57734173 213.26745224 77.57195473 C218.38653525 77.5643314 223.50547897 77.57501576 228.62454224 77.5891571 C243.17889963 77.62685803 257.73319359 77.64508918 272.28759766 77.63354492 C280.33104562 77.6273223 288.37426826 77.63893948 296.41766083 77.66999024 C301.50196594 77.68861228 306.5856312 77.68535735 311.66992545 77.66582263 C314.83891955 77.65892272 318.0075695 77.67293331 321.17649841 77.69277191 C322.64056638 77.69780316 324.10469293 77.69437573 325.56871414 77.68163872 C333.6876015 77.61605192 340.13907396 77.66514896 346.35742188 83.328125 C351.04343889 88.03247107 353.57453133 91.96068057 353.61558449 98.68647647 C353.60975881 99.39465054 353.60393313 100.10282461 353.59793091 100.8324585 C353.60049418 101.97077083 353.60049418 101.97077083 353.60310924 103.13207936 C353.60640498 105.67636494 353.59539912 108.22038713 353.58447266 110.76464844 C353.58390856 112.5878753 353.58422507 114.41110262 353.58535767 116.23432922 C353.58593224 121.18645346 353.57416093 126.13848109 353.56020975 131.09058285 C353.54771989 136.26491241 353.54653327 141.43924411 353.54415894 146.61358643 C353.53793904 156.41307276 353.52152131 166.21251455 353.50145996 176.01198125 C353.47911683 187.16784101 353.46811152 198.32370289 353.45806909 209.47957945 C353.43715554 232.42911934 353.40196964 255.37861968 353.35742188 278.328125 C363.76328695 278.28999033 374.16879441 278.23051569 384.57437801 278.14422226 C389.40677636 278.10480866 394.23899415 278.07259025 399.0715332 278.05712891 C403.74018963 278.04192194 408.40834947 278.00740505 413.07678413 277.95981598 C414.85280591 277.94504373 416.6288986 277.93708638 418.40498161 277.93624115 C432.64543314 278.27041525 432.64543314 278.27041525 444.91734314 271.91668701 C449.67793333 266.64297332 450.65488772 261.63556414 450.62916565 254.74822998 C450.63425249 253.99328979 450.63933932 253.2383496 450.6445803 252.46053243 C450.65922226 249.93555029 450.65977422 247.41076377 450.66040039 244.88574219 C450.6680627 243.07383851 450.67660928 241.2619384 450.68597412 239.45004272 C450.70424288 235.55135457 450.71628761 231.6527143 450.72351265 227.75399017 C450.73499347 221.59515664 450.76044543 215.43642937 450.78782654 209.27764893 C450.82946515 199.54317463 450.86188845 189.80869526 450.89030069 180.07417417 C450.94131233 162.62305153 451.00329951 145.1719727 451.0756411 127.72092557 C451.10062071 121.59204512 451.1200258 115.4631789 451.13502324 109.33426619 C451.1451924 105.53204155 451.1593375 101.72983905 451.17449951 97.92763138 C451.18067982 96.15746453 451.18512514 94.3872907 451.18775749 92.61711502 C451.19154094 90.21139703 451.20132943 87.80577789 451.21266174 85.40008545 C451.21227561 84.6904744 451.21188948 83.98086336 451.21149164 83.24974895 C451.24335693 78.44218994 451.24335693 78.44218994 452.35742188 77.328125 C460.17566758 76.43852155 466.15032934 78.16950503 472.60742188 82.515625 C477.41769325 87.43522072 479.79085254 92.59415161 479.8877334 99.4889065 C479.87332589 100.59758855 479.87332589 100.59758855 479.85862732 101.72866821 C479.86416172 102.53573003 479.86969611 103.34279185 479.87539822 104.17431009 C479.88892944 106.8582264 479.8740771 109.54120055 479.85913086 112.22509766 C479.86291672 114.15740858 479.86841896 116.08971679 479.87550354 118.02201843 C479.88943865 123.25536767 479.87830276 128.48838744 479.86179233 133.72171831 C479.847921 139.20285824 479.85440413 144.68397946 479.85792542 150.16513062 C479.86062543 159.36665139 479.84716828 168.56804155 479.82397461 177.76953125 C479.79735043 188.40557332 479.7956236 199.04139728 479.80736297 209.67746127 C479.81814294 219.91517401 479.81195297 230.1528079 479.79780769 240.39051437 C479.7920514 244.74525187 479.79212774 249.09993161 479.79687309 253.45466995 C479.80164639 258.58145525 479.79152644 263.70800172 479.76991844 268.83474159 C479.76435582 270.71568687 479.76388046 272.59665512 479.76887131 274.47760201 C479.77483113 277.04584906 479.76230596 279.61336762 479.74510193 282.18154907 C479.754117 283.29692328 479.754117 283.29692328 479.76331419 284.43483031 C479.68835491 290.5918513 478.02610323 294.48829684 473.91992188 299.015625 C468.09231453 304.27468529 464.30034898 305.4776782 456.47746563 305.45955276 C455.66200556 305.4616054 454.84654549 305.46365803 454.00637451 305.46577287 C451.25038446 305.47146594 448.49444402 305.46998278 445.7384491 305.46856689 C443.75198172 305.4711492 441.76551487 305.47416199 439.77904874 305.4775703 C434.3018493 305.48565924 428.82466295 305.48743092 423.34745824 305.48816776 C417.44754201 305.49001502 411.54763263 305.49756066 405.64772034 305.50430298 C392.06542203 305.51860925 378.48312472 305.52441443 364.90082043 305.52899492 C358.19109824 305.53132987 351.48137691 305.53493239 344.77165538 305.5386903 C321.81007538 305.55152614 298.84849586 305.56224564 275.88691235 305.5656929 C274.44522155 305.56591454 273.00353075 305.56613632 271.56183996 305.56635825 C270.11664008 305.56657889 268.67144021 305.56679938 267.22624034 305.5670197 C264.32685228 305.56746226 261.42746423 305.56790937 258.52807617 305.56835938 C257.80919521 305.56846877 257.09031424 305.56857816 256.34964901 305.56869086 C233.03375036 305.57232244 209.71788278 305.58824613 186.40199604 305.61154974 C161.75927105 305.63613452 137.11656384 305.6498651 112.47382623 305.65106082 C109.76974984 305.65123228 107.06567345 305.65144771 104.36159706 305.65169525 C103.69576257 305.65175102 103.02992808 305.65180679 102.34391678 305.65186425 C92.2841121 305.65294448 82.22433615 305.6622616 72.16454124 305.67588043 C60.72502959 305.69125159 49.28557119 305.69641955 37.84605118 305.68814233 C32.00640349 305.68422531 26.16686315 305.68521659 20.32722855 305.69919968 C14.9848003 305.71187556 9.64256077 305.71079688 4.30013303 305.69860896 C2.36405698 305.69664098 0.42796786 305.6997808 -1.50808976 305.70845333 C-4.13399057 305.71947431 -6.75921695 305.71210868 -9.38509846 305.7000618 C-10.52011077 305.71145459 -10.52011077 305.71145459 -11.67805263 305.72307754 C-17.87429029 305.66145082 -21.77313671 304.02366489 -26.33007812 299.890625 C-30.53143838 295.23506363 -32.76295926 292.10049198 -32.7767992 285.70216846 C-32.78125705 284.74667852 -32.78571489 283.79118858 -32.79030782 282.8067444 C-32.79012346 281.75482005 -32.78993909 280.70289569 -32.78974915 279.61909485 C-32.79342583 278.50328275 -32.79710252 277.38747066 -32.80089062 276.23784608 C-32.81194991 272.47927886 -32.81577511 268.72073927 -32.81958008 264.9621582 C-32.82584301 262.27522109 -32.8324767 259.58828696 -32.8394928 256.90135193 C-32.85925609 248.82389223 -32.86932336 240.74643128 -32.87822059 232.66895345 C-32.88260381 228.86501199 -32.88797054 225.06107193 -32.89320946 221.25713158 C-32.9102218 208.61166962 -32.92471586 195.96620853 -32.9319582 183.32073689 C-32.93386809 180.03910127 -32.93578842 176.75746566 -32.93774414 173.47583008 C-32.93846975 172.25237989 -32.93846975 172.25237989 -32.93921002 171.00421353 C-32.9475099 157.79218534 -32.97284606 144.5802477 -33.00532482 131.36825905 C-33.03839899 117.80345476 -33.05640729 104.23869649 -33.05960244 90.67385167 C-33.06176724 83.05782818 -33.07051134 75.44193672 -33.09606361 67.82595253 C-33.11777556 61.3396156 -33.12581867 54.85344278 -33.11609683 48.36707363 C-33.11155342 45.0586544 -33.11562441 41.75064427 -33.13285828 38.44225693 C-33.15051469 34.85190947 -33.14350064 31.26242102 -33.13032532 27.67207336 C-33.14129456 26.63130262 -33.15226381 25.59053188 -33.16356546 24.51822263 C-33.09357073 16.61789116 -31.46830799 11.218076 -25.89257812 5.515625 C-17.48167713 -0.14555836 -9.86518026 -0.09061245 0 0 Z " fill="#D32F2F" transform="translate(32.642578125,183.671875)"/>
<path d="M0 0 C1.90853648 -0.05430335 3.81752299 -0.09292974 5.7265625 -0.125 C6.78955566 -0.14820312 7.85254883 -0.17140625 8.94775391 -0.1953125 C14.61948387 0.16762015 18.06793815 2.86500824 21.78515625 6.97265625 C25.68998342 11.91138565 27.15548659 15.42691172 27.0625 21.75 C27.05347656 22.54921875 27.04445313 23.3484375 27.03515625 24.171875 C27.02355469 24.77515625 27.01195312 25.3784375 27 26 C28.16015625 26.02126953 28.16015625 26.02126953 29.34375 26.04296875 C36.43651521 26.36776122 41.64708886 27.13588475 47 32 C52.50822127 38.0747123 54.1243338 42.30017433 54.12698364 50.49395752 C54.12854576 51.14728142 54.13010787 51.80060533 54.13171732 52.47372693 C54.13571845 54.67163511 54.13254522 56.86947408 54.12939453 59.06738281 C54.1307199 60.65486725 54.13246728 62.24235138 54.13460159 63.82983494 C54.13911978 68.19686817 54.13722958 72.5638786 54.13417387 76.93091226 C54.13233755 80.67027709 54.13413591 84.40963661 54.13596261 88.14900118 C54.14191848 100.44591459 54.13573317 112.74280947 54.12713432 125.03972006 C54.12429987 129.30307529 54.12214354 133.56643076 54.11996174 137.82978636 C54.10480422 166.8059408 54.06662316 195.78203571 54.0169611 224.75814992 C54.00349909 232.68526143 53.99188714 240.61237421 53.9810791 248.53948975 C53.94791851 272.37946416 53.90012723 296.21929292 53.81288338 320.05913734 C53.80539308 322.11449807 53.79792065 324.16985887 53.79046631 326.22521973 C53.78496405 327.74141563 53.78496405 327.74141563 53.77935064 329.28824174 C53.7545238 336.40728558 53.73989042 343.52630744 53.72955322 350.64538574 C53.71682108 359.31318052 53.69027627 367.98079507 53.64558756 376.64848644 C53.6231794 381.06335478 53.6070537 385.47800434 53.60808182 389.8929348 C53.60882101 393.93084041 53.59113096 397.96823319 53.5588243 402.00600576 C53.55035641 403.46439766 53.54856622 404.92284716 53.55419946 406.38125277 C53.58432698 415.35951127 53.27280656 421.94677215 47.2890625 429.0234375 C46.73992187 429.46945312 46.19078125 429.91546875 45.625 430.375 C44.80902344 431.06722656 44.80902344 431.06722656 43.9765625 431.7734375 C37.56766555 435.75050003 30.88251877 435.26065515 23.6015625 435.1953125 C22.41146576 435.1924826 21.22136902 435.18965271 19.99520874 435.18673706 C16.20503563 435.17556817 12.41510134 435.15046917 8.625 435.125 C6.05078467 435.11496597 3.47656562 435.10584085 0.90234375 435.09765625 C-5.39851858 435.07563957 -11.69924222 435.0421945 -18 435 C-17.401875 434.70738281 -16.80375 434.41476562 -16.1875 434.11328125 C-8.44123638 430.17098637 -3.7294222 425.31057829 -1 417 C-0.55398072 413.41588869 -0.55398072 413.41588869 -0.61523914 409.62622166 C-0.61008924 408.91409292 -0.60493933 408.20196418 -0.59963337 407.46825579 C-0.58604355 405.08775434 -0.59369132 402.70780685 -0.60127258 400.32728577 C-0.595832 398.60119814 -0.58907997 396.87511424 -0.58113068 395.14903635 C-0.56309846 390.41035207 -0.5636633 385.67182444 -0.56726015 380.93311393 C-0.56788368 375.82137064 -0.55126688 370.70968006 -0.53674316 365.59796143 C-0.51394402 356.74303358 -0.50206978 347.88814511 -0.49761391 339.03318977 C-0.49115568 326.23041798 -0.46822403 313.42771741 -0.44127061 300.6249743 C-0.39798801 279.85342713 -0.36802966 259.08188295 -0.34643555 238.31030273 C-0.32543028 218.13255338 -0.29815912 197.95482854 -0.26245117 177.77709961 C-0.26025235 176.53336152 -0.25805352 175.28962343 -0.25578807 174.0081963 C-0.24471853 167.76873284 -0.2335257 161.52926961 -0.22227156 155.28980649 C-0.12906559 103.52655934 -0.05747728 51.7632983 0 0 Z " fill="#E2E2E2" transform="translate(431,27)"/>
<path d="M0 0 C1.90951724 0.11300146 3.81825133 0.23928375 5.7265625 0.37109375 C6.78955566 0.43997803 7.85254883 0.5088623 8.94775391 0.57983398 C15.47992166 1.47903897 19.45609157 5.0175002 23.4375 10.0625 C26.87516426 14.79280095 27.12511094 18.70324068 27.12698364 24.49395752 C27.12854576 25.14728142 27.13010787 25.80060533 27.13171732 26.47372693 C27.13571845 28.67163511 27.13254522 30.86947408 27.12939453 33.06738281 C27.1307199 34.65486725 27.13246728 36.24235138 27.13460159 37.82983494 C27.13911978 42.19686817 27.13722958 46.5638786 27.13417387 50.93091226 C27.13233755 54.67027709 27.13413591 58.40963661 27.13596261 62.14900118 C27.14191848 74.44591459 27.13573317 86.74280947 27.12713432 99.03972006 C27.12429987 103.30307529 27.12214354 107.56643076 27.11996174 111.82978636 C27.10480422 140.8059408 27.06662316 169.78203571 27.0169611 198.75814992 C27.00349909 206.68526143 26.99188714 214.61237421 26.9810791 222.53948975 C26.94791851 246.37946416 26.90012723 270.21929292 26.81288338 294.05913734 C26.80539308 296.11449807 26.79792065 298.16985887 26.79046631 300.22521973 C26.78679814 301.23601699 26.78312997 302.24681426 26.77935064 303.28824174 C26.7545238 310.40728558 26.73989042 317.52630744 26.72955322 324.64538574 C26.71682108 333.31318052 26.69027627 341.98079507 26.64558756 350.64848644 C26.6231794 355.06335478 26.6070537 359.47800434 26.60808182 363.8929348 C26.60882101 367.93084041 26.59113096 371.96823319 26.5588243 376.00600576 C26.55035641 377.46439766 26.54856622 378.92284716 26.55419946 380.38125277 C26.58432698 389.35951127 26.27280656 395.94677215 20.2890625 403.0234375 C19.73992187 403.46945312 19.19078125 403.91546875 18.625 404.375 C17.80902344 405.06722656 17.80902344 405.06722656 16.9765625 405.7734375 C12.35860212 408.63912833 7.85847243 409.24627117 2.5078125 409.1953125 C1.30898438 409.18886719 0.11015625 409.18242187 -1.125 409.17578125 C-2.3625 409.15902344 -3.6 409.14226562 -4.875 409.125 C-6.76605469 409.11146484 -6.76605469 409.11146484 -8.6953125 409.09765625 C-11.7970704 409.07415808 -14.89843652 409.04130334 -18 409 C-17.401875 408.70738281 -16.80375 408.41476562 -16.1875 408.11328125 C-9.73876521 404.83133587 -5.04876339 401.16877218 -2.41163921 394.31485844 C-0.20684225 387.43030349 -0.57675128 380.29687602 -0.60127258 373.14976501 C-0.59582843 371.53744539 -0.58907492 369.92512974 -0.58113068 368.31282049 C-0.56314366 363.89789561 -0.56365774 359.48313927 -0.56726015 355.0681864 C-0.56788485 350.30140136 -0.55125591 345.53467245 -0.53674316 340.76791382 C-0.51396631 332.51434347 -0.50207362 324.26081529 -0.49761391 316.0072155 C-0.49115015 304.07396787 -0.46820876 292.14079646 -0.44127061 280.20757956 C-0.3980096 260.84583525 -0.36803892 241.48409415 -0.34643555 222.12231445 C-0.32542381 203.31630882 -0.298147 184.51032945 -0.26245117 165.7043457 C-0.26025235 164.54476893 -0.25805352 163.38519217 -0.25578807 162.19047671 C-0.24471836 156.3731085 -0.23352556 150.55574054 -0.22227156 144.73837268 C-0.12909617 96.49227169 -0.05749368 48.2461558 0 0 Z " fill="#D1D0D0" transform="translate(458,53)"/>
<path d="M0 0 C1.03049135 -0.00644889 2.06098269 -0.01289778 3.12270105 -0.0195421 C4.25838167 -0.01644489 5.3940623 -0.01334769 6.56415749 -0.01015663 C7.76784088 -0.01468774 8.97152427 -0.01921886 10.21168292 -0.02388728 C13.55878706 -0.03438178 16.90567687 -0.03585301 20.25278234 -0.03349853 C23.86023667 -0.03309118 27.46765868 -0.0441216 31.07509804 -0.05361366 C38.14501354 -0.07024252 45.2148957 -0.07572406 52.28482912 -0.07683842 C58.03033421 -0.077788 63.77582828 -0.08189377 69.52132988 -0.08823967 C85.80285359 -0.1058572 102.08435092 -0.11507774 118.36588423 -0.11357872 C119.68311503 -0.11345885 119.68311503 -0.11345885 121.02695656 -0.11333656 C122.34579151 -0.11321392 122.34579151 -0.11321392 123.69126959 -0.1130888 C137.94320402 -0.11227575 152.19503279 -0.13141694 166.44693665 -0.1596133 C181.07281382 -0.18832172 195.69863943 -0.20215472 210.3245455 -0.20042574 C218.53905803 -0.19976114 226.75345981 -0.20528432 234.96794701 -0.22678185 C241.96162048 -0.24496683 248.95513301 -0.24936318 255.94881986 -0.235763 C259.51809249 -0.22921967 263.0870561 -0.22916476 266.65629959 -0.2464695 C270.52343486 -0.26502591 274.39011567 -0.25268122 278.25727272 -0.23720741 C279.95410149 -0.2526381 279.95410149 -0.2526381 281.68520963 -0.26838052 C289.28507758 -0.20088992 289.28507758 -0.20088992 293.19340897 2.17831039 C297.11911279 6.60352354 297.40203164 10.31869899 297.41269875 16.13226891 C297.43719093 16.82707359 297.46168312 17.52187828 297.4869175 18.23773766 C297.51610999 23.40480873 296.368741 26.34183327 293.03769875 30.25726891 C289.9600422 32.19403175 287.59166848 32.50880037 283.98637772 32.51453781 C282.96147881 32.5209867 281.93657991 32.5274356 280.88062346 32.53407991 C279.75631969 32.53098271 278.63201593 32.5278855 277.47364235 32.52469444 C275.68014463 32.53149111 275.68014463 32.53149111 273.85041463 32.53842509 C270.5303029 32.54890795 267.21040752 32.5503928 263.89029455 32.54803634 C260.31010538 32.54762857 256.72994865 32.55866345 253.14977455 32.56815147 C246.13514016 32.58477094 239.12053938 32.59026144 232.10588695 32.59137623 C226.40475073 32.59232623 220.70362561 32.59643409 215.0024929 32.60277748 C198.84261802 32.62039222 182.68276971 32.62961595 166.52288516 32.62811653 C165.65153341 32.62803662 164.78018166 32.62795671 163.88242531 32.62787437 C162.57380392 32.62775173 162.57380392 32.62775173 161.23874573 32.62762661 C147.09748104 32.62681357 132.95632283 32.64595515 118.81508894 32.67415111 C104.29878643 32.70286679 89.78253588 32.71669214 75.26620424 32.71496356 C67.11483157 32.71429921 58.96357054 32.71981084 50.81222343 32.74131966 C43.87240118 32.75951414 36.93274115 32.76389311 29.99290539 32.75030081 C26.45185474 32.74376239 22.91111549 32.74368499 19.3700943 32.76100731 C15.53182543 32.7795907 11.69401332 32.76720626 7.85572243 32.75174522 C6.7358801 32.76203235 5.61603778 32.77231948 4.46226084 32.78291833 C-1.65452679 32.72830332 -5.31692522 32.37413903 -9.96230125 28.25726891 C-12.65013031 24.76153748 -12.32951871 20.62375428 -12.33730125 16.38226891 C-12.36179344 15.68746422 -12.38628563 14.99265953 -12.41152 14.27680016 C-12.44074448 9.10406822 -11.23429634 6.21437488 -7.96230125 2.25726891 C-4.69566967 0.07951452 -3.77993987 0.0059682 0 0 Z " fill="#FED4D8" transform="translate(87.96230125427246,45.74273109436035)"/>
<path d="M0 0 C1.0285003 -0.00445784 2.0570006 -0.00891569 3.11666757 -0.01350862 C4.25526103 -0.01332426 5.3938545 -0.01313989 6.5669508 -0.01294994 C8.37119425 -0.01846498 8.37119425 -0.01846498 10.21188706 -0.02409142 C13.5611933 -0.03323035 16.91045049 -0.03783059 20.25976455 -0.04048073 C23.86791014 -0.04437936 27.47604147 -0.05395795 31.08417797 -0.0626936 C39.80275731 -0.08246994 48.52133783 -0.09252544 57.239934 -0.10142139 C61.34312359 -0.10580214 65.44631189 -0.11116948 69.54950047 -0.11641026 C83.18487086 -0.13342327 96.82024043 -0.14791841 110.45561981 -0.155159 C113.9952682 -0.15706897 117.53491657 -0.15898929 121.07456493 -0.16094494 C122.39424814 -0.16167055 122.39424814 -0.16167055 123.74059161 -0.16241082 C137.99905087 -0.17071471 152.25742632 -0.19605735 166.51584897 -0.22852562 C181.14620868 -0.26156994 195.77652576 -0.27960535 210.406923 -0.28280324 C218.62481136 -0.28497072 226.84257751 -0.29375404 235.06042957 -0.31926441 C242.05777859 -0.34093554 249.05497572 -0.34903958 256.05235449 -0.33929763 C259.6236515 -0.3347425 263.19463487 -0.33670886 266.76588917 -0.35605907 C270.63525467 -0.37684384 274.50418447 -0.36673893 278.37359142 -0.35352612 C279.50549272 -0.36449536 280.63739402 -0.37546461 281.80359536 -0.38676625 C289.40824249 -0.3237988 289.40824249 -0.3237988 293.31663322 2.05508614 C297.27043948 6.51278215 297.49992096 10.21936049 297.47324657 16.07172108 C297.48935986 16.77490467 297.50547314 17.47808826 297.5220747 18.20258045 C297.5262991 22.71001795 297.04020193 25.6274334 294.16074657 29.13422108 C290.65220836 31.60696693 288.26230317 32.50939093 283.9835844 32.5117445 C282.95607775 32.51956774 281.9285711 32.52739098 280.86992788 32.53545129 C279.74785484 32.52875913 278.62578179 32.52206696 277.46970654 32.515172 C276.2724814 32.51985198 275.07525626 32.52453195 273.84175158 32.52935374 C270.52186033 32.53925107 267.20247806 32.53568696 263.88261771 32.52639508 C260.3010999 32.51961094 256.71962675 32.53008266 253.13811779 32.53833485 C246.12326198 32.55168118 239.10850242 32.54879045 232.09364283 32.54009692 C226.3929955 32.53332432 220.69237516 32.53240182 214.99172497 32.53566837 C214.18066519 32.53612807 213.36960541 32.53658777 212.53396806 32.5370614 C210.88636338 32.53802057 209.23875871 32.53899321 207.59115404 32.53997917 C192.13819573 32.5485357 176.68529079 32.53869482 161.23234123 32.52257808 C147.97033112 32.50917465 134.70839979 32.51150267 121.44639111 32.52533436 C106.04907862 32.54138553 90.65181292 32.54771171 75.25449324 32.53849757 C73.61291823 32.53754191 71.97134321 32.5365988 70.32976818 32.53566837 C69.52206237 32.53520555 68.71435656 32.53474272 67.88217482 32.53426587 C62.18776378 32.53167459 56.49338239 32.53604994 50.79897594 32.54310703 C43.86025901 32.5515171 36.9216439 32.54925233 29.98293865 32.5332648 C26.44206155 32.52537538 22.90135428 32.52230179 19.3604784 32.53221226 C15.52415156 32.54278734 11.68810341 32.53016823 7.85178661 32.515172 C6.16867705 32.52521025 6.16867705 32.52521025 4.45156527 32.53545129 C2.91030529 32.52371643 2.91030529 32.52371643 1.33790874 32.5117445 C0.00972551 32.51101391 0.00972551 32.51101391 -1.34528971 32.51026857 C-5.3912186 31.90021101 -8.04480892 30.09765927 -10.62050343 26.97406483 C-12.26489296 23.14242639 -12.35360245 19.82565373 -12.33925343 15.69672108 C-12.3676128 14.9587328 -12.39597218 14.22074451 -12.42519093 13.46039295 C-12.43966928 9.38835625 -12.03958957 6.87284062 -9.43300343 3.66156483 C-6.01877498 0.33474886 -4.6168018 0.00925031 0 0 Z " fill="#FED4D8" transform="translate(87.83925342559814,123.86577892303467)"/>
<path d="M0 0 C7.7192724 0.11027532 13.5032561 2.69225056 18.9375 8.25 C22.44211552 13.63275234 23.52113985 18.30707721 23.43870544 24.65054321 C23.44700704 25.86113594 23.44700704 25.86113594 23.45547634 27.09618509 C23.46900757 29.7801014 23.45415522 32.46307555 23.43920898 35.14697266 C23.44299484 37.07928358 23.44849708 39.01159179 23.45558167 40.94389343 C23.46951677 46.17724267 23.45838088 51.41026244 23.44187045 56.64359331 C23.42799912 62.12473324 23.43448226 67.60585446 23.43800354 73.08700562 C23.44070355 82.28852639 23.4272464 91.48991655 23.40405273 100.69140625 C23.37742856 111.32744832 23.37570173 121.96327228 23.3874411 132.59933627 C23.39822106 142.83704901 23.39203109 153.0746829 23.37788582 163.31238937 C23.37212953 167.66712687 23.37220587 172.02180661 23.37695122 176.37654495 C23.38172452 181.50333025 23.37160456 186.62987672 23.34999657 191.75661659 C23.34443395 193.63756187 23.34395858 195.51853012 23.34894943 197.39947701 C23.35490925 199.96772406 23.34238408 202.53524262 23.32518005 205.10342407 C23.33419512 206.21879828 23.33419512 206.21879828 23.34339231 207.35670531 C23.26843303 213.5137263 21.60618136 217.41017184 17.5 221.9375 C12.60698485 226.35314781 9.45532866 228.37686854 2.75532532 228.37025452 C1.14624298 228.37231651 1.14624298 228.37231651 -0.49534607 228.37442017 C-1.67210403 228.37082489 -2.848862 228.36722961 -4.0612793 228.36352539 C-5.30042084 228.36367142 -6.53956238 228.36381744 -7.81625366 228.3639679 C-11.21475172 228.36339015 -14.61318921 228.35837098 -18.01167655 228.35139394 C-21.56310584 228.34514741 -25.11453591 228.34455557 -28.66596985 228.34336853 C-35.39136993 228.34025905 -42.11675377 228.33205082 -48.84214669 228.32201904 C-56.49865843 228.31084601 -64.15517093 228.30534445 -71.81168878 228.30032361 C-87.56196859 228.2898679 -103.3122322 228.27227586 -119.0625 228.25 C-117.0625 226.25 -117.0625 226.25 -113.6875 224.4375 C-109.00980913 221.82149409 -106.12138287 218.17753558 -104.0625 213.25 C-103.77769194 211.1757375 -103.57375776 209.08928561 -103.4375 207 C-103.36273438 205.92234375 -103.28796875 204.8446875 -103.2109375 203.734375 C-103.13746094 202.50460937 -103.13746094 202.50460937 -103.0625 201.25 C-102.06771133 201.24635437 -101.07292267 201.24270874 -100.04798889 201.23895264 C-90.64698293 201.20192017 -81.24630204 201.14405768 -71.84554386 201.06609726 C-67.01314551 201.02668366 -62.18092772 200.99446525 -57.34838867 200.97900391 C-52.67973225 200.96379694 -48.01157241 200.92928005 -43.34313774 200.88169098 C-41.56711596 200.86691873 -39.79102327 200.85896138 -38.01494026 200.85811615 C-23.77448873 201.19229025 -23.77448873 201.19229025 -11.50257874 194.83856201 C-6.74198855 189.56484832 -5.76503416 184.55743914 -5.79075623 177.67010498 C-5.78312597 176.53769469 -5.78312597 176.53769469 -5.77534157 175.38240743 C-5.76069961 172.85742529 -5.76014766 170.33263877 -5.75952148 167.80761719 C-5.75185918 165.99571351 -5.74331259 164.1838134 -5.73394775 162.37191772 C-5.71567899 158.47322957 -5.70363427 154.5745893 -5.69640923 150.67586517 C-5.6849284 144.51703164 -5.65947644 138.35830437 -5.63209534 132.19952393 C-5.59045672 122.46504963 -5.55803342 112.73057026 -5.52962118 102.99604917 C-5.47860955 85.54492653 -5.41662236 68.0938477 -5.34428078 50.64280057 C-5.31930116 44.51392012 -5.29989608 38.3850539 -5.28489864 32.25614119 C-5.27472947 28.45391655 -5.26058437 24.65171405 -5.24542236 20.84950638 C-5.23924205 19.07933953 -5.23479673 17.3091657 -5.23216438 15.53899002 C-5.22838094 13.13327203 -5.21859245 10.72765289 -5.20726013 8.32196045 C-5.20764626 7.6123494 -5.2080324 6.90273836 -5.20843023 6.17162395 C-5.16822879 0.10637864 -5.16822879 0.10637864 0 0 Z " fill="#BF2D2D" transform="translate(489.0625,260.75)"/>
<path d="M0 0 C46.19817292 0 46.19817292 0 55.29298401 8.87072754 C63.13570792 18.65346896 62.72788769 30.06265774 62.62890625 41.90625 C62.62973699 43.72123354 62.6322041 45.53621699 62.63621521 47.35119629 C62.63905809 51.13687045 62.62452103 54.92194804 62.59692383 58.70751953 C62.56284375 63.52888473 62.56887381 68.34918467 62.5875864 73.17060089 C62.59821959 76.91303181 62.5891616 80.65522033 62.57420158 84.39762878 C62.56906554 86.17399879 62.56944509 87.95039461 62.57574654 89.72676086 C62.60245864 101.77766978 62.5715583 114.35488913 53.640625 123.6015625 C39.129487 135.97058013 17.09609866 130 0 130 C0 87.1 0 44.2 0 0 Z " fill="#F6F3F3" transform="translate(164,310)"/>
<path d="M0 0 C44.36842105 0 44.36842105 0 51.75 6.375 C57.62592208 13.23024242 60.24881159 19.01990719 60.265625 28.0859375 C60.26849518 29.07685898 60.26849518 29.07685898 60.27142334 30.08779907 C60.27277686 31.47780745 60.26913893 32.86782883 60.26074219 34.2578125 C60.25006457 36.36227482 60.26064757 38.46587696 60.2734375 40.5703125 C60.28559338 51.07805755 59.59789996 59.48304326 53 68 C48.35709135 72.64290865 45.57888685 73.53291743 39 76 C32.73 76 26.46 76 20 76 C20 93.49 20 110.98 20 129 C13.4 129 6.8 129 0 129 C0 86.43 0 43.86 0 0 Z " fill="#F6F6F6" transform="translate(93,311)"/>
<path d="M0 0 C17.82 0 35.64 0 54 0 C54 6.27 54 12.54 54 19 C42.78 19 31.56 19 20 19 C20 30.88 20 42.76 20 55 C28.91 55 37.82 55 47 55 C47 61.27 47 67.54 47 74 C38.09 74 29.18 74 20 74 C20 92.48 20 110.96 20 130 C13.4 130 6.8 130 0 130 C0 87.1 0 44.2 0 0 Z " fill="#F6F4F4" transform="translate(240,310)"/>
<path d="M0 0 C13.0650792 -0.09269069 26.13008014 -0.16376058 39.19542122 -0.20724869 C45.26223492 -0.22812109 51.32882361 -0.25643301 57.39550781 -0.30175781 C63.25047898 -0.34522702 69.10523376 -0.36913972 74.96035385 -0.37950897 C77.19388104 -0.38689833 79.42739641 -0.40132799 81.66083145 -0.42292023 C84.78993552 -0.45196775 87.91814603 -0.45595534 91.04736328 -0.45410156 C91.97021622 -0.46848267 92.89306915 -0.48286377 93.84388733 -0.49768066 C100.39963587 -0.45567069 103.98779306 1.16686269 108.83984375 5.73046875 C110.58996123 9.15409923 110.57343019 12.54927608 110.5625 16.3125 C110.5622583 17.075625 110.5620166 17.83875 110.56176758 18.625 C110.42795492 22.98964025 110.10223326 26.04147322 107.1875 29.5 C102.93824059 33.44499145 98.35782458 33.13875169 92.85668945 33.11352539 C91.61245209 33.11374443 91.61245209 33.11374443 90.34307861 33.1139679 C87.59978628 33.11327092 84.85656173 33.10548853 82.11328125 33.09765625 C80.21184832 33.09579131 78.31041491 33.09436776 76.40898132 33.09336853 C71.40305252 33.08954936 66.3971527 33.07972416 61.39123535 33.06866455 C56.28361402 33.05843756 51.175988 33.05386815 46.06835938 33.04882812 C36.04556018 33.03810138 26.0227825 33.02103212 16 33 C15.67 33.66 15.34 34.32 15 35 C12.85897547 30.33909589 10.72285932 25.67598655 8.59130859 21.01074219 C7.86512378 19.42320795 7.13758924 17.83629041 6.40869141 16.25 C5.36267346 13.97295413 4.32149146 11.69375197 3.28125 9.4140625 C2.95314331 8.70255035 2.62503662 7.99103821 2.2869873 7.25796509 C0 2.22774341 0 2.22774341 0 0 Z " fill="#FED4D8" transform="translate(182,201)"/>
<path d="M0 0 C13 0 13 0 18 3 C21.17925794 6.95032172 21.43172018 10.55056677 21.38818359 15.44897461 C21.39344055 16.18133835 21.39869751 16.91370209 21.40411377 17.66825867 C21.41727542 20.07983984 21.40858874 22.49075631 21.3984375 24.90234375 C21.40045956 26.58476386 21.40337211 28.26718311 21.40713501 29.94960022 C21.41155334 33.4725887 21.40514402 36.99534867 21.39111328 40.51831055 C21.37403475 45.02531378 21.38385706 49.53178051 21.40183067 54.038764 C21.41269308 57.51241568 21.4092107 60.98594107 21.4014473 64.45959663 C21.39945139 66.12091702 21.40188309 67.78224901 21.40888596 69.44355583 C21.41653961 71.76988779 21.40484185 74.09536243 21.38818359 76.42163086 C21.39729263 77.44347473 21.39729263 77.44347473 21.40658569 78.48596191 C21.3464156 83.04166152 20.50994536 86.19087724 18 90 C13 93 13 93 0 93 C0 62.31 0 31.62 0 0 Z " fill="#D33333" transform="translate(185,329)"/>
<path d="M0 0 C13 0 13 0 18 3 C21.32546106 7.71551508 20.32821081 13.8573626 20.3125 19.375 C20.32861328 20.4990625 20.34472656 21.623125 20.36132812 22.78125 C20.36763594 33.45407158 20.36763594 33.45407158 17 38 C13 40 13 40 0 40 C0 26.8 0 13.6 0 0 Z " fill="#D33232" transform="translate(113,329)"/>
</svg>
