<?xml version="1.0" encoding="UTF-8"?>
<svg version="1.1" xmlns="http://www.w3.org/2000/svg" width="512" height="512">
<path d="M0 0 C1.88615273 -0.01279495 1.88615273 -0.01279495 3.81040955 -0.02584839 C5.19633497 -0.02514942 6.58226029 -0.02422639 7.96818542 -0.02310181 C9.43375999 -0.02908891 10.8993314 -0.03589488 12.36489868 -0.04345703 C16.34023649 -0.06110676 20.31548817 -0.065812 24.29086137 -0.0670886 C26.77663646 -0.06851146 29.26238974 -0.07278363 31.74815941 -0.07808304 C40.42633323 -0.09658064 49.10444566 -0.10475408 57.78263855 -0.10317993 C65.8618889 -0.10197893 73.94087192 -0.12307366 82.02005464 -0.15466726 C88.96460943 -0.18085257 95.90907703 -0.19154627 102.85368079 -0.19026911 C106.99774209 -0.1897601 111.14156581 -0.19540959 115.28557777 -0.21662521 C119.18532379 -0.23604553 123.08460655 -0.23610652 126.98436928 -0.22159195 C128.41135844 -0.21950735 129.83837688 -0.22418395 131.26531601 -0.23631287 C140.36503415 -0.30861779 146.92554892 0.03273389 154.00016785 6.23226929 C154.53899597 6.88324585 155.0778241 7.53422241 155.63298035 8.20492554 C156.18727722 8.85332397 156.7415741 9.50172241 157.31266785 10.16976929 C160.30909109 14.51863221 161.00932752 18.27508706 161.02540588 23.50944519 C161.03820084 25.39559792 161.03820084 25.39559792 161.05125427 27.31985474 C161.05055531 28.70578016 161.04963228 30.09170548 161.04850769 31.47763062 C161.0544948 32.94320518 161.06130077 34.40877659 161.06886292 35.87434387 C161.08651265 39.84968168 161.09121789 43.82493336 161.09249449 47.80030656 C161.09391735 50.28608165 161.09818952 52.77183493 161.10348892 55.2576046 C161.12198653 63.93577842 161.13015996 72.61389085 161.12858582 81.29208374 C161.12738482 89.37133409 161.14847954 97.45031711 161.18007314 105.52949983 C161.20625846 112.47405462 161.21695215 119.41852222 161.215675 126.36312598 C161.21516598 130.50718728 161.22081548 134.651011 161.2420311 138.79502296 C161.26145141 142.69476898 161.26151241 146.59405174 161.24699783 150.49381447 C161.24491324 151.92080363 161.24958983 153.34782207 161.26171875 154.7747612 C161.33402367 163.87447934 160.992672 170.43499411 154.7931366 177.50961304 C154.14216003 178.04844116 153.49118347 178.58726929 152.82048035 179.14242554 C152.17208191 179.69672241 151.52368347 180.25101929 150.8556366 180.82211304 C146.50677368 183.81853628 142.75031882 184.51877271 137.51596069 184.53485107 C135.62980797 184.54764603 135.62980797 184.54764603 133.70555115 184.56069946 C132.31962573 184.5600005 130.93370041 184.55907747 129.54777527 184.55795288 C128.08220071 184.56393999 126.61662929 184.57074596 125.15106201 184.57830811 C121.1757242 184.59595784 117.20047253 184.60066308 113.22509933 184.60193968 C110.73932423 184.60336254 108.25357095 184.60763471 105.76780128 184.61293411 C97.08962746 184.63143172 88.41151503 184.63960515 79.73332214 184.63803101 C71.6540718 184.63683001 63.57508877 184.65792473 55.49590605 184.68951833 C48.55135127 184.71570365 41.60688366 184.72639734 34.6622799 184.72512019 C30.51821861 184.72461117 26.37439488 184.73026067 22.23038292 184.75147629 C18.33063691 184.7708966 14.43135414 184.7709576 10.53159142 184.75644302 C9.10460226 184.75435843 7.67758382 184.75903502 6.25064468 184.77116394 C-2.84907346 184.84346887 -9.40958823 184.50211719 -16.48420715 178.30258179 C-17.29244934 177.32611694 -17.29244934 177.32611694 -18.11701965 176.32992554 C-18.67131653 175.6815271 -19.2256134 175.03312866 -19.79670715 174.36508179 C-22.7931304 170.01621887 -23.49336683 166.25976401 -23.50944519 161.02540588 C-23.51797516 159.76797073 -23.52650513 158.51053558 -23.53529358 157.21499634 C-23.53459461 155.82907092 -23.53367158 154.4431456 -23.532547 153.05722046 C-23.5385341 151.5916459 -23.54534007 150.12607448 -23.55290222 148.6605072 C-23.57055195 144.68516939 -23.57525719 140.70991772 -23.57653379 136.73454452 C-23.57795665 134.24876942 -23.58222882 131.76301614 -23.58752823 129.27724648 C-23.60602584 120.59907265 -23.61419927 111.92096022 -23.61262512 103.24276733 C-23.61142412 95.16351699 -23.63251885 87.08453396 -23.66411245 79.00535125 C-23.69029776 72.06079646 -23.70099146 65.11632885 -23.6997143 58.17172509 C-23.69920529 54.0276638 -23.70485478 49.88384007 -23.7260704 45.73982811 C-23.74549072 41.8400821 -23.74555171 37.94079933 -23.73103714 34.04103661 C-23.72895254 32.61404745 -23.73362914 31.18702901 -23.74575806 29.76008987 C-23.81806298 20.66037173 -23.47671131 14.09985696 -17.2771759 7.02523804 C-16.62619934 6.48640991 -15.97522278 5.94758179 -15.30451965 5.39242554 C-14.65612122 4.83812866 -14.00772278 4.28383179 -13.3396759 3.71273804 C-8.99081298 0.7163148 -5.23435813 0.01607836 0 0 Z " fill="#D58651" transform="translate(71.24201965332031,327.7325744628906)"/>
<path d="M0 0 C1.88615273 -0.01279495 1.88615273 -0.01279495 3.81040955 -0.02584839 C5.19633497 -0.02514942 6.58226029 -0.02422639 7.96818542 -0.02310181 C9.43375999 -0.02908891 10.8993314 -0.03589488 12.36489868 -0.04345703 C16.34023649 -0.06110676 20.31548817 -0.065812 24.29086137 -0.0670886 C26.77663646 -0.06851146 29.26238974 -0.07278363 31.74815941 -0.07808304 C40.42633323 -0.09658064 49.10444566 -0.10475408 57.78263855 -0.10317993 C65.8618889 -0.10197893 73.94087192 -0.12307366 82.02005464 -0.15466726 C88.96460943 -0.18085257 95.90907703 -0.19154627 102.85368079 -0.19026911 C106.99774209 -0.1897601 111.14156581 -0.19540959 115.28557777 -0.21662521 C119.18532379 -0.23604553 123.08460655 -0.23610652 126.98436928 -0.22159195 C128.41135844 -0.21950735 129.83837688 -0.22418395 131.26531601 -0.23631287 C140.36503415 -0.30861779 146.92554892 0.03273389 154.00016785 6.23226929 C154.53899597 6.88324585 155.0778241 7.53422241 155.63298035 8.20492554 C156.18727722 8.85332397 156.7415741 9.50172241 157.31266785 10.16976929 C160.30909109 14.51863221 161.00932752 18.27508706 161.02540588 23.50944519 C161.03820084 25.39559792 161.03820084 25.39559792 161.05125427 27.31985474 C161.05055531 28.70578016 161.04963228 30.09170548 161.04850769 31.47763062 C161.0544948 32.94320518 161.06130077 34.40877659 161.06886292 35.87434387 C161.08651265 39.84968168 161.09121789 43.82493336 161.09249449 47.80030656 C161.09391735 50.28608165 161.09818952 52.77183493 161.10348892 55.2576046 C161.12198653 63.93577842 161.13015996 72.61389085 161.12858582 81.29208374 C161.12738482 89.37133409 161.14847954 97.45031711 161.18007314 105.52949983 C161.20625846 112.47405462 161.21695215 119.41852222 161.215675 126.36312598 C161.21516598 130.50718728 161.22081548 134.651011 161.2420311 138.79502296 C161.26145141 142.69476898 161.26151241 146.59405174 161.24699783 150.49381447 C161.24491324 151.92080363 161.24958983 153.34782207 161.26171875 154.7747612 C161.33402367 163.87447934 160.992672 170.43499411 154.7931366 177.50961304 C154.14216003 178.04844116 153.49118347 178.58726929 152.82048035 179.14242554 C152.17208191 179.69672241 151.52368347 180.25101929 150.8556366 180.82211304 C146.50677368 183.81853628 142.75031882 184.51877271 137.51596069 184.53485107 C135.62980797 184.54764603 135.62980797 184.54764603 133.70555115 184.56069946 C132.31962573 184.5600005 130.93370041 184.55907747 129.54777527 184.55795288 C128.08220071 184.56393999 126.61662929 184.57074596 125.15106201 184.57830811 C121.1757242 184.59595784 117.20047253 184.60066308 113.22509933 184.60193968 C110.73932423 184.60336254 108.25357095 184.60763471 105.76780128 184.61293411 C97.08962746 184.63143172 88.41151503 184.63960515 79.73332214 184.63803101 C71.6540718 184.63683001 63.57508877 184.65792473 55.49590605 184.68951833 C48.55135127 184.71570365 41.60688366 184.72639734 34.6622799 184.72512019 C30.51821861 184.72461117 26.37439488 184.73026067 22.23038292 184.75147629 C18.33063691 184.7708966 14.43135414 184.7709576 10.53159142 184.75644302 C9.10460226 184.75435843 7.67758382 184.75903502 6.25064468 184.77116394 C-2.84907346 184.84346887 -9.40958823 184.50211719 -16.48420715 178.30258179 C-17.29244934 177.32611694 -17.29244934 177.32611694 -18.11701965 176.32992554 C-18.67131653 175.6815271 -19.2256134 175.03312866 -19.79670715 174.36508179 C-22.7931304 170.01621887 -23.49336683 166.25976401 -23.50944519 161.02540588 C-23.51797516 159.76797073 -23.52650513 158.51053558 -23.53529358 157.21499634 C-23.53459461 155.82907092 -23.53367158 154.4431456 -23.532547 153.05722046 C-23.5385341 151.5916459 -23.54534007 150.12607448 -23.55290222 148.6605072 C-23.57055195 144.68516939 -23.57525719 140.70991772 -23.57653379 136.73454452 C-23.57795665 134.24876942 -23.58222882 131.76301614 -23.58752823 129.27724648 C-23.60602584 120.59907265 -23.61419927 111.92096022 -23.61262512 103.24276733 C-23.61142412 95.16351699 -23.63251885 87.08453396 -23.66411245 79.00535125 C-23.69029776 72.06079646 -23.70099146 65.11632885 -23.6997143 58.17172509 C-23.69920529 54.0276638 -23.70485478 49.88384007 -23.7260704 45.73982811 C-23.74549072 41.8400821 -23.74555171 37.94079933 -23.73103714 34.04103661 C-23.72895254 32.61404745 -23.73362914 31.18702901 -23.74575806 29.76008987 C-23.81806298 20.66037173 -23.47671131 14.09985696 -17.2771759 7.02523804 C-16.62619934 6.48640991 -15.97522278 5.94758179 -15.30451965 5.39242554 C-14.65612122 4.83812866 -14.00772278 4.28383179 -13.3396759 3.71273804 C-8.99081298 0.7163148 -5.23435813 0.01607836 0 0 Z " fill="#FEDA7F" transform="translate(67.24201965332031,39.732574462890625)"/>
<path d="M0 0 C1.12280869 -0.00852997 2.24561737 -0.01705994 3.40245056 -0.02584839 C5.2361319 -0.02448883 5.2361319 -0.02448883 7.1068573 -0.02310181 C8.40171555 -0.02981903 9.69657379 -0.03653625 11.03067017 -0.04345703 C14.57627168 -0.06109577 18.12177661 -0.06581154 21.66741776 -0.0670886 C23.88517839 -0.06851212 26.10291462 -0.07278554 28.32066917 -0.07808304 C36.06516956 -0.09657721 43.80960119 -0.10475454 51.55412292 -0.10317993 C58.76088163 -0.10197912 65.96734057 -0.12307101 73.17402345 -0.15466726 C79.37123987 -0.18086458 85.56835861 -0.19154577 91.76562995 -0.19026911 C95.46257205 -0.18976043 99.15924771 -0.19539093 102.85613441 -0.21662521 C106.98288406 -0.23968206 111.10896705 -0.23046568 115.23576355 -0.21841431 C116.45214508 -0.22965332 117.66852661 -0.24089233 118.92176819 -0.25247192 C126.92725279 -0.19310684 132.41729127 0.80766978 138.60758972 6.23226929 C139.14641785 6.88324585 139.68524597 7.53422241 140.24040222 8.20492554 C140.7946991 8.85332397 141.34899597 9.50172241 141.92008972 10.16976929 C144.76541965 14.29934273 145.61568988 17.92604066 145.63282776 22.90202332 C145.64562271 24.58623634 145.64562271 24.58623634 145.65867615 26.30447388 C145.65731659 28.13815521 145.65731659 28.13815521 145.65592957 30.00888062 C145.66264679 31.30373886 145.66936401 32.59859711 145.67628479 33.93269348 C145.69392353 37.478295 145.6986393 41.02379993 145.69991636 44.56944108 C145.70133988 46.78720171 145.7056133 49.00493793 145.7109108 51.22269249 C145.72940497 58.96719288 145.7375823 66.7116245 145.73600769 74.45614624 C145.73480688 81.66290495 145.75589877 88.86936389 145.78749502 96.07604676 C145.81369234 102.27326319 145.82437352 108.47038192 145.82309687 114.66765326 C145.82258819 118.36459536 145.82821869 122.06127103 145.84945297 125.75815773 C145.87250982 129.88490738 145.86329344 134.01099037 145.85124207 138.13778687 C145.86248108 139.3541684 145.87372009 140.57054993 145.88529968 141.8237915 C145.8259346 149.82927611 144.82515798 155.31931459 139.40055847 161.50961304 C138.74958191 162.04844116 138.09860535 162.58726929 137.42790222 163.14242554 C136.77950378 163.69672241 136.13110535 164.25101929 135.46305847 164.82211304 C131.33348503 167.66744297 127.7067871 168.51771319 122.73080444 168.53485107 C121.04659142 168.54764603 121.04659142 168.54764603 119.32835388 168.56069946 C118.10589966 168.55979309 116.88344543 168.55888672 115.62394714 168.55795288 C114.3290889 168.5646701 113.03423065 168.57138733 111.70013428 168.57830811 C108.15453276 168.59594684 104.60902783 168.60066262 101.06338668 168.60193968 C98.84562605 168.60336319 96.62788983 168.60763661 94.41013527 168.61293411 C86.66563488 168.63142829 78.92120326 168.63960561 71.17668152 168.63803101 C63.96992281 168.63683019 56.76346387 168.65792208 49.55678099 168.68951833 C43.35956457 168.71571565 37.16244584 168.72639684 30.9651745 168.72512019 C27.2682324 168.72461151 23.57155673 168.730242 19.87467003 168.75147629 C15.74792038 168.77453314 11.62183739 168.76531676 7.49504089 168.75326538 C6.27865936 168.76450439 5.06227783 168.77574341 3.80903625 168.787323 C-4.19644835 168.72795792 -9.68648683 167.7271813 -15.87678528 162.30258179 C-16.68502747 161.32611694 -16.68502747 161.32611694 -17.50959778 160.32992554 C-18.06389465 159.6815271 -18.61819153 159.03312866 -19.18928528 158.36508179 C-22.03461521 154.23550834 -22.88488544 150.60881041 -22.90202332 145.63282776 C-22.91055328 144.51001907 -22.91908325 143.38721039 -22.9278717 142.2303772 C-22.92696533 141.00792297 -22.92605896 139.78546875 -22.92512512 138.52597046 C-22.93520096 136.58368309 -22.93520096 136.58368309 -22.94548035 134.60215759 C-22.96311908 131.05655607 -22.96783486 127.51105115 -22.96911192 123.96540999 C-22.97053544 121.74764937 -22.97480885 119.52991314 -22.98010635 117.31215858 C-22.99860053 109.5676582 -23.00677785 101.82322657 -23.00520325 94.07870483 C-23.00400243 86.87194613 -23.02509432 79.66548719 -23.05669057 72.45880431 C-23.0828879 66.26158788 -23.09356908 60.06446915 -23.09229243 53.86719781 C-23.09178375 50.17025571 -23.09741424 46.47358004 -23.11864853 42.77669334 C-23.14170538 38.6499437 -23.132489 34.52386071 -23.12043762 30.39706421 C-23.13167664 29.18068268 -23.14291565 27.96430115 -23.15449524 26.71105957 C-23.09513016 18.70557496 -22.09435354 13.21553648 -16.66975403 7.02523804 C-16.01877747 6.48640991 -15.3678009 5.94758179 -14.69709778 5.39242554 C-14.04869934 4.83812866 -13.4003009 4.28383179 -12.73225403 3.71273804 C-8.60268058 0.8674081 -4.97598265 0.01713788 0 0 Z " fill="#80D8E2" transform="translate(322.6345977783203,343.7325744628906)"/>
<path d="M0 0 C1.05549545 -0.00852997 2.11099091 -0.01705994 3.19847107 -0.02584839 C4.34611938 -0.02494202 5.4937677 -0.02403564 6.67619324 -0.02310181 C7.89302292 -0.02981903 9.1098526 -0.03653625 10.36355591 -0.04345703 C13.69434575 -0.05918574 17.02488621 -0.06581125 20.35569596 -0.0670886 C22.43944946 -0.06851251 24.52317702 -0.07278667 26.60692406 -0.07808304 C33.88458789 -0.09657517 41.16217857 -0.10475481 48.43986511 -0.10317993 C55.21037932 -0.10197923 61.98057438 -0.12306942 68.75100785 -0.15466726 C74.57455524 -0.18087175 80.39799867 -0.19154547 86.22160453 -0.19026911 C89.69498816 -0.18976063 93.16808813 -0.19537977 96.64141273 -0.21662521 C100.51901688 -0.23969678 104.396188 -0.23046115 108.27384949 -0.21841431 C109.41542511 -0.22965332 110.55700073 -0.24089233 111.73316956 -0.25247192 C119.51371498 -0.19112457 124.89737777 0.96222885 130.91130066 6.23226929 C131.45012878 6.88324585 131.98895691 7.53422241 132.54411316 8.20492554 C133.09841003 8.85332397 133.65270691 9.50172241 134.22380066 10.16976929 C136.99088147 14.18577576 137.91878011 17.7546864 137.9365387 22.59831238 C137.94933365 24.18155556 137.94933365 24.18155556 137.96238708 25.79678345 C137.96102753 27.51825592 137.96102753 27.51825592 137.9596405 29.27450562 C137.96635773 30.4913353 137.97307495 31.70816498 137.97999573 32.96186829 C137.99572444 36.29265813 138.00234995 39.62319859 138.0036273 42.95400834 C138.00505121 45.03776184 138.00932537 47.12148939 138.01462173 49.20523643 C138.03311386 56.48290027 138.04129351 63.76049094 138.03971863 71.03817749 C138.03851792 77.80869169 138.05960812 84.57888675 138.09120595 91.34932023 C138.11741044 97.17286762 138.12808416 102.99631105 138.12680781 108.8199169 C138.12629933 112.29330054 138.13191847 115.76640051 138.15316391 119.23972511 C138.17623548 123.11732926 138.16699985 126.99450038 138.154953 130.87216187 C138.16619202 132.01373749 138.17743103 133.15531311 138.18901062 134.33148193 C138.12766327 142.11202735 136.97430985 147.49569015 131.70426941 153.50961304 C131.05329285 154.04844116 130.40231628 154.58726929 129.73161316 155.14242554 C129.08321472 155.69672241 128.43481628 156.25101929 127.76676941 156.82211304 C123.75076294 159.58919385 120.1818523 160.51709249 115.33822632 160.53485107 C114.28273087 160.54338104 113.22723541 160.55191101 112.13975525 160.56069946 C110.99210693 160.55979309 109.84445862 160.55888672 108.66203308 160.55795288 C107.4452034 160.5646701 106.22837372 160.57138733 104.97467041 160.57830811 C101.64388057 160.59403681 98.31334011 160.60066233 94.98253036 160.60193968 C92.89877685 160.60336359 90.8150493 160.60763775 88.73130226 160.61293411 C81.45363843 160.63142624 74.17604775 160.63960588 66.89836121 160.63803101 C60.127847 160.6368303 53.35765194 160.6579205 46.58721846 160.68951833 C40.76367108 160.71572282 34.94022764 160.72639654 29.11662179 160.72512019 C25.64323816 160.72461171 22.17013819 160.73023085 18.69681358 160.75147629 C14.81920944 160.77454786 10.94203831 160.76531222 7.06437683 160.75326538 C5.92280121 160.76450439 4.78122559 160.77574341 3.60505676 160.787323 C-4.17548866 160.72597565 -9.55915146 159.57262223 -15.57307434 154.30258179 C-16.38131653 153.32611694 -16.38131653 153.32611694 -17.20588684 152.32992554 C-17.76018372 151.6815271 -18.31448059 151.03312866 -18.88557434 150.36508179 C-21.65265515 146.34907532 -22.58055379 142.78016468 -22.59831238 137.9365387 C-22.60684235 136.88104324 -22.61537231 135.82554779 -22.62416077 134.73806763 C-22.62325439 133.59041931 -22.62234802 132.442771 -22.62141418 131.26034546 C-22.62813141 130.04351578 -22.63484863 128.8266861 -22.64176941 127.57298279 C-22.65749812 124.24219294 -22.66412363 120.91165249 -22.66540098 117.58084273 C-22.66682489 115.49708923 -22.67109905 113.41336168 -22.67639542 111.32961464 C-22.69488754 104.05195081 -22.70306719 96.77436013 -22.70149231 89.49667358 C-22.7002916 82.72615938 -22.7213818 75.95596432 -22.75297964 69.18553084 C-22.77918412 63.36198345 -22.78985784 57.53854002 -22.78858149 51.71493417 C-22.78807301 48.24155054 -22.79369215 44.76845056 -22.81493759 41.29512596 C-22.83800916 37.41752181 -22.82877353 33.54035069 -22.81672668 29.66268921 C-22.8279657 28.52111359 -22.83920471 27.37953796 -22.8507843 26.20336914 C-22.78943695 18.42282372 -21.63608353 13.03916092 -16.36604309 7.02523804 C-15.71506653 6.48640991 -15.06408997 5.94758179 -14.39338684 5.39242554 C-13.7449884 4.83812866 -13.09658997 4.28383179 -12.42854309 3.71273804 C-8.41253662 0.94565723 -4.84362598 0.01775858 0 0 Z " fill="#FB775D" transform="translate(322.3308868408203,-0.267425537109375)"/>
<path d="M0 0 C0.98818222 -0.00852997 1.97636444 -0.01705994 2.99449158 -0.02584839 C4.60375519 -0.02448883 4.60375519 -0.02448883 6.24552917 -0.02310181 C7.38433029 -0.02981903 8.52313141 -0.03653625 9.69644165 -0.04345703 C13.46179059 -0.06245747 17.22696145 -0.06636235 20.99235535 -0.06851196 C23.61163405 -0.07493863 26.23091202 -0.0816669 28.85018921 -0.08868408 C34.34200702 -0.10146482 39.83377663 -0.10445006 45.3256073 -0.10317993 C51.65987811 -0.10197935 57.99380774 -0.12306762 64.32799226 -0.15466726 C70.43570078 -0.18404391 76.54324649 -0.19115405 82.65102196 -0.18996048 C85.24292582 -0.19231844 87.8348323 -0.20115289 90.42669106 -0.21662521 C94.05539231 -0.23625795 97.68321958 -0.23045663 101.31193542 -0.21841431 C102.37870514 -0.22965332 103.44547485 -0.24089233 104.54457092 -0.25247192 C112.06381494 -0.18918061 117.49999471 1.22416215 123.2150116 6.23226929 C123.75383972 6.88324585 124.29266785 7.53422241 124.8478241 8.20492554 C125.40212097 8.85332397 125.95641785 9.50172241 126.5275116 10.16976929 C129.21446187 14.06947819 130.22179274 17.58538123 130.24024963 22.29460144 C130.25304459 23.77687477 130.25304459 23.77687477 130.26609802 25.28909302 C130.26473846 26.89835663 130.26473846 26.89835663 130.26335144 28.54013062 C130.27006866 29.67893173 130.27678589 30.81773285 130.28370667 31.99104309 C130.30270711 35.75639203 130.30661199 39.52156289 130.3087616 43.28695679 C130.31518827 45.90623549 130.32191653 48.52551346 130.32893372 51.14479065 C130.34171445 56.63660846 130.3446997 62.12837807 130.34342957 67.62020874 C130.34222898 73.95447955 130.36331725 80.28840918 130.39491689 86.6225937 C130.42429354 92.73030222 130.43140368 98.83784793 130.43021011 104.9456234 C130.43256808 107.53752726 130.44140253 110.12943374 130.45687485 112.7212925 C130.47650758 116.34999375 130.47070626 119.97782102 130.45866394 123.60653687 C130.46990295 124.67330658 130.48114197 125.74007629 130.49272156 126.83917236 C130.42943024 134.35841638 129.01608748 139.79459615 124.00798035 145.50961304 C123.35700378 146.04844116 122.70602722 146.58726929 122.0353241 147.14242554 C121.38692566 147.69672241 120.73852722 148.25101929 120.07048035 148.82211304 C116.17077144 151.50906331 112.65486841 152.51639418 107.94564819 152.53485107 C106.95746597 152.54338104 105.96928375 152.55191101 104.95115662 152.56069946 C103.87831421 152.55979309 102.8054718 152.55888672 101.70011902 152.55795288 C100.5613179 152.5646701 99.42251678 152.57138733 98.24920654 152.57830811 C94.48385761 152.59730855 90.71868674 152.60121343 86.95329285 152.60336304 C84.33401415 152.60978971 81.71473617 152.61651797 79.09545898 152.62353516 C73.60364117 152.63631589 68.11187157 152.63930114 62.62004089 152.63803101 C56.28577008 152.63683043 49.95184045 152.65791869 43.61765593 152.68951833 C37.50994741 152.71889498 31.40240171 152.72600512 25.29462624 152.72481155 C22.70272237 152.72716952 20.1108159 152.73600397 17.51895714 152.75147629 C13.89025588 152.77110903 10.26242861 152.7653077 6.63371277 152.75326538 C5.56694305 152.76450439 4.50017334 152.77574341 3.40107727 152.787323 C-4.11816674 152.72403168 -9.55434651 151.31068892 -15.2693634 146.30258179 C-16.07760559 145.32611694 -16.07760559 145.32611694 -16.9021759 144.32992554 C-17.45647278 143.6815271 -18.01076965 143.03312866 -18.5818634 142.36508179 C-21.26881367 138.46537288 -22.27614455 134.94946985 -22.29460144 130.24024963 C-22.30313141 129.25206741 -22.31166138 128.26388519 -22.32044983 127.24575806 C-22.31954346 126.17291565 -22.31863708 125.10007324 -22.31770325 123.99472046 C-22.32442047 122.85591934 -22.3311377 121.71711823 -22.33805847 120.54380798 C-22.35705891 116.77845905 -22.3609638 113.01328818 -22.3631134 109.24789429 C-22.36954008 106.62861559 -22.37626834 104.00933761 -22.38328552 101.39006042 C-22.39606626 95.89824261 -22.3990515 90.40647301 -22.39778137 84.91464233 C-22.39658079 78.58037152 -22.41766906 72.24644189 -22.4492687 65.91225737 C-22.47864535 59.80454885 -22.48575549 53.69700315 -22.48456192 47.58922768 C-22.48691989 44.99732381 -22.49575433 42.40541734 -22.51122665 39.81355858 C-22.53085939 36.18485732 -22.52505807 32.55703005 -22.51301575 28.92831421 C-22.52425476 27.86154449 -22.53549377 26.79477478 -22.54707336 25.69567871 C-22.48378205 18.1764347 -21.07043929 12.74025493 -16.06233215 7.02523804 C-15.41135559 6.48640991 -14.76037903 5.94758179 -14.0896759 5.39242554 C-13.44127747 4.83812866 -12.79287903 4.28383179 -12.12483215 3.71273804 C-8.22512325 1.02578777 -4.70922021 0.01845689 0 0 Z " fill="#E0EAF3" transform="translate(270.0271759033203,175.73257446289063)"/>
<path d="M0 0 C1.88615273 -0.01279495 1.88615273 -0.01279495 3.81040955 -0.02584839 C5.19633497 -0.02514942 6.58226029 -0.02422639 7.96818542 -0.02310181 C9.43375999 -0.02908891 10.8993314 -0.03589488 12.36489868 -0.04345703 C16.34023649 -0.06110676 20.31548817 -0.065812 24.29086137 -0.0670886 C26.77663646 -0.06851146 29.26238974 -0.07278363 31.74815941 -0.07808304 C40.42633323 -0.09658064 49.10444566 -0.10475408 57.78263855 -0.10317993 C65.8618889 -0.10197893 73.94087192 -0.12307366 82.02005464 -0.15466726 C88.96460943 -0.18085257 95.90907703 -0.19154627 102.85368079 -0.19026911 C106.99774209 -0.1897601 111.14156581 -0.19540959 115.28557777 -0.21662521 C119.18532379 -0.23604553 123.08460655 -0.23610652 126.98436928 -0.22159195 C128.41135844 -0.21950735 129.83837688 -0.22418395 131.26531601 -0.23631287 C140.36503415 -0.30861779 146.92554892 0.03273389 154.00016785 6.23226929 C154.53899597 6.88324585 155.0778241 7.53422241 155.63298035 8.20492554 C156.18727722 8.85332397 156.7415741 9.50172241 157.31266785 10.16976929 C160.30909109 14.51863221 161.00932752 18.27508706 161.02540588 23.50944519 C161.03820084 25.39559792 161.03820084 25.39559792 161.05125427 27.31985474 C161.05055531 28.70578016 161.04963228 30.09170548 161.04850769 31.47763062 C161.0544948 32.94320518 161.06130077 34.40877659 161.06886292 35.87434387 C161.08651265 39.84968168 161.09121789 43.82493336 161.09249449 47.80030656 C161.09391735 50.28608165 161.09818952 52.77183493 161.10348892 55.2576046 C161.12198653 63.93577842 161.13015996 72.61389085 161.12858582 81.29208374 C161.12738482 89.37133409 161.14847954 97.45031711 161.18007314 105.52949983 C161.20625846 112.47405462 161.21695215 119.41852222 161.215675 126.36312598 C161.21516598 130.50718728 161.22081548 134.651011 161.2420311 138.79502296 C161.26145141 142.69476898 161.26151241 146.59405174 161.24699783 150.49381447 C161.24491324 151.92080363 161.24958983 153.34782207 161.26171875 154.7747612 C161.33402367 163.87447934 160.992672 170.43499411 154.7931366 177.50961304 C154.14216003 178.04844116 153.49118347 178.58726929 152.82048035 179.14242554 C152.17208191 179.69672241 151.52368347 180.25101929 150.8556366 180.82211304 C146.50677368 183.81853628 142.75031882 184.51877271 137.51596069 184.53485107 C135.62980797 184.54764603 135.62980797 184.54764603 133.70555115 184.56069946 C132.31962573 184.5600005 130.93370041 184.55907747 129.54777527 184.55795288 C128.08220071 184.56393999 126.61662929 184.57074596 125.15106201 184.57830811 C121.1757242 184.59595784 117.20047253 184.60066308 113.22509933 184.60193968 C110.73932423 184.60336254 108.25357095 184.60763471 105.76780128 184.61293411 C97.08962746 184.63143172 88.41151503 184.63960515 79.73332214 184.63803101 C71.6540718 184.63683001 63.57508877 184.65792473 55.49590605 184.68951833 C48.55135127 184.71570365 41.60688366 184.72639734 34.6622799 184.72512019 C30.51821861 184.72461117 26.37439488 184.73026067 22.23038292 184.75147629 C18.33063691 184.7708966 14.43135414 184.7709576 10.53159142 184.75644302 C9.10460226 184.75435843 7.67758382 184.75903502 6.25064468 184.77116394 C-2.84907346 184.84346887 -9.40958823 184.50211719 -16.48420715 178.30258179 C-17.29244934 177.32611694 -17.29244934 177.32611694 -18.11701965 176.32992554 C-18.67131653 175.6815271 -19.2256134 175.03312866 -19.79670715 174.36508179 C-22.7931304 170.01621887 -23.49336683 166.25976401 -23.50944519 161.02540588 C-23.51797516 159.76797073 -23.52650513 158.51053558 -23.53529358 157.21499634 C-23.53459461 155.82907092 -23.53367158 154.4431456 -23.532547 153.05722046 C-23.5385341 151.5916459 -23.54534007 150.12607448 -23.55290222 148.6605072 C-23.57055195 144.68516939 -23.57525719 140.70991772 -23.57653379 136.73454452 C-23.57795665 134.24876942 -23.58222882 131.76301614 -23.58752823 129.27724648 C-23.60602584 120.59907265 -23.61419927 111.92096022 -23.61262512 103.24276733 C-23.61142412 95.16351699 -23.63251885 87.08453396 -23.66411245 79.00535125 C-23.69029776 72.06079646 -23.70099146 65.11632885 -23.6997143 58.17172509 C-23.69920529 54.0276638 -23.70485478 49.88384007 -23.7260704 45.73982811 C-23.74549072 41.8400821 -23.74555171 37.94079933 -23.73103714 34.04103661 C-23.72895254 32.61404745 -23.73362914 31.18702901 -23.74575806 29.76008987 C-23.81806298 20.66037173 -23.47671131 14.09985696 -17.2771759 7.02523804 C-16.62619934 6.48640991 -15.97522278 5.94758179 -15.30451965 5.39242554 C-14.65612122 4.83812866 -14.00772278 4.28383179 -13.3396759 3.71273804 C-8.99081298 0.7163148 -5.23435813 0.01607836 0 0 Z M-5.54679871 17.96264648 C-8.32963927 23.38770521 -7.93569072 28.78363532 -7.88899231 34.79086304 C-7.89577106 36.18249658 -7.90467565 37.57412114 -7.9155426 38.96572876 C-7.93831275 42.73859961 -7.92950965 46.5107859 -7.91364717 50.28366852 C-7.90097607 54.23449022 -7.91273163 58.18525385 -7.920578 62.13607788 C-7.92967109 68.77046213 -7.91769579 75.40456795 -7.89387512 82.03890991 C-7.86666423 89.70594025 -7.87547866 97.37230577 -7.90300715 105.03931999 C-7.92570712 111.62548953 -7.92889404 118.21145908 -7.9158138 124.79765511 C-7.90802407 128.72980774 -7.90696424 132.66164803 -7.92349625 136.59378052 C-7.93795501 140.29095279 -7.92789517 143.98726914 -7.89902496 147.68434906 C-7.88927473 149.68600797 -7.90410246 151.68773939 -7.91966248 153.68936157 C-7.8620263 158.57221601 -7.79259527 162.19409598 -5.54679871 166.57220459 C-0.12173998 169.35504515 5.27419013 168.9610966 11.28141785 168.91439819 C12.67305139 168.92117694 14.06467595 168.93008153 15.45628357 168.94094849 C19.22915442 168.96371863 23.00134071 168.95491553 26.77422333 168.93905306 C30.72504503 168.92638196 34.67580866 168.93813752 38.62663269 168.94598389 C45.26101694 168.95507697 51.89512276 168.94310168 58.52946472 168.91928101 C66.19649506 168.89207012 73.86286058 168.90088454 81.5298748 168.92841303 C88.11604434 168.95111301 94.70201389 168.95429993 101.28820992 168.94121969 C105.22036255 168.93342995 109.15220284 168.93237012 113.08433533 168.94890213 C116.78150759 168.96336089 120.47782394 168.95330105 124.17490387 168.92443085 C126.17656278 168.91468062 128.1782942 168.92950834 130.17991638 168.94506836 C135.06277082 168.88743218 138.68465079 168.81800115 143.0627594 166.57220459 C145.84559996 161.14714586 145.45165141 155.75121576 145.404953 149.74398804 C145.41173175 148.3523545 145.42063634 146.96072993 145.4315033 145.56912231 C145.45427344 141.79625147 145.44547034 138.02406518 145.42960787 134.25118256 C145.41693677 130.30036086 145.42869233 126.34959723 145.4365387 122.39877319 C145.44563178 115.76438895 145.43365649 109.13028312 145.40983582 102.49594116 C145.38262493 94.82891083 145.39143935 87.16254531 145.41896784 79.49553108 C145.44166782 72.90936155 145.44485474 66.32339199 145.4317745 59.73719597 C145.42398476 55.80504333 145.42292493 51.87320305 145.43945694 47.94107056 C145.4539157 44.24389829 145.44385586 40.54758194 145.41498566 36.85050201 C145.40523543 34.8488431 145.42006315 32.84711168 145.43562317 30.8454895 C145.37798699 25.96263506 145.30855596 22.34075509 143.0627594 17.96264648 C137.63770067 15.17980592 132.24177057 15.57375447 126.23454285 15.62045288 C124.84290931 15.61367413 123.45128474 15.60476954 122.05967712 15.59390259 C118.28680628 15.57113244 114.51461999 15.57993555 110.74173737 15.59579802 C106.79091567 15.60846912 102.84015204 15.59671356 98.889328 15.58886719 C92.25494376 15.5797741 85.62083793 15.5917494 78.98649597 15.61557007 C71.31946564 15.64278096 63.65310012 15.63396653 55.98608589 15.60643804 C49.39991636 15.58373807 42.8139468 15.58055115 36.22775078 15.59363139 C32.29559814 15.60142112 28.36375786 15.60248095 24.43162537 15.58594894 C20.7344531 15.57149019 17.03813675 15.58155002 13.34105682 15.61042023 C11.33939791 15.62017046 9.33766649 15.60534273 7.33604431 15.58978271 C2.45318987 15.64741889 -1.1686901 15.71684993 -5.54679871 17.96264648 Z " fill="#2D4355" transform="translate(71.24201965332031,327.7325744628906)"/>
<path d="M0 0 C1.88615273 -0.01279495 1.88615273 -0.01279495 3.81040955 -0.02584839 C5.19633497 -0.02514942 6.58226029 -0.02422639 7.96818542 -0.02310181 C9.43375999 -0.02908891 10.8993314 -0.03589488 12.36489868 -0.04345703 C16.34023649 -0.06110676 20.31548817 -0.065812 24.29086137 -0.0670886 C26.77663646 -0.06851146 29.26238974 -0.07278363 31.74815941 -0.07808304 C40.42633323 -0.09658064 49.10444566 -0.10475408 57.78263855 -0.10317993 C65.8618889 -0.10197893 73.94087192 -0.12307366 82.02005464 -0.15466726 C88.96460943 -0.18085257 95.90907703 -0.19154627 102.85368079 -0.19026911 C106.99774209 -0.1897601 111.14156581 -0.19540959 115.28557777 -0.21662521 C119.18532379 -0.23604553 123.08460655 -0.23610652 126.98436928 -0.22159195 C128.41135844 -0.21950735 129.83837688 -0.22418395 131.26531601 -0.23631287 C140.36503415 -0.30861779 146.92554892 0.03273389 154.00016785 6.23226929 C154.53899597 6.88324585 155.0778241 7.53422241 155.63298035 8.20492554 C156.18727722 8.85332397 156.7415741 9.50172241 157.31266785 10.16976929 C160.30909109 14.51863221 161.00932752 18.27508706 161.02540588 23.50944519 C161.03820084 25.39559792 161.03820084 25.39559792 161.05125427 27.31985474 C161.05055531 28.70578016 161.04963228 30.09170548 161.04850769 31.47763062 C161.0544948 32.94320518 161.06130077 34.40877659 161.06886292 35.87434387 C161.08651265 39.84968168 161.09121789 43.82493336 161.09249449 47.80030656 C161.09391735 50.28608165 161.09818952 52.77183493 161.10348892 55.2576046 C161.12198653 63.93577842 161.13015996 72.61389085 161.12858582 81.29208374 C161.12738482 89.37133409 161.14847954 97.45031711 161.18007314 105.52949983 C161.20625846 112.47405462 161.21695215 119.41852222 161.215675 126.36312598 C161.21516598 130.50718728 161.22081548 134.651011 161.2420311 138.79502296 C161.26145141 142.69476898 161.26151241 146.59405174 161.24699783 150.49381447 C161.24491324 151.92080363 161.24958983 153.34782207 161.26171875 154.7747612 C161.33402367 163.87447934 160.992672 170.43499411 154.7931366 177.50961304 C154.14216003 178.04844116 153.49118347 178.58726929 152.82048035 179.14242554 C152.17208191 179.69672241 151.52368347 180.25101929 150.8556366 180.82211304 C146.50677368 183.81853628 142.75031882 184.51877271 137.51596069 184.53485107 C135.62980797 184.54764603 135.62980797 184.54764603 133.70555115 184.56069946 C132.31962573 184.5600005 130.93370041 184.55907747 129.54777527 184.55795288 C128.08220071 184.56393999 126.61662929 184.57074596 125.15106201 184.57830811 C121.1757242 184.59595784 117.20047253 184.60066308 113.22509933 184.60193968 C110.73932423 184.60336254 108.25357095 184.60763471 105.76780128 184.61293411 C97.08962746 184.63143172 88.41151503 184.63960515 79.73332214 184.63803101 C71.6540718 184.63683001 63.57508877 184.65792473 55.49590605 184.68951833 C48.55135127 184.71570365 41.60688366 184.72639734 34.6622799 184.72512019 C30.51821861 184.72461117 26.37439488 184.73026067 22.23038292 184.75147629 C18.33063691 184.7708966 14.43135414 184.7709576 10.53159142 184.75644302 C9.10460226 184.75435843 7.67758382 184.75903502 6.25064468 184.77116394 C-2.84907346 184.84346887 -9.40958823 184.50211719 -16.48420715 178.30258179 C-17.29244934 177.32611694 -17.29244934 177.32611694 -18.11701965 176.32992554 C-18.67131653 175.6815271 -19.2256134 175.03312866 -19.79670715 174.36508179 C-22.7931304 170.01621887 -23.49336683 166.25976401 -23.50944519 161.02540588 C-23.51797516 159.76797073 -23.52650513 158.51053558 -23.53529358 157.21499634 C-23.53459461 155.82907092 -23.53367158 154.4431456 -23.532547 153.05722046 C-23.5385341 151.5916459 -23.54534007 150.12607448 -23.55290222 148.6605072 C-23.57055195 144.68516939 -23.57525719 140.70991772 -23.57653379 136.73454452 C-23.57795665 134.24876942 -23.58222882 131.76301614 -23.58752823 129.27724648 C-23.60602584 120.59907265 -23.61419927 111.92096022 -23.61262512 103.24276733 C-23.61142412 95.16351699 -23.63251885 87.08453396 -23.66411245 79.00535125 C-23.69029776 72.06079646 -23.70099146 65.11632885 -23.6997143 58.17172509 C-23.69920529 54.0276638 -23.70485478 49.88384007 -23.7260704 45.73982811 C-23.74549072 41.8400821 -23.74555171 37.94079933 -23.73103714 34.04103661 C-23.72895254 32.61404745 -23.73362914 31.18702901 -23.74575806 29.76008987 C-23.81806298 20.66037173 -23.47671131 14.09985696 -17.2771759 7.02523804 C-16.62619934 6.48640991 -15.97522278 5.94758179 -15.30451965 5.39242554 C-14.65612122 4.83812866 -14.00772278 4.28383179 -13.3396759 3.71273804 C-8.99081298 0.7163148 -5.23435813 0.01607836 0 0 Z M-5.54679871 17.96264648 C-8.32963927 23.38770521 -7.93569072 28.78363532 -7.88899231 34.79086304 C-7.89577106 36.18249658 -7.90467565 37.57412114 -7.9155426 38.96572876 C-7.93831275 42.73859961 -7.92950965 46.5107859 -7.91364717 50.28366852 C-7.90097607 54.23449022 -7.91273163 58.18525385 -7.920578 62.13607788 C-7.92967109 68.77046213 -7.91769579 75.40456795 -7.89387512 82.03890991 C-7.86666423 89.70594025 -7.87547866 97.37230577 -7.90300715 105.03931999 C-7.92570712 111.62548953 -7.92889404 118.21145908 -7.9158138 124.79765511 C-7.90802407 128.72980774 -7.90696424 132.66164803 -7.92349625 136.59378052 C-7.93795501 140.29095279 -7.92789517 143.98726914 -7.89902496 147.68434906 C-7.88927473 149.68600797 -7.90410246 151.68773939 -7.91966248 153.68936157 C-7.8620263 158.57221601 -7.79259527 162.19409598 -5.54679871 166.57220459 C-0.12173998 169.35504515 5.27419013 168.9610966 11.28141785 168.91439819 C12.67305139 168.92117694 14.06467595 168.93008153 15.45628357 168.94094849 C19.22915442 168.96371863 23.00134071 168.95491553 26.77422333 168.93905306 C30.72504503 168.92638196 34.67580866 168.93813752 38.62663269 168.94598389 C45.26101694 168.95507697 51.89512276 168.94310168 58.52946472 168.91928101 C66.19649506 168.89207012 73.86286058 168.90088454 81.5298748 168.92841303 C88.11604434 168.95111301 94.70201389 168.95429993 101.28820992 168.94121969 C105.22036255 168.93342995 109.15220284 168.93237012 113.08433533 168.94890213 C116.78150759 168.96336089 120.47782394 168.95330105 124.17490387 168.92443085 C126.17656278 168.91468062 128.1782942 168.92950834 130.17991638 168.94506836 C135.06277082 168.88743218 138.68465079 168.81800115 143.0627594 166.57220459 C145.84559996 161.14714586 145.45165141 155.75121576 145.404953 149.74398804 C145.41173175 148.3523545 145.42063634 146.96072993 145.4315033 145.56912231 C145.45427344 141.79625147 145.44547034 138.02406518 145.42960787 134.25118256 C145.41693677 130.30036086 145.42869233 126.34959723 145.4365387 122.39877319 C145.44563178 115.76438895 145.43365649 109.13028312 145.40983582 102.49594116 C145.38262493 94.82891083 145.39143935 87.16254531 145.41896784 79.49553108 C145.44166782 72.90936155 145.44485474 66.32339199 145.4317745 59.73719597 C145.42398476 55.80504333 145.42292493 51.87320305 145.43945694 47.94107056 C145.4539157 44.24389829 145.44385586 40.54758194 145.41498566 36.85050201 C145.40523543 34.8488431 145.42006315 32.84711168 145.43562317 30.8454895 C145.37798699 25.96263506 145.30855596 22.34075509 143.0627594 17.96264648 C137.63770067 15.17980592 132.24177057 15.57375447 126.23454285 15.62045288 C124.84290931 15.61367413 123.45128474 15.60476954 122.05967712 15.59390259 C118.28680628 15.57113244 114.51461999 15.57993555 110.74173737 15.59579802 C106.79091567 15.60846912 102.84015204 15.59671356 98.889328 15.58886719 C92.25494376 15.5797741 85.62083793 15.5917494 78.98649597 15.61557007 C71.31946564 15.64278096 63.65310012 15.63396653 55.98608589 15.60643804 C49.39991636 15.58373807 42.8139468 15.58055115 36.22775078 15.59363139 C32.29559814 15.60142112 28.36375786 15.60248095 24.43162537 15.58594894 C20.7344531 15.57149019 17.03813675 15.58155002 13.34105682 15.61042023 C11.33939791 15.62017046 9.33766649 15.60534273 7.33604431 15.58978271 C2.45318987 15.64741889 -1.1686901 15.71684993 -5.54679871 17.96264648 Z " fill="#2D4356" transform="translate(67.24201965332031,39.732574462890625)"/>
<path d="M0 0 C1.12280869 -0.00852997 2.24561737 -0.01705994 3.40245056 -0.02584839 C5.2361319 -0.02448883 5.2361319 -0.02448883 7.1068573 -0.02310181 C8.40171555 -0.02981903 9.69657379 -0.03653625 11.03067017 -0.04345703 C14.57627168 -0.06109577 18.12177661 -0.06581154 21.66741776 -0.0670886 C23.88517839 -0.06851212 26.10291462 -0.07278554 28.32066917 -0.07808304 C36.06516956 -0.09657721 43.80960119 -0.10475454 51.55412292 -0.10317993 C58.76088163 -0.10197912 65.96734057 -0.12307101 73.17402345 -0.15466726 C79.37123987 -0.18086458 85.56835861 -0.19154577 91.76562995 -0.19026911 C95.46257205 -0.18976043 99.15924771 -0.19539093 102.85613441 -0.21662521 C106.98288406 -0.23968206 111.10896705 -0.23046568 115.23576355 -0.21841431 C116.45214508 -0.22965332 117.66852661 -0.24089233 118.92176819 -0.25247192 C126.92725279 -0.19310684 132.41729127 0.80766978 138.60758972 6.23226929 C139.14641785 6.88324585 139.68524597 7.53422241 140.24040222 8.20492554 C140.7946991 8.85332397 141.34899597 9.50172241 141.92008972 10.16976929 C144.76541965 14.29934273 145.61568988 17.92604066 145.63282776 22.90202332 C145.64562271 24.58623634 145.64562271 24.58623634 145.65867615 26.30447388 C145.65731659 28.13815521 145.65731659 28.13815521 145.65592957 30.00888062 C145.66264679 31.30373886 145.66936401 32.59859711 145.67628479 33.93269348 C145.69392353 37.478295 145.6986393 41.02379993 145.69991636 44.56944108 C145.70133988 46.78720171 145.7056133 49.00493793 145.7109108 51.22269249 C145.72940497 58.96719288 145.7375823 66.7116245 145.73600769 74.45614624 C145.73480688 81.66290495 145.75589877 88.86936389 145.78749502 96.07604676 C145.81369234 102.27326319 145.82437352 108.47038192 145.82309687 114.66765326 C145.82258819 118.36459536 145.82821869 122.06127103 145.84945297 125.75815773 C145.87250982 129.88490738 145.86329344 134.01099037 145.85124207 138.13778687 C145.86248108 139.3541684 145.87372009 140.57054993 145.88529968 141.8237915 C145.8259346 149.82927611 144.82515798 155.31931459 139.40055847 161.50961304 C138.74958191 162.04844116 138.09860535 162.58726929 137.42790222 163.14242554 C136.77950378 163.69672241 136.13110535 164.25101929 135.46305847 164.82211304 C131.33348503 167.66744297 127.7067871 168.51771319 122.73080444 168.53485107 C121.04659142 168.54764603 121.04659142 168.54764603 119.32835388 168.56069946 C118.10589966 168.55979309 116.88344543 168.55888672 115.62394714 168.55795288 C114.3290889 168.5646701 113.03423065 168.57138733 111.70013428 168.57830811 C108.15453276 168.59594684 104.60902783 168.60066262 101.06338668 168.60193968 C98.84562605 168.60336319 96.62788983 168.60763661 94.41013527 168.61293411 C86.66563488 168.63142829 78.92120326 168.63960561 71.17668152 168.63803101 C63.96992281 168.63683019 56.76346387 168.65792208 49.55678099 168.68951833 C43.35956457 168.71571565 37.16244584 168.72639684 30.9651745 168.72512019 C27.2682324 168.72461151 23.57155673 168.730242 19.87467003 168.75147629 C15.74792038 168.77453314 11.62183739 168.76531676 7.49504089 168.75326538 C6.27865936 168.76450439 5.06227783 168.77574341 3.80903625 168.787323 C-4.19644835 168.72795792 -9.68648683 167.7271813 -15.87678528 162.30258179 C-16.68502747 161.32611694 -16.68502747 161.32611694 -17.50959778 160.32992554 C-18.06389465 159.6815271 -18.61819153 159.03312866 -19.18928528 158.36508179 C-22.03461521 154.23550834 -22.88488544 150.60881041 -22.90202332 145.63282776 C-22.91055328 144.51001907 -22.91908325 143.38721039 -22.9278717 142.2303772 C-22.92696533 141.00792297 -22.92605896 139.78546875 -22.92512512 138.52597046 C-22.93520096 136.58368309 -22.93520096 136.58368309 -22.94548035 134.60215759 C-22.96311908 131.05655607 -22.96783486 127.51105115 -22.96911192 123.96540999 C-22.97053544 121.74764937 -22.97480885 119.52991314 -22.98010635 117.31215858 C-22.99860053 109.5676582 -23.00677785 101.82322657 -23.00520325 94.07870483 C-23.00400243 86.87194613 -23.02509432 79.66548719 -23.05669057 72.45880431 C-23.0828879 66.26158788 -23.09356908 60.06446915 -23.09229243 53.86719781 C-23.09178375 50.17025571 -23.09741424 46.47358004 -23.11864853 42.77669334 C-23.14170538 38.6499437 -23.132489 34.52386071 -23.12043762 30.39706421 C-23.13167664 29.18068268 -23.14291565 27.96430115 -23.15449524 26.71105957 C-23.09513016 18.70557496 -22.09435354 13.21553648 -16.66975403 7.02523804 C-16.01877747 6.48640991 -15.3678009 5.94758179 -14.69709778 5.39242554 C-14.04869934 4.83812866 -13.4003009 4.28383179 -12.73225403 3.71273804 C-8.60268058 0.8674081 -4.97598265 0.01713788 0 0 Z M-4.84757996 18.05444336 C-7.61878373 23.03695009 -7.33087028 27.70899408 -7.28157043 33.32211304 C-7.29033203 34.5437616 -7.29909363 35.76541016 -7.30812073 37.02407837 C-7.32633983 40.36753234 -7.32209574 43.70943639 -7.3062253 47.05280304 C-7.29354567 50.55519153 -7.30531211 54.05751485 -7.31315613 57.55990601 C-7.32224678 63.44104878 -7.31028049 69.32187737 -7.28645325 75.20297241 C-7.25924262 81.99752671 -7.26805723 88.79133081 -7.29558527 95.58586693 C-7.31829237 101.42470396 -7.32146876 107.26331546 -7.30839193 113.10218239 C-7.30060602 116.5872184 -7.29953156 120.07190206 -7.31607437 123.55691528 C-7.33323099 127.44248501 -7.30943717 131.32721787 -7.28157043 135.21273804 C-7.29169159 136.36509949 -7.30181274 137.51746094 -7.3122406 138.70474243 C-7.25085033 143.31944911 -7.1127142 146.40779251 -4.84757996 150.48040771 C0.13492677 153.25161148 4.80697076 152.96369804 10.42008972 152.91439819 C12.25256256 152.92754059 12.25256256 152.92754059 14.12205505 152.94094849 C17.46550902 152.95916759 20.80741308 152.9549235 24.15077972 152.93905306 C27.65316821 152.92637343 31.15549153 152.93813987 34.65788269 152.94598389 C40.53902546 152.95507454 46.41985405 152.94310825 52.3009491 152.91928101 C59.09550339 152.89207038 65.88930749 152.90088499 72.68384361 152.92841303 C78.52268065 152.95112012 84.36129214 152.95429652 90.20015907 152.94121969 C93.68519509 152.93343378 97.16987874 152.93235932 100.65489197 152.94890213 C104.5404617 152.96605875 108.42519455 152.94226493 112.31071472 152.91439819 C114.0392569 152.92957993 114.0392569 152.92957993 115.80271912 152.94506836 C120.41742579 152.88367809 123.5057692 152.74554196 127.5783844 150.48040771 C130.34958817 145.49790099 130.06167473 140.82585699 130.01237488 135.21273804 C130.02113647 133.99108948 130.02989807 132.76944092 130.03892517 131.51077271 C130.05714427 128.16731873 130.05290018 124.82541468 130.03702974 121.48204803 C130.02435011 117.97965955 130.03611655 114.47733622 130.04396057 110.97494507 C130.05305122 105.0938023 130.04108493 99.21297371 130.01725769 93.33187866 C129.99004706 86.53732437 129.99886167 79.74352027 130.02638972 72.94898415 C130.04909681 67.11014711 130.0522732 61.27153562 130.03919637 55.43266869 C130.03141046 51.94763267 130.030336 48.46294902 130.04687881 44.97793579 C130.06403543 41.09236606 130.04024162 37.20763321 130.01237488 33.32211304 C130.02249603 32.16975159 130.03261719 31.01739014 130.04304504 29.83010864 C129.98165477 25.21540197 129.84351864 22.12705856 127.5783844 18.05444336 C122.59587767 15.28323959 117.92383368 15.57115303 112.31071472 15.62045288 C110.47824188 15.60731049 110.47824188 15.60731049 108.60874939 15.59390259 C105.26529542 15.57568349 101.92339136 15.57992758 98.58002472 15.59579802 C95.07763623 15.60847765 91.57531291 15.59671121 88.07292175 15.58886719 C82.19177898 15.57977654 76.31095039 15.59174283 70.42985535 15.61557007 C63.63530105 15.6427807 56.84149695 15.63396609 50.04696083 15.60643804 C44.2081238 15.58373095 38.3695123 15.58055455 32.53064537 15.59363139 C29.04560936 15.6014173 25.5609257 15.60249176 22.07591248 15.58594894 C18.19034275 15.56879233 14.30560989 15.59258614 10.42008972 15.62045288 C9.26772827 15.61033173 8.11536682 15.60021057 6.92808533 15.58978271 C2.31337865 15.65117299 -0.77496475 15.78930912 -4.84757996 18.05444336 Z " fill="#2D4356" transform="translate(322.6345977783203,343.7325744628906)"/>
<path d="M0 0 C1.05549545 -0.00852997 2.11099091 -0.01705994 3.19847107 -0.02584839 C4.34611938 -0.02494202 5.4937677 -0.02403564 6.67619324 -0.02310181 C7.89302292 -0.02981903 9.1098526 -0.03653625 10.36355591 -0.04345703 C13.69434575 -0.05918574 17.02488621 -0.06581125 20.35569596 -0.0670886 C22.43944946 -0.06851251 24.52317702 -0.07278667 26.60692406 -0.07808304 C33.88458789 -0.09657517 41.16217857 -0.10475481 48.43986511 -0.10317993 C55.21037932 -0.10197923 61.98057438 -0.12306942 68.75100785 -0.15466726 C74.57455524 -0.18087175 80.39799867 -0.19154547 86.22160453 -0.19026911 C89.69498816 -0.18976063 93.16808813 -0.19537977 96.64141273 -0.21662521 C100.51901688 -0.23969678 104.396188 -0.23046115 108.27384949 -0.21841431 C109.41542511 -0.22965332 110.55700073 -0.24089233 111.73316956 -0.25247192 C119.51371498 -0.19112457 124.89737777 0.96222885 130.91130066 6.23226929 C131.45012878 6.88324585 131.98895691 7.53422241 132.54411316 8.20492554 C133.09841003 8.85332397 133.65270691 9.50172241 134.22380066 10.16976929 C136.99088147 14.18577576 137.91878011 17.7546864 137.9365387 22.59831238 C137.94933365 24.18155556 137.94933365 24.18155556 137.96238708 25.79678345 C137.96102753 27.51825592 137.96102753 27.51825592 137.9596405 29.27450562 C137.96635773 30.4913353 137.97307495 31.70816498 137.97999573 32.96186829 C137.99572444 36.29265813 138.00234995 39.62319859 138.0036273 42.95400834 C138.00505121 45.03776184 138.00932537 47.12148939 138.01462173 49.20523643 C138.03311386 56.48290027 138.04129351 63.76049094 138.03971863 71.03817749 C138.03851792 77.80869169 138.05960812 84.57888675 138.09120595 91.34932023 C138.11741044 97.17286762 138.12808416 102.99631105 138.12680781 108.8199169 C138.12629933 112.29330054 138.13191847 115.76640051 138.15316391 119.23972511 C138.17623548 123.11732926 138.16699985 126.99450038 138.154953 130.87216187 C138.16619202 132.01373749 138.17743103 133.15531311 138.18901062 134.33148193 C138.12766327 142.11202735 136.97430985 147.49569015 131.70426941 153.50961304 C131.05329285 154.04844116 130.40231628 154.58726929 129.73161316 155.14242554 C129.08321472 155.69672241 128.43481628 156.25101929 127.76676941 156.82211304 C123.75076294 159.58919385 120.1818523 160.51709249 115.33822632 160.53485107 C114.28273087 160.54338104 113.22723541 160.55191101 112.13975525 160.56069946 C110.99210693 160.55979309 109.84445862 160.55888672 108.66203308 160.55795288 C107.4452034 160.5646701 106.22837372 160.57138733 104.97467041 160.57830811 C101.64388057 160.59403681 98.31334011 160.60066233 94.98253036 160.60193968 C92.89877685 160.60336359 90.8150493 160.60763775 88.73130226 160.61293411 C81.45363843 160.63142624 74.17604775 160.63960588 66.89836121 160.63803101 C60.127847 160.6368303 53.35765194 160.6579205 46.58721846 160.68951833 C40.76367108 160.71572282 34.94022764 160.72639654 29.11662179 160.72512019 C25.64323816 160.72461171 22.17013819 160.73023085 18.69681358 160.75147629 C14.81920944 160.77454786 10.94203831 160.76531222 7.06437683 160.75326538 C5.92280121 160.76450439 4.78122559 160.77574341 3.60505676 160.787323 C-4.17548866 160.72597565 -9.55915146 159.57262223 -15.57307434 154.30258179 C-16.38131653 153.32611694 -16.38131653 153.32611694 -17.20588684 152.32992554 C-17.76018372 151.6815271 -18.31448059 151.03312866 -18.88557434 150.36508179 C-21.65265515 146.34907532 -22.58055379 142.78016468 -22.59831238 137.9365387 C-22.60684235 136.88104324 -22.61537231 135.82554779 -22.62416077 134.73806763 C-22.62325439 133.59041931 -22.62234802 132.442771 -22.62141418 131.26034546 C-22.62813141 130.04351578 -22.63484863 128.8266861 -22.64176941 127.57298279 C-22.65749812 124.24219294 -22.66412363 120.91165249 -22.66540098 117.58084273 C-22.66682489 115.49708923 -22.67109905 113.41336168 -22.67639542 111.32961464 C-22.69488754 104.05195081 -22.70306719 96.77436013 -22.70149231 89.49667358 C-22.7002916 82.72615938 -22.7213818 75.95596432 -22.75297964 69.18553084 C-22.77918412 63.36198345 -22.78985784 57.53854002 -22.78858149 51.71493417 C-22.78807301 48.24155054 -22.79369215 44.76845056 -22.81493759 41.29512596 C-22.83800916 37.41752181 -22.82877353 33.54035069 -22.81672668 29.66268921 C-22.8279657 28.52111359 -22.83920471 27.37953796 -22.8507843 26.20336914 C-22.78943695 18.42282372 -21.63608353 13.03916092 -16.36604309 7.02523804 C-15.71506653 6.48640991 -15.06408997 5.94758179 -14.39338684 5.39242554 C-13.7449884 4.83812866 -13.09658997 4.28383179 -12.42854309 3.71273804 C-8.41253662 0.94565723 -4.84362598 0.01775858 0 0 Z M-4.49797058 18.1003418 C-7.25727348 22.86812281 -7.02877554 27.16692696 -6.9778595 32.58773804 C-6.98662109 33.73135803 -6.99538269 34.87497803 -7.00440979 36.05325317 C-7.02641552 39.83336328 -7.01184524 43.61230355 -6.99494934 47.39242554 C-6.99831709 50.01889267 -7.00316937 52.64535828 -7.00944519 55.27182007 C-7.01853437 60.77634352 -7.00657351 66.28053122 -6.98274231 71.78500366 C-6.95553182 78.14332294 -6.96434655 84.50084054 -6.99187434 90.8591404 C-7.01732281 96.98295321 -7.01459835 103.10641141 -6.99996567 109.23025513 C-6.99662834 111.83299878 -7.00073013 114.43576287 -7.01236343 117.03848267 C-7.02505092 120.67524545 -7.00572089 124.31046529 -6.9778595 127.94711304 C-6.98798065 129.02466858 -6.99810181 130.10222412 -7.00852966 131.21243286 C-6.94488159 135.69298467 -6.7682357 138.51173337 -4.49797058 142.43450928 C0.26981043 145.19381218 4.56861458 144.96531424 9.98942566 144.91439819 C11.70485565 144.92754059 11.70485565 144.92754059 13.4549408 144.94094849 C17.2350509 144.96295422 21.01399117 144.94838394 24.79411316 144.93148804 C27.42058029 144.93485579 30.0470459 144.93970806 32.67350769 144.94598389 C38.17803114 144.95507307 43.68221885 144.94311221 49.18669128 144.91928101 C55.54501056 144.89207052 61.90252816 144.90088525 68.26082802 144.92841303 C74.38464083 144.95386151 80.50809903 144.95113704 86.63194275 144.93650436 C89.2346864 144.93316703 91.83745049 144.93726883 94.44017029 144.94890213 C98.07693307 144.96158962 101.71215292 144.94225958 105.34880066 144.91439819 C106.4263562 144.92451935 107.50391174 144.9346405 108.61412048 144.94506836 C113.09467229 144.88142028 115.91342099 144.7047744 119.8361969 142.43450928 C122.5954998 137.66672826 122.36700186 133.36792411 122.31608582 127.94711304 C122.32484741 126.80349304 122.33360901 125.65987305 122.34263611 124.4815979 C122.36464184 120.7014878 122.35007156 116.92254753 122.33317566 113.14242554 C122.33654341 110.51595841 122.34139568 107.8894928 122.34767151 105.26303101 C122.35676069 99.75850756 122.34479983 94.25431985 122.32096863 88.74984741 C122.29375814 82.39152814 122.30257287 76.03401053 122.33010066 69.67571068 C122.35554913 63.55189786 122.35282466 57.42843967 122.33819199 51.30459595 C122.33485465 48.70185229 122.33895645 46.0990882 122.35058975 43.49636841 C122.36327724 39.85960563 122.3439472 36.22438578 122.31608582 32.58773804 C122.32620697 31.5101825 122.33632813 30.43262695 122.34675598 29.32241821 C122.28310791 24.84186641 122.10646202 22.0231177 119.8361969 18.1003418 C115.06841589 15.3410389 110.76961174 15.56953683 105.34880066 15.62045288 C104.20518066 15.61169128 103.06156067 15.60292969 101.88328552 15.59390259 C98.10317542 15.57189685 94.32423515 15.58646714 90.54411316 15.60336304 C87.91764603 15.59999529 85.29118042 15.59514301 82.66471863 15.58886719 C77.16019518 15.579778 71.65600747 15.59173886 66.15153503 15.61557007 C59.79321576 15.64278055 53.43569816 15.63396583 47.0773983 15.60643804 C40.95358549 15.58098957 34.83012729 15.58371403 28.70628357 15.59834671 C26.10353992 15.60168404 23.50077583 15.59758224 20.89805603 15.58594894 C17.26129325 15.57326146 13.6260734 15.59259149 9.98942566 15.62045288 C8.91187012 15.61033173 7.83431458 15.60021057 6.72410583 15.58978271 C2.24355403 15.65343079 -0.57519467 15.83007668 -4.49797058 18.1003418 Z " fill="#2D4355" transform="translate(322.3308868408203,-0.267425537109375)"/>
<path d="M0 0 C0.98818222 -0.00852997 1.97636444 -0.01705994 2.99449158 -0.02584839 C4.60375519 -0.02448883 4.60375519 -0.02448883 6.24552917 -0.02310181 C7.38433029 -0.02981903 8.52313141 -0.03653625 9.69644165 -0.04345703 C13.46179059 -0.06245747 17.22696145 -0.06636235 20.99235535 -0.06851196 C23.61163405 -0.07493863 26.23091202 -0.0816669 28.85018921 -0.08868408 C34.34200702 -0.10146482 39.83377663 -0.10445006 45.3256073 -0.10317993 C51.65987811 -0.10197935 57.99380774 -0.12306762 64.32799226 -0.15466726 C70.43570078 -0.18404391 76.54324649 -0.19115405 82.65102196 -0.18996048 C85.24292582 -0.19231844 87.8348323 -0.20115289 90.42669106 -0.21662521 C94.05539231 -0.23625795 97.68321958 -0.23045663 101.31193542 -0.21841431 C102.37870514 -0.22965332 103.44547485 -0.24089233 104.54457092 -0.25247192 C112.06381494 -0.18918061 117.49999471 1.22416215 123.2150116 6.23226929 C123.75383972 6.88324585 124.29266785 7.53422241 124.8478241 8.20492554 C125.40212097 8.85332397 125.95641785 9.50172241 126.5275116 10.16976929 C129.21446187 14.06947819 130.22179274 17.58538123 130.24024963 22.29460144 C130.25304459 23.77687477 130.25304459 23.77687477 130.26609802 25.28909302 C130.26473846 26.89835663 130.26473846 26.89835663 130.26335144 28.54013062 C130.27006866 29.67893173 130.27678589 30.81773285 130.28370667 31.99104309 C130.30270711 35.75639203 130.30661199 39.52156289 130.3087616 43.28695679 C130.31518827 45.90623549 130.32191653 48.52551346 130.32893372 51.14479065 C130.34171445 56.63660846 130.3446997 62.12837807 130.34342957 67.62020874 C130.34222898 73.95447955 130.36331725 80.28840918 130.39491689 86.6225937 C130.42429354 92.73030222 130.43140368 98.83784793 130.43021011 104.9456234 C130.43256808 107.53752726 130.44140253 110.12943374 130.45687485 112.7212925 C130.47650758 116.34999375 130.47070626 119.97782102 130.45866394 123.60653687 C130.46990295 124.67330658 130.48114197 125.74007629 130.49272156 126.83917236 C130.42943024 134.35841638 129.01608748 139.79459615 124.00798035 145.50961304 C123.35700378 146.04844116 122.70602722 146.58726929 122.0353241 147.14242554 C121.38692566 147.69672241 120.73852722 148.25101929 120.07048035 148.82211304 C116.17077144 151.50906331 112.65486841 152.51639418 107.94564819 152.53485107 C106.95746597 152.54338104 105.96928375 152.55191101 104.95115662 152.56069946 C103.87831421 152.55979309 102.8054718 152.55888672 101.70011902 152.55795288 C100.5613179 152.5646701 99.42251678 152.57138733 98.24920654 152.57830811 C94.48385761 152.59730855 90.71868674 152.60121343 86.95329285 152.60336304 C84.33401415 152.60978971 81.71473617 152.61651797 79.09545898 152.62353516 C73.60364117 152.63631589 68.11187157 152.63930114 62.62004089 152.63803101 C56.28577008 152.63683043 49.95184045 152.65791869 43.61765593 152.68951833 C37.50994741 152.71889498 31.40240171 152.72600512 25.29462624 152.72481155 C22.70272237 152.72716952 20.1108159 152.73600397 17.51895714 152.75147629 C13.89025588 152.77110903 10.26242861 152.7653077 6.63371277 152.75326538 C5.56694305 152.76450439 4.50017334 152.77574341 3.40107727 152.787323 C-4.11816674 152.72403168 -9.55434651 151.31068892 -15.2693634 146.30258179 C-16.07760559 145.32611694 -16.07760559 145.32611694 -16.9021759 144.32992554 C-17.45647278 143.6815271 -18.01076965 143.03312866 -18.5818634 142.36508179 C-21.26881367 138.46537288 -22.27614455 134.94946985 -22.29460144 130.24024963 C-22.30313141 129.25206741 -22.31166138 128.26388519 -22.32044983 127.24575806 C-22.31954346 126.17291565 -22.31863708 125.10007324 -22.31770325 123.99472046 C-22.32442047 122.85591934 -22.3311377 121.71711823 -22.33805847 120.54380798 C-22.35705891 116.77845905 -22.3609638 113.01328818 -22.3631134 109.24789429 C-22.36954008 106.62861559 -22.37626834 104.00933761 -22.38328552 101.39006042 C-22.39606626 95.89824261 -22.3990515 90.40647301 -22.39778137 84.91464233 C-22.39658079 78.58037152 -22.41766906 72.24644189 -22.4492687 65.91225737 C-22.47864535 59.80454885 -22.48575549 53.69700315 -22.48456192 47.58922768 C-22.48691989 44.99732381 -22.49575433 42.40541734 -22.51122665 39.81355858 C-22.53085939 36.18485732 -22.52505807 32.55703005 -22.51301575 28.92831421 C-22.52425476 27.86154449 -22.53549377 26.79477478 -22.54707336 25.69567871 C-22.48378205 18.1764347 -21.07043929 12.74025493 -16.06233215 7.02523804 C-15.41135559 6.48640991 -14.76037903 5.94758179 -14.0896759 5.39242554 C-13.44127747 4.83812866 -12.79287903 4.28383179 -12.12483215 3.71273804 C-8.22512325 1.02578777 -4.70922021 0.01845689 0 0 Z M-4.14836121 18.14624023 C-6.89153193 22.703339 -6.72694325 26.62274917 -6.67414856 31.85336304 C-6.68291016 32.91895447 -6.69167175 33.9845459 -6.70069885 35.08242798 C-6.72269551 38.60284203 -6.7081379 42.12199883 -6.6912384 45.64242554 C-6.69460643 48.08953085 -6.69945893 50.53663454 -6.70573425 52.98373413 C-6.713106 58.11166312 -6.70238957 63.23915656 -6.67903137 68.36703491 C-6.65054435 74.94143339 -6.66694657 81.51481133 -6.69689369 88.08917236 C-6.71495794 93.14209692 -6.70921244 98.19477935 -6.69625473 103.24771118 C-6.69291835 105.67182536 -6.69701587 108.0959615 -6.7086525 110.52005005 C-6.72134592 113.90778867 -6.7020025 117.29387272 -6.67414856 120.68148804 C-6.68426971 121.68423767 -6.69439087 122.6869873 -6.70481873 123.72012329 C-6.63860545 128.06513303 -6.42034979 130.6142645 -4.14836121 134.38861084 C0.40873756 137.13178156 4.32814773 136.96719288 9.5587616 136.91439819 C11.15714874 136.92754059 11.15714874 136.92754059 12.78782654 136.94094849 C16.30824059 136.96294514 19.82739739 136.94838754 23.3478241 136.93148804 C25.79492941 136.93485606 28.2420331 136.93970856 30.68913269 136.94598389 C35.81706168 136.95335564 40.94455512 136.9426392 46.07243347 136.91928101 C52.64683195 136.89079398 59.22020989 136.9071962 65.79457092 136.93714333 C70.84749547 136.95520758 75.90017791 136.94946207 80.95310974 136.93650436 C83.37722392 136.93316798 85.80136006 136.93726551 88.22544861 136.94890213 C91.61318723 136.96159556 94.99927128 136.94225213 98.3868866 136.91439819 C99.38963623 136.92451935 100.39238586 136.9346405 101.42552185 136.94506836 C105.77053159 136.87885508 108.31966306 136.66059942 112.0940094 134.38861084 C114.83718012 129.83151207 114.67259144 125.9121019 114.61979675 120.68148804 C114.63293915 119.08310089 114.63293915 119.08310089 114.64634705 117.4524231 C114.6683437 113.93200904 114.6537861 110.41285224 114.6368866 106.89242554 C114.64025462 104.44532022 114.64510712 101.99821653 114.65138245 99.55111694 C114.6587542 94.42318796 114.64803776 89.29569452 114.62467957 84.16781616 C114.59619254 77.59341768 114.61259476 71.02003974 114.64254189 64.44567871 C114.66060614 59.39275416 114.65486063 54.34007172 114.64190292 49.28713989 C114.63856654 46.86302571 114.64266407 44.43888957 114.65430069 42.01480103 C114.66699412 38.62706241 114.64765069 35.24097835 114.61979675 31.85336304 C114.62991791 30.8506134 114.64003906 29.84786377 114.65046692 28.81472778 C114.58425364 24.46971804 114.36599798 21.92058657 112.0940094 18.14624023 C107.53691063 15.40306951 103.61750046 15.56765819 98.3868866 15.62045288 C96.78849945 15.60731049 96.78849945 15.60731049 95.15782166 15.59390259 C91.6374076 15.57190593 88.1182508 15.58646354 84.5978241 15.60336304 C82.15071878 15.59999501 79.70361509 15.59514251 77.2565155 15.58886719 C72.12858651 15.58149544 67.00109308 15.59221187 61.87321472 15.61557007 C55.29881624 15.64405709 48.7254383 15.62765487 42.15107727 15.59770775 C37.09815272 15.5796435 32.04547028 15.585389 26.99253845 15.59834671 C24.56842427 15.60168309 22.14428813 15.59758557 19.72019958 15.58594894 C16.33246097 15.57325552 12.94637691 15.59259894 9.5587616 15.62045288 C8.05463715 15.60527115 8.05463715 15.60527115 6.52012634 15.58978271 C2.1751166 15.65599599 -0.37401487 15.87425165 -4.14836121 18.14624023 Z " fill="#2D4356" transform="translate(270.0271759033203,175.73257446289063)"/>
<path d="M0 0 C11.19824807 9.2099877 17.70489322 21.88312487 19.75 36.25 C21.26203853 54.40796271 17.40188726 71.41811015 5.5625 85.75 C-0.44299953 92.01346773 -8.76317973 96.66741856 -17.51171875 97.453125 C-28.69876291 97.66929977 -37.12699781 93.80107341 -45.3828125 86.31640625 C-56.73458292 74.55459089 -60.78596812 58.52273893 -60.59936523 42.55664062 C-60.08332519 27.03695503 -54.46716119 13.7146181 -43.71875 2.4140625 C-30.75914087 -8.9461012 -14.13416913 -9.98669093 0 0 Z " fill="#2F4556" transform="translate(156.25,86.75)"/>
<path d="M0 0 C7.0339349 4.58173741 12.18791481 11.76324912 14 20 C15.08062954 28.11932465 12.95851445 34.89550828 9 42 C6.828125 44.3515625 6.828125 44.3515625 5 46 C6.2035186 48.73526955 7.71458645 50.9997153 9.5 53.375 C13.73815128 59.2759068 14.71342599 64.86574015 14 72 C12.50540457 80.64147903 8.62643828 87.48119433 1.6015625 92.82421875 C-6.82846076 98.18052584 -15.02225925 100.12767027 -25 99 C-33.4589458 96.68798044 -41.5203874 91.10365131 -45.9375 83.5 C-49.50393628 76.21955077 -51.71438272 68.60649485 -49.27734375 60.63671875 C-47.22823331 55.70060252 -44.61434755 51.91554318 -41 48 C-42.67774293 44.51246956 -44.67020964 41.33501388 -46.78125 38.09765625 C-50.25780408 32.11397182 -50.74972229 26.81310128 -50 20 C-47.34145832 10.58936666 -41.43092474 3.47150554 -33.34375 -1.7734375 C-22.21587872 -7.59702347 -10.67940631 -5.94345814 0 0 Z " fill="#2E4557" transform="translate(402,381)"/>
<path d="M0 0 C3.83147791 1.02628873 5.38247333 1.58474944 7.5 4.9375 C7.60981823 12.36520592 3.23300294 17.78495898 -0.6875 23.8125 C-1.34814453 24.85019531 -2.00878906 25.88789063 -2.68945312 26.95703125 C-6.55000699 33.00129426 -10.49638312 38.98717033 -14.5 44.9375 C-13.74799316 45.18250244 -12.99598633 45.42750488 -12.22119141 45.67993164 C-1.30775099 49.30271282 5.88142214 53.74482351 11.5 63.9375 C12.428125 65.5771875 12.428125 65.5771875 13.375 67.25 C15.95804565 75.71664964 15.20751252 84.9023572 11.5 92.9375 C6.3783781 101.50129597 -0.85701789 107.27903375 -10.5 109.9375 C-21.27527848 110.9785244 -30.15211162 109.535593 -38.6484375 102.6640625 C-46.09290383 95.72217617 -49.53863524 88.07638499 -49.9375 77.9375 C-50.14095153 68.17182643 -43.79307 59.84779931 -38.75 51.9375 C-38.09966797 50.90729736 -37.44933594 49.87709473 -36.77929688 48.81567383 C-34.6938811 45.5179981 -32.5985078 42.22685818 -30.5 38.9375 C-29.78319991 37.81299033 -29.06640304 36.68847861 -28.34960938 35.56396484 C-24.3523947 29.29808534 -20.34907541 23.03618133 -16.3203125 16.79052734 C-15.06821982 14.82808702 -13.83481324 12.8536389 -12.6171875 10.86962891 C-12.01132813 9.88784668 -11.40546875 8.90606445 -10.78125 7.89453125 C-10.24564453 7.01385986 -9.71003906 6.13318848 -9.15820312 5.22583008 C-6.40659569 1.42859561 -4.76821331 -0.08514667 0 0 Z " fill="#2F4455" transform="translate(157.5,364.0625)"/>
<path d="M0 0 C2.81863696 3.02500965 3.37093718 5.04712638 3.34057617 9.13574219 C3.34034958 10.15649841 3.34012299 11.17725464 3.33988953 12.22894287 C3.32440567 13.32386047 3.30892181 14.41877808 3.29296875 15.546875 C3.28872391 16.6732135 3.28447906 17.799552 3.28010559 18.96002197 C3.26331497 22.55692463 3.22566099 26.15326672 3.1875 29.75 C3.17245371 32.18879399 3.15876521 34.62759677 3.14648438 37.06640625 C3.11341015 43.04446205 3.06320643 49.02219097 3 55 C3.95261719 54.96519531 4.90523438 54.93039062 5.88671875 54.89453125 C7.14097656 54.86746094 8.39523437 54.84039062 9.6875 54.8125 C10.92886719 54.77769531 12.17023438 54.74289062 13.44921875 54.70703125 C17.21666932 55.01787701 19.02794917 55.7227143 22 58 C23.40457737 60.80915474 23.24895157 62.88810534 23 66 C21.22015595 69.1359157 20.47691793 69.84102736 17 71 C14.60509014 71.06970052 12.20832309 71.08448003 9.8125 71.0625 C8.54019531 71.05347656 7.26789063 71.04445313 5.95703125 71.03515625 C4.98121094 71.02355469 4.00539063 71.01195312 3 71 C3.05220703 72.42892578 3.05220703 72.42892578 3.10546875 73.88671875 C3.13253906 75.14097656 3.15960938 76.39523437 3.1875 77.6875 C3.23970703 79.54955078 3.23970703 79.54955078 3.29296875 81.44921875 C2.98212299 85.21666932 2.2772857 87.02794917 0 90 C-2.80915474 91.40457737 -4.88810534 91.24895157 -8 91 C-11.1359157 89.22015595 -11.84102736 88.47691793 -13 85 C-13.06970052 82.60509014 -13.08448003 80.20832309 -13.0625 77.8125 C-13.05347656 76.54019531 -13.04445313 75.26789063 -13.03515625 73.95703125 C-13.02355469 72.98121094 -13.01195312 72.00539063 -13 71 C-13.8699057 71.00999275 -13.8699057 71.00999275 -14.75738525 71.02018738 C-20.79181374 71.0865432 -26.82613863 71.13180159 -32.86083984 71.16479492 C-35.11316131 71.17988395 -37.36545339 71.20035755 -39.61767578 71.22631836 C-42.85456596 71.26269593 -46.09106775 71.2797253 -49.328125 71.29296875 C-50.83925873 71.31619453 -50.83925873 71.31619453 -52.38092041 71.33988953 C-53.32159363 71.34011612 -54.26226685 71.34034271 -55.23144531 71.34057617 C-56.05751282 71.34723801 -56.88358032 71.35389984 -57.73468018 71.36076355 C-60.59241775 70.9056545 -61.92477127 69.9969468 -64 68 C-65.0496242 64.74064063 -65.50700682 63.25427632 -65 60 C-63.15967449 56.87541856 -60.56903541 54.53466704 -58 52 C-56.63805943 50.52556876 -55.27664433 49.050614 -53.92456055 47.56713867 C-48.41222057 41.52628013 -42.80446474 35.57184785 -37.22143555 29.59643555 C-33.38688865 25.49082859 -29.5616293 21.37689543 -25.75 17.25 C-25.2648291 16.7250293 -24.7796582 16.20005859 -24.27978516 15.65917969 C-21.87089151 13.04744041 -19.47610765 10.42427791 -17.1015625 7.78125 C-16.64168945 7.27045898 -16.18181641 6.75966797 -15.70800781 6.23339844 C-14.45621328 4.84037581 -13.20843393 3.44374803 -11.9609375 2.046875 C-8.43862085 -1.62980612 -4.7128177 -1.53983152 0 0 Z " fill="#2E4457" transform="translate(345,209)"/>
<path d="M0 0 C7.36774581 4.87993554 11.24815599 11.71321798 14.0078125 19.9921875 C15.29473887 31.31388152 12.33426646 39.78443977 5.3203125 48.6796875 C1.0359773 53.30315213 -4.07142654 57.08045899 -8.9921875 60.9921875 C-11.00056297 62.64909726 -12.99681016 64.31959178 -14.9921875 65.9921875 C-14.3216333 66.00677002 -13.6510791 66.02135254 -12.96020508 66.03637695 C-9.90779928 66.1110705 -6.85646165 66.20766049 -3.8046875 66.3046875 C-2.74958984 66.32724609 -1.69449219 66.34980469 -0.60742188 66.37304688 C0.41416016 66.40849609 1.43574219 66.44394531 2.48828125 66.48046875 C3.89436646 66.51974487 3.89436646 66.51974487 5.32885742 66.55981445 C8.48750325 67.06960774 10.42173749 68.1344159 13.0078125 69.9921875 C14.41238987 72.80134224 14.25676407 74.88029284 14.0078125 77.9921875 C12.22796845 81.1281032 11.48473043 81.83321486 8.0078125 82.9921875 C6.36273388 83.10405098 4.71364458 83.16108053 3.06494141 83.18505859 C2.06024811 83.20112152 1.05555481 83.21718445 0.02041626 83.23373413 C-4.56418124 83.27822742 -9.14863564 83.31923049 -13.73339844 83.34228516 C-16.15244149 83.35886285 -18.5714352 83.38617631 -20.99023438 83.42431641 C-24.47812303 83.47902279 -27.96486539 83.50094851 -31.453125 83.515625 C-32.53347015 83.53829437 -33.61381531 83.56096375 -34.72689819 83.58432007 C-42.21739775 83.5632041 -42.21739775 83.5632041 -46.17431641 80.64697266 C-47.9921875 77.9921875 -47.9921875 77.9921875 -48.6171875 74.9921875 C-47.38520493 69.07867118 -41.29133184 65.43710132 -36.8046875 61.6796875 C-36.23443848 61.19967285 -35.66418945 60.7196582 -35.07666016 60.22509766 C-29.17540917 55.27518184 -23.14830427 50.4863312 -17.10546875 45.7109375 C-8.42015646 39.13216208 -8.42015646 39.13216208 -2.9921875 29.9921875 C-2.60445034 25.26179415 -2.51100878 22.93672351 -4.6796875 18.6796875 C-6.97631624 16.01063247 -8.86466507 14.55594871 -11.9921875 12.9921875 C-12.6521875 12.6621875 -13.3121875 12.3321875 -13.9921875 11.9921875 C-18.61109946 11.42868024 -22.09060062 11.5498996 -26.3046875 13.6171875 C-31.7403876 18.42082945 -33.44081133 22.69286392 -34.3046875 29.72265625 C-35.19548193 32.66329013 -36.36367121 33.47982427 -38.9921875 34.9921875 C-42.42037493 35.42071093 -44.2837201 35.39429062 -47.3046875 33.6796875 C-49.91109137 31.07328363 -50.18429864 28.40281814 -50.3046875 24.8671875 C-50.18254429 16.49359216 -45.67551548 8.95152699 -39.9921875 2.9921875 C-27.47757399 -7.1408299 -13.82061554 -7.69873215 0 0 Z " fill="#304356" transform="translate(397.9921875,41.0078125)"/>
<path d="M0 0 C7.74529548 4.23799187 13.20927739 12.06619495 16.1875 20.3125 C19.49518695 33.04808508 18.12227362 47.21779557 11.69921875 58.6953125 C8.06372283 64.22513557 4.65627571 68.07498972 -1.5625 70.5625 C-10.23295455 71.58255348 -10.23295455 71.58255348 -14.875 69.125 C-24.42861098 61.26980875 -29.24498144 52.99662998 -30.6875 40.8125 C-31.53557352 28.20261994 -29.98823616 17.21846134 -22.44921875 6.79296875 C-15.83611225 -0.64127736 -9.56617306 -3.080632 0 0 Z " fill="#FCD97F" transform="translate(142.6875,97.1875)"/>
<path d="M0 0 C0.54764511 0.81263809 1.09529022 1.62527618 1.65953064 2.46253967 C5.33629284 6.0887853 9.61757734 5.60396249 14.52571106 5.64431763 C15.81990463 5.62948334 17.11409821 5.61464905 18.44750977 5.59936523 C19.83090658 5.60123003 21.21430191 5.60526825 22.59768677 5.61131287 C26.34782856 5.62128034 30.09721348 5.60013058 33.84724545 5.57283282 C37.77314357 5.54898585 41.69902711 5.55194764 45.62498474 5.55152893 C52.21650999 5.54690237 58.80774619 5.52326991 65.39916992 5.48706055 C73.01946492 5.44531057 80.63949973 5.4277446 88.25990254 5.4244408 C96.3746112 5.42084092 104.48922629 5.40196695 112.6038959 5.37732053 C114.94169131 5.37109299 117.27947959 5.36745601 119.61728096 5.36428642 C123.29041931 5.358384 126.96337194 5.34206593 130.63643265 5.31768227 C132.62753556 5.30669636 134.61868455 5.30540333 136.6098175 5.30438232 C137.79448608 5.2944072 138.97915466 5.28443207 140.19972229 5.27415466 C141.22932351 5.26950416 142.25892473 5.26485365 143.31972599 5.26006222 C146.09368257 4.99091015 147.68934283 4.53437712 150 3 C150.66 2.01 151.32 1.02 152 0 C152.13657216 1.39303605 152.23271149 2.79006121 152.3125 4.1875 C152.39951172 5.35345703 152.39951172 5.35345703 152.48828125 6.54296875 C151.93288505 9.33772242 150.99589144 10.96780049 148.92442322 12.93020248 C144.35892798 15.46818655 138.54784856 14.68639533 133.4765625 14.64697266 C132.08492896 14.65375141 130.6933044 14.66265599 129.30169678 14.67352295 C125.52882593 14.6962931 121.75663964 14.68748999 117.98375702 14.67162752 C114.03293532 14.65895642 110.08217169 14.67071198 106.13134766 14.67855835 C99.49696341 14.68765144 92.86285759 14.67567614 86.22851562 14.65185547 C78.56148529 14.62464458 70.89511977 14.633459 63.22810555 14.6609875 C56.64193601 14.68368747 50.05596645 14.68687439 43.46977043 14.67379415 C39.53761779 14.66600442 35.60577751 14.66494458 31.67364502 14.68147659 C27.97647275 14.69593535 24.2801564 14.68587552 20.58307648 14.65700531 C18.58141757 14.64725508 16.57968614 14.6620828 14.57806396 14.67764282 C4.79828193 14.56220435 4.79828193 14.56220435 1.68530273 11.61312866 C-0.13361698 8.79282158 -0.55923396 7.49373507 -0.3125 4.1875 C-0.26738281 3.39730469 -0.22226562 2.60710937 -0.17578125 1.79296875 C-0.11777344 1.20128906 -0.05976562 0.60960937 0 0 Z " fill="#AD6E43" transform="translate(64,482)"/>
<path d="M0 0 C1.39163354 -0.00677875 2.7832581 -0.01568334 4.17486572 -0.02655029 C7.94773657 -0.04932044 11.71992286 -0.04051734 15.49280548 -0.02465487 C19.44362718 -0.01198376 23.39439081 -0.02373932 27.34521484 -0.03158569 C33.97959909 -0.04067878 40.61370491 -0.02870348 47.24804688 -0.00488281 C54.91507721 0.02232808 62.58144273 0.01351365 70.24845695 -0.01401484 C76.83462649 -0.03671481 83.42059605 -0.03990173 90.00679207 -0.02682149 C93.93894471 -0.01903176 97.87078499 -0.01797193 101.80291748 -0.03450394 C105.50008975 -0.0489627 109.1964061 -0.03890286 112.89348602 -0.01003265 C114.89514493 -0.00028243 116.89687636 -0.01511015 118.89849854 -0.03067017 C128.67798398 0.0847648 128.67798398 0.0847648 131.79125977 3.04751587 C134.32592233 6.95704837 133.86230264 9.09523902 133.4765625 13.64697266 C133.0434375 13.17259766 132.6103125 12.69822266 132.1640625 12.20947266 C129.032787 9.31014349 125.85701071 9.51664003 121.79653931 9.49980164 C120.61324539 9.49264633 119.42995148 9.48549103 118.21080017 9.4781189 C116.91098709 9.47542999 115.61117401 9.47274109 114.27197266 9.4699707 C112.89049611 9.46370488 111.50902124 9.45705797 110.12754822 9.45005798 C105.59025238 9.4290335 101.05295626 9.41865874 96.515625 9.40869141 C94.95340329 9.40464358 93.39118176 9.40052665 91.82896042 9.39634132 C84.49108156 9.37729507 77.15321275 9.36306152 69.81531394 9.35472935 C61.34416035 9.34495144 52.87326769 9.31861531 44.40220606 9.27822846 C37.85434866 9.2480813 31.30656612 9.23326191 24.75864065 9.22994834 C20.84769002 9.22759669 16.93701832 9.2186214 13.02614212 9.19348717 C9.34723334 9.17022491 5.66878753 9.16596542 1.9898243 9.17624855 C-0.00236342 9.17698075 -1.99452754 9.1578776 -3.98661804 9.13818359 C-5.17555161 9.14512741 -6.36448517 9.15207123 -7.58944702 9.15922546 C-8.62072409 9.15683711 -9.65200115 9.15444876 -10.71452904 9.15198803 C-14.22743916 9.77103152 -15.93774772 11.25511898 -18.5234375 13.64697266 C-19.12302855 6.57179821 -19.12302855 6.57179821 -16.83813477 3.04751587 C-12.39572767 -1.18010394 -5.71214498 -0.04440452 0 0 Z " fill="#D99C72" transform="translate(82.5234375,343.35302734375)"/>
<path d="M0 0 C0.5460791 0.81198349 1.0921582 1.62396698 1.65478516 2.46055603 C5.34123256 6.09610279 9.65752863 5.61440677 14.57806396 5.66653442 C15.88003723 5.65484222 17.1820105 5.64315002 18.5234375 5.63110352 C19.91506868 5.63624427 21.30669335 5.64352674 22.69830322 5.65278625 C26.47119543 5.6712892 30.24338029 5.65836938 34.01624298 5.63869596 C37.96705434 5.62229864 41.91782128 5.63112385 45.86865234 5.63621521 C52.50304449 5.64073498 59.1371546 5.62487377 65.77148438 5.59692383 C73.43844525 5.56487225 81.10489746 5.56488792 88.77189445 5.5821386 C96.15148157 5.59801007 103.53088244 5.5912662 110.91046143 5.57420158 C114.04914313 5.56733433 117.1876754 5.56836012 120.32635498 5.57574654 C124.02343662 5.58341569 127.71994038 5.5712636 131.41692352 5.54389763 C133.41857101 5.53374151 135.42028793 5.5431898 137.42193604 5.55322266 C139.21362213 5.53413597 139.21362213 5.53413597 141.04150391 5.5146637 C142.07755768 5.51185678 143.11361145 5.50904985 144.18106079 5.50615788 C147.69460031 4.87528024 149.41163368 3.39400657 152 1 C152.59959105 8.07517445 152.59959105 8.07517445 150.31469727 11.59945679 C145.87229017 15.8270766 139.18870748 14.69137718 133.4765625 14.64697266 C132.08492896 14.65375141 130.6933044 14.66265599 129.30169678 14.67352295 C125.52882593 14.6962931 121.75663964 14.68748999 117.98375702 14.67162752 C114.03293532 14.65895642 110.08217169 14.67071198 106.13134766 14.67855835 C99.49696341 14.68765144 92.86285759 14.67567614 86.22851562 14.65185547 C78.56148529 14.62464458 70.89511977 14.633459 63.22810555 14.6609875 C56.64193601 14.68368747 50.05596645 14.68687439 43.46977043 14.67379415 C39.53761779 14.66600442 35.60577751 14.66494458 31.67364502 14.68147659 C27.97647275 14.69593535 24.2801564 14.68587552 20.58307648 14.65700531 C18.58141757 14.64725508 16.57968614 14.6620828 14.57806396 14.67764282 C4.79828193 14.56220435 4.79828193 14.56220435 1.68530273 11.61312866 C-0.13361698 8.79282158 -0.55923396 7.49373507 -0.3125 4.1875 C-0.26738281 3.39730469 -0.22226562 2.60710937 -0.17578125 1.79296875 C-0.11777344 1.20128906 -0.05976562 0.60960937 0 0 Z " fill="#D9B96E" transform="translate(60,194)"/>
<path d="M0 0 C1.39163354 -0.00677875 2.7832581 -0.01568334 4.17486572 -0.02655029 C7.94773657 -0.04932044 11.71992286 -0.04051734 15.49280548 -0.02465487 C19.44362718 -0.01198376 23.39439081 -0.02373932 27.34521484 -0.03158569 C33.97959909 -0.04067878 40.61370491 -0.02870348 47.24804688 -0.00488281 C54.91507721 0.02232808 62.58144273 0.01351365 70.24845695 -0.01401484 C76.83462649 -0.03671481 83.42059605 -0.03990173 90.00679207 -0.02682149 C93.93894471 -0.01903176 97.87078499 -0.01797193 101.80291748 -0.03450394 C105.50008975 -0.0489627 109.1964061 -0.03890286 112.89348602 -0.01003265 C114.89514493 -0.00028243 116.89687636 -0.01511015 118.89849854 -0.03067017 C128.67798398 0.0847648 128.67798398 0.0847648 131.79125977 3.04751587 C134.32592233 6.95704837 133.86230264 9.09523902 133.4765625 13.64697266 C133.0434375 13.17259766 132.6103125 12.69822266 132.1640625 12.20947266 C129.032787 9.31014349 125.85701071 9.51664003 121.79653931 9.49980164 C120.61324539 9.49264633 119.42995148 9.48549103 118.21080017 9.4781189 C116.91098709 9.47542999 115.61117401 9.47274109 114.27197266 9.4699707 C112.89049611 9.46370488 111.50902124 9.45705797 110.12754822 9.45005798 C105.59025238 9.4290335 101.05295626 9.41865874 96.515625 9.40869141 C94.95340329 9.40464358 93.39118176 9.40052665 91.82896042 9.39634132 C84.49108156 9.37729507 77.15321275 9.36306152 69.81531394 9.35472935 C61.34416035 9.34495144 52.87326769 9.31861531 44.40220606 9.27822846 C37.85434866 9.2480813 31.30656612 9.23326191 24.75864065 9.22994834 C20.84769002 9.22759669 16.93701832 9.2186214 13.02614212 9.19348717 C9.34723334 9.17022491 5.66878753 9.16596542 1.9898243 9.17624855 C-0.00236342 9.17698075 -1.99452754 9.1578776 -3.98661804 9.13818359 C-5.17555161 9.14512741 -6.36448517 9.15207123 -7.58944702 9.15922546 C-8.62072409 9.15683711 -9.65200115 9.15444876 -10.71452904 9.15198803 C-14.22743916 9.77103152 -15.93774772 11.25511898 -18.5234375 13.64697266 C-19.12302855 6.57179821 -19.12302855 6.57179821 -16.83813477 3.04751587 C-12.39572767 -1.18010394 -5.71214498 -0.04440452 0 0 Z " fill="#FBE3A8" transform="translate(78.5234375,55.35302734375)"/>
<path d="M0 0 C1.22164856 -0.0087616 2.44329712 -0.01752319 3.70196533 -0.02655029 C7.0454193 -0.04476939 10.38732336 -0.04052531 13.73069 -0.02465487 C17.23307849 -0.01197523 20.73540181 -0.02374167 24.23779297 -0.03158569 C30.11893574 -0.04067634 35.99976433 -0.02871005 41.88085938 -0.00488281 C48.67541367 0.02232782 55.46921777 0.01351321 62.26375389 -0.01401484 C68.10259092 -0.03672193 73.94120242 -0.03989833 79.78006935 -0.02682149 C83.26510537 -0.01903558 86.74978902 -0.01796112 90.23480225 -0.03450394 C94.12037198 -0.05166055 98.00510483 -0.02786674 101.890625 0 C103.04298645 -0.01012115 104.1953479 -0.02024231 105.38262939 -0.03067017 C114.06015383 0.0847685 114.06015383 0.0847685 117.16821289 3.03384399 C119.09221484 5.86298458 119.50883698 7.0957446 119.2578125 10.45947266 C119.21269531 11.24966797 119.16757812 12.03986328 119.12109375 12.85400391 C119.03408203 13.74152344 119.03408203 13.74152344 118.9453125 14.64697266 C118.3265625 14.00759766 117.7078125 13.36822266 117.0703125 12.70947266 C113.94227916 9.67344029 112.27194613 9.52110507 108.02420044 9.51325989 C106.98387665 9.5089949 105.94355286 9.50472992 104.8717041 9.50033569 C103.15267883 9.50101547 103.15267883 9.50101547 101.39892578 9.50170898 C100.19561615 9.49835037 98.99230652 9.49499176 97.75253296 9.49153137 C94.44668389 9.4836434 91.14089761 9.48035286 87.83504343 9.47971559 C85.07660297 9.47876695 82.31816855 9.47508911 79.55973041 9.47154349 C73.05169868 9.46339526 66.54368078 9.46095956 60.03564453 9.46166992 C53.32031267 9.46227059 46.60506117 9.45172176 39.88974965 9.43592626 C34.12663333 9.42285308 28.36354328 9.41748594 22.60041225 9.41812533 C19.15737834 9.41838042 15.71441579 9.4155236 12.27139664 9.40494728 C8.43106188 9.3934731 4.5908374 9.39801178 0.75048828 9.40405273 C-0.3914801 9.39843323 -1.53344849 9.39281372 -2.71002197 9.38702393 C-3.75598541 9.39121841 -4.80194885 9.3954129 -5.87960815 9.3997345 C-6.78774199 9.39918973 -7.69587582 9.39864496 -8.63152885 9.39808369 C-11.27044112 9.66913328 -12.83715612 10.20430302 -15.0546875 11.64697266 C-15.7146875 12.63697266 -16.3746875 13.62697266 -17.0546875 14.64697266 C-17.19125966 13.25393661 -17.28739899 11.85691145 -17.3671875 10.45947266 C-17.42519531 9.68216797 -17.48320312 8.90486328 -17.54296875 8.10400391 C-16.98229307 5.28268391 -15.97354504 3.69420151 -13.88951111 1.71677017 C-9.75629828 -0.6931077 -4.64181148 -0.04076889 0 0 Z " fill="#9FE2E9" transform="translate(333.0546875,359.35302734375)"/>
<path d="M0 0 C0.86690712 1.21895714 0.86690712 1.21895714 1.75132751 2.46253967 C5.21282491 5.88183121 8.84909422 5.60109198 13.5103302 5.64431763 C14.65491196 5.62948334 15.79949371 5.61464905 16.97875977 5.59936523 C18.79901169 5.60527931 18.79901169 5.60527931 20.65603638 5.61131287 C23.9767391 5.61686994 27.29588112 5.60014452 30.61637998 5.57283282 C34.09384052 5.54897008 37.57128504 5.55194752 41.04881287 5.55152893 C46.88709979 5.54690366 52.72506018 5.52328003 58.56323242 5.48706055 C65.3110288 5.44530902 72.05853133 5.42774441 78.80644947 5.4244408 C85.99470863 5.42083993 93.18286223 5.40196511 100.3710773 5.37732053 C102.44085721 5.3710954 104.51062909 5.36745691 106.58041573 5.36428642 C110.43725533 5.35728415 114.29387752 5.33288859 118.15063477 5.30639648 C119.29724075 5.30573181 120.44384674 5.30506714 121.62519836 5.30438232 C122.67524048 5.2944072 123.72528259 5.28443207 124.80714417 5.27415466 C125.71875588 5.26950416 126.6303676 5.26485365 127.56960392 5.26006222 C130.20604427 4.97795243 131.78295007 4.44117493 134 3 C134.66 2.01 135.32 1.02 136 0 C136.13657216 1.39303605 136.23271149 2.79006121 136.3125 4.1875 C136.39951172 5.35345703 136.39951172 5.35345703 136.48828125 6.54296875 C135.92760557 9.36428875 134.91885754 10.95277115 132.83482361 12.93020248 C128.70161078 15.34008036 123.58712398 14.68774154 118.9453125 14.64697266 C117.72366394 14.65573425 116.50201538 14.66449585 115.24334717 14.67352295 C111.8998932 14.69174205 108.55798914 14.68749796 105.2146225 14.67162752 C101.71223401 14.65894789 98.20991069 14.67071433 94.70751953 14.67855835 C88.82637676 14.687649 82.94554817 14.67568271 77.06445312 14.65185547 C70.26989883 14.62464484 63.47609473 14.63345945 56.68155861 14.6609875 C50.84272158 14.68369459 45.00411008 14.68687098 39.16524315 14.67379415 C35.68020713 14.66600824 32.19552348 14.66493378 28.71051025 14.68147659 C24.82494052 14.69863321 20.94020767 14.67483939 17.0546875 14.64697266 C15.32614532 14.66215439 15.32614532 14.66215439 13.56268311 14.67764282 C4.88515867 14.56220416 4.88515867 14.56220416 1.77709961 11.61312866 C-0.14690234 8.78398808 -0.56352448 7.55122806 -0.3125 4.1875 C-0.26738281 3.39730469 -0.22226562 2.60710937 -0.17578125 1.79296875 C-0.11777344 1.20128906 -0.05976563 0.60960937 0 0 Z " fill="#64B3B8" transform="translate(316,482)"/>
<path d="M0 0 C0.59151855 0.81198349 1.18303711 1.62396698 1.79248047 2.46055603 C5.15196538 5.78145273 8.5117565 5.60861109 13.05499268 5.66653442 C14.13254822 5.65484222 15.21010376 5.64315002 16.3203125 5.63110352 C18.03574249 5.64183647 18.03574249 5.64183647 19.78582764 5.65278625 C23.56595813 5.66969435 27.34490629 5.65025637 31.125 5.62890625 C33.75146584 5.62973474 36.37793164 5.63219338 39.00439453 5.63621521 C44.50892752 5.64073304 50.01312036 5.62488611 55.51757812 5.59692383 C61.87581365 5.56487286 68.23343578 5.56488837 74.59171486 5.5821386 C80.71550835 5.59801869 86.83904151 5.59116297 92.96282959 5.57420158 C95.56556699 5.56901541 98.16832204 5.56950682 100.77105713 5.57574654 C104.40765476 5.58119187 108.04320874 5.56084302 111.6796875 5.53344727 C112.75724304 5.53997314 113.83479858 5.54649902 114.94500732 5.55322266 C120.90179968 5.49437334 120.90179968 5.49437334 126.20751953 2.96665955 C126.79903809 2.3176619 127.39055664 1.66866425 128 1 C128.60487267 8.1374975 128.60487267 8.1374975 126.17700195 11.59945679 C121.49037415 15.14067355 117.40990748 14.70079489 111.6796875 14.64697266 C109.96425751 14.66011505 109.96425751 14.66011505 108.21417236 14.67352295 C104.43406226 14.69552868 100.65512199 14.6809584 96.875 14.6640625 C94.24853287 14.66743025 91.62206726 14.67228252 88.99560547 14.67855835 C83.49108202 14.68764753 77.98689431 14.67568667 72.48242188 14.65185547 C66.1241026 14.62464498 59.766585 14.63345971 53.40828514 14.6609875 C47.28447233 14.68643597 41.16101413 14.68371151 35.03717041 14.66907883 C32.43442676 14.66574149 29.83166267 14.66984329 27.22894287 14.68147659 C23.59218009 14.69416408 19.95696024 14.67483404 16.3203125 14.64697266 C14.70397919 14.66215439 14.70397919 14.66215439 13.05499268 14.67764282 C5.76410927 14.57407283 5.76410927 14.57407283 1.82299805 11.61312866 C-0.15343862 8.78005744 -0.56567353 7.58002533 -0.3125 4.1875 C-0.26738281 3.39730469 -0.22226562 2.60710937 -0.17578125 1.79296875 C-0.11777344 1.20128906 -0.05976563 0.60960937 0 0 Z " fill="#D0624F" transform="translate(316,130)"/>
<path d="M0 0 C1.14362 -0.0087616 2.28723999 -0.01752319 3.46551514 -0.02655029 C7.24562524 -0.04855603 11.02456551 -0.03398574 14.8046875 -0.01708984 C17.43115463 -0.0204576 20.05762024 -0.02530987 22.68408203 -0.03158569 C28.18860548 -0.04067488 33.69279319 -0.02871402 39.19726562 -0.00488281 C45.5555849 0.02232767 51.9131025 0.01351295 58.27140236 -0.01401484 C64.39521517 -0.03946331 70.51867337 -0.03673885 76.64251709 -0.02210617 C79.24526074 -0.01876884 81.84802483 -0.02287064 84.45074463 -0.03450394 C88.08750741 -0.04719142 91.72272726 -0.02786139 95.359375 0 C96.43693054 -0.01012115 97.51448608 -0.02024231 98.62469482 -0.03067017 C105.92001347 0.07296283 105.92001347 0.07296283 109.85668945 3.04751587 C112.58308942 6.93515519 112.07144446 9.02424053 111.6796875 13.64697266 C110.79240967 12.67298523 110.79240967 12.67298523 109.88720703 11.67932129 C105.14195883 8.67263696 100.87029438 9.08798461 95.359375 9.12939453 C94.215755 9.12238525 93.07213501 9.11537598 91.89385986 9.1081543 C88.11388869 9.09055036 84.33466628 9.10220645 80.5546875 9.11572266 C77.92822119 9.11302846 75.30175586 9.10914664 72.67529297 9.10412598 C67.17081593 9.09685469 61.66655377 9.10642341 56.16210938 9.12548828 C49.80388862 9.14725633 43.44618096 9.14020457 37.08797264 9.11818266 C30.96419867 9.09782401 24.84065166 9.10000355 18.71685791 9.11170959 C16.11411467 9.11437946 13.51135834 9.11109805 10.90863037 9.10179138 C7.27206651 9.09164195 3.63649023 9.10710639 0 9.12939453 C-1.61633331 9.11724915 -1.61633331 9.11724915 -3.26531982 9.1048584 C-9.22183644 9.1542965 -9.22183644 9.1542965 -14.52783203 11.67932129 C-15.11935059 12.32864624 -15.71086914 12.97797119 -16.3203125 13.64697266 C-16.92518517 6.50947515 -16.92518517 6.50947515 -14.49731445 3.04751587 C-9.81068665 -0.49370089 -5.73021998 -0.05382223 0 0 Z " fill="#FA9481" transform="translate(332.3203125,15.35302734375)"/>
<path d="M0 0 C0.60823105 0.81263809 1.2164621 1.62527618 1.84312439 2.46253967 C5.07674355 5.66174789 8.10178485 5.5976049 12.49494934 5.64431763 C13.98740425 5.62206619 13.98740425 5.62206619 15.51000977 5.59936523 C17.09617599 5.60527931 17.09617599 5.60527931 18.71438599 5.61131287 C22.20720902 5.61802183 25.69872324 5.58886237 29.19140625 5.55859375 C31.61848192 5.5543436 34.04556165 5.55201507 36.47264099 5.55152893 C41.55771317 5.5453629 46.64234498 5.52265789 51.72729492 5.48706055 C58.24995849 5.44176427 64.77222332 5.42703336 71.29502964 5.42332363 C76.3058415 5.41889789 81.31656943 5.40359938 86.32734489 5.3844471 C88.73273973 5.37555957 91.13814353 5.36883216 93.54355049 5.36428642 C96.90231552 5.35525707 100.26071777 5.33287762 103.61938477 5.30639648 C105.11487602 5.30539948 105.11487602 5.30539948 106.64057922 5.30438232 C108.0137027 5.28941963 108.0137027 5.28941963 109.41456604 5.27415466 C110.20818826 5.26950416 111.00181047 5.26485365 111.81948185 5.26006222 C114.31686614 4.96220856 115.8813235 4.34878782 118 3 C118.66 2.01 119.32 1.02 120 0 C120.13657216 1.39303605 120.23271149 2.79006121 120.3125 4.1875 C120.37050781 4.96480469 120.42851562 5.74210937 120.48828125 6.54296875 C119.7236899 10.39039243 118.10470697 11.63325101 115 14 C111.47517758 14.74563175 108.00615448 14.68322908 104.4140625 14.64697266 C103.34847107 14.65573425 102.28287964 14.66449585 101.18499756 14.67352295 C97.6645835 14.6955196 94.14542671 14.680962 90.625 14.6640625 C88.17789468 14.66743052 85.730791 14.67228302 83.28369141 14.67855835 C78.15576242 14.6859301 73.02826898 14.67521366 67.90039062 14.65185547 C61.32599215 14.62336844 54.75261421 14.63977066 48.17825317 14.66971779 C43.12532862 14.68778204 38.07264618 14.68203653 33.01971436 14.66907883 C30.59560017 14.66574245 28.17146404 14.66983997 25.74737549 14.68147659 C22.35963687 14.69417002 18.97355281 14.6748266 15.5859375 14.64697266 C14.58318787 14.65709381 13.58043823 14.66721497 12.54730225 14.67764282 C7.85133279 14.6060813 5.69922861 14.53302892 1.86889648 11.61312866 C-0.15988737 8.77644226 -0.5678239 7.60884022 -0.3125 4.1875 C-0.26738281 3.39730469 -0.22226562 2.60710937 -0.17578125 1.79296875 C-0.11777344 1.20128906 -0.05976563 0.60960937 0 0 Z " fill="#BFC7CE" transform="translate(264,298)"/>
<path d="M0 0 C1.06559143 -0.0087616 2.13118286 -0.01752319 3.22906494 -0.02655029 C6.749479 -0.04854695 10.26863579 -0.03398934 13.7890625 -0.01708984 C16.23616782 -0.02045787 18.6832715 -0.02531037 21.13037109 -0.03158569 C26.25830008 -0.03895744 31.38579352 -0.02824101 36.51367188 -0.00488281 C43.08807035 0.02360421 49.66144829 0.00720199 56.23580933 -0.02274513 C61.28873388 -0.04080938 66.34141632 -0.03506388 71.39434814 -0.02210617 C73.81846233 -0.01876979 76.24259846 -0.02286731 78.66668701 -0.03450394 C82.05442563 -0.04719736 85.44050969 -0.02785394 88.828125 0 C89.83087463 -0.01012115 90.83362427 -0.02024231 91.86676025 -0.03067017 C96.57226856 0.04103672 98.71381697 0.11011093 102.54516602 3.04751587 C105.33474132 6.9275491 104.80787491 8.9999862 104.4140625 13.64697266 C103.9809375 13.17259766 103.5478125 12.69822266 103.1015625 12.20947266 C100.2987185 9.61424673 97.62430747 9.5210054 93.9801178 9.51325989 C93.07304581 9.5089949 92.16597382 9.50472992 91.23141479 9.50033569 C90.23860504 9.50078888 89.24579529 9.50124207 88.22290039 9.50170898 C87.17550186 9.49835037 86.12810333 9.49499176 85.04896545 9.49153137 C81.57820457 9.4820134 78.10749188 9.48007789 74.63671875 9.47900391 C72.22920207 9.47579213 69.82168558 9.47242812 67.41416931 9.46891785 C62.3644058 9.46292461 57.3146594 9.46107817 52.26489258 9.46166992 C45.78705184 9.4617716 39.30932056 9.44811397 32.83150578 9.43089771 C27.85846958 9.41979229 22.88545997 9.41775026 17.91241264 9.41827965 C15.52375346 9.41709754 13.13509363 9.41266289 10.74644661 9.40494728 C7.40909221 9.39517607 4.07197719 9.39801408 0.73461914 9.40405273 C-0.75155914 9.39562347 -0.75155914 9.39562347 -2.26776123 9.38702393 C-3.63259895 9.39331566 -3.63259895 9.39331566 -5.02500916 9.3997345 C-5.81385467 9.39918973 -6.60270018 9.39864496 -7.4154501 9.39808369 C-9.91375032 9.68456283 -11.46810201 10.29790618 -13.5859375 11.64697266 C-14.2459375 12.63697266 -14.9059375 13.62697266 -15.5859375 14.64697266 C-15.72250966 13.25393661 -15.81864899 11.85691145 -15.8984375 10.45947266 C-15.95644531 9.68216797 -16.01445312 8.90486328 -16.07421875 8.10400391 C-14.38797032 -0.38119819 -6.97296537 -0.07038094 0 0 Z " fill="#EFF4F9" transform="translate(279.5859375,191.35302734375)"/>
<path d="M0 0 C4.15422393 2.79958569 7.61888159 6.42526317 9.875 10.9375 C10.6926718 17.22189181 10.17541829 22.05193677 6.4140625 27.2421875 C3.18612369 30.79783584 0.18745218 32.58512633 -4.5859375 33.3125 C-10.27718072 33.58595313 -13.73590432 32.81623571 -18.125 28.9375 C-22.97247929 23.77388076 -24.49335159 20.50048385 -24.40234375 13.47265625 C-23.84273401 8.3573503 -20.75777341 5.36873127 -17.0625 2.125 C-11.73650086 -1.84116957 -6.14875499 -2.0905767 0 0 Z " fill="#D28551" transform="translate(146.125,427.0625)"/>
<path d="M0 0 C3.5677811 2.35149209 5.84221079 4.99692157 7.75 8.8125 C8.40829334 14.29827783 7.35386914 17.64039725 4.30078125 22.078125 C0.92864448 25.84948199 -2.96552235 26.65475713 -7.8125 27.25 C-12.03762745 26.71225651 -14.03475802 25.58929989 -17.25 22.8125 C-20.54799116 18.08537934 -21.15379228 13.41601216 -20.25 7.8125 C-15.91326445 -0.86097109 -8.95063053 -3.27042269 0 0 Z " fill="#7FD6E0" transform="translate(392.25,437.1875)"/>
<path d="M0 0 C3.5677811 2.35149209 5.84221079 4.99692157 7.75 8.8125 C8.40829334 14.29827783 7.35386914 17.64039725 4.30078125 22.078125 C0.92864448 25.84948199 -2.96552235 26.65475713 -7.8125 27.25 C-12.03762745 26.71225651 -14.03475802 25.58929989 -17.25 22.8125 C-20.54799116 18.08537934 -21.15379228 13.41601216 -20.25 7.8125 C-15.91326445 -0.86097109 -8.95063053 -3.27042269 0 0 Z " fill="#7FD6E0" transform="translate(392.25,393.1875)"/>
<path d="M0 0 C0.33 0 0.66 0 1 0 C1 8.91 1 17.82 1 27 C-7.25 27 -15.5 27 -24 27 C-17.2983871 18.06451613 -17.2983871 18.06451613 -13.5625 14.5 C-9.98914816 11.01718917 -6.65110602 7.42150704 -3.41015625 3.62890625 C-2.32370902 2.37392427 -1.17374345 1.17374345 0 0 Z " fill="#DEE8F1" transform="translate(331,237)"/>
</svg>
