<?xml version="1.0" encoding="UTF-8"?>
<svg version="1.1" xmlns="http://www.w3.org/2000/svg" width="512" height="512">
<path d="M0 0 C1.13573456 -0.0065712 2.27146912 -0.0131424 3.44161987 -0.01991272 C7.19187492 -0.03958781 10.94209005 -0.05129462 14.69238281 -0.0612793 C15.97624123 -0.06535482 17.26009964 -0.06943035 18.58286285 -0.07362938 C24.67720723 -0.09231937 30.77153174 -0.1068917 36.86589885 -0.11524135 C43.87618403 -0.12500749 50.88615295 -0.15132165 57.89632678 -0.19174224 C63.98852873 -0.22565219 70.08059865 -0.23739523 76.17288971 -0.24144554 C78.75477495 -0.24630751 81.33665691 -0.25791027 83.91847992 -0.27648354 C87.53705363 -0.30090009 91.15480617 -0.2999049 94.7734375 -0.29296875 C95.83144562 -0.30577881 96.88945374 -0.31858887 97.97952271 -0.33178711 C109.15605348 -0.25401958 117.98174623 3.76420433 126.20800781 11.30200195 C134.85660074 20.33327598 136.09758393 31.01001713 137.02832031 43.0090332 C139.7661124 77.48971658 153.36589711 107.83875084 179.68847656 130.80981445 C202.7307823 149.25583463 228.64025768 157.54536557 257.86035156 159.30004883 C270.39728985 160.19324533 278.82962879 163.77533722 287.39550781 173.05200195 C293.50894002 180.33787321 295.76203629 187.01420542 295.79267883 196.45304871 C295.79635552 197.18767832 295.80003221 197.92230793 295.80382031 198.67919904 C295.81483779 201.14225958 295.81869784 203.6052779 295.82250977 206.06835938 C295.82877633 207.83444858 295.8354233 209.60053647 295.84242249 211.36662292 C295.86345817 217.17189619 295.87383058 222.97716969 295.88378906 228.7824707 C295.88783806 230.78554104 295.89195503 232.78861123 295.89613914 234.79168129 C295.91519681 244.21193252 295.92942158 253.63217593 295.93775111 263.05244273 C295.94749893 273.89605231 295.97375161 284.73945641 296.01425201 295.58299369 C296.04453046 303.98072446 296.05923141 312.37839679 296.06253213 320.77618104 C296.06487102 325.78294482 296.07367772 330.78948929 296.0989933 335.79619408 C296.12248228 340.51832907 296.12642469 345.24010364 296.11623192 349.96228218 C296.11574132 351.68220604 296.12191877 353.4021489 296.13578796 355.12201691 C296.24586939 369.60008442 294.56946901 383.86871336 287.95800781 396.98950195 C287.6205957 397.68398438 287.28318359 398.3784668 286.93554688 399.09399414 C283.59468804 405.72374968 279.37246869 411.45489141 274.64550781 417.17700195 C274.00226563 418.02004883 273.35902344 418.8630957 272.69628906 419.73168945 C264.40109252 429.62272381 252.46138297 436.63946434 240.83300781 441.92700195 C240.23012939 442.20882324 239.62725098 442.49064453 239.00610352 442.78100586 C225.1940792 448.78935302 210.96454322 448.61519131 196.21264648 448.58105469 C193.97217978 448.5867667 191.73171599 448.59373415 189.49125671 448.60185242 C183.44150807 448.61970818 177.39190507 448.61862959 171.34213805 448.61291003 C166.27544318 448.60980682 161.20877583 448.61592328 156.1420849 448.62194878 C143.49793465 448.63676751 130.85387152 448.63320169 118.20972786 448.62108547 C107.26774158 448.61115966 96.32592457 448.62408929 85.38396438 448.64801966 C74.10703088 448.67249387 62.83017386 448.68159981 51.55320722 448.67536694 C45.2387741 448.67200997 38.92448071 448.67432817 32.61006737 448.69161797 C26.66812152 448.70717956 20.72649665 448.70302986 14.78456306 448.68431282 C12.61635267 448.68065217 10.44811799 448.68366075 8.27993011 448.69419861 C-7.51782263 448.76505793 -22.79314615 447.73329387 -37.16699219 440.48950195 C-38.20980347 439.98229614 -38.20980347 439.98229614 -39.27368164 439.46484375 C-45.90056937 436.12277979 -51.65063125 431.92595643 -57.35449219 427.17700195 C-58.83755859 426.00331055 -58.83755859 426.00331055 -60.35058594 424.8059082 C-75.47938251 411.56575203 -85.79825681 391.03128968 -88.35449219 371.17700195 C-88.50558194 367.25426557 -88.50231232 363.33377528 -88.50166321 359.40849304 C-88.5053399 358.21479672 -88.50901658 357.02110039 -88.51280469 355.79123145 C-88.52190404 352.4855314 -88.52653518 349.17988088 -88.529194 345.87417305 C-88.5331088 342.30540507 -88.54268645 338.73665131 -88.55140686 335.16789246 C-88.57114055 326.55177352 -88.58123462 317.93565346 -88.59013465 309.31951758 C-88.59452358 305.25573874 -88.5998889 301.19196119 -88.60512352 297.12818336 C-88.62213449 283.60762522 -88.63662598 270.08706786 -88.64387226 256.56650066 C-88.64578197 253.06028429 -88.64770233 249.55406791 -88.6496582 246.04785156 C-88.65014194 245.17646311 -88.65062568 244.30507465 -88.65112408 243.40728048 C-88.65941438 229.30914507 -88.68473495 215.21109477 -88.71723888 201.11299648 C-88.75038347 186.61805369 -88.76832778 172.12315404 -88.7715165 157.62817317 C-88.77367502 149.49826929 -88.7823264 141.36848945 -88.80797768 133.23862267 C-88.82978623 126.31088305 -88.83768566 119.38329762 -88.82801089 112.45552757 C-88.82349503 108.92726997 -88.82519159 105.39932979 -88.84477234 101.87111664 C-88.9265998 84.2402665 -88.76526404 67.39535937 -80.60449219 51.30200195 C-80.26305176 50.60349121 -79.92161133 49.90498047 -79.56982422 49.18530273 C-76.46621643 43.02496086 -72.69874256 37.53368356 -68.35449219 32.17700195 C-67.68933594 31.26821289 -67.68933594 31.26821289 -67.01074219 30.34106445 C-51.56290261 10.27771183 -24.50392438 0.06180319 0 0 Z M-8.0703125 201.64067078 C-10.00234617 205.45655206 -9.77242925 209.0075715 -9.74267578 213.22827148 C-9.74793274 214.14247864 -9.7531897 215.05668579 -9.75860596 215.99859619 C-9.77180594 219.01917624 -9.76306925 222.03922909 -9.75292969 225.05981445 C-9.75495007 227.15681052 -9.75786121 229.2538059 -9.7616272 231.35079956 C-9.76605026 235.74394424 -9.75961867 240.13690589 -9.74560547 244.5300293 C-9.72849262 250.17075179 -9.7383683 255.81104673 -9.75632286 261.45175362 C-9.76714315 265.78049973 -9.7637228 270.10914379 -9.75593948 274.43789291 C-9.75393371 276.51839117 -9.75640992 278.59889859 -9.76337814 280.67938614 C-9.77096605 283.5813492 -9.75942683 286.4826109 -9.74267578 289.38452148 C-9.74874847 290.25001617 -9.75482117 291.11551086 -9.76107788 292.00723267 C-9.76852196 294.63237641 -9.76852196 294.63237641 -9.35449219 298.17700195 C-5.68685902 300.62209073 -3.72017444 300.4758592 0.64550781 300.48950195 C2.50175781 300.51463867 2.50175781 300.51463867 4.39550781 300.5402832 C7.51533924 300.43167487 7.51533924 300.43167487 9.33032227 299.11010742 C11.31324274 296.19554192 11.01534527 293.28208019 10.93847656 289.8840332 C10.9321093 288.82499031 10.9321093 288.82499031 10.9256134 287.74455261 C10.90883815 285.49247892 10.87119024 283.24130453 10.83300781 280.98950195 C10.81795938 279.4615201 10.80427125 277.9335242 10.79199219 276.40551758 C10.7589387 272.66233323 10.70716613 268.91981999 10.64550781 265.17700195 C11.64928467 265.19005371 12.65306152 265.20310547 13.68725586 265.21655273 C15.03141038 265.22711353 16.37556748 265.2373501 17.71972656 265.24731445 C19.03287842 265.26036621 20.34603027 265.27341797 21.69897461 265.28686523 C33.24004732 264.96558576 43.89644297 261.43771901 52.02050781 252.98950195 C58.13422075 245.1092204 60.31627138 234.56737913 59.42675781 224.7668457 C58.09840813 217.32042391 54.71703857 211.54336143 48.77050781 206.86450195 C40.8144945 201.35073002 33.22794525 200.02449335 23.73144531 199.9387207 C22.87998932 199.93064896 22.02853333 199.92257721 21.15127563 199.91426086 C19.35770678 199.9004743 17.56411229 199.88972805 15.77050781 199.88183594 C13.93351577 199.87025689 12.09655888 199.84971289 10.25976562 199.8203125 C7.60425995 199.77782631 4.94974772 199.76149987 2.29394531 199.7512207 C1.47203705 199.73371262 0.65012878 199.71620453 -0.19668579 199.69816589 C-4.46785532 199.63585428 -4.46785532 199.63585428 -8.0703125 201.64067078 Z M76.93464661 201.64265442 C74.99467542 205.45648829 75.22756184 209.00630733 75.25732422 213.22827148 C75.25206726 214.14247864 75.2468103 215.05668579 75.24139404 215.99859619 C75.22819406 219.01917624 75.23693075 222.03922909 75.24707031 225.05981445 C75.24504993 227.15681052 75.24213879 229.2538059 75.2383728 231.35079956 C75.23394974 235.74394424 75.24038133 240.13690589 75.25439453 244.5300293 C75.27150738 250.17075179 75.2616317 255.81104673 75.24367714 261.45175362 C75.23285685 265.78049973 75.2362772 270.10914379 75.24406052 274.43789291 C75.24606629 276.51839117 75.24359008 278.59889859 75.23662186 280.67938614 C75.22903395 283.5813492 75.24057317 286.4826109 75.25732422 289.38452148 C75.25125153 290.25001617 75.24517883 291.11551086 75.23892212 292.00723267 C75.23147804 294.63237641 75.23147804 294.63237641 75.64550781 298.17700195 C79.31314098 300.62209073 81.27982556 300.4758592 85.64550781 300.48950195 C87.50175781 300.51463867 87.50175781 300.51463867 89.39550781 300.5402832 C92.51533924 300.43167487 92.51533924 300.43167487 94.33032227 299.11010742 C96.31324274 296.19554192 96.01534527 293.28208019 95.93847656 289.8840332 C95.9321093 288.82499031 95.9321093 288.82499031 95.9256134 287.74455261 C95.90883815 285.49247892 95.87119024 283.24130453 95.83300781 280.98950195 C95.81795938 279.4615201 95.80427125 277.9335242 95.79199219 276.40551758 C95.7589387 272.66233323 95.70716613 268.91981999 95.64550781 265.17700195 C96.64928467 265.19005371 97.65306152 265.20310547 98.68725586 265.21655273 C100.03141038 265.22711353 101.37556748 265.2373501 102.71972656 265.24731445 C104.03287842 265.26036621 105.34603027 265.27341797 106.69897461 265.28686523 C117.61951264 264.98286015 127.207542 261.85019861 135.45410156 254.58325195 C142.28430558 247.36129059 144.74331916 237.93019056 144.64550781 228.17700195 C144.05307718 219.78213385 140.98726822 212.97915543 134.60253906 207.38793945 C124.03637289 199.79526075 112.93880172 199.6698495 100.39331055 199.73095703 C97.68951517 199.7395608 94.98777214 199.71048029 92.28417969 199.67895508 C90.56217511 199.67734508 88.8401668 199.67791673 87.11816406 199.6809082 C86.31194107 199.66967422 85.50571808 199.65844025 84.67506409 199.64686584 C80.47025948 199.63643723 80.47025948 199.63643723 76.93464661 201.64265442 Z M151.64550781 200.17700195 C150.28011843 202.90778071 150.51318955 205.13260562 150.52050781 208.17700195 C150.51792969 209.24950195 150.51535156 210.32200195 150.51269531 211.42700195 C150.45827371 214.13882247 150.45827371 214.13882247 151.64550781 216.17700195 C160.55550781 216.17700195 169.46550781 216.17700195 178.64550781 216.17700195 C178.64550781 243.56700195 178.64550781 270.95700195 178.64550781 299.17700195 C181.80506198 300.75677904 185.18014599 300.36147279 188.64550781 300.36450195 C189.38285156 300.37674805 190.12019531 300.38899414 190.87988281 300.40161133 C192.80320839 300.40687591 194.72605044 300.29903642 196.64550781 300.17700195 C199.15749371 297.66501605 198.88074919 296.15067354 198.89434814 292.72433472 C198.88715759 291.96476471 198.87996704 291.2051947 198.87255859 290.42260742 C198.87285065 289.62252258 198.8731427 288.82243774 198.8734436 287.99810791 C198.87204737 285.34669242 198.85647251 282.69555601 198.84082031 280.04418945 C198.83709122 278.20858921 198.83424376 276.37298698 198.83224487 274.53738403 C198.82460022 269.70072964 198.80494461 264.86419492 198.78283691 260.02758789 C198.76239638 255.09433613 198.753247 250.16106508 198.74316406 245.2277832 C198.72169948 235.5441368 198.68755353 225.86057932 198.64550781 216.17700195 C199.81122314 216.20056763 199.81122314 216.20056763 201.00048828 216.22460938 C204.50708801 216.28680546 208.01357195 216.32594402 211.52050781 216.36450195 C212.74382812 216.38963867 213.96714844 216.41477539 215.22753906 216.44067383 C216.39414062 216.4503418 217.56074219 216.46000977 218.76269531 216.4699707 C219.84147949 216.48568115 220.92026367 216.5013916 222.03173828 216.51757812 C222.89428223 216.40518799 223.75682617 216.29279785 224.64550781 216.17700195 C226.8878479 212.81349182 226.91648997 211.55390139 226.89550781 207.61450195 C226.90066406 206.64383789 226.90582031 205.67317383 226.91113281 204.6730957 C226.89145277 202.00407259 226.89145277 202.00407259 224.64550781 200.17700195 C221.4865521 199.882805 221.4865521 199.882805 217.71728516 199.94995117 C216.6488311 199.94951309 216.6488311 199.94951309 215.55879211 199.94906616 C213.19955347 199.9504618 210.84062892 199.96603368 208.48144531 199.98168945 C206.84762749 199.98541876 205.21380743 199.98826612 203.57998657 199.99026489 C199.27597905 199.99790785 194.97210613 200.01756196 190.66815186 200.03967285 C186.27780986 200.06011705 181.88744617 200.06926355 177.49707031 200.0793457 C168.87982099 200.10080729 160.26268113 200.13495115 151.64550781 200.17700195 Z " fill="#FF0000" transform="translate(152.3544921875,31.822998046875)"/>
<path d="M0 0 C2.8439816 0.65413582 4.02129916 1.56507513 6.15140629 3.53304577 C6.84412695 4.16993517 7.53684761 4.80682457 8.25055981 5.46301365 C12.13964332 9.18739702 15.97669046 12.9576664 19.77968693 16.76993847 C20.67657734 17.66507656 21.57346775 18.56021465 22.49753666 19.48247814 C24.93326228 21.91368607 27.36586418 24.34799628 29.79773688 26.78305745 C32.35019756 29.33806656 34.905116 31.89061619 37.45963383 34.44356823 C41.74064225 38.72276415 46.01955259 43.00404948 50.29726505 47.28654003 C55.24425675 52.23899348 60.19486871 57.18780614 65.14733547 62.13478404 C69.40749149 66.39040756 73.66570273 70.64796967 77.92228276 74.90717 C80.46142367 77.44787024 83.00123632 79.98788906 85.54280758 82.52615833 C88.36811897 85.34805413 91.18934658 88.17401049 94.01015568 91.00040722 C94.85425999 91.8424873 95.6983643 92.68456738 96.56804752 93.55216503 C97.33196308 94.31890041 98.09587864 95.0856358 98.88294315 95.87560558 C99.55007045 96.5431099 100.21719774 97.21061422 100.90454102 97.89834595 C103.31458838 100.50565069 103.66535427 102.40290668 103.81704044 105.87418652 C103.86602482 106.63344433 103.91500919 107.39270214 103.96547794 108.17496777 C103.16637534 111.81863712 101.28831181 113.2251951 98.44204044 115.56168652 C95.11489201 116.19279003 95.11489201 116.19279003 91.33266544 116.19059277 C90.31320835 116.19692982 90.31320835 116.19692982 89.27315617 116.20339489 C87.07815366 116.20628807 84.88656061 116.16866519 82.69204044 116.12418652 C81.94494816 116.11548534 81.19785587 116.10678417 80.42812443 116.09781933 C57.02315426 115.80572933 37.57070332 109.65535651 19.44204044 94.56168652 C18.45332951 93.77922558 17.46461857 92.99676464 16.44594669 92.19059277 C1.17718822 78.82794719 -8.73887184 58.49719809 -11.55795956 38.56168652 C-11.81066781 33.80405377 -11.87003705 29.04789713 -11.90805721 24.28458691 C-11.92467997 22.75904178 -11.95205289 21.23357651 -11.99008846 19.70841503 C-12.04494217 17.49113286 -12.06672987 15.27564986 -12.08139706 13.05778027 C-12.10121639 11.73963329 -12.12103573 10.42148632 -12.14145565 9.0633955 C-11.00628195 2.25092839 -6.52744783 -0.54741865 0 0 Z " fill="#FF0000" transform="translate(331.5579595565796,44.438313484191895)"/>
<path d="M0 0 C17 0 17 0 23 3 C27.72393565 8.21261865 27.34582665 13.81119521 27.26953125 20.5390625 C26.85167302 25.90460436 25.67284636 28.71193358 21.48046875 32.30078125 C14.56188555 36.68707256 8.64791099 35 0 35 C0 23.45 0 11.9 0 0 Z " fill="#FF0000" transform="translate(248,247)"/>
<path d="M0 0 C17 0 17 0 23 3 C27.72393565 8.21261865 27.34582665 13.81119521 27.26953125 20.5390625 C26.85167302 25.90460436 25.67284636 28.71193358 21.48046875 32.30078125 C14.56188555 36.68707256 8.64791099 35 0 35 C0 23.45 0 11.9 0 0 Z " fill="#FF0000" transform="translate(163,247)"/>
</svg>
