<?xml version="1.0" encoding="UTF-8"?>
<svg version="1.1" xmlns="http://www.w3.org/2000/svg" width="512" height="512">
<path d="M0 0 C1.54499876 0.53899212 3.09067954 1.07603242 4.63696289 1.61132812 C8.02155706 2.78814719 11.40034546 3.98006173 14.77587891 5.18261719 C19.51889569 6.8706006 24.2727231 8.52573809 29.03015137 10.17260742 C59.93775602 20.87382483 90.58228196 32.22993865 121.12438965 43.92993164 C124.21958661 45.11337152 127.31690846 46.29106057 130.41503906 47.46679688 C135.22552718 49.29270154 140.03152552 51.12991366 144.83392334 52.97698975 C146.58277378 53.64804769 148.33293986 54.31568903 150.08453369 54.97955322 C163.58033341 60.10236235 177.13182001 65.66288997 184.25 79.125 C184.98608398 82.25488281 184.98608398 82.25488281 185.49609375 85.828125 C185.5920282 86.48580872 185.68796265 87.14349243 185.7868042 87.82110596 C186.10014767 90.00411831 186.3949719 92.18910684 186.6875 94.375 C186.79260895 95.13675537 186.8977179 95.89851074 187.00601196 96.68334961 C189.57283161 115.31837835 191.47699268 134.01952989 193.05145264 152.76257324 C193.17813968 154.26996602 193.30643229 155.77722532 193.43682861 157.28430176 C195.23649321 178.12167388 195.45127991 198.96574307 195.49497986 219.86885834 C195.49989002 221.89218017 195.50779359 223.91547192 195.51623535 225.93878174 C195.59140807 250.36573748 194.79038859 274.83635589 191.4375 299.0625 C191.17876099 300.93578979 191.17876099 300.93578979 190.91479492 302.84692383 C189.60678818 311.75921408 187.88653389 319.83816701 184.25 328.125 C183.94465332 328.84091309 183.63930664 329.55682617 183.32470703 330.29443359 C168.07526579 365.71892252 140.50803266 397.30611712 111.25 422.125 C110.13926737 423.09740976 109.03004102 424.07154131 107.921875 425.046875 C100.20469763 431.82436717 92.36868437 438.38260064 84.2109375 444.62353516 C82.84590985 445.66871942 81.48416795 446.71820309 80.125 447.77099609 C54.57083978 467.5410875 27.28956217 484.75230329 -0.9375 500.4375 C-1.74501709 500.88794678 -2.55253418 501.33839355 -3.38452148 501.80249023 C-9.95144966 505.39242969 -15.39536104 507.42045357 -23 507.5 C-24.22203125 507.52835938 -25.4440625 507.55671875 -26.703125 507.5859375 C-35.6985967 507.02519542 -43.94544524 501.57189963 -51.5625 497.1875 C-52.55950928 496.61757324 -53.55651855 496.04764648 -54.58374023 495.46044922 C-84.63736926 478.16814848 -113.31252555 458.67365974 -140.02197266 436.54882812 C-141.5808644 435.26436123 -143.15480439 433.99821063 -144.73046875 432.734375 C-150.89853478 427.78568133 -156.73083351 422.55348308 -162.5 417.15234375 C-164.56133923 415.22259239 -166.64023383 413.31806831 -168.75 411.44140625 C-216.18566519 368.98900908 -238.69476404 320.57164647 -242.44102478 257.52786255 C-243.0728031 245.13681756 -242.99515491 232.71640674 -243 220.3125 C-243.00058914 219.62081097 -243.00117828 218.92912193 -243.00178528 218.21647263 C-243.01684544 193.09308307 -242.21438883 168.14122029 -239.75 143.125 C-239.67738953 142.38237915 -239.60477905 141.6397583 -239.52996826 140.87463379 C-237.97073554 125.15131535 -235.63652562 109.58323956 -232.6875 94.0625 C-232.56361908 93.40365814 -232.43973816 92.74481628 -232.31210327 92.06600952 C-230.14590291 80.67958094 -228.07080094 72.56639058 -218.75 65.125 C-209.16747032 59.598081 -198.90895348 55.69441262 -188.5625 51.875 C-186.9748557 51.28254903 -185.3874616 50.68942724 -183.80029297 50.09570312 C-180.33509021 48.80101199 -176.86811271 47.51122124 -173.39990234 46.22460938 C-167.3827302 43.99108329 -161.37305354 41.7377191 -155.36328125 39.484375 C-131.27894061 30.46146575 -107.17536569 21.49372774 -82.91601562 12.95068359 C-79.19145096 11.63787518 -75.47258279 10.30994077 -71.75585938 8.97509766 C-66.46810985 7.0773847 -61.17174564 5.20554844 -55.86950684 3.34872437 C-53.82117091 2.62727809 -51.77555812 1.89804374 -49.73303223 1.16030884 C-31.4949289 -5.41414223 -18.46011066 -6.66686971 0 0 Z M-60.49609375 182.70703125 C-71.92257752 194.96525214 -75.36698582 207.6235148 -75.0859375 223.92578125 C-74.52038148 236.78166409 -68.37999776 247.46179691 -59.41015625 256.4765625 C-55.20054786 260.43333636 -55.20054786 260.43333636 -50.15161133 263.07592773 C-47.75 265.125 -47.75 265.125 -47.29335022 267.18130493 C-47.12141504 269.98674467 -47.11104954 272.75586188 -47.1484375 275.56640625 C-47.13642807 277.12257912 -47.13642807 277.12257912 -47.12417603 278.71018982 C-47.10105177 282.03635347 -47.11057486 285.36130287 -47.125 288.6875 C-47.12886051 291.9884783 -47.12526015 295.28891024 -47.10440063 298.58982849 C-47.09241759 300.64339512 -47.09480321 302.69711474 -47.11410522 304.75062561 C-47.0799807 313.62370695 -45.81701435 322.03469438 -39.4765625 328.65625 C-34.13111169 333.20351132 -27.78941531 335.56708888 -20.75 335.125 C-13.67098005 333.69721459 -8.82525372 331.03455193 -4.1875 325.515625 C0.25420747 318.12887236 0.61968439 311.82383982 0.4453125 303.3984375 C0.43834709 301.12760888 0.43319296 298.8567741 0.4296875 296.5859375 C0.40901029 293.03241138 0.37464167 289.48072375 0.30859375 285.92773438 C0.25147069 282.47940579 0.25048599 279.03465048 0.2578125 275.5859375 C0.22382355 274.5264389 0.18983459 273.46694031 0.15481567 272.37533569 C0.22505202 265.14084531 0.22505202 265.14084531 3.22755432 262.16500854 C5.50942517 260.64731081 7.82109091 259.38771544 10.25 258.125 C19.10090393 250.23130494 26.28938898 238.91382935 27.46948242 226.88842773 C28.28850287 210.00836471 25.32312563 197.25574591 14.44140625 183.90625 C4.43374539 173.08715718 -8.832797 167.86675504 -23.32421875 167.06640625 C-37.62896024 167.31107116 -50.23722635 172.87630278 -60.49609375 182.70703125 Z " fill="#000000" transform="translate(279.75,4.875)"/>
</svg>
