<?xml version="1.0" encoding="UTF-8"?>
<svg version="1.1" xmlns="http://www.w3.org/2000/svg" width="512" height="512">
<path d="M0 0 C2.44385189 -0.00542711 4.8877005 -0.01255307 7.33154297 -0.02124023 C13.254469 -0.03752428 19.17720848 -0.03522665 25.10012913 -0.02358967 C29.91808799 -0.01451929 34.73599011 -0.01334684 39.55395508 -0.01768494 C40.24228062 -0.01829787 40.93060616 -0.0189108 41.63979006 -0.01954231 C43.03854562 -0.02082134 44.43730118 -0.02211819 45.83605671 -0.02343267 C58.92154194 -0.03481166 72.0069147 -0.02176704 85.09238148 -0.00023121 C96.29601893 0.01763736 107.49949054 0.0145325 118.703125 -0.00390625 C131.74496943 -0.02536055 144.78671552 -0.03371327 157.82857513 -0.0214572 C159.22189838 -0.02018313 160.61522164 -0.01892565 162.00854492 -0.01768494 C162.69390839 -0.01706783 163.37927186 -0.01645073 164.08540392 -0.01581493 C168.89200248 -0.01237567 173.69853814 -0.01815947 178.50512695 -0.02760315 C184.98627433 -0.04005821 191.4671834 -0.03106467 197.94830322 -0.00802612 C200.31975793 -0.00275978 202.6912391 -0.004217 205.06268311 -0.01307678 C234.67182591 -0.11345627 234.67182591 -0.11345627 245.84765625 9.54492188 C256.16100535 20.06662146 257.23512062 32.30242694 257.09844017 46.38510704 C257.0904471 47.17518969 257.08245403 47.96527233 257.07421875 48.77929688 C257.06861147 50.42266957 257.06434673 52.06604734 257.06135559 53.70942688 C257.04999581 57.99858875 257.02060697 62.28743745 256.98724365 66.57647705 C256.95634963 70.9676083 256.94280927 75.358791 256.92773438 79.75 C256.89572711 88.33933514 256.84464058 96.92841748 256.78125 105.51757812 C258.55786011 105.48615723 258.55786011 105.48615723 260.37036133 105.45410156 C264.81147931 105.38109142 269.25254549 105.33555889 273.6940918 105.29785156 C275.60759434 105.27787393 277.52103692 105.25068214 279.43432617 105.21582031 C293.61187216 104.9641698 305.88847571 105.24724808 316.78125 115.51757812 C328.11138658 127.00544283 327.36391056 142.63535682 327.29882812 157.61523438 C327.30425727 159.72411582 327.31138436 161.83299346 327.32006836 163.94186401 C327.33821021 169.63609603 327.331272 175.33003619 327.31855202 181.02427292 C327.30837684 187.00259905 327.31783019 192.98090133 327.32409668 198.95922852 C327.33135996 208.9959763 327.32182002 219.03260609 327.30273438 229.06933594 C327.28096828 240.6488837 327.28802058 252.22814968 327.31004 263.80769062 C327.3282316 273.77582607 327.33073394 283.74387703 327.32028532 293.71202374 C327.31407106 299.65410158 327.31315767 305.59604727 327.32643127 311.53811646 C327.33804394 317.12630432 327.32986537 322.71413127 327.30685425 328.30228043 C327.30159601 330.34477262 327.30303103 332.38729555 327.31190491 334.42977524 C327.36646309 348.2705717 327.29605822 361.50463468 317.76171875 372.58398438 C310.13091087 380.03418142 301.16489262 383.8604112 290.51048279 383.85746765 C289.66010941 383.8419838 288.80973602 383.82649994 287.93359375 383.81054688 C287.03629044 383.80630203 286.13898712 383.80205719 285.2144928 383.79768372 C282.38225757 383.78105176 279.55076576 383.7434301 276.71875 383.70507812 C274.78451557 383.69001122 272.85026986 383.67632635 270.91601562 383.6640625 C266.20414589 383.63119924 261.49282345 383.57952653 256.78125 383.51757812 C256.79013245 384.41578781 256.79901489 385.3139975 256.8081665 386.23942566 C256.88873046 394.75597062 256.94942516 403.27238531 256.98849869 411.78922558 C257.009263 416.16653554 257.03737313 420.54352736 257.08300781 424.9206543 C257.12686827 429.15470259 257.1504707 433.3884473 257.16075897 437.62270546 C257.16807899 439.22804853 257.1823705 440.83337735 257.20417023 442.4385891 C257.37225203 455.34310425 256.44484111 467.41343824 247.6328125 477.65039062 C239.17787085 486.17668199 229.31938296 488.60509295 217.55026382 488.66530782 C216.6077623 488.66512346 215.66526078 488.66493909 214.69419861 488.66474915 C213.17506051 488.67026418 213.17506051 488.67026418 211.62523276 488.67589062 C208.23314154 488.68689967 204.84108099 488.6907666 201.44897461 488.69458008 C199.01601057 488.70084683 196.58304749 488.70749382 194.15008545 488.7144928 C186.85101726 488.73369593 179.55195164 488.74431726 172.25286588 488.75322059 C168.81019889 488.75761076 165.36753342 488.76297565 161.92486763 488.76820946 C150.47168644 488.78521662 139.01850617 488.79970924 127.56531429 488.8069582 C124.5963586 488.80886789 121.62740292 488.81078825 118.65844727 488.81274414 C117.92058723 488.81322788 117.1827272 488.81371162 116.42250777 488.81421002 C104.47824938 488.82250468 92.53409132 488.84783432 80.5898767 488.88032482 C68.30977723 488.913455 56.02972864 488.9314123 43.74958426 488.93460244 C36.86170413 488.93676196 29.97397035 488.94542846 23.08613396 488.97106361 C16.60265462 488.9951391 10.11936665 488.99855903 3.635849 488.98830223 C1.26277351 488.98780787 -1.11031511 488.99409863 -3.48335075 489.00785828 C-33.0656008 489.16972056 -33.0656008 489.16972056 -44.28515625 479.49414062 C-55.12865895 468.4096712 -55.65794169 455.83961884 -55.51171875 441.13476562 C-55.50611317 439.46754338 -55.50184762 437.80031614 -55.49885559 436.13308716 C-55.48748248 431.7765096 -55.45808159 427.42023919 -55.42474365 423.06378174 C-55.39387893 418.60571445 -55.38031544 414.14759681 -55.36523438 409.68945312 C-55.33320348 400.96535493 -55.2821001 392.24150489 -55.21875 383.51757812 C-56.37286377 383.53852539 -57.52697754 383.55947266 -58.71606445 383.58105469 C-63.04536264 383.6540884 -67.37460769 383.69960562 -71.7043457 383.73730469 C-73.56934807 383.75727708 -75.43428898 383.7844648 -77.29907227 383.81933594 C-90.26332537 384.05549163 -101.84413279 383.97645263 -112.37109375 375.33007812 C-121.93685211 365.94633208 -124.47241606 355.18480961 -124.64374983 342.04227209 C-124.65586186 339.89040289 -124.65365637 337.73881199 -124.65112305 335.58691406 C-124.66016307 334.0177179 -124.67049568 332.44852874 -124.68200684 330.87934875 C-124.70945288 326.63934937 -124.71885309 322.3994843 -124.72486091 318.15940762 C-124.73435254 313.66149761 -124.7605983 309.16368267 -124.78486633 304.66583252 C-124.82850763 296.10672979 -124.85702987 287.54764547 -124.88018972 278.98846555 C-124.90681482 269.435823 -124.95098487 259.88328849 -124.99642158 250.33071995 C-125.07378841 233.99789094 -125.13021054 217.66512276 -125.16747642 201.33215427 C-125.18979575 191.71113196 -125.22890765 182.09076055 -125.31162167 172.47005844 C-125.34991504 167.93655054 -125.3778333 163.40301556 -125.40390968 158.86942291 C-125.41818894 156.89533113 -125.43768706 154.92126824 -125.46310997 152.94728851 C-125.64953022 138.37586969 -125.04001645 125.99462218 -114.58984375 114.76757812 C-108.46927146 109.08723261 -100.41010596 105.37809863 -92.00097656 105.40405273 C-91.18042786 105.40412827 -90.35987915 105.4042038 -89.51446533 105.40428162 C-88.63828552 105.4094429 -87.76210571 105.41460419 -86.859375 105.41992188 C-85.50280792 105.4220443 -85.50280792 105.4220443 -84.11883545 105.42420959 C-81.23543973 105.42979902 -78.35212218 105.4423496 -75.46875 105.45507812 C-73.51171987 105.46009449 -71.55468853 105.46465716 -69.59765625 105.46875 C-64.80465747 105.47976499 -60.01171698 105.49702238 -55.21875 105.51757812 C-55.22874275 104.14147873 -55.22874275 104.14147873 -55.23893738 102.73757935 C-55.29924769 94.05819742 -55.34482525 85.37888668 -55.37418652 76.69934273 C-55.38978929 72.23794685 -55.41092814 67.77672528 -55.44506836 63.31542969 C-55.47785527 59.00360291 -55.49564346 54.69194296 -55.50338173 50.38000107 C-55.50889075 48.74149833 -55.51964785 47.1030039 -55.53594017 45.46457291 C-55.66876956 31.54287879 -54.4439783 19.92558928 -44.28515625 9.54101562 C-31.62578365 -1.37624148 -15.67877578 -0.05857635 0 0 Z M-19.21875 36.51757812 C-19.21875 59.28757812 -19.21875 82.05757812 -19.21875 105.51757812 C59.98125 105.51757812 139.18125 105.51757812 220.78125 105.51757812 C220.78125 82.74757813 220.78125 59.97757813 220.78125 36.51757812 C141.58125 36.51757812 62.38125 36.51757812 -19.21875 36.51757812 Z M-19.21875 279.51757812 C-19.21875 336.60757813 -19.21875 393.69757813 -19.21875 452.51757812 C59.98125 452.51757812 139.18125 452.51757812 220.78125 452.51757812 C220.78125 395.42757812 220.78125 338.33757812 220.78125 279.51757812 C141.58125 279.51757812 62.38125 279.51757812 -19.21875 279.51757812 Z " fill="#4781F0" transform="translate(155.21875,11.482421875)"/>
<path d="M0 0 C1.20695023 -0.00852997 2.41390045 -0.01705994 3.65742493 -0.02584839 C4.97338654 -0.02494202 6.28934814 -0.02403564 7.64518738 -0.02310181 C9.05164954 -0.0290893 10.45810841 -0.03589536 11.86456299 -0.04345703 C15.67874963 -0.06110293 19.4928465 -0.06581184 23.30707002 -0.0670886 C25.69233966 -0.06851169 28.07758658 -0.0727843 30.46285057 -0.07808304 C38.79089681 -0.09657945 47.11887909 -0.10475424 55.44694519 -0.10317993 C63.19901081 -0.101979 70.95079781 -0.12307273 78.70279294 -0.15466726 C85.3670958 -0.18085676 92.03130782 -0.19154609 98.69566172 -0.19026911 C102.67205301 -0.18976021 106.64819667 -0.19540309 110.62453651 -0.21662521 C114.36669979 -0.23605263 118.1083804 -0.23610179 121.85056114 -0.22159195 C123.86957015 -0.21851871 125.88857944 -0.23514919 127.90751648 -0.25247192 C135.571335 -0.19957487 141.73171595 0.18867231 147.53220844 5.75014687 C151.79717937 10.59374369 152.28680613 14.5681963 152.19670105 20.76742554 C151.76783259 25.85031104 149.74612782 28.52395825 146.17326355 32.01742554 C141.23469567 35.50347345 136.88058615 36.51551644 130.88923645 36.53485107 C129.68932571 36.54338104 128.48941498 36.55191101 127.25314331 36.56069946 C125.95012772 36.55979309 124.64711212 36.55888672 123.30461121 36.55795288 C121.90785362 36.56394229 120.51109934 36.57074878 119.11434937 36.57830811 C115.3312125 36.59593247 111.54816619 36.60066195 107.76499224 36.60193968 C105.39864575 36.60336375 103.0323221 36.60763816 100.66598129 36.61293411 C92.40276891 36.63142192 84.13962093 36.63960621 75.87638855 36.63803101 C68.18621726 36.63682963 60.49632665 36.65793427 52.80622637 36.68951833 C46.19285824 36.71570767 39.57958165 36.72639721 32.96616209 36.72512019 C29.02108402 36.72461137 25.07625559 36.73024972 21.1312294 36.75147629 C17.41942031 36.77090401 13.70809784 36.77095269 9.99627113 36.75644302 C7.9939703 36.75337015 5.99166917 36.76999918 3.98944092 36.787323 C-3.64652058 36.73418718 -9.78166326 36.32448589 -15.56110191 30.78470421 C-19.82529867 25.94052199 -20.31528088 21.966782 -20.22517395 15.76742554 C-19.7937111 10.65379175 -17.77304239 7.99323992 -14.13923645 4.51742554 C-9.38995598 1.0979436 -5.83459135 0.01867955 0 0 Z " fill="#4781F0" transform="translate(190.0142364501953,324.7325744628906)"/>
<path d="M0 0 C1.17184845 -0.00571014 2.3436969 -0.01142029 3.55105591 -0.01730347 C4.82804352 -0.01842133 6.10503113 -0.01953918 7.42071533 -0.02069092 C8.78614434 -0.02532292 10.15157206 -0.03034809 11.51699829 -0.03573608 C15.21966728 -0.04882573 18.92231817 -0.05529837 22.62500668 -0.05974674 C24.94126311 -0.06268316 27.25751465 -0.06678904 29.57376862 -0.07125092 C36.82942581 -0.0849171 44.08507175 -0.09458793 51.34074092 -0.09845281 C59.7002869 -0.10293087 68.05966916 -0.1204707 76.41916537 -0.1494534 C82.8915435 -0.17111007 89.36387569 -0.18115922 95.83628964 -0.18249393 C99.69698215 -0.18353915 103.55752057 -0.18938636 107.41817474 -0.20731354 C111.0527459 -0.22386328 114.68704828 -0.22591656 118.32164383 -0.21717453 C120.27962457 -0.21604428 122.23759668 -0.22970837 124.19552612 -0.243927 C139.35758658 -0.172557 139.35758658 -0.172557 144.72303391 4.52161789 C149.29797625 9.76154869 150.56594191 13.88200039 150.38653564 20.67950439 C149.77508739 26.8926076 146.4169421 30.13636668 141.86309814 33.94122314 C138.43478321 36.33325197 135.3251002 36.26960044 131.28123474 36.28088379 C130.05731522 36.28659393 128.83339569 36.29230408 127.5723877 36.29818726 C126.21380625 36.2994326 124.8552247 36.3005577 123.49664307 36.30157471 C122.06752901 36.30620345 120.63841619 36.31122819 119.20930481 36.31661987 C115.32490642 36.3297407 111.44052532 36.33618824 107.55610824 36.34063053 C105.12899464 36.34356185 102.70188577 36.34766678 100.27477455 36.3521347 C92.68006734 36.36580898 85.08537093 36.3754759 77.49065226 36.3793366 C68.72524588 36.38381693 59.95999548 36.40136391 51.19463652 36.43033719 C44.41831429 36.4519579 37.64203592 36.46204109 30.86567956 36.46337771 C26.81893787 36.46442549 22.7723428 36.47032739 18.72563744 36.48819733 C14.91792199 36.50468475 11.11046328 36.50683037 7.30272484 36.49805832 C5.90714836 36.49728829 4.51155804 36.50162621 3.11601639 36.51151657 C1.20685718 36.52425075 -0.70240534 36.51656221 -2.61158752 36.50793457 C-3.67881452 36.50940113 -4.74604151 36.51086769 -5.84560871 36.51237869 C-11.0311064 35.87163126 -14.89189404 33.66732482 -18.16815186 29.64044189 C-18.65928467 29.05262939 -19.15041748 28.46481689 -19.65643311 27.85919189 C-22.70219604 23.49392906 -22.51920439 18.23019148 -21.85565186 13.14044189 C-19.64063192 7.53605955 -16.21901952 3.93386255 -10.85565186 1.14044189 C-7.19621795 0.21218765 -3.76732571 0.01102885 0 0 Z " fill="#4881F0" transform="translate(191.85565185546875,393.85955810546875)"/>
</svg>
