<?xml version="1.0" standalone="no"?>
<!DOCTYPE svg PUBLIC "-//W3C//DTD SVG 20010904//EN"
 "http://www.w3.org/TR/2001/REC-SVG-20010904/DTD/svg10.dtd">
<svg version="1.0" xmlns="http://www.w3.org/2000/svg"
 width="512.000000pt" height="512.000000pt" viewBox="0 0 512.000000 512.000000"
 preserveAspectRatio="xMidYMid meet">

<g transform="translate(0.000000,512.000000) scale(0.100000,-0.100000)"
fill="#000000" stroke="none">
<path d="M1435 4790 c-315 -43 -573 -230 -705 -513 -22 -46 -50 -124 -62 -173
l-23 -89 0 -1455 0 -1455 23 -89 c70 -275 244 -489 495 -606 46 -22 124 -50
173 -62 l89 -23 1135 0 1135 0 89 23 c269 68 478 236 601 481 20 41 49 118 63
170 l27 96 0 900 c0 860 -1 902 -19 951 -39 104 -120 186 -224 227 -29 12 -93
21 -176 27 -157 11 -221 22 -337 60 -183 60 -336 156 -480 299 -225 225 -337
477 -358 806 -7 94 -16 156 -28 187 -40 102 -115 177 -221 223 -45 19 -71 20
-592 21 -300 1 -572 -2 -605 -6z m396 -1994 c163 -38 247 -150 237 -315 -8
-140 -75 -244 -192 -296 -52 -24 -171 -45 -252 -45 l-44 0 0 -165 0 -165 -26
-10 c-33 -13 -125 -13 -158 0 l-26 10 0 480 c0 467 1 481 20 500 19 19 33 20
203 20 116 0 202 -5 238 -14z m882 -2 c239 -54 351 -206 351 -474 0 -183 -42
-308 -132 -393 -110 -102 -203 -127 -484 -127 -192 0 -197 1 -212 22 -14 20
-16 83 -16 485 0 450 1 464 20 483 19 19 33 20 211 20 139 0 209 -4 262 -16z
m1075 4 c12 -12 17 -114 6 -142 -5 -14 -31 -16 -180 -16 l-174 0 0 -135 0
-135 168 -2 167 -3 3 -68 c2 -42 -2 -74 -9 -83 -9 -11 -46 -14 -170 -14 l-159
0 0 -195 0 -195 -27 -11 c-29 -11 -151 -7 -172 5 -8 5 -11 139 -11 487 0 466
1 480 20 499 19 19 33 20 273 20 183 0 256 -3 265 -12z"/>
<path d="M1580 2470 l0 -170 48 0 c147 1 212 56 212 182 0 116 -49 158 -185
158 l-75 0 0 -170z"/>
<path d="M2430 2299 l0 -342 103 5 c167 8 241 53 286 173 42 111 37 274 -9
365 -28 54 -92 107 -151 124 -30 9 -90 16 -141 16 l-88 0 0 -341z"/>
<path d="M3233 4636 l-28 -24 1 -154 c1 -120 6 -172 23 -242 41 -169 130 -326
252 -442 81 -77 140 -116 243 -165 131 -61 234 -82 413 -83 146 -1 152 0 176
22 34 32 41 66 22 105 -8 18 -238 252 -509 520 -464 457 -497 487 -530 487
-23 0 -45 -8 -63 -24z"/>
</g>
</svg>
