<?xml version="1.0" encoding="UTF-8"?>
<svg version="1.1" xmlns="http://www.w3.org/2000/svg" width="512" height="512">
<path d="M0 0 C2.25440431 2.15610179 4.54404689 4.19755124 6.9375 6.1953125 C9.6875 8.5703125 9.6875 8.5703125 10.6875 10.5703125 C13.62295523 9.24779295 15.67372175 7.82388866 17.92382812 5.52929688 C18.53125854 4.91526001 19.13868896 4.30122314 19.76452637 3.6685791 C20.40942017 3.00708862 21.05431396 2.34559814 21.71875 1.6640625 C22.39168091 0.98355835 23.06461182 0.3030542 23.75793457 -0.39807129 C25.90599089 -2.57053875 28.04749217 -4.7492931 30.1875 -6.9296875 C33.00466356 -9.80001703 35.82833877 -12.66370063 38.65625 -15.5234375 C39.3011438 -16.18492798 39.9460376 -16.84641846 40.61047363 -17.5279541 C41.21790405 -18.14199097 41.82533447 -18.75602783 42.45117188 -19.38867188 C43.24581848 -20.19902893 43.24581848 -20.19902893 44.05651855 -21.02575684 C48.59790266 -24.93492969 52.98729349 -24.85481317 58.7734375 -24.7421875 C64.01257346 -24.18034986 66.50539567 -21.81676963 69.81140137 -17.9375 C72.36481774 -13.16328094 72.24919296 -9.26297349 72.20507812 -3.9296875 C72.21559204 -2.36275146 72.21559204 -2.36275146 72.22631836 -0.76416016 C72.24389022 2.68093631 72.23227782 6.12520801 72.21875 9.5703125 C72.22144513 11.9687516 72.22532772 14.36718964 72.23034668 16.765625 C72.23624066 21.78916845 72.22768159 26.81242717 72.20898438 31.8359375 C72.18619537 38.27220322 72.19931892 44.70780172 72.22327423 51.14404297 C72.23773461 56.09575418 72.233125 61.04730745 72.22276306 65.99902344 C72.22009647 68.37207112 72.22336314 70.74513318 72.23268127 73.11816406 C72.24285031 76.43593278 72.22733934 79.75262395 72.20507812 83.0703125 C72.21317505 84.04919434 72.22127197 85.02807617 72.22961426 86.03662109 C72.15951106 91.68193143 71.69042822 95.25349684 67.6875 99.5703125 C61.95483109 103.91311406 57.21247278 104.14695936 50.16577148 104.08789062 C49.130755 104.0948999 48.09573853 104.10190918 47.02935791 104.10913086 C43.62216032 104.12667706 40.21579918 104.11510035 36.80859375 104.1015625 C34.43400412 104.10425816 32.05941557 104.1081412 29.68482971 104.11315918 C24.71433985 104.11904951 19.74413797 104.11050511 14.77368164 104.09179688 C8.40582354 104.06899563 2.03863938 104.08214146 -4.32919407 104.10608673 C-9.23029145 104.12054639 -14.13122925 104.11593805 -19.03233147 104.10557556 C-21.38025937 104.10290941 -23.72820182 104.10617408 -26.07611275 104.11549377 C-29.35785395 104.12566303 -32.63850586 104.11015218 -35.92016602 104.08789062 C-36.88812607 104.09598755 -37.85608612 104.10408447 -38.8533783 104.11242676 C-44.51250752 104.04138078 -47.84999139 103.39701195 -52.3125 99.5703125 C-55.89807813 95.30638175 -57.60478017 91.16539004 -57.3125 85.5703125 C-56.36130164 81.71116487 -55.17185171 78.42966421 -52.3125 75.5703125 C-49.88916016 75.13134766 -49.88916016 75.13134766 -46.8515625 74.859375 C-45.73910156 74.74851563 -44.62664062 74.63765625 -43.48046875 74.5234375 C-41.15793355 74.30834052 -38.83502222 74.0972586 -36.51171875 73.890625 C-25.45324164 72.77591024 -14.75743773 70.58558771 -6.4375 62.8203125 C-4.70973632 59.36478515 -4.63217612 56.28897606 -5.3125 52.5703125 C-8.14093779 44.98681988 -13.80475079 39.31263366 -19.3125 33.5703125 C-19.89386719 32.92578125 -20.47523438 32.28125 -21.07421875 31.6171875 C-35.64822794 16.02791025 -55.1501295 4.5531316 -74.3125 -4.4296875 C-75.43011719 -4.96464844 -76.54773438 -5.49960938 -77.69921875 -6.05078125 C-122.06763926 -26.26597876 -173.56755405 -25.48676829 -218.98779297 -9.48730469 C-236.97615034 -2.74298382 -253.20441535 6.77841629 -268.3125 18.5703125 C-269.240625 19.27414063 -270.16875 19.97796875 -271.125 20.703125 C-311.98313533 52.68434402 -334.06148645 99.4228374 -340.7734375 150.046875 C-341.06388883 152.896438 -341.22619613 155.70727541 -341.3125 158.5703125 C-341.3431958 159.51656494 -341.3431958 159.51656494 -341.37451172 160.48193359 C-342.77099596 210.12060068 -325.45123289 258.80072918 -291.4753418 295.19458008 C-290.54503863 296.17805269 -289.61235397 297.15927828 -288.67724609 298.13818359 C-287.36301533 299.51730303 -286.06589339 300.91266463 -284.76953125 302.30859375 C-273.03991518 314.57056759 -259.17429491 324.45609175 -244.3125 332.5703125 C-243.69616699 332.90869141 -243.07983398 333.24707031 -242.44482422 333.59570312 C-224.72831478 343.19004373 -206.04959253 349.64914801 -186.3125 353.5703125 C-185.14074219 353.80492187 -183.96898437 354.03953125 -182.76171875 354.28125 C-135.03726683 362.32273274 -83.84571981 350.31586407 -44.3125 322.5703125 C-35.06118335 315.89546674 -26.57319038 308.42168939 -18.3125 300.5703125 C-17.68085938 299.99152344 -17.04921875 299.41273438 -16.3984375 298.81640625 C5.65268129 277.96712568 19.1899835 249.15432251 28.9296875 220.9765625 C31.04075191 214.88884187 32.82437826 210.59544739 38.25 206.7578125 C44.5403282 204.58479003 51.00641018 204.44440485 57.125 207.2578125 C62.18833357 210.19848067 64.8514958 214.06684321 66.6875 219.5703125 C66.96589999 227.11560981 64.90583444 234.17020493 62.375 241.1953125 C62.02671143 242.17459717 61.67842285 243.15388184 61.31958008 244.1628418 C52.45661861 268.3013668 40.20928671 290.85803405 23.6875 310.5703125 C23.19072754 311.16859863 22.69395508 311.76688477 22.18212891 312.38330078 C-6.279754 346.5755215 -43.66837654 371.58586615 -86.3125 384.5703125 C-87.06063965 384.80298828 -87.8087793 385.03566406 -88.57958984 385.27539062 C-145.56959991 402.68108437 -207.88442365 394.54852759 -260.28515625 367.2890625 C-275.76739148 359.02878531 -290.33240385 348.52533163 -303.16796875 336.5625 C-305.10467432 334.76337461 -307.09398736 333.07322054 -309.125 331.3828125 C-344.45617333 300.38806085 -366.10281965 254.93153617 -375.3125 209.5703125 C-375.49184082 208.71163574 -375.67118164 207.85295898 -375.85595703 206.96826172 C-380.98088585 181.28254596 -380.66104391 151.17892928 -375.3125 125.5703125 C-375.11382324 124.59175293 -374.91514648 123.61319336 -374.71044922 122.60498047 C-370.4916986 102.33285669 -364.25944451 82.8253686 -354.39404297 64.57275391 C-353.23595909 62.42859952 -352.10513007 60.2710591 -350.97265625 58.11328125 C-345.55367956 47.93607318 -339.43142679 38.63320235 -332.3125 29.5703125 C-331.55066406 28.59578125 -330.78882813 27.62125 -330.00390625 26.6171875 C-324.41829759 19.64762233 -318.43003459 13.07136226 -312.3125 6.5703125 C-311.69632812 5.91160156 -311.08015625 5.25289063 -310.4453125 4.57421875 C-305.47350523 -0.57600266 -299.9089743 -4.98177067 -294.3125 -9.4296875 C-293.35730469 -10.2134375 -292.40210938 -10.9971875 -291.41796875 -11.8046875 C-218.93409591 -69.86622364 -112.2165066 -74.4565395 0 0 Z " fill="#000000" transform="translate(408.3125,88.4296875)"/>
</svg>
