<?xml version="1.0" encoding="UTF-8"?>
<svg version="1.1" xmlns="http://www.w3.org/2000/svg" width="512" height="512">
<path d="M0 0 C2.79560984 1.09941618 4.09809309 2.87358545 6.02908361 5.15757048 C10.96816524 10.83622796 16.20405491 16.15349516 21.53831518 21.45806181 C22.56784698 22.48566872 23.59714711 23.51350777 24.62623632 24.54155791 C26.82147461 26.73366422 29.01824869 28.92421489 31.21627271 31.11352789 C34.69480209 34.57841099 38.16940287 38.04721639 41.64346349 41.51657927 C49.01062668 48.87270157 56.38204353 56.22455454 63.75389135 63.57598174 C71.73225845 71.53228574 79.70986338 79.48934571 87.68261009 87.45128232 C91.13396596 90.89766885 94.58774159 94.34160602 98.04341793 97.78366017 C100.19100275 99.9237738 102.33650304 102.06596793 104.48144948 104.20872557 C105.47383778 105.19924609 106.46708805 106.1889039 107.46127546 107.17761862 C108.8214183 108.53051055 110.17815255 109.88682672 111.53472936 111.24329436 C112.29365893 112.00000331 113.0525885 112.75671227 113.83451593 113.5363518 C116.01840234 115.8448883 117.99121077 118.25591845 119.94139135 120.76348174 C118.62179721 123.68237565 117.19931659 125.75536325 114.93775022 128.01601183 C114.3186573 128.63970355 113.69956438 129.26339526 113.06171107 129.90598673 C112.03975184 130.92023062 112.03975184 130.92023062 110.99714696 131.95496428 C110.27421032 132.68031534 109.55127368 133.4056664 108.80642986 134.15299779 C106.3761768 136.58889862 103.93882396 139.01756902 101.50144994 141.44634306 C99.76004019 143.18882548 98.01906341 144.93174069 96.27848852 146.67505705 C92.03535708 150.92253948 87.78759955 155.16534449 83.53767209 159.40602318 C78.58503164 164.34827362 73.6376286 169.29575306 68.69042404 174.24344381 C59.85777997 183.07658865 51.02031287 191.90489237 42.18016088 200.73052275 C33.61143881 209.28517643 25.0462073 217.84330475 16.48484838 226.40532744 C15.95821184 226.93200394 15.4315753 227.45868043 14.88898008 228.00131682 C14.36323725 228.5271 13.83749442 229.05288318 13.29582 229.59459919 C3.5416444 239.34946606 -6.21582458 249.10103281 -15.97481585 258.85108182 C-19.42030099 262.29355854 -22.8648164 265.73700373 -26.30902445 269.18075812 C-30.95382907 273.82480623 -35.60143693 278.4660366 -40.25087702 283.10544455 C-41.95446448 284.80611924 -43.65721655 286.50763122 -45.35905802 288.21005309 C-47.68788663 290.53937518 -50.0197819 292.86558453 -52.35246241 295.19104826 C-53.02038424 295.86051869 -53.68830606 296.52998912 -54.37646794 297.21974653 C-58.19868564 301.02254754 -62.12669931 304.64272822 -66.22216672 308.150204 C-69.46287117 310.99709845 -72.46817363 314.07604582 -75.4934231 317.14824736 C-76.53668757 318.20093054 -76.53668757 318.20093054 -77.60102808 319.27488005 C-79.09758437 320.78518847 -80.59305633 322.29657199 -82.08753359 323.80893767 C-84.46101568 326.20930063 -86.83905525 328.60505813 -89.21856654 330.99944365 C-95.97939146 337.80277722 -102.73753235 344.60870009 -109.47926295 351.4309622 C-113.6164847 355.61693523 -117.76360291 359.79288281 -121.91718066 363.96262419 C-123.48878018 365.5440628 -125.05673268 367.12913512 -126.62079775 368.7180258 C-136.25181019 378.49851652 -145.22469296 387.35180347 -158.18360865 392.57598174 C-159.09368678 392.95367705 -160.0037649 393.33137236 -160.94142115 393.72051299 C-168.69008358 396.31311057 -175.97992062 397.08088029 -184.12892115 397.09941924 C-185.16821772 397.10607604 -186.20751429 397.11273283 -187.2783047 397.11959136 C-189.46840119 397.12966751 -191.65852807 397.13440995 -193.84864771 397.1340872 C-197.15354115 397.13844212 -200.45707737 397.17476689 -203.76173365 397.21270049 C-224.66558926 397.32529388 -242.21264466 394.01045687 -257.9140774 378.94316924 C-258.62177271 378.22387236 -259.32946803 377.50457549 -260.05860865 376.76348174 C-260.63224146 376.18855986 -261.20587428 375.61363799 -261.7968899 375.02129424 C-273.01139351 362.90847122 -277.17489782 347.25570291 -277.2968899 331.20488799 C-277.30496165 330.18354262 -277.31303339 329.16219725 -277.32134974 328.10990202 C-277.3351511 325.9489541 -277.34589082 323.78798474 -277.35377467 321.62700713 C-277.36524639 319.44237068 -277.38562099 317.25776118 -277.4152981 315.07329619 C-277.75877716 289.74987119 -273.08039971 272.39348416 -255.05860865 253.76348174 C-248.82714095 247.40135576 -242.51397065 241.12069361 -236.20210707 234.83851779 C-233.75691901 232.40345149 -231.31509106 229.96502071 -228.87300074 227.52684844 C-222.68786687 221.35271888 -216.49846474 215.18287648 -210.30860865 209.01348174 C-203.60818258 202.33516875 -196.90854855 195.65607131 -190.21378744 188.97207868 C-187.79238785 186.55481646 -185.36993526 184.13862992 -182.9449383 181.72497618 C-180.24391365 179.0359665 -177.54598331 176.34388647 -174.84864771 173.65117705 C-174.05888041 172.86657607 -173.26911311 172.08197508 -172.45541346 171.27359831 C-171.71282786 170.53108321 -170.97024226 169.7885681 -170.20515406 169.02355254 C-169.56957701 168.3901961 -168.93399996 167.75683966 -168.279163 167.1042906 C-166.36604371 165.08756599 -164.5417449 163.03119329 -162.72289908 160.93029559 C-159.37814509 157.08628363 -155.8839465 153.43796862 -152.28341639 149.83438933 C-151.31700174 148.8614013 -151.31700174 148.8614013 -150.33106357 147.86875695 C-148.19481249 145.71926562 -146.0550978 143.57325839 -143.9152981 141.4273001 C-142.37380262 139.87789297 -140.83248656 138.32830733 -139.2913357 136.77855742 C-134.25525814 131.71641786 -129.21386443 126.65959059 -124.1718899 121.60332549 C-122.43380176 119.8598742 -120.69572082 118.11641573 -118.95764697 116.3729502 C-111.73401269 109.12772495 -104.50895443 101.88392474 -97.28016341 94.64384425 C-87.8634768 85.21235107 -78.45163787 75.77617976 -69.0534817 66.32622588 C-60.84119245 58.06882127 -52.62033055 49.82007478 -44.38844424 41.58220452 C-40.03384494 37.22394328 -35.68357144 32.86155532 -31.34333193 28.48898947 C-27.2690347 24.38477541 -23.18320686 20.29241335 -19.08801234 16.20905364 C-17.584003 14.7052663 -16.08430165 13.19715671 -14.58916247 11.68454993 C-12.55501212 9.6279251 -10.50622946 7.58712031 -8.45284998 5.54972136 C-7.85839731 4.94138659 -7.26394463 4.33305183 -6.65147823 3.70628268 C-2.57141133 -0.29543534 -2.57141133 -0.29543534 0 0 Z " fill="#000000" transform="translate(298.0586086511612,94.23651826381683)"/>
<path d="M0 0 C1.85758043 1.55191747 3.67027903 3.1586964 5.44140625 4.80859375 C6.20048531 5.51526184 6.20048531 5.51526184 6.97489929 6.23620605 C13.19827541 12.06579717 19.2903322 18.0320568 25.33813477 24.04296875 C26.65890122 25.3521395 27.98414187 26.65681118 29.3137207 27.95703125 C38.60933239 37.04880679 46.86409378 45.8501549 51.8125 58.125 C52.19019531 59.03507812 52.56789063 59.94515625 52.95703125 60.8828125 C58.86271561 78.53350957 57.14172856 97.06210413 48.9375 113.6875 C44.87616206 120.7056279 39.68682093 126.30882691 34 132 C33.19046875 132.81645996 32.3809375 133.63291992 31.546875 134.47412109 C25.72491666 140.34340387 19.87364095 146.1824629 14 152 C10.25860861 150.43923246 7.88699467 148.13356275 5.03924561 145.27975464 C4.55396873 144.79618661 4.06869185 144.31261858 3.56870961 143.81439698 C1.94563928 142.194618 0.32981556 140.56779982 -1.28613281 138.94091797 C-2.44883999 137.7776466 -3.61198784 136.61481554 -4.77554321 135.45239258 C-7.93259237 132.29591763 -11.08343377 129.13331079 -14.23320866 125.96957922 C-17.52614489 122.66414706 -20.82473942 119.36437149 -24.1227417 116.06399536 C-30.36691777 109.81360119 -36.60597774 103.55812589 -42.84322238 97.3008157 C-49.94443451 90.17725488 -57.05132124 83.059367 -64.15869379 75.94195342 C-78.77879208 61.30094564 -93.39173815 46.65281713 -108 32 C-106.17212733 28.06630258 -103.62618781 25.26977905 -100.609375 22.203125 C-100.06831116 21.65066101 -99.52724731 21.09819702 -98.9697876 20.5289917 C-97.81929038 19.35962239 -96.66587288 18.19312008 -95.50976562 17.02929688 C-93.78315884 15.28352687 -92.07919838 13.51761041 -90.375 11.75 C-65.98858071 -13.10342934 -29.94194671 -19.54669104 0 0 Z " fill="#000000" transform="translate(435,33)"/>
<path d="M0 0 C1.19249219 -0.00874829 1.19249219 -0.00874829 2.40907514 -0.01767331 C3.71032691 -0.01200433 3.71032691 -0.01200433 5.03786659 -0.00622082 C5.96401728 -0.01004636 6.89016797 -0.01387191 7.84438384 -0.01781338 C10.95504749 -0.02815148 14.06552685 -0.02414967 17.17620277 -0.02018261 C19.40348418 -0.02452865 21.63076409 -0.02971144 23.85804176 -0.03567028 C29.91381655 -0.0490836 35.96952901 -0.04963632 42.02531576 -0.04710698 C47.07762838 -0.04603878 52.12992831 -0.05091681 57.18223822 -0.0557124 C69.78217617 -0.06745106 82.38207591 -0.06657791 94.9820133 -0.06015559 C105.9223372 -0.05498734 116.86257203 -0.06623895 127.80287831 -0.08525381 C139.03762394 -0.10463063 150.27232859 -0.11259697 161.50709498 -0.10913056 C167.81403881 -0.10731566 174.12090109 -0.10997444 180.42783165 -0.1238451 C186.35888993 -0.13640045 192.28976973 -0.13450097 198.2208252 -0.12143421 C200.39848643 -0.11906383 202.57616013 -0.12181958 204.75380707 -0.13005733 C207.72508533 -0.14048732 210.69576061 -0.132454 213.66701698 -0.11974621 C214.53005672 -0.12712049 215.39309645 -0.13449478 216.28228891 -0.14209253 C222.5950074 -0.08524137 226.66467568 1.32551747 231.60442543 5.44197559 C236.68696301 11.4607701 238.69954903 16.62062518 238.35833168 24.57869434 C237.38893334 31.4244455 234.07792394 35.69238171 228.85833168 40.02791309 C223.62347926 43.44525958 218.95188547 43.5438483 212.89011574 43.52190113 C211.97268886 43.52643224 211.05526198 43.53096336 210.11003429 43.53563178 C207.03478995 43.5482956 203.95972226 43.54665411 200.88445473 43.54500294 C198.67997446 43.55098695 196.47549629 43.55779221 194.27102089 43.56535816 C188.28129023 43.58303849 182.29161671 43.58771441 176.30186248 43.58898973 C171.30187908 43.59088844 166.301909 43.59824568 161.30193073 43.60533392 C150.178937 43.62069278 139.05596439 43.62667115 127.93296232 43.62532322 C127.26581712 43.62524331 126.59867192 43.6251634 125.9113102 43.62508106 C125.24334786 43.6249993 124.57538553 43.62491754 123.88718192 43.6248333 C113.06464593 43.62402059 102.24224918 43.64315516 91.41975345 43.6713578 C80.30022849 43.70010519 69.18076094 43.71353102 58.06119663 43.71217024 C51.82124177 43.71166028 45.58144447 43.71736236 39.34152222 43.73852634 C33.47196397 43.75789033 27.60271388 43.75804553 21.73314476 43.74349308 C19.58050715 43.7414016 17.42785035 43.74612599 15.27524567 43.758214 C12.33303062 43.77366418 9.39187843 43.7643594 6.44968605 43.74895191 C5.176561 43.7643826 5.176561 43.7643826 3.87771624 43.78012502 C-3.39254298 43.69618311 -8.61668628 41.60494415 -13.83307457 36.50447559 C-17.82978656 30.5665035 -20.22843329 24.54280494 -19.02057457 17.25447559 C-16.88562353 9.79485501 -12.86811694 5.01323318 -6.16053236 1.19591743 C-3.89938693 0.20116094 -2.45164754 0.00310314 0 0 Z " fill="#000000" transform="translate(253.02057456970215,447.7455244064331)"/>
</svg>
