<?xml version="1.0" encoding="UTF-8"?>
<svg version="1.1" xmlns="http://www.w3.org/2000/svg" width="512" height="512">
<path d="M0 0 C0.96526611 0.00829834 1.93053223 0.01659668 2.92504883 0.02514648 C21.68768574 0.46912972 33.8617843 10.5081379 46.3125 23.4375 C48.36411097 25.54596633 50.42140267 27.64881581 52.48046875 29.75 C52.97835907 30.25966309 53.47624939 30.76932617 53.98922729 31.29443359 C57.14943522 34.50947943 60.3659234 37.52251733 63.90795898 40.30981445 C65.8890468 42.21105664 67.13887035 43.88618302 68.64477539 46.14916992 C73.03917072 52.2087814 77.32773888 56.60812083 84.84973145 58.2510376 C95.04781145 59.56219822 105.45034259 59.1048624 115.70080566 58.81445312 C120.77002167 58.68628447 125.84058376 58.65830477 130.91113091 58.6195631 C134.86009216 58.58813067 138.80651625 58.54168392 142.75442505 58.44319153 C160.34364447 58.05808976 175.63400353 60.37894524 189.125 72.4375 C189.75148438 72.98277344 190.37796875 73.52804688 191.0234375 74.08984375 C199.29409795 81.76458325 205.57840335 92.9852364 206.23924255 104.41308975 C206.23160966 108.82000657 205.87221385 113.20052463 205.51050568 117.59025002 C205.1898417 121.86144258 205.04737024 126.1404917 204.87890625 130.41992188 C204.63527164 136.5750793 204.29469122 142.6897262 203.66415405 148.81858826 C202.0299253 168.24893691 202.0299253 168.24893691 208.95524788 185.77835369 C213.70468005 190.55211716 219.05001198 194.64847478 224.2955718 198.85798585 C238.08781032 210.2671935 248.83657388 221.49921863 251.14067221 239.74299681 C252.21469284 251.99111236 251.82881744 264.27199778 251.31248379 276.5377748 C251.09736402 282.56976923 251.07161799 288.60080542 251.04072514 294.63582651 C250.97342083 306.56823947 250.72672794 318.48949258 250.36230469 330.41625977 C250.01064227 341.93689138 249.75671859 353.45345283 249.62402344 364.97875977 C249.61577611 365.6927145 249.60752878 366.40666924 249.59903154 367.14225896 C249.56620709 370.01387593 249.53395459 372.88549852 249.50248282 375.75713063 C249.2600793 397.71643651 248.93013077 419.67852557 248.30916595 441.63048172 C248.24666821 443.90988824 248.19012243 446.18946741 248.14015198 448.46918297 C247.6718792 469.26024278 244.65648265 485.42871148 229.125 500.4375 C216.97637563 511.00598235 203.49089536 513.18900381 188.00169373 513.06568909 C186.31182497 513.07074458 184.62196161 513.0779811 182.93211037 513.08718723 C178.32541225 513.10599379 173.71925008 513.09394178 169.11256611 513.0764643 C164.13021263 513.06303106 159.14793453 513.07854861 154.16558838 513.09028625 C144.42004499 513.1086225 134.67470269 513.10017755 124.92916565 513.08219803 C117.00625558 513.06814782 109.08339993 513.06428444 101.16047859 513.0676403 C100.0310061 513.06811775 98.90153361 513.06859519 97.73783468 513.0690871 C95.44303765 513.07011347 93.14824063 513.07116883 90.85344363 513.07225286 C70.58202451 513.08081171 50.3107022 513.06417098 30.03930664 513.03442383 C10.38627049 513.00558464 -9.26662622 512.99850578 -28.91967773 513.01391602 C-50.34205849 513.0306907 -71.7643731 513.03469973 -93.1867556 513.01720566 C-95.47260184 513.01536134 -97.7584481 513.01352662 -100.04429436 513.01170158 C-101.16885637 513.01078949 -102.29341839 513.0098774 -103.45205804 513.00893768 C-111.36248023 513.00334047 -119.27287005 513.00663182 -127.18329048 513.01324654 C-136.82761902 513.02099131 -146.47181048 513.01418578 -156.11611146 512.9890715 C-161.03320965 512.97660352 -165.95009471 512.97039716 -170.86720085 512.98161316 C-175.37449429 512.99169999 -179.88136392 512.98310184 -184.38860606 512.96003198 C-186.01289632 512.95489945 -187.63722496 512.95638582 -189.26149816 512.96542663 C-205.96503968 513.05061429 -219.73263359 509.30143726 -232.1875 497.625 C-242.50757658 486.67178989 -246.87057067 473.53294092 -247.26441956 458.804245 C-247.29349661 457.82772518 -247.32257367 456.85120535 -247.35253185 455.84509403 C-247.44793085 452.56832118 -247.53603494 449.29140355 -247.62329102 446.0144043 C-247.6710842 444.29226904 -247.6710842 444.29226904 -247.71984291 442.53534317 C-248.32838094 420.50207782 -248.71307275 398.46637566 -249.00133059 376.42686991 C-249.04867954 372.811985 -249.09767657 369.19712416 -249.14770508 365.58227539 C-249.15763199 364.8628947 -249.16755891 364.143514 -249.17778664 363.40233389 C-249.34164584 351.83403294 -249.65009776 340.2741109 -250.01524735 328.71060934 C-250.38883328 316.77777374 -250.60366788 304.84923057 -250.67921013 292.91076213 C-250.72576263 286.22777677 -250.84289343 279.56508541 -251.13476753 272.88687706 C-253.00520955 228.355432 -253.00520955 228.355432 -237.84294128 211.71005249 C-232.6333607 206.25039391 -227.13463207 201.27329826 -221.25698185 196.54445171 C-211.36402255 188.55497728 -205.09420437 183.17620103 -203.23859239 170.18358856 C-202.43140454 161.85883309 -203.03406743 153.53218915 -203.83972168 145.23254395 C-204.21747765 140.91701832 -204.37262583 136.59354868 -204.54101562 132.265625 C-204.73437732 127.39031225 -204.94083821 122.52667706 -205.34135437 117.66339111 C-206.49421579 103.05825965 -203.66452022 90.27080436 -194.578125 78.44921875 C-184.45974182 66.83821693 -172.50951025 60.07728335 -156.99931335 58.63014221 C-151.18492782 58.27163269 -145.36576219 58.33686628 -139.54291916 58.36053085 C-135.5077359 58.37204929 -131.47265435 58.3513462 -127.4375 58.3359375 C-122.33084308 58.31765275 -117.22479516 58.30907258 -112.11816406 58.33789062 C-107.96295059 58.36048741 -103.80903944 58.34894142 -99.65391922 58.31488419 C-98.08078001 58.30814572 -96.5075347 58.31371008 -94.9344902 58.33224106 C-85.02919777 58.6871888 -85.02919777 58.6871888 -76.41943359 54.45751953 C-75.20759059 53.14490995 -74.02690215 51.80301412 -72.875 50.4375 C-71.41939709 48.97804413 -69.95572333 47.52660667 -68.48535156 46.08203125 C-66.9101402 44.47327993 -65.33698582 42.86251258 -63.765625 41.25 C-62.02405028 39.48116729 -60.28184297 37.71295723 -58.5390625 35.9453125 C-55.83002539 33.19313473 -53.12498753 30.43748719 -50.43066406 27.67089844 C-47.80405598 24.97711368 -45.16131599 22.30002847 -42.515625 19.625 C-41.72770569 18.80813721 -40.93978638 17.99127441 -40.12799072 17.1496582 C-28.76078527 5.72951049 -16.07152816 -0.17908959 0 0 Z " fill="#F4EDE5" transform="translate(255.875,-0.4375)"/>
<path d="M0 0 C-0.20953308 0.83029724 -0.41906616 1.66059448 -0.63494873 2.51605225 C-3.25512193 13.50635229 -4.8474236 24.4885693 -5.75 35.75 C-5.82372456 36.66208725 -5.89744911 37.5741745 -5.97340775 38.51390076 C-7.75779963 64.14933869 -1.36823368 83.75458495 15.31855142 103.05760884 C26.54824522 115.79222828 38.69527359 127.63275486 51.0625 139.25 C51.95792102 140.09260407 51.95792102 140.09260407 52.87143135 140.95223045 C68.56436984 155.70465542 84.59929904 170.03839853 101 184 C103.8013265 182.72364788 105.83335782 181.41067192 107.98854065 179.21832275 C108.55030502 178.65208191 109.1120694 178.08584106 109.69085693 177.50244141 C110.29504456 176.88320801 110.89923218 176.26397461 111.52172852 175.62597656 C112.1678862 174.97207947 112.81404388 174.31818237 113.4797821 173.64447021 C114.88199167 172.22461534 116.28198763 170.80257175 117.6800251 169.3786087 C119.8996975 167.11946402 122.12685674 164.86796276 124.35643005 162.61859131 C130.69483877 156.2222124 137.02372368 149.81654207 143.3371582 143.39550781 C147.20181507 139.466071 151.07884922 135.54920349 154.96372795 131.63976288 C156.43589582 130.15341338 157.90338926 128.66241782 159.36590767 127.16657257 C174.06597177 112.13644436 174.06597177 112.13644436 184 108 C184.74580826 107.68105774 185.49161652 107.36211548 186.26002502 107.0335083 C199.4027384 101.77630917 213.41059781 103.18580774 226.47265625 107.890625 C231.78207242 110.2043218 236.07339952 113.54665683 240.42822266 117.31152344 C241.0375596 117.8367799 241.64689655 118.36203636 242.27469826 118.90320969 C249.2470607 124.98737234 255.76142867 131.5097837 262.2734375 138.078125 C263.57577965 139.38421069 264.87857398 140.68984562 266.18179321 141.99505615 C269.56283948 145.38363353 272.93782929 148.77817756 276.3114624 152.1741333 C279.77421554 155.65757549 283.24284401 159.13515728 286.7109375 162.61328125 C293.47962204 169.40322929 300.2419035 176.19951461 307 183 C310.17112265 181.56641934 312.59468184 179.81483009 315.23271179 177.55285645 C316.06979518 176.83578427 316.90687857 176.1187121 317.76932812 175.37991047 C318.67907044 174.5900283 319.58881277 173.80014612 320.52612305 172.98632812 C321.4904466 172.15057094 322.45477015 171.31481375 323.44831562 170.45373058 C336.12269649 159.42088769 348.47381473 148.03896059 360.6875 136.5 C361.27295987 135.94821311 361.85841973 135.39642623 362.46162081 134.82791853 C402.23018713 98.44221951 402.23018713 98.44221951 417.30021191 48.52373314 C417.31590561 43.93308836 417.05919867 39.38669115 416.6875 34.8125 C416.57871836 33.46860703 416.57871836 33.46860703 416.46773911 32.0975647 C415.50423163 21.19675609 413.72120442 10.59882385 411 0 C411.99001196 0.86545346 412.98002392 1.73090693 414.00003624 2.62258625 C416.55600168 4.81711501 419.15505535 6.89996467 421.86084938 8.90632153 C436.95421029 20.1979625 452.20520845 32.87898601 455.03924561 52.43692017 C456.51414951 65.73190738 456.04847344 79.15107689 455.57912016 92.49191117 C455.39886602 98.53957769 455.37808382 104.58593237 455.35327275 110.63587411 C455.29885933 122.60329104 455.09123406 134.56270637 454.78466797 146.52612305 C454.4886841 158.08787622 454.27688799 169.64657539 454.16943359 181.21166992 C454.15942711 182.28496654 454.15942711 182.28496654 454.14921848 183.37994591 C454.12267178 186.25770576 454.09657029 189.13546916 454.07109084 192.01323866 C453.87416265 214.0372143 453.60482894 236.06472677 453.07440567 258.08322144 C453.02144337 260.3723218 452.97456426 262.66157274 452.93440247 264.95093346 C452.55705543 285.79627289 449.57300315 301.95108831 434 317 C421.85137563 327.56848235 408.36589536 329.75150381 392.87669373 329.62818909 C391.18682497 329.63324458 389.49696161 329.6404811 387.80711037 329.64968723 C383.20041225 329.66849379 378.59425008 329.65644178 373.98756611 329.6389643 C369.00521263 329.62553106 364.02293453 329.64104861 359.04058838 329.65278625 C349.29504499 329.6711225 339.54970269 329.66267755 329.80416565 329.64469803 C321.88125558 329.63064782 313.95839993 329.62678444 306.03547859 329.6301403 C304.9060061 329.63061775 303.77653361 329.63109519 302.61283468 329.6315871 C300.31803765 329.63261347 298.02324063 329.63366883 295.72844363 329.63475286 C275.45702451 329.64331171 255.1857022 329.62667098 234.91430664 329.59692383 C215.26127049 329.56808464 195.60837378 329.56100578 175.95532227 329.57641602 C154.53294151 329.5931907 133.1106269 329.59719973 111.6882444 329.57970566 C109.40239816 329.57786134 107.1165519 329.57602662 104.83070564 329.57420158 C103.70614363 329.57328949 102.58158161 329.5723774 101.42294196 329.57143768 C93.51251977 329.56584047 85.60212995 329.56913182 77.69170952 329.57574654 C68.04738098 329.58349131 58.40318952 329.57668578 48.75888854 329.5515715 C43.84179035 329.53910352 38.92490529 329.53289716 34.00779915 329.54411316 C29.50050571 329.55419999 24.99363608 329.54560184 20.48639394 329.52253198 C18.86210368 329.51739945 17.23777504 329.51888582 15.61350184 329.52792663 C-1.09003968 329.61311429 -14.85763359 325.86393726 -27.3125 314.1875 C-37.63257658 303.23428989 -41.99557067 290.09544092 -42.38941956 275.366745 C-42.41849661 274.39022518 -42.44757367 273.41370535 -42.47753185 272.40759403 C-42.57293085 269.13082118 -42.66103494 265.85390355 -42.74829102 262.5769043 C-42.7960842 260.85476904 -42.7960842 260.85476904 -42.84484291 259.09784317 C-43.45338094 237.06457782 -43.83807275 215.02887566 -44.12633059 192.98936991 C-44.17367954 189.374485 -44.22267657 185.75962416 -44.27270508 182.14477539 C-44.28263199 181.4253947 -44.29255891 180.706014 -44.30278664 179.96483389 C-44.46664584 168.39653294 -44.77509776 156.8366109 -45.14024735 145.27310934 C-45.51383328 133.34027374 -45.72866788 121.41173057 -45.80421013 109.47326213 C-45.85076263 102.79027677 -45.96789343 96.12758541 -46.25976753 89.44937706 C-47.30424997 64.58908972 -47.7586709 43.86533574 -30.24236315 24.63601738 C-6.42379299 0 -6.42379299 0 0 0 Z " fill="#FEDF00" transform="translate(51,183)"/>
<path d="M0 0 C3.65158408 3.08875868 7.06531917 6.38164859 10.44873047 9.76025391 C11.19123047 10.49115234 11.93373047 11.22205078 12.69873047 11.97509766 C29.65003714 29.75410484 34.96811041 53.01730036 34.66357422 76.81494141 C34.4721907 83.07948256 33.33028322 88.78803788 31.44873047 94.76025391 C31.12001953 95.87400391 30.79130859 96.98775391 30.45263672 98.13525391 C23.17188168 120.7081138 7.6483508 138.38637039 -13.23876953 149.51025391 C-34.86619962 159.85485339 -59.50680116 162.47199909 -82.34033203 154.5859375 C-94.10074221 150.19396453 -104.03576321 143.88752064 -113.55126953 135.76025391 C-114.21384766 135.19951172 -114.87642578 134.63876953 -115.55908203 134.06103516 C-130.50253571 120.26440467 -140.2218904 99.00997305 -141.77294922 78.88378906 C-142.84074263 51.91972375 -136.02676062 30.31990556 -118.02783203 9.89697266 C-88.1289863 -21.79931101 -34.81570442 -27.82407099 0 0 Z " fill="#EF0D38" transform="translate(309.55126953125,102.23974609375)"/>
<path d="M0 0 C0.99001196 0.86545346 1.98002392 1.73090693 3.00003624 2.62258625 C5.55600168 4.81711501 8.15505535 6.89996467 10.86084938 8.90632153 C25.95421029 20.1979625 41.20520845 32.87898601 44.03924561 52.43692017 C45.51414951 65.73190738 45.04847344 79.15107689 44.57912016 92.49191117 C44.39886602 98.53957769 44.37808382 104.58593237 44.35327275 110.63587411 C44.29885933 122.60329104 44.09123406 134.56270637 43.78466797 146.52612305 C43.4886841 158.08787622 43.27688799 169.64657539 43.16943359 181.21166992 C43.16276261 181.927201 43.15609162 182.64273208 43.14921848 183.37994591 C43.12267178 186.25770576 43.09657029 189.13546916 43.07109084 192.01323866 C42.87416265 214.0372143 42.60482894 236.06472677 42.07440567 258.08322144 C42.02144337 260.3723218 41.97456426 262.66157274 41.93440247 264.95093346 C41.58849932 284.05925492 39.34301527 299.41577401 26 314 C-17.33333333 270.66666667 -60.66666667 227.33333333 -104 184 C-99.83798583 180.33779307 -95.65810624 176.69877394 -91.43812561 173.10343933 C-76.65016126 160.48427294 -62.22463245 147.50403948 -48.0625 134.1875 C-47.50384546 133.66327123 -46.94519092 133.13904246 -46.36960745 132.59892797 C-8.09805768 97.31530019 -8.09805768 97.31530019 6.00704861 48.81960201 C6.08138671 32.39144938 3.87508593 15.94216272 0 0 Z " fill="#FEBD1D" transform="translate(462,183)"/>
<path d="M0 0 C-0.21175369 0.82807663 -0.42350739 1.65615326 -0.64167786 2.50932312 C-3.29137766 13.47875754 -4.89974289 24.44038781 -5.8125 35.6875 C-5.88708057 36.59873123 -5.96166115 37.50996246 -6.03850174 38.44880676 C-7.86084391 64.30146984 -1.30262097 83.83409914 15.46116596 103.20022339 C26.80957279 116.05443125 39.07635278 128.01354333 51.5625 139.75 C52.16542106 140.31770977 52.76834212 140.88541953 53.38953352 141.47033262 C69.24291505 156.38299885 85.4387781 170.87732102 102 185 C59 228 16 271 -27 314 C-37.84943511 303.37525733 -42.15654451 289.86066441 -42.50967407 275.00598145 C-42.53960555 274.02689835 -42.56953704 273.04781526 -42.60037553 272.03906298 C-42.69699929 268.77167761 -42.77984159 265.5041117 -42.86181641 262.23632812 C-42.92677686 259.8862799 -42.9919788 257.53623834 -43.05740356 255.186203 C-43.63578669 233.65551829 -43.9698854 212.11986605 -44.23674965 190.58333588 C-44.27319073 187.69503372 -44.31035518 184.80674186 -44.34814453 181.91845703 C-44.36218665 180.84193075 -44.36218665 180.84193075 -44.37651245 179.74365646 C-44.53142517 168.19487262 -44.83373233 156.65469084 -45.19438286 145.11070281 C-45.56357725 133.19126295 -45.77420807 121.27622621 -45.84488046 109.35125113 C-45.88862563 102.67847096 -46.0024077 96.02581862 -46.29033279 89.35768127 C-47.32014866 64.52042842 -47.73818956 43.84858672 -30.23998725 24.64314508 C-6.41330305 0 -6.41330305 0 0 0 Z " fill="#FEBD1D" transform="translate(51,183)"/>
<path d="M0 0 C0.96526611 0.00829834 1.93053223 0.01659668 2.92504883 0.02514648 C21.68768574 0.46912972 33.8617843 10.5081379 46.3125 23.4375 C48.36411095 25.5459663 50.42139533 27.64882302 52.48046875 29.75 C53.2196907 30.50667717 53.2196907 30.50667717 53.97384644 31.27864075 C57.26833437 34.63004022 60.67904683 37.76515258 64.25512695 40.81005859 C67.69373678 43.80284788 70.90127055 47.02947505 74.125 50.25 C74.80433594 50.91708984 75.48367188 51.58417969 76.18359375 52.27148438 C76.82425781 52.91021484 77.46492187 53.54894531 78.125 54.20703125 C78.7025 54.78042236 79.28 55.35381348 79.875 55.94458008 C81.125 57.4375 81.125 57.4375 81.125 59.4375 C27.665 59.4375 -25.795 59.4375 -80.875 59.4375 C-80.875 58.7775 -80.875 58.1175 -80.875 57.4375 C-79.44525146 56.03393555 -79.44525146 56.03393555 -77.44433594 54.38671875 C-72.60324794 50.26734466 -68.1992309 45.79971587 -63.765625 41.25 C-62.02405028 39.48116729 -60.28184297 37.71295723 -58.5390625 35.9453125 C-55.83002539 33.19313473 -53.12498753 30.43748719 -50.43066406 27.67089844 C-47.80405598 24.97711368 -45.16131599 22.30002847 -42.515625 19.625 C-41.72770569 18.80813721 -40.93978638 17.99127441 -40.12799072 17.1496582 C-28.76078527 5.72951049 -16.07152816 -0.17908959 0 0 Z " fill="#FE9D00" transform="translate(255.875,-0.4375)"/>
<path d="M0 0 C1.38372803 0.01812744 1.38372803 0.01812744 2.79541016 0.03662109 C12.14242365 0.30876813 20.2999972 2.12664992 27.1875 8.83203125 C32.73915903 15.27376605 33.35550043 21.39204113 33.0390625 29.8359375 C31.67158757 41.93680056 22.63577016 48.9539246 14.1496582 56.82763672 C10.1569149 61.20718701 10.41890597 64.14875224 9.625 70.5 C3.025 70.5 -3.575 70.5 -10.375 70.5 C-10.375 56.14031455 -7.9482668 51.36682524 1.625 41.5 C6.41676005 36.21219854 9.00226025 32.8780627 8.82421875 25.44140625 C8.69378334 23.36188121 8.69378334 23.36188121 7.6875 21 C4.76336887 18.87335918 2.34097057 18.88498427 -1.21484375 19.046875 C-3.64001641 19.37142477 -3.64001641 19.37142477 -5.875 21.6875 C-7.6707364 24.72892233 -7.6707364 24.72892233 -8.375 29.5 C-16.295 29.5 -24.215 29.5 -32.375 29.5 C-31.12912247 19.53297976 -29.63285821 12.69192199 -21.86328125 6.0703125 C-14.65199901 1.51939341 -8.51823583 -0.17885651 0 0 Z " fill="#FEF9FA" transform="translate(255.375,121.5)"/>
<path d="M0 0 C0 27.06 0 54.12 0 82 C-7.875 75.25 -7.875 75.25 -10.91577148 72.19775391 C-11.59594833 71.51750153 -12.27612518 70.83724915 -12.97691345 70.13638306 C-13.68449295 69.42364227 -14.39207245 68.71090149 -15.12109375 67.9765625 C-16.23823509 66.85729874 -16.23823509 66.85729874 -17.37794495 65.71542358 C-19.73350827 63.35430611 -22.08555216 60.98971838 -24.4375 58.625 C-26.04338763 57.01409144 -27.64950516 55.40341204 -29.25585938 53.79296875 C-33.17323513 49.86462487 -37.08773487 45.93343326 -41 42 C-39.56870372 38.73520247 -37.81710013 36.56880858 -35.30053711 34.05761719 C-34.54312729 33.29713074 -33.78571747 32.53664429 -33.00535583 31.75311279 C-31.77873985 30.53727509 -31.77873985 30.53727509 -30.52734375 29.296875 C-29.68909561 28.45908508 -28.85084747 27.62129517 -27.98719788 26.75811768 C-26.21673086 24.99066956 -24.44383622 23.22565035 -22.66870117 21.46289062 C-19.93935427 18.75184184 -17.21813568 16.0328345 -14.49804688 13.3125 C-12.77911798 11.5984847 -11.05973265 9.884927 -9.33984375 8.171875 C-8.11019142 6.94389191 -8.11019142 6.94389191 -6.85569763 5.69110107 C-6.10143997 4.94322327 -5.34718231 4.19534546 -4.57006836 3.42480469 C-3.90325546 2.76180359 -3.23644257 2.09880249 -2.54942322 1.41571045 C-1 0 -1 0 0 0 Z " fill="#FF9D00" transform="translate(50,183)"/>
<path d="M0 0 C7.875 6.75 7.875 6.75 10.91577148 9.80224609 C11.59594833 10.48249847 12.27612518 11.16275085 12.97691345 11.86361694 C14.0382827 12.93272812 14.0382827 12.93272812 15.12109375 14.0234375 C15.86585464 14.76961334 16.61061554 15.51578918 17.37794495 16.28457642 C19.73350827 18.64569389 22.08555216 21.01028162 24.4375 23.375 C26.04338763 24.98590856 27.64950516 26.59658796 29.25585938 28.20703125 C33.17323513 32.13537513 37.08773487 36.06656674 41 40 C36.57040851 45.30054699 31.90178962 50.2449724 27.01171875 55.12109375 C25.8960125 56.23823509 25.8960125 56.23823509 24.75776672 57.37794495 C23.19838174 58.93800619 21.63775022 60.49682236 20.07592773 62.05444336 C17.67379699 64.4511722 15.27710749 66.85325062 12.88085938 69.25585938 C11.36230011 70.77375865 9.84343111 72.29134814 8.32421875 73.80859375 C7.24463142 74.89121742 7.24463142 74.89121742 6.14323425 75.99571228 C5.48197037 76.65382401 4.82070648 77.31193573 4.1394043 77.98999023 C3.55571579 78.57288315 2.97202728 79.15577606 2.37065125 79.7563324 C1 81 1 81 0 81 C0 54.27 0 27.54 0 0 Z " fill="#FF9D00" transform="translate(462,183)"/>
<path d="M0 0 C3.45658479 2.04573386 4.7785359 3.66780385 7 7 C7.72517392 11.50282411 7.60000036 14.99285654 5.25 18.9375 C0.96009199 22.86991568 -2.73309617 23.57744063 -8.453125 23.43359375 C-12.06950773 22.81792123 -14.14144284 21.49232913 -16.703125 18.90625 C-19.07817419 15.41521384 -19.76316949 12.15423393 -19 8 C-14.34487624 0.03884886 -8.7997224 -0.94101078 0 0 Z " fill="#FEF8F9" transform="translate(261,201)"/>
</svg>
