<?xml version="1.0" encoding="UTF-8"?>
<svg version="1.1" xmlns="http://www.w3.org/2000/svg" width="512" height="512">
<path d="M0 0 C1.06335721 -0.00644889 2.12671442 -0.01289778 3.22229457 -0.0195421 C4.38443957 -0.01644489 5.54658456 -0.01334769 6.74394608 -0.01015663 C7.98326802 -0.01468774 9.22258997 -0.01921886 10.49946713 -0.02388728 C13.93694263 -0.03436081 17.37420896 -0.03585656 20.81168556 -0.03349853 C24.52006785 -0.03309041 28.22841891 -0.04412905 31.93678665 -0.05361366 C39.20161478 -0.07022638 46.46641045 -0.07572335 53.73125598 -0.07683842 C59.63733855 -0.07778885 65.54341041 -0.08189892 71.44948959 -0.08823967 C88.19697195 -0.10585355 104.94442868 -0.11507842 121.69192037 -0.11357872 C122.5947755 -0.11349881 123.49763063 -0.1134189 124.427845 -0.11333656 C125.33180359 -0.1132548 126.23576218 -0.11317304 127.16711345 -0.1130888 C141.81390865 -0.11227607 156.46060097 -0.13141015 171.10736641 -0.1596133 C186.14917057 -0.18834835 201.19092456 -0.20215322 216.23275685 -0.20042574 C224.6765205 -0.19976201 233.12017633 -0.20524682 241.56391525 -0.22678185 C248.75395474 -0.24500193 255.94383754 -0.2493343 263.13389012 -0.235763 C266.80088206 -0.22923719 270.46757348 -0.22910171 274.13453674 -0.2464695 C278.11401639 -0.26512318 282.09305829 -0.25263526 286.07255936 -0.23720741 C287.22578147 -0.24749454 288.37900358 -0.25778167 289.56717181 -0.26838052 C298.88743586 -0.18854729 306.13940045 2.12565708 313.0919075 8.47992516 C318.16013793 14.21635512 320.77135045 20.55197526 320.80939102 28.15314293 C320.82012398 29.62940399 320.82012398 29.62940399 320.83107376 31.13548851 C320.83376266 32.20885963 320.83645157 33.28223076 320.83922195 34.38812828 C320.84579315 35.52345497 320.85236435 36.65878166 320.85913467 37.82851219 C320.87884937 41.58601509 320.89052345 45.34347814 320.90050125 49.10101891 C320.90457678 50.3831678 320.90865231 51.6653167 320.91285133 52.98631859 C320.93155118 59.06784297 320.94612234 65.14934736 320.9544633 71.23089457 C320.96424806 78.24861919 320.99060756 85.26602944 321.0309642 92.28364325 C321.06473761 98.36518322 321.07660583 104.44659066 321.0806675 110.52821922 C321.08555033 113.11506349 321.09721214 115.70190398 321.11570549 118.28868675 C321.13993819 121.90151926 321.13916109 125.5135214 321.1321907 129.12640953 C321.15140579 130.73646622 321.15140579 130.73646622 321.17100906 132.3790493 C321.12015311 139.5870596 321.12015311 139.5870596 318.82034683 142.95294762 C316.66222 144.25726891 316.66222 144.25726891 313.66222 144.25726891 C313.66222 149.86726891 313.66222 155.47726891 313.66222 161.25726891 C315.31222 161.91726891 316.96222 162.57726891 318.66222 163.25726891 C320.75724346 166.39980409 320.91310255 167.11215659 320.91948891 170.69023037 C320.9259378 171.60268617 320.93238669 172.51514197 320.939031 173.45524794 C320.9343852 174.96105104 320.9343852 174.96105104 320.92964554 176.4972744 C320.93417665 177.56267273 320.93870776 178.62807107 320.94337618 179.7257542 C320.9560875 183.3138579 320.95439545 186.90181112 320.95274734 190.48993492 C320.95872856 193.05540221 320.96553315 195.6208677 320.97310257 198.1863308 C320.98897322 204.44378412 320.99521301 210.70118188 320.99632733 216.95865346 C320.99727739 222.04717483 321.00138561 227.13568376 321.00772858 232.2242012 C321.02534947 246.65425888 321.03456666 261.08428679 321.03306763 275.51435531 C321.03298772 276.29262471 321.0329078 277.0708941 321.03282547 277.87274742 C321.03274371 278.65196888 321.03266195 279.43119034 321.03257771 280.23402458 C321.03176559 292.84978924 321.05088217 305.46543428 321.0791022 318.08116437 C321.10785616 331.03803834 321.12164097 343.99485404 321.11991465 356.95176071 C321.11925139 364.22466925 321.12471488 371.49745256 321.14627075 378.77033234 C321.16642704 385.61493792 321.16578303 392.45927534 321.15123749 399.30389404 C321.14914698 401.81367695 321.15386463 404.32347634 321.1659584 406.83323097 C321.18142234 410.26525622 321.17209379 413.69637188 321.15669632 417.12837791 C321.16698345 418.11663159 321.17727057 419.10488527 321.18786943 420.12308604 C321.11035444 427.96687645 319.07631409 434.32318965 314.97472 441.00726891 C308.00753861 447.7861481 301.02481625 451.3367129 291.28722 451.38226891 C289.41202905 451.35033135 287.5368879 451.31187088 285.66222 451.25726891 C285.352845 453.20633141 285.352845 453.20633141 285.03722 455.19476891 C283.30766482 462.78095577 279.50934486 468.29349317 273.09972 472.69476891 C267.60228397 476.13434118 263.3902895 477.51440162 256.84972 477.38226891 C255.68827469 477.36422203 254.52682938 477.34617516 253.33018875 477.32758141 C252.00954422 477.29277672 252.00954422 477.29277672 250.66222 477.25726891 C250.70862625 478.00750328 250.7550325 478.75773766 250.802845 479.53070641 C251.12196904 488.5801523 249.6040472 495.64953212 244.16222 503.00726891 C233.9230028 513.3620713 220.91411002 513.56670143 207.26353836 514.38251305 C205.10255654 514.52814012 202.94163135 514.67460946 200.78075886 514.82184982 C173.43080717 516.61745018 146.0390395 517.60974848 118.64082021 518.26977837 C116.60335801 518.3196798 114.56597893 518.37221355 112.52860117 518.4254427 C-10.18828044 521.60092559 -10.18828044 521.60092559 -49.58204621 484.48157531 C-55.2628524 478.96206706 -60.39942697 473.016752 -65.40028 466.88226891 C-65.84414629 466.34083575 -66.28801259 465.79940259 -66.74532938 465.24156237 C-97.44754226 427.63921101 -97.44754226 427.63921101 -97.47200108 413.80728722 C-97.47645892 412.64253459 -97.48091676 411.47778196 -97.48550969 410.2777338 C-97.48532533 408.986913 -97.48514097 407.69609221 -97.48495102 406.36615562 C-97.48824881 404.98974726 -97.4919742 403.61333986 -97.4960925 402.23693371 C-97.5061308 398.44122986 -97.50983224 394.64554182 -97.51248181 390.84982657 C-97.5163796 386.76100918 -97.52595848 382.67220438 -97.53469467 378.583395 C-97.5544768 368.70052153 -97.56452875 358.817647 -97.57342246 348.93475866 C-97.57780361 344.28181421 -97.58317097 339.6288709 -97.58841133 334.97592735 C-97.60542745 319.5090871 -97.61992086 304.04224757 -97.62716007 288.5753994 C-97.62907001 284.55968792 -97.63099033 280.54397645 -97.63294601 276.528265 C-97.63342975 275.53016316 -97.63391349 274.53206132 -97.63441189 273.50371397 C-97.64270924 257.34101189 -97.66803946 241.1783839 -97.70052669 225.01571417 C-97.73360297 208.42475901 -97.75160946 191.83384147 -97.75480431 175.24285316 C-97.75696918 165.92654645 -97.76571411 156.61034769 -97.79126549 147.2940731 C-97.81298048 139.35813821 -97.82101908 131.42233746 -97.81129871 123.48637623 C-97.80675594 119.43853596 -97.80863857 115.39097242 -97.82806015 111.34317017 C-97.84570714 107.63308785 -97.84468202 103.92348381 -97.82916286 100.21339631 C-97.82566956 98.24449299 -97.84180186 96.27558457 -97.85876733 94.30675125 C-97.79573695 85.59789678 -96.21352955 78.94367558 -91.65028 71.50726891 C-84.68309861 64.72838972 -77.70037625 61.17782491 -67.96278 61.13226891 C-66.08758905 61.16420646 -64.2124479 61.20266693 -62.33778 61.25726891 C-62.38418625 60.50703453 -62.4305925 59.75680016 -62.478405 58.98383141 C-62.78720212 50.22722719 -61.22291184 43.95896523 -56.65028 36.50726891 C-49.68309861 29.72838972 -42.70037625 26.17782491 -32.96278 26.13226891 C-31.08758905 26.16420646 -29.2124479 26.20266693 -27.33778 26.25726891 C-27.13153 24.95789391 -26.92528 23.65851891 -26.71278 22.31976891 C-24.98322482 14.73358204 -21.18490486 9.22104464 -14.77528 4.81976891 C-9.94075448 1.79495882 -5.75465813 0.00884414 0 0 Z " fill="#EEECEE" transform="translate(144.3377799987793,-0.25726890563964844)"/>
<path d="M0 0 C1.06335721 -0.00644889 2.12671442 -0.01289778 3.22229457 -0.0195421 C4.38443957 -0.01644489 5.54658456 -0.01334769 6.74394608 -0.01015663 C7.98326802 -0.01468774 9.22258997 -0.01921886 10.49946713 -0.02388728 C13.93694263 -0.03436081 17.37420896 -0.03585656 20.81168556 -0.03349853 C24.52006785 -0.03309041 28.22841891 -0.04412905 31.93678665 -0.05361366 C39.20161478 -0.07022638 46.46641045 -0.07572335 53.73125598 -0.07683842 C59.63733855 -0.07778885 65.54341041 -0.08189892 71.44948959 -0.08823967 C88.19697195 -0.10585355 104.94442868 -0.11507842 121.69192037 -0.11357872 C122.5947755 -0.11349881 123.49763063 -0.1134189 124.427845 -0.11333656 C125.33180359 -0.1132548 126.23576218 -0.11317304 127.16711345 -0.1130888 C141.81390865 -0.11227607 156.46060097 -0.13141015 171.10736641 -0.1596133 C186.14917057 -0.18834835 201.19092456 -0.20215322 216.23275685 -0.20042574 C224.6765205 -0.19976201 233.12017633 -0.20524682 241.56391525 -0.22678185 C248.75395474 -0.24500193 255.94383754 -0.2493343 263.13389012 -0.235763 C266.80088206 -0.22923719 270.46757348 -0.22910171 274.13453674 -0.2464695 C278.11401639 -0.26512318 282.09305829 -0.25263526 286.07255936 -0.23720741 C287.22578147 -0.24749454 288.37900358 -0.25778167 289.56717181 -0.26838052 C298.88743586 -0.18854729 306.13940045 2.12565708 313.0919075 8.47992516 C318.16013793 14.21635512 320.77135045 20.55197526 320.80939102 28.15314293 C320.82012398 29.62940399 320.82012398 29.62940399 320.83107376 31.13548851 C320.83376266 32.20885963 320.83645157 33.28223076 320.83922195 34.38812828 C320.84579315 35.52345497 320.85236435 36.65878166 320.85913467 37.82851219 C320.87884937 41.58601509 320.89052345 45.34347814 320.90050125 49.10101891 C320.90457678 50.3831678 320.90865231 51.6653167 320.91285133 52.98631859 C320.93155118 59.06784297 320.94612234 65.14934736 320.9544633 71.23089457 C320.96424806 78.24861919 320.99060756 85.26602944 321.0309642 92.28364325 C321.06473761 98.36518322 321.07660583 104.44659066 321.0806675 110.52821922 C321.08555033 113.11506349 321.09721214 115.70190398 321.11570549 118.28868675 C321.13993819 121.90151926 321.13916109 125.5135214 321.1321907 129.12640953 C321.15140579 130.73646622 321.15140579 130.73646622 321.17100906 132.3790493 C321.12017923 139.58335743 321.12017923 139.58335743 318.85159683 142.92169762 C315.60898374 144.89976776 313.37914331 144.78825795 309.66222 144.25726891 C307.47362137 142.90151024 307.47362137 142.90151024 305.66222 140.25726891 C305.06499037 136.65862986 305.14021757 133.08965655 305.17979813 129.44940758 C305.17588562 128.34816048 305.17197311 127.24691338 305.16794205 126.11229515 C305.16196221 123.7201927 305.16514571 121.32805393 305.1763649 118.93597031 C305.19359063 115.14871726 305.18613734 111.36223003 305.1721077 107.57497215 C305.14457036 98.84875799 305.15378762 90.1227424 305.16480637 81.39651299 C305.17526371 72.76900813 305.17006939 64.14188721 305.13815689 55.5144043 C305.13106122 51.78567459 305.14774571 48.05753135 305.16527176 44.32884789 C305.15956324 42.03699999 305.15274563 39.7451545 305.14464188 37.45331383 C305.15595642 36.41878075 305.16727097 35.38424767 305.17892838 34.3183651 C305.12640313 28.09804221 304.480436 24.25556932 300.66222 19.25726891 C297.14561987 16.73045379 294.71981151 15.88188005 290.40976429 15.87695217 C288.84330389 15.86429226 288.84330389 15.86429226 287.24519783 15.85137659 C286.10435217 15.85738664 284.9635065 15.86339668 283.78808975 15.86958885 C282.57115242 15.86420331 281.35421509 15.85881778 280.10040087 15.85326904 C276.72544134 15.84143389 273.35097533 15.84306257 269.97603524 15.85043585 C266.33518749 15.85516235 262.69439292 15.84266229 259.05356216 15.83241844 C251.92207062 15.81521494 244.79066712 15.81439362 237.6591602 15.81963135 C231.86317333 15.82367136 226.06721251 15.8222315 220.27122688 15.81688309 C219.44657902 15.81613467 218.62193116 15.81538624 217.77229397 15.81461514 C216.09707002 15.81308368 214.42184607 15.81154533 212.74662214 15.81000017 C197.03373058 15.79626955 181.32088879 15.80171679 165.60799836 15.81318539 C151.23076528 15.8231186 136.85366088 15.81017659 122.47644765 15.78625119 C107.716025 15.76187303 92.95566232 15.75224915 78.19521993 15.75890392 C69.90749491 15.76239897 61.61986886 15.76014526 53.33215904 15.74265289 C46.27707018 15.72794694 39.22214999 15.72727434 32.1670645 15.7447238 C28.56728209 15.75324951 24.96780122 15.75534547 21.36803436 15.74007225 C17.46631233 15.72372278 13.56505801 15.73834189 9.66333389 15.75606346 C8.52471895 15.74645845 7.386104 15.73685345 6.21298558 15.72695738 C0.07948642 15.7844558 -3.73484918 16.03414015 -8.33778 20.25726891 C-10.22346694 23.3574182 -10.22346694 23.3574182 -11.33778 26.25726891 C-10.77259155 26.24838646 -10.20740311 26.23950401 -9.62508774 26.2303524 C-3.73653412 26.14177993 2.15182992 26.08149377 8.04088211 26.03754234 C10.23790042 26.01744124 12.43486532 25.99015585 14.63170242 25.95551109 C17.79174867 25.90692797 20.95108687 25.88428486 24.11143875 25.86664391 C25.58201988 25.83567619 25.58201988 25.83567619 27.08230972 25.80408287 C31.41606876 25.80266057 33.9746646 25.85989767 37.78648758 28.06293297 C39.66222 30.25726891 39.66222 30.25726891 40.22472 33.75726891 C39.56610353 37.85532697 38.92660997 38.79383834 35.66222 41.25726891 C32.48817825 41.74933434 32.48817825 41.74933434 28.69395828 41.73969078 C28.00075485 41.74360329 27.30755142 41.74751579 26.59334183 41.75154686 C25.09176542 41.75751373 23.59013108 41.75436637 22.0885849 41.74312401 C19.70866553 41.72584563 17.32995923 41.73337807 14.95003128 41.74738121 C9.03912812 41.77701775 3.12845715 41.76385583 -2.78248215 41.75220299 C-7.77757862 41.74398776 -12.77214491 41.75198823 -17.76716614 41.78133202 C-20.10613681 41.78840898 -22.44416563 41.77176943 -24.78306198 41.75421715 C-26.22562281 41.75992757 -27.66817983 41.7667461 -29.11072922 41.77484703 C-30.36441299 41.77166466 -31.61809677 41.76848228 -32.90977097 41.76520348 C-37.7199677 42.45567176 -40.70834818 44.47635957 -43.96579933 48.03663445 C-45.66322281 50.78401796 -45.83438626 52.80025412 -46.02528 56.00726891 C-46.09102219 56.99211266 -46.15676437 57.97695641 -46.22449875 58.99164391 C-46.26188156 59.73930016 -46.29926437 60.48695641 -46.33778 61.25726891 C-45.7677697 61.25612974 -45.19775941 61.25499058 -44.61047608 61.2538169 C-10.81565396 61.18666054 22.97915297 61.13519804 56.77402728 61.10407292 C60.83319385 61.10032087 64.89236028 61.09643789 68.95152664 61.09247398 C70.16367036 61.09129359 70.16367036 61.09129359 71.40030182 61.09008934 C84.47925905 61.07704083 97.55817666 61.05339004 110.6371104 61.02581052 C124.0605687 60.99774089 137.48400626 60.98108935 150.9074927 60.97500342 C159.18832271 60.97089021 167.46904074 60.95790602 175.74983627 60.9335195 C181.43081026 60.91764309 187.11172647 60.91287286 192.79272103 60.91676477 C196.06877941 60.91868337 199.3446015 60.91412566 202.62063408 60.89965248 C206.17781864 60.88470834 209.73452554 60.88832282 213.29172134 60.89650536 C214.31995276 60.88776683 215.34818417 60.87902831 216.40757412 60.87002498 C226.11179566 60.93028441 234.23789875 63.13033368 241.44347 69.94086266 C249.57830869 78.50657204 251.25985005 87.43239509 251.15669632 98.97391319 C251.16152515 100.2210351 251.16635398 101.468157 251.17132914 102.75307047 C251.18060536 106.18916209 251.17208923 109.62434988 251.15580058 113.06035781 C251.14257862 116.77537253 251.15255801 120.4903369 251.15956497 124.20535851 C251.16962081 131.47122906 251.15840269 138.7369168 251.13986437 146.00276463 C251.11905214 154.46505502 251.11923787 162.92730635 251.12020953 171.38961752 C251.12120957 186.48469999 251.10291721 201.57969754 251.07384109 216.67474937 C251.0456386 231.32385364 251.03150093 245.97288321 251.03282547 260.622015 C251.03290538 261.52517281 251.03298529 262.42833062 251.03306763 263.35885684 C251.03314834 264.26045337 251.03322905 265.1620499 251.0333122 266.09096754 C251.03469119 282.77382647 251.02291972 299.45665368 251.00500577 316.13950234 C250.99897093 322.03981617 250.99684643 327.94012418 250.99594116 333.84044075 C250.99457807 341.02498988 250.98566451 348.20948549 250.96727555 355.3940119 C250.95803251 359.06032805 250.9519512 362.72657568 250.95446396 366.39290428 C250.95705294 370.36283233 250.94417829 374.33262211 250.92964554 378.30252647 C250.93274274 379.46690219 250.93583995 380.63127791 250.939031 381.83093774 C250.93258211 382.8916872 250.92613322 383.95243666 250.91948891 385.04533005 C250.91808006 385.96187028 250.91667121 386.87841052 250.91521966 387.8227247 C250.64058078 390.46549706 250.10788183 392.03679203 248.66222 394.25726891 C245.17097983 396.58476235 243.76999749 396.76026207 239.66222 396.25726891 C237.09966322 394.24550861 235.82221389 393.04200989 235.16361666 389.81171 C235.16426607 388.88996371 235.16491548 387.96821742 235.16558456 387.01853943 C235.15660377 385.95183978 235.14762298 384.88514013 235.13837004 383.78611624 C235.14885893 382.6151211 235.15934783 381.44412595 235.17015457 380.2376461 C235.16547558 378.99297833 235.16079659 377.74831055 235.15597582 376.46592557 C235.14692123 373.00874852 235.15578132 369.55244481 235.17205071 366.09534883 C235.18520687 362.36791827 235.17526173 358.64054343 235.16794205 354.91310692 C235.15825445 348.45301793 235.16273607 341.99306375 235.1763649 335.53298378 C235.19571362 326.18623679 235.18929556 316.83964165 235.17579108 307.49289076 C235.15419916 292.32026716 235.14749856 277.14767935 235.15294266 261.97504234 C235.15326329 261.06674071 235.15358392 260.15843907 235.15391427 259.22261314 C235.15662674 251.85361985 235.16005766 244.48462693 235.16351986 237.11563396 C235.16651467 230.67716864 235.16922303 224.23870328 235.17149734 217.80023766 C235.17198561 216.44035215 235.17198561 216.44035215 235.17248374 215.05299421 C235.17742482 199.94003101 235.16675289 184.82711752 235.14492559 169.71416986 C235.1322199 160.3904561 235.13369098 151.06694699 235.15337646 141.74324428 C235.16597589 135.35494087 235.16452935 128.9667413 235.15200293 122.57843806 C235.14528443 118.89157142 235.14520261 115.20500776 235.1625843 111.5181694 C235.18130297 107.52217736 235.16926977 103.52686646 235.15428543 99.53085899 C235.16477433 98.36432529 235.17526322 97.19779159 235.18606997 95.99590838 C235.13544933 89.95401211 235.00829467 85.8604001 230.66222 81.25726891 C225.26284839 76.20672497 219.7373853 76.69411755 212.74376297 76.74933434 C211.53413832 76.74309437 210.32451366 76.73685441 209.07823372 76.73042536 C205.7281899 76.71724188 202.37904459 76.72197101 199.0290556 76.73437023 C195.41343932 76.74342447 191.79790128 76.72944917 188.18230057 76.71845055 C181.10238508 76.70066466 174.02263921 76.70450557 166.94271708 76.71610111 C161.18870177 76.7251349 155.43473401 76.72635967 149.68071365 76.72200584 C148.861752 76.72139291 148.04279035 76.72077998 147.19901168 76.72014847 C145.53530326 76.71886957 143.87159485 76.71757272 142.20788646 76.71625811 C126.60751772 76.70485211 111.007243 76.71796631 95.40688968 76.73945957 C82.02124957 76.75733059 68.63574823 76.75422649 55.25011063 76.73578453 C39.70554507 76.71437816 24.16106192 76.70595075 8.61648369 76.71823359 C6.95889792 76.71950778 5.30131214 76.72076526 3.64372635 76.72200584 C2.42038269 76.7229315 2.42038269 76.7229315 1.17232502 76.72387585 C-4.57473613 76.72732945 -10.32174501 76.72150019 -16.06879807 76.71208763 C-23.07263504 76.70086885 -30.07629269 76.70390506 -37.08010912 76.72521061 C-40.65356471 76.73572278 -44.22672134 76.73984032 -47.80017471 76.726614 C-51.67339318 76.71249498 -55.54612215 76.72935406 -59.41932297 76.74933434 C-60.5494739 76.74041145 -61.67962482 76.73148856 -62.84402275 76.72229528 C-68.81303319 76.78220177 -72.77662467 76.99078809 -77.33778 81.25726891 C-82.62702313 86.77386055 -81.90213909 92.96419787 -81.85676193 100.16519737 C-81.86426318 101.48114423 -81.87176444 102.79709109 -81.879493 104.15291512 C-81.89974577 107.79938376 -81.89520148 111.44546318 -81.88658547 115.09196234 C-81.88164099 119.02649856 -81.89972507 122.96093699 -81.91500473 126.89543724 C-81.93832147 133.7101611 -81.94706507 140.52477853 -81.94589615 147.33954048 C-81.94422718 157.19250226 -81.96455891 167.04532213 -81.99025145 176.89824606 C-82.03133924 192.88412437 -82.05464709 208.86997715 -82.06678391 224.85590172 C-82.07861137 240.38424698 -82.09880613 255.9125442 -82.13026047 271.44086266 C-82.13219657 272.3981119 -82.13413267 273.35536113 -82.13612744 274.34161793 C-82.14589199 279.14388128 -82.1558211 283.94614428 -82.16583204 288.74840713 C-82.248663 328.58467155 -82.30264316 368.42093553 -82.33778 408.25726891 C-81.54566116 408.24838646 -80.75354233 408.23950401 -79.93741989 408.2303524 C-72.43533566 408.14986615 -64.93346377 408.08913304 -57.43105888 408.05002022 C-53.57490721 408.02923515 -49.71911531 408.00108648 -45.86317062 407.95551109 C-42.13487259 407.91172529 -38.40691839 407.8880637 -34.67838287 407.87775993 C-33.26313879 407.87042671 -31.84791135 407.85610811 -30.43281555 407.83434868 C-19.93654141 407.67951905 -10.67277088 408.60698061 -2.52528 415.81976891 C-1.83820969 416.39855797 -1.15113937 416.97734703 -0.44324875 417.57367516 C6.6292636 426.58817605 7.3601533 435.72910618 7.15050125 446.76898766 C7.1411525 448.23298994 7.13404616 449.69700807 7.12906265 451.16103172 C7.11015428 454.97703334 7.06119911 458.79205285 7.00554276 462.60767174 C6.95399619 466.51612634 6.93147383 470.42474278 6.90636063 474.33344078 C6.85305948 481.97516006 6.7679501 489.61607583 6.66222 497.25726891 C34.98233062 497.19676849 63.30235063 497.11929268 91.62235832 497.02155399 C104.77154235 496.9765699 117.92069914 496.93716123 131.06993484 496.91083336 C142.52950957 496.88787449 153.98899828 496.85450005 165.44850481 496.80856735 C171.5173924 496.78460674 177.58619464 496.76589652 183.65512848 496.759655 C189.36620515 496.75361705 195.07706336 496.73366366 200.78805923 496.70299339 C202.88507319 496.69419251 204.98211566 496.69049481 207.07914734 496.69226074 C209.94120828 496.69391007 212.80260055 496.67724299 215.66456985 496.65599632 C216.49531953 496.6608439 217.32606921 496.66569147 218.18199313 496.67068595 C223.06219019 496.61085424 226.45113838 495.98856898 230.66222 493.25726891 C235.4709134 486.65915445 235.22370221 479.79973954 235.17864037 471.90980148 C235.16591327 469.66898861 235.17738326 467.4293898 235.19467545 465.18861961 C235.22125066 461.2458726 235.22697525 457.30342832 235.22557449 453.36060143 C235.22333644 447.03315147 235.23741591 440.70607256 235.28116035 434.37876892 C235.29100048 432.17219124 235.28228608 429.96619961 235.27246475 427.75963402 C235.27860656 426.41077856 235.28551748 425.06192631 235.29332352 423.71307945 C235.29236176 422.53585823 235.29139999 421.35863701 235.29040909 420.14574242 C235.66222 417.25726891 235.66222 417.25726891 236.93918228 415.38503075 C239.36525522 413.79711863 241.78657993 413.79487076 244.62706375 413.66351891 C247.94744479 414.63222892 248.86410214 416.33691817 250.66222 419.25726891 C251.20870248 422.56154273 251.12825438 425.81048396 251.052845 429.15180016 C251.04718521 430.09915535 251.04152542 431.04651054 251.03569412 432.02257347 C251.01336084 435.03882625 250.9631698 438.05387713 250.91222 441.06976891 C250.89215107 443.11857984 250.87390099 445.16740945 250.8575325 447.21625328 C250.81350594 452.23038599 250.7444991 457.24362389 250.66222 462.25726891 C252.41350818 461.97343944 254.16322003 461.67987361 255.91222 461.38226891 C256.88675125 461.21984703 257.8612825 461.05742516 258.865345 460.89008141 C263.32602923 459.88082045 265.18374192 458.93091065 267.88047409 455.13422394 C270.87229752 448.58521212 270.21311286 441.27381682 270.17015457 434.22598839 C270.17476624 432.58168394 270.18112095 430.93738362 270.18906355 429.29309189 C270.20574315 424.78481133 270.19751678 420.27686999 270.18511868 415.7685883 C270.17606506 410.90283311 270.19003937 406.03713607 270.20103836 401.17139244 C270.21882401 391.64397561 270.21498361 382.11668483 270.2033878 372.58926307 C270.19435501 364.84731264 270.19312881 357.10539755 270.19748306 349.36344337 C270.19840246 347.7107771 270.19840246 347.7107771 270.19934043 346.02472363 C270.20061933 343.78652428 270.20191618 341.54832493 270.2032308 339.3101256 C270.21463646 318.3237278 270.20152254 297.3373999 270.18002933 276.35101356 C270.1621534 258.33877332 270.16526658 240.32663619 270.18370438 222.31439781 C270.20510275 201.40009905 270.21354306 180.48586152 270.20125532 159.57155335 C270.19998111 157.34218988 270.19872363 155.1128264 270.19748306 152.88346291 C270.19686596 151.78655119 270.19624886 150.68963948 270.19561306 149.55948802 C270.19215743 141.82467856 270.19799298 134.0899079 270.20740128 126.35510445 C270.21861092 116.93221832 270.21560276 107.50946551 270.1942783 98.08659469 C270.18375475 93.27773837 270.17966836 88.46910446 270.19287491 83.66024971 C270.20477729 79.25979329 270.19827198 74.85976585 270.1769647 70.45934846 C270.17248954 68.86595598 270.17478537 67.27252741 270.18446785 65.67915808 C270.19661076 63.51522918 270.18418048 61.35277455 270.16558456 59.18892288 C270.16493515 57.98650825 270.16428575 56.78409363 270.16361666 55.54524219 C269.43287772 50.75332727 267.2066038 47.61445467 263.59972 44.44476891 C259.47421702 41.91623482 255.51899139 42.11765275 250.84949112 42.13269615 C250.04529029 42.131286 249.24108947 42.12987586 248.41251892 42.12842298 C245.70870719 42.1247632 243.00494769 42.1281094 240.30113602 42.13129234 C238.36632115 42.12989791 236.43150658 42.12799881 234.49669266 42.12563133 C230.32569064 42.12113091 226.15469846 42.11927817 221.98369408 42.11916924 C215.39156083 42.11803054 208.7994838 42.10520496 202.20737076 42.08960533 C201.09568435 42.08703248 199.98399794 42.08445962 198.83862406 42.08180881 C196.5652637 42.07654222 194.29190339 42.07125673 192.01854312 42.06595278 C176.6679078 42.03081102 161.31734223 42.00429394 145.96666336 42.00678062 C135.61637639 42.00836717 125.26628074 41.99238236 114.91605514 41.956074 C109.43628551 41.9375801 103.95683546 41.92830112 98.47704124 41.94054985 C93.32476267 41.95195494 88.17305711 41.94035712 83.02085495 41.91091537 C81.12778829 41.90425451 79.23466951 41.90617612 77.34162331 41.91721344 C74.76103469 41.93101363 72.18239988 41.91427588 69.60193253 41.88977623 C68.47270389 41.9068093 68.47270389 41.9068093 67.32066256 41.92418647 C63.56445389 41.85462286 61.96223073 41.53525411 59.16598797 38.9442997 C57.66222 36.25726891 57.66222 36.25726891 57.66222 32.63226891 C58.66222 29.25726891 58.66222 29.25726891 60.23185253 27.57056141 C63.62589111 25.736532 66.7861599 25.83933655 70.54809952 25.86958885 C71.74827395 25.86151055 71.74827395 25.86151055 72.97269434 25.85326904 C75.65720058 25.83894734 78.34121662 25.84610365 81.02574539 25.85321617 C82.94935376 25.84751453 84.87295875 25.84055107 86.79655838 25.83241844 C92.02628075 25.81444192 97.25583572 25.81566474 102.48557973 25.82136083 C106.85396296 25.82444847 111.22231383 25.81836442 115.59069246 25.81232208 C125.90289232 25.79826157 136.21500939 25.79984874 146.52721024 25.81122398 C157.15287472 25.82268633 167.77828625 25.80866468 178.40391737 25.78182751 C187.53277487 25.75963698 196.66155318 25.7530413 205.79043573 25.75890392 C211.23963656 25.76226914 216.68867555 25.75988821 222.13785362 25.74265289 C227.26873962 25.72713422 232.39925312 25.73119393 237.53012466 25.74995804 C239.40736128 25.75363138 241.28462578 25.7505723 243.16183662 25.74007225 C255.55829923 25.67606144 268.23044211 25.96696768 277.66222 35.25726891 C285.94237881 45.2624608 285.9535579 55.32622931 285.90272903 67.75946617 C285.90360181 69.34616985 285.90535411 70.93287325 285.90790737 72.51957512 C285.91237078 76.86834021 285.90439104 81.21700644 285.89435124 85.56575894 C285.88570455 90.2595953 285.88863777 94.95342621 285.89015579 99.6472683 C285.89120387 107.77590821 285.88493531 115.90451598 285.87368011 124.03314781 C285.85741765 135.78574308 285.85221634 147.53832283 285.84970413 159.29092813 C285.8453282 178.35930704 285.83202186 197.42766882 285.81309891 216.49603844 C285.79473747 235.01784746 285.78058225 253.53965183 285.77208328 272.06146812 C285.77155784 273.20338564 285.77103239 274.34530316 285.77049102 275.52182424 C285.76788092 281.25055843 285.76535351 286.97929265 285.76286721 292.70802689 C285.74213789 340.22445273 285.70691513 387.74085998 285.66222 435.25726891 C287.4221283 435.15121856 289.18111177 435.02974749 290.93956375 434.90180016 C291.91917068 434.83581627 292.89877762 434.76983238 293.90806961 434.70184898 C298.16996022 434.01388667 299.78718717 432.4271769 302.66222 429.25726891 C304.43934972 426.31004492 304.9122786 424.15593092 304.91275978 420.73135185 C304.91775848 419.823655 304.92275717 418.91595815 304.92790735 417.98075533 C304.92091253 416.49069168 304.92091253 416.49069168 304.9137764 414.97052574 C304.91674654 413.91229024 304.91971668 412.85405475 304.92277682 411.76375151 C304.93043538 408.20619756 304.92391517 404.64880781 304.91759109 401.09125328 C304.92034006 398.54546051 304.92401939 395.9996686 304.92856216 393.4538784 C304.93668324 387.96619413 304.93900291 382.47855447 304.93661499 376.99086571 C304.93351921 369.05221947 304.94514938 361.11364462 304.96116479 353.17501634 C304.98713033 340.28951707 305.00714786 327.40401774 305.02061844 314.51849937 C305.02142881 313.7472414 305.02223918 312.97598342 305.02307411 312.18135399 C305.03429977 301.2319639 305.03957768 290.28257889 305.04246123 279.33318383 C305.04266522 278.56192585 305.04286921 277.79066787 305.04307938 276.99603844 C305.04327931 276.22571909 305.04347925 275.45539974 305.04368524 274.66173738 C305.0474158 261.82461183 305.06648384 248.98756371 305.09817374 236.15047693 C305.11710748 228.23019118 305.12303817 220.3101038 305.11235656 212.38980162 C305.10530164 206.32461685 305.11878673 200.25965936 305.13997459 194.19449997 C305.14531585 191.70316831 305.14376706 189.21181125 305.13493919 186.7204895 C305.12388463 183.32799367 305.13717292 179.93644915 305.15669632 176.54401207 C305.14300933 175.05394842 305.14300933 175.05394842 305.12904584 173.53378248 C305.20373433 166.89649746 305.20373433 166.89649746 307.51022148 163.68075371 C310.38900675 161.77652048 312.19399495 161.1864888 315.66222 161.25726891 C318.54711997 163.26840252 320.37449339 164.8970366 321.12205613 168.43115175 C321.30691211 171.21123833 321.32345003 173.95161892 321.29040909 176.73778343 C321.29750348 177.80489062 321.30459786 178.8719978 321.31190723 179.97144157 C321.3295344 183.55365402 321.31135689 187.13478825 321.29332352 190.7169857 C321.29846064 193.28275103 321.30574034 195.84851284 321.31500626 198.41426659 C321.33339103 204.66485644 321.32486381 210.91513379 321.30691803 217.16571393 C321.29288937 222.24848362 321.2889998 227.3311685 321.29236031 232.41395569 C321.29283775 233.13753565 321.29331519 233.86111562 321.2938071 234.60662225 C321.29483345 236.07665129 321.29588881 237.54668031 321.29697286 239.01670931 C321.30554241 252.01907743 321.28886018 265.02129488 321.25914383 278.02362633 C321.2303356 290.62883404 321.2232084 303.23382443 321.23863602 315.83905602 C321.25541897 329.57043797 321.25940875 343.3017167 321.24192566 357.03310138 C321.24008133 358.49923534 321.23824661 359.96536931 321.23642159 361.4315033 C321.2355095 362.15281813 321.23459741 362.87413296 321.23365768 363.61730581 C321.22806299 368.68870925 321.23134976 373.76006217 321.23796654 378.83146286 C321.24653211 385.66792496 321.23346763 392.50406956 321.20611763 399.3404808 C321.19924266 401.84702693 321.19912624 404.35360228 321.20633316 406.86014748 C321.21505091 410.28772318 321.19903051 413.71434037 321.1768837 417.14183617 C321.18512446 418.12872561 321.19336523 419.11561505 321.20185572 420.13241023 C321.10873148 427.96724442 319.0720899 434.33007351 314.97472 441.00726891 C308.00753861 447.7861481 301.02481625 451.3367129 291.28722 451.38226891 C289.41202905 451.35033135 287.5368879 451.31187088 285.66222 451.25726891 C285.352845 453.20633141 285.352845 453.20633141 285.03722 455.19476891 C283.30766482 462.78095577 279.50934486 468.29349317 273.09972 472.69476891 C267.60228397 476.13434118 263.3902895 477.51440162 256.84972 477.38226891 C255.68827469 477.36422203 254.52682938 477.34617516 253.33018875 477.32758141 C252.00954422 477.29277672 252.00954422 477.29277672 250.66222 477.25726891 C250.70862625 478.00750328 250.7550325 478.75773766 250.802845 479.53070641 C251.12196904 488.5801523 249.6040472 495.64953212 244.16222 503.00726891 C233.9230028 513.3620713 220.91411002 513.56670143 207.26353836 514.38251305 C205.10255654 514.52814012 202.94163135 514.67460946 200.78075886 514.82184982 C173.43080717 516.61745018 146.0390395 517.60974848 118.64082021 518.26977837 C116.60335801 518.3196798 114.56597893 518.37221355 112.52860117 518.4254427 C-10.18828044 521.60092559 -10.18828044 521.60092559 -49.58204621 484.48157531 C-55.2628524 478.96206706 -60.39942697 473.016752 -65.40028 466.88226891 C-65.84414629 466.34083575 -66.28801259 465.79940259 -66.74532938 465.24156237 C-97.44754226 427.63921101 -97.44754226 427.63921101 -97.47200108 413.80728722 C-97.47645892 412.64253459 -97.48091676 411.47778196 -97.48550969 410.2777338 C-97.48532533 408.986913 -97.48514097 407.69609221 -97.48495102 406.36615562 C-97.48824881 404.98974726 -97.4919742 403.61333986 -97.4960925 402.23693371 C-97.5061308 398.44122986 -97.50983224 394.64554182 -97.51248181 390.84982657 C-97.5163796 386.76100918 -97.52595848 382.67220438 -97.53469467 378.583395 C-97.5544768 368.70052153 -97.56452875 358.817647 -97.57342246 348.93475866 C-97.57780361 344.28181421 -97.58317097 339.6288709 -97.58841133 334.97592735 C-97.60542745 319.5090871 -97.61992086 304.04224757 -97.62716007 288.5753994 C-97.62907001 284.55968792 -97.63099033 280.54397645 -97.63294601 276.528265 C-97.63342975 275.53016316 -97.63391349 274.53206132 -97.63441189 273.50371397 C-97.64270924 257.34101189 -97.66803946 241.1783839 -97.70052669 225.01571417 C-97.73360297 208.42475901 -97.75160946 191.83384147 -97.75480431 175.24285316 C-97.75696918 165.92654645 -97.76571411 156.61034769 -97.79126549 147.2940731 C-97.81298048 139.35813821 -97.82101908 131.42233746 -97.81129871 123.48637623 C-97.80675594 119.43853596 -97.80863857 115.39097242 -97.82806015 111.34317017 C-97.84570714 107.63308785 -97.84468202 103.92348381 -97.82916286 100.21339631 C-97.82566956 98.24449299 -97.84180186 96.27558457 -97.85876733 94.30675125 C-97.79573695 85.59789678 -96.21352955 78.94367558 -91.65028 71.50726891 C-84.68309861 64.72838972 -77.70037625 61.17782491 -67.96278 61.13226891 C-66.08758905 61.16420646 -64.2124479 61.20266693 -62.33778 61.25726891 C-62.38418625 60.50703453 -62.4305925 59.75680016 -62.478405 58.98383141 C-62.78720212 50.22722719 -61.22291184 43.95896523 -56.65028 36.50726891 C-49.68309861 29.72838972 -42.70037625 26.17782491 -32.96278 26.13226891 C-31.08758905 26.16420646 -29.2124479 26.20266693 -27.33778 26.25726891 C-27.13153 24.95789391 -26.92528 23.65851891 -26.71278 22.31976891 C-24.98322482 14.73358204 -21.18490486 9.22104464 -14.77528 4.81976891 C-9.94075448 1.79495882 -5.75465813 0.00884414 0 0 Z " fill="#020201" transform="translate(144.3377799987793,-0.25726890563964844)"/>
<path d="M0 0 C1.82691092 -0.01169993 1.82691092 -0.01169993 3.69072914 -0.02363622 C7.05956326 -0.04009946 10.42699846 -0.03421696 13.7957468 -0.01870513 C17.43319512 -0.00737636 21.07052259 -0.02486184 24.70794678 -0.03860474 C31.82886511 -0.06082554 38.94951978 -0.05604122 46.0704484 -0.04154153 C51.85828723 -0.03024469 57.64605223 -0.02872031 63.43389893 -0.03416061 C64.25798709 -0.03492678 65.08207525 -0.03569294 65.93113577 -0.03648233 C67.60531094 -0.03808097 69.27948608 -0.03970204 70.9536612 -0.04134528 C86.64850968 -0.05559939 102.34321207 -0.0392154 118.03803658 -0.01234345 C131.50183061 0.00999505 144.96540908 0.00611482 158.42919922 -0.01693726 C174.06828294 -0.04370127 189.70723866 -0.05422612 205.34634209 -0.03887594 C207.01432163 -0.03728321 208.68230118 -0.03571136 210.35028076 -0.03416061 C211.5812632 -0.03300355 211.5812632 -0.03300355 212.83711398 -0.03182311 C218.61729102 -0.02750791 224.39738681 -0.03478877 230.17755127 -0.04655838 C237.22272776 -0.06058863 244.26762574 -0.05677259 251.31277037 -0.03015466 C254.90666498 -0.01702327 258.50009544 -0.01185189 262.09398651 -0.02840042 C265.99097945 -0.0460731 269.88721409 -0.024957 273.78417969 0 C274.91851755 -0.01115361 276.05285542 -0.02230722 277.22156715 -0.03379881 C284.12970869 0.052176 287.75161452 0.92331871 292.89208984 5.63491821 C296.74413606 10.90703018 296.3139511 16.46022556 296.27685547 22.73330688 C296.28491463 24.39525337 296.28491463 24.39525337 296.2931366 26.09077454 C296.30290288 28.49047796 296.30586224 30.89021665 296.30278015 33.28993797 C296.29830246 37.08457193 296.31230006 40.87873953 296.33117676 44.67332458 C296.37107326 53.40814248 296.38358559 62.14290988 296.39470673 70.87779999 C296.4060475 79.53036389 296.42898478 88.18268769 296.47209167 96.83516884 C296.48570925 100.57947734 296.4814832 104.32350157 296.47668457 108.06782532 C296.48602029 110.35345834 296.49618786 112.63908817 296.50732422 114.92471313 C296.50117599 115.97048523 296.49502777 117.01625732 296.48869324 118.09371948 C296.4968959 119.04838608 296.50509857 120.00305267 296.5135498 120.98664856 C296.51426231 121.81676547 296.51497482 122.64688238 296.51570892 123.50215435 C296.98930321 126.18577811 297.71350793 127.02972024 299.89208984 128.63491821 C301.21208984 128.96491821 302.53208984 129.29491821 303.89208984 129.63491821 C303.89208984 135.24491821 303.89208984 140.85491821 303.89208984 146.63491821 C301.91208984 147.62491821 299.93208984 148.61491821 297.89208984 149.63491821 C296.72639489 151.96630812 296.76622257 153.3124434 296.76459789 155.90915298 C296.76159024 156.81163434 296.7585826 157.7141157 296.75548381 158.64394498 C296.75810936 160.14070079 296.75810936 160.14070079 296.76078796 161.66769409 C296.75867225 162.72280961 296.75655654 163.77792512 296.75437671 164.86501384 C296.74835345 168.42406772 296.74937851 171.98308639 296.75024414 175.54214478 C296.74721419 178.08439698 296.74369319 180.62664864 296.73971558 183.16889954 C296.73181359 188.65551096 296.72665621 194.14211487 296.72342491 199.62873077 C296.71793252 208.30063335 296.70103904 216.9724965 296.68208313 225.64437866 C296.67572605 228.6101722 296.66941765 231.57596585 296.66310596 234.54175949 C296.6615222 235.28299785 296.65993844 236.02423621 296.65830668 236.78793634 C296.64036244 245.22960325 296.62414009 253.67127294 296.60913086 262.11294556 C296.60775499 262.88480992 296.60637912 263.65667428 296.60496155 264.45192847 C296.5830365 276.95724145 296.57227681 289.46254432 296.56476011 301.96787313 C296.55668968 314.80269173 296.53340094 327.6374235 296.49680644 340.47219253 C296.47477557 348.39079336 296.46511855 356.30921565 296.47130678 364.22784558 C296.47485593 370.29695374 296.45762292 376.36581974 296.43262863 382.43488503 C296.42569561 384.92537042 296.42561282 387.41588557 296.4328289 389.90637016 C296.4416767 393.30266259 296.42608806 396.69799359 296.40434265 400.09420776 C296.41278519 401.08312208 296.42122773 402.0720364 296.4299261 403.09091783 C296.34613687 410.15333049 294.48127743 413.65342947 289.82958984 419.00991821 C286.51942931 420.84107085 284.92965974 420.80756834 281.20849609 420.73648071 C279.71684937 420.71448608 279.71684937 420.71448608 278.19506836 420.69204712 C277.43508545 420.67319458 276.67510254 420.65434204 275.89208984 420.63491821 C275.89111304 419.82829904 275.89013623 419.02167986 275.88912982 418.19061768 C275.8308576 370.38363193 275.75706065 322.57669162 275.66310356 274.76976199 C275.6518354 269.02950178 275.64069695 263.28924133 275.62963867 257.54898071 C275.62633315 255.83480718 275.62633315 255.83480718 275.62296084 254.08600388 C275.58758863 235.58233464 275.56272406 217.07866543 275.54174282 198.57497491 C275.51998019 179.58843121 275.48692533 160.60193138 275.44338828 141.61542499 C275.4168796 129.89978428 275.39917844 118.18419824 275.3927438 106.46852903 C275.38748755 98.43461812 275.37126251 90.400776 275.34642418 82.36690195 C275.33241744 77.73181967 275.32323533 73.09686051 275.32708168 68.46175575 C275.33049885 64.2150232 275.3200871 59.96855335 275.29885433 55.72187458 C275.29359811 54.18874139 275.29333924 52.65558083 275.29869422 51.12244798 C275.33070016 40.91643968 275.10208701 30.62288286 268.53662109 22.23257446 C261.04892587 14.95830523 251.8219058 12.32489848 241.5983429 12.36749268 C240.79072437 12.36296156 239.98310584 12.35843045 239.15101403 12.35376203 C236.45958505 12.34115664 233.76835942 12.34273585 231.0769043 12.34439087 C229.14149721 12.3384035 227.2060925 12.33159747 225.27069092 12.32403564 C220.02512356 12.30639693 214.77962148 12.30168136 209.53402734 12.30040407 C206.25729396 12.29898155 202.98057714 12.29471019 199.70384789 12.28940964 C188.27464113 12.27092159 176.84548098 12.26273814 165.41625977 12.26431274 C154.75689033 12.26551618 144.09772271 12.24437107 133.43840438 12.21282542 C124.28667443 12.18670478 115.13501061 12.17594356 105.98324364 12.17722356 C100.51697351 12.17773412 95.05088308 12.17199815 89.58465004 12.15086746 C84.44883699 12.1315542 79.31337649 12.13131305 74.17755127 12.14590073 C72.29091568 12.14799803 70.40425839 12.14323343 68.51766014 12.13117981 C65.94631653 12.11581221 63.37620177 12.12497813 60.80488586 12.14044189 C60.05479525 12.13015477 59.30470464 12.11986764 58.53188401 12.10926878 C55.11027745 12.15488644 53.19715797 12.41494714 50.38972759 14.43926048 C48.53617975 16.69162919 48.53617975 16.69162919 49.01708984 20.25991821 C49.59949698 23.68033877 49.59949698 23.68033877 51.89208984 25.63491821 C54.4867385 25.83374421 56.97514392 25.90686325 59.57110596 25.89320374 C60.77400886 25.89871729 60.77400886 25.89871729 62.00121284 25.90434223 C64.70350894 25.9143671 67.40560107 25.91016254 70.10791016 25.90615845 C72.03933431 25.910543 73.97075657 25.91584416 75.9021759 25.92199707 C80.06938077 25.93352061 84.23653464 25.93895822 88.40375519 25.93987846 C94.99217887 25.94181464 101.58049672 25.95984358 108.16888428 25.9806366 C124.53754781 26.02989152 140.90624022 26.06070723 157.27496338 26.0819397 C169.98649493 26.09845567 182.69793627 26.12125909 195.40940738 26.16496044 C201.95927338 26.18675959 208.50896814 26.19479245 215.05886793 26.19256771 C219.13561132 26.19423393 223.21224289 26.20827979 227.28894615 26.22578049 C229.17956161 26.23138232 231.07020024 26.23186309 232.96081734 26.22684288 C235.54251396 26.2207065 238.12350402 26.23292414 240.70513916 26.24964905 C241.45281469 26.24343723 242.20049021 26.23722542 242.97082257 26.23082536 C248.36681489 26.29449211 252.53841301 27.43778045 256.53662109 31.17007446 C260.20801957 35.971134 261.01735388 38.04516156 261.02631092 44.07438087 C261.02866315 44.74626452 261.03101538 45.41814816 261.03343889 46.11039191 C261.04014806 48.384015 261.03967009 50.6575812 261.03926086 52.93121338 C261.04255831 54.56890938 261.04628362 56.20660457 261.05040234 57.84429872 C261.06044425 62.36216271 261.06414266 66.88001342 261.06679165 71.39788699 C261.07068828 76.26376841 261.08026711 81.12963924 261.08900452 85.99551392 C261.10878811 97.75603582 261.11883798 109.51655861 261.12773231 121.27709299 C261.1321125 126.81193032 261.13748004 132.34676668 261.14272118 137.88160324 C261.15973609 156.27538415 261.17423063 174.66916446 261.18146992 193.06295204 C261.1833799 197.83873114 261.18530021 202.61451023 261.18725586 207.39028931 C261.1877396 208.5773245 261.18822334 209.76435969 261.18872174 210.98736565 C261.19702334 230.21977996 261.22236128 249.45213209 261.25483654 268.68451925 C261.28788881 288.41915901 261.30591706 308.15376717 261.30911416 327.88843477 C261.31128106 338.9730727 261.32005591 350.05761999 261.34557533 361.14223099 C261.36725738 370.58202101 261.37534508 380.02169839 261.36560855 389.46151049 C261.36105649 394.27868739 261.36300266 399.09563177 261.38237 403.91277695 C261.39994994 408.32342339 261.39904607 412.73366678 261.3834727 417.14431719 C261.38108874 418.73927967 261.38546094 420.33426968 261.39730135 421.92918999 C261.50075232 436.78536664 261.50075232 436.78536664 256.89208984 443.63491821 C255.03271484 445.29116821 255.03271484 445.29116821 253.14208984 446.13491821 C252.22169922 446.58351196 252.22169922 446.58351196 251.28271484 447.04116821 C247.79911289 447.90637654 244.47991734 447.6694953 240.89208984 447.63491821 C240.87021606 445.71244263 240.87021606 445.71244263 240.84790039 443.75112915 C240.78991664 438.99482357 240.71268351 434.23899136 240.62963867 429.48306274 C240.59638974 427.42487268 240.5683577 425.36659145 240.5456543 423.30825806 C240.51210794 420.3490413 240.45979182 417.39066004 240.40380859 414.43179321 C240.39422371 413.05190216 240.39422371 413.05190216 240.38444519 411.64413452 C240.28276108 406.6666631 240.28276108 406.6666631 238.55932617 402.06948853 C236.18131698 400.02333506 233.95549479 399.90722087 230.89208984 399.63491821 C231.55208984 399.30491821 232.21208984 398.97491821 232.89208984 398.63491821 C232.89208984 393.02491821 232.89208984 387.41491821 232.89208984 381.63491821 C234.87208984 380.97491821 236.85208984 380.31491821 238.89208984 379.63491821 C240.28185492 376.74949489 240.02012252 373.59418239 240.02631092 370.42297935 C240.03299769 368.83185516 240.03299769 368.83185516 240.03981954 367.20858705 C240.03963518 366.04421133 240.03945081 364.87983561 240.03926086 363.68017578 C240.0447759 361.82353284 240.0447759 361.82353284 240.05040234 359.92938197 C240.05952278 356.4916337 240.06413747 353.05393315 240.06679165 349.61617732 C240.07069777 345.9091294 240.0802759 342.20209526 240.08900452 338.49505615 C240.1087603 329.54146568 240.11883404 320.58787409 240.12773231 311.63426727 C240.13211668 307.41666556 240.13748311 303.19906511 240.14272118 298.98146439 C240.15973262 284.95913898 240.17422646 270.93681435 240.18146992 256.91448021 C240.18337978 253.27620823 240.18530011 249.63793626 240.18725586 245.99966431 C240.1877396 245.09540253 240.18822334 244.19114075 240.18872174 243.25947709 C240.19702082 228.61329897 240.22235605 213.96720256 240.25483654 199.32106011 C240.28791966 184.28041849 240.30591981 169.23981838 240.30911416 154.19914019 C240.3112781 145.75588134 240.32000979 137.31274164 240.34557533 128.86951828 C240.36729946 121.67839341 240.37532436 114.48741663 240.36560855 107.29626267 C240.36106876 103.62914768 240.36293094 99.96233814 240.38237 96.2952652 C240.40329221 92.31390488 240.39300044 88.33296352 240.37983704 84.3515625 C240.39080628 83.20057111 240.40177553 82.04957972 240.41307718 80.86370981 C240.33292112 70.80885252 237.86557427 62.80527048 230.88818359 55.39273071 C224.70806244 49.95035396 218.23408441 47.52275638 210.04454327 47.49625301 C209.09058782 47.49077857 208.13663238 47.48530413 207.1537692 47.47966379 C206.11388641 47.47868568 205.07400363 47.47770758 204.00260925 47.47669983 C202.89169444 47.47176185 201.78077963 47.46682387 200.63620073 47.46173626 C196.90663859 47.44635486 193.17709368 47.43799885 189.44750977 47.42959595 C186.77685292 47.42001793 184.10620016 47.41005114 181.43554688 47.39959717 C175.68215336 47.37785237 169.92875751 47.35970059 164.17534447 47.34399223 C155.85688551 47.32127542 147.53845185 47.2931351 139.22001437 47.26367296 C125.72375448 47.21601926 112.22748424 47.17274906 98.73120117 47.13223267 C85.62116694 47.09286643 72.5111419 47.0514375 59.40112305 47.00723267 C58.59296086 47.00450839 57.78479868 47.00178412 56.95214673 46.9989773 C52.89781648 46.98529763 48.84348636 46.97157739 44.78915632 46.95783699 C11.15681981 46.84390712 -22.47553589 46.73709005 -56.10791016 46.63491821 C-56.18257575 44.88687594 -56.23568949 43.13790488 -56.27978516 41.38882446 C-56.31168945 40.41501831 -56.34359375 39.44121216 -56.37646484 38.43789673 C-56.0074702 34.58659899 -54.43709429 32.68703011 -51.81103516 29.97476196 C-47.63786599 26.69174127 -44.39132372 26.38164165 -39.09204102 26.36367798 C-38.39401871 26.35845123 -37.6959964 26.35322449 -36.9768219 26.34783936 C-35.46543049 26.33761926 -33.95400408 26.33182242 -32.44257927 26.32995796 C-30.05111653 26.32629129 -27.66006734 26.30955853 -25.26869202 26.28919983 C-18.47127964 26.23380398 -11.67380748 26.20305321 -4.8762207 26.17861938 C-0.71529475 26.16276225 3.44533499 26.13256797 7.60610771 26.0938549 C9.19172464 26.0821935 10.77739447 26.07627446 12.36305428 26.07617378 C14.57755706 26.07598214 16.7912396 26.05774878 19.00561523 26.03555298 C20.26596085 26.03048233 21.52630646 26.02541168 22.82484436 26.02018738 C25.84901771 25.87854914 25.84901771 25.87854914 27.79515076 24.32862854 C29.67492683 21.42619195 29.30880849 18.96866742 28.89208984 15.63491821 C26.0997341 12.9122805 24.06185036 12.25538196 20.21533203 12.20254517 C19.29467957 12.18275101 18.3740271 12.16295685 17.42547607 12.14256287 C16.43992737 12.13617294 15.45437866 12.12978302 14.43896484 12.12319946 C13.42360657 12.10524826 12.40824829 12.08729706 11.36212158 12.06880188 C8.12215312 12.01466115 4.88233231 11.9807906 1.64208984 11.94741821 C-0.55584738 11.91424852 -2.75376512 11.87975919 -4.95166016 11.84390259 C-10.33694443 11.75893265 -15.72224772 11.69059867 -21.10791016 11.63491821 C-20.10991946 6.86674044 -18.40882398 4.40770706 -14.35777664 1.67385983 C-9.79991756 -0.43086484 -4.9322584 -0.04849744 0 0 Z " fill="#F9CD01" transform="translate(154.10791015625,14.365081787109375)"/>
<path d="M0 0 C1.82691092 -0.01169993 1.82691092 -0.01169993 3.69072914 -0.02363622 C7.05956326 -0.04009946 10.42699846 -0.03421696 13.7957468 -0.01870513 C17.43319512 -0.00737636 21.07052259 -0.02486184 24.70794678 -0.03860474 C31.82886511 -0.06082554 38.94951978 -0.05604122 46.0704484 -0.04154153 C51.85828723 -0.03024469 57.64605223 -0.02872031 63.43389893 -0.03416061 C64.25798709 -0.03492678 65.08207525 -0.03569294 65.93113577 -0.03648233 C67.60531094 -0.03808097 69.27948608 -0.03970204 70.9536612 -0.04134528 C86.64850968 -0.05559939 102.34321207 -0.0392154 118.03803658 -0.01234345 C131.50183061 0.00999505 144.96540908 0.00611482 158.42919922 -0.01693726 C174.06828294 -0.04370127 189.70723866 -0.05422612 205.34634209 -0.03887594 C207.01432163 -0.03728321 208.68230118 -0.03571136 210.35028076 -0.03416061 C211.5812632 -0.03300355 211.5812632 -0.03300355 212.83711398 -0.03182311 C218.61729102 -0.02750791 224.39738681 -0.03478877 230.17755127 -0.04655838 C237.22272776 -0.06058863 244.26762574 -0.05677259 251.31277037 -0.03015466 C254.90666498 -0.01702327 258.50009544 -0.01185189 262.09398651 -0.02840042 C265.99097945 -0.0460731 269.88721409 -0.024957 273.78417969 0 C274.91851755 -0.01115361 276.05285542 -0.02230722 277.22156715 -0.03379881 C284.12970869 0.052176 287.75161452 0.92331871 292.89208984 5.63491821 C296.74413606 10.90703018 296.3139511 16.46022556 296.27685547 22.73330688 C296.28491463 24.39525337 296.28491463 24.39525337 296.2931366 26.09077454 C296.30290288 28.49047796 296.30586224 30.89021665 296.30278015 33.28993797 C296.29830246 37.08457193 296.31230006 40.87873953 296.33117676 44.67332458 C296.37107326 53.40814248 296.38358559 62.14290988 296.39470673 70.87779999 C296.4060475 79.53036389 296.42898478 88.18268769 296.47209167 96.83516884 C296.48570925 100.57947734 296.4814832 104.32350157 296.47668457 108.06782532 C296.48602029 110.35345834 296.49618786 112.63908817 296.50732422 114.92471313 C296.50117599 115.97048523 296.49502777 117.01625732 296.48869324 118.09371948 C296.4968959 119.04838608 296.50509857 120.00305267 296.5135498 120.98664856 C296.51426231 121.81676547 296.51497482 122.64688238 296.51570892 123.50215435 C296.98930321 126.18577811 297.71350793 127.02972024 299.89208984 128.63491821 C301.21208984 128.96491821 302.53208984 129.29491821 303.89208984 129.63491821 C303.89208984 135.24491821 303.89208984 140.85491821 303.89208984 146.63491821 C301.91208984 147.62491821 299.93208984 148.61491821 297.89208984 149.63491821 C296.72639489 151.96630812 296.76622257 153.3124434 296.76459789 155.90915298 C296.76159024 156.81163434 296.7585826 157.7141157 296.75548381 158.64394498 C296.75810936 160.14070079 296.75810936 160.14070079 296.76078796 161.66769409 C296.75867225 162.72280961 296.75655654 163.77792512 296.75437671 164.86501384 C296.74835345 168.42406772 296.74937851 171.98308639 296.75024414 175.54214478 C296.74721419 178.08439698 296.74369319 180.62664864 296.73971558 183.16889954 C296.73181359 188.65551096 296.72665621 194.14211487 296.72342491 199.62873077 C296.71793252 208.30063335 296.70103904 216.9724965 296.68208313 225.64437866 C296.67572605 228.6101722 296.66941765 231.57596585 296.66310596 234.54175949 C296.6615222 235.28299785 296.65993844 236.02423621 296.65830668 236.78793634 C296.64036244 245.22960325 296.62414009 253.67127294 296.60913086 262.11294556 C296.60775499 262.88480992 296.60637912 263.65667428 296.60496155 264.45192847 C296.5830365 276.95724145 296.57227681 289.46254432 296.56476011 301.96787313 C296.55668968 314.80269173 296.53340094 327.6374235 296.49680644 340.47219253 C296.47477557 348.39079336 296.46511855 356.30921565 296.47130678 364.22784558 C296.47485593 370.29695374 296.45762292 376.36581974 296.43262863 382.43488503 C296.42569561 384.92537042 296.42561282 387.41588557 296.4328289 389.90637016 C296.4416767 393.30266259 296.42608806 396.69799359 296.40434265 400.09420776 C296.41278519 401.08312208 296.42122773 402.0720364 296.4299261 403.09091783 C296.34613687 410.15333049 294.48127743 413.65342947 289.82958984 419.00991821 C286.51942931 420.84107085 284.92965974 420.80756834 281.20849609 420.73648071 C279.71684937 420.71448608 279.71684937 420.71448608 278.19506836 420.69204712 C277.43508545 420.67319458 276.67510254 420.65434204 275.89208984 420.63491821 C275.89111304 419.82829904 275.89013623 419.02167986 275.88912982 418.19061768 C275.8308576 370.38363193 275.75706065 322.57669162 275.66310356 274.76976199 C275.6518354 269.02950178 275.64069695 263.28924133 275.62963867 257.54898071 C275.62633315 255.83480718 275.62633315 255.83480718 275.62296084 254.08600388 C275.58758863 235.58233464 275.56272406 217.07866543 275.54174282 198.57497491 C275.51998019 179.58843121 275.48692533 160.60193138 275.44338828 141.61542499 C275.4168796 129.89978428 275.39917844 118.18419824 275.3927438 106.46852903 C275.38748755 98.43461812 275.37126251 90.400776 275.34642418 82.36690195 C275.33241744 77.73181967 275.32323533 73.09686051 275.32708168 68.46175575 C275.33049885 64.2150232 275.3200871 59.96855335 275.29885433 55.72187458 C275.29359811 54.18874139 275.29333924 52.65558083 275.29869422 51.12244798 C275.33070016 40.91643968 275.10208701 30.62288286 268.53662109 22.23257446 C261.04892587 14.95830523 251.8219058 12.32489848 241.5983429 12.36749268 C240.79072437 12.36296156 239.98310584 12.35843045 239.15101403 12.35376203 C236.45958505 12.34115664 233.76835942 12.34273585 231.0769043 12.34439087 C229.14149721 12.3384035 227.2060925 12.33159747 225.27069092 12.32403564 C220.02512356 12.30639693 214.77962148 12.30168136 209.53402734 12.30040407 C206.25729396 12.29898155 202.98057714 12.29471019 199.70384789 12.28940964 C188.27464113 12.27092159 176.84548098 12.26273814 165.41625977 12.26431274 C154.75689033 12.26551618 144.09772271 12.24437107 133.43840438 12.21282542 C124.28667443 12.18670478 115.13501061 12.17594356 105.98324364 12.17722356 C100.51697351 12.17773412 95.05088308 12.17199815 89.58465004 12.15086746 C84.44883699 12.1315542 79.31337649 12.13131305 74.17755127 12.14590073 C72.29091568 12.14799803 70.40425839 12.14323343 68.51766014 12.13117981 C65.94631653 12.11581221 63.37620177 12.12497813 60.80488586 12.14044189 C60.05479525 12.13015477 59.30470464 12.11986764 58.53188401 12.10926878 C55.10214728 12.15499484 53.22898163 12.37956656 50.46004009 14.47832298 C48.72268702 16.6396195 48.72268702 16.6396195 47.89208984 19.63491821 C41.95208984 19.63491821 36.01208984 19.63491821 29.89208984 19.63491821 C29.23208984 17.98491821 28.57208984 16.33491821 27.89208984 14.63491821 C24.74406659 12.53623605 23.93187154 12.37529819 20.32885742 12.31607056 C19.40812943 12.29620087 18.48740143 12.27633118 17.53877258 12.25585938 C16.54806259 12.24430817 15.5573526 12.23275696 14.53662109 12.22085571 C13.01146126 12.19180649 13.01146126 12.19180649 11.45549011 12.16217041 C8.20527558 12.1023508 4.95502567 12.05597945 1.70458984 12.00991821 C-0.49789963 11.97174065 -2.70037414 11.93268905 -4.90283203 11.89273071 C-10.30439198 11.79664738 -15.70604193 11.71160683 -21.10791016 11.63491821 C-20.10991946 6.86674044 -18.40882398 4.40770706 -14.35777664 1.67385983 C-9.79991756 -0.43086484 -4.9322584 -0.04849744 0 0 Z " fill="#88C6FA" transform="translate(154.10791015625,14.365081787109375)"/>
<path d="M0 0 C1.55260078 -0.00298657 1.55260078 -0.00298657 3.13656723 -0.00603348 C4.28246225 -0.00312064 5.42835726 -0.0002078 6.60897636 0.00279331 C7.81941671 0.00193889 9.02985706 0.00108446 10.27697742 0.00020415 C13.64734605 -0.0011626 17.01765715 0.00197945 20.38801885 0.00698221 C24.01855613 0.01128758 27.64909154 0.00984022 31.27963066 0.00907993 C37.57329673 0.00855475 43.86695245 0.01170093 50.16061592 0.01731777 C59.26027512 0.02543358 68.3599293 0.02804808 77.45959173 0.02930576 C92.22202576 0.03149616 106.98445427 0.0381559 121.7468853 0.04760838 C136.08998398 0.05678282 150.43308116 0.0638635 164.77618217 0.06811619 C166.10162004 0.06851027 166.10162004 0.06851027 167.45383443 0.06891232 C171.88657824 0.07021733 176.31932207 0.07148104 180.7520659 0.07272422 C217.54510204 0.08309644 254.33813191 0.10071441 291.13116264 0.12304783 C291.13116264 0.45304783 291.13116264 0.78304783 291.13116264 1.12304783 C152.53116264 1.61804783 152.53116264 1.61804783 11.13116264 2.12304783 C8.33074428 9.24226552 8.33074428 9.24226552 7.74640179 16.13622379 C7.73221698 17.84259644 7.73221698 17.84259644 7.7177456 19.58344126 C7.72259318 20.81302388 7.72744075 22.0426065 7.73243523 23.3094492 C7.72699011 24.64454513 7.7202362 25.97963626 7.71229333 27.31471968 C7.69431837 30.96800829 7.69481885 34.62109311 7.69842279 38.27441549 C7.69904781 42.21981189 7.6824156 46.1651406 7.66790581 50.1105051 C7.64513494 56.94100035 7.63323731 63.77144464 7.62877655 70.60197544 C7.6223113 80.47769745 7.5993673 90.35332742 7.57243326 100.22901231 C7.52917807 116.25259713 7.49920407 132.27617808 7.47759819 148.29980564 C7.45658471 163.86297607 7.42930637 179.42611478 7.39361382 194.98925877 C7.39141499 195.94896955 7.38921617 196.90868034 7.38695071 197.89747328 C7.37588096 202.71217939 7.36468817 207.5268852 7.35343421 212.34159088 C7.26026706 252.26871585 7.18888231 292.19585692 7.13116264 332.12304783 C-0.45883736 332.12304783 -8.04883736 332.12304783 -15.86883736 332.12304783 C-15.96005712 291.33169745 -16.03086023 250.54036308 -16.07309867 209.74893104 C-16.07810159 204.93483439 -16.08327887 200.12073793 -16.08856392 195.30664158 C-16.08961316 194.3482281 -16.0906624 193.38981462 -16.09174344 192.40235831 C-16.10915606 176.877017 -16.14069848 161.35173484 -16.17744854 145.82642864 C-16.2148341 129.90000858 -16.23706816 113.97361954 -16.24519134 98.04715741 C-16.25068406 88.2170021 -16.26804202 78.38701397 -16.30050322 68.55691011 C-16.32162167 61.81910581 -16.32804346 55.08138812 -16.32284287 48.34355311 C-16.32027691 44.4541833 -16.32425323 40.56510594 -16.34565926 36.67578793 C-16.36868932 32.46065854 -16.36080283 28.24615413 -16.34985542 24.0309763 C-16.36150679 22.79945894 -16.37315815 21.56794159 -16.38516259 20.29910553 C-16.34040248 13.94766099 -16.23233396 9.90323783 -11.86883736 5.12304783 C-7.74167454 1.48721391 -5.45851668 -0.00230707 0 0 Z " fill="#D2CBD1" transform="translate(77.86883735656738,75.87695217132568)"/>
<path d="M0 0 C0.85067989 -0.00638882 1.70135979 -0.01277764 2.57781786 -0.01936007 C5.43333102 -0.03464221 8.28746385 -0.01412784 11.14292908 0.00622559 C13.18789124 0.00272538 15.23285069 -0.00293205 17.27780151 -0.0105896 C22.83562024 -0.02486073 28.39294562 -0.0077536 33.95071721 0.01569557 C39.76026449 0.0357691 45.56979059 0.02992689 51.37936401 0.02758789 C61.13527081 0.0276415 70.89098414 0.04741958 80.64683533 0.07946777 C91.93609804 0.11637229 103.22510732 0.12514226 114.51442248 0.11817026 C125.36296653 0.11187189 136.21142341 0.12260656 147.05994987 0.14213562 C151.68231381 0.15032382 156.30463328 0.15301657 160.92700386 0.15144348 C166.36644958 0.15056654 171.80565328 0.16472936 177.24503517 0.19067001 C179.24495013 0.19785094 181.24489079 0.19990623 183.24481583 0.19655228 C185.96759366 0.19285609 188.68965787 0.20751971 191.41235352 0.22705078 C192.60912888 0.21905889 192.60912888 0.21905889 193.83008152 0.21090555 C199.10771213 0.27655685 199.10771213 0.27655685 201.62583065 1.90001678 C203.06850902 4.34234196 203.1075379 6.7989052 203.23643494 9.58630371 C202.28570829 12.8450444 200.46556251 13.81878569 197.64268494 15.62145996 C194.74259923 16.00691469 192.22616074 16.16270079 189.33042908 16.12939453 C188.4966401 16.13563449 187.66285112 16.14187446 186.80379581 16.14830351 C184.01152279 16.16425099 181.2201206 16.15162252 178.42784119 16.13903809 C176.42538443 16.14445842 174.42293166 16.15158058 172.42048645 16.16027832 C166.98250439 16.17852501 161.54482564 16.17143849 156.10683823 16.15876198 C150.4183393 16.14864134 144.72986651 16.15802506 139.04136658 16.16430664 C129.48817783 16.17158576 119.93511273 16.16198834 110.38194275 16.14294434 C99.33408098 16.12117516 88.28651447 16.12822634 77.23865986 16.15024996 C67.75658037 16.16839636 58.27458982 16.17096598 48.79249859 16.16049528 C43.12777554 16.1542562 37.46319132 16.1534362 31.79847717 16.16664124 C26.47306101 16.17818798 21.14802587 16.17019528 15.82265091 16.14706421 C13.86710874 16.14177086 11.91153457 16.14330156 9.9560051 16.15211487 C7.28854939 16.16302921 4.62231825 16.14935682 1.9549408 16.12939453 C1.17916215 16.13831742 0.4033835 16.1472403 -0.39590359 16.15643358 C-4.05508573 16.10323537 -6.18048084 15.73212857 -9.3104248 13.7733078 C-11.94855352 10.99990481 -12.43523727 9.43964814 -12.35731506 5.62145996 C-9.27286827 0.09916051 -5.86817633 -0.09232672 0 0 Z " fill="#060606" transform="translate(125.35731506347656,223.3785400390625)"/>
<path d="M0 0 C0.84180722 -0.00467997 1.68361444 -0.00935994 2.55093098 -0.01418173 C5.37615451 -0.0261629 8.20089577 -0.01666233 11.02612305 -0.00723267 C13.04975671 -0.01129698 15.07338815 -0.01663807 17.09701538 -0.02316284 C22.59692686 -0.0368589 28.09666983 -0.03152831 33.59658432 -0.02202559 C39.34694632 -0.01444087 45.0972937 -0.02147129 50.84765625 -0.02618408 C60.50515336 -0.03164509 70.16258169 -0.02444093 79.82006836 -0.01016235 C90.99228458 0.00616479 102.16433657 0.00087653 113.33654881 -0.01564157 C122.92134032 -0.02924657 132.50608234 -0.03118092 142.09088039 -0.02332556 C147.81872183 -0.01864363 153.54648601 -0.0180385 159.27432251 -0.02793503 C164.65875579 -0.03658804 170.04297692 -0.0306132 175.42738724 -0.01325226 C177.40592725 -0.00927851 179.38448505 -0.01043657 181.36301804 -0.01704025 C184.05914929 -0.02521075 186.75459621 -0.01498872 189.45068359 0 C190.63141685 -0.01003825 190.63141685 -0.01003825 191.8360033 -0.02027929 C195.00957803 0.01405682 197.36253069 0.19417913 200.20735168 1.65866661 C202.29038563 4.02203951 202.25378897 6.27883821 202.35424805 9.34579468 C201.35269829 12.58683456 199.55099079 13.57581613 196.7253418 15.38095093 C193.81399429 15.77059032 191.28290579 15.93053378 188.37512207 15.90234375 C187.53724954 15.90999484 186.69937701 15.91764594 185.83611441 15.92552888 C183.03005433 15.94615801 180.2248151 15.93821141 177.41870117 15.93026733 C175.4063898 15.93896199 173.39408505 15.94932844 171.38179016 15.96124268 C165.91697424 15.98803869 160.45243481 15.98917851 154.98756599 15.98411608 C150.42718635 15.98197808 145.86686282 15.99173952 141.30649519 16.00132692 C130.55007201 16.02352204 119.79378852 16.02438886 109.03735352 16.01229858 C97.93486336 16.00021145 86.83287964 16.02485869 75.7304759 16.06743872 C66.20168048 16.10264194 56.67304648 16.1146782 47.1441884 16.10816324 C41.45142886 16.10453313 35.75903072 16.10985355 30.06632996 16.13759232 C24.71452177 16.16269423 19.36350487 16.1589144 14.01170921 16.13277054 C12.04648258 16.12802804 10.08120072 16.13354782 8.11603737 16.15001678 C5.43495414 16.1708674 2.75654721 16.15482877 0.07556152 16.12939453 C-0.70410807 16.1441431 -1.48377767 16.15889167 -2.28707361 16.17408717 C-5.19910301 16.11587191 -7.55735774 15.94389975 -9.89745045 14.10735774 C-12.2903785 11.40780697 -13.26573431 9.83606969 -13.3371582 6.19345093 C-10.91244156 -0.22491667 -6.15991604 -0.0523698 0 0 Z " fill="#040404" transform="translate(126.274658203125,334.6190490722656)"/>
<path d="M0 0 C0.8370181 -0.00623996 1.67403621 -0.01247993 2.5364185 -0.01890898 C5.3456142 -0.03488412 8.15394764 -0.02221715 10.96315002 -0.00964355 C12.97531135 -0.01506271 14.98746871 -0.0221842 16.99961853 -0.03088379 C22.46864986 -0.04914578 27.93737994 -0.04203736 33.40641665 -0.02936745 C39.12561793 -0.01925331 44.84479309 -0.02862884 50.56399536 -0.03491211 C60.17023864 -0.04219372 69.77635899 -0.0325879 79.38258362 -0.0135498 C90.49234004 0.00821366 101.60180279 0.00117335 112.71155208 -0.02085543 C122.24456626 -0.03900212 131.77749198 -0.04157111 141.31051785 -0.03110075 C147.00655466 -0.02486103 152.7024534 -0.02404328 158.39848137 -0.0372467 C163.75425219 -0.04879366 169.10964414 -0.04080034 174.46537399 -0.01766968 C176.43220325 -0.01237618 178.39906433 -0.01390728 180.36588097 -0.02272034 C183.04871445 -0.03363422 185.73033027 -0.01996271 188.41308594 0 C189.19343765 -0.00892289 189.97378937 -0.01784577 190.7777881 -0.02703905 C194.43188824 0.02578342 196.60723162 0.40912428 199.75718784 2.32093048 C201.77003479 4.50793457 201.77003479 4.50793457 202.33253479 8.00793457 C201.66887571 12.13736885 201.1077957 13.07041684 197.77003479 15.50793457 C194.88387624 15.89859203 192.38033599 16.04434278 189.49537659 16.00914001 C188.65356936 16.01467441 187.81176214 16.02020881 186.94444561 16.02591091 C184.11908274 16.03954193 181.29459951 16.02453505 178.46925354 16.00964355 C176.44561894 16.01342584 174.42198692 16.01892513 172.39836121 16.02601624 C166.8983952 16.03999987 161.39874101 16.02878057 155.89879227 16.01230502 C150.14843234 15.99847461 144.39809088 16.00491231 138.64772034 16.00843811 C128.9901984 16.01114182 119.33280063 15.99765075 109.67530823 15.9744873 C98.5030858 15.94787661 87.33107103 15.9461299 76.15882778 15.95787567 C65.4202858 15.96864746 54.68181908 15.96247107 43.94328308 15.94832039 C39.36918869 15.9425554 34.79514929 15.94264731 30.22105408 15.94738579 C24.83660872 15.95215113 19.45239132 15.94207214 14.06798935 15.92043114 C12.08945357 15.91485708 10.11089591 15.91440362 8.13235855 15.919384 C5.43621537 15.92532061 2.74077295 15.91286304 0.04469299 15.89561462 C-0.74246251 15.90162467 -1.52961802 15.90763471 -2.34062672 15.91382688 C-5.51486709 15.87677633 -7.86990343 15.69306069 -10.71588135 14.22979832 C-12.80257928 11.85673986 -12.71384167 9.61644896 -12.76121521 6.54309082 C-11.05837748 0.01971982 -5.77244741 -0.06581657 0 0 Z " fill="#030303" transform="translate(126.22996520996094,278.4920654296875)"/>
<path d="M0 0 C1.39964583 -0.00743482 1.39964583 -0.00743482 2.82756734 -0.01501983 C4.36022965 -0.00016834 4.36022965 -0.00016834 5.92385483 0.01498318 C7.55597731 0.0130302 7.55597731 0.0130302 9.22107196 0.01103777 C12.87996113 0.01043932 16.53840669 0.03148293 20.19723129 0.0524435 C22.8153479 0.05660236 25.4334668 0.05949144 28.05158615 0.06120205 C34.43329155 0.06800007 40.81483553 0.09126936 47.19647321 0.12060536 C52.38461158 0.14423314 57.57274122 0.16233546 62.76091385 0.17649555 C63.86816841 0.17953596 63.86816841 0.17953596 64.99779175 0.18263779 C66.49737875 0.18674368 67.99696576 0.19084233 69.4965528 0.19493382 C83.56570833 0.23408329 97.6347355 0.29247491 111.70379457 0.35692441 C124.56974074 0.41530503 137.43562944 0.45089793 150.30168083 0.47548706 C163.51402291 0.50092042 176.72624363 0.54103293 189.93849158 0.59730142 C197.35547846 0.62865208 204.77237802 0.65433987 212.18942642 0.66488743 C219.16626306 0.67501474 226.14274613 0.70600121 233.11944389 0.75098705 C235.68002641 0.76430028 238.24065441 0.77084662 240.80127144 0.7701273 C244.29751161 0.7702274 247.79275912 0.79480309 251.28884506 0.82553005 C252.30169705 0.81981599 253.31454903 0.81410194 254.3580935 0.80821472 C261.54004521 0.9094341 266.88734857 2.41893658 272.41891098 7.11079311 C275.13096917 10.43748206 277.09004822 12.90526063 277.36031723 17.36469936 C276.50953598 16.93350796 276.50953598 16.93350796 275.64156723 16.49360561 C273.39908883 15.383886 271.14162388 14.32956863 268.86031723 13.30219936 C268.10750473 12.9605978 267.35469223 12.61899624 266.57906723 12.26704311 C261.8592987 10.34755979 257.48420673 10.21628881 252.42733383 10.21752834 C251.21975096 10.21201331 251.21975096 10.21201331 249.98777246 10.20638686 C247.2870778 10.19536349 244.58642163 10.19150855 241.88570786 10.18769741 C239.95074466 10.18143199 238.01578267 10.17478512 236.08082199 10.16778469 C230.82269769 10.15038825 225.56458247 10.13982768 220.30643654 10.13157916 C217.02319176 10.12642851 213.73994979 10.12035296 210.456707 10.11406803 C200.18912599 10.0950239 189.92155216 10.08078837 179.65395689 10.07245606 C167.79144661 10.06267078 155.92912228 10.03631435 144.06667757 9.99595517 C134.90227741 9.96584177 125.73793073 9.95099193 116.57348204 9.94767505 C111.09709516 9.94532008 105.62090714 9.93630099 100.14457321 9.91121387 C94.99650432 9.88801016 89.84876634 9.88366877 84.7006588 9.89397526 C82.80918213 9.89447253 80.91768957 9.88809612 79.02626228 9.87441921 C76.44820721 9.8568168 73.87135494 9.86374811 71.29330063 9.87695217 C70.54116366 9.86598293 69.78902669 9.85501368 69.01409769 9.84371203 C65.5794006 9.88631959 63.7008726 10.10676355 60.92700577 12.20768356 C59.19109601 14.36961148 59.19109601 14.36961148 58.36031723 17.36469936 C52.42031723 17.36469936 46.48031723 17.36469936 40.36031723 17.36469936 C39.70031723 15.71469936 39.04031723 14.06469936 38.36031723 12.36469936 C35.21229398 10.2660172 34.40009893 10.10507934 30.79708481 10.04585171 C29.87635681 10.02598202 28.95562881 10.00611233 28.00699997 9.98564053 C27.01628998 9.97408932 26.02557999 9.96253811 25.00484848 9.95063686 C23.47968864 9.92158764 23.47968864 9.92158764 21.9237175 9.89195156 C18.67350296 9.83213195 15.42325306 9.7857606 12.17281723 9.73969936 C9.97032775 9.7015218 7.76785324 9.6624702 5.56539536 9.62251186 C0.1638354 9.52642853 -5.23781454 9.44138799 -10.63968277 9.36469936 C-8.96831882 3.09708456 -6.74857727 -0.01683427 0 0 Z " fill="#60B7FC" transform="translate(143.6396827697754,16.635300636291504)"/>
<path d="M0 0 C7.1165744 -0.10176424 14.2329598 -0.17161829 21.35009766 -0.21972656 C23.7691143 -0.23979065 26.18808276 -0.26704843 28.60693359 -0.30175781 C32.09224368 -0.35050341 35.57691016 -0.37302164 39.0625 -0.390625 C40.13677246 -0.41127014 41.21104492 -0.43191528 42.31787109 -0.45318604 C48.71524437 -0.45508009 53.78649562 0.06261508 59 4 C63.46088046 8.48463663 63.45489881 12.74754051 63.45318604 18.76046753 C63.43254089 19.88881012 63.41189575 21.01715271 63.390625 22.1796875 C63.38496521 23.3475882 63.37930542 24.51548889 63.37347412 25.71878052 C63.35113756 29.43794254 63.30094342 33.15613062 63.25 36.875 C63.22993161 39.40102772 63.21168144 41.92707059 63.1953125 44.453125 C63.15128153 50.63574728 63.08439531 56.81780404 63 63 C55.90484554 57.20095811 49.53181379 50.67698168 43.06640625 44.19921875 C41.82102303 42.95450991 40.57549146 41.70994949 39.32981873 40.4655304 C36.73363301 37.87081205 34.1392477 35.2743106 31.54614258 32.67651367 C28.21481477 29.33945331 24.87896943 26.00695043 21.54179478 22.67573833 C18.97591397 20.11345874 16.41240433 17.54881757 13.84962273 14.98343849 C12.61950099 13.75264811 11.38863168 12.52260445 10.15701485 11.29331017 C8.4454333 9.58425174 6.7370619 7.87204964 5.02954102 6.15893555 C4.51689697 5.64831573 4.00425293 5.13769592 3.47607422 4.61160278 C0 1.1142698 0 1.1142698 0 0 Z " fill="#B1A9B2" transform="translate(73,423)"/>
</svg>
