<?xml version="1.0" encoding="UTF-8"?>
<svg version="1.1" xmlns="http://www.w3.org/2000/svg" width="512" height="512">
<path d="M0 0 C56.9616217 -3.22424274 56.9616217 -3.22424274 81.40625 -3.90625 C86.9858722 -4.06272678 92.56531012 -4.22432069 98.14453125 -4.39453125 C98.84317575 -4.41563115 99.54182024 -4.43673105 100.26163578 -4.45847034 C109.9848804 -4.75859854 119.68141064 -5.24921146 129.38732207 -5.89894313 C182.25972579 -9.43196225 239.4597596 -12.32698594 282.30499268 24.09336853 C315.5983002 53.88529908 324.30560287 88.27299141 326.8712616 131.11810303 C328.91986601 168.97283418 327.42844109 206.92536974 325.76224804 244.7635498 C325.12196516 259.4626692 324.6894553 274.15769212 324.39453125 288.86767578 C324.37351337 289.91301532 324.35249549 290.95835487 324.33084071 292.03537136 C324.22638813 297.28298202 324.12530346 302.53065113 324.02588844 307.77835941 C323.20516098 350.87379214 321.80436225 393.93524278 320 437 C319.37736173 436.97842174 318.75472345 436.95684347 318.11321735 436.93461132 C302.8152166 436.41481664 287.5227885 436.0632653 272.21747303 435.88859844 C264.81420605 435.80023971 257.41967386 435.65857593 250.02075195 435.38500977 C218.26005927 432.41671051 218.26005927 432.41671051 189.65694618 440.9158535 C186.13477003 444.41421052 183.31822724 448.39258753 180.50708008 452.4675293 C174.99241104 460.26506856 169.31317753 466.42173496 159.58657923 468.33282966 C137.76958776 471.848611 114.90328108 470.48217242 92.90236874 470.00259759 C83.0060829 469.79270845 73.11103638 469.75151508 63.21284042 469.71851989 C45.56833948 469.65536347 27.92777116 469.4632559 10.28540039 469.18774414 C-6.83159294 468.92071831 -23.94750497 468.71619658 -41.06616211 468.59301758 C-42.13563876 468.58524565 -43.20511542 468.57747373 -44.30700046 468.56946629 C-52.67353665 468.50914756 -61.0400961 468.45240218 -69.40666473 468.39678395 C-110.27472183 468.12419519 -151.13291086 467.5405864 -192 467 C-192 361.4 -192 255.8 -192 147 C-128.64 147 -65.28 147 0 147 C0 98.49 0 49.98 0 0 Z " fill="#73D2E5" transform="translate(192,32)"/>
<path d="M0 0 C56.9616217 -3.22424274 56.9616217 -3.22424274 81.40625 -3.90625 C86.9858722 -4.06272678 92.56531012 -4.22432069 98.14453125 -4.39453125 C99.19249799 -4.4261811 99.19249799 -4.4261811 100.26163578 -4.45847034 C109.9848804 -4.75859854 119.68141064 -5.24921146 129.38732207 -5.89894313 C182.25972579 -9.43196225 239.4597596 -12.32698594 282.30499268 24.09336853 C315.5983002 53.88529908 324.30560287 88.27299141 326.8712616 131.11810303 C328.91986601 168.97283418 327.42844109 206.92536974 325.76224804 244.7635498 C325.12196516 259.4626692 324.6894553 274.15769212 324.39453125 288.86767578 C324.37351337 289.91301532 324.35249549 290.95835487 324.33084071 292.03537136 C324.22638813 297.28298202 324.12530346 302.53065113 324.02588844 307.77835941 C323.20504188 350.88004575 321.73598378 393.92356568 320 437 C278.42 437 236.84 437 194 437 C200.69684257 429.187017 200.69684257 429.187017 204.66864014 427.10626221 C221.33959621 417.69455765 237.2887287 404.49998576 244 386 C248.91040196 367.80945922 248.44182951 348.11483803 248.515625 329.421875 C248.52488841 327.64116403 248.52488841 327.64116403 248.53433895 325.8244791 C248.6007134 305.1178894 247.84714674 284.45127106 247.25 263.75 C246.5075 225.2225 245.765 186.695 245 147 C164.15 147 83.3 147 0 147 C0 98.49 0 49.98 0 0 Z " fill="#F9DF35" transform="translate(192,32)"/>
<path d="M0 0 C71.94 0 143.88 0 218 0 C220.01515171 57.91993829 220.01515171 57.91993829 220.44140625 82.515625 C220.53924275 88.13223638 220.64025035 93.74877702 220.74658203 99.36523438 C220.75976947 100.0687924 220.77295691 100.77235042 220.78654397 101.49722838 C220.97522819 111.34890517 221.28321293 121.19053174 221.68672392 131.03565672 C225.9911019 236.08696804 225.9911019 236.08696804 203.61519432 261.33455086 C194.07213499 271.53807321 182.77813208 279.97174336 170.71894646 286.96492958 C165.98357558 290.50924844 162.46641191 295.1450581 158.81308925 299.76633894 C142.88572457 319.6233326 142.88572457 319.6233326 130.57571411 322.02462769 C122.90663471 322.84848581 115.29370669 322.67674044 107.59979558 322.33206058 C103.76655362 322.18574119 99.93263385 322.17458029 96.09703064 322.1474762 C88.87253296 322.07669371 81.65628488 321.88903172 74.43538135 321.65643793 C66.19918114 321.397048 57.96253165 321.27234097 49.72324765 321.15744293 C32.81071 320.91865331 15.90641561 320.51561232 -1 320 C-1.02286804 279.52272434 -1.04049908 239.04544953 -1.05106533 198.56816871 C-1.0523161 193.79398095 -1.05361041 189.01979321 -1.05493164 184.24560547 C-1.05519395 183.29511459 -1.05545626 182.34462372 -1.05572652 181.36533009 C-1.06008278 165.9569467 -1.06797009 150.54856703 -1.0771528 135.14018585 C-1.08649056 119.34034304 -1.09205587 103.54050219 -1.09408849 87.74065673 C-1.09546347 77.98426083 -1.09981267 68.22787542 -1.10791647 58.47148274 C-1.11318544 51.7893237 -1.11480395 45.10717012 -1.11350138 38.42500915 C-1.11285824 34.56459621 -1.11387285 30.70420167 -1.11920547 26.84379196 C-1.1249335 22.66685536 -1.12299922 18.4899584 -1.12025452 14.3130188 C-1.12316736 13.08152292 -1.1260802 11.85002705 -1.12908131 10.58121312 C-1.12709026 9.46951123 -1.12509921 8.35780934 -1.12304783 7.21241951 C-1.12342755 6.24717043 -1.12380727 5.28192135 -1.1241985 4.2874223 C-1 2 -1 2 0 0 Z " fill="#5CB8E6" transform="translate(219,179)"/>
<path d="M0 0 C52.8 0 105.6 0 160 0 C160 48.51 160 97.02 160 147 C107.2 147 54.4 147 0 147 C0 98.49 0 49.98 0 0 Z " fill="#FDFA97" transform="translate(192,32)"/>
<path d="M0 0 C3.08864914 1.246159 4.88231779 3.18058552 7.24638367 5.52209473 C7.98118706 6.2441938 7.98118706 6.2441938 8.73083496 6.98088074 C10.3450641 8.57174137 11.94788105 10.17353437 13.54985046 11.7767334 C14.6672471 12.88703037 15.78494234 13.99702691 16.90292358 15.10673523 C19.24235836 17.43272697 21.5757722 19.76457042 23.90556335 22.10021973 C26.89618887 25.09675295 29.90468888 28.07460404 32.91837788 31.04791737 C35.23035849 33.3340936 37.53081702 35.63159527 39.8281002 37.93253136 C40.9329896 39.0357239 42.04188306 40.13492092 43.15476418 41.23005104 C44.70657643 42.75980854 46.24178079 44.30451014 47.77372742 45.85412598 C49.09132805 47.16864494 49.09132805 47.16864494 50.43554688 48.50971985 C52.18656921 50.88220215 52.18656921 50.88220215 52.2563324 52.88121033 C50.73985858 55.7177743 48.76697402 57.65954475 46.48320007 59.92614746 C45.99537552 60.4144101 45.50755096 60.90267273 45.00494385 61.4057312 C43.39411031 63.01447821 41.77291928 64.61234411 40.15141296 66.21032715 C39.03117693 67.32496676 37.91160232 68.44027149 36.79266357 69.55621338 C33.84828804 72.48914386 30.89501427 75.41295311 27.93980408 78.33496094 C24.92484178 81.31921519 21.91837199 84.31199804 18.91117859 87.30407715 C13.01125931 93.17183825 7.10191348 99.02999166 1.18656921 104.88220215 C-2.33687723 103.22358335 -4.61244956 101.31562906 -7.36030579 98.53063965 C-8.20464172 97.6798584 -9.04897766 96.82907715 -9.91889954 95.95251465 C-11.2279425 94.61833496 -11.2279425 94.61833496 -12.56343079 93.25720215 C-13.45159485 92.36001465 -14.33975891 91.46282715 -15.25483704 90.53845215 C-17.44560048 88.32413211 -19.63155842 86.1052778 -21.81343079 83.88220215 C-17.37729012 78.6169724 -12.7235647 73.70767858 -7.81343079 68.88220215 C-11.2714681 68.76424233 -14.72897635 68.69437463 -18.18843079 68.63220215 C-19.1539386 68.59868652 -20.11944641 68.5651709 -21.11421204 68.53063965 C-29.2919563 68.42087127 -36.49930787 70.13682854 -43.12593079 75.13220215 C-50.37315144 82.54796282 -53.07567714 90.33196951 -53.22749329 100.56188965 C-53.24685944 101.37465363 -53.26622559 102.1874176 -53.28617859 103.02481079 C-53.34560961 105.60217026 -53.3922126 108.17957529 -53.43843079 110.75720215 C-53.47664422 112.51242917 -53.51569788 114.26763812 -53.55561829 116.02282715 C-53.65285141 120.30918751 -53.73270753 124.59537234 -53.81343079 128.88220215 C-64.04343079 128.88220215 -74.27343079 128.88220215 -84.81343079 128.88220215 C-84.88279721 123.40482412 -84.94237839 117.92900755 -84.97822571 112.45153809 C-84.99318983 110.59341225 -85.01356851 108.73532098 -85.03974915 106.87731934 C-85.31335891 86.94136075 -82.29066409 69.86333133 -68.07099915 54.94445801 C-54.40847083 41.28192969 -38.5616644 36.77821497 -19.75093079 36.25720215 C-18.59915344 36.21853027 -17.4473761 36.1798584 -16.26069641 36.14001465 C-13.44518089 36.04655355 -10.62932875 35.96332734 -7.81343079 35.88220215 C-12.43343079 31.26220215 -17.05343079 26.64220215 -21.81343079 21.88220215 C-19.10483176 16.46500409 -15.17786585 12.83899239 -10.93843079 8.56970215 C-10.12245422 7.72085449 -9.30647766 6.87200684 -8.46577454 5.99743652 C-7.28048157 4.80150879 -7.28048157 4.80150879 -6.07124329 3.5814209 C-5.35081848 2.8475415 -4.63039368 2.11366211 -3.88813782 1.35754395 C-1.81343079 -0.11779785 -1.81343079 -0.11779785 0 0 Z " fill="#5C42B6" transform="translate(109.81343078613281,13.1177978515625)"/>
<path d="M0 0 C0.33 0 0.66 0 1 0 C2.15026468 29.59046278 3.03027159 59.18016764 3.55326647 88.78829613 C3.61577291 92.31397865 3.68049179 95.8396173 3.74658203 99.36523438 C3.75969755 100.06687578 3.77281307 100.76851719 3.78632604 101.49142046 C3.9751022 111.34503114 4.2831337 121.1885985 4.68672392 131.03565672 C8.9911019 236.08696804 8.9911019 236.08696804 -13.38480568 261.33455086 C-22.25832933 270.82219981 -32.63295297 278.65325132 -43.66506958 285.44790649 C-48.77968165 288.64318662 -52.29287153 292.29920954 -56 297 C-59.30663985 300.57833478 -62.79965888 303.98550374 -66.24487305 307.43017578 C-67.83216334 309.0196909 -69.41123553 310.61709657 -70.99023438 312.21484375 C-71.99951207 313.22704926 -73.00926004 314.23878611 -74.01953125 315.25 C-75.38235229 316.61898437 -75.38235229 316.61898437 -76.77270508 318.015625 C-79 320 -79 320 -81 320 C-81 292.94 -81 265.88 -81 238 C-54.27 238 -27.54 238 0 238 C0 159.46 0 80.92 0 0 Z " fill="#73D1E2" transform="translate(436,179)"/>
<path d="M0 0 C3.34433279 1.67216639 4.92010528 2.66946564 7.44219971 5.18823242 C8.10400238 5.84439545 8.76580505 6.50055847 9.44766235 7.17660522 C10.16263885 7.89563019 10.87761536 8.61465515 11.61425781 9.35546875 C12.37562042 10.11332672 13.13698303 10.87118469 13.92141724 11.65200806 C16.43704251 14.15882913 18.94528008 16.67289714 21.453125 19.1875 C23.19589446 20.92892271 24.93896075 22.67004841 26.68231201 24.41088867 C30.33378964 28.05941704 33.98162296 31.71154079 37.62695312 35.36621094 C42.31023782 40.06090685 47.00246506 44.74654596 51.69743729 49.42955017 C55.29712913 53.02203255 58.89206542 56.61924314 62.48555756 60.21792603 C64.21453587 61.94824249 65.94501203 63.67706354 67.67697906 65.40438843 C70.09061945 67.81297682 72.49780086 70.22783603 74.90332031 72.64453125 C75.62639374 73.36355621 76.34946716 74.08258118 77.0944519 74.82339478 C77.74497528 75.4795578 78.39549866 76.13572083 79.06573486 76.81176758 C79.63573841 77.38252518 80.20574196 77.95328278 80.79301834 78.54133606 C82 80 82 80 82 82 C54.94 82 27.88 82 0 82 C0 54.94 0 27.88 0 0 Z " fill="#FDF995" transform="translate(430,32)"/>
</svg>
