<?xml version="1.0" encoding="UTF-8"?>
<svg version="1.1" xmlns="http://www.w3.org/2000/svg" width="512" height="512">
<path d="M0 0 C1.16475263 -0.00445784 2.32950525 -0.00891569 3.52955341 -0.01350862 C4.82037421 -0.01332426 6.11119501 -0.01313989 7.44113159 -0.01294994 C8.81753996 -0.01624773 10.19394735 -0.01997312 11.57035351 -0.02409142 C15.36605736 -0.03412972 19.16174539 -0.03783117 22.95746064 -0.04048073 C27.04627803 -0.04437852 31.13508284 -0.0539574 35.22389221 -0.0626936 C45.10676569 -0.08247573 54.98964022 -0.09252768 64.87252855 -0.10142139 C69.52547301 -0.10580254 74.17841631 -0.1111699 78.83135986 -0.11641026 C94.29820011 -0.13342637 109.76503964 -0.14791978 125.23188782 -0.155159 C129.24759929 -0.15706893 133.26331076 -0.15898926 137.27902222 -0.16094494 C138.27712406 -0.16142868 139.2752259 -0.16191242 140.30357325 -0.16241082 C156.46627532 -0.17070817 172.62890331 -0.19603838 188.79157305 -0.22852562 C205.38252821 -0.2616019 221.97344574 -0.27960838 238.56443405 -0.28280324 C247.88074076 -0.2849681 257.19693953 -0.29371303 266.51321411 -0.31926441 C274.44914901 -0.3409794 282.38494976 -0.349018 290.32091099 -0.33929763 C294.36875125 -0.33475486 298.41631479 -0.3366375 302.46411705 -0.35605907 C306.17419936 -0.37370606 309.88380341 -0.37268094 313.59389091 -0.35716178 C315.56279422 -0.35366848 317.53170264 -0.36980079 319.50053596 -0.38676625 C328.20939043 -0.32373587 334.86361164 1.25847153 342.30001831 5.82172108 C349.0788975 12.78890247 352.6294623 19.77162482 352.67501831 29.50922108 C352.64308075 31.38441203 352.60462029 33.25955318 352.55001831 35.13422108 C353.30025269 35.08781483 354.05048706 35.04140858 354.82345581 34.99359608 C363.58006002 34.68479895 369.84832198 36.24908924 377.30001831 40.82172108 C384.0788975 47.78890247 387.6294623 54.77162482 387.67501831 64.50922108 C387.64308075 66.38441203 387.60462029 68.25955318 387.55001831 70.13422108 C388.84939331 70.34047108 390.14876831 70.54672108 391.48751831 70.75922108 C399.07370517 72.48877626 404.58624257 76.28709622 408.98751831 82.69672108 C412.0123284 87.5312466 413.79844307 91.71734295 413.80728722 97.47200108 C413.81373611 98.53535828 413.820185 99.59871549 413.82682931 100.69429564 C413.82373211 101.85644064 413.82063491 103.01858564 413.81744385 104.21594715 C413.82197496 105.4552691 413.82650607 106.69459105 413.83117449 107.97146821 C413.84164803 111.4089437 413.84314378 114.84621003 413.84078574 118.28368664 C413.84037763 121.99206892 413.85141626 125.70041999 413.86090088 129.40878773 C413.87751359 136.67361585 413.88301056 143.93841152 413.88412564 151.20325705 C413.88507607 157.10933962 413.88918614 163.01541149 413.89552689 168.92149067 C413.91314076 185.66897303 413.92236564 202.41642976 413.92086594 219.16392145 C413.92074607 220.51820414 413.92074607 220.51820414 413.92062378 221.89984608 C413.92054202 222.80380467 413.92046026 223.70776326 413.92037602 224.63911453 C413.91956328 239.28590973 413.93869736 253.93260204 413.96690051 268.57936749 C413.99563557 283.62117164 414.00944044 298.66292563 414.00771296 313.70475793 C414.00704923 322.14852158 414.01253403 330.59217741 414.03406906 339.03591633 C414.05228914 346.22595581 414.05662152 353.41583861 414.04305021 360.6058912 C414.03652441 364.27288314 414.03638893 367.93957455 414.05375671 371.60653782 C414.0724104 375.58601746 414.05992248 379.56505936 414.04449463 383.54456043 C414.05478176 384.69778254 414.06506888 385.85100465 414.07566774 387.03917289 C413.99583451 396.35943694 411.68163013 403.61140153 405.32736206 410.56390858 C399.59093209 415.63213901 393.25531196 418.24335152 385.65414429 418.2813921 C384.66997025 418.2885474 383.6857962 418.29570271 382.67179871 418.30307484 C381.59842758 418.30576374 380.52505646 418.30845264 379.41915894 418.31122303 C378.28383224 418.31779423 377.14850555 418.32436543 375.97877502 418.33113575 C372.22127213 418.35085044 368.46380908 418.36252453 364.70626831 418.37250233 C362.78304497 418.37861562 362.78304497 418.37861562 360.82096863 418.38485241 C354.73944425 418.40355226 348.65793986 418.41812342 342.57639265 418.42646438 C335.55866803 418.43624914 328.54125777 418.46260864 321.52364397 418.50296527 C315.44210399 418.53673869 309.36069656 418.5486069 303.27906799 418.55266857 C300.69222373 418.55755141 298.10538323 418.56921321 295.51860046 418.58770657 C291.90576795 418.61193926 288.29376582 418.61116217 284.68087769 418.60419178 C283.60750656 418.61700184 282.53413544 418.6298119 281.42823792 418.64301014 C274.22022762 418.59215419 274.22022762 418.59215419 270.8543396 416.29234791 C269.55001831 414.13422108 269.55001831 414.13422108 269.55001831 411.13422108 C263.94001831 411.13422108 258.33001831 411.13422108 252.55001831 411.13422108 C251.89001831 412.78422108 251.23001831 414.43422108 250.55001831 416.13422108 C247.40748312 418.22924454 246.69513063 418.38510362 243.11705685 418.39148998 C241.74837315 418.40116332 241.74837315 418.40116332 240.35203928 418.41103208 C239.34817055 418.40793488 238.34430181 418.40483767 237.31001282 418.40164661 C236.24461448 418.40617773 235.17921615 418.41070884 234.08153301 418.41537726 C230.49342931 418.42808857 226.90547609 418.42639653 223.31735229 418.42474842 C220.751885 418.43072963 218.18641952 418.43753423 215.62095642 418.44510365 C209.36350309 418.46097429 203.10610533 418.46721409 196.84863376 418.4683284 C191.76011239 418.46927846 186.67160345 418.47338669 181.58308601 418.47972965 C167.15302833 418.49735055 152.72300042 418.50656774 138.29293191 418.5050687 C137.51466251 418.50498879 136.73639311 418.50490888 135.93453979 418.50482655 C134.7657076 418.5047039 134.7657076 418.5047039 133.57326264 418.50457878 C120.95749797 418.50376667 108.34185293 418.52288324 95.72612285 418.55110328 C82.76924888 418.57985723 69.81243318 418.59364205 56.85552651 418.59191573 C49.58261796 418.59125247 42.30983465 418.59671595 35.03695488 418.61827183 C28.1923493 418.63842812 21.34801187 418.63778411 14.50339317 418.62323856 C11.99361027 418.62114805 9.48381088 418.62586571 6.97405624 418.63795948 C3.542031 418.65342341 0.11091533 418.64409486 -3.3210907 418.6286974 C-4.30934438 418.63898452 -5.29759806 418.64927165 -6.31579882 418.65987051 C-14.15958923 418.58235551 -20.51590244 416.54831516 -27.19998169 412.44672108 C-33.97886088 405.47953969 -37.52942568 398.49681733 -37.57498169 388.75922108 C-37.54304413 386.88403013 -37.50458367 385.00888898 -37.44998169 383.13422108 C-38.74935669 382.92797108 -40.04873169 382.72172108 -41.38748169 382.50922108 C-48.97366855 380.7796659 -54.48620595 376.98134594 -58.88748169 370.57172108 C-62.32705397 365.07428505 -63.70711441 360.86229057 -63.57498169 354.32172108 C-63.55693481 353.16027576 -63.53888794 351.99883045 -63.52029419 350.80218983 C-63.49709106 349.92176014 -63.47388794 349.04133045 -63.44998169 348.13422108 C-64.20021606 348.18062733 -64.95045044 348.22703358 -65.72341919 348.27484608 C-74.77286508 348.59397011 -81.84224491 347.07604828 -89.19998169 341.63422108 C-99.55478408 331.39500387 -99.75941421 318.3861111 -100.57522583 304.73553944 C-100.72085291 302.57455762 -100.86732225 300.41363243 -101.01456261 298.25275993 C-102.81016297 270.90280824 -103.80246126 243.51104057 -104.46249115 216.11282128 C-104.51239259 214.07535909 -104.56492633 212.03798001 -104.61815548 210.00060225 C-107.79363838 87.28372064 -107.79363838 87.28372064 -70.67428809 47.88995486 C-65.15477984 42.20914868 -59.20946479 37.0725741 -53.07498169 32.07172108 C-52.53354853 31.62785478 -51.99211537 31.18398849 -51.43427515 30.7266717 C-13.83192379 0.02445882 -13.83192379 0.02445882 0 0 Z " fill="#EEECEE" transform="translate(98.44998168945313,46.86577892303467)"/>
<path d="M0 0 C1.16475263 -0.00445784 2.32950525 -0.00891569 3.52955341 -0.01350862 C4.82037421 -0.01332426 6.11119501 -0.01313989 7.44113159 -0.01294994 C8.81753996 -0.01624773 10.19394735 -0.01997312 11.57035351 -0.02409142 C15.36605736 -0.03412972 19.16174539 -0.03783117 22.95746064 -0.04048073 C27.04627803 -0.04437852 31.13508284 -0.0539574 35.22389221 -0.0626936 C45.10676569 -0.08247573 54.98964022 -0.09252768 64.87252855 -0.10142139 C69.52547301 -0.10580254 74.17841631 -0.1111699 78.83135986 -0.11641026 C94.29820011 -0.13342637 109.76503964 -0.14791978 125.23188782 -0.155159 C129.24759929 -0.15706893 133.26331076 -0.15898926 137.27902222 -0.16094494 C138.27712406 -0.16142868 139.2752259 -0.16191242 140.30357325 -0.16241082 C156.46627532 -0.17070817 172.62890331 -0.19603838 188.79157305 -0.22852562 C205.38252821 -0.2616019 221.97344574 -0.27960838 238.56443405 -0.28280324 C247.88074076 -0.2849681 257.19693953 -0.29371303 266.51321411 -0.31926441 C274.44914901 -0.3409794 282.38494976 -0.349018 290.32091099 -0.33929763 C294.36875125 -0.33475486 298.41631479 -0.3366375 302.46411705 -0.35605907 C306.17419936 -0.37370606 309.88380341 -0.37268094 313.59389091 -0.35716178 C315.56279422 -0.35366848 317.53170264 -0.36980079 319.50053596 -0.38676625 C328.20939043 -0.32373587 334.86361164 1.25847153 342.30001831 5.82172108 C349.0788975 12.78890247 352.6294623 19.77162482 352.67501831 29.50922108 C352.64308075 31.38441203 352.60462029 33.25955318 352.55001831 35.13422108 C353.30025269 35.08781483 354.05048706 35.04140858 354.82345581 34.99359608 C363.58006002 34.68479895 369.84832198 36.24908924 377.30001831 40.82172108 C384.0788975 47.78890247 387.6294623 54.77162482 387.67501831 64.50922108 C387.64308075 66.38441203 387.60462029 68.25955318 387.55001831 70.13422108 C388.84939331 70.34047108 390.14876831 70.54672108 391.48751831 70.75922108 C399.07370517 72.48877626 404.58624257 76.28709622 408.98751831 82.69672108 C412.0123284 87.5312466 413.79844307 91.71734295 413.80728722 97.47200108 C413.81373611 98.53535828 413.820185 99.59871549 413.82682931 100.69429564 C413.82373211 101.85644064 413.82063491 103.01858564 413.81744385 104.21594715 C413.82197496 105.4552691 413.82650607 106.69459105 413.83117449 107.97146821 C413.84164803 111.4089437 413.84314378 114.84621003 413.84078574 118.28368664 C413.84037763 121.99206892 413.85141626 125.70041999 413.86090088 129.40878773 C413.87751359 136.67361585 413.88301056 143.93841152 413.88412564 151.20325705 C413.88507607 157.10933962 413.88918614 163.01541149 413.89552689 168.92149067 C413.91314076 185.66897303 413.92236564 202.41642976 413.92086594 219.16392145 C413.92074607 220.51820414 413.92074607 220.51820414 413.92062378 221.89984608 C413.92054202 222.80380467 413.92046026 223.70776326 413.92037602 224.63911453 C413.91956328 239.28590973 413.93869736 253.93260204 413.96690051 268.57936749 C413.99563557 283.62117164 414.00944044 298.66292563 414.00771296 313.70475793 C414.00704923 322.14852158 414.01253403 330.59217741 414.03406906 339.03591633 C414.05228914 346.22595581 414.05662152 353.41583861 414.04305021 360.6058912 C414.03652441 364.27288314 414.03638893 367.93957455 414.05375671 371.60653782 C414.0724104 375.58601746 414.05992248 379.56505936 414.04449463 383.54456043 C414.05478176 384.69778254 414.06506888 385.85100465 414.07566774 387.03917289 C413.99583451 396.35943694 411.68163013 403.61140153 405.32736206 410.56390858 C399.59093209 415.63213901 393.25531196 418.24335152 385.65414429 418.2813921 C384.66997025 418.2885474 383.6857962 418.29570271 382.67179871 418.30307484 C381.59842758 418.30576374 380.52505646 418.30845264 379.41915894 418.31122303 C378.28383224 418.31779423 377.14850555 418.32436543 375.97877502 418.33113575 C372.22127213 418.35085044 368.46380908 418.36252453 364.70626831 418.37250233 C362.78304497 418.37861562 362.78304497 418.37861562 360.82096863 418.38485241 C354.73944425 418.40355226 348.65793986 418.41812342 342.57639265 418.42646438 C335.55866803 418.43624914 328.54125777 418.46260864 321.52364397 418.50296527 C315.44210399 418.53673869 309.36069656 418.5486069 303.27906799 418.55266857 C300.69222373 418.55755141 298.10538323 418.56921321 295.51860046 418.58770657 C291.90576795 418.61193926 288.29376582 418.61116217 284.68087769 418.60419178 C283.60750656 418.61700184 282.53413544 418.6298119 281.42823792 418.64301014 C274.22392979 418.59218031 274.22392979 418.59218031 270.8855896 416.32359791 C268.90751945 413.08098482 269.01902927 410.85114438 269.55001831 407.13422108 C270.9125061 404.94562244 270.9125061 404.94562244 273.55001831 403.13422108 C277.11291753 402.53774248 280.64538055 402.61218798 284.25021362 402.6517992 C285.34010086 402.6478867 286.4299881 402.64397419 287.55290222 402.63994312 C289.9204475 402.63396329 292.28802948 402.63714677 294.65555573 402.64836597 C298.40528031 402.66559577 302.15423167 402.65813588 305.90396118 402.64410877 C314.54506834 402.61657307 323.18600775 402.62578233 331.82712555 402.63680744 C340.36825147 402.64726981 348.90908901 402.64204496 357.45018768 402.61015797 C361.13954174 402.60306926 364.82830145 402.61973875 368.51760864 402.63727283 C370.78915729 402.63156336 373.0607035 402.62474528 375.33224487 402.61664295 C376.35383194 402.6279575 377.37541901 402.63927204 378.42796326 402.65092945 C384.31864834 402.60082144 389.94262166 402.16976702 394.55001831 398.13422108 C398.4851965 392.56195097 397.96957474 386.71702233 397.93096924 380.17107105 C397.93564921 378.95665728 397.94032918 377.74224351 397.94515097 376.49102932 C397.95503837 373.12779305 397.95149128 369.7650602 397.94219232 366.40185463 C397.93540187 362.77195617 397.94588298 359.14210154 397.95413208 355.5122118 C397.96747126 348.40458172 397.96459098 341.29704669 397.95589416 334.18941288 C397.94911928 328.41346539 397.94820004 322.63754453 397.95146561 316.8615942 C397.95192531 316.03956847 397.952385 315.21754273 397.95285863 314.37060713 C397.95381781 312.70069598 397.95479045 311.03078484 397.95577641 309.36087371 C397.96433071 293.70284725 397.95449527 278.04487349 397.93837531 262.38685567 C397.92496959 248.94918351 397.92730223 235.5115891 397.94113159 222.07391834 C397.9571824 206.47040895 397.96350936 190.86694572 397.9542948 175.26342922 C397.95333915 173.59996355 397.95239604 171.93649787 397.95146561 170.27303219 C397.95077137 169.04533129 397.95077137 169.04533129 397.9500631 167.79282836 C397.9474719 162.02276393 397.95184696 156.25272877 397.95890427 150.48266888 C397.96731381 143.45248217 397.96505056 136.42239597 397.94906203 129.39222079 C397.9411723 125.80475635 397.9380996 122.21745954 397.94800949 118.6299963 C397.95858353 114.74336501 397.94596633 110.85700883 397.93096924 106.97038746 C397.9376614 105.83343274 397.94435357 104.69647802 397.95124853 103.52507013 C397.94342528 102.4842466 397.93560204 101.44342306 397.92754173 100.37105942 C397.92705468 99.47399495 397.92656762 98.57693048 397.9260658 97.65268224 C397.36112955 93.86919734 395.79774232 91.06667435 392.72579956 88.77093983 C392.11091675 88.45769764 391.49603394 88.14445545 390.86251831 87.82172108 C389.76939331 87.26484608 388.67626831 86.70797108 387.55001831 86.13422108 C387.56112137 86.69940952 387.57222443 87.26459797 387.58366394 87.84691334 C387.69437844 93.73540901 387.76973515 99.62360855 387.82467651 105.51288319 C387.8498034 107.70994548 387.88391077 109.90692432 387.92721558 112.1037035 C387.98794593 115.26382512 388.01624664 118.42284065 388.03829956 121.58343983 C388.06410599 122.56382725 388.08991241 123.54421467 388.11650085 124.5543108 C388.11842206 129.23746331 388.08881039 131.41457571 385.21090698 135.25848866 C382.55001831 137.13422108 382.55001831 137.13422108 379.48751831 137.69672108 C375.81299374 136.99308871 374.81796624 136.08235099 372.55001831 133.13422108 C372.05795288 129.96017933 372.05795288 129.96017933 372.06759644 126.16595936 C372.06368393 125.47275593 372.05977142 124.7795525 372.05574036 124.0653429 C372.04977348 122.56376649 372.05292085 121.06213216 372.06416321 119.56058598 C372.08144159 117.18066661 372.07390915 114.8019603 372.05990601 112.42203236 C372.03026947 106.5111292 372.04343139 100.60045823 372.05508423 94.68951893 C372.06329946 89.69442246 372.05529898 84.69985617 372.0259552 79.70483494 C372.01887824 77.36586426 372.03551778 75.02783545 372.05307007 72.68893909 C372.04735965 71.24637826 372.04054112 69.80382125 372.03244019 68.36127186 C372.03562256 67.10758808 372.03880493 65.8539043 372.04208374 64.56223011 C371.35161545 59.75203338 369.33092765 56.7636529 365.77065277 53.50620174 C363.02326926 51.80877827 361.0070331 51.63761481 357.80001831 51.44672108 C356.81517456 51.38097889 355.83033081 51.3152367 354.81564331 51.24750233 C353.69415894 51.19142811 353.69415894 51.19142811 352.55001831 51.13422108 C352.55172705 51.98923652 352.55172705 51.98923652 352.55347031 52.861525 C352.62062668 86.65634712 352.67208917 120.45115404 352.7032143 154.24602836 C352.70696635 158.30519492 352.71084932 162.36436135 352.71481323 166.42352772 C352.71560016 167.23162353 352.7163871 168.03971934 352.71719787 168.8723029 C352.73024639 181.95126013 352.75389718 195.03017774 352.7814767 208.10911148 C352.80954632 221.53256977 352.82619786 234.95600734 352.83228379 248.37949377 C352.83639701 256.66032379 352.84938119 264.94104181 352.87376771 273.22183735 C352.88964412 278.90281134 352.89441436 284.58372755 352.89052244 290.2647221 C352.88860384 293.54078049 352.89316156 296.81660258 352.90763474 300.09263515 C352.92257888 303.64981971 352.9189644 307.20652661 352.91078186 310.76372242 C352.91952038 311.79195383 352.92825891 312.82018525 352.93726224 313.87957519 C352.87740159 323.51957689 350.75008766 331.95642184 343.72579956 338.95062733 C336.81892021 345.25233248 330.60502097 348.24738308 321.20106506 348.27123547 C320.13524106 348.27631001 319.06941706 348.28138455 317.97129536 348.28661287 C316.80642188 348.28711063 315.6415484 348.28760838 314.44137573 348.28812122 C313.19923152 348.29250348 311.95708731 348.29688573 310.67730236 348.30140078 C307.23216239 348.31244857 303.78706769 348.31900788 300.34191656 348.32358193 C296.62543671 348.32954861 292.90897349 348.34115531 289.19250488 348.35187244 C280.22156477 348.37636481 271.25061917 348.3910152 262.27965593 348.40393251 C259.74640269 348.40764555 257.21315 348.41161866 254.67989731 348.41568518 C238.94939977 348.4409134 223.21890135 348.46296669 207.48838806 348.47541332 C203.84714759 348.47834299 200.20590715 348.48130467 196.56466675 348.48431873 C195.65965892 348.48506478 194.75465109 348.48581083 193.82221878 348.48657949 C179.14684031 348.49924551 164.47158265 348.53248812 149.79626071 348.57412057 C134.73188215 348.61650702 119.66756553 348.64010418 104.60312748 348.64533389 C96.14380334 348.6487508 87.68466833 348.66053968 79.22540283 348.69343662 C72.02499016 348.72139256 64.82480542 348.73245595 57.62434268 348.72124116 C53.94967278 348.71604381 50.2754806 348.71901029 46.60087967 348.7437067 C42.61994428 348.77023936 38.63966518 348.75817601 34.65866089 348.74222279 C33.49378741 348.75610487 32.32891394 348.76998696 31.12874126 348.78428972 C23.33638129 348.70699706 23.33638129 348.70699706 19.3283844 345.78762722 C17.14778891 342.53407583 16.81471874 340.97411884 17.55001831 337.13422108 C19.56704117 334.59518722 20.76594185 333.29536925 23.98160249 332.63446707 C24.89673118 332.6345744 25.81185987 332.63468174 26.75471973 332.63479233 C27.8138359 332.62519484 28.87295206 332.61559734 29.96416265 332.60570902 C31.12669378 332.61551579 32.28922491 332.62532257 33.48698425 332.63542652 C34.72277936 332.63004197 35.95857446 332.62465741 37.2318179 332.61910969 C40.66425579 332.6081161 44.09582297 332.61503932 47.52819335 332.62939274 C51.22906583 332.64049439 54.92987001 332.62851826 58.6307373 332.61920643 C65.04498278 332.60610567 71.45909798 332.60728727 77.87334633 332.61780071 C87.15491129 332.63273086 96.43632321 332.62283251 105.71787944 332.60628153 C120.78619741 332.57980892 135.85448109 332.56896198 150.92282104 332.57001209 C151.82487914 332.57007042 152.72693724 332.57012874 153.65633043 332.57018883 C157.31120654 332.57045467 160.96608264 332.57077195 164.62095873 332.57115209 C174.67600705 332.5721179 184.73105433 332.57079122 194.78610229 332.56805897 C195.68615324 332.56781908 196.58620418 332.56757918 197.5135294 332.56733202 C212.5214014 332.56292526 227.52924155 332.54669039 242.53709477 332.52283818 C251.79474732 332.50876502 261.05227887 332.50588981 270.30993559 332.51746107 C276.65431539 332.52478457 282.99863425 332.52172315 289.3430082 332.51050263 C293.00362037 332.50442993 296.66406204 332.50333971 300.32466316 332.51537991 C304.29388958 332.52835666 308.26286843 332.51826971 312.23210144 332.50603199 C313.38794041 332.51360804 314.54377937 332.5211841 315.73464376 332.52898973 C321.77824365 332.48939683 326.25294663 332.1464387 331.55001831 329.13422108 C335.26377953 325.12726819 336.67346524 322.67452025 336.68423939 317.28214359 C336.69092615 315.7350931 336.69092615 315.7350931 336.69774801 314.15678906 C336.69756364 313.01498677 336.69737928 311.87318448 336.69718933 310.69678211 C336.70270436 308.88747168 336.70270436 308.88747168 336.70833081 307.04160953 C336.71746984 303.68283237 336.72207 300.32410412 336.72472012 296.96531916 C336.72861874 293.34692942 336.73819739 289.7285539 336.74693298 286.11017323 C336.76671012 277.36637512 336.77676527 268.62257582 336.78566077 259.87876093 C336.79004171 255.76324775 336.79540903 251.64773586 336.80064964 247.5322237 C336.81766332 233.85482138 336.83215803 220.17741987 336.83939838 206.50000858 C336.84130834 202.94936847 336.84322867 199.39872836 336.84518433 195.84808826 C336.84566807 194.96557116 336.84615181 194.08305405 336.84665021 193.173794 C336.8549525 178.87397798 336.88029215 164.57424557 336.912765 150.27446607 C336.94581752 135.60003105 336.96384551 120.92563855 336.96704262 106.25116611 C336.96920942 98.00921271 336.97798278 89.76738122 337.0035038 81.52546406 C337.02518617 74.50691702 337.03327343 67.48852148 337.02353702 60.46994475 C337.01898507 56.88839782 337.02092993 53.30716362 337.04029846 49.72565937 C337.0611117 45.84350715 337.05096799 41.96178824 337.0377655 38.07959461 C337.04873475 36.9467152 337.05970399 35.8138358 337.07100564 34.64662671 C337.021774 28.66945976 336.82625662 24.70027924 332.55001831 20.13422108 C327.03342667 14.84497794 320.84308935 15.56986198 313.64208984 15.61523914 C312.32614299 15.60773789 311.01019613 15.60023664 309.6543721 15.59250808 C306.00790346 15.5722553 302.36182403 15.57679959 298.71532488 15.5854156 C294.78078865 15.59036008 290.84635023 15.57227601 286.91184998 15.55699635 C280.09712612 15.53367961 273.28250868 15.524936 266.46774673 15.52610493 C256.61478495 15.5277739 246.76196509 15.50744216 236.90904115 15.48174962 C220.92316285 15.44066183 204.93731006 15.41735399 188.9513855 15.40521717 C173.42304023 15.3933897 157.89474301 15.37319494 142.36642456 15.34174061 C141.40917532 15.33980451 140.45192608 15.3378684 139.46566929 15.33587363 C134.66340593 15.32610909 129.86114294 15.31617997 125.05888009 15.30616903 C85.22261567 15.22333807 45.38635168 15.16935791 5.55001831 15.13422108 C5.55890076 15.92633991 5.5677832 16.71845875 5.57693481 17.53458118 C5.65742106 25.03666542 5.71815418 32.53853731 5.757267 40.04094219 C5.77805207 43.89709387 5.80620074 47.75288577 5.85177612 51.60883045 C5.89556192 55.33712848 5.91922352 59.06508269 5.92952728 62.7936182 C5.93686051 64.20886229 5.9511791 65.62408972 5.97293854 67.03918552 C6.12750014 77.51728944 5.18206273 86.76676662 -1.94998169 94.94672108 C-8.59503235 101.6633878 -16.41067054 104.35953068 -25.77908325 104.70184803 C-28.46991605 104.7010666 -31.15121551 104.67459512 -33.84060669 104.62250233 C-35.28075926 104.61315024 -36.72092798 104.60604549 -38.16110229 104.60106373 C-41.90969552 104.58218144 -45.65728444 104.53325045 -49.40548706 104.47754383 C-53.2470034 104.42593939 -57.0886857 104.40346281 -60.93045044 104.3783617 C-68.43741345 104.32510692 -75.94355564 104.24003122 -83.44998169 104.13422108 C-83.38946785 132.30667743 -83.31198248 160.4790428 -83.21426678 188.6513958 C-83.16929229 201.73216986 -83.12988138 214.8129166 -83.10354614 227.89374256 C-83.08057952 239.29436343 -83.04719634 250.69489794 -83.00128013 262.09545034 C-82.97733003 268.13251176 -82.95861291 274.16948756 -82.95236778 280.20659542 C-82.94632511 285.88894838 -82.92635448 291.57108219 -82.89570618 297.25335407 C-82.88691291 299.33866003 -82.88320603 301.42399461 -82.88497353 303.50931835 C-82.88662561 306.35789242 -82.8699322 309.20579794 -82.84870911 312.05428028 C-82.85355668 312.87822617 -82.85840426 313.70217206 -82.86339873 314.55108601 C-82.79887511 319.80379794 -81.93526901 323.47747852 -79.44998169 328.13422108 C-73.58781377 333.31228551 -66.69437814 332.69317004 -59.23880959 332.65064144 C-56.9978009 332.63793332 -54.75800968 332.64936843 -52.51704407 332.66667652 C-48.5713777 332.69328384 -44.62601371 332.69897537 -40.68026733 332.69757557 C-34.35510469 332.69534013 -28.03031403 332.70946932 -21.70529747 332.75316143 C-19.50042923 332.76298952 -17.29614931 332.75429159 -15.09129333 332.74446583 C-13.73925389 332.75060957 -12.38721765 332.75752114 -11.03518677 332.76532459 C-9.26816154 332.76388195 -9.26816154 332.76388195 -7.46543884 332.76241016 C-4.13996151 333.17244708 -2.73788133 333.70617004 -0.44998169 336.13422108 C0.33157171 341.60509486 0.33157171 341.60509486 -0.44998169 344.13422108 C-2.60069263 346.48857712 -4.36087817 347.95408629 -7.56364441 348.48381519 C-10.16622515 348.59708593 -12.7401062 348.58362432 -15.34451294 348.52484608 C-16.29186813 348.51918629 -17.23922333 348.5135265 -18.21528625 348.5076952 C-21.23153904 348.48536192 -24.24658991 348.43517088 -27.26248169 348.38422108 C-29.31129262 348.36415215 -31.36012223 348.34590207 -33.40896606 348.32953358 C-38.42309878 348.28550702 -43.43633668 348.21650017 -48.44998169 348.13422108 C-48.14695043 349.90578844 -47.83864948 351.67645498 -47.52810669 353.44672108 C-47.35698364 354.43285389 -47.1858606 355.4189867 -47.009552 356.43500233 C-46.3515149 359.60919877 -45.59555067 361.68214224 -43.44998169 364.13422108 C-38.97751907 366.81157452 -35.68025834 367.5101168 -30.49712372 367.51453781 C-29.47894384 367.52152769 -29.47894384 367.52152769 -28.44019467 367.52865878 C-26.16701413 367.54060409 -23.89443181 367.53121554 -21.62124634 367.52190113 C-19.97454512 367.52607425 -18.32784678 367.53155165 -16.68115377 367.53822094 C-12.15700837 367.55269694 -7.6330448 367.54842412 -3.10888934 367.54105413 C1.77052864 367.53633014 6.64990684 367.54882543 11.52931213 367.55907154 C21.08772857 367.57627944 30.64607933 367.5770955 40.20450723 367.57185864 C47.97176873 367.56781974 55.73901079 367.56925715 63.50627136 367.5746069 C64.61109522 367.57535532 65.71591908 367.57610374 66.85422245 367.57687484 C69.09854186 367.57840629 71.34286127 367.57994464 73.58718067 367.58148981 C94.63984331 367.59522182 115.6924688 367.58977202 136.7451306 367.5783046 C156.01421479 367.5683694 175.283203 367.58131661 194.55227238 367.60523879 C214.32997834 367.6296078 234.10763956 367.6392432 253.88536024 367.63258606 C264.99222066 367.62908922 276.09900723 367.63135667 287.20585632 367.64883709 C296.65989233 367.6635315 306.11380246 367.66423061 315.56783593 367.64676618 C320.3928847 367.6382314 325.21770834 367.63616694 330.04274559 367.65141773 C334.45807719 367.66520102 338.87298945 367.66058411 343.2882964 367.6411785 C344.88713526 367.63739858 346.4860072 367.64039744 348.08481675 367.65079015 C350.25610564 367.66390258 352.42593482 367.65243042 354.59716034 367.63479233 C355.80369688 367.63468499 357.01023341 367.63457765 358.25333166 367.63446707 C363.45952138 366.84446917 366.52752721 364.32792573 369.89426422 360.3974371 C371.88538666 356.47326582 372.10218701 353.22155916 372.04208374 348.92276478 C372.04676273 348.11191712 372.05144172 347.30106947 372.05626249 346.46565068 C372.06716866 343.75702873 372.0497244 341.04934162 372.03244019 338.34076405 C372.03462663 336.39565221 372.03862426 334.45054169 372.04429626 332.5054369 C372.05285578 328.32130452 372.04908529 324.13742875 372.03587341 319.95330906 C372.01554186 313.33987237 372.02551115 306.72669456 372.04013062 300.1132555 C372.06688679 286.07855419 372.0601514 272.04393694 372.05001831 258.00922108 C372.03907805 242.85112158 372.03378568 227.69315486 372.06731272 212.53507817 C372.08071037 205.95780155 372.07469275 199.38091191 372.05394745 192.80365825 C372.04498201 188.71717693 372.05241666 184.63084592 372.06435966 180.54437733 C372.06649605 178.64645477 372.06173686 176.74851034 372.04965401 174.85062504 C372.03411105 172.26391307 372.04296876 169.67839868 372.05795288 167.09171009 C372.04746398 166.33704641 372.03697509 165.58238273 372.02616835 164.80485046 C372.07080943 161.35528317 372.30041971 159.46692549 374.39717865 156.67203426 C376.55001831 155.13422108 376.55001831 155.13422108 379.48751831 154.57172108 C383.66272371 155.33859554 384.93093247 156.82644334 387.55001831 160.13422108 C388.04093483 163.00343555 388.2237251 165.27736114 388.1782074 168.14035511 C388.18530178 168.94132583 388.19239617 169.74229654 388.19970554 170.5675391 C388.21729568 173.24927274 388.19917588 175.92955889 388.18112183 178.61127186 C388.18626051 180.5350304 388.19354141 182.45878425 388.20280457 184.38252735 C388.22134061 189.60818665 388.20836294 194.83333655 388.18871427 200.05897474 C388.17233059 205.53245768 388.18114094 211.00590827 388.18623352 216.4794054 C388.19075708 225.67790322 388.174874 234.87619788 388.14694214 244.07465076 C388.11494626 254.69297009 388.11488303 265.31092183 388.13215691 275.92926705 C388.14805596 286.15469422 388.14126299 296.3799873 388.12421989 306.60540867 C388.11736639 310.95044897 388.11836457 315.29538124 388.12576485 319.64041996 C388.13346074 324.76724813 388.12119393 329.89366152 388.09391594 335.02041912 C388.08706342 336.89603221 388.08690027 338.77168428 388.09413147 340.64729595 C388.13454446 352.5011053 387.79592685 363.76678913 380.15939331 373.57172108 C373.16940696 380.3581156 364.32163072 383.38660682 354.70723057 383.38031673 C354.05250654 383.38262442 353.39778251 383.38493211 352.72321835 383.38730973 C350.53806661 383.39258674 348.35321199 383.38364504 346.16807556 383.37473011 C344.58223493 383.37560265 342.99639459 383.37735452 341.41055578 383.37990844 C337.05953142 383.38437647 332.70860569 383.37638575 328.35759389 383.36635232 C323.66305827 383.3577123 318.96852816 383.36063837 314.27398682 383.36215687 C306.14260097 383.36320537 298.01124723 383.3569324 289.87986946 383.34568119 C278.12327819 383.32942445 266.36670245 383.324218 254.61010116 383.32170521 C235.53562138 383.31732838 216.46115872 383.30401961 197.38668823 383.28509998 C178.85804327 383.26674087 160.32940295 383.25258451 141.80075073 383.24408436 C140.08748037 383.24329619 140.08748037 383.24329619 138.33959848 383.24249209 C132.60959366 383.23988201 126.87958881 383.2373546 121.14958394 383.23486829 C73.61638357 383.21413617 26.08320177 383.17891097 -21.44998169 383.13422108 C-21.34393134 384.89412938 -21.22246027 386.65311284 -21.09451294 388.41156483 C-21.02852905 389.39117176 -20.96254517 390.37077869 -20.89456177 391.38007069 C-20.20659946 395.6419613 -18.61988968 397.25918824 -15.44998169 400.13422108 C-12.5027577 401.9113508 -10.3486437 402.38427967 -6.92406464 402.38476086 C-6.01636778 402.38975955 -5.10867093 402.39475825 -4.17346811 402.39990842 C-3.18009235 402.39524521 -2.18671659 402.390582 -1.16323853 402.38577747 C-0.10500303 402.38874761 0.95323247 402.39171775 2.04353571 402.39477789 C5.60108965 402.40243646 9.1584794 402.39591624 12.71603394 402.38959217 C15.2618267 402.39234114 17.80761861 402.39602046 20.35340881 402.40056324 C25.84109309 402.40868432 31.32873275 402.41100399 36.81642151 402.40861607 C44.75506775 402.40552028 52.69364259 402.41715046 60.63227087 402.43316586 C73.51777015 402.45913141 86.40326947 402.47914894 99.28878784 402.49261951 C100.06004582 402.49342988 100.8313038 402.49424025 101.62593323 402.49507518 C112.57532332 402.50630085 123.52470832 402.51157876 134.47410339 402.51446231 C135.24536137 402.51466629 136.01661935 402.51487028 136.81124878 402.51508045 C137.58156813 402.51528039 138.35188748 402.51548032 139.14554983 402.51568632 C151.98267539 402.51941687 164.8197235 402.53848491 177.65681028 402.57017481 C185.57709604 402.58910855 193.49718341 402.59503925 201.41748559 402.58435763 C207.48267036 402.57730272 213.54762786 402.59078781 219.61278725 402.61197567 C222.10411891 402.61731693 224.59547597 402.61576813 227.08679771 402.60694027 C230.47929354 402.5958857 233.87083807 402.609174 237.26327515 402.6286974 C238.25665091 402.61957274 239.25002667 402.61044808 240.27350473 402.60104692 C246.91078976 402.6757354 246.91078976 402.6757354 250.12653351 404.98222256 C252.03076673 407.86100783 252.62079841 409.66599602 252.55001831 413.13422108 C250.5388847 416.01912104 248.91025062 417.84649446 245.37613547 418.5940572 C242.59604889 418.77891318 239.8556683 418.79545111 237.06950378 418.76241016 C235.46884301 418.77305174 235.46884301 418.77305174 233.83584565 418.78390831 C230.2536332 418.80153547 226.67249897 418.78335797 223.09030151 418.76532459 C220.52453618 418.77046171 217.95877437 418.77774142 215.39302063 418.78700733 C209.14243077 418.80539211 202.89215343 418.79686488 196.64157329 418.77891911 C191.5588036 418.76489044 186.47611872 418.76100088 181.39333153 418.76436138 C180.66975156 418.76483882 179.9461716 418.76531627 179.20066496 418.76580818 C177.73063593 418.76683453 176.26060691 418.76788989 174.79057791 418.76897394 C161.78820979 418.77754349 148.78599234 418.76086126 135.78366089 418.73114491 C123.17845318 418.70233667 110.57346279 418.69520948 97.9682312 418.71063709 C84.23684925 418.72742005 70.50557052 418.73140983 56.77418584 418.71392673 C55.30805188 418.71208241 53.8419179 418.71024768 52.37578392 418.70842266 C51.65446909 418.70751057 50.93315426 418.70659848 50.1899814 418.70565875 C45.11857796 418.70006406 40.04722505 418.70335084 34.97582436 418.70996761 C28.13936225 418.71853319 21.30321765 418.70546871 14.46680641 418.67811871 C11.96026028 418.67124373 9.45368494 418.67112732 6.94713974 418.67833424 C3.51956404 418.68705198 0.09294684 418.67103159 -3.33454895 418.64888477 C-4.32143839 418.65712554 -5.30832783 418.66536631 -6.32512301 418.67385679 C-14.15995721 418.58073256 -20.52278629 416.54409098 -27.19998169 412.44672108 C-33.97886088 405.47953969 -37.52942568 398.49681733 -37.57498169 388.75922108 C-37.54304413 386.88403013 -37.50458367 385.00888898 -37.44998169 383.13422108 C-38.74935669 382.92797108 -40.04873169 382.72172108 -41.38748169 382.50922108 C-48.97366855 380.7796659 -54.48620595 376.98134594 -58.88748169 370.57172108 C-62.32705397 365.07428505 -63.70711441 360.86229057 -63.57498169 354.32172108 C-63.55693481 353.16027576 -63.53888794 351.99883045 -63.52029419 350.80218983 C-63.49709106 349.92176014 -63.47388794 349.04133045 -63.44998169 348.13422108 C-64.20021606 348.18062733 -64.95045044 348.22703358 -65.72341919 348.27484608 C-74.77286508 348.59397011 -81.84224491 347.07604828 -89.19998169 341.63422108 C-99.55478408 331.39500387 -99.75941421 318.3861111 -100.57522583 304.73553944 C-100.72085291 302.57455762 -100.86732225 300.41363243 -101.01456261 298.25275993 C-102.81016297 270.90280824 -103.80246126 243.51104057 -104.46249115 216.11282128 C-104.51239259 214.07535909 -104.56492633 212.03798001 -104.61815548 210.00060225 C-107.79363838 87.28372064 -107.79363838 87.28372064 -70.67428809 47.88995486 C-65.15477984 42.20914868 -59.20946479 37.0725741 -53.07498169 32.07172108 C-52.53354853 31.62785478 -51.99211537 31.18398849 -51.43427515 30.7266717 C-13.83192379 0.02445882 -13.83192379 0.02445882 0 0 Z " fill="#020201" transform="translate(98.44998168945313,46.86577892303467)"/>
<path d="M0 0 C1.74804227 -0.0746656 3.49701333 -0.12777933 5.24609375 -0.171875 C6.2198999 -0.2037793 7.19370605 -0.23568359 8.19702148 -0.26855469 C12.04831922 0.10043996 13.94788811 1.67081587 16.66015625 4.296875 C19.94317694 8.47004416 20.25327656 11.71658643 20.27124023 17.01586914 C20.27908035 18.0629026 20.27908035 18.0629026 20.28707886 19.13108826 C20.29729895 20.64247967 20.30309579 22.15390607 20.30496025 23.66533089 C20.30862693 26.05679363 20.32535968 28.44784282 20.34571838 30.83921814 C20.40111423 37.63663052 20.431865 44.43410267 20.45629883 51.23168945 C20.47215596 55.39261541 20.50235025 59.55324515 20.54106331 63.71401787 C20.55272471 65.29963479 20.55864376 66.88530463 20.55874443 68.47096443 C20.55893607 70.68546721 20.57716943 72.89914975 20.59936523 75.11352539 C20.60443588 76.373871 20.60950653 77.63421661 20.61473083 78.93275452 C20.75152066 81.96391049 20.75152066 81.96391049 22.34144592 83.90306091 C24.989973 85.65475108 26.91329889 85.4409573 30 85 C32.35947294 83.68640433 32.35947294 83.68640433 34 81 C34.62414727 77.52289124 34.60497977 74.07249697 34.609375 70.546875 C34.62591125 69.53151672 34.64244751 68.51615845 34.65948486 67.47003174 C34.7080339 64.22996005 34.7293516 60.99035795 34.75 57.75 C34.77815383 55.55205962 34.80808042 53.35414118 34.83984375 51.15625 C34.91379443 45.77091878 34.9653965 40.38572 35 35 C39.8917298 36.77284167 43.60094936 39.20189872 46 44 C46.0972493 45.61933338 46.13098879 47.24265385 46.13422108 48.86490154 C46.13867892 49.89913523 46.14313676 50.93336892 46.14772969 51.99894303 C46.14745315 53.71645972 46.14745315 53.71645972 46.14717102 55.46867371 C46.15084771 56.67825865 46.1545244 57.88784359 46.1583125 59.13408262 C46.16745163 62.5023307 46.17205172 65.87053 46.17470181 69.23878586 C46.17860043 72.86741974 46.18817913 76.49603945 46.19691467 80.12466431 C46.21669259 88.89368119 46.22674741 97.66269925 46.23564246 106.43173286 C46.24002358 110.55956963 46.24539088 114.68740511 46.25063133 118.81524086 C46.26764567 132.53467511 46.28213996 146.25410856 46.28938007 159.97355175 C46.29129002 163.5351836 46.29321035 167.09681544 46.29516602 170.65844727 C46.29564976 171.54369268 46.2961335 172.42893809 46.2966319 173.34100912 C46.3049326 187.68218189 46.33026927 202.02327127 46.36274669 216.36440762 C46.39580736 231.08291794 46.41382797 245.80138587 46.41702431 260.51993352 C46.41919044 268.78595194 46.42795388 277.05184878 46.45348549 285.31783104 C46.47517904 292.3575761 46.48324962 299.39717005 46.47351871 306.43694475 C46.46896991 310.0287416 46.47089336 313.62022661 46.49028015 317.21198082 C46.51112175 321.10691977 46.50093943 325.00142777 46.48774719 328.89640808 C46.50420106 330.59719435 46.50420106 330.59719435 46.52098733 332.33233994 C46.46826592 338.76683141 45.92767659 342.8128492 42 348 C36.58386564 352.78129697 29.60604181 352.5634251 22.76635742 352.49829102 C21.66785461 352.50380981 20.56935181 352.50932861 19.43756104 352.51501465 C17.06463085 352.52430588 14.69165079 352.52446375 12.31871605 352.51642036 C8.5658465 352.50377272 4.81371035 352.51509524 1.06086731 352.53245544 C-6.22049802 352.56184898 -13.50171026 352.56477926 -20.78311157 352.56280518 C-30.69892842 352.56131405 -40.61456589 352.57791568 -50.53030968 352.61894035 C-54.23254882 352.62880768 -57.93444079 352.62004908 -61.63667297 352.61024475 C-63.89556103 352.61638554 -66.15444717 352.62329612 -68.41333008 352.63110352 C-69.44660934 352.62338425 -70.47988861 352.61566498 -71.54447937 352.60771179 C-72.95952255 352.61784805 -72.95952255 352.61784805 -74.40315247 352.62818909 C-75.63336986 352.62730962 -75.63336986 352.62730962 -76.88844013 352.62641239 C-79.55838454 353.09879215 -80.40053254 353.83413913 -82 356 C-82.33 357.32 -82.66 358.64 -83 360 C-88.61 360 -94.22 360 -100 360 C-101.485 357.03 -101.485 357.03 -103 354 C-105.33138991 352.83430505 -106.67752518 352.87413272 -109.27423477 352.87250805 C-110.17671613 352.8695004 -111.07919749 352.86649275 -112.00902677 352.86339396 C-113.50578258 352.86601952 -113.50578258 352.86601952 -115.03277588 352.86869812 C-116.0878914 352.86658241 -117.14300691 352.86446669 -118.23009562 352.86228687 C-121.78914951 352.8562636 -125.34816818 352.85728867 -128.90722656 352.8581543 C-131.44947877 352.85512434 -133.99173043 352.85160334 -136.53398132 352.84762573 C-142.02059275 352.83972375 -147.50719665 352.83456637 -152.99381256 352.83133507 C-161.66571514 352.82584267 -170.33757829 352.8089492 -179.00946045 352.78999329 C-181.97525399 352.7836362 -184.94104764 352.77732781 -187.90684128 352.77101612 C-189.01869882 352.76864048 -189.01869882 352.76864048 -190.15301813 352.76621684 C-198.59468503 352.74827259 -207.03635473 352.73205025 -215.47802734 352.71704102 C-216.2498917 352.71566514 -217.02175606 352.71428927 -217.81701025 352.71287171 C-230.32232324 352.69094665 -242.82762611 352.68018697 -255.33295491 352.67267027 C-268.16777352 352.66459984 -281.00250528 352.64131109 -293.83727431 352.6047166 C-301.75587514 352.58268572 -309.67429744 352.57302871 -317.59292737 352.57921693 C-323.66203553 352.58276608 -329.73090152 352.56553307 -335.79996681 352.54053879 C-338.29045221 352.53360577 -340.78096736 352.53352298 -343.27145195 352.54073906 C-346.66774438 352.54958686 -350.06307538 352.53399821 -353.45928955 352.51225281 C-354.44820387 352.52069534 -355.43711819 352.52913788 -356.45599961 352.53783625 C-363.51841228 352.45404703 -367.01851126 350.58918759 -372.375 345.9375 C-374.20615264 342.62733946 -374.17265012 341.0375699 -374.1015625 337.31640625 C-374.08689941 336.3219751 -374.07223633 335.32754395 -374.05712891 334.30297852 C-374.03827637 333.54299561 -374.01942383 332.7830127 -374 332 C-372.78950166 331.99853479 -372.78950166 331.99853479 -371.5545488 331.99703997 C-323.73092482 331.93877475 -275.90734629 331.8649831 -228.08377844 331.77101372 C-222.34222947 331.75974548 -216.60068024 331.74860704 -210.85913086 331.73754883 C-209.7160862 331.73534514 -208.57304153 331.73314146 -207.39535915 331.730871 C-188.88454781 331.69549345 -170.37373652 331.67063189 -151.8629039 331.64965298 C-132.87071495 331.62789459 -113.8785699 331.59484378 -94.88641828 331.55129844 C-83.16616824 331.52478244 -71.4459729 331.50708667 -59.72569435 331.50065396 C-51.68992178 331.49539994 -43.65421805 331.47918244 -35.61848236 331.45433434 C-30.98149868 331.44031991 -26.34463824 331.43114835 -21.70763206 331.43499184 C-17.46033488 331.43840554 -13.21330078 331.42801715 -8.96605747 331.40676448 C-7.4315962 331.40150226 -5.89710756 331.40125573 -4.36264659 331.40660437 C6.66101715 331.4411078 17.36745511 330.65116084 26 323 C31.93924471 315.24342542 34.30800479 307.44618338 34.26742554 297.70625305 C34.27422221 296.49482526 34.27422221 296.49482526 34.28115618 295.25892419 C34.29376158 292.56749521 34.29218236 289.87626958 34.29052734 287.18481445 C34.29651471 285.24940736 34.30332074 283.31400265 34.31088257 281.37860107 C34.32852128 276.13303372 34.33323685 270.88753164 34.33451414 265.64193749 C34.33593667 262.36520412 34.34020802 259.0884873 34.34550858 255.81175804 C34.36399662 244.38255129 34.37218007 232.95339114 34.37060547 221.52416992 C34.36940203 210.86480049 34.39054714 200.20563286 34.4220928 189.54631454 C34.44821343 180.39458458 34.45897465 171.24292077 34.45769465 162.0911538 C34.45718409 156.62488367 34.46292007 151.15879324 34.48405075 145.6925602 C34.50336401 140.55674715 34.50360517 135.42128665 34.48901749 130.28546143 C34.48692018 128.39882583 34.49168478 126.51216855 34.5037384 124.6255703 C34.51910601 122.05422669 34.50994008 119.48411193 34.49447632 116.91279602 C34.50990701 115.7876601 34.50990701 115.7876601 34.52564943 114.63979417 C34.47983458 111.20339728 34.24032054 109.32232713 32.16050148 106.532794 C29.2473297 104.46600892 27.49575271 104.47935598 24 105 C22.18777157 105.97787272 22.18777157 105.97787272 21 108 C20.70830928 110.68950183 20.60128849 113.14727738 20.62818909 115.8372345 C20.62436452 116.64410774 20.62053996 117.45098099 20.6165995 118.28230494 C20.60728802 120.99542496 20.61932247 123.70803819 20.63110352 126.42114258 C20.6286365 128.36256625 20.62479911 130.30398859 20.61968994 132.2454071 C20.61133979 136.4311802 20.61216987 140.61681733 20.61987495 144.80259132 C20.63143613 151.42051641 20.61931328 158.03826576 20.60325623 164.65617371 C20.56702311 181.09663833 20.56083228 197.53709919 20.56335449 213.9776001 C20.56506484 226.74811273 20.55796441 239.51848236 20.52337593 252.28895491 C20.50656377 258.86816235 20.50839272 265.44702145 20.52419865 272.02622759 C20.52999148 276.12046621 20.51926256 280.21453932 20.50395203 284.30874825 C20.50022241 286.2074348 20.50334363 288.10614904 20.51382256 290.00481033 C20.52717852 292.59756408 20.51599683 295.18910949 20.49879456 297.78181458 C20.51350472 298.90814111 20.51350472 298.90814111 20.52851206 300.05722171 C20.45830494 305.17642766 19.20456897 308.04719796 16 312 C11.23154359 316.20078303 8.86237575 317.12481548 2.54491997 317.13701439 C1.87134795 317.13966622 1.19777593 317.14231804 0.50379264 317.14505023 C-1.77557172 317.15276986 -4.05488245 317.15330341 -6.33425903 317.15390015 C-7.97608001 317.15791303 -9.6179 317.16235096 -11.25971878 317.1671797 C-15.7889824 317.17917069 -20.31823537 317.1847995 -24.84751177 317.18936086 C-29.72566461 317.19530746 -34.60380464 317.2069197 -39.48194885 317.21765137 C-51.27213074 317.24219784 -63.06231688 317.25680624 -74.85251647 317.26971143 C-78.18128681 317.27342187 -81.51005673 317.27739522 -84.83882666 317.2814641 C-105.49894197 317.30670016 -126.15905792 317.32875878 -146.81918526 317.34119225 C-151.60699593 317.34412207 -156.39480657 317.34708371 -161.18261719 317.35009766 C-162.37264299 317.35084371 -163.5626688 317.35158976 -164.788756 317.35235842 C-184.06968457 317.36501402 -203.35052097 317.39823839 -222.63140644 317.43989949 C-242.41576612 317.48229883 -262.2000786 317.50588501 -281.9844836 317.51111281 C-293.09709091 317.5145293 -304.2095542 317.52631248 -315.32211685 317.55921555 C-324.78571039 317.58718978 -334.2491304 317.59822694 -343.71276207 317.58702008 C-348.5421412 317.58182663 -353.37115679 317.5847648 -358.20048332 317.60948563 C-362.62230428 317.63193168 -367.0434996 317.63127455 -371.46533118 317.61228175 C-373.064335 317.6094752 -374.66338083 317.6151167 -376.26231696 317.63009469 C-390.66222485 317.75672924 -390.66222485 317.75672924 -396.62056816 313.39586127 C-399.59600843 310.38498266 -400.90312802 307.09316132 -401.09765625 302.88989258 C-401.06510417 300.92659505 -401.03255208 298.96329753 -401 297 C-399.71834961 296.98541748 -398.43669922 296.97083496 -397.11621094 296.95581055 C-392.35990535 296.8978268 -387.60407315 296.82059367 -382.84814453 296.73754883 C-380.78995447 296.70429989 -378.73167324 296.67626786 -376.67333984 296.65356445 C-373.71412309 296.6200181 -370.75574183 296.56770198 -367.796875 296.51171875 C-366.87694763 296.50532883 -365.95702026 296.4989389 -365.00921631 296.49235535 C-360.03174489 296.39067123 -360.03174489 296.39067123 -355.43457031 294.66723633 C-353.38841685 292.28922714 -353.27230266 290.06340495 -353 287 C-352.67 287.66 -352.34 288.32 -352 289 C-346.39 289 -340.78 289 -335 289 C-334.34 290.98 -333.68 292.96 -333 295 C-330.00565574 295.99811475 -328.0354024 296.12717919 -324.90831566 296.13142776 C-323.84894055 296.13526891 -322.78956544 296.13911005 -321.69808805 296.1430676 C-320.53011737 296.14220112 -319.36214669 296.14133463 -318.15878296 296.14044189 C-316.92116986 296.14341302 -315.68355676 296.14638414 -314.40844023 296.1494453 C-310.96650006 296.15663417 -307.52460979 296.15930528 -304.08266568 296.16004276 C-300.37289446 296.16189208 -296.6631341 296.1694389 -292.95336914 296.17617798 C-284.83750034 296.18976811 -276.72163648 296.19578735 -268.60575819 296.20018864 C-263.53799936 296.20295046 -258.47024244 296.20718776 -253.40248489 296.21169281 C-239.37161822 296.22388741 -225.34075307 296.23418567 -211.30988121 296.2375679 C-210.41159681 296.23778747 -209.51331241 296.23800703 -208.58780728 296.23823325 C-207.68736652 296.23845153 -206.78692577 296.23866981 -205.85919893 296.2388947 C-204.03455059 296.23933817 -202.20990225 296.23978473 -200.38525391 296.24023438 C-199.02761952 296.24056652 -199.02761952 296.24056652 -197.64255817 296.24090537 C-182.98272399 296.24485186 -168.32293957 296.26230046 -153.66312461 296.2855939 C-138.61234903 296.30931545 -123.5615984 296.32177015 -108.51080382 296.32293582 C-100.06032009 296.32385224 -91.60990115 296.32959606 -83.15943527 296.34775543 C-75.96205179 296.3631674 -68.76475312 296.3682705 -61.56735627 296.36001733 C-57.89637351 296.35611441 -54.22556145 296.35702269 -50.55459976 296.37107468 C-46.57069943 296.38618473 -42.58703846 296.3779362 -38.6031189 296.36749268 C-37.44853255 296.37554908 -36.2939462 296.38360548 -35.10437238 296.39190602 C-25.29558203 296.33177849 -16.58106834 294.60842652 -9.40625 287.3984375 C-3.66247004 281.00707451 -0.88926023 274.78141137 -0.8613348 266.15245342 C-0.85586036 265.19849798 -0.85038591 264.24454254 -0.84474558 263.26167935 C-0.84376747 262.22179657 -0.84278936 261.18191379 -0.84178162 260.11051941 C-0.83437465 258.44414719 -0.83437465 258.44414719 -0.82681805 256.74411088 C-0.81143665 253.01454874 -0.80308063 249.28500383 -0.79467773 245.55541992 C-0.78509972 242.88476307 -0.77513293 240.21411032 -0.76467896 237.54345703 C-0.74293416 231.79006351 -0.72478238 226.03666767 -0.70907402 220.28325462 C-0.6863572 211.96479567 -0.65821689 203.64636201 -0.62875474 195.32792453 C-0.58110105 181.83166464 -0.53783084 168.33539439 -0.49731445 154.83911133 C-0.45794822 141.72907709 -0.41651929 128.61905205 -0.37231445 115.5090332 C-0.36822804 114.29678993 -0.36822804 114.29678993 -0.36405908 113.06005689 C-0.35037942 109.00572664 -0.33665918 104.95139652 -0.32291877 100.89706647 C-0.20898891 67.26472997 -0.10217184 33.63237427 0 0 Z " fill="#F9CD01" transform="translate(451,98)"/>
<path d="M0 0 C4.8917298 1.77284167 8.60094936 4.20189872 11 9 C11.0972493 10.61933338 11.13098879 12.24265385 11.13422108 13.86490154 C11.13867892 14.89913523 11.14313676 15.93336892 11.14772969 16.99894303 C11.14745315 18.71645972 11.14745315 18.71645972 11.14717102 20.46867371 C11.15084771 21.67825865 11.1545244 22.88784359 11.1583125 24.13408262 C11.16745163 27.5023307 11.17205172 30.87053 11.17470181 34.23878586 C11.17860043 37.86741974 11.18817913 41.49603945 11.19691467 45.12466431 C11.21669259 53.89368119 11.22674741 62.66269925 11.23564246 71.43173286 C11.24002358 75.55956963 11.24539088 79.68740511 11.25063133 83.81524086 C11.26764567 97.53467511 11.28213996 111.25410856 11.28938007 124.97355175 C11.29129002 128.5351836 11.29321035 132.09681544 11.29516602 135.65844727 C11.29564976 136.54369268 11.2961335 137.42893809 11.2966319 138.34100912 C11.3049326 152.68218189 11.33026927 167.02327127 11.36274669 181.36440762 C11.39580736 196.08291794 11.41382797 210.80138587 11.41702431 225.51993352 C11.41919044 233.78595194 11.42795388 242.05184878 11.45348549 250.31783104 C11.47517904 257.3575761 11.48324962 264.39717005 11.47351871 271.43694475 C11.46896991 275.0287416 11.47089336 278.62022661 11.49028015 282.21198082 C11.51112175 286.10691977 11.50093943 290.00142777 11.48774719 293.89640808 C11.50420106 295.59719435 11.50420106 295.59719435 11.52098733 297.33233994 C11.46826592 303.76683141 10.92767659 307.8128492 7 313 C1.58386564 317.78129697 -5.39395819 317.5634251 -12.23364258 317.49829102 C-13.33214539 317.50380981 -14.43064819 317.50932861 -15.56243896 317.51501465 C-17.93536915 317.52430588 -20.30834921 317.52446375 -22.68128395 317.51642036 C-26.4341535 317.50377272 -30.18628965 317.51509524 -33.93913269 317.53245544 C-41.22049802 317.56184898 -48.50171026 317.56477926 -55.78311157 317.56280518 C-65.69892842 317.56131405 -75.61456589 317.57791568 -85.53030968 317.61894035 C-89.23254882 317.62880768 -92.93444079 317.62004908 -96.63667297 317.61024475 C-98.89556103 317.61638554 -101.15444717 317.62329612 -103.41333008 317.63110352 C-104.44660934 317.62338425 -105.47988861 317.61566498 -106.54447937 317.60771179 C-107.95952255 317.61784805 -107.95952255 317.61784805 -109.40315247 317.62818909 C-110.63336986 317.62730962 -110.63336986 317.62730962 -111.88844013 317.62641239 C-114.55838454 318.09879215 -115.40053254 318.83413913 -117 321 C-117.33 322.32 -117.66 323.64 -118 325 C-123.61 325 -129.22 325 -135 325 C-136.485 322.03 -136.485 322.03 -138 319 C-140.33138991 317.83430505 -141.67752518 317.87413272 -144.27423477 317.87250805 C-145.17671613 317.8695004 -146.07919749 317.86649275 -147.00902677 317.86339396 C-148.50578258 317.86601952 -148.50578258 317.86601952 -150.03277588 317.86869812 C-151.0878914 317.86658241 -152.14300691 317.86446669 -153.23009562 317.86228687 C-156.78914951 317.8562636 -160.34816818 317.85728867 -163.90722656 317.8581543 C-166.44947877 317.85512434 -168.99173043 317.85160334 -171.53398132 317.84762573 C-177.02059275 317.83972375 -182.50719665 317.83456637 -187.99381256 317.83133507 C-196.66571514 317.82584267 -205.33757829 317.8089492 -214.00946045 317.78999329 C-216.97525399 317.7836362 -219.94104764 317.77732781 -222.90684128 317.77101612 C-224.01869882 317.76864048 -224.01869882 317.76864048 -225.15301813 317.76621684 C-233.59468503 317.74827259 -242.03635473 317.73205025 -250.47802734 317.71704102 C-251.2498917 317.71566514 -252.02175606 317.71428927 -252.81701025 317.71287171 C-265.32232324 317.69094665 -277.82762611 317.68018697 -290.33295491 317.67267027 C-303.16777352 317.66459984 -316.00250528 317.64131109 -328.83727431 317.6047166 C-336.75587514 317.58268572 -344.67429744 317.57302871 -352.59292737 317.57921693 C-358.66203553 317.58276608 -364.73090152 317.56553307 -370.79996681 317.54053879 C-373.29045221 317.53360577 -375.78096736 317.53352298 -378.27145195 317.54073906 C-381.66774438 317.54958686 -385.06307538 317.53399821 -388.45928955 317.51225281 C-389.44820387 317.52069534 -390.43711819 317.52913788 -391.45599961 317.53783625 C-398.51841228 317.45404703 -402.01851126 315.58918759 -407.375 310.9375 C-409.20615264 307.62733946 -409.17265012 306.0375699 -409.1015625 302.31640625 C-409.07956787 300.82475952 -409.07956787 300.82475952 -409.05712891 299.30297852 C-409.03827637 298.54299561 -409.01942383 297.7830127 -409 297 C-408.1930011 296.99902319 -407.38600221 296.99804638 -406.5545488 296.99703997 C-358.73092482 296.93877475 -310.90734629 296.8649831 -263.08377844 296.77101372 C-257.34222947 296.75974548 -251.60068024 296.74860704 -245.85913086 296.73754883 C-244.7160862 296.73534514 -243.57304153 296.73314146 -242.39535915 296.730871 C-223.88454781 296.69549345 -205.37373652 296.67063189 -186.8629039 296.64965298 C-167.87071495 296.62789459 -148.8785699 296.59484378 -129.88641828 296.55129844 C-118.16616824 296.52478244 -106.4459729 296.50708667 -94.72569435 296.50065396 C-86.68992178 296.49539994 -78.65421805 296.47918244 -70.61848236 296.45433434 C-65.98149868 296.44031991 -61.34463824 296.43114835 -56.70763206 296.43499184 C-52.46033488 296.43840554 -48.21330078 296.42801715 -43.96605747 296.40676448 C-42.4315962 296.40150226 -40.89710756 296.40125573 -39.36264659 296.40660437 C-28.33898285 296.4411078 -17.63254489 295.65116084 -9 288 C-3.06075529 280.24342542 -0.69199521 272.44618338 -0.73257446 262.70625305 C-0.72577779 261.49482526 -0.72577779 261.49482526 -0.71884382 260.25892419 C-0.70623842 257.56749521 -0.70781764 254.87626958 -0.70947266 252.18481445 C-0.70348529 250.24940736 -0.69667926 248.31400265 -0.68911743 246.37860107 C-0.67147872 241.13303372 -0.66676315 235.88753164 -0.66548586 230.64193749 C-0.66406333 227.36520412 -0.65979198 224.0884873 -0.65449142 220.81175804 C-0.63600338 209.38255129 -0.62781993 197.95339114 -0.62939453 186.52416992 C-0.63059797 175.86480049 -0.60945286 165.20563286 -0.5779072 154.54631454 C-0.55178657 145.39458458 -0.54102535 136.24292077 -0.54230535 127.0911538 C-0.54281591 121.62488367 -0.53707993 116.15879324 -0.51594925 110.6925602 C-0.49663599 105.55674715 -0.49639483 100.42128665 -0.51098251 95.28546143 C-0.51307982 93.39882583 -0.50831522 91.51216855 -0.4962616 89.6255703 C-0.48089399 87.05422669 -0.49005992 84.48411193 -0.50552368 81.91279602 C-0.49009299 80.7876601 -0.49009299 80.7876601 -0.47435057 79.63979417 C-0.52007663 76.21005743 -0.74464835 74.33689179 -2.84340477 71.56795025 C-5.00470129 69.83059718 -5.00470129 69.83059718 -8 69 C-8 63.06 -8 57.12 -8 51 C-6.02 50.01 -4.04 49.02 -2 48 C-0.82440785 45.6488157 -0.84483537 44.17282086 -0.79467773 41.55029297 C-0.77473251 40.62948944 -0.75478729 39.70868591 -0.73423767 38.75997925 C-0.71752518 37.76410797 -0.70081268 36.76823669 -0.68359375 35.7421875 C-0.6524221 34.21490524 -0.6524221 34.21490524 -0.62062073 32.6567688 C-0.55510534 29.39624945 -0.49623098 26.13564794 -0.4375 22.875 C-0.39431668 20.66796017 -0.35070245 18.46092872 -0.30664062 16.25390625 C-0.19942195 10.83602499 -0.09765926 5.41806154 0 0 Z " fill="#88C6FB" transform="translate(486,133)"/>
<path d="M0 0 C40.79135038 -0.09121976 81.58268475 -0.16202287 122.37411679 -0.20426132 C127.18821344 -0.20926424 132.0023099 -0.21444152 136.81640625 -0.21972656 C137.77481973 -0.2207758 138.73323321 -0.22182505 139.72068952 -0.22290608 C155.24603083 -0.24031871 170.77131299 -0.27186112 186.29661919 -0.30861118 C202.22303925 -0.34599674 218.14942829 -0.3682308 234.07589042 -0.37635398 C243.90604573 -0.3818467 253.73603386 -0.39920466 263.56613772 -0.43166587 C270.30394202 -0.45278432 277.0416597 -0.45920611 283.77949472 -0.45400551 C287.66886453 -0.45143956 291.55794188 -0.45541587 295.4472599 -0.4768219 C299.66238929 -0.49985196 303.8768937 -0.49196548 308.09207153 -0.48101807 C309.93934756 -0.49849512 309.93934756 -0.49849512 311.8239423 -0.51632524 C318.17538684 -0.47156512 322.21981 -0.36349661 327 4 C330.63583391 8.12716282 332.12535489 10.41032067 332.12304783 15.86883736 C332.12503888 16.90390454 332.12702993 17.93897173 332.12908131 19.00540459 C332.12616847 20.1512996 332.12325563 21.29719462 332.12025452 22.47781372 C332.12153615 24.29347424 332.12153615 24.29347424 332.12284368 26.14581478 C332.12421043 29.51618341 332.12106838 32.88649451 332.11606562 36.2568562 C332.11176025 39.88739349 332.11320761 43.5179289 332.1139679 47.14846802 C332.11449308 53.44213408 332.1113469 59.73578981 332.10573006 66.02945328 C332.09761425 75.12911248 332.09499975 84.22876666 332.09374207 93.32842909 C332.09155167 108.09086311 332.08489193 122.85329163 332.07543945 137.61572266 C332.06626501 151.95882133 332.05918433 166.30191851 332.05493164 180.64501953 C332.05453756 181.9704574 332.05453756 181.9704574 332.05413551 183.32267179 C332.0528305 187.7554156 332.05156679 192.18815942 332.05032361 196.62090325 C332.03995139 233.4139394 332.02233342 270.20696927 332 307 C331.67 307 331.34 307 331 307 C331 214.6 331 122.2 331 27 C323.28456409 24.27052231 323.28456409 24.27052231 315.86377621 23.61523914 C314.15441699 23.60105433 314.15441699 23.60105433 312.41052526 23.58658296 C310.5705206 23.59385432 310.5705206 23.59385432 308.69334412 23.60127258 C307.35738513 23.59582573 306.02143096 23.5890711 304.68548447 23.58113068 C301.03445506 23.56317779 297.38362981 23.56365348 293.73256671 23.56726015 C289.78786964 23.56788575 285.84324003 23.5512476 281.89857483 23.53674316 C275.07082553 23.5139832 268.24312717 23.50207655 261.41534233 23.49761391 C251.54361635 23.49114594 241.67198233 23.46819718 231.80029345 23.44127061 C215.7828095 23.39802599 199.76532942 23.36804596 183.74780273 23.34643555 C168.19146825 23.32541889 152.63516547 23.29813779 137.07885742 23.26245117 C135.63968532 23.25915293 135.63968532 23.25915293 134.17143904 23.25578807 C129.35800357 23.24471824 124.54456839 23.23352547 119.73113334 23.22227156 C79.8207829 23.12911938 39.91041637 23.05772762 0 23 C0 15.41 0 7.82 0 0 Z " fill="#D2CBD1" transform="translate(104,62)"/>
<path d="M0 0 C1.66759682 1.03205872 1.66759682 1.03205872 3 3 C3.29486404 5.81894144 3.40458392 8.41708963 3.38095093 11.23706055 C3.3856309 12.08688601 3.39031087 12.93671148 3.39513266 13.81228924 C3.40713451 16.67058941 3.39760523 19.52841471 3.38818359 22.38671875 C3.39224699 24.43153158 3.39758756 26.47634222 3.40411377 28.52114868 C3.41782074 34.08303305 3.41247476 39.64475096 3.40297651 45.20663834 C3.39539742 51.01886707 3.40242064 56.83108127 3.40713501 62.64331055 C3.41259767 72.40513679 3.40538755 82.16689501 3.39111328 91.92871094 C3.37478582 103.22532572 3.38007397 114.52177809 3.3965925 125.81838894 C3.41019281 135.50590375 3.41213415 145.19336958 3.40427649 154.88089085 C3.39959197 160.67187221 3.39899649 166.46277716 3.40888596 172.25375366 C3.41753218 177.69726566 3.41157664 183.14056762 3.39420319 188.58405685 C3.39022579 190.5855919 3.39139368 192.58714452 3.39799118 194.58867264 C3.40614737 197.31366942 3.39595719 200.0379864 3.38095093 202.76293945 C3.38764309 203.56147182 3.39433526 204.36000418 3.40123022 205.18273449 C3.34451628 210.46516202 3.34451628 210.46516202 1.72228432 212.98356628 C-0.72059702 214.42527189 -3.17735223 214.46484866 -5.96484375 214.59375 C-9.22358444 213.64302335 -10.19732573 211.82287757 -12 209 C-12.38545473 206.09991429 -12.54124083 203.5834758 -12.50793457 200.68774414 C-12.51729451 199.43706068 -12.51729451 199.43706068 -12.52684355 198.16111088 C-12.54279103 195.36883786 -12.53016256 192.57743566 -12.51757812 189.78515625 C-12.52299846 187.78269949 -12.53012062 185.78024672 -12.53881836 183.77780151 C-12.55706505 178.33981946 -12.54997853 172.9021407 -12.53730202 167.46415329 C-12.52718138 161.77565437 -12.5365651 156.08718157 -12.54284668 150.39868164 C-12.5501258 140.84549289 -12.54052838 131.29242779 -12.52148438 121.73925781 C-12.4997152 110.69139604 -12.50676637 99.64382954 -12.52879 88.59597492 C-12.5469364 79.11389544 -12.54950602 69.63190489 -12.53903532 60.14981365 C-12.53279624 54.48509061 -12.53197624 48.82050639 -12.54518127 43.15579224 C-12.55672802 37.83037607 -12.54873532 32.50534093 -12.52560425 27.17996597 C-12.5203109 25.22442381 -12.5218416 23.26884963 -12.53065491 21.31332016 C-12.54156925 18.64586446 -12.52789686 15.97963331 -12.50793457 13.31225586 C-12.51685746 12.53647721 -12.52578034 11.76069857 -12.53497362 10.96141148 C-12.4632124 6.02539259 -11.54092439 3.4558881 -8 0 C-5.06317146 -1.46841427 -3.13175678 -0.76696084 0 0 Z " fill="#060606" transform="translate(285,114)"/>
<path d="M0 0 C3.0479964 0.79563822 4.11654787 2.03176384 6.03515625 4.53125 C6.42795723 7.40277405 6.57582119 9.89059612 6.54309082 12.76121521 C6.54933078 13.59823331 6.55557075 14.43525142 6.5619998 15.29763371 C6.57797494 18.10682941 6.56530797 20.91516285 6.55273438 23.72436523 C6.55815353 25.73652656 6.56527502 27.74868392 6.57397461 29.76083374 C6.5922366 35.22986507 6.58512818 40.69859515 6.57245827 46.16763186 C6.56234413 51.88683314 6.57171966 57.6060083 6.57800293 63.32521057 C6.58528454 72.93145385 6.57567872 82.5375742 6.55664062 92.14379883 C6.53487716 103.25355525 6.54191747 114.363018 6.56394625 125.47276729 C6.58209294 135.00578147 6.58466193 144.53870719 6.57419157 154.07173306 C6.56795185 159.76776987 6.5671341 165.46366861 6.58033752 171.15969658 C6.59188448 176.5154674 6.58389116 181.87085935 6.5607605 187.2265892 C6.555467 189.19341846 6.5569981 191.16027954 6.56581116 193.12709618 C6.57672504 195.80992966 6.56305353 198.49154548 6.54309082 201.17430115 C6.55201371 201.95465286 6.56093659 202.73500458 6.57012987 203.53900331 C6.5173074 207.19310345 6.13396655 209.36844683 4.22216034 212.51840305 C2.03515625 214.53125 2.03515625 214.53125 -1.46484375 215.09375 C-5.59427803 214.43009092 -6.52732602 213.86901091 -8.96484375 210.53125 C-9.3555012 207.64509145 -9.50125196 205.1415512 -9.46604919 202.2565918 C-9.47158359 201.41478457 -9.47711799 200.57297735 -9.48282009 199.70566082 C-9.49645111 196.88029795 -9.48144423 194.05581472 -9.46655273 191.23046875 C-9.47033502 189.20683415 -9.47583431 187.18320213 -9.48292542 185.15957642 C-9.49690905 179.65961041 -9.48568975 174.15995622 -9.4692142 168.66000748 C-9.45538379 162.90964755 -9.46182149 157.15930609 -9.46534729 151.40893555 C-9.468051 141.75141361 -9.45455993 132.09401584 -9.43139648 122.43652344 C-9.40478579 111.26430101 -9.40303908 100.09228624 -9.41478485 88.92004299 C-9.42555664 78.18150101 -9.41938025 67.44303429 -9.40522957 56.70449829 C-9.39946457 52.1304039 -9.39955649 47.5563645 -9.40429497 42.98226929 C-9.40906031 37.59782393 -9.39898131 32.21360653 -9.37734032 26.82920456 C-9.37176626 24.85066878 -9.3713128 22.87211112 -9.37629318 20.89357376 C-9.38222979 18.19743058 -9.36977222 15.50198816 -9.3525238 12.8059082 C-9.35853385 12.0187527 -9.36454389 11.23159719 -9.37073606 10.42058849 C-9.33368551 7.24634812 -9.14996987 4.89131178 -7.6867075 2.04533386 C-5.31364904 -0.04136407 -3.07335814 0.04737354 0 0 Z " fill="#030303" transform="translate(226.96484375,113.46875)"/>
<path d="M0 0 C2.7708623 2.43649818 3.00008852 4.00086072 3.38031673 7.69819641 C3.39812143 9.22358174 3.39932704 10.74921343 3.38768005 12.2746582 C3.39306559 13.11646543 3.39845113 13.95827265 3.40399987 14.82558918 C3.41832552 17.65080122 3.41116442 20.47554777 3.40405273 23.30078125 C3.40975385 25.32441587 3.4167171 27.34804728 3.42485046 29.37167358 C3.4428244 34.8715761 3.44160566 40.37131944 3.43590808 45.87124252 C3.43282271 50.4589939 3.43890133 55.04671441 3.44494683 59.6344614 C3.45900402 70.45457579 3.45742049 81.27461124 3.44604492 92.09472656 C3.4345589 103.26697722 3.44864489 114.43898797 3.4754414 125.61120701 C3.49757193 135.19600144 3.50424186 144.78072042 3.49836498 154.3655386 C3.4949883 160.09341106 3.49745776 165.82112967 3.51461601 171.54898071 C3.53004117 176.93345924 3.52617888 182.31758123 3.50731087 187.70204544 C3.50361286 189.68058833 3.50676851 191.65915738 3.51719666 193.63767624 C3.53032542 196.33398034 3.51893174 199.02908992 3.50120544 201.7253418 C3.51081045 202.5124973 3.52041546 203.29965281 3.53031152 204.11066151 C3.48290766 207.60318465 3.27362903 209.62531215 1.18742466 212.48200989 C-2.04789965 214.72720279 -4.16313479 214.61663905 -8 214 C-11.12080611 211.12771225 -11.94312863 209.42996908 -12.50336456 205.19437313 C-12.52529309 203.67742353 -12.52528072 202.16006007 -12.50793457 200.64305115 C-12.51417453 199.80447305 -12.5204145 198.96589496 -12.52684355 198.10190541 C-12.54279164 195.29348056 -12.53016235 192.48592144 -12.51757812 189.67749023 C-12.52299839 187.6635589 -12.53012052 185.64963152 -12.53881836 183.63571167 C-12.5570647 178.16680657 -12.54997898 172.69820306 -12.53730202 167.22929263 C-12.52718259 161.50962934 -12.53656463 155.78999205 -12.54284668 150.07032776 C-12.55012556 140.46586464 -12.54052838 130.86152453 -12.52148438 121.25708008 C-12.49970905 110.14671491 -12.50677093 99.03664328 -12.52879 87.92628521 C-12.54692969 78.39241725 -12.5495095 68.85863775 -12.53903532 59.32475811 C-12.53279333 53.62820914 -12.53198431 47.93179825 -12.54518127 42.2352581 C-12.55671849 36.88111852 -12.54875286 31.52735825 -12.52560425 26.17325974 C-12.52030605 24.2060096 -12.52184983 22.23872766 -12.53065491 20.2714901 C-12.54155002 17.59054789 -12.52792039 14.91082899 -12.50793457 12.22996521 C-12.51685746 11.44738277 -12.52578034 10.66480034 -12.53497362 9.85850328 C-12.48353049 6.31268225 -12.28527409 4.37164366 -10.09545135 1.5188303 C-6.53979065 -1.0583926 -4.30745311 -0.54697817 0 0 Z " fill="#030303" transform="translate(174,114)"/>
<path d="M0 0 C3.99337862 1.33112621 6.52037606 2.55309092 9 6 C9.60141592 9.51607393 9.5146037 13.00450363 9.4699707 16.5635376 C9.47212711 17.65161925 9.47428352 18.7397009 9.47650528 19.86075473 C9.47875552 23.51976654 9.45219925 27.17800504 9.42578125 30.83691406 C9.42134042 33.45503005 9.41860938 36.07314942 9.41746521 38.69126892 C9.41126024 45.07302294 9.38331128 51.45450568 9.34762424 57.83615598 C9.31900628 63.02429199 9.29823433 68.21240424 9.28308105 73.40059662 C9.28091863 74.13876633 9.2787562 74.87693603 9.27652824 75.63747452 C9.27216978 77.13706148 9.26782964 78.6366485 9.2635076 80.13623556 C9.22203612 94.205429 9.15596879 108.27442519 9.08150077 122.34347734 C9.01820279 134.4094665 8.97578457 146.47538093 8.94873047 158.54150391 C8.9173022 172.55381101 8.8729641 186.56597922 8.80806828 200.57817435 C8.80117756 202.07349627 8.79430309 203.56881826 8.78744507 205.06414032 C8.78406386 205.79985211 8.78068264 206.53556391 8.77719897 207.29357 C8.75428288 212.47207749 8.74054955 217.65056254 8.7303772 222.82910919 C8.71639201 229.80595897 8.68126455 236.78243808 8.63200569 243.75912666 C8.61709525 246.3197049 8.60893752 248.88033272 8.60803032 251.44095421 C8.60568792 254.93720629 8.57887943 258.43244971 8.54589844 261.92852783 C8.55093038 262.94137982 8.55596231 263.9542318 8.56114674 264.99777627 C8.45525722 272.17809701 6.94488146 277.5280704 2.25390625 283.05859375 C-1.07278269 285.77065194 -3.54056127 287.72973099 -8 288 C-7.56880859 287.14921875 -7.56880859 287.14921875 -7.12890625 286.28125 C-6.01918663 284.0387716 -4.96486926 281.78130665 -3.9375 279.5 C-3.59589844 278.7471875 -3.25429688 277.994375 -2.90234375 277.21875 C-0.98286042 272.49898147 -0.85158945 268.1238895 -0.85282898 263.0670166 C-0.84915229 262.26196135 -0.8454756 261.4569061 -0.8416875 260.62745523 C-0.83066413 257.92676057 -0.82680918 255.2261044 -0.82299805 252.52539062 C-0.81673263 250.59042743 -0.81008576 248.65546544 -0.80308533 246.72050476 C-0.78568889 241.46238046 -0.77512831 236.20426524 -0.7668798 230.94611931 C-0.76172914 227.66287453 -0.75565359 224.37963256 -0.74936867 221.09638977 C-0.73032454 210.82880876 -0.716089 200.56123493 -0.7077567 190.29363966 C-0.69797142 178.43112938 -0.67161499 166.56880505 -0.63125581 154.70636034 C-0.60114241 145.54196018 -0.58629257 136.3776135 -0.58297569 127.21316481 C-0.58062072 121.73677793 -0.57160163 116.26058991 -0.54651451 110.78425598 C-0.52331079 105.63618709 -0.51896941 100.48844911 -0.52927589 95.34034157 C-0.52977316 93.4488649 -0.52339676 91.55737234 -0.50971985 89.66594505 C-0.49211744 87.08788997 -0.49904874 84.51103771 -0.51225281 81.9329834 C-0.50128356 81.18084643 -0.49031432 80.42870946 -0.47901267 79.65378046 C-0.52162022 76.21908337 -0.74206419 74.34055537 -2.8429842 71.56668854 C-5.00491211 69.83077878 -5.00491211 69.83077878 -8 69 C-8 63.06 -8 57.12 -8 51 C-6.02 50.01 -4.04 49.02 -2 48 C-0.82440785 45.6488157 -0.84483537 44.17282086 -0.79467773 41.55029297 C-0.77473251 40.62948944 -0.75478729 39.70868591 -0.73423767 38.75997925 C-0.70916893 37.26617233 -0.70916893 37.26617233 -0.68359375 35.7421875 C-0.66281265 34.72399933 -0.64203156 33.70581116 -0.62062073 32.6567688 C-0.55510534 29.39624945 -0.49623098 26.13564794 -0.4375 22.875 C-0.39431668 20.66796017 -0.35070245 18.46092872 -0.30664062 16.25390625 C-0.19942195 10.83602499 -0.09765926 5.41806154 0 0 Z " fill="#60B7FC" transform="translate(486,133)"/>
<path d="M0 0 C0.10176424 7.1165744 0.17161829 14.2329598 0.21972656 21.35009766 C0.23979065 23.7691143 0.26704843 26.18808276 0.30175781 28.60693359 C0.35050341 32.09224368 0.37302164 35.57691016 0.390625 39.0625 C0.41127014 40.13677246 0.43191528 41.21104492 0.45318604 42.31787109 C0.45508009 48.71524437 -0.06261508 53.78649562 -4 59 C-8.48463663 63.46088046 -12.74754051 63.45489881 -18.76046753 63.45318604 C-19.88881012 63.43254089 -21.01715271 63.41189575 -22.1796875 63.390625 C-23.3475882 63.38496521 -24.51548889 63.37930542 -25.71878052 63.37347412 C-29.43794254 63.35113756 -33.15613062 63.30094342 -36.875 63.25 C-39.40102772 63.22993161 -41.92707059 63.21168144 -44.453125 63.1953125 C-50.63574728 63.15128153 -56.81780404 63.08439531 -63 63 C-57.20095811 55.90484554 -50.67698168 49.53181379 -44.19921875 43.06640625 C-42.95450991 41.82102303 -41.70994949 40.57549146 -40.4655304 39.32981873 C-37.87081205 36.73363301 -35.2743106 34.1392477 -32.67651367 31.54614258 C-29.33945331 28.21481477 -26.00695043 24.87896943 -22.67573833 21.54179478 C-20.11345874 18.97591397 -17.54881757 16.41240433 -14.98343849 13.84962273 C-13.75264811 12.61950099 -12.52260445 11.38863168 -11.29331017 10.15701485 C-9.58425174 8.4454333 -7.87204964 6.7370619 -6.15893555 5.02954102 C-5.64831573 4.51689697 -5.13769592 4.00425293 -4.61160278 3.47607422 C-1.1142698 0 -1.1142698 0 0 0 Z " fill="#B1A9B2" transform="translate(89,73)"/>
</svg>
