<?xml version="1.0" encoding="UTF-8"?>
<svg version="1.1" xmlns="http://www.w3.org/2000/svg" width="512" height="512">
<path d="M0 0 C0.98417404 -0.0071553 1.96834808 -0.01431061 2.98234558 -0.02168274 C4.59240227 -0.02571609 4.59240227 -0.02571609 6.23498535 -0.02983093 C7.37031204 -0.03640213 8.50563873 -0.04297333 9.67536926 -0.04974365 C13.43287216 -0.06945834 17.19033521 -0.08113243 20.94787598 -0.09111023 C22.23002487 -0.09518576 23.51217377 -0.09926128 24.83317566 -0.10346031 C30.91470004 -0.12216016 36.99620443 -0.13673132 43.07775164 -0.14507228 C50.09547626 -0.15485704 57.11288652 -0.18121654 64.13050032 -0.22157317 C70.21204029 -0.25534659 76.29344773 -0.26721481 82.37507629 -0.27127647 C84.96192056 -0.27615931 87.54876105 -0.28782112 90.13554382 -0.30631447 C93.74837633 -0.33054717 97.36037847 -0.32977007 100.9732666 -0.32279968 C102.04663773 -0.33560974 103.12000885 -0.3484198 104.22590637 -0.36161804 C111.43391667 -0.31076209 111.43391667 -0.31076209 114.79980469 1.98904419 C116.10412598 4.14717102 116.10412598 4.14717102 116.10412598 7.14717102 C121.71412598 7.14717102 127.32412598 7.14717102 133.10412598 7.14717102 C133.76412598 5.49717102 134.42412598 3.84717102 135.10412598 2.14717102 C138.24666116 0.05214756 138.95901366 -0.10371153 142.53708744 -0.11009789 C143.44954324 -0.11654678 144.36199904 -0.12299567 145.30210501 -0.12963998 C146.30597374 -0.12654278 147.30984247 -0.12344558 148.34413147 -0.12025452 C149.4095298 -0.12478563 150.47492814 -0.12931674 151.57261127 -0.13398516 C155.16071497 -0.14669648 158.74866819 -0.14500443 162.33679199 -0.14335632 C164.90225928 -0.14933753 167.46772477 -0.15614213 170.03318787 -0.16371155 C176.29064119 -0.1795822 182.54803895 -0.18582199 188.80551053 -0.1869363 C193.8940319 -0.18788637 198.98254083 -0.19199459 204.07105827 -0.19833755 C218.50111595 -0.21595845 232.93114386 -0.22517564 247.36121238 -0.22367661 C248.13948178 -0.22359669 248.91775117 -0.22351678 249.71960449 -0.22343445 C250.88843668 -0.22331181 250.88843668 -0.22331181 252.08088165 -0.22318669 C264.69664631 -0.22237457 277.31229135 -0.24149115 289.92802144 -0.26971118 C302.88489541 -0.29846514 315.84171111 -0.31224995 328.79861778 -0.31052363 C336.07152632 -0.30986037 343.34430963 -0.31532385 350.61718941 -0.33687973 C357.46179499 -0.35703602 364.30613241 -0.35639201 371.15075111 -0.34184647 C373.66053402 -0.33975595 376.17033341 -0.34447361 378.68008804 -0.35656738 C382.11211329 -0.37203131 385.54322895 -0.36270277 388.97523499 -0.3473053 C390.45761551 -0.36273599 390.45761551 -0.36273599 391.96994311 -0.37847841 C399.81373352 -0.30096342 406.17004673 1.73307693 412.85412598 5.83467102 C419.63300517 12.80185241 423.18356997 19.78457477 423.22912598 29.52217102 C423.19718842 31.39736197 423.15872795 33.27250312 423.10412598 35.14717102 C424.40350098 35.35342102 425.70287598 35.55967102 427.04162598 35.77217102 C434.62781284 37.5017262 440.14035024 41.30004616 444.54162598 47.70967102 C447.98119825 53.20710705 449.36125869 57.41910152 449.22912598 63.95967102 C449.2110791 65.12111633 449.19303223 66.28256165 449.17443848 67.47920227 C449.13963379 68.7998468 449.13963379 68.7998468 449.10412598 70.14717102 C449.85436035 70.10076477 450.60459473 70.05435852 451.37756348 70.00654602 C460.42700937 69.68742198 467.4963892 71.20534382 474.85412598 76.64717102 C485.20892837 86.88638822 485.4135585 99.895281 486.22937012 113.54585266 C486.37499719 115.70683448 486.52146653 117.86775967 486.66870689 120.02863216 C488.46430725 147.37858385 489.45660555 174.77035152 490.11663544 202.16857082 C490.16653687 204.20603301 490.21907062 206.24341209 490.27229977 208.28078985 C493.44778267 330.99767146 493.44778267 330.99767146 456.32843238 370.39143723 C450.80892413 376.07224342 444.86360907 381.208818 438.72912598 386.20967102 C438.18769282 386.65353732 437.64625966 387.09740361 437.08841944 387.5547204 C399.48606808 418.25693328 399.48606808 418.25693328 385.65414429 418.2813921 C384.48939166 418.28584994 383.32463903 418.29030779 382.12459087 418.29490072 C380.83377007 418.29471635 379.54294928 418.29453199 378.2130127 418.29434204 C376.83660433 418.29763983 375.46019693 418.30136522 374.08379078 418.30548352 C370.28808693 418.31552182 366.49239889 418.31922327 362.69668365 418.32187283 C358.60786626 418.32577062 354.51906145 418.3353495 350.43025208 418.34408569 C340.5473786 418.36386782 330.66450407 418.37391978 320.78161573 418.38281348 C316.12867128 418.38719463 311.47572797 418.39256199 306.82278442 418.39780235 C291.35594418 418.41481847 275.88910464 418.42931188 260.42225647 418.43655109 C256.40654499 418.43846103 252.39083352 418.44038135 248.37512207 418.44233704 C247.37702023 418.44282078 246.37891839 418.44330452 245.35057104 418.44380292 C229.18786896 418.45210026 213.02524097 418.47743048 196.86257124 418.50991771 C180.27161608 418.542994 163.68069854 418.56100048 147.08971024 418.56419533 C137.77340353 418.5663602 128.45720476 418.57510513 119.14093018 418.60065651 C111.20499528 418.6223715 103.26919453 418.6304101 95.3332333 418.62068973 C91.28539303 418.61614696 87.23782949 418.6180296 83.19002724 418.63745117 C79.47994493 418.65509816 75.77034088 418.65407304 72.06025338 418.63855388 C70.09135006 418.63506058 68.12244164 418.65119288 66.15360832 418.66815835 C57.44475386 418.60512797 50.79053265 417.02292057 43.35412598 412.45967102 C36.57524679 405.49248963 33.02468198 398.50976727 32.97912598 388.77217102 C33.01106354 386.89698007 33.049524 385.02183892 33.10412598 383.14717102 C32.3538916 383.19357727 31.60365723 383.23998352 30.83068848 383.28779602 C22.07408426 383.59659315 15.80582231 382.03230286 8.35412598 377.45967102 C1.57524679 370.49248963 -1.97531802 363.50976727 -2.02087402 353.77217102 C-1.98893646 351.89698007 -1.950476 350.02183892 -1.89587402 348.14717102 C-3.84493652 347.83779602 -3.84493652 347.83779602 -5.83337402 347.52217102 C-13.41956089 345.79261584 -18.93209829 341.99429588 -23.33337402 335.58467102 C-26.35818411 330.7501455 -28.14429878 326.56404915 -28.15314293 320.80939102 C-28.15959182 319.74603381 -28.16604071 318.68267661 -28.17268503 317.58709645 C-28.16958782 316.42495146 -28.16649062 315.26280646 -28.16329956 314.06544495 C-28.16783067 312.826123 -28.17236179 311.58680105 -28.17703021 310.30992389 C-28.18750374 306.8724484 -28.18899949 303.43518207 -28.18664145 299.99770546 C-28.18623334 296.28932317 -28.19727198 292.58097211 -28.20675659 288.87260437 C-28.22336931 281.60777624 -28.22886628 274.34298057 -28.22998135 267.07813504 C-28.23093178 261.17205247 -28.23504185 255.26598061 -28.2413826 249.35990143 C-28.25899648 232.61241907 -28.26822135 215.86496234 -28.26672165 199.11747065 C-28.26664174 198.21461552 -28.26656183 197.3117604 -28.26647949 196.38154602 C-28.26639773 195.47758743 -28.26631597 194.57362884 -28.26623173 193.64227757 C-28.265419 178.99548237 -28.28455308 164.34879005 -28.31275623 149.70202461 C-28.34149128 134.66022046 -28.35529615 119.61846646 -28.35356867 104.57663417 C-28.35290494 96.13287052 -28.35838975 87.68921469 -28.37992477 79.24547577 C-28.39814486 72.05543628 -28.40247723 64.86555349 -28.38890593 57.6755009 C-28.38238012 54.00850896 -28.38224464 50.34181755 -28.39961243 46.67485428 C-28.41826611 42.69537463 -28.40577819 38.71633273 -28.39035034 34.73683167 C-28.40063747 33.58360955 -28.41092459 32.43038744 -28.42152345 31.24221921 C-28.34169022 21.92195516 -26.02748585 14.66999057 -19.67321777 7.71748352 C-13.93678781 2.64925309 -7.60116767 0.03804058 0 0 Z " fill="#EEECEE" transform="translate(27.8958740234375,46.85282897949219)"/>
<path d="M0 0 C0.98417404 -0.0071553 1.96834808 -0.01431061 2.98234558 -0.02168274 C4.59240227 -0.02571609 4.59240227 -0.02571609 6.23498535 -0.02983093 C7.37031204 -0.03640213 8.50563873 -0.04297333 9.67536926 -0.04974365 C13.43287216 -0.06945834 17.19033521 -0.08113243 20.94787598 -0.09111023 C22.23002487 -0.09518576 23.51217377 -0.09926128 24.83317566 -0.10346031 C30.91470004 -0.12216016 36.99620443 -0.13673132 43.07775164 -0.14507228 C50.09547626 -0.15485704 57.11288652 -0.18121654 64.13050032 -0.22157317 C70.21204029 -0.25534659 76.29344773 -0.26721481 82.37507629 -0.27127647 C84.96192056 -0.27615931 87.54876105 -0.28782112 90.13554382 -0.30631447 C93.74837633 -0.33054717 97.36037847 -0.32977007 100.9732666 -0.32279968 C102.04663773 -0.33560974 103.12000885 -0.3484198 104.22590637 -0.36161804 C111.44318246 -0.31069672 111.44318246 -0.31069672 114.76855469 1.99295044 C116.61990312 4.97909797 116.6683849 6.69108513 116.10412598 10.14717102 C114.74836731 12.80133057 114.74836731 12.80133057 112.10412598 15.14717102 C108.51009199 15.89936349 104.9560527 15.7955558 101.29626465 15.74311829 C99.644394 15.74920609 99.644394 15.74920609 97.95915222 15.75541687 C95.56704387 15.76093914 93.17488755 15.75491161 90.78282738 15.73875618 C86.99548127 15.71339909 83.20922699 15.71811495 79.42182922 15.73065186 C72.06167243 15.74966663 64.70192535 15.73572719 57.3418045 15.71517944 C47.34817594 15.68832855 37.35491091 15.68208517 27.36126137 15.71017265 C23.6324934 15.71353409 19.90439371 15.69230475 16.17570496 15.66976929 C13.88385879 15.67228104 11.59201346 15.67584155 9.3001709 15.68061829 C8.26563782 15.6677327 7.23110474 15.65484711 6.16522217 15.64157104 C-0.05829373 15.68478426 -3.89563633 16.32581524 -8.89587402 20.14717102 C-11.41278759 23.65293567 -12.27105549 26.06938149 -12.27339745 30.36559868 C-12.28122069 31.40232212 -12.28904393 32.43904556 -12.29710424 33.50718486 C-12.29041207 34.63956651 -12.28371991 35.77194816 -12.27682495 36.93864441 C-12.28384491 38.7507414 -12.28384491 38.7507414 -12.29100668 40.59944642 C-12.30090459 43.9496795 -12.29733944 47.29940828 -12.28804803 50.64961076 C-12.28126412 54.26388681 -12.29173559 57.87811859 -12.29998779 61.49238586 C-12.31333518 68.57208178 -12.31044269 75.65168233 -12.30174987 82.731382 C-12.29497661 88.48588316 -12.29405506 94.24035759 -12.29732132 99.9948616 C-12.29778102 100.81367002 -12.29824072 101.63247844 -12.29871435 102.47609923 C-12.29967352 104.13948345 -12.30064616 105.80286766 -12.30163212 107.46625187 C-12.31018924 123.06853809 -12.30034741 138.67077146 -12.28423102 154.27304901 C-12.27083256 167.65836227 -12.27315141 181.04359746 -12.2869873 194.4289093 C-12.30304609 209.97200211 -12.30935995 225.51504855 -12.30015051 241.0581485 C-12.29919487 242.71604863 -12.29825176 244.37394877 -12.29732132 246.03184891 C-12.29685849 246.84756562 -12.29639567 247.66328234 -12.29591881 248.50371774 C-12.29332945 254.24978774 -12.29769888 259.99582832 -12.30475998 265.74189377 C-12.31317872 272.74679516 -12.31088721 279.75159571 -12.29491775 286.75648557 C-12.28703925 290.33001416 -12.28393607 293.9033747 -12.2938652 297.47690201 C-12.3044691 301.35193959 -12.29179791 305.22670266 -12.27682495 309.10173035 C-12.2868632 310.79361066 -12.2868632 310.79361066 -12.29710424 312.51967037 C-12.25219875 318.5004105 -11.8359188 322.8879917 -8.89587402 328.14717102 C-7.17227913 329.75820393 -7.17227913 329.75820393 -5.20837402 330.58467102 C-4.11524902 331.10029602 -3.02212402 331.61592102 -1.89587402 332.14717102 C-1.90475647 331.58198257 -1.91363892 331.01679413 -1.92279053 330.43447876 C-2.011363 324.54592514 -2.07164916 318.6575611 -2.11560059 312.76850891 C-2.13570169 310.5714906 -2.16298708 308.3745257 -2.19763184 306.1776886 C-2.24621496 303.01764236 -2.26885807 299.85830415 -2.28649902 296.69795227 C-2.30714417 295.71756485 -2.32778931 294.73717743 -2.34906006 293.7270813 C-2.35048235 289.39332226 -2.29324526 286.83472642 -0.09020996 283.02290344 C2.10412598 281.14717102 2.10412598 281.14717102 5.60412598 280.58467102 C9.70047739 281.24301321 10.63770936 281.88842038 13.10412598 285.14717102 C13.60292053 288.2832489 13.60292053 288.2832489 13.60241699 292.02363586 C13.60793579 292.70708572 13.61345459 293.39053558 13.61914062 294.09469604 C13.62844805 295.57497158 13.62857608 297.05532719 13.62054634 298.5356102 C13.60790388 300.88192876 13.61921677 303.22707294 13.63658142 305.573349 C13.66328728 309.71063658 13.66887718 313.84763616 13.66748047 317.98500061 C13.66525269 324.59974571 13.67946106 331.2141333 13.72306633 337.82873917 C13.73287782 340.13432474 13.72420044 342.43934516 13.71437073 344.74491882 C13.72051823 346.1672553 13.72743106 347.58958874 13.73522949 349.01191711 C13.73426773 350.247836 13.73330597 351.48375488 13.73231506 352.75712585 C14.25877495 357.55720768 15.96835021 360.83393029 19.10412598 364.45967102 C22.31717638 366.26701187 24.166173 366.48339657 27.79162598 366.75263977 C29.28242676 366.86901794 29.28242676 366.86901794 30.80334473 366.98774719 C31.56260254 367.04035706 32.32186035 367.09296692 33.10412598 367.14717102 C33.10298682 366.57466504 33.10184765 366.00215905 33.10067397 365.4123044 C33.03352936 331.47558726 32.98206105 297.53888523 32.95092999 263.60211614 C32.9471779 259.52663953 32.94329493 255.45116305 32.93933105 251.37568665 C32.93854412 250.56433791 32.93775719 249.75298918 32.93694641 248.91705412 C32.92389503 235.78245595 32.90024266 222.6478972 32.87266759 209.51332241 C32.84460595 196.03449833 32.82794811 182.55569488 32.82186049 169.07684278 C32.81774562 160.76069423 32.80475243 152.4446571 32.78037658 144.12854284 C32.76451003 138.42468247 32.7597277 132.72087966 32.76362184 127.01699883 C32.76554198 123.72688782 32.76096945 120.43701226 32.74650955 117.14692688 C32.73158542 113.57625565 32.7351726 110.00606128 32.74336243 106.43537903 C32.7346239 105.40034382 32.72588538 104.36530862 32.71688205 103.29890871 C32.77517484 93.89683137 35.1790638 86.36933672 41.78771973 79.36201477 C50.36256512 71.23575284 59.27510187 69.54950388 70.82077026 69.6526947 C72.69145312 69.64545146 72.69145312 69.64545146 74.59992754 69.63806188 C78.03601916 69.62878566 81.47120695 69.6373018 84.90721488 69.65359044 C88.6222296 69.6668124 92.33719397 69.65683301 96.05221558 69.64982605 C103.31808613 69.63977021 110.58377387 69.65098833 117.8496217 69.66952665 C126.31191209 69.69033888 134.77416342 69.69015316 143.23647459 69.68918149 C158.33155706 69.68818146 173.42655461 69.70647382 188.52160645 69.73554993 C203.17071071 69.76375243 217.81974028 69.77789009 232.46887207 69.77656555 C233.82360878 69.77644568 233.82360878 69.77644568 235.20571391 69.77632339 C236.10731044 69.77624268 237.00890697 69.77616197 237.93782461 69.77607882 C254.62068354 69.77469983 271.30351075 69.7864713 287.98635941 69.80438525 C293.88667324 69.8104201 299.78698125 69.81254459 305.68729782 69.81344986 C312.87184695 69.81481295 320.05634256 69.82372651 327.24086897 69.84211548 C330.90718512 69.85135851 334.57343275 69.85743982 338.23976135 69.85492706 C342.2096894 69.85233808 346.17947918 69.86521273 350.14938354 69.87974548 C351.31375926 69.87664828 352.47813498 69.87355108 353.67779481 69.87036002 C354.73854427 69.87680891 355.79929374 69.8832578 356.89218712 69.88990211 C357.80872735 69.89131096 358.72526759 69.89271981 359.66958177 69.89417136 C362.31235413 70.16881025 363.8836491 70.70150919 366.10412598 72.14717102 C368.10412598 75.14717102 368.10412598 75.14717102 367.91662598 78.64717102 C366.88354938 83.09734713 366.88354938 83.09734713 364.10412598 85.14717102 C361.78276557 85.52157587 361.78276557 85.52157587 358.98844433 85.52075863 C357.92373573 85.52774837 356.85902712 85.53473812 355.76205462 85.54193968 C354.58814663 85.53436362 353.41423865 85.52678757 352.20475769 85.51898193 C350.96094434 85.5228065 349.71713099 85.52663106 348.43562633 85.53057152 C344.97633322 85.53826973 341.51752446 85.53252416 338.05827153 85.52127469 C334.33014575 85.51244076 330.60205667 85.52091852 326.87393188 85.52748108 C320.41112139 85.53664854 313.94838186 85.53530045 307.48557091 85.52729607 C298.13484049 85.5160791 288.78421148 85.52509261 279.4334899 85.53985787 C264.25477463 85.56364556 249.07607186 85.57699766 233.89733887 85.58100891 C232.98847173 85.58125378 232.07960459 85.58149865 231.14319602 85.58175094 C221.00468415 85.58429648 210.86617324 85.5848639 200.72766113 85.58381653 C197.05244955 85.58348351 193.37723796 85.58319811 189.70202637 85.58296204 C188.79517331 85.58289925 187.88832024 85.58283646 186.95398679 85.58277177 C171.8365297 85.5821671 156.71913031 85.59704248 141.60169727 85.62379509 C132.27422178 85.63961216 122.94693234 85.64184571 113.61945484 85.62666107 C107.22786419 85.61720385 100.83638577 85.62193926 94.44480833 85.63787489 C90.75592943 85.64658054 87.06734858 85.64868281 83.37848473 85.63334846 C79.38023743 85.61686058 75.38268899 85.63113267 71.38444519 85.64837646 C70.21722937 85.63856969 69.05001355 85.62876291 67.84742755 85.61865896 C61.80506391 85.67272872 57.70746154 85.80094695 53.10412598 90.14717102 C48.06149136 95.54222482 48.54334351 101.04180557 48.60292053 108.02766418 C48.59738614 109.23320529 48.59185174 110.43874639 48.58614963 111.68081903 C48.57490123 115.01947055 48.58156731 118.35721068 48.59588635 121.69579244 C48.60700006 125.29913086 48.59505224 128.90240325 48.58604431 132.5057373 C48.57211251 139.56159751 48.57966753 146.61727872 48.59471989 153.67313039 C48.6115819 161.89009826 48.60836949 170.10702155 48.60462581 178.32400137 C48.59874734 192.98530894 48.61291828 207.64653062 48.63757324 222.30781555 C48.66149398 236.53408528 48.66857749 250.76024026 48.65808105 264.98652649 C48.64667136 280.478349 48.64474242 295.97011843 48.65917915 311.46194029 C48.66070499 313.11390908 48.66222534 314.76587788 48.66374016 316.41784668 C48.66487688 317.63704417 48.66487688 317.63704417 48.66603656 318.88087192 C48.670779 324.6083843 48.66892824 330.33587299 48.66467476 336.06338501 C48.65974771 343.04341123 48.66573412 350.02332897 48.68556906 357.00333035 C48.69543971 360.56458607 48.7005487 364.12567661 48.69267654 367.68694115 C48.68431858 371.54695838 48.6992021 375.40668547 48.71644592 379.26667786 C48.71043588 380.39293784 48.70442583 381.51919782 48.69823366 382.67958689 C48.74346093 388.23040389 48.87326053 392.40335069 52.10412598 397.14717102 C56.34013766 400.96991328 58.72336816 402.27045032 64.3633976 402.28583622 C66.04662571 402.29404789 66.04662571 402.29404789 67.76385844 402.30242544 C69.00702716 402.30340355 70.25019588 402.30438166 71.53103638 402.3053894 C73.49983011 402.31279637 73.49983011 402.31279637 75.50839746 402.32035297 C79.1637808 402.33397114 82.81915481 402.34136304 86.47455692 402.34777963 C90.4118567 402.35576747 94.34913696 402.36947078 98.28642273 402.38249207 C105.1121014 402.40427781 111.93778201 402.42241461 118.76347733 402.438097 C128.63237647 402.46077655 138.50125402 402.48892201 148.37013488 402.51841628 C164.38041405 402.5661157 180.39070205 402.6093735 196.40100098 402.64985657 C211.95667202 402.68919955 227.51233522 402.73062289 243.06799316 402.77485657 C244.50544336 402.77894298 244.50544336 402.77894298 245.97193296 402.78311194 C250.77927866 402.79679122 255.58662425 402.81051153 260.39396977 402.82425225 C300.29733887 402.93825394 340.2007248 403.04505512 380.10412598 403.14717102 C380.09413322 401.97445396 380.09413322 401.97445396 380.0839386 400.77804565 C380.02360893 393.37864742 379.97804123 385.97936993 379.94868946 378.57978916 C379.93309168 374.77637731 379.91196249 370.97317017 379.87780762 367.1698761 C379.84500213 363.49346873 379.82722878 359.81725719 379.81949425 356.14071465 C379.81398847 354.74420531 379.80323784 353.34770563 379.78693581 351.95128059 C379.65197154 339.90149249 380.97103118 331.27870201 389.10412598 322.14717102 C396.36611067 315.08145619 404.34469322 313.64155422 414.1865387 313.69398499 C415.59787625 313.71440251 417.00920741 313.73526634 418.42053223 313.75654602 C419.88739749 313.76402056 421.35427285 313.76970775 422.82115173 313.7736969 C426.65345573 313.78885817 430.48513856 313.82805526 434.31719971 313.87251282 C438.23892823 313.91367298 442.16075863 313.93175186 446.0826416 313.95185852 C453.75675074 313.99456103 461.43035082 314.06269384 469.10412598 314.14717102 C469.04363883 285.67940614 468.96617251 257.21173149 468.86841106 228.7440691 C468.82341747 215.52647511 468.78401102 202.30890827 468.75769043 189.09126282 C468.73473923 177.57273423 468.70137345 166.05429134 468.65542442 154.53583068 C468.63145342 148.43511691 468.61275004 142.33448822 468.60651207 136.23372841 C468.60047879 130.49392802 468.58054251 124.75434543 468.54985046 119.01462555 C468.54104204 116.9059036 468.53735343 114.79715323 468.53911781 112.68841362 C468.54076442 109.81286581 468.52412348 106.93798677 468.50285339 104.06253052 C468.50770097 103.22497705 468.51254855 102.38742358 468.51754302 101.5244897 C468.46112768 96.91404716 468.10341594 93.87914712 465.10412598 90.14717102 C458.42716453 85.4062293 451.68192366 85.59793702 443.75665855 85.66131592 C441.51584351 85.67871216 439.27630293 85.67100238 437.03547668 85.65705872 C432.28743711 85.63184592 427.53970515 85.63721446 422.79162598 85.64717102 C417.26939161 85.65870434 411.74778125 85.6576134 406.22562599 85.62310791 C404.01889161 85.61601122 401.8131472 85.63268411 399.60649109 85.65022278 C398.2576341 85.64451754 396.9087812 85.63770155 395.55993652 85.6295929 C394.3827153 85.63277527 393.20549408 85.63595764 391.99259949 85.63923645 C389.10412598 85.14717102 389.10412598 85.14717102 387.23188782 83.33576965 C385.54425331 80.06065034 385.58694761 77.76741961 386.10412598 74.14717102 C388.23725525 71.70013006 389.96322265 70.33274053 393.21829224 69.80329895 C395.82126522 69.68378329 398.39359418 69.69775296 400.99865723 69.75654602 C402.41969002 69.76503571 402.41969002 69.76503571 403.86943054 69.7736969 C406.88568333 69.79603018 409.9007342 69.84622122 412.91662598 69.89717102 C414.96543691 69.91723995 417.01426652 69.93549003 419.06311035 69.95185852 C424.07724306 69.99588508 429.09048096 70.06489193 434.10412598 70.14717102 C433.96439439 68.53997568 433.81872385 66.93329589 433.67053223 65.32685852 C433.59004639 64.43208801 433.50956055 63.5373175 433.42663574 62.61543274 C432.99876681 59.34082646 432.34234898 57.60199625 430.10412598 55.14717102 C422.57544932 50.07581882 414.81791548 50.58593305 406.07284546 50.63923645 C404.42854101 50.63462478 402.78424069 50.62827008 401.13994896 50.62032747 C396.63166841 50.60364787 392.12372707 50.61187424 387.61544538 50.62427235 C382.74969018 50.63332596 377.88399314 50.61935165 373.01824951 50.60835266 C363.49083268 50.59056701 353.9635419 50.59440742 344.43612014 50.60600322 C336.69416972 50.61503602 328.95225462 50.61626221 321.21030045 50.61190796 C320.10852293 50.61129503 319.00674541 50.61068209 317.8715807 50.61005059 C315.63338135 50.60877169 313.39518201 50.60747484 311.15698268 50.60616022 C290.17058487 50.59475456 269.18425697 50.60786848 248.19787063 50.62936169 C230.1856304 50.64723762 212.17349326 50.64412444 194.16125488 50.62568665 C173.24695612 50.60428828 152.3327186 50.59584796 131.41841042 50.6081357 C129.18904695 50.60940991 126.95968347 50.61066739 124.73031998 50.61190796 C123.63340826 50.61252506 122.53649655 50.61314216 121.40634509 50.61377797 C113.67153563 50.61723359 105.93676497 50.61139804 98.20196152 50.60198975 C88.77907539 50.5907801 79.35632258 50.59378826 69.93345176 50.61511272 C65.12459544 50.62563627 60.31596153 50.62972266 55.50710678 50.61651611 C51.10665036 50.60461373 46.70662292 50.61111904 42.30620553 50.63242632 C40.71281305 50.63690148 39.11938448 50.63460565 37.52601515 50.62492317 C35.36208625 50.61278026 33.19963162 50.62521054 31.03577995 50.64380646 C29.83336532 50.64445587 28.6309507 50.64510528 27.39209926 50.64577436 C22.19239816 51.43869831 19.12271668 53.95823318 15.7594595 57.883955 C13.7683138 61.80916914 13.55476912 65.05925463 13.61878967 69.35862732 C13.61282954 70.5748988 13.61282954 70.5748988 13.606749 71.81574142 C13.59817864 74.52437941 13.61796664 77.23205866 13.63757324 79.94062805 C13.63702438 81.88573842 13.63464888 83.830849 13.63058472 85.7759552 C13.62541119 89.96009499 13.63247195 94.14397265 13.64883614 98.32808304 C13.67394219 104.94151248 13.6676745 111.55468278 13.65635681 118.1681366 C13.63315238 134.59110879 13.65161654 151.01400605 13.67785645 167.43696594 C13.69778424 180.20681733 13.70641926 192.97646235 13.68092006 205.74631393 C13.66908348 212.32366995 13.68080511 218.90043869 13.71017277 225.47773385 C13.72340285 229.56423983 13.71602733 233.65051655 13.7028923 237.73701477 C13.70103162 239.63494396 13.70778798 241.53290363 13.72369576 243.43076706 C13.74419956 246.01770052 13.7341678 248.60276976 13.71644592 251.18968201 C13.72984766 251.94434569 13.7432494 252.69900936 13.75705725 253.47654164 C13.69757867 257.23860128 13.38622042 258.84242373 10.79241848 261.64451408 C8.10412598 263.14717102 8.10412598 263.14717102 4.47912598 263.14717102 C1.10412598 262.14717102 1.10412598 262.14717102 -0.58258152 260.58312511 C-2.42669062 257.16258848 -2.31366149 253.96164519 -2.28355408 250.17190552 C-2.28893961 249.36221099 -2.29432515 248.55251646 -2.29987389 247.71828574 C-2.31419648 245.00147435 -2.3070391 242.28514726 -2.29992676 239.5683136 C-2.30562826 237.62175606 -2.31259166 235.67520186 -2.32072449 233.72865295 C-2.33870009 228.43708394 -2.33747866 223.14568037 -2.3317821 217.85408998 C-2.3286951 213.43581179 -2.33477761 209.01756561 -2.34082085 204.59929198 C-2.35488034 194.17210945 -2.35329433 183.74500882 -2.34191895 173.31782532 C-2.33044965 162.56715403 -2.34449023 151.81673256 -2.37131542 141.06609422 C-2.39348838 131.83365969 -2.40010579 122.60130347 -2.39423901 113.36884421 C-2.39087045 107.85599173 -2.3932773 102.34329919 -2.41049004 96.83046913 C-2.42598127 91.64213627 -2.42197924 86.45417228 -2.40318489 81.26585388 C-2.39950436 79.36520139 -2.4025918 77.46452144 -2.41307068 75.56389427 C-2.5062382 57.26276976 -2.5062382 57.26276976 2.10412598 50.14717102 C2.48222192 49.50059445 2.86031786 48.85401789 3.24987125 48.18784809 C6.90198955 42.12931343 12.66931578 38.29191961 19.29612732 36.08334541 C25.93923019 34.49254576 32.8187663 34.87891348 39.60632324 34.90666199 C41.19302692 34.90578921 42.77973032 34.90403691 44.36643219 34.90148365 C48.71519728 34.89702024 53.06386351 34.90499998 57.41261601 34.91503978 C62.10645238 34.92368647 66.80028328 34.92075325 71.49412537 34.91923523 C79.62276528 34.91818715 87.75137305 34.92445571 95.88000488 34.93571091 C107.63260015 34.95197337 119.3851799 34.95717468 131.1377852 34.95968689 C150.20616411 34.96406282 169.27452589 34.97736916 188.34289551 34.99629211 C206.86470453 35.01465355 225.3865089 35.02880877 243.9083252 35.03730774 C245.05024271 35.03783319 246.19216023 35.03835863 247.36868131 35.0389 C253.0974155 35.0415101 258.82614972 35.04403751 264.55488396 35.04652381 C312.0713098 35.06725313 359.58771705 35.10247589 407.10412598 35.14717102 C406.99807563 33.38726272 406.87660456 31.62827925 406.74865723 29.86982727 C406.68267334 28.89022034 406.61668945 27.9106134 406.54870605 26.90132141 C405.86074375 22.6394308 404.27403397 21.02220385 401.10412598 18.14717102 C398.15690199 16.3700413 396.00278799 15.89711242 392.57820892 15.89663124 C391.67051207 15.89163254 390.76281522 15.88663385 389.8276124 15.88148367 C388.83423664 15.88614689 387.84086087 15.8908101 386.81738281 15.89561462 C385.75914732 15.89264449 384.70091182 15.88967435 383.61060858 15.8866142 C380.05305464 15.87895564 376.49566489 15.88547585 372.93811035 15.89179993 C370.39231758 15.88905096 367.84652567 15.88537163 365.30073547 15.88082886 C359.8130512 15.87270778 354.32541154 15.87038811 348.83772278 15.87277603 C340.89907654 15.87587181 332.96050169 15.86424164 325.02187341 15.84822623 C312.13637414 15.82226069 299.25087481 15.80224316 286.36535645 15.78877258 C285.59409847 15.78796221 284.82284049 15.78715184 284.02821106 15.78631692 C273.07882097 15.77509125 262.12943596 15.76981334 251.1800409 15.76692979 C250.40878292 15.7667258 249.63752494 15.76652181 248.84289551 15.76631165 C248.07257616 15.76611171 247.30225681 15.76591177 246.50859445 15.76570578 C233.6714689 15.76197522 220.83442078 15.74290718 207.997334 15.71121728 C200.07704825 15.69228355 192.15696087 15.68635285 184.23665869 15.69703446 C178.17147392 15.70408938 172.10651643 15.69060429 166.04135704 15.66941643 C163.55002538 15.66407517 161.05866832 15.66562397 158.56734657 15.67445183 C155.17485074 15.6855064 151.78330622 15.6722181 148.39086914 15.6526947 C146.90080549 15.66638169 146.90080549 15.66638169 145.38063955 15.68034518 C138.74335453 15.60565669 138.74335453 15.60565669 135.52761078 13.29916954 C133.62337755 10.42038427 133.03334587 8.61539607 133.10412598 5.14717102 C135.11525959 2.26227105 136.74389367 0.43489764 140.27800882 -0.3126651 C143.0580954 -0.49752108 145.79847599 -0.51405901 148.5846405 -0.48101807 C149.65174769 -0.48811245 150.71885487 -0.49520684 151.81829864 -0.50251621 C155.40051109 -0.52014337 158.98164532 -0.50196587 162.56384277 -0.4839325 C165.12960811 -0.48906962 167.69536991 -0.49634932 170.26112366 -0.50561523 C176.51171351 -0.52400001 182.76199086 -0.51547278 189.012571 -0.49752701 C194.09534069 -0.48349835 199.17802557 -0.47960878 204.26081276 -0.48296928 C204.98439273 -0.48344673 205.70797269 -0.48392417 206.45347932 -0.48441608 C207.92350836 -0.48544243 209.39353738 -0.48649779 210.86356638 -0.48758184 C223.8659345 -0.49615139 236.86815195 -0.47946916 249.8704834 -0.44975281 C262.47569111 -0.42094457 275.0806815 -0.41381738 287.68591309 -0.429245 C301.41729504 -0.44602795 315.14857377 -0.45001773 328.87995845 -0.43253464 C330.34609241 -0.43069031 331.81222638 -0.42885558 333.27836037 -0.42703056 C333.9996752 -0.42611847 334.72099003 -0.42520638 335.46416288 -0.42426665 C340.53556633 -0.41867196 345.60691924 -0.42195874 350.67831993 -0.42857552 C357.51478204 -0.43714109 364.35092663 -0.42407661 371.18733788 -0.39672661 C373.69388401 -0.38985164 376.20045935 -0.38973522 378.70700455 -0.39694214 C382.13458025 -0.40565989 385.56119745 -0.38963949 388.98869324 -0.36749268 C389.97558268 -0.37573344 390.96247212 -0.38397421 391.9792673 -0.3924647 C399.81410149 -0.29934046 406.17693058 1.73730112 412.85412598 5.83467102 C419.63300517 12.80185241 423.18356997 19.78457477 423.22912598 29.52217102 C423.19718842 31.39736197 423.15872795 33.27250312 423.10412598 35.14717102 C424.40350098 35.35342102 425.70287598 35.55967102 427.04162598 35.77217102 C434.62781284 37.5017262 440.14035024 41.30004616 444.54162598 47.70967102 C447.98119825 53.20710705 449.36125869 57.41910152 449.22912598 63.95967102 C449.2110791 65.12111633 449.19303223 66.28256165 449.17443848 67.47920227 C449.13963379 68.7998468 449.13963379 68.7998468 449.10412598 70.14717102 C449.85436035 70.10076477 450.60459473 70.05435852 451.37756348 70.00654602 C460.42700937 69.68742198 467.4963892 71.20534382 474.85412598 76.64717102 C485.20892837 86.88638822 485.4135585 99.895281 486.22937012 113.54585266 C486.37499719 115.70683448 486.52146653 117.86775967 486.66870689 120.02863216 C488.46430725 147.37858385 489.45660555 174.77035152 490.11663544 202.16857082 C490.16653687 204.20603301 490.21907062 206.24341209 490.27229977 208.28078985 C493.44778267 330.99767146 493.44778267 330.99767146 456.32843238 370.39143723 C450.80892413 376.07224342 444.86360907 381.208818 438.72912598 386.20967102 C438.18769282 386.65353732 437.64625966 387.09740361 437.08841944 387.5547204 C399.48606808 418.25693328 399.48606808 418.25693328 385.65414429 418.2813921 C384.48939166 418.28584994 383.32463903 418.29030779 382.12459087 418.29490072 C380.83377007 418.29471635 379.54294928 418.29453199 378.2130127 418.29434204 C376.83660433 418.29763983 375.46019693 418.30136522 374.08379078 418.30548352 C370.28808693 418.31552182 366.49239889 418.31922327 362.69668365 418.32187283 C358.60786626 418.32577062 354.51906145 418.3353495 350.43025208 418.34408569 C340.5473786 418.36386782 330.66450407 418.37391978 320.78161573 418.38281348 C316.12867128 418.38719463 311.47572797 418.39256199 306.82278442 418.39780235 C291.35594418 418.41481847 275.88910464 418.42931188 260.42225647 418.43655109 C256.40654499 418.43846103 252.39083352 418.44038135 248.37512207 418.44233704 C247.37702023 418.44282078 246.37891839 418.44330452 245.35057104 418.44380292 C229.18786896 418.45210026 213.02524097 418.47743048 196.86257124 418.50991771 C180.27161608 418.542994 163.68069854 418.56100048 147.08971024 418.56419533 C137.77340353 418.5663602 128.45720476 418.57510513 119.14093018 418.60065651 C111.20499528 418.6223715 103.26919453 418.6304101 95.3332333 418.62068973 C91.28539303 418.61614696 87.23782949 418.6180296 83.19002724 418.63745117 C79.47994493 418.65509816 75.77034088 418.65407304 72.06025338 418.63855388 C70.09135006 418.63506058 68.12244164 418.65119288 66.15360832 418.66815835 C57.44475386 418.60512797 50.79053265 417.02292057 43.35412598 412.45967102 C36.57524679 405.49248963 33.02468198 398.50976727 32.97912598 388.77217102 C33.01106354 386.89698007 33.049524 385.02183892 33.10412598 383.14717102 C32.3538916 383.19357727 31.60365723 383.23998352 30.83068848 383.28779602 C22.07408426 383.59659315 15.80582231 382.03230286 8.35412598 377.45967102 C1.57524679 370.49248963 -1.97531802 363.50976727 -2.02087402 353.77217102 C-1.98893646 351.89698007 -1.950476 350.02183892 -1.89587402 348.14717102 C-3.84493652 347.83779602 -3.84493652 347.83779602 -5.83337402 347.52217102 C-13.41956089 345.79261584 -18.93209829 341.99429588 -23.33337402 335.58467102 C-26.35818411 330.7501455 -28.14429878 326.56404915 -28.15314293 320.80939102 C-28.15959182 319.74603381 -28.16604071 318.68267661 -28.17268503 317.58709645 C-28.16958782 316.42495146 -28.16649062 315.26280646 -28.16329956 314.06544495 C-28.16783067 312.826123 -28.17236179 311.58680105 -28.17703021 310.30992389 C-28.18750374 306.8724484 -28.18899949 303.43518207 -28.18664145 299.99770546 C-28.18623334 296.28932317 -28.19727198 292.58097211 -28.20675659 288.87260437 C-28.22336931 281.60777624 -28.22886628 274.34298057 -28.22998135 267.07813504 C-28.23093178 261.17205247 -28.23504185 255.26598061 -28.2413826 249.35990143 C-28.25899648 232.61241907 -28.26822135 215.86496234 -28.26672165 199.11747065 C-28.26664174 198.21461552 -28.26656183 197.3117604 -28.26647949 196.38154602 C-28.26639773 195.47758743 -28.26631597 194.57362884 -28.26623173 193.64227757 C-28.265419 178.99548237 -28.28455308 164.34879005 -28.31275623 149.70202461 C-28.34149128 134.66022046 -28.35529615 119.61846646 -28.35356867 104.57663417 C-28.35290494 96.13287052 -28.35838975 87.68921469 -28.37992477 79.24547577 C-28.39814486 72.05543628 -28.40247723 64.86555349 -28.38890593 57.6755009 C-28.38238012 54.00850896 -28.38224464 50.34181755 -28.39961243 46.67485428 C-28.41826611 42.69537463 -28.40577819 38.71633273 -28.39035034 34.73683167 C-28.40063747 33.58360955 -28.41092459 32.43038744 -28.42152345 31.24221921 C-28.34169022 21.92195516 -26.02748585 14.66999057 -19.67321777 7.71748352 C-13.93678781 2.64925309 -7.60116767 0.03804058 0 0 Z " fill="#020201" transform="translate(27.8958740234375,46.85282897949219)"/>
<path d="M0 0 C5.61 0 11.22 0 17 0 C17.99 1.98 18.98 3.96 20 6 C22.33138991 7.16569495 23.67752518 7.12586728 26.27423477 7.12749195 C27.62795681 7.13200342 27.62795681 7.13200342 29.00902677 7.13660604 C30.00686397 7.13485567 31.00470118 7.13310529 32.03277588 7.13130188 C33.61544915 7.13447545 33.61544915 7.13447545 35.23009562 7.13771313 C38.78914951 7.1437364 42.34816818 7.14271133 45.90722656 7.1418457 C48.44947877 7.14487566 50.99173043 7.14839666 53.53398132 7.15237427 C59.02059275 7.16027625 64.50719665 7.16543363 69.99381256 7.16866493 C78.66571514 7.17415733 87.33757829 7.1910508 96.00946045 7.21000671 C98.97525399 7.2163638 101.94104764 7.22267219 104.90684128 7.22898388 C106.01869882 7.23135952 106.01869882 7.23135952 107.15301813 7.23378316 C115.59468503 7.25172741 124.03635473 7.26794975 132.47802734 7.28295898 C133.63582388 7.28502279 133.63582388 7.28502279 134.81701025 7.28712829 C147.32232324 7.30905335 159.82762611 7.31981303 172.33295491 7.32732973 C185.16777352 7.33540016 198.00250528 7.35868891 210.83727431 7.3952834 C218.75587514 7.41731428 226.67429744 7.42697129 234.59292737 7.42078307 C240.66203553 7.41723392 246.73090152 7.43446693 252.79996681 7.45946121 C255.29045221 7.46639423 257.78096736 7.46647702 260.27145195 7.45926094 C263.66774438 7.45041314 267.06307538 7.46600179 270.45928955 7.48774719 C271.94266103 7.47508339 271.94266103 7.47508339 273.45599961 7.46216375 C280.51841228 7.54595297 284.01851126 9.41081241 289.375 14.0625 C291.20615264 17.37266054 291.17265012 18.9624301 291.1015625 22.68359375 C291.07956787 24.17524048 291.07956787 24.17524048 291.05712891 25.69702148 C291.03827637 26.45700439 291.01942383 27.2169873 291 28 C290.19338082 28.00097681 289.38676165 28.00195362 288.55569947 28.00296003 C240.74871371 28.06123224 192.94177341 28.13502919 145.13484377 28.22898628 C139.39458357 28.24025444 133.65432312 28.2513929 127.9140625 28.26245117 C126.19988897 28.2657567 126.19988897 28.2657567 124.45108567 28.269129 C105.94741642 28.30450122 87.44374722 28.32936579 68.9400567 28.35034702 C49.95351299 28.37210965 30.96701316 28.40516451 11.98050678 28.44870156 C0.26486607 28.47521024 -11.45071997 28.4929114 -23.16638918 28.49934604 C-31.20030009 28.50460229 -39.23414222 28.52082733 -47.26801626 28.54566566 C-51.90309854 28.55967241 -56.5380577 28.56885452 -61.17316246 28.56500816 C-65.41989501 28.56159099 -69.66636486 28.57200274 -73.91304363 28.59323552 C-75.44617682 28.59849174 -76.97933738 28.59875061 -78.51247023 28.59339563 C-90.39392108 28.55613551 -101.15239271 29.23121327 -110 38 C-115.36809136 44.84329204 -117.3030409 51.57795302 -117.26742554 60.24942017 C-117.27195665 61.06435137 -117.27648776 61.87928258 -117.28115618 62.71890867 C-117.29378515 65.4410819 -117.29218082 68.16305468 -117.29052734 70.88525391 C-117.2965133 72.84021766 -117.303319 74.79517905 -117.31088257 76.75013733 C-117.32853722 82.05361314 -117.33323757 87.3570244 -117.33451414 92.66052675 C-117.33641406 97.08682734 -117.34377219 101.51311291 -117.35085833 105.93940771 C-117.36713582 116.37790716 -117.37202765 126.81637212 -117.37060547 137.25488281 C-117.36940237 148.03067815 -117.39053928 158.80627374 -117.4220928 169.58201849 C-117.44821375 178.83139192 -117.45897461 188.08069991 -117.45769465 197.33010995 C-117.45718403 202.85563901 -117.46292304 208.38099032 -117.48405075 213.9064827 C-117.50336416 219.09891479 -117.50360504 224.29099817 -117.48901749 229.48344231 C-117.48692009 231.39104024 -117.49168532 233.29865962 -117.5037384 235.20622063 C-117.5191049 237.80607711 -117.50994067 240.40471806 -117.49447632 243.00454712 C-117.50476344 243.76310175 -117.51505057 244.52165637 -117.52564943 245.3031975 C-117.48029175 248.74270166 -117.22806613 250.68305222 -115.19565773 253.50752831 C-112.94225777 255.35509013 -112.94225777 255.35509013 -109.375 254.875 C-105.95457945 254.29259286 -105.95457945 254.29259286 -104 252 C-103.80333794 249.39271823 -103.7324492 246.89143103 -103.7484436 244.28302002 C-103.74547346 243.4770012 -103.74250333 242.67098238 -103.73944318 241.84053874 C-103.7317702 239.12441567 -103.73831067 236.40850675 -103.74462891 233.69238281 C-103.74188052 231.75110731 -103.73820156 229.80983293 -103.73365784 227.86856079 C-103.72552998 223.68007134 -103.72338137 219.49163532 -103.72560501 215.30313873 C-103.72843126 208.68111282 -103.7141114 202.05919421 -103.69662476 195.43719482 C-103.64953339 176.60397969 -103.62565763 157.77077136 -103.61914062 138.9375 C-103.61539153 128.54218091 -103.59737225 118.1469827 -103.56404626 107.75171542 C-103.54380669 101.1683461 -103.54147486 94.58528801 -103.55232644 88.0019002 C-103.55493194 83.90437235 -103.54093696 79.80702598 -103.52224541 75.70954514 C-103.51691861 73.80925279 -103.51842852 71.90892711 -103.52728081 70.00864792 C-103.53839416 67.41363546 -103.52497989 64.81985192 -103.50552368 62.22491455 C-103.51464834 61.47334808 -103.523773 60.7217816 -103.53317416 59.94744039 C-103.45851355 54.827684 -102.20508015 51.95358016 -99 48 C-94.2366754 43.80373785 -91.87083536 42.87515354 -85.56053734 42.86577892 C-84.88865369 42.86342669 -84.21677005 42.86107446 -83.5245263 42.85865095 C-81.25090321 42.85194178 -78.97733701 42.85241975 -76.70370483 42.85282898 C-75.06600883 42.84953154 -73.42831364 42.84580622 -71.79061949 42.8416875 C-67.2727555 42.83164559 -62.7549048 42.82794719 -58.23703122 42.82529819 C-53.37114981 42.82140156 -48.50527897 42.81182273 -43.6394043 42.80308533 C-31.8788824 42.78330173 -20.11835961 42.77325187 -8.35782522 42.76435754 C-2.8229879 42.75997735 2.71184847 42.75460981 8.24668503 42.74936867 C26.64046594 42.73235376 45.03424625 42.71785922 63.42803383 42.71061993 C68.20381292 42.70870995 72.97959202 42.70678963 77.75537109 42.70483398 C79.53592388 42.70410837 79.53592388 42.70410837 81.35244744 42.7033681 C100.58486174 42.69506651 119.81721388 42.66972856 139.04960103 42.63725331 C158.7842408 42.60420104 178.51884896 42.58617278 198.25351655 42.58297569 C209.33815449 42.58080879 220.42270178 42.57203393 231.50731277 42.54651451 C240.9471028 42.52483246 250.38678018 42.51674476 259.82659228 42.52648129 C264.64376918 42.53103336 269.46071356 42.52908718 274.27785873 42.50971985 C278.68850517 42.4921399 283.09874857 42.49304377 287.50939898 42.50861714 C289.10436146 42.5110011 290.69935147 42.5066289 292.29427178 42.49478849 C307.18975512 42.39106381 307.18975512 42.39106381 314 47 C317.52756735 50.70394572 318.19070841 53.25797875 318.09375 58.2109375 C318.08021484 59.1086084 318.06667969 60.0062793 318.05273438 60.93115234 C318.02663086 61.95523193 318.02663086 61.95523193 318 63 C316.07752441 63.02187378 316.07752441 63.02187378 314.11621094 63.04418945 C309.35990535 63.1021732 304.60407315 63.17940633 299.84814453 63.26245117 C297.78995447 63.29570011 295.73167324 63.32373214 293.67333984 63.34643555 C290.71412309 63.3799819 287.75574183 63.43229802 284.796875 63.48828125 C283.87694763 63.49467117 282.95702026 63.5010611 282.00921631 63.50764465 C277.05109968 63.61432949 277.05109968 63.61432949 272.45019531 65.28198242 C270.64762483 67.16159468 270.64762483 67.16159468 270 71 C264.06 71 258.12 71 252 71 C251.34 69.02 250.68 67.04 250 65 C247.11457668 63.61023493 243.95926418 63.87196733 240.78806114 63.86577892 C239.72731168 63.86132108 238.66656222 63.85686324 237.57366884 63.85227031 C236.40929312 63.85245467 235.2449174 63.85263903 234.04525757 63.85282898 C232.80749561 63.84915229 231.56973365 63.8454756 230.29446375 63.8416875 C226.85671549 63.83256706 223.41901493 63.82795237 219.98125911 63.82529819 C216.27421119 63.82139207 212.56717705 63.81181394 208.86013794 63.80308533 C199.90654747 63.78332955 190.95295588 63.7732558 181.99934906 63.76435754 C177.78174735 63.75997316 173.56414689 63.75460673 169.34654617 63.74936867 C155.32422077 63.73235723 141.30189614 63.71786339 127.279562 63.71061993 C123.64129002 63.70871007 120.00301805 63.70678973 116.36474609 63.70483398 C115.46048431 63.70435024 114.55622253 63.7038665 113.62455888 63.7033681 C98.97838076 63.69506902 84.33228434 63.66973379 69.68614189 63.63725331 C54.64550028 63.60417019 39.60490017 63.58617003 24.56422198 63.58297569 C16.12096313 63.58081174 7.67782343 63.57208006 -0.76539993 63.54651451 C-7.9565248 63.52479038 -15.14750158 63.51676549 -22.33865555 63.52648129 C-26.00577053 63.53102108 -29.67258007 63.52915891 -33.33965302 63.50971985 C-37.32101333 63.48879764 -41.30195469 63.4990894 -45.28335571 63.51225281 C-46.4343471 63.50128356 -47.58533849 63.49031432 -48.77120841 63.47901267 C-58.82927197 63.55919428 -66.82167806 66.03012879 -74.2421875 73 C-79.33154686 78.79055999 -82.11387366 85.04765711 -82.1386652 92.74011612 C-82.14413964 93.69556391 -82.14961409 94.6510117 -82.15525442 95.63541245 C-82.15623253 96.68209903 -82.15721064 97.7287856 -82.15821838 98.80718994 C-82.16315636 99.92133388 -82.16809434 101.03547782 -82.17318195 102.1833837 C-82.18858326 105.92987146 -82.19692474 109.67634204 -82.20532227 113.42285156 C-82.21489872 116.103213 -82.22486523 118.78357034 -82.23532104 121.46392822 C-82.25707838 127.24134862 -82.27522559 133.01877133 -82.29092598 138.79621124 C-82.31363136 147.14943528 -82.34177327 155.50263402 -82.37124526 163.8558366 C-82.41891297 177.40811167 -82.46217938 190.96039708 -82.50268555 204.51269531 C-82.54204465 217.67806808 -82.58347187 230.84343166 -82.62768555 244.00878906 C-82.63040982 244.82020097 -82.63313409 245.63161287 -82.63594092 246.46761301 C-82.64962046 250.53819797 -82.66334072 254.60878279 -82.67708123 258.67936754 C-82.79103311 292.45289272 -82.89784532 326.22643708 -83 360 C-84.74807169 360.07296988 -86.49703051 360.12487568 -88.24609375 360.16796875 C-89.70680298 360.21473755 -89.70680298 360.21473755 -91.19702148 360.26245117 C-95.02071274 359.90442765 -96.93606859 358.37834096 -99.66015625 355.80078125 C-102.91635009 351.42438078 -103.25281548 347.31156993 -103.27124023 341.96240234 C-103.27646698 341.27398758 -103.28169373 340.58557281 -103.28707886 339.876297 C-103.29728239 338.38893271 -103.30309287 336.90153309 -103.30496025 335.41413498 C-103.30863361 333.06039595 -103.32538385 330.70707458 -103.34571838 328.35342407 C-103.40105543 321.66440579 -103.43187926 314.97532798 -103.45629883 308.28613281 C-103.47215557 304.18889024 -103.5023465 300.09194853 -103.54106331 295.9948616 C-103.55272198 294.43436495 -103.55864373 292.87381458 -103.55874443 291.31327438 C-103.55893607 289.13479811 -103.57716842 286.95715561 -103.59936523 284.77880859 C-103.60443588 283.53924408 -103.60950653 282.29967957 -103.61473083 281.02255249 C-103.76044001 278.03750858 -103.76044001 278.03750858 -105.30628967 276.10366821 C-108.20638304 274.21388765 -110.66364667 274.58295583 -114 275 C-116.72263771 277.79235574 -117.37953626 279.83023948 -117.43237305 283.67675781 C-117.46206429 285.05773651 -117.46206429 285.05773651 -117.49235535 286.46661377 C-117.49874527 287.45216248 -117.50513519 288.43771118 -117.51171875 289.453125 C-117.52966995 290.46848328 -117.54762115 291.48384155 -117.56611633 292.52996826 C-117.62025707 295.76993672 -117.65412762 299.00975753 -117.6875 302.25 C-117.72066969 304.44793723 -117.75515902 306.64585496 -117.79101562 308.84375 C-117.87598556 314.22903427 -117.94431954 319.61433756 -118 325 C-122.39940331 323.39082228 -124.91926436 321.59419158 -128 318 C-129.04406493 314.95249129 -129.12781168 312.10695934 -129.13422108 308.90182686 C-129.13867892 307.86647777 -129.14313676 306.83112868 -129.14772969 305.76440537 C-129.14754533 304.62842876 -129.14736097 303.49245215 -129.14717102 302.322052 C-129.15084771 301.1141362 -129.1545244 299.9062204 -129.1583125 298.66170108 C-129.16743181 295.30744262 -129.17204735 291.95323305 -129.17470181 288.59896684 C-129.17860822 284.98197563 -129.18818613 281.36499854 -129.19691467 277.74801636 C-129.21666648 269.01395244 -129.22674231 260.27988737 -129.23564246 251.54580671 C-129.24002626 247.43328642 -129.24539272 243.32076741 -129.25063133 239.20824814 C-129.26764006 225.53934306 -129.28213554 211.87043877 -129.28938007 198.20152473 C-129.29128997 194.65534591 -129.2932103 191.10916708 -129.29516602 187.56298828 C-129.29564976 186.68160218 -129.2961335 185.80021607 -129.2966319 184.8921213 C-129.3049372 170.60536549 -129.33028412 156.31869326 -129.36274669 142.03197397 C-129.39579853 127.36651574 -129.41382701 112.70110004 -129.41702431 98.03560436 C-129.41919083 89.80038763 -129.42796046 81.56529291 -129.45348549 73.33011246 C-129.47516664 66.31893342 -129.4832556 59.30790604 -129.47351871 52.29669727 C-129.46896684 48.71918684 -129.4709113 45.1419895 -129.49028015 41.56452179 C-129.51109326 37.6868555 -129.50094979 33.80962303 -129.48774719 29.93191528 C-129.49871644 28.80040012 -129.50968568 27.66888495 -129.52098733 26.50308144 C-129.47029391 20.35572749 -129.1761372 16.64151272 -125 12 C-119.1169667 7.47600286 -114.04214781 7.43836176 -106.78808594 7.51757812 C-105.67997559 7.51366562 -104.57186523 7.50975311 -103.43017578 7.50572205 C-101.03320635 7.49976 -98.63620062 7.50289355 -96.23925018 7.5141449 C-92.44865622 7.53141271 -88.65882434 7.52389643 -84.8682251 7.5098877 C-76.82874919 7.48456012 -68.78948989 7.4898597 -60.75 7.5 C-51.42012601 7.51175318 -42.09066315 7.51048508 -32.76081085 7.47593689 C-29.0208131 7.46881934 -25.28139488 7.485547 -21.54144287 7.50305176 C-19.25907066 7.49734732 -16.97670087 7.49053173 -14.69433594 7.48242188 C-13.12803436 7.49939369 -13.12803436 7.49939369 -11.53009033 7.51670837 C-10.10025818 7.50451012 -10.10025818 7.50451012 -8.64154053 7.49206543 C-7.81272243 7.49357353 -6.98390434 7.49508163 -6.12997055 7.49663544 C-3.83922291 7.170352 -3.83922291 7.170352 -2.27240372 5.15674591 C-0.86417211 2.94199868 -0.86417211 2.94199868 0 0 Z " fill="#F9CD01" transform="translate(144,54)"/>
<path d="M0 0 C5.61 0 11.22 0 17 0 C17.99 1.98 18.98 3.96 20 6 C22.33138991 7.16569495 23.67752518 7.12586728 26.27423477 7.12749195 C27.62795681 7.13200342 27.62795681 7.13200342 29.00902677 7.13660604 C30.00686397 7.13485567 31.00470118 7.13310529 32.03277588 7.13130188 C33.61544915 7.13447545 33.61544915 7.13447545 35.23009562 7.13771313 C38.78914951 7.1437364 42.34816818 7.14271133 45.90722656 7.1418457 C48.44947877 7.14487566 50.99173043 7.14839666 53.53398132 7.15237427 C59.02059275 7.16027625 64.50719665 7.16543363 69.99381256 7.16866493 C78.66571514 7.17415733 87.33757829 7.1910508 96.00946045 7.21000671 C98.97525399 7.2163638 101.94104764 7.22267219 104.90684128 7.22898388 C106.01869882 7.23135952 106.01869882 7.23135952 107.15301813 7.23378316 C115.59468503 7.25172741 124.03635473 7.26794975 132.47802734 7.28295898 C133.63582388 7.28502279 133.63582388 7.28502279 134.81701025 7.28712829 C147.32232324 7.30905335 159.82762611 7.31981303 172.33295491 7.32732973 C185.16777352 7.33540016 198.00250528 7.35868891 210.83727431 7.3952834 C218.75587514 7.41731428 226.67429744 7.42697129 234.59292737 7.42078307 C240.66203553 7.41723392 246.73090152 7.43446693 252.79996681 7.45946121 C255.29045221 7.46639423 257.78096736 7.46647702 260.27145195 7.45926094 C263.66774438 7.45041314 267.06307538 7.46600179 270.45928955 7.48774719 C271.94266103 7.47508339 271.94266103 7.47508339 273.45599961 7.46216375 C280.51841228 7.54595297 284.01851126 9.41081241 289.375 14.0625 C291.20615264 17.37266054 291.17265012 18.9624301 291.1015625 22.68359375 C291.07956787 24.17524048 291.07956787 24.17524048 291.05712891 25.69702148 C291.03827637 26.45700439 291.01942383 27.2169873 291 28 C290.19338082 28.00097681 289.38676165 28.00195362 288.55569947 28.00296003 C240.74871371 28.06123224 192.94177341 28.13502919 145.13484377 28.22898628 C139.39458357 28.24025444 133.65432312 28.2513929 127.9140625 28.26245117 C126.19988897 28.2657567 126.19988897 28.2657567 124.45108567 28.269129 C105.94741642 28.30450122 87.44374722 28.32936579 68.9400567 28.35034702 C49.95351299 28.37210965 30.96701316 28.40516451 11.98050678 28.44870156 C0.26486607 28.47521024 -11.45071997 28.4929114 -23.16638918 28.49934604 C-31.20030009 28.50460229 -39.23414222 28.52082733 -47.26801626 28.54566566 C-51.90309854 28.55967241 -56.5380577 28.56885452 -61.17316246 28.56500816 C-65.41989501 28.56159099 -69.66636486 28.57200274 -73.91304363 28.59323552 C-75.44617682 28.59849174 -76.97933738 28.59875061 -78.51247023 28.59339563 C-90.39392108 28.55613551 -101.15239271 29.23121327 -110 38 C-115.36809136 44.84329204 -117.3030409 51.57795302 -117.26742554 60.24942017 C-117.27195665 61.06435137 -117.27648776 61.87928258 -117.28115618 62.71890867 C-117.29378515 65.4410819 -117.29218082 68.16305468 -117.29052734 70.88525391 C-117.2965133 72.84021766 -117.303319 74.79517905 -117.31088257 76.75013733 C-117.32853722 82.05361314 -117.33323757 87.3570244 -117.33451414 92.66052675 C-117.33641406 97.08682734 -117.34377219 101.51311291 -117.35085833 105.93940771 C-117.36713582 116.37790716 -117.37202765 126.81637212 -117.37060547 137.25488281 C-117.36940237 148.03067815 -117.39053928 158.80627374 -117.4220928 169.58201849 C-117.44821375 178.83139192 -117.45897461 188.08069991 -117.45769465 197.33010995 C-117.45718403 202.85563901 -117.46292304 208.38099032 -117.48405075 213.9064827 C-117.50336416 219.09891479 -117.50360504 224.29099817 -117.48901749 229.48344231 C-117.48692009 231.39104024 -117.49168532 233.29865962 -117.5037384 235.20622063 C-117.5191049 237.80607711 -117.50994067 240.40471806 -117.49447632 243.00454712 C-117.50476344 243.76310175 -117.51505057 244.52165637 -117.52564943 245.3031975 C-117.48018738 248.7506159 -117.26365491 250.65141464 -115.15659523 253.43721581 C-112.99433317 255.16889359 -112.99433317 255.16889359 -110 256 C-110 261.94 -110 267.88 -110 274 C-111.65 274.66 -113.3 275.32 -115 276 C-117.09868217 279.14802325 -117.25962003 279.9602183 -117.31884766 283.56323242 C-117.33871735 284.48396042 -117.35858704 285.40468842 -117.37905884 286.35331726 C-117.39061005 287.34402725 -117.40216125 288.33473724 -117.4140625 289.35546875 C-117.43342865 290.37224197 -117.4527948 291.3890152 -117.4727478 292.43659973 C-117.53256741 295.68681427 -117.57893876 298.93706417 -117.625 302.1875 C-117.66317756 304.38998948 -117.70222916 306.59246399 -117.7421875 308.79492188 C-117.83827083 314.19648183 -117.92331138 319.59813177 -118 325 C-122.39940331 323.39082228 -124.91926436 321.59419158 -128 318 C-129.04406493 314.95249129 -129.12781168 312.10695934 -129.13422108 308.90182686 C-129.13867892 307.86647777 -129.14313676 306.83112868 -129.14772969 305.76440537 C-129.14754533 304.62842876 -129.14736097 303.49245215 -129.14717102 302.322052 C-129.15084771 301.1141362 -129.1545244 299.9062204 -129.1583125 298.66170108 C-129.16743181 295.30744262 -129.17204735 291.95323305 -129.17470181 288.59896684 C-129.17860822 284.98197563 -129.18818613 281.36499854 -129.19691467 277.74801636 C-129.21666648 269.01395244 -129.22674231 260.27988737 -129.23564246 251.54580671 C-129.24002626 247.43328642 -129.24539272 243.32076741 -129.25063133 239.20824814 C-129.26764006 225.53934306 -129.28213554 211.87043877 -129.28938007 198.20152473 C-129.29128997 194.65534591 -129.2932103 191.10916708 -129.29516602 187.56298828 C-129.29564976 186.68160218 -129.2961335 185.80021607 -129.2966319 184.8921213 C-129.3049372 170.60536549 -129.33028412 156.31869326 -129.36274669 142.03197397 C-129.39579853 127.36651574 -129.41382701 112.70110004 -129.41702431 98.03560436 C-129.41919083 89.80038763 -129.42796046 81.56529291 -129.45348549 73.33011246 C-129.47516664 66.31893342 -129.4832556 59.30790604 -129.47351871 52.29669727 C-129.46896684 48.71918684 -129.4709113 45.1419895 -129.49028015 41.56452179 C-129.51109326 37.6868555 -129.50094979 33.80962303 -129.48774719 29.93191528 C-129.49871644 28.80040012 -129.50968568 27.66888495 -129.52098733 26.50308144 C-129.47029391 20.35572749 -129.1761372 16.64151272 -125 12 C-119.1169667 7.47600286 -114.04214781 7.43836176 -106.78808594 7.51757812 C-105.67997559 7.51366562 -104.57186523 7.50975311 -103.43017578 7.50572205 C-101.03320635 7.49976 -98.63620062 7.50289355 -96.23925018 7.5141449 C-92.44865622 7.53141271 -88.65882434 7.52389643 -84.8682251 7.5098877 C-76.82874919 7.48456012 -68.78948989 7.4898597 -60.75 7.5 C-51.42012601 7.51175318 -42.09066315 7.51048508 -32.76081085 7.47593689 C-29.0208131 7.46881934 -25.28139488 7.485547 -21.54144287 7.50305176 C-19.25907066 7.49734732 -16.97670087 7.49053173 -14.69433594 7.48242188 C-13.12803436 7.49939369 -13.12803436 7.49939369 -11.53009033 7.51670837 C-10.10025818 7.50451012 -10.10025818 7.50451012 -8.64154053 7.49206543 C-7.81272243 7.49357353 -6.98390434 7.49508163 -6.12997055 7.49663544 C-3.83922291 7.170352 -3.83922291 7.170352 -2.27240372 5.15674591 C-0.86417211 2.94199868 -0.86417211 2.94199868 0 0 Z " fill="#88C6FB" transform="translate(144,54)"/>
<path d="M0 0 C0.33 0 0.66 0 1 0 C1 92.4 1 184.8 1 280 C5.94755609 281.97902244 9.18535328 283.12448565 14.41355419 283.1386652 C15.54466411 283.14413964 16.67577402 283.14961409 17.84116 283.15525442 C19.71321666 283.15672158 19.71321666 283.15672158 21.62309265 283.15821838 C22.95799385 283.16278302 24.29289362 283.1677829 25.6277917 283.17318195 C29.30371887 283.18678366 32.97963677 283.19418729 36.65558255 283.20060861 C40.61672309 283.20860363 44.5778443 283.2223045 48.53897095 283.23532104 C55.40446557 283.25709654 62.26996213 283.27523711 69.13547325 283.29092598 C79.06191446 283.31361483 88.98833427 283.34175902 98.91475735 283.37124526 C115.01876434 283.41893325 131.12278007 283.46219416 147.22680664 283.50268555 C162.8726469 283.54203433 178.51847938 283.58345908 194.16430664 283.62768555 C195.12831804 283.63040982 196.09232944 283.63313409 197.08555331 283.63594092 C201.92159652 283.64962029 206.75763961 283.66334059 211.59368265 283.67708123 C251.72910563 283.79106497 291.8645454 283.89779661 332 284 C332 291.59 332 299.18 332 307 C291.20864962 307.09121976 250.41731525 307.16202287 209.62588321 307.20426132 C204.81178656 307.20926424 199.9976901 307.21444152 195.18359375 307.21972656 C193.74597353 307.22130043 193.74597353 307.22130043 192.27931048 307.22290608 C176.75396917 307.24031871 161.22868701 307.27186112 145.70338081 307.30861118 C129.77696075 307.34599674 113.85057171 307.3682308 97.92410958 307.37635398 C88.09395427 307.3818467 78.26396614 307.39920466 68.43386228 307.43166587 C61.69605798 307.45278432 54.9583403 307.45920611 48.22050528 307.45400551 C44.33113547 307.45143956 40.44205812 307.45541587 36.5527401 307.4768219 C32.33761071 307.49985196 28.1231063 307.49196548 23.90792847 307.48101807 C22.67641111 307.49266943 21.44489376 307.5043208 20.1760577 307.51632524 C13.82254225 307.47155053 9.78467454 307.35959542 5 303 C1.14097974 298.72378836 -0.12547031 295.73352973 -0.12304783 290.02373219 C-0.12503888 288.99015734 -0.12702993 287.9565825 -0.12908131 286.89168721 C-0.12616847 285.75259599 -0.12325563 284.61350477 -0.12025452 283.43989563 C-0.12110894 282.23268441 -0.12196337 281.02547319 -0.12284368 279.78167981 C-0.12420895 276.42497195 -0.1210725 273.06832203 -0.11606562 269.71162117 C-0.11175593 266.09405318 -0.11320792 262.47648706 -0.1139679 258.85891724 C-0.1144928 252.58927802 -0.11134949 246.31964919 -0.10573006 240.05001259 C-0.09761054 230.98511847 -0.09499937 221.9202294 -0.09374207 212.85533204 C-0.09155226 198.14891317 -0.0848941 183.44249984 -0.07543945 168.73608398 C-0.0662635 154.44832385 -0.05918356 140.16056522 -0.05493164 125.87280273 C-0.05466892 124.99242721 -0.05440619 124.11205168 -0.05413551 123.20499811 C-0.05283049 118.78850901 -0.05156678 114.37201989 -0.05032361 109.95553076 C-0.03995321 73.30368326 -0.02233683 36.65184206 0 0 Z " fill="#D2CBD1" transform="translate(76,143)"/>
<path d="M0 0 C3.25874069 0.95072665 4.23248198 2.77087243 6.03515625 5.59375 C6.42061098 8.49383571 6.57639708 11.0102742 6.54309082 13.90600586 C6.54933078 14.73979484 6.55557075 15.57358381 6.5619998 16.43263912 C6.57794728 19.22491214 6.56531881 22.01631434 6.55273438 24.80859375 C6.55815471 26.81105051 6.56527687 28.81350328 6.57397461 30.81594849 C6.5922213 36.25393054 6.58513478 41.6916093 6.57245827 47.12959671 C6.56233763 52.81809563 6.57172135 58.50656843 6.57800293 64.19506836 C6.58528205 73.74825711 6.57568463 83.30132221 6.55664062 92.85449219 C6.53487145 103.90235396 6.54192262 114.94992046 6.56394625 125.99777508 C6.58209265 135.47985456 6.58466227 144.96184511 6.57419157 154.44393635 C6.56795249 160.10865939 6.56713249 165.77324361 6.58033752 171.43795776 C6.59188427 176.76337393 6.58389157 182.08840907 6.5607605 187.41378403 C6.55546715 189.36932619 6.55699785 191.32490037 6.56581116 193.28042984 C6.5767255 195.94788554 6.56305311 198.61411669 6.54309082 201.28149414 C6.55201371 202.05727279 6.56093659 202.83305143 6.57012987 203.63233852 C6.51693166 207.29152067 6.14582486 209.41691578 4.18700409 212.54685974 C1.4136011 215.18498846 -0.14665557 215.67167221 -3.96484375 215.59375 C-6.61740875 214.11217594 -6.61740875 214.11217594 -8.96484375 211.59375 C-9.46209839 208.61778922 -9.633121 206.21208599 -9.58630371 203.23643494 C-9.59269253 202.38575504 -9.59908135 201.53507515 -9.60566378 200.65861708 C-9.62094592 197.80310392 -9.60043155 194.94897109 -9.58007812 192.09350586 C-9.58357833 190.04854369 -9.58923576 188.00358425 -9.59689331 185.95863342 C-9.61116444 180.40081469 -9.59405731 174.84348932 -9.57060814 169.28571773 C-9.55053461 163.47617044 -9.55637683 157.66664435 -9.55871582 151.85707092 C-9.55866221 142.10116413 -9.53888413 132.3454508 -9.50683594 122.58959961 C-9.46993143 111.3003369 -9.46116145 100.01132761 -9.46813345 88.72201246 C-9.47443182 77.87346841 -9.46369716 67.02501153 -9.44416809 56.17648506 C-9.43597989 51.55412113 -9.43328715 46.93180166 -9.43486023 42.30943108 C-9.43573717 36.86998536 -9.42157435 31.43078166 -9.3956337 25.99139977 C-9.38845277 23.99148481 -9.38639748 21.99154414 -9.38975143 19.99161911 C-9.39344762 17.26884128 -9.378784 14.54677707 -9.35925293 11.82408142 C-9.36458086 11.02623118 -9.36990878 10.22838094 -9.37539816 9.40635341 C-9.30974686 4.1287228 -9.30974686 4.1287228 -7.68628693 1.61060429 C-5.24396175 0.16792592 -2.78739852 0.12889704 0 0 Z " fill="#060606" transform="translate(232.96484375,183.40625)"/>
<path d="M0 0 C3.0479964 0.79563822 4.11654787 2.03176384 6.03515625 4.53125 C6.42795723 7.40277405 6.57582119 9.89059612 6.54309082 12.76121521 C6.54933078 13.59823331 6.55557075 14.43525142 6.5619998 15.29763371 C6.57797494 18.10682941 6.56530797 20.91516285 6.55273438 23.72436523 C6.55815353 25.73652656 6.56527502 27.74868392 6.57397461 29.76083374 C6.5922366 35.22986507 6.58512818 40.69859515 6.57245827 46.16763186 C6.56234413 51.88683314 6.57171966 57.6060083 6.57800293 63.32521057 C6.58528454 72.93145385 6.57567872 82.5375742 6.55664062 92.14379883 C6.53487716 103.25355525 6.54191747 114.363018 6.56394625 125.47276729 C6.58209294 135.00578147 6.58466193 144.53870719 6.57419157 154.07173306 C6.56795185 159.76776987 6.5671341 165.46366861 6.58033752 171.15969658 C6.59188448 176.5154674 6.58389116 181.87085935 6.5607605 187.2265892 C6.555467 189.19341846 6.5569981 191.16027954 6.56581116 193.12709618 C6.57672504 195.80992966 6.56305353 198.49154548 6.54309082 201.17430115 C6.55201371 201.95465286 6.56093659 202.73500458 6.57012987 203.53900331 C6.51710426 207.20715578 6.15120836 209.34588353 4.18700409 212.4832468 C2.03515625 214.53125 2.03515625 214.53125 -0.90234375 215.65625 C-3.96484375 215.53125 -3.96484375 215.53125 -6.61740875 213.54811954 C-9.59008008 209.72771063 -9.66045723 206.78205196 -9.58630371 202.13633728 C-9.59269253 201.29367563 -9.59908135 200.45101399 -9.60566378 199.58281714 C-9.62091935 196.7603754 -9.60044916 193.93933613 -9.58007812 191.11694336 C-9.58357913 189.09316035 -9.58923746 187.06938008 -9.59689331 185.04560852 C-9.61115295 179.54976107 -9.59406851 174.05441323 -9.57060814 168.55861354 C-9.55051957 162.81093314 -9.55637761 157.06327389 -9.55871582 151.31556702 C-9.55866223 141.66398871 -9.53889392 132.01260606 -9.50683594 122.36108398 C-9.46993203 111.19621971 -9.46116165 100.0316117 -9.46813345 88.86669439 C-9.47443416 78.13294758 -9.46369282 67.39928882 -9.44416809 56.66555977 C-9.43598484 52.09426178 -9.43328624 47.52300873 -9.43486023 42.95170403 C-9.43573786 37.57133683 -9.42155565 32.19121394 -9.3956337 26.81091118 C-9.38845937 24.83399133 -9.38639434 22.85704552 -9.38975143 20.88011551 C-9.39345411 18.1862032 -9.37876115 15.49300869 -9.35925293 12.79917908 C-9.36458086 12.01270569 -9.36990878 11.22623231 -9.37539816 10.4159264 C-9.33563206 7.24373141 -9.14914113 4.88952138 -7.68628693 2.04575443 C-5.31360184 -0.04170458 -3.07348977 0.04737556 0 0 Z " fill="#040404" transform="translate(343.96484375,183.46875)"/>
<path d="M0 0 C2.18742466 1.51408386 2.18742466 1.51408386 4 4 C4.39065745 6.88615855 4.53640821 9.3896988 4.50120544 12.2746582 C4.50673984 13.11646543 4.51227424 13.95827265 4.51797634 14.82558918 C4.53160736 17.65095205 4.51660048 20.47543528 4.50170898 23.30078125 C4.50549127 25.32441585 4.51099056 27.34804787 4.51808167 29.37167358 C4.5320653 34.87163959 4.520846 40.37129378 4.50437045 45.87124252 C4.49054004 51.62160245 4.49697774 57.37194391 4.50050354 63.12231445 C4.50320725 72.77983639 4.48971618 82.43723416 4.46655273 92.09472656 C4.43994204 103.26694899 4.43819533 114.43896376 4.4499411 125.61120701 C4.46071289 136.34974899 4.4545365 147.08821571 4.44038582 157.82675171 C4.43462082 162.4008461 4.43471274 166.9748855 4.43945122 171.54898071 C4.44421656 176.93342607 4.43413756 182.31764347 4.41249657 187.70204544 C4.40692251 189.68058122 4.40646905 191.65913888 4.41144943 193.63767624 C4.41738604 196.33381942 4.40492847 199.02926184 4.38768005 201.7253418 C4.3936901 202.5124973 4.39970014 203.29965281 4.40589231 204.11066151 C4.36798507 207.35829682 4.20936247 209.62903912 2.59686375 212.48616028 C1 214 1 214 -0.9375 214.49609375 C-6.52461663 214.33736885 -6.52461663 214.33736885 -8.9375 212.625 C-11.41730326 208.83235972 -11.1481995 205.4058129 -11.14717102 201.0038147 C-11.15084771 200.16779988 -11.1545244 199.33178506 -11.1583125 198.47043645 C-11.16937624 195.65297366 -11.1731977 192.8355477 -11.17700195 190.01806641 C-11.18326447 188.00458152 -11.18991108 185.9910978 -11.19691467 183.97761536 C-11.21434179 178.49623909 -11.22488067 173.01487156 -11.2331202 167.53347445 C-11.23826574 164.11187748 -11.24434161 160.69028324 -11.25063133 157.2686882 C-11.26968645 146.57181573 -11.28391804 135.87495018 -11.2922433 125.17806399 C-11.302024 112.81407246 -11.32836396 100.45025956 -11.36874419 88.08633101 C-11.39885743 78.53980879 -11.41370754 68.99333793 -11.41702431 59.44676912 C-11.4193799 53.74008353 -11.42840645 48.0335887 -11.45348549 42.32695389 C-11.47668803 36.96058909 -11.48103102 31.59454174 -11.47072411 26.22813988 C-11.47022676 24.25603749 -11.47660542 22.28391989 -11.49028015 20.31186485 C-11.50787757 17.62424237 -11.50095339 14.93777424 -11.48774719 12.25015259 C-11.49871644 11.46552379 -11.50968568 10.680895 -11.52098733 9.87248957 C-11.47944673 6.38292446 -11.27065629 4.37114401 -9.1882658 1.51561546 C-5.97848096 -0.70751462 -3.80869912 -0.54409987 0 0 Z " fill="#030303" transform="translate(290,184)"/>
<path d="M0 0 C-0.33773437 0.50789063 -0.67546875 1.01578125 -1.0234375 1.5390625 C-1.46945313 2.22742188 -1.91546875 2.91578125 -2.375 3.625 C-2.81585938 4.29789062 -3.25671875 4.97078125 -3.7109375 5.6640625 C-6.70591398 11.09132291 -7.2925093 16.14213908 -7.26742554 22.24942017 C-7.27195665 23.06435137 -7.27648776 23.87928258 -7.28115618 24.71890867 C-7.29378515 27.4410819 -7.29218082 30.16305468 -7.29052734 32.88525391 C-7.2965133 34.84021766 -7.303319 36.79517905 -7.31088257 38.75013733 C-7.32853722 44.05361314 -7.33323757 49.3570244 -7.33451414 54.66052675 C-7.33641406 59.08682734 -7.34377219 63.51311291 -7.35085833 67.93940771 C-7.36713582 78.37790716 -7.37202765 88.81637212 -7.37060547 99.25488281 C-7.36940237 110.03067815 -7.39053928 120.80627374 -7.4220928 131.58201849 C-7.44821375 140.83139192 -7.45897461 150.08069991 -7.45769465 159.33010995 C-7.45718403 164.85563901 -7.46292304 170.38099032 -7.48405075 175.9064827 C-7.50336416 181.09891479 -7.50360504 186.29099817 -7.48901749 191.48344231 C-7.48692009 193.39104024 -7.49168532 195.29865962 -7.5037384 197.20622063 C-7.5191049 199.80607711 -7.50994067 202.40471806 -7.49447632 205.00454712 C-7.50476344 205.76310175 -7.51505057 206.52165637 -7.52564943 207.3031975 C-7.48018738 210.7506159 -7.26365491 212.65141464 -5.15659523 215.43721581 C-2.99433317 217.16889359 -2.99433317 217.16889359 0 218 C0 223.94 0 229.88 0 236 C-2.475 236.99 -2.475 236.99 -5 238 C-7.09868217 241.14802325 -7.25962003 241.9602183 -7.31884766 245.56323242 C-7.33871735 246.48396042 -7.35858704 247.40468842 -7.37905884 248.35331726 C-7.39638565 249.83938225 -7.39638565 249.83938225 -7.4140625 251.35546875 C-7.43342865 252.37224197 -7.4527948 253.3890152 -7.4727478 254.43659973 C-7.53256741 257.68681427 -7.57893876 260.93706417 -7.625 264.1875 C-7.66317756 266.38998948 -7.70222916 268.59246399 -7.7421875 270.79492188 C-7.83827083 276.19648183 -7.92331138 281.59813177 -8 287 C-12.38718942 285.40733964 -14.90018015 283.54265126 -18 280 C-18 279.34 -18 278.68 -18 278 C-17.34 278 -16.68 278 -16 278 C-16.00113916 277.44615802 -16.00227832 276.89231604 -16.003452 276.32169098 C-16.07058798 243.49564608 -16.12206056 210.66961839 -16.15319599 177.84352022 C-16.1569481 173.90194631 -16.16083107 169.96037253 -16.16479492 166.01879883 C-16.16558185 165.23410332 -16.16636878 164.4494078 -16.16717956 163.64093364 C-16.18023305 150.93568322 -16.20388659 138.23047353 -16.23145839 125.52524727 C-16.25951416 112.48826294 -16.27617662 99.45129995 -16.28226548 86.41428667 C-16.28638157 78.36991237 -16.29938137 70.32565319 -16.3237494 62.28131432 C-16.34148366 56.1126321 -16.34336518 49.94403763 -16.33932304 43.7753334 C-16.34014921 41.24493895 -16.34612771 38.71454019 -16.35761642 36.18417168 C-16.37252592 32.7313798 -16.36895878 29.27908182 -16.36076355 25.82627869 C-16.36950207 24.82334917 -16.3782406 23.82041966 -16.38724393 22.78709835 C-16.33120565 14.06145344 -14.05057602 8.33869869 -8 2 C-3.64444444 -1.21481481 -3.64444444 -1.21481481 0 0 Z " fill="#60B7FD" transform="translate(34,92)"/>
<path d="M0 0 C1.75185104 0.00848969 1.75185104 0.00848969 3.53909302 0.01715088 C7.25825504 0.03948744 10.97644312 0.08968158 14.6953125 0.140625 C17.22134022 0.16069339 19.74738309 0.17894356 22.2734375 0.1953125 C28.45605978 0.23934347 34.63811654 0.30622969 40.8203125 0.390625 C35.02127061 7.48577946 28.49729418 13.85881121 22.01953125 20.32421875 C20.77482241 21.56960197 19.53026199 22.81513354 18.2858429 24.06080627 C15.69112455 26.65699199 13.0946231 29.2513773 10.49682617 31.84448242 C7.15976581 35.17581023 3.82726293 38.51165557 0.49605083 41.84883022 C-2.06622876 44.41471103 -4.63086993 46.97822067 -7.19624901 49.54100227 C-8.42703939 50.77112401 -9.65708305 52.00199332 -10.88637733 53.23361015 C-12.59543576 54.9451917 -14.30763786 56.6535631 -16.02075195 58.36108398 C-16.53137177 58.87372803 -17.04199158 59.38637207 -17.56808472 59.91455078 C-21.0654177 63.390625 -21.0654177 63.390625 -22.1796875 63.390625 C-22.28122667 55.95259275 -22.35121183 48.5147397 -22.39941406 41.07617188 C-22.41951155 38.54648153 -22.44679418 36.01683754 -22.48144531 33.48730469 C-22.53004306 29.84819083 -22.55267562 26.209692 -22.5703125 22.5703125 C-22.60128021 20.87779861 -22.60128021 20.87779861 -22.63287354 19.15109253 C-22.63460007 13.08985346 -22.54301099 9.01045463 -18.1796875 4.390625 C-12.74442118 -0.7428598 -7.05302785 -0.12904836 0 0 Z " fill="#B1A9B2" transform="translate(445.1796875,375.609375)"/>
</svg>
