<?xml version="1.0" encoding="UTF-8"?>
<svg version="1.1" xmlns="http://www.w3.org/2000/svg" width="512" height="512">
<path d="M0 0 C6.44755181 6.25507253 12.24069789 12.88423093 17.77734375 19.96484375 C18.55464844 20.91359375 19.33195312 21.86234375 20.1328125 22.83984375 C58.02559272 70.07027251 71.95288658 131.2853946 66.1171875 190.78125 C61.36119945 229.77101581 45.37665156 269.21570899 20.77734375 299.96484375 C20.0709375 300.86332031 19.36453125 301.76179688 18.63671875 302.6875 C-19.49692933 350.3545601 -73.88573746 380.21733154 -134.50341797 387.49755859 C-138.97557841 387.98231438 -143.40637583 388.15728727 -147.90234375 388.203125 C-148.7045787 388.21287354 -149.50681366 388.22262207 -150.33335876 388.23266602 C-176.05494282 388.48057146 -200.50519629 386.65211754 -225.22265625 378.96484375 C-225.99528809 378.72958984 -226.76791992 378.49433594 -227.56396484 378.25195312 C-258.45950261 368.67957723 -287.25845685 352.33937796 -310.8515625 330.18359375 C-312.90418271 328.26285523 -315.00275155 326.45238694 -317.16015625 324.65234375 C-343.6481629 301.45510778 -362.28571551 268.31835618 -373.91015625 235.52734375 C-374.23725586 234.61114258 -374.56435547 233.69494141 -374.90136719 232.75097656 C-377.55135427 224.88771065 -379.80366503 216.62739784 -376.3046875 208.71875 C-373.47685215 204.13500244 -369.25886706 201.65349937 -364.22265625 199.96484375 C-358.05429302 199.27348426 -352.41796545 199.25390861 -347.22265625 202.96484375 C-342.51377499 207.77104688 -340.80261381 212.33159141 -338.91015625 218.71484375 C-323.98230838 265.83342394 -291.56891246 305.59517118 -247.703125 328.69140625 C-201.32921621 352.43629517 -149.92488624 356.98774386 -100.11157227 341.57226562 C-77.45499421 334.21081663 -56.07766693 322.83920072 -38.22265625 306.96484375 C-37.42214844 306.27261719 -36.62164062 305.58039063 -35.796875 304.8671875 C-19.30854259 290.37744084 -6.32669167 274.88033451 4.77734375 255.96484375 C5.16277344 255.31596191 5.54820312 254.66708008 5.9453125 253.99853516 C30.90164151 211.44288368 35.33151835 160.05039643 23.52783203 112.77978516 C15.28338339 81.85639776 -0.83983798 54.44630022 -22.85791016 31.39697266 C-24.17214092 30.01785322 -25.46926286 28.62249162 -26.765625 27.2265625 C-38.49524107 14.96458866 -52.36086134 5.0790645 -67.22265625 -3.03515625 C-67.83898926 -3.37353516 -68.45532227 -3.71191406 -69.09033203 -4.06054688 C-114.06047479 -28.41403863 -166.09962699 -33.05388913 -215.03125 -18.65625 C-237.46035021 -11.70104342 -258.10385639 -0.98092371 -276.22265625 13.96484375 C-276.774375 14.41504883 -277.32609375 14.86525391 -277.89453125 15.32910156 C-294.63483215 28.97800572 -294.63483215 28.97800572 -306.22265625 46.96484375 C-306.55106442 50.57733361 -306.51810942 53.18927919 -305.22265625 56.58984375 C-298.29345738 64.8182674 -286.89999503 67.13532503 -276.6015625 68.24804688 C-271.24271993 68.70578062 -271.24271993 68.70578062 -265.87402344 69.01831055 C-259.82345788 69.41713622 -259.82345788 69.41713622 -256.703125 72.26171875 C-254.2143749 76.80582183 -253.67930149 81.0443119 -254.62890625 86.1484375 C-256.27741632 91.33928171 -258.80871638 93.86569448 -263.22265625 96.96484375 C-265.54357833 98.12530479 -266.89374844 98.09782083 -269.47819519 98.11201477 C-270.37114288 98.11917007 -271.26409058 98.12632538 -272.18409729 98.13369751 C-273.16643845 98.13638641 -274.1487796 98.13907532 -275.16088867 98.1418457 C-276.19356873 98.1484169 -277.22624878 98.1549881 -278.29022217 98.16175842 C-281.71952379 98.18152412 -285.14878154 98.19316215 -288.578125 98.203125 C-289.74803797 98.20720053 -290.91795094 98.21127605 -292.12331581 98.21547508 C-298.31699066 98.2363511 -304.51064326 98.25064544 -310.7043457 98.26000977 C-317.10244026 98.2710693 -323.50018656 98.30546 -329.89815807 98.34518147 C-334.81641791 98.37132982 -339.73459463 98.37970012 -344.65291786 98.38329124 C-347.01120667 98.38816282 -349.36949164 98.39979297 -351.72771263 98.41832924 C-355.03123896 98.44267886 -358.33386255 98.44176268 -361.63745117 98.43481445 C-363.09578117 98.45402954 -363.09578117 98.45402954 -364.58357239 98.47363281 C-370.66875397 98.42704824 -374.32777366 97.68245681 -379.22265625 93.96484375 C-383.95842572 88.8577215 -383.7948834 84.07166675 -383.74023438 77.46484375 C-383.74724365 76.42021973 -383.75425293 75.3755957 -383.76147461 74.29931641 C-383.77904647 70.85421994 -383.76743407 67.40994824 -383.75390625 63.96484375 C-383.75660138 61.56640465 -383.76048397 59.16796661 -383.76550293 56.76953125 C-383.77139691 51.7459878 -383.76283784 46.72272908 -383.74414062 41.69921875 C-383.72135162 35.26295303 -383.73447517 28.82735453 -383.75843048 22.39111328 C-383.77289086 17.43940207 -383.76828125 12.4878488 -383.75791931 7.53613281 C-383.75525272 5.16308513 -383.75851939 2.79002307 -383.76783752 0.41699219 C-383.77800656 -2.90077653 -383.76249559 -6.2174677 -383.74023438 -9.53515625 C-383.7483313 -10.51403809 -383.75642822 -11.49291992 -383.76477051 -12.50146484 C-383.69406181 -18.1955351 -383.0578285 -21.53496218 -379.22265625 -26.03515625 C-374.57617371 -30.44931466 -370.33472559 -30.50273886 -364.22265625 -30.56640625 C-357.3126957 -29.3427674 -352.5865612 -23.66984205 -347.85546875 -18.86328125 C-347.17588104 -18.18086365 -346.49629333 -17.49844604 -345.79611206 -16.79534912 C-343.6418568 -14.62996276 -341.49468833 -12.45770239 -339.34765625 -10.28515625 C-337.88197409 -8.80943517 -336.41583296 -7.33416979 -334.94921875 -5.859375 C-331.36836459 -2.25655431 -327.79384661 1.35244491 -324.22265625 4.96484375 C-319.94638894 3.02817209 -317.21910184 0.01452893 -314.03515625 -3.34765625 C-302.5852535 -15.09446472 -289.26703972 -24.62490012 -275.22265625 -33.03515625 C-274.25634277 -33.62393555 -274.25634277 -33.62393555 -273.27050781 -34.22460938 C-192.74373831 -82.87218387 -87.49368042 -71.89046756 0 0 Z " fill="#000000" transform="translate(413.22265625,94.03515625)"/>
</svg>
