<?xml version="1.0" encoding="UTF-8"?>
<svg version="1.1" xmlns="http://www.w3.org/2000/svg" width="512" height="512">
<path d="M0 0 C0.64614258 0.45987305 1.29228516 0.91974609 1.95800781 1.39355469 C6.53843422 4.65681733 11.08980581 7.95883422 15.6328125 11.27392578 C19.43551734 14.04673139 23.24817685 16.80570737 27.0625 19.5625 C27.80701416 20.10084473 28.55152832 20.63918945 29.31860352 21.19384766 C35.04707765 25.32890132 40.81402332 29.4072158 46.5925293 33.47192383 C53.39593915 38.26424794 60.1451191 43.12998722 66.87890625 48.01953125 C69.37276991 49.82945523 71.87606582 51.62234621 74.40234375 53.38671875 C80.52456992 57.70103921 85.38560136 61.18414866 88.375 68.25 C89.628182 75.769092 88.87417538 81.98216141 84.46484375 88.30859375 C81.02448337 92.2810632 76.86850652 94.66589774 71.65234375 95.2734375 C57.97347985 95.78516478 48.99351302 87.29063644 38.76416016 79.24926758 C36.91861042 77.94236501 35.04461816 76.95944956 33 76 C46.76203987 95.67695672 63.21056441 114.22500072 83 128 C83.5671875 128.40089844 84.134375 128.80179688 84.71875 129.21484375 C106.87308789 144.81033161 131.5649476 156.7016348 158 163 C159.14903809 163.27384521 159.14903809 163.27384521 160.32128906 163.55322266 C210.91076426 175.18170523 263.42220538 167.49652897 309 143 C310.13179688 142.40960938 311.26359375 141.81921875 312.4296875 141.2109375 C327.4846393 133.04023618 341.26197656 122.48187709 353.47167969 110.49316406 C355.03854961 108.96233715 356.63050004 107.46125536 358.2265625 105.9609375 C371.92006619 92.90491115 383.28952597 77.35033545 392.33984375 60.75 C392.73268555 60.03207275 393.12552734 59.31414551 393.53027344 58.57446289 C394.277145 57.19527159 395.01183689 55.80938172 395.73144531 54.41577148 C398.72930976 48.82994017 402.81862606 44.15990093 409 42 C415.59842991 41.34356705 422.52987656 40.8322869 428 45 C433.07582237 50.08641907 436.08622519 53.84070768 436.5625 61.1875 C436.196056 81.68393434 415.46985971 104.20942151 403 119 C402.44723389 119.66443115 401.89446777 120.3288623 401.32495117 121.01342773 C392.62324492 131.44943538 383.47509947 141.30532173 373 150 C372.4834082 150.43038574 371.96681641 150.86077148 371.43457031 151.30419922 C337.17267978 179.70828758 296.81716889 198.84246148 253 207 C252.1843457 207.16226074 251.36869141 207.32452148 250.52832031 207.49169922 C222.92164871 212.80573672 190.5389569 212.54641243 163 207 C162.09282227 206.82307617 161.18564453 206.64615234 160.25097656 206.46386719 C115.32928847 197.51045672 73.12935307 177.62043217 39.46875 146.28125 C37.41955918 144.38769392 35.3325972 142.5940214 33.1875 140.8125 C18.67450798 128.10622739 6.18906602 112.33042088 -4 96 C-4.92811335 98.78434006 -5.22646587 100.88833534 -5.4296875 103.7890625 C-5.50316406 104.73136719 -5.57664063 105.67367187 -5.65234375 106.64453125 C-5.7989974 108.60763185 -5.93977218 110.57118186 -6.07421875 112.53515625 C-6.83778924 122.07331649 -8.51710036 130.50308243 -16 137 C-21.95916754 140.48555083 -27.44984412 140.86106846 -34.10546875 139.6015625 C-39.99506816 137.84721374 -43.54797725 133.96290807 -47 129 C-51.40082614 115.79752158 -47.40014744 97.55454646 -46.13671875 83.953125 C-45.9417125 81.7999029 -45.74712541 79.6466428 -45.55293274 77.49334717 C-45.14758821 73.02203244 -44.73582345 68.55136748 -44.31958008 64.08105469 C-43.78789444 58.36302669 -43.27485587 52.64349441 -42.76675701 46.9233284 C-42.37089843 42.49415808 -41.96417153 38.06603619 -41.55426979 33.63814545 C-41.36050531 31.52862014 -41.17035104 29.41875987 -40.98395348 27.30857086 C-40.72276247 24.3676355 -40.44666012 21.42846244 -40.16674805 18.48925781 C-40.09337723 17.62790222 -40.02000641 16.76654663 -39.94441223 15.87908936 C-39.14662239 7.81888647 -36.7949755 1.92974237 -31 -4 C-19.29291362 -11.07303135 -10.31683829 -7.42647193 0 0 Z " fill="#000000" transform="translate(48,302)"/>
<path d="M0 0 C0.92312988 0.18224121 1.84625977 0.36448242 2.79736328 0.55224609 C14.76086427 2.9683606 26.45948896 6.03332383 38 10 C39.23105469 10.41636719 40.46210938 10.83273437 41.73046875 11.26171875 C71.81192991 21.78868435 100.42052169 38.62097309 123.51953125 60.63671875 C125.58271868 62.60243276 127.68224201 64.43419411 129.875 66.25 C144.37294296 78.91693981 156.83196545 94.70328708 167 111 C167.92811335 108.21565994 168.22646587 106.11166466 168.4296875 103.2109375 C168.50316406 102.26863281 168.57664062 101.32632813 168.65234375 100.35546875 C168.7989974 98.39236815 168.93977218 96.42881814 169.07421875 94.46484375 C169.83846058 84.91829754 171.52157507 76.50834622 179 70 C184.49489358 66.72419806 189.75028527 66.13661712 196 67 C202.1981643 68.84299399 206.43338151 72.68092537 210 78 C214.40082614 91.20247842 210.40014744 109.44545354 209.13671875 123.046875 C208.9417125 125.2000971 208.74712541 127.3533572 208.55293274 129.50665283 C208.14758821 133.97796756 207.73582345 138.44863252 207.31958008 142.91894531 C206.78789444 148.63697331 206.27485587 154.35650559 205.76675701 160.0766716 C205.37089843 164.50584192 204.96417153 168.93396381 204.55426979 173.36185455 C204.36050531 175.47137986 204.17035104 177.58124013 203.98395348 179.69142914 C203.72276247 182.6323645 203.44666012 185.57153756 203.16674805 188.51074219 C203.09337723 189.37209778 203.02000641 190.23345337 202.94441223 191.12091064 C202.14662239 199.18111353 199.7949755 205.07025763 194 211 C188.87560278 214.37744362 182.94172199 215.80967054 176.87011719 214.5625 C170.96054869 212.6601972 166.47555466 209.8751227 161.5625 206.125 C159.98197763 204.95154433 158.40124238 203.77837534 156.8203125 202.60546875 C156.02141602 202.00653809 155.22251953 201.40760742 154.39941406 200.79052734 C150.61005896 197.96277701 146.77401989 195.20073016 142.9375 192.4375 C142.19314697 191.89947754 141.44879395 191.36145508 140.68188477 190.80712891 C134.94962512 186.66775149 129.17799867 182.58632602 123.39428711 178.51928711 C117.47819111 174.35307046 111.60875505 170.12447771 105.75683594 165.86865234 C101.96723586 163.11850902 98.15832556 160.406351 94.296875 157.7578125 C93.53375 157.23123047 92.770625 156.70464844 91.984375 156.16210938 C90.54725799 155.17346332 89.10492122 154.19233989 87.65625 153.22070312 C82.01614542 149.32925301 77.32435511 145.05177481 74.5625 138.6875 C73.41718429 131.17931923 74.13668387 125.00225792 78.53515625 118.69140625 C81.97551663 114.7189368 86.13149348 112.33410226 91.34765625 111.7265625 C105.02652015 111.21483522 114.00648698 119.70936356 124.23583984 127.75073242 C126.08138958 129.05763499 127.95538184 130.04055044 130 131 C116.23796013 111.32304328 99.78943559 92.77499928 80 79 C79.4328125 78.59910156 78.865625 78.19820313 78.28125 77.78515625 C31.81291266 45.07389246 -24.36329064 32.06014093 -80.49609375 40.96875 C-121.67389062 48.22978521 -160.55647343 67.13308138 -190.47167969 96.50683594 C-192.03854961 98.03766285 -193.63050004 99.53874464 -195.2265625 101.0390625 C-208.92006619 114.09508885 -220.28952597 129.64966455 -229.33984375 146.25 C-229.73268555 146.96792725 -230.12552734 147.68585449 -230.53027344 148.42553711 C-231.277145 149.80472841 -232.01183689 151.19061828 -232.73144531 152.58422852 C-235.72930976 158.17005983 -239.81862606 162.84009907 -246 165 C-252.59842991 165.65643295 -259.52987656 166.1677131 -265 162 C-270.07582237 156.91358093 -273.08622519 153.15929232 -273.5625 145.8125 C-273.0479536 117.0322047 -238.31384378 83.99521785 -218.82421875 64.8515625 C-183.42977663 30.86980781 -137.87286983 9.33648509 -90 0 C-89.17274414 -0.16661133 -88.34548828 -0.33322266 -87.49316406 -0.50488281 C-59.91035166 -5.80631472 -27.51137497 -5.55984578 0 0 Z " fill="#000000" transform="translate(301,3)"/>
</svg>
