<?xml version="1.0" encoding="UTF-8"?>
<svg version="1.1" xmlns="http://www.w3.org/2000/svg" width="512" height="512">
<path d="M0 0 C2.16098182 -0.14562708 4.32190701 -0.29209642 6.4827795 -0.43933678 C33.83273119 -2.23493714 61.22449886 -3.22723543 88.62271816 -3.88726532 C90.66018035 -3.93716676 92.69755943 -3.9897005 94.73493719 -4.04292965 C217.4518188 -7.21841255 217.4518188 -7.21841255 256.84558457 29.90093774 C262.52639076 35.42044599 267.66296534 41.36576104 272.66381836 47.50024414 C273.10768466 48.0416773 273.55155095 48.58311046 274.00886774 49.14095068 C304.71108062 86.74330204 304.71108062 86.74330204 304.73553944 100.57522583 C304.73999728 101.73997846 304.74445512 102.90473108 304.74904805 104.10477924 C304.74877151 106.04101044 304.74877151 106.04101044 304.74848938 108.01635742 C304.75178717 109.39276579 304.75551256 110.76917318 304.75963086 112.14557934 C304.76966916 115.94128319 304.77337061 119.73697122 304.77602017 123.53268647 C304.77991796 127.62150386 304.78949684 131.71030867 304.79823303 135.79911804 C304.81801516 145.68199152 304.82806711 155.56486605 304.83696082 165.44775438 C304.84134197 170.10069884 304.84670933 174.75364214 304.85194969 179.40658569 C304.86896581 194.87342594 304.88345922 210.34026547 304.89069843 225.80711365 C304.89260837 229.82282512 304.89452869 233.83853659 304.89648438 237.85424805 C304.89696812 238.85234989 304.89745186 239.85045173 304.89795025 240.87879908 C304.9062476 257.04150115 304.93157782 273.20412914 304.96406505 289.36679888 C304.99714134 305.95775404 305.01514782 322.54867157 305.01834267 339.13965988 C305.02050754 348.45596659 305.02925247 357.77216536 305.05480385 367.08843994 C305.07651884 375.02437484 305.08455744 382.96017559 305.07483707 390.89613682 C305.0702943 394.94397708 305.07217693 398.99154062 305.09159851 403.03934288 C305.1092455 406.74942519 305.10822038 410.45902924 305.09270122 414.16911674 C305.08920792 416.13802005 305.10534022 418.10692847 305.12230569 420.0757618 C305.05927531 428.78461626 303.47706791 435.43883747 298.91381836 442.87524414 C291.94663697 449.65412333 284.96391461 453.20468813 275.22631836 453.25024414 C273.35112741 453.21830658 271.47598626 453.17984612 269.60131836 453.12524414 C269.64772461 453.87547852 269.69413086 454.62571289 269.74194336 455.39868164 C270.05074049 464.15528585 268.4864502 470.42354781 263.91381836 477.87524414 C256.94663697 484.65412333 249.96391461 488.20468813 240.22631836 488.25024414 C238.35112741 488.21830658 236.47598626 488.17984612 234.60131836 488.12524414 C234.29194336 490.07430664 234.29194336 490.07430664 233.97631836 492.06274414 C232.24676318 499.648931 228.44844322 505.1614684 222.03881836 509.56274414 C217.20429284 512.58755423 213.01819649 514.3736689 207.26353836 514.38251305 C206.20018115 514.38896194 205.13682395 514.39541083 204.04124379 514.40205514 C202.87909879 514.39895794 201.7169538 514.39586074 200.51959229 514.39266968 C199.28027034 514.39720079 198.04094839 514.4017319 196.76407123 514.40640032 C193.32659573 514.41687386 189.8893294 514.41836961 186.4518528 514.41601157 C182.74347051 514.41560346 179.03511945 514.42664209 175.32675171 514.43612671 C168.06192358 514.45273942 160.79712791 514.45823639 153.53228238 514.45935147 C147.62619981 514.4603019 141.72012795 514.46441197 135.81404877 514.47075272 C119.06656641 514.48836659 102.31910968 514.49759147 85.57161799 514.49609177 C84.66876286 514.49601186 83.76590773 514.49593194 82.83569336 514.49584961 C81.93173477 514.49576785 81.02777618 514.49568609 80.09642491 514.49560185 C65.44962971 514.49478911 50.80293739 514.51392319 36.15617195 514.54212634 C21.1143678 514.5708614 6.0726138 514.58466627 -8.96921849 514.58293879 C-17.41298214 514.58227506 -25.85663797 514.58775986 -34.30037689 514.60929489 C-41.49041638 514.62751497 -48.68029918 514.63184735 -55.87035176 514.61827604 C-59.5373437 514.61175024 -63.20403511 514.61161476 -66.87099838 514.62898254 C-70.85047803 514.64763623 -74.82951993 514.63514831 -78.809021 514.61972046 C-80.53885416 514.63515115 -80.53885416 514.63515115 -82.30363345 514.65089357 C-91.6238975 514.57106034 -98.87586209 512.25685596 -105.82836914 505.90258789 C-110.89659957 500.16615792 -113.50781209 493.83053779 -113.54585266 486.22937012 C-113.55300797 485.24519608 -113.56016327 484.26102203 -113.5675354 483.24702454 C-113.5702243 482.17365341 -113.57291321 481.10028229 -113.57568359 479.99438477 C-113.58225479 478.85905807 -113.58882599 477.72373138 -113.59559631 476.55400085 C-113.615311 472.79649796 -113.62698509 469.03903491 -113.63696289 465.28149414 C-113.64103842 463.99934525 -113.64511395 462.71719635 -113.64931297 461.39619446 C-113.66801282 455.31467008 -113.68258398 449.23316569 -113.69092494 443.15161848 C-113.7007097 436.13389386 -113.7270692 429.1164836 -113.76742584 422.0988698 C-113.80119925 416.01732982 -113.81306747 409.93592239 -113.81712914 403.85429382 C-113.82201197 401.26744956 -113.83367378 398.68060906 -113.85216713 396.09382629 C-113.87639983 392.48099378 -113.87562273 388.86899165 -113.86865234 385.25610352 C-113.8814624 384.18273239 -113.89427246 383.10936127 -113.9074707 382.00346375 C-113.85661475 374.79545345 -113.85661475 374.79545345 -111.55680847 371.42956543 C-109.39868164 370.12524414 -109.39868164 370.12524414 -106.39868164 370.12524414 C-106.39868164 364.51524414 -106.39868164 358.90524414 -106.39868164 353.12524414 C-108.04868164 352.46524414 -109.69868164 351.80524414 -111.39868164 351.12524414 C-113.4937051 347.98270895 -113.64956419 347.27035646 -113.65595055 343.69228268 C-113.66239944 342.77982688 -113.66884833 341.86737108 -113.67549264 340.92726511 C-113.67239544 339.92339638 -113.66929824 338.91952764 -113.66610718 337.88523865 C-113.67063829 336.81984031 -113.6751694 335.75444198 -113.67983782 334.65675884 C-113.69254914 331.06865514 -113.69085709 327.48070192 -113.68920898 323.89257812 C-113.6951902 321.32711083 -113.70199479 318.76164535 -113.70956421 316.19618225 C-113.72543486 309.93872892 -113.73167465 303.68133116 -113.73278897 297.42385959 C-113.73373903 292.33533822 -113.73784725 287.24682928 -113.74419022 282.15831184 C-113.76181111 267.72825416 -113.7710283 253.29822625 -113.76952927 238.86815774 C-113.76944936 238.08988834 -113.76936944 237.31161894 -113.76928711 236.50976562 C-113.76920535 235.73054416 -113.76912359 234.9513227 -113.76903935 234.14848847 C-113.76822723 221.5327238 -113.78734381 208.91707876 -113.81556384 196.30134868 C-113.8443178 183.34447471 -113.85810261 170.38765901 -113.85637629 157.43075234 C-113.85571303 150.15784379 -113.86117652 142.88506048 -113.88273239 135.61218071 C-113.90288868 128.76757513 -113.90224467 121.9232377 -113.88769913 115.078619 C-113.88560861 112.5688361 -113.89032627 110.05903671 -113.90242004 107.54928207 C-113.91788397 104.11725683 -113.90855543 100.68614116 -113.89315796 97.25413513 C-113.90344509 96.26588145 -113.91373221 95.27762777 -113.92433107 94.25942701 C-113.84681608 86.4156366 -111.81277573 80.05932339 -107.71118164 73.37524414 C-100.74400025 66.59636495 -93.76127789 63.04580015 -84.02368164 63.00024414 C-82.14849069 63.0321817 -80.27334954 63.07064216 -78.39868164 63.12524414 C-78.19243164 61.82586914 -77.98618164 60.52649414 -77.77368164 59.18774414 C-76.04412646 51.60155728 -72.2458065 46.08901988 -65.83618164 41.68774414 C-60.33874561 38.24817186 -56.12675114 36.86811142 -49.58618164 37.00024414 C-48.42473633 37.01829102 -47.26329102 37.03633789 -46.06665039 37.05493164 C-45.1862207 37.07813477 -44.30579102 37.10133789 -43.39868164 37.12524414 C-43.44508789 36.37500977 -43.49149414 35.62477539 -43.53930664 34.85180664 C-43.85843068 25.80236075 -42.34050884 18.73298092 -36.89868164 11.37524414 C-26.65946444 1.02044175 -13.65057166 0.81581162 0 0 Z " fill="#EEECEE" transform="translate(160.398681640625,-2.125244140625)"/>
<path d="M0 0 C2.16098182 -0.14562708 4.32190701 -0.29209642 6.4827795 -0.43933678 C33.83273119 -2.23493714 61.22449886 -3.22723543 88.62271816 -3.88726532 C90.66018035 -3.93716676 92.69755943 -3.9897005 94.73493719 -4.04292965 C217.4518188 -7.21841255 217.4518188 -7.21841255 256.84558457 29.90093774 C262.52639076 35.42044599 267.66296534 41.36576104 272.66381836 47.50024414 C273.10768466 48.0416773 273.55155095 48.58311046 274.00886774 49.14095068 C304.71108062 86.74330204 304.71108062 86.74330204 304.73553944 100.57522583 C304.73999728 101.73997846 304.74445512 102.90473108 304.74904805 104.10477924 C304.74877151 106.04101044 304.74877151 106.04101044 304.74848938 108.01635742 C304.75178717 109.39276579 304.75551256 110.76917318 304.75963086 112.14557934 C304.76966916 115.94128319 304.77337061 119.73697122 304.77602017 123.53268647 C304.77991796 127.62150386 304.78949684 131.71030867 304.79823303 135.79911804 C304.81801516 145.68199152 304.82806711 155.56486605 304.83696082 165.44775438 C304.84134197 170.10069884 304.84670933 174.75364214 304.85194969 179.40658569 C304.86896581 194.87342594 304.88345922 210.34026547 304.89069843 225.80711365 C304.89260837 229.82282512 304.89452869 233.83853659 304.89648438 237.85424805 C304.89696812 238.85234989 304.89745186 239.85045173 304.89795025 240.87879908 C304.9062476 257.04150115 304.93157782 273.20412914 304.96406505 289.36679888 C304.99714134 305.95775404 305.01514782 322.54867157 305.01834267 339.13965988 C305.02050754 348.45596659 305.02925247 357.77216536 305.05480385 367.08843994 C305.07651884 375.02437484 305.08455744 382.96017559 305.07483707 390.89613682 C305.0702943 394.94397708 305.07217693 398.99154062 305.09159851 403.03934288 C305.1092455 406.74942519 305.10822038 410.45902924 305.09270122 414.16911674 C305.08920792 416.13802005 305.10534022 418.10692847 305.12230569 420.0757618 C305.05927531 428.78461626 303.47706791 435.43883747 298.91381836 442.87524414 C291.94663697 449.65412333 284.96391461 453.20468813 275.22631836 453.25024414 C273.35112741 453.21830658 271.47598626 453.17984612 269.60131836 453.12524414 C269.64772461 453.87547852 269.69413086 454.62571289 269.74194336 455.39868164 C270.05074049 464.15528585 268.4864502 470.42354781 263.91381836 477.87524414 C256.94663697 484.65412333 249.96391461 488.20468813 240.22631836 488.25024414 C238.35112741 488.21830658 236.47598626 488.17984612 234.60131836 488.12524414 C234.29194336 490.07430664 234.29194336 490.07430664 233.97631836 492.06274414 C232.24676318 499.648931 228.44844322 505.1614684 222.03881836 509.56274414 C217.20429284 512.58755423 213.01819649 514.3736689 207.26353836 514.38251305 C206.20018115 514.38896194 205.13682395 514.39541083 204.04124379 514.40205514 C202.87909879 514.39895794 201.7169538 514.39586074 200.51959229 514.39266968 C199.28027034 514.39720079 198.04094839 514.4017319 196.76407123 514.40640032 C193.32659573 514.41687386 189.8893294 514.41836961 186.4518528 514.41601157 C182.74347051 514.41560346 179.03511945 514.42664209 175.32675171 514.43612671 C168.06192358 514.45273942 160.79712791 514.45823639 153.53228238 514.45935147 C147.62619981 514.4603019 141.72012795 514.46441197 135.81404877 514.47075272 C119.06656641 514.48836659 102.31910968 514.49759147 85.57161799 514.49609177 C84.66876286 514.49601186 83.76590773 514.49593194 82.83569336 514.49584961 C81.93173477 514.49576785 81.02777618 514.49568609 80.09642491 514.49560185 C65.44962971 514.49478911 50.80293739 514.51392319 36.15617195 514.54212634 C21.1143678 514.5708614 6.0726138 514.58466627 -8.96921849 514.58293879 C-17.41298214 514.58227506 -25.85663797 514.58775986 -34.30037689 514.60929489 C-41.49041638 514.62751497 -48.68029918 514.63184735 -55.87035176 514.61827604 C-59.5373437 514.61175024 -63.20403511 514.61161476 -66.87099838 514.62898254 C-70.85047803 514.64763623 -74.82951993 514.63514831 -78.809021 514.61972046 C-80.53885416 514.63515115 -80.53885416 514.63515115 -82.30363345 514.65089357 C-91.6238975 514.57106034 -98.87586209 512.25685596 -105.82836914 505.90258789 C-110.89659957 500.16615792 -113.50781209 493.83053779 -113.54585266 486.22937012 C-113.55300797 485.24519608 -113.56016327 484.26102203 -113.5675354 483.24702454 C-113.5702243 482.17365341 -113.57291321 481.10028229 -113.57568359 479.99438477 C-113.58225479 478.85905807 -113.58882599 477.72373138 -113.59559631 476.55400085 C-113.615311 472.79649796 -113.62698509 469.03903491 -113.63696289 465.28149414 C-113.64103842 463.99934525 -113.64511395 462.71719635 -113.64931297 461.39619446 C-113.66801282 455.31467008 -113.68258398 449.23316569 -113.69092494 443.15161848 C-113.7007097 436.13389386 -113.7270692 429.1164836 -113.76742584 422.0988698 C-113.80119925 416.01732982 -113.81306747 409.93592239 -113.81712914 403.85429382 C-113.82201197 401.26744956 -113.83367378 398.68060906 -113.85216713 396.09382629 C-113.87639983 392.48099378 -113.87562273 388.86899165 -113.86865234 385.25610352 C-113.8814624 384.18273239 -113.89427246 383.10936127 -113.9074707 382.00346375 C-113.85654938 374.78618766 -113.85654938 374.78618766 -111.55290222 371.46081543 C-108.56675469 369.60946699 -106.85476753 369.56098522 -103.39868164 370.12524414 C-100.74452209 371.48100281 -100.74452209 371.48100281 -98.39868164 374.12524414 C-97.64648917 377.71927813 -97.75029686 381.27331741 -97.80273438 384.93310547 C-97.79664658 386.58497612 -97.79664658 386.58497612 -97.79043579 388.2702179 C-97.78491353 390.66232625 -97.79094105 393.05448257 -97.80709648 395.44654274 C-97.83245357 399.23388885 -97.82773771 403.02014312 -97.81520081 406.80754089 C-97.79618603 414.16769768 -97.81012547 421.52744477 -97.83067322 428.88756561 C-97.85752411 438.88119418 -97.8637675 448.87445921 -97.83568001 458.86810875 C-97.83231857 462.59687672 -97.85354791 466.3249764 -97.87608337 470.05366516 C-97.87357163 472.34551132 -97.87001111 474.63735666 -97.86523438 476.92919922 C-97.87811996 477.9637323 -97.89100555 478.99826538 -97.90428162 480.06414795 C-97.86116398 486.27389947 -97.28452641 490.17609179 -93.39868164 495.12524414 C-87.78777744 499.00567376 -82.08191068 498.54517992 -75.5249176 498.50619507 C-74.32008207 498.51087504 -73.11524653 498.51555501 -71.87390083 498.5203768 C-68.53732749 498.5302638 -65.20126164 498.52671737 -61.86471927 498.51741815 C-58.26341254 498.51062729 -54.66214999 498.52110911 -51.06085205 498.52935791 C-44.00869868 498.54269747 -36.9566411 498.53981641 -29.90448398 498.53111999 C-24.17241327 498.52434419 -18.44036939 498.52342627 -12.70829582 498.52669144 C-11.48444947 498.52738099 -11.48444947 498.52738099 -10.23587896 498.52808446 C-8.57837327 498.52904365 -6.92086759 498.53001628 -5.26336192 498.53100224 C10.27931718 498.53955692 25.8219432 498.52972105 41.3646136 498.51360114 C54.69818045 498.5002004 68.03166894 498.50252388 81.36523438 498.51635742 C96.85083575 498.53241619 112.33639059 498.53873029 127.82199913 498.52952063 C129.47370501 498.52856499 131.12541089 498.52762188 132.77711678 498.52669144 C133.9961032 498.5259972 133.9961032 498.5259972 135.23971562 498.52528893 C140.96375588 498.52269975 146.6877666 498.52706856 152.41180229 498.5341301 C159.38923124 498.5425487 166.36655895 498.54025751 173.34397631 498.52428786 C176.90333521 498.51640957 180.4625254 498.51330587 184.02188301 498.52323532 C187.88154074 498.53383955 191.74092288 498.52116781 195.60057068 498.50619507 C196.72391782 498.51288723 197.84726496 498.5195794 199.00465292 498.52647436 C204.97542725 498.48146659 209.35007121 498.05797471 214.60131836 495.12524414 C216.21235127 493.40164925 216.21235127 493.40164925 217.03881836 491.43774414 C217.81225586 489.79805664 217.81225586 489.79805664 218.60131836 488.12524414 C218.03612991 488.1363472 217.47094147 488.14745026 216.8886261 488.15888977 C211.00013042 488.26960427 205.11193089 488.34496098 199.22265625 488.39990234 C197.02559396 488.42502923 194.82861512 488.4591366 192.63183594 488.50244141 C189.47171431 488.56317176 186.31269878 488.59147247 183.15209961 488.61352539 C181.68151848 488.65223503 181.68151848 488.65223503 180.18122864 488.69172668 C175.49807613 488.69364789 173.32096372 488.66403622 169.47705078 485.78613281 C167.60131836 483.12524414 167.60131836 483.12524414 167.03881836 480.06274414 C167.74245072 476.38821957 168.65318845 475.39319207 171.60131836 473.12524414 C174.77536011 472.63317871 174.77536011 472.63317871 178.56958008 472.64282227 C179.26278351 472.63890976 179.95598694 472.63499725 180.67019653 472.63096619 C182.17177295 472.62499931 183.67340728 472.62814668 185.17495346 472.63938904 C187.55487283 472.65666742 189.93357913 472.64913498 192.31350708 472.63513184 C198.22441024 472.6054953 204.13508121 472.61865722 210.04602051 472.63031006 C215.04111698 472.63852529 220.03568327 472.63052481 225.0307045 472.60118103 C227.36967517 472.59410407 229.70770399 472.61074361 232.04660034 472.6282959 C233.48916118 472.62258548 234.93171819 472.61576695 236.37426758 472.60766602 C237.62795135 472.61084839 238.88163513 472.61403076 240.17330933 472.61730957 C244.98350606 471.92684128 247.97188654 469.90615348 251.22933769 466.3458786 C252.92676117 463.59849509 253.09792462 461.58225893 253.28881836 458.37524414 C253.35456055 457.39040039 253.42030273 456.40555664 253.48803711 455.39086914 C253.52541992 454.64321289 253.56280273 453.89555664 253.60131836 453.12524414 C253.02957182 453.12676302 252.45782527 453.1282819 251.86875308 453.12984681 C217.96532197 453.21940328 184.0619178 453.28801266 150.15839414 453.32950546 C146.08549498 453.33450815 142.01259606 453.33968545 137.93969727 453.3449707 C136.7234611 453.34654457 136.7234611 453.34654457 135.4826545 453.34815022 C122.36232414 453.36554469 109.24206405 453.39707708 96.12177534 453.43385532 C82.65424365 453.47129146 69.1867487 453.49348564 55.71916711 453.50159812 C47.41219918 453.50708036 39.10542989 453.52438129 30.79852311 453.55691001 C25.09837642 453.57809092 19.39833209 453.58443612 13.69814892 453.57924965 C10.41177289 453.57669338 7.12581533 453.58275159 3.83948517 453.60206604 C0.26939386 453.62201725 -3.29985305 453.61716356 -6.8699646 453.60626221 C-7.89917412 453.61791357 -8.92838364 453.62956494 -9.98878133 453.64156938 C-19.69761088 453.56164021 -27.55971327 450.74572333 -34.64477539 444.04711914 C-42.72708157 435.19078364 -43.69697915 426.36273253 -43.6728363 414.77609253 C-43.67807298 413.53223947 -43.68330966 412.2883864 -43.68870503 411.00684083 C-43.70108948 407.56616543 -43.70454918 404.12569467 -43.70410812 400.68501115 C-43.70576015 396.9699202 -43.71883339 393.25486613 -43.7303009 389.53979492 C-43.75311463 381.42443056 -43.76106672 373.3090924 -43.76612735 365.19370031 C-43.76938679 360.12661825 -43.77591053 355.05954375 -43.78312874 349.99246597 C-43.8026853 335.96143018 -43.81909658 321.93040142 -43.82200527 307.89935112 C-43.82228663 306.55362587 -43.82228663 306.55362587 -43.82257367 305.18071426 C-43.82293991 303.36204155 -43.82330361 301.54336885 -43.82366478 299.72469614 C-43.82393899 298.37053332 -43.82393899 298.37053332 -43.82421875 296.98901367 C-43.8243993 296.08513684 -43.82457985 295.18126002 -43.82476587 294.24999298 C-43.82831133 279.58766804 -43.85536114 264.92548961 -43.89271664 250.26321553 C-43.93076701 235.20780669 -43.95016248 220.15247065 -43.95046479 205.09701264 C-43.95104988 196.64443445 -43.95957627 188.19203133 -43.98846245 179.73949814 C-44.01293197 172.54644324 -44.02028895 165.35362735 -44.00521492 158.16054212 C-43.99802924 154.48991611 -43.99897413 150.8197625 -44.02162552 147.149189 C-44.0459302 143.17272399 -44.03162713 139.19693852 -44.01341248 135.22042847 C-44.02661244 134.05691923 -44.03981241 132.89340999 -44.05341238 131.6946429 C-43.97183327 123.93245304 -43.97183327 123.93245304 -41.08682346 119.86929512 C-38.39868164 118.12524414 -38.39868164 118.12524414 -34.77368164 118.12524414 C-31.43956246 119.11313131 -30.40544074 119.44017977 -28.39868164 122.12524414 C-28.02312613 124.44019252 -28.02312613 124.44019252 -28.02230072 127.22530842 C-28.01469428 128.28653363 -28.00708783 129.34775883 -27.99925089 130.44114238 C-28.00614482 131.61115942 -28.01303876 132.78117646 -28.0201416 133.98664856 C-28.01561147 135.22637836 -28.01108134 136.46610815 -28.00641394 137.74340552 C-27.99677459 141.19129194 -28.00058403 144.63869894 -28.00991893 148.0865556 C-28.01670002 151.80241717 -28.00619052 155.51823285 -27.99763489 159.23408508 C-27.98505272 165.67561041 -27.98310078 172.11706861 -27.98799133 178.55860329 C-27.99479025 187.87856774 -27.98229798 197.1984307 -27.96448416 206.51837703 C-27.93581515 221.64717529 -27.9183164 236.77596262 -27.90991211 251.90478516 C-27.90915134 253.26359994 -27.90915134 253.26359994 -27.9083752 254.64986553 C-27.90484838 261.07915826 -27.90171924 267.50845116 -27.89868164 273.93774414 C-27.89521352 281.27669287 -27.89156421 288.61564145 -27.88745117 295.95458984 C-27.88694856 296.85845591 -27.88644594 297.76232198 -27.88592809 298.69357792 C-27.87718591 313.76130818 -27.85675237 328.82900083 -27.82796907 343.89670581 C-27.81077945 353.19344132 -27.80420858 362.49007051 -27.81127512 371.78681984 C-27.81545224 378.15737145 -27.80911181 384.527856 -27.79447639 390.898392 C-27.78641229 394.57507068 -27.78331745 398.25158313 -27.79329872 401.9282608 C-27.80402664 405.91322618 -27.79172846 409.89793108 -27.77722168 413.88288879 C-27.78411561 415.04621367 -27.79100955 416.20953854 -27.79811239 417.40811568 C-27.75808373 423.03394835 -27.69240011 427.32488694 -24.39868164 432.12524414 C-20.19278272 436.01570064 -17.11629769 437.24873113 -11.45479107 437.25667191 C-10.42839982 437.26051305 -9.40200857 437.2643542 -8.34451455 437.26831174 C-7.21340699 437.26744526 -6.08229944 437.26657877 -4.91691589 437.26568604 C-3.71802162 437.26865716 -2.51912735 437.27162828 -1.28390294 437.27468944 C2.04981383 437.28187749 5.38347908 437.28454935 8.71719992 437.2852869 C12.31034844 437.28713636 15.90348576 437.29468314 19.49662781 437.30142212 C27.35610495 437.31501028 35.215577 437.32103087 43.07506394 437.32543278 C47.98132005 437.3281943 52.88757419 437.33243148 57.79382896 437.33693695 C71.37433785 437.34913009 84.95484514 437.35942942 98.53535938 437.36281204 C99.40472236 437.36303161 100.27408533 437.36325117 101.16979263 437.36347739 C102.04125029 437.36369567 102.91270794 437.36391395 103.8105734 437.36413884 C105.57651508 437.36458231 107.34245676 437.36502887 109.10839844 437.36547852 C109.98436881 437.36569995 110.86033919 437.36592138 111.76285412 437.36614951 C125.95912581 437.37009817 140.15534619 437.38755403 154.35159806 437.41083804 C168.92210395 437.43454325 183.49258409 437.44701351 198.06310958 437.44817996 C206.24577897 437.44909717 214.4283815 437.45486111 222.61103249 437.47299957 C229.57830234 437.48838934 236.54548469 437.49352768 243.51276831 437.48526147 C247.06794123 437.48135099 250.62293784 437.48230376 254.17808914 437.49631882 C258.03166974 437.5113715 261.88500133 437.50320298 265.73860168 437.49273682 C266.86301708 437.50079322 267.98743247 437.50884963 269.14592105 437.51715016 C274.69819566 437.48177199 278.85312367 437.3523685 283.60131836 434.12524414 C287.63767386 429.76161657 288.72394828 426.61599939 288.73998356 420.75854206 C288.745458 419.63788233 288.75093245 418.5172226 288.75657278 417.36260349 C288.75755089 416.12623856 288.758529 414.88987363 288.75953674 413.61604309 C288.76694371 411.65209305 288.76694371 411.65209305 288.77450031 409.64846724 C288.78810155 406.00674482 288.79550551 402.36503176 288.80192697 398.72329056 C288.8099222 394.79896007 288.82362299 390.87464911 288.8366394 386.95033264 C288.85841461 380.14868085 288.87655528 373.3470271 288.89224434 366.54535866 C288.91493346 356.71122459 288.94307761 346.87711213 288.97256362 337.04299637 C289.02025128 321.08873237 289.06351228 305.13445955 289.10400391 289.18017578 C289.14335286 273.67984327 289.18477764 258.17951861 289.22900391 242.67919922 C289.23309031 241.2466236 289.23309031 241.2466236 289.23725928 239.78510705 C289.25093866 234.99401606 289.26465895 230.20292518 289.27839959 225.41183436 C289.39238282 185.64965393 289.49918809 145.88745667 289.60131836 106.12524414 C288.4286013 106.13523689 288.4286013 106.13523689 287.23219299 106.14543152 C279.83279476 106.20576118 272.43351727 106.25132889 265.0339365 106.28068066 C261.23052464 106.29627844 257.42731751 106.31740762 253.62402344 106.3515625 C249.94761607 106.38436799 246.27140453 106.40214134 242.59486198 106.40987587 C241.19835265 106.41538165 239.80185297 106.42613228 238.40542793 106.44243431 C226.34371547 106.57753214 217.74703802 105.25014315 208.60131836 97.12524414 C202.55350669 91.07743247 200.3815048 83.39767545 200.1472168 75.02319336 C200.14784401 72.32314733 200.16918951 69.62907914 200.21069336 66.92993164 C200.21817048 65.48691601 200.22385644 64.04389009 200.22784424 62.6008606 C200.24298524 58.83596873 200.2821639 55.07171193 200.32666016 51.30706787 C200.36786496 47.45227647 200.38590858 43.59738064 200.40600586 39.74243164 C200.44867241 32.20308225 200.51677948 24.66425278 200.60131836 17.12524414 C172.263937 17.18573158 143.92664627 17.26319812 115.58936787 17.36095905 C102.43230807 17.40595243 89.27527556 17.44535894 76.11816406 17.47167969 C64.65237295 17.49463106 53.18666793 17.52799703 41.72094506 17.5739457 C35.64817691 17.59791647 29.57549423 17.61662 23.50267982 17.62285805 C17.78914381 17.62889143 12.07582658 17.64882809 6.36237144 17.67951965 C4.26332491 17.68832791 2.16424982 17.69201672 0.06518555 17.6902523 C-2.79722622 17.68860563 -5.65896622 17.70524715 -8.52128601 17.72651672 C-9.35494853 17.72166915 -10.18861105 17.71682157 -11.04753608 17.7118271 C-15.7381983 17.76948392 -18.46665413 18.32350633 -22.39868164 21.12524414 C-23.05868164 21.12524414 -23.71868164 21.12524414 -24.39868164 21.12524414 C-24.86274414 22.30086914 -24.86274414 22.30086914 -25.33618164 23.50024414 C-26.39868164 26.12524414 -26.39868164 26.12524414 -27.39868164 28.12524414 C-27.49889957 30.2586689 -27.53429043 32.39523763 -27.54052734 34.53100586 C-27.54573898 35.51667038 -27.54573898 35.51667038 -27.55105591 36.52224731 C-27.55841297 37.95074491 -27.56375862 39.37925393 -27.56734657 40.80776596 C-27.57450761 43.06905155 -27.59017104 45.33011958 -27.60868835 47.59133911 C-27.66117648 54.02106754 -27.70914117 60.45067715 -27.72460938 66.88061523 C-27.73468874 70.81240957 -27.76401098 74.74365732 -27.80592918 78.67523575 C-27.81824492 80.17349234 -27.82335938 81.67182613 -27.82113075 83.17013168 C-27.81877861 85.26757922 -27.84093304 87.36345785 -27.86865234 89.46069336 C-27.87745171 91.25034012 -27.87745171 91.25034012 -27.88642883 93.07614136 C-28.5028396 96.7452277 -29.43726385 97.93208681 -32.39868164 100.12524414 C-35.89868164 100.68774414 -35.89868164 100.68774414 -39.39868164 100.12524414 C-41.84281817 97.99029578 -43.21317814 96.26560994 -43.74255371 93.01132202 C-43.86206099 90.40826683 -43.84810154 87.83585761 -43.78930664 85.23071289 C-43.78364685 84.2833577 -43.77798706 83.3360025 -43.77215576 82.35993958 C-43.74982248 79.34368679 -43.69963144 76.32863592 -43.64868164 73.31274414 C-43.62861271 71.26393321 -43.61036263 69.2151036 -43.59399414 67.16625977 C-43.54996758 62.15212705 -43.48096074 57.13888915 -43.39868164 52.12524414 C-45.31657877 52.40870692 -47.23297347 52.70234694 -49.14868164 53.00024414 C-50.74969727 53.24387695 -50.74969727 53.24387695 -52.38305664 53.49243164 C-55.10770328 54.06418392 -57.07111792 54.62393854 -59.39868164 56.12524414 C-60.63158365 58.58229176 -60.63158365 58.58229176 -61.39868164 61.12524414 C-61.89368164 62.11524414 -61.89368164 62.11524414 -62.39868164 63.12524414 C-62.49766659 65.27698883 -62.52971362 67.43189291 -62.53290272 69.5859108 C-62.53525495 70.26008201 -62.53760718 70.93425322 -62.54003069 71.62885386 C-62.54673992 73.91023893 -62.54626189 76.1915673 -62.54585266 78.47296143 C-62.54915009 80.11620761 -62.5528754 81.75945299 -62.55699414 83.40269732 C-62.56703602 87.93582411 -62.57073444 92.46893766 -62.57338345 97.002074 C-62.57728002 101.88427722 -62.58685878 106.76646988 -62.59559631 111.64866638 C-62.61537888 123.44773933 -62.62542912 135.24681316 -62.6343241 147.04589856 C-62.638704 152.59792902 -62.64407157 158.14995852 -62.64931297 163.70198822 C-62.66632691 182.15067471 -62.68082209 200.5993606 -62.68806171 219.04805374 C-62.68997171 223.83794404 -62.69189203 228.62783433 -62.69384766 233.41772461 C-62.69457327 235.20355025 -62.69457327 235.20355025 -62.69531354 237.02545318 C-62.70361755 256.3206505 -62.72896001 275.6157859 -62.76142833 294.91095617 C-62.79446812 314.70660695 -62.81250768 334.50222623 -62.81570596 354.29790473 C-62.81787389 365.41824923 -62.82666395 376.53850342 -62.85216713 387.65882111 C-62.87383207 397.12758048 -62.88194532 406.59622762 -62.87220035 416.06500897 C-62.86764344 420.89813987 -62.86962237 425.73103902 -62.88896179 430.56413841 C-62.90650727 434.98701616 -62.90566625 439.40949161 -62.8900645 443.83237311 C-62.88767527 445.43402941 -62.89207971 447.03571295 -62.90389315 448.63732746 C-62.91894539 450.81244724 -62.90938791 452.98612922 -62.89366627 455.16121292 C-62.89464308 456.36991775 -62.89561988 457.57862257 -62.89662629 458.82395482 C-62.11071876 464.03438959 -59.59484946 467.10064318 -55.66189766 470.46949005 C-51.73772638 472.46061249 -48.48601973 472.67741284 -44.18722534 472.61730957 C-43.37637769 472.62198856 -42.56553004 472.62666755 -41.73011124 472.63148832 C-39.02148929 472.64239449 -36.31380218 472.62495023 -33.60522461 472.60766602 C-31.66011277 472.60985246 -29.71500226 472.61385009 -27.76989746 472.61952209 C-23.58576509 472.62808161 -19.40188932 472.62431112 -15.21776962 472.61109924 C-8.60433294 472.59076769 -1.99115513 472.60073698 4.62228394 472.61535645 C18.65698524 472.64211262 32.69160249 472.63537723 46.72631836 472.62524414 C61.88441786 472.61430388 77.04238458 472.60901151 92.20046127 472.64253855 C98.77773788 472.6559362 105.35462753 472.64991858 111.93188119 472.62917328 C116.01836251 472.62020784 120.10469352 472.62764249 124.19116211 472.63958549 C126.08908467 472.64172188 127.9870291 472.63696269 129.8849144 472.62487984 C132.47162637 472.60933688 135.05714076 472.61819459 137.64382935 472.63317871 C138.39849302 472.62268981 139.1531567 472.61220092 139.93068898 472.60139418 C143.37964556 472.64602735 145.27205789 472.87953124 148.07131767 474.96849823 C150.14697254 477.89441859 150.11402956 479.60951022 149.60131836 483.12524414 C147.82147431 486.26115984 147.07823629 486.9662715 143.60131836 488.12524414 C140.98693779 488.22736293 138.39893756 488.27305319 135.78427124 488.27241516 C134.97951469 488.27609185 134.17475814 488.27976854 133.34561503 488.28355664 C130.63966468 488.29460001 127.93375272 488.29843845 125.2277832 488.30224609 C123.291228 488.30851032 121.35467401 488.31515709 119.41812134 488.32215881 C113.04950804 488.34320888 106.68089448 488.35356304 100.31225586 488.36352539 C98.1198691 488.36757279 95.92748247 488.3716897 93.73509598 488.37587547 C83.43386325 488.39493031 73.1326377 488.40915995 62.83139074 488.41748744 C50.94232017 488.42725718 39.05343591 488.4535687 27.16443098 488.49398834 C17.97449536 488.52415886 8.78461311 488.53895727 -0.40537107 488.54226846 C-5.89366948 488.54461815 -11.38176893 488.55356808 -16.87001419 488.57872963 C-22.03614198 488.60203116 -27.2019401 488.6062351 -32.36810684 488.59596825 C-34.26070757 488.59547326 -36.15332464 488.60178266 -38.04587555 488.61552429 C-56.23120539 488.7401408 -56.23120539 488.7401408 -63.39868164 484.12524414 C-64.04535608 483.75733922 -64.69203053 483.3894343 -65.35830116 483.01038074 C-71.70247632 479.30151105 -75.22648006 472.69735028 -77.46215808 465.88446134 C-78.38531561 462.17889553 -78.64726846 459.0902042 -78.6447773 455.2824564 C-78.64708499 454.62773237 -78.64939268 453.97300834 -78.65177029 453.29844418 C-78.65704731 451.11329244 -78.6481056 448.92843782 -78.63919067 446.74330139 C-78.64006321 445.15746077 -78.64181508 443.57162042 -78.64436901 441.98578161 C-78.64883704 437.63475725 -78.64084632 433.28383152 -78.63081288 428.93281972 C-78.62217286 424.2382841 -78.62509894 419.54375399 -78.62661743 414.84921265 C-78.62766593 406.7178268 -78.62139296 398.58647306 -78.61014175 390.45509529 C-78.59388501 378.69850402 -78.58867857 366.94192828 -78.58616577 355.18532699 C-78.58178895 336.11084721 -78.56848017 317.03638455 -78.54956055 297.96191406 C-78.53120143 279.4332691 -78.51704508 260.90462878 -78.50854492 242.37597656 C-78.50775675 240.6627062 -78.50775675 240.6627062 -78.50695266 238.91482431 C-78.50434258 233.18481949 -78.50181516 227.45481464 -78.49932885 221.72480977 C-78.47859674 174.1916094 -78.44337153 126.6584276 -78.39868164 79.12524414 C-80.15858994 79.23129449 -81.91757341 79.35276556 -83.67602539 79.48071289 C-84.65563232 79.54669678 -85.63523926 79.61268066 -86.64453125 79.68066406 C-90.90642186 80.36862637 -92.52364881 81.95533615 -95.39868164 85.12524414 C-97.17581136 88.07246813 -97.64874024 90.22658213 -97.64922142 93.65116119 C-97.65422012 94.55885805 -97.65921881 95.4665549 -97.66436899 96.40175772 C-97.65970577 97.39513348 -97.65504256 98.38850924 -97.65023804 99.4119873 C-97.65320818 100.4702228 -97.65617831 101.5284583 -97.65923846 102.61876154 C-97.66689702 106.17631548 -97.66037681 109.73370523 -97.65405273 113.29125977 C-97.6568017 115.83705253 -97.66048103 118.38284444 -97.6650238 120.92863464 C-97.67314488 126.41631892 -97.67546455 131.90395858 -97.67307663 137.39164734 C-97.66998085 145.33029358 -97.68161102 153.26886842 -97.69762643 161.2074967 C-97.72359197 174.09299598 -97.7436095 186.9784953 -97.75708008 199.86401367 C-97.75789045 200.63527165 -97.75870082 201.40652963 -97.75953574 202.20115906 C-97.77076141 213.15054915 -97.77603932 224.09993415 -97.77892287 235.04932922 C-97.77912686 235.8205872 -97.77933085 236.59184518 -97.77954102 237.38647461 C-97.77984092 238.54195363 -97.77984092 238.54195363 -97.78014688 239.72077566 C-97.78387744 252.55790122 -97.80294548 265.39494933 -97.83463538 278.23203611 C-97.85356912 286.15232187 -97.85949981 294.07240924 -97.8488182 301.99271142 C-97.84176328 308.05789619 -97.85524837 314.12285369 -97.87643623 320.18801308 C-97.88177749 322.67934474 -97.8802287 325.1707018 -97.87140083 327.66202354 C-97.86034626 331.05451937 -97.87363456 334.4460639 -97.89315796 337.83850098 C-97.8840333 338.83187674 -97.87490865 339.8252525 -97.86550748 340.84873056 C-97.94019597 347.48601559 -97.94019597 347.48601559 -100.24668312 350.70175934 C-103.12546839 352.60599256 -104.93045659 353.19602424 -108.39868164 353.12524414 C-111.28358161 351.11411053 -113.11095503 349.48547645 -113.85851777 345.9513613 C-114.04337374 343.17127472 -114.05991167 340.43089413 -114.02687073 337.64472961 C-114.03396511 336.57762243 -114.0410595 335.51051525 -114.04836887 334.41107148 C-114.06599604 330.82885903 -114.04781853 327.2477248 -114.02978516 323.66552734 C-114.03492228 321.09976201 -114.04220198 318.5340002 -114.0514679 315.96824646 C-114.06985267 309.7176566 -114.06132545 303.46737926 -114.04337967 297.21679912 C-114.02935101 292.13402943 -114.02546144 287.05134455 -114.02882195 281.96855736 C-114.02929939 281.24497739 -114.02977683 280.52139743 -114.03026874 279.77589079 C-114.03129509 278.30586176 -114.03235045 276.83583274 -114.0334345 275.36580374 C-114.04200405 262.36343562 -114.02532182 249.36121817 -113.99560547 236.35888672 C-113.96679724 223.75367901 -113.95967004 211.14868862 -113.97509766 198.54345703 C-113.99188061 184.81207508 -113.99587039 171.08079635 -113.9783873 157.34941167 C-113.97654297 155.88327771 -113.97470825 154.41714373 -113.97288322 152.95100975 C-113.97197113 152.22969492 -113.97105904 151.50838009 -113.97011932 150.76520723 C-113.96452463 145.69380379 -113.9678114 140.62245088 -113.97442818 135.55105019 C-113.98299375 128.71458808 -113.96992927 121.87844348 -113.94257927 115.04203224 C-113.9357043 112.53548611 -113.93558788 110.02891077 -113.9427948 107.52236557 C-113.95151255 104.09478987 -113.93549215 100.66817267 -113.91334534 97.24067688 C-113.9215861 96.25378744 -113.92982687 95.266898 -113.93831736 94.25010282 C-113.84519312 86.41526862 -111.80855154 80.05243954 -107.71118164 73.37524414 C-100.74400025 66.59636495 -93.76127789 63.04580015 -84.02368164 63.00024414 C-82.14849069 63.0321817 -80.27334954 63.07064216 -78.39868164 63.12524414 C-78.19243164 61.82586914 -77.98618164 60.52649414 -77.77368164 59.18774414 C-76.04412646 51.60155728 -72.2458065 46.08901988 -65.83618164 41.68774414 C-60.33874561 38.24817186 -56.12675114 36.86811142 -49.58618164 37.00024414 C-48.42473633 37.01829102 -47.26329102 37.03633789 -46.06665039 37.05493164 C-45.1862207 37.07813477 -44.30579102 37.10133789 -43.39868164 37.12524414 C-43.44508789 36.37500977 -43.49149414 35.62477539 -43.53930664 34.85180664 C-43.85843068 25.80236075 -42.34050884 18.73298092 -36.89868164 11.37524414 C-26.65946444 1.02044175 -13.65057166 0.81581162 0 0 Z " fill="#020201" transform="translate(160.398681640625,-2.125244140625)"/>
<path d="M0 0 C0.80091064 0.01409912 1.60182129 0.02819824 2.42700195 0.04272461 C3.33518677 0.06991577 3.33518677 0.06991577 4.26171875 0.09765625 C4.27630127 1.37930664 4.29088379 2.66095703 4.3059082 3.98144531 C4.36389195 8.7377509 4.44112508 13.4935831 4.52416992 18.24951172 C4.55741886 20.30770178 4.58545089 22.36598301 4.6081543 24.42431641 C4.64170065 27.38353316 4.69401677 30.34191442 4.75 33.30078125 C4.75638992 34.22070862 4.76277985 35.14063599 4.7693634 36.08843994 C4.87604824 41.04655657 4.87604824 41.04655657 6.54370117 45.64746094 C8.42331343 47.45003142 8.42331343 47.45003142 12.26171875 48.09765625 C12.26171875 54.03765625 12.26171875 59.97765625 12.26171875 66.09765625 C10.28171875 66.75765625 8.30171875 67.41765625 6.26171875 68.09765625 C5.263604 71.09200051 5.13453956 73.06225385 5.13029099 76.18934059 C5.12452927 77.77840326 5.12452927 77.77840326 5.11865115 79.3995682 C5.11951763 80.56753888 5.12038412 81.73550956 5.12127686 82.93887329 C5.11830573 84.17648639 5.11533461 85.41409949 5.11227345 86.68921602 C5.10508458 90.13115619 5.10241347 93.57304646 5.10167599 97.01499057 C5.09982667 100.72476179 5.09227985 104.43452215 5.08554077 108.14428711 C5.07195064 116.26015591 5.0659314 124.37601977 5.06153011 132.49189806 C5.05876829 137.55965689 5.05453099 142.62741381 5.05002594 147.69517136 C5.03783134 161.72603803 5.02753308 175.75690318 5.02415085 189.78777504 C5.02393128 190.68605944 5.02371172 191.58434384 5.0234855 192.50984897 C5.02326722 193.41028973 5.02304894 194.31073048 5.02282405 195.23845732 C5.02238058 197.06310566 5.02193402 198.887754 5.02148438 200.71240234 C5.02115223 202.07003673 5.02115223 202.07003673 5.02081338 203.45509808 C5.01686689 218.11493226 4.99941829 232.77471668 4.97612485 247.43453164 C4.9524033 262.48530722 4.9399486 277.53605785 4.93878293 292.58685243 C4.93786651 301.03733616 4.93212269 309.4877551 4.91396332 317.93822098 C4.89855135 325.13560446 4.89344825 332.33290313 4.90170142 339.53029998 C4.90560434 343.20128274 4.90469606 346.8720948 4.89064407 350.54305649 C4.87553402 354.52695682 4.88378255 358.51061779 4.89422607 362.49453735 C4.88616967 363.6491237 4.87811327 364.80371005 4.86981273 365.99328387 C4.93059076 375.90819135 6.75134943 384.21894673 13.72265625 391.65625 C21.53816881 399.01310572 30.36505661 400.69524734 40.79043579 400.61663818 C41.90970628 400.62413944 43.02897677 400.63164069 44.18216455 400.63936925 C47.91020877 400.65957215 51.63764051 400.65155784 55.36572266 400.64355469 C58.04698892 400.65229371 60.72820633 400.66260627 63.40945435 400.67488098 C69.17043328 400.69813287 74.93128656 400.70694421 80.69231033 400.7057724 C89.02161333 400.70409934 97.35074938 400.72447662 105.68000774 400.7501277 C119.19568062 400.7911571 132.71132335 400.81450848 146.22705078 400.82666016 C159.35142919 400.83849802 172.4757509 400.85871282 185.60009766 400.89013672 C186.40993322 400.89207282 187.21976878 400.89400892 188.05414481 400.89600369 C192.11710619 400.90576865 196.18006715 400.91569769 200.24302793 400.92570829 C233.91590032 401.00846182 267.58876317 401.06249079 301.26171875 401.09765625 C301.33638435 402.84569852 301.38949808 404.59466958 301.43359375 406.34375 C301.46549805 407.31755615 301.49740234 408.2913623 301.53027344 409.29467773 C301.16127879 413.14597547 299.59090288 415.04554436 296.96484375 417.7578125 C292.79167459 421.04083319 289.54513232 421.35093281 284.24584961 421.36889648 C283.19881615 421.3767366 283.19881615 421.3767366 282.13063049 421.38473511 C280.61923908 421.3949552 279.10781268 421.40075204 277.59638786 421.4026165 C275.20492512 421.40628318 272.81387593 421.42301593 270.42250061 421.44337463 C263.62508823 421.49877048 256.82761608 421.52952125 250.0300293 421.55395508 C245.86910334 421.56981221 241.7084736 421.6000065 237.54770088 421.63871956 C235.96208396 421.65038096 234.37641412 421.65630001 232.79075432 421.65640068 C230.57625154 421.65659232 228.362569 421.67482568 226.14819336 421.69702148 C224.25767494 421.70462746 224.25767494 421.70462746 222.32896423 421.71238708 C219.29780826 421.84917691 219.29780826 421.84917691 217.35865784 423.43910217 C215.60696767 426.08762925 215.82076145 428.01095514 216.26171875 431.09765625 C217.57531442 433.45712919 217.57531442 433.45712919 220.26171875 435.09765625 C223.73882751 435.72180352 227.18922178 435.70263602 230.71484375 435.70703125 C231.73020203 435.7235675 232.7455603 435.74010376 233.79168701 435.75714111 C237.0317587 435.80569015 240.2713608 435.82700785 243.51171875 435.84765625 C245.70965913 435.87581008 247.90757757 435.90573667 250.10546875 435.9375 C255.49079997 436.01145068 260.87599875 436.06305275 266.26171875 436.09765625 C264.46510771 440.88598083 262.71488315 443.93323204 257.95017564 446.19485819 C255.14024571 447.13844754 253.01309216 447.3502511 250.05890846 447.35492516 C248.50904839 447.36459849 248.50904839 447.36459849 246.92787802 447.37446725 C245.23514197 447.36982145 245.23514197 447.36982145 243.50820923 447.36508179 C242.30422812 447.3696129 241.10024701 447.37414401 239.85978162 447.37881243 C236.521057 447.38928426 233.18254776 447.39078202 229.843822 447.38842368 C226.24181799 447.38801551 222.6398461 447.39905462 219.03785706 447.40853882 C211.98224998 447.42514937 204.92667632 447.43064838 197.87105133 447.43176357 C192.13609944 447.43271396 186.40115858 447.43682379 180.66621017 447.44316483 C164.40663408 447.4607769 148.14708439 447.47000368 131.88749869 447.46850388 C131.01100108 447.46842397 130.13450346 447.46834405 129.23144531 447.46826172 C127.9150938 447.46813908 127.9150938 447.46813908 126.57214932 447.46801396 C112.34755919 447.46720093 98.12307492 447.48634298 83.89851542 447.51453845 C69.29290549 447.54326082 54.6873472 447.55707912 40.08170831 447.5553509 C31.88169343 447.5546868 23.68178953 447.5601877 15.48180008 447.581707 C8.50067543 447.59991024 1.51971209 447.6042732 -5.461426 447.59068815 C-9.02285953 447.58415426 -12.5839835 447.58405608 -16.14538765 447.60139465 C-20.00733691 447.62000299 -23.86883323 447.60758182 -27.73080444 447.59213257 C-28.8548337 447.60241969 -29.97886296 447.61270682 -31.13695371 447.62330568 C-37.5590582 447.56642516 -41.53793283 446.97044476 -46.73828125 443.09765625 C-51.32725442 437.28505774 -51.29956363 432.10721613 -51.22070312 424.88574219 C-51.22461563 423.77763184 -51.22852814 422.66952148 -51.2325592 421.52783203 C-51.23852125 419.1308626 -51.2353877 416.73385687 -51.22413635 414.33690643 C-51.20686854 410.54631247 -51.21438482 406.75648059 -51.22839355 402.96588135 C-51.25372113 394.92640544 -51.24842155 386.88714614 -51.23828125 378.84765625 C-51.22652807 369.51778226 -51.22779617 360.1883194 -51.26234436 350.8584671 C-51.26946191 347.11846935 -51.25273425 343.37905113 -51.23522949 339.63909912 C-51.24093393 337.35672691 -51.24774952 335.07435712 -51.25585938 332.79199219 C-51.24454483 331.74779114 -51.23323029 330.70359009 -51.22157288 329.62774658 C-51.22970505 328.67452515 -51.23783722 327.72130371 -51.24621582 326.73919678 C-51.24470772 325.91037868 -51.24319962 325.08156059 -51.24164581 324.2276268 C-51.56792925 321.93687916 -51.56792925 321.93687916 -53.58153534 320.37005997 C-55.79628257 318.96182836 -55.79628257 318.96182836 -58.73828125 318.09765625 C-58.73828125 312.48765625 -58.73828125 306.87765625 -58.73828125 301.09765625 C-56.75828125 300.10765625 -54.77828125 299.11765625 -52.73828125 298.09765625 C-51.5725863 295.76626634 -51.61241397 294.42013107 -51.6107893 291.82342148 C-51.60778165 290.92094012 -51.604774 290.01845876 -51.60167521 289.08862948 C-51.60342558 288.09079228 -51.60517596 287.09295507 -51.60697937 286.06488037 C-51.60486366 285.00976485 -51.60274794 283.95464934 -51.60056812 282.86756063 C-51.59454485 279.30850674 -51.59556992 275.74948807 -51.59643555 272.19042969 C-51.59340559 269.64817748 -51.58988459 267.10592582 -51.58590698 264.56367493 C-51.578005 259.0770635 -51.57284762 253.5904596 -51.56961632 248.10384369 C-51.56412392 239.43194111 -51.54723045 230.76007796 -51.52827454 222.0881958 C-51.52191745 219.12240226 -51.51560906 216.15660861 -51.50929737 213.19081497 C-51.50771361 212.44957661 -51.50612985 211.70833825 -51.50449809 210.94463812 C-51.48655384 202.50297122 -51.4703315 194.06130152 -51.45532227 185.61962891 C-51.45394639 184.84776455 -51.45257052 184.07590019 -51.45115296 183.280646 C-51.4292279 170.77533301 -51.41846822 158.27003014 -51.41095152 145.76470134 C-51.40288109 132.92988273 -51.37959234 120.09515097 -51.34299785 107.26038194 C-51.32096697 99.34178111 -51.31130996 91.42335881 -51.31749818 83.50472888 C-51.32104733 77.43562072 -51.30381432 71.36675473 -51.27882004 65.29768944 C-51.27188702 62.80720404 -51.27180423 60.31668889 -51.27902031 57.8262043 C-51.28786811 54.42991187 -51.27227946 51.03458087 -51.25053406 47.6383667 C-51.25897659 46.64945238 -51.26741913 45.66053806 -51.2761175 44.64165664 C-51.19232828 37.57924397 -49.32746884 34.07914499 -44.67578125 28.72265625 C-41.36562071 26.89150361 -39.77585115 26.92500613 -36.0546875 26.99609375 C-34.56304077 27.01808838 -34.56304077 27.01808838 -33.04125977 27.04052734 C-31.9012854 27.06880615 -31.9012854 27.06880615 -30.73828125 27.09765625 C-30.73681604 28.30815459 -30.73681604 28.30815459 -30.73532122 29.54310745 C-30.677056 77.36673143 -30.60326435 125.19030996 -30.50929497 173.01387781 C-30.49802673 178.75542678 -30.48688829 184.49697601 -30.47583008 190.23852539 C-30.47362639 191.38157005 -30.47142271 192.52461472 -30.46915225 193.7022971 C-30.4337747 212.21310844 -30.40891314 230.72391973 -30.38793423 249.23475235 C-30.36617584 268.2269413 -30.33312503 287.21908635 -30.28957969 306.21123797 C-30.26306369 317.93148801 -30.24536792 329.65168335 -30.23893521 341.3719619 C-30.23368119 349.40773447 -30.21746369 357.4434382 -30.19261559 365.47917389 C-30.17860116 370.11615757 -30.1694296 374.75301801 -30.17327309 379.39002419 C-30.17668679 383.63732137 -30.1662984 387.88435547 -30.14504573 392.13159878 C-30.13978351 393.66606005 -30.13953698 395.20054869 -30.14488562 396.73500966 C-30.17986809 407.91172448 -29.27903235 418.25356546 -21.73828125 427.09765625 C-14.59334038 433.05397479 -7.82037225 435.40689215 1.47317505 435.35162354 C2.2840227 435.35474352 3.09487036 435.3578635 3.93028915 435.36107802 C6.63865933 435.36903513 9.34680405 435.36274336 12.05517578 435.35644531 C14.00028616 435.35915615 15.94539552 435.3627176 17.89050293 435.36706543 C23.16713305 435.37617947 28.44368493 435.37264953 33.72031641 435.36630726 C39.24110786 435.36124364 44.76189261 435.36593959 50.28268433 435.36907959 C59.55158695 435.37271756 68.82045769 435.36792391 78.08935547 435.35839844 C88.81056174 435.34750781 99.53169199 435.35104458 110.25289643 435.36205125 C119.45555813 435.37112127 128.65819693 435.37241099 137.86086166 435.36717391 C143.35838625 435.36405347 148.85587507 435.36364705 154.35339737 435.37024689 C159.51948872 435.37601578 164.68548179 435.37203181 169.8515625 435.36045837 C171.74947827 435.35780962 173.64740228 435.35858053 175.54531479 435.3629837 C178.13173216 435.36843192 180.71783267 435.36161392 183.30422974 435.35162354 C184.05889341 435.35608498 184.81355709 435.36054642 185.59108937 435.36514306 C189.27539426 435.33745412 192.19461121 435.27112004 195.26171875 433.09765625 C196.66106888 430.29895598 196.5143728 428.19266833 196.26171875 425.09765625 C195.29859015 423.27392423 195.29859015 423.27392423 193.26171875 422.09765625 C190.57221692 421.80596553 188.11444137 421.69894474 185.42448425 421.72584534 C184.61761101 421.72202077 183.81073776 421.71819621 182.97941381 421.71425575 C180.26629379 421.70494427 177.55368056 421.71697872 174.84057617 421.72875977 C172.8991525 421.72629275 170.95773016 421.72245536 169.01631165 421.71734619 C164.83053855 421.70899604 160.64490142 421.70982612 156.45912743 421.7175312 C149.84120234 421.72909238 143.22345299 421.71696953 136.60554504 421.70091248 C120.16508042 421.66467936 103.72461956 421.65848853 87.28411865 421.66101074 C74.51360602 421.66272109 61.74323639 421.65562066 48.97276384 421.62103218 C42.3935564 421.60422002 35.8146973 421.60604897 29.23549116 421.6218549 C25.14125254 421.62764773 21.04717943 421.61691881 16.9529705 421.60160828 C15.05428395 421.59787866 13.15556971 421.60099988 11.25690842 421.61147881 C8.66415467 421.62483477 6.07260926 421.61365308 3.47990417 421.59645081 C2.35357764 421.61116097 2.35357764 421.61116097 1.20449704 421.62616831 C-3.91470891 421.55596119 -6.78547921 420.30222522 -10.73828125 417.09765625 C-14.94056355 412.32749797 -15.86314138 409.95961548 -15.87250233 403.63978291 C-15.87485456 402.96591129 -15.87720679 402.29203968 -15.8796303 401.59774771 C-15.88633954 399.31737195 -15.8858615 397.03705292 -15.88545227 394.75666809 C-15.8887497 393.1141346 -15.89247502 391.47160191 -15.89659375 389.82907027 C-15.90663567 385.29787409 -15.91033406 380.76669117 -15.91298306 376.23548543 C-15.91687965 371.3553081 -15.92645845 366.47514132 -15.93519592 361.5949707 C-15.95497902 349.80034185 -15.96502906 338.00571211 -15.97392371 326.21107081 C-15.97830375 320.66066353 -15.98367131 315.11025721 -15.98891258 309.55985069 C-16.00592701 291.11545542 -16.02042187 272.67106074 -16.02766132 254.22665882 C-16.02957131 249.43780835 -16.03149163 244.64895788 -16.03344727 239.86010742 C-16.03393101 238.6698193 -16.03441475 237.47953119 -16.03491315 236.25317373 C-16.04321596 216.96511848 -16.06855618 197.6771252 -16.10102794 178.38909701 C-16.13407391 158.59909147 -16.15210787 138.80911744 -16.15530556 119.01908416 C-16.15747299 107.90262015 -16.16625553 96.7862465 -16.19176674 85.66980934 C-16.21344014 76.2036404 -16.22154075 66.73758374 -16.21179996 57.2713928 C-16.20724545 52.44016321 -16.20920818 47.60916546 -16.2285614 42.77796745 C-16.24612392 38.35565426 -16.2452518 33.93374323 -16.22966411 29.51142617 C-16.22727749 27.91109796 -16.23166599 26.3107424 -16.24349276 24.71045611 C-16.34729863 9.73764522 -16.34729863 9.73764522 -11.73828125 4.09765625 C-7.9252894 0.96781144 -4.96076673 -0.11367476 0 0 Z " fill="#F9CD01" transform="translate(112.73828125,49.90234375)"/>
<path d="M0 0 C1.49164673 0.02199463 1.49164673 0.02199463 3.01342773 0.04443359 C4.1534021 0.0727124 4.1534021 0.0727124 5.31640625 0.1015625 C5.31787146 1.31206084 5.31787146 1.31206084 5.31936628 2.5470137 C5.3776315 50.37063768 5.45142315 98.19421621 5.54539253 146.01778406 C5.55666077 151.75933303 5.56779921 157.50088226 5.57885742 163.24243164 C5.58106111 164.3854763 5.58326479 165.52852097 5.58553525 166.70620335 C5.6209128 185.21701469 5.64577436 203.72782598 5.66675327 222.2386586 C5.68851166 241.23084755 5.72156247 260.2229926 5.76510781 279.21514422 C5.79162381 290.93539426 5.80931958 302.6555896 5.81575229 314.37586815 C5.82100631 322.41164072 5.83722381 330.44734445 5.86207191 338.48308014 C5.87608634 343.12006382 5.8852579 347.75692426 5.88141441 352.39393044 C5.87800071 356.64122762 5.8883891 360.88826172 5.90964177 365.13550503 C5.91490399 366.6699663 5.91515052 368.20445494 5.90980188 369.73891591 C5.87481941 380.91563073 6.77565515 391.25747171 14.31640625 400.1015625 C21.46134712 406.05788104 28.23431525 408.4107984 37.52786255 408.35552979 C38.3387102 408.35864977 39.14955786 408.36176975 39.98497665 408.36498427 C42.69334683 408.37294138 45.40149155 408.36664961 48.10986328 408.36035156 C50.05497366 408.3630624 52.00008302 408.36662385 53.94519043 408.37097168 C59.22182055 408.38008572 64.49837243 408.37655578 69.77500391 408.37021351 C75.29579536 408.36514989 80.81658011 408.36984584 86.33737183 408.37298584 C95.60627445 408.37662381 104.87514519 408.37183016 114.14404297 408.36230469 C124.86524924 408.35141406 135.58637949 408.35495083 146.30758393 408.3659575 C155.51024563 408.37502752 164.71288443 408.37631724 173.91554916 408.37108016 C179.41307375 408.36795972 184.91056257 408.3675533 190.40808487 408.37415314 C195.57417622 408.37992203 200.74016929 408.37593806 205.90625 408.36436462 C207.80416577 408.36171587 209.70208978 408.36248678 211.60000229 408.36688995 C214.18641966 408.37233817 216.77252017 408.36552017 219.35891724 408.35552979 C220.11358091 408.35999123 220.86824459 408.36445267 221.64577687 408.36904931 C226.84231304 408.3899798 226.84231304 408.3899798 231.31640625 406.1015625 C231.97640625 404.4515625 232.63640625 402.8015625 233.31640625 401.1015625 C239.25640625 401.1015625 245.19640625 401.1015625 251.31640625 401.1015625 C252.80140625 404.0715625 252.80140625 404.0715625 254.31640625 407.1015625 C256.66759055 408.27715465 258.14358539 408.25672713 260.76611328 408.30688477 C261.68691681 408.32682999 262.60772034 408.34677521 263.556427 408.36732483 C264.55229828 408.38403732 265.54816956 408.40074982 266.57421875 408.41796875 C268.10150101 408.4491404 268.10150101 408.4491404 269.65963745 408.48094177 C272.9201568 408.54645716 276.18075831 408.60533152 279.44140625 408.6640625 C281.64844608 408.70724582 283.85547753 408.75086005 286.0625 408.79492188 C291.48038126 408.90214055 296.89834471 409.00390324 302.31640625 409.1015625 C300.51979521 413.88988708 298.76957065 416.93713829 294.00486314 419.19876444 C291.19493321 420.14235379 289.06777966 420.35415735 286.11359596 420.35883141 C284.56373589 420.36850474 284.56373589 420.36850474 282.98256552 420.3783735 C281.28982947 420.3737277 281.28982947 420.3737277 279.56289673 420.36898804 C278.35891562 420.37351915 277.15493451 420.37805026 275.91446912 420.38271868 C272.5757445 420.39319051 269.23723526 420.39468827 265.8985095 420.39232993 C262.29650549 420.39192176 258.6945336 420.40296087 255.09254456 420.41244507 C248.03693748 420.42905562 240.98136382 420.43455463 233.92573883 420.43566982 C228.19078694 420.43662021 222.45584608 420.44073004 216.72089767 420.44707108 C200.46132158 420.46468315 184.20177189 420.47390993 167.94218619 420.47241013 C167.06568858 420.47233022 166.18919096 420.4722503 165.28613281 420.47216797 C163.9697813 420.47204533 163.9697813 420.47204533 162.62683682 420.47192021 C148.40224669 420.47110718 134.17776242 420.49024923 119.95320292 420.5184447 C105.34759299 420.54716707 90.7420347 420.56098537 76.13639581 420.55925715 C67.93638093 420.55859305 59.73647703 420.56409395 51.53648758 420.58561325 C44.55536293 420.60381649 37.57439959 420.60817945 30.5932615 420.5945944 C27.03182797 420.58806051 23.470704 420.58796233 19.90929985 420.6053009 C16.04735059 420.62390924 12.18585427 420.61148807 8.32388306 420.59603882 C7.1998538 420.60632594 6.07582454 420.61661307 4.91773379 420.62721193 C-1.5043707 420.57033141 -5.48324533 419.97435101 -10.68359375 416.1015625 C-15.27256692 410.28896399 -15.24487613 405.11112238 -15.16601562 397.88964844 C-15.16992813 396.78153809 -15.17384064 395.67342773 -15.1778717 394.53173828 C-15.18383375 392.13476885 -15.1807002 389.73776312 -15.16944885 387.34081268 C-15.15218104 383.55021872 -15.15969732 379.76038684 -15.17370605 375.9697876 C-15.19903363 367.93031169 -15.19373405 359.89105239 -15.18359375 351.8515625 C-15.17184057 342.52168851 -15.17310867 333.19222565 -15.20765686 323.86237335 C-15.21477441 320.1223756 -15.19804675 316.38295738 -15.18054199 312.64300537 C-15.18624643 310.36063316 -15.19306202 308.07826337 -15.20117188 305.79589844 C-15.18985733 304.75169739 -15.17854279 303.70749634 -15.16688538 302.63165283 C-15.17501755 301.6784314 -15.18314972 300.72520996 -15.19152832 299.74310303 C-15.19002022 298.91428493 -15.18851212 298.08546684 -15.18695831 297.23153305 C-15.51324175 294.94078541 -15.51324175 294.94078541 -17.52684784 293.37396622 C-19.74159507 291.96573461 -19.74159507 291.96573461 -22.68359375 291.1015625 C-22.68359375 285.4915625 -22.68359375 279.8815625 -22.68359375 274.1015625 C-20.70359375 273.1115625 -18.72359375 272.1215625 -16.68359375 271.1015625 C-15.5178988 268.77017259 -15.55772647 267.42403732 -15.5561018 264.82732773 C-15.55309415 263.92484637 -15.5500865 263.02236501 -15.54698771 262.09253573 C-15.54873808 261.09469853 -15.55048846 260.09686132 -15.55229187 259.06878662 C-15.55017616 258.0136711 -15.54806044 256.95855559 -15.54588062 255.87146688 C-15.53985735 252.31241299 -15.54088242 248.75339432 -15.54174805 245.19433594 C-15.53871809 242.65208373 -15.53519709 240.10983207 -15.53121948 237.56758118 C-15.5233175 232.08096975 -15.51816012 226.59436585 -15.51492882 221.10774994 C-15.50943642 212.43584736 -15.49254295 203.76398421 -15.47358704 195.09210205 C-15.46722995 192.12630851 -15.46092156 189.16051486 -15.45460987 186.19472122 C-15.45302611 185.45348286 -15.45144235 184.7122445 -15.44981059 183.94854437 C-15.43186634 175.50687747 -15.415644 167.06520777 -15.40063477 158.62353516 C-15.39925889 157.8516708 -15.39788302 157.07980644 -15.39646546 156.28455225 C-15.3745404 143.77923926 -15.36378072 131.27393639 -15.35626402 118.76860759 C-15.34819359 105.93378898 -15.32490484 93.09905722 -15.28831035 80.26428819 C-15.26627947 72.34568736 -15.25662246 64.42726506 -15.26281068 56.50863513 C-15.26635983 50.43952697 -15.24912682 44.37066098 -15.22413254 38.30159569 C-15.21719952 35.81111029 -15.21711673 33.32059514 -15.22433281 30.83011055 C-15.23318061 27.43381812 -15.21759196 24.03848712 -15.19584656 20.64227295 C-15.20428909 19.65335863 -15.21273163 18.66444431 -15.22143 17.64556289 C-15.13764078 10.58315022 -13.27278134 7.08305124 -8.62109375 1.7265625 C-5.31093321 -0.10459014 -3.72116365 -0.07108762 0 0 Z " fill="#88C6FA" transform="translate(76.68359375,76.8984375)"/>
<path d="M0 0 C7.59 0 15.18 0 23 0 C23.06841502 40.66396582 23.12151727 81.32792262 23.15319599 121.99193452 C23.15694818 126.79100982 23.16083114 131.59008502 23.16479492 136.38916016 C23.16558185 137.34458302 23.16636878 138.30000589 23.16717956 139.28438096 C23.18023898 154.76120963 23.20389577 170.23800492 23.23145839 185.71481378 C23.25949768 201.5915149 23.27617313 217.46819852 23.28226548 233.34492338 C23.28638499 243.14433747 23.29940336 252.94365722 23.3237494 262.74304228 C23.33958837 269.45981368 23.34440453 276.1765362 23.34050413 282.89332493 C23.33857972 286.77049314 23.34156175 290.64749633 23.35761642 294.52463531 C23.37488904 298.72654379 23.36897379 302.92809959 23.36076355 307.1300354 C23.36950207 308.35766181 23.3782406 309.58528821 23.38724393 310.85011542 C23.3521722 317.46521633 23.16820814 322.5265218 18.5 327.64453125 C14.21152446 330.98373486 11.40943078 332.12533394 6.03934956 332.12304783 C5.00925811 332.12503888 3.97916667 332.12702993 2.91786033 332.12908131 C1.78266005 332.12616847 0.64745978 332.12325563 -0.5221405 332.12025452 C-1.72526817 332.12110894 -2.92839584 332.12196337 -4.16798192 332.12284368 C-7.51328828 332.12420893 -10.8585365 332.12107254 -14.20383584 332.11606562 C-17.80913377 332.11175588 -21.41442984 332.11320792 -25.01972961 332.1139679 C-31.26808792 332.1144928 -37.5164358 332.11134951 -43.76479149 332.10573006 C-52.79891651 332.0976105 -61.83303649 332.09499937 -70.86716477 332.09374207 C-85.52366935 332.09155227 -100.18016836 332.08489412 -114.83666992 332.07543945 C-129.07592745 332.06626348 -143.31518347 332.05918355 -157.55444336 332.05493164 C-158.43183189 332.05466892 -159.30922042 332.05440619 -160.21319648 332.05413551 C-164.61470151 332.05283049 -169.01620656 332.05156678 -173.41771162 332.05032361 C-209.945145 332.03995323 -246.47257207 332.02233686 -283 332 C-283 331.67 -283 331.34 -283 331 C-190.93 331 -98.86 331 -4 331 C-1.27052231 323.28456409 -1.27052231 323.28456409 -0.61523914 315.86377621 C-0.6057826 314.7242034 -0.59632606 313.58463058 -0.58658296 312.41052526 C-0.59385432 310.5705206 -0.59385432 310.5705206 -0.60127258 308.69334412 C-0.59582573 307.35738513 -0.5890711 306.02143096 -0.58113068 304.68548447 C-0.56317779 301.03445506 -0.56365348 297.38362981 -0.56726015 293.73256671 C-0.56788575 289.78786964 -0.5512476 285.84324003 -0.53674316 281.89857483 C-0.5139832 275.07082553 -0.50207655 268.24312717 -0.49761391 261.41534233 C-0.49114594 251.54361635 -0.46819718 241.67198233 -0.44127061 231.80029345 C-0.39802599 215.7828095 -0.36804596 199.76532942 -0.34643555 183.74780273 C-0.32541889 168.19146825 -0.29813779 152.63516547 -0.26245117 137.07885742 C-0.26025235 136.11940936 -0.25805352 135.15996129 -0.25578807 134.17143904 C-0.24471824 129.35800357 -0.23352547 124.54456839 -0.22227156 119.73113334 C-0.12911938 79.8207829 -0.05772762 39.91041637 0 0 Z " fill="#D2CBD1" transform="translate(427,104)"/>
<path d="M0 0 C0.83378898 -0.00623996 1.66757795 -0.01247993 2.52663326 -0.01890898 C5.31890628 -0.03485646 8.11030848 -0.02222799 10.90258789 -0.00964355 C12.90504465 -0.01506389 14.90749742 -0.02218605 16.90994263 -0.03088379 C22.34792469 -0.04913048 27.78560344 -0.04204396 33.22359085 -0.02936745 C38.91208977 -0.01924681 44.60056257 -0.02863053 50.2890625 -0.03491211 C59.84225125 -0.04219123 69.39531635 -0.03259381 78.94848633 -0.0135498 C89.9963481 0.00821937 101.0439146 0.0011682 112.09176922 -0.02085543 C121.5738487 -0.03900183 131.05583925 -0.04157145 140.53793049 -0.03110075 C146.20265353 -0.02486167 151.86723775 -0.02404167 157.5319519 -0.0372467 C162.85736807 -0.04879345 168.18240321 -0.04080075 173.50777817 -0.01766968 C175.46332033 -0.01237633 177.41889451 -0.01390702 179.37442398 -0.02272034 C182.04187968 -0.03363468 184.70811083 -0.01996229 187.37548828 0 C188.15126693 -0.00892289 188.92704557 -0.01784577 189.72633266 -0.02703905 C193.38551481 0.02615916 195.51090992 0.39726596 198.64085388 2.35608673 C201.2789826 5.12948973 201.76566635 6.68974639 201.68774414 10.50793457 C200.20617008 13.16049957 200.20617008 13.16049957 197.68774414 15.50793457 C194.71178336 16.00518921 192.30608013 16.17621182 189.33042908 16.12939453 C188.05440924 16.13897776 188.05440924 16.13897776 186.75261122 16.1487546 C183.89709806 16.16403674 181.04296523 16.14352237 178.1875 16.12316895 C176.14253784 16.12666915 174.09757839 16.13232658 172.05262756 16.13998413 C166.49480883 16.15425526 160.93748346 16.13714813 155.37971187 16.11369896 C149.57016458 16.09362543 143.76063849 16.09946765 137.95106506 16.10180664 C128.19515827 16.10175304 118.43944494 16.08197495 108.68359375 16.04992676 C97.39433104 16.01302225 86.10532175 16.00425227 74.8160066 16.01122427 C63.96746255 16.01752264 53.11900567 16.00678798 42.2704792 15.98725891 C37.64811527 15.97907071 33.0257958 15.97637797 28.40342522 15.97795105 C22.9639795 15.97882799 17.5247758 15.96466517 12.08539391 15.93872452 C10.08547895 15.93154359 8.08553828 15.9294883 6.08561325 15.93284225 C3.36283542 15.93653844 0.64077121 15.92187482 -2.08192444 15.90234375 C-3.2786998 15.91033564 -3.2786998 15.91033564 -4.49965245 15.91848898 C-9.77728305 15.85283768 -9.77728305 15.85283768 -12.29540157 14.22937775 C-13.73807994 11.78705257 -13.77710882 9.33048934 -13.90600586 6.54309082 C-12.02165321 0.08422418 -5.68667888 -0.06540731 0 0 Z " fill="#060606" transform="translate(197.312255859375,272.4920654296875)"/>
<path d="M0 0 C0.84110166 -0.0060911 1.68220331 -0.01218221 2.5487929 -0.01845789 C5.37165957 -0.03512807 8.19407715 -0.03030638 11.01698303 -0.0255127 C13.03899608 -0.03285067 15.06100492 -0.0414361 17.08300781 -0.05117798 C22.57883613 -0.07343065 28.07451469 -0.0763228 33.57038188 -0.07443047 C38.15555552 -0.07431094 42.74069722 -0.08286754 47.32586199 -0.09120798 C58.14121819 -0.11045537 68.95649721 -0.11332091 79.77186584 -0.10656738 C90.93618597 -0.09992437 102.10017589 -0.12279853 113.26442903 -0.15988111 C122.84414578 -0.19054822 132.42375615 -0.20194142 142.00352103 -0.1980443 C147.72755565 -0.19597381 153.45133334 -0.20150243 159.17532158 -0.22593689 C164.5573959 -0.24815214 169.9389322 -0.24636955 175.32100868 -0.22600937 C177.29752391 -0.22259014 179.27407499 -0.22772751 181.25054169 -0.24199295 C183.94671259 -0.26011188 186.64104396 -0.24749195 189.3371582 -0.22705078 C190.12140087 -0.23956863 190.90564353 -0.25208648 191.71365112 -0.26498365 C195.71796487 -0.19978662 197.55273174 0.25545688 200.75675297 2.73793793 C202.73207092 5.39440918 202.73207092 5.39440918 202.73207092 8.51940918 C201.45605034 12.18796837 200.16328648 13.6788014 196.73207092 15.39440918 C194.05830242 15.49884038 191.41019941 15.54220503 188.73588562 15.5415802 C187.48186339 15.54709523 187.48186339 15.54709523 186.20250738 15.55272168 C183.38504458 15.56378542 180.56761863 15.56760688 177.75013733 15.57141113 C175.73665244 15.57767365 173.72316872 15.58432026 171.70968628 15.59132385 C166.22831002 15.60875097 160.74694248 15.61928985 155.26554537 15.62752938 C151.8439484 15.63267492 148.42235417 15.63875079 145.00075912 15.64504051 C134.30388665 15.66409563 123.6070211 15.67832722 112.91013491 15.68665248 C100.54614338 15.69643318 88.18233048 15.72277314 75.81840193 15.76315337 C66.27187972 15.79326661 56.72540885 15.80811672 47.17884004 15.81143349 C41.47215445 15.81378908 35.76565963 15.82281563 30.05902481 15.84789467 C24.69266002 15.87109721 19.32661266 15.8754402 13.9602108 15.86513329 C11.98810841 15.86463594 10.01599081 15.8710146 8.04393578 15.88468933 C5.35631329 15.90228675 2.66984517 15.89536257 -0.01777649 15.88215637 C-1.19471968 15.89861024 -1.19471968 15.89861024 -2.39543951 15.91539651 C-5.94737197 15.87311347 -7.89108492 15.68333662 -10.75036049 13.49112225 C-13.32513287 9.93374834 -12.81494787 7.70218218 -12.26792908 3.39440918 C-8.90422707 -0.42890209 -4.73811922 -0.03209816 0 0 Z " fill="#030303" transform="translate(196.26792907714844,217.6055908203125)"/>
<path d="M0 0 C0.8370181 -0.00623996 1.67403621 -0.01247993 2.5364185 -0.01890898 C5.3456142 -0.03488412 8.15394764 -0.02221715 10.96315002 -0.00964355 C12.97531135 -0.01506271 14.98746871 -0.0221842 16.99961853 -0.03088379 C22.46864986 -0.04914578 27.93737994 -0.04203736 33.40641665 -0.02936745 C39.12561793 -0.01925331 44.84479309 -0.02862884 50.56399536 -0.03491211 C60.17023864 -0.04219372 69.77635899 -0.0325879 79.38258362 -0.0135498 C90.49234004 0.00821366 101.60180279 0.00117335 112.71155208 -0.02085543 C122.24456626 -0.03900212 131.77749198 -0.04157111 141.31051785 -0.03110075 C147.00655466 -0.02486103 152.7024534 -0.02404328 158.39848137 -0.0372467 C163.75425219 -0.04879366 169.10964414 -0.04080034 174.46537399 -0.01766968 C176.43220325 -0.01237618 178.39906433 -0.01390728 180.36588097 -0.02272034 C183.04871445 -0.03363422 185.73033027 -0.01996271 188.41308594 0 C189.19343765 -0.00892289 189.97378937 -0.01784577 190.7777881 -0.02703905 C194.49176728 0.02664901 196.59164845 0.39404078 199.75303745 2.41248322 C201.77003479 4.50793457 201.77003479 4.50793457 202.39894104 6.54309082 C202.2202898 11.99720807 202.2202898 11.99720807 200.25204468 14.22979832 C196.72093308 16.04818017 193.37555344 15.92524033 189.49537659 15.89561462 C188.65356936 15.90100016 187.81176214 15.9063857 186.94444561 15.91193444 C184.11923357 15.92626009 181.29448702 15.91909899 178.46925354 15.9119873 C176.44561892 15.91768842 174.42198751 15.92465167 172.39836121 15.93278503 C166.8984587 15.95075898 161.39871535 15.94954023 155.89879227 15.94384265 C151.31104089 15.94075728 146.72332038 15.9468359 142.13557339 15.9528814 C131.315459 15.96693859 120.49542355 15.96535506 109.67530823 15.95397949 C98.50305757 15.94249347 87.33104682 15.95657946 76.15882778 15.98337597 C66.57403335 16.0055065 56.98931437 16.01217643 47.40449619 16.00629956 C41.67662373 16.00292287 35.94890512 16.00539233 30.22105408 16.02255058 C24.83657555 16.03797574 19.45245356 16.03411345 14.06798935 16.01524544 C12.08944646 16.01154743 10.11087741 16.01470308 8.13235855 16.02513123 C5.43605445 16.03825999 2.74094487 16.02686631 0.04469299 16.00914001 C-0.74246251 16.01874502 -1.52961802 16.02835003 -2.34062672 16.0382461 C-5.83422901 15.99082759 -7.85688685 15.77996009 -10.71588135 13.69535923 C-12.93738072 10.48591845 -12.77389449 8.31543952 -12.22996521 4.50793457 C-8.98257511 -0.17408948 -5.28046369 -0.06020705 0 0 Z " fill="#040404" transform="translate(196.22996520996094,161.4920654296875)"/>
<path d="M0 0 C2.01507538 1.00528369 4.02795722 2.01422008 6.03515625 3.03515625 C6.70417969 3.37417969 7.37320313 3.71320313 8.0625 4.0625 C8.73410156 4.40410156 9.40570313 4.74570312 10.09765625 5.09765625 C14.3796666 7.12875356 18.21509475 7.1431716 22.85069275 7.13371277 C23.65897713 7.13597833 24.46726151 7.13824388 25.30003935 7.14057809 C28.01766758 7.14692542 30.73524603 7.14608826 33.45288086 7.14526367 C35.39754806 7.14825469 37.34221467 7.15165708 39.28688049 7.15544128 C44.5760621 7.16429085 49.86522755 7.16661979 55.15441585 7.16725707 C59.56564873 7.1682054 63.97687783 7.17188278 68.38810927 7.17542917 C78.79251424 7.18357718 89.19691056 7.18601306 99.60131836 7.18530273 C110.34461049 7.18470168 121.08785245 7.19525829 131.83113188 7.2110464 C141.04646763 7.22410795 150.26178696 7.22948722 159.4771319 7.22884732 C164.9847668 7.22859195 170.49235713 7.23146483 175.99998283 7.24202538 C181.17833789 7.25168321 186.35660553 7.25180149 191.53496361 7.24450874 C193.43771746 7.24346005 195.34047669 7.24584258 197.24322128 7.2518692 C199.83635924 7.25955189 202.42919252 7.25496915 205.02232361 7.24723816 C206.15738866 7.2549535 206.15738866 7.2549535 207.31538433 7.26282471 C212.51964679 7.29021562 212.51964679 7.29021562 217 5 C217.66 3.35 218.32 1.7 219 0 C224.94 0 230.88 0 237 0 C237.99 1.98 238.98 3.96 240 6 C242.3511843 7.17559215 243.82717914 7.15516463 246.44970703 7.20532227 C247.37051056 7.22526749 248.29131409 7.24521271 249.24002075 7.26576233 C250.23589203 7.28247482 251.23176331 7.29918732 252.2578125 7.31640625 C253.78509476 7.3475779 253.78509476 7.3475779 255.3432312 7.37937927 C258.60375055 7.44489466 261.86435206 7.50376902 265.125 7.5625 C267.33203983 7.60568332 269.53907128 7.64929755 271.74609375 7.69335938 C277.16397501 7.80057805 282.58193846 7.90234074 288 8 C286.66887379 11.99337862 285.44690908 14.52037606 282 17 C278.48392607 17.60141592 274.99549637 17.5146037 271.4364624 17.4699707 C270.34838075 17.47212711 269.2602991 17.47428352 268.13924527 17.47650528 C264.48023346 17.47875552 260.82199496 17.45219925 257.16308594 17.42578125 C254.54496995 17.42134042 251.92685058 17.41860938 249.30873108 17.41746521 C242.92697706 17.41126024 236.54549432 17.38331128 230.16384402 17.34762424 C224.97570801 17.31900628 219.78759576 17.29823433 214.59940338 17.28308105 C213.86123367 17.28091863 213.12306397 17.2787562 212.36252548 17.27652824 C210.86293852 17.27216978 209.3633515 17.26782964 207.86376444 17.2635076 C193.794571 17.22203612 179.72557481 17.15596879 165.65652266 17.08150077 C153.5905335 17.01820279 141.52461907 16.97578457 129.45849609 16.94873047 C115.44618899 16.9173022 101.43402078 16.8729641 87.42182565 16.80806828 C85.92650373 16.80117756 84.43118174 16.79430309 82.93585968 16.78744507 C82.20014789 16.78406386 81.46443609 16.78068264 80.70643 16.77719897 C75.52792251 16.75428288 70.34943746 16.74054955 65.17089081 16.7303772 C58.19404103 16.71639201 51.21756192 16.68126455 44.24087334 16.63200569 C41.6802951 16.61709525 39.11966728 16.60893752 36.55904579 16.60803032 C33.06279371 16.60568792 29.56755029 16.57887943 26.07147217 16.54589844 C25.05862018 16.55093038 24.0457682 16.55596231 23.00222373 16.56114674 C15.82190299 16.45525722 10.4719296 14.94488146 4.94140625 10.25390625 C2.22934806 6.92721731 0.27026901 4.45943873 0 0 Z " fill="#60B6FE" transform="translate(91,478)"/>
<path d="M0 0 C7.09515446 5.79904189 13.46818621 12.32301832 19.93359375 18.80078125 C21.17897697 20.04549009 22.42450854 21.29005051 23.67018127 22.5344696 C26.26636699 25.12918795 28.8607523 27.7256894 31.45385742 30.32348633 C34.78518523 33.66054669 38.12103057 36.99304957 41.45820522 40.32426167 C44.02408603 42.88654126 46.58759567 45.45118243 49.15037727 48.01656151 C50.38049901 49.24735189 51.61136832 50.47739555 52.84298515 51.70668983 C54.5545667 53.41574826 56.2629381 55.12795036 57.97045898 56.84106445 C58.48310303 57.35168427 58.99574707 57.86230408 59.52392578 58.38839722 C63 61.8857302 63 61.8857302 63 63 C55.7226966 63.1016491 48.44557718 63.17157032 41.16772461 63.21972656 C38.69337115 63.23980771 36.21906495 63.26707823 33.74487305 63.30175781 C30.18266112 63.35042778 26.62107819 63.37300454 23.05859375 63.390625 C21.95728622 63.41127014 20.8559787 63.43191528 19.72129822 63.45318604 C13.24629901 63.45506605 9.16102319 63.04875183 4 59 C-0.41288955 54.44870537 -0.4549053 50.27524493 -0.45318604 44.23953247 C-0.43254089 43.11118988 -0.41189575 41.98284729 -0.390625 40.8203125 C-0.38496521 39.6524118 -0.37930542 38.48451111 -0.37347412 37.28121948 C-0.35113756 33.56205746 -0.30094342 29.84386938 -0.25 26.125 C-0.22993161 23.59897228 -0.21168144 21.07292941 -0.1953125 18.546875 C-0.15128153 12.36425272 -0.08439531 6.18219596 0 0 Z " fill="#B2AAB3" transform="translate(376,26)"/>
</svg>
