<?xml version="1.0" encoding="UTF-8"?>
<svg version="1.1" xmlns="http://www.w3.org/2000/svg" width="512" height="512">
<path d="M0 0 C59.60311254 -1.67817304 119.69333344 15.91950909 167.94824219 51.06640625 C168.52413086 51.48390137 169.10001953 51.90139648 169.69335938 52.33154297 C178.34345746 58.65238276 186.23868763 65.63779309 193.94824219 73.06640625 C194.55990234 73.65083496 195.1715625 74.23526367 195.80175781 74.83740234 C204.68260893 83.35766732 212.64658372 92.16361955 219.94824219 102.06640625 C220.58753662 102.91452881 220.58753662 102.91452881 221.23974609 103.77978516 C248.80961662 140.36228079 263.45662473 185.00837654 263.26074219 230.69140625 C263.25800797 232.0150116 263.25800797 232.0150116 263.25521851 233.36535645 C263.20964161 246.47190497 262.77303742 259.22116665 259.94824219 272.06640625 C259.77663574 272.87803223 259.6050293 273.6896582 259.42822266 274.52587891 C252.44706846 306.83633251 238.58492334 337.18689259 217.94824219 363.06640625 C216.89056641 364.4121875 216.89056641 364.4121875 215.81152344 365.78515625 C170.8522777 421.96403423 104.90227289 453.3922018 34.10327148 461.38769531 C25.37694081 462.2172877 16.64390568 462.30959685 7.88574219 462.31640625 C6.70496597 462.31741837 6.70496597 462.31741837 5.50033569 462.31845093 C-25.04138754 462.2772153 -54.30532687 457.26317353 -83.36425781 447.93359375 C-84.33661377 447.62599121 -85.30896973 447.31838867 -86.31079102 447.00146484 C-89.05175781 446.06640625 -89.05175781 446.06640625 -91.47045898 444.99462891 C-94.65860778 443.63465661 -96.85149409 442.72933682 -100.26513672 443.68798828 C-102.7349863 444.8876598 -105.03019068 446.2453369 -107.36425781 447.69140625 C-143.25949041 468.10590987 -185.98881043 478.467845 -226.36425781 486.19140625 C-227.45424072 486.4037793 -228.54422363 486.61615234 -229.66723633 486.83496094 C-241.85661613 489.03264728 -241.85661613 489.03264728 -247.48925781 485.56640625 C-249.44160868 482.44264486 -249.97777696 480.36101708 -249.83300781 476.6875 C-248.4194379 471.94497295 -244.88639688 468.63097707 -241.64550781 465.01171875 C-218.11482933 438.29164107 -212.92978227 391.85544287 -209.67285156 358.14453125 C-210.17415305 354.0721027 -212.02993244 351.5096758 -214.42675781 348.31640625 C-235.52485879 318.36254558 -248.92090187 279.15682547 -249.29003906 242.4140625 C-249.30472984 241.20058891 -249.30472984 241.20058891 -249.31971741 239.96260071 C-249.49550227 221.66117616 -249.21339912 203.98933482 -245.05175781 186.06640625 C-244.83745117 185.12748535 -244.62314453 184.18856445 -244.40234375 183.22119141 C-237.84207469 155.31378771 -225.74485446 129.32560545 -209.05175781 106.06640625 C-208.61863281 105.4621582 -208.18550781 104.85791016 -207.73925781 104.23535156 C-201.47143714 95.59261446 -194.44788653 87.74224784 -187.05175781 80.06640625 C-186.17511475 79.14891602 -186.17511475 79.14891602 -185.28076172 78.21289062 C-176.76281406 69.3344549 -167.96194557 61.35495484 -158.05175781 54.06640625 C-157.48102539 53.64020996 -156.91029297 53.21401367 -156.32226562 52.77490234 C-136.04719698 37.6629434 -113.77815362 25.77111634 -90.05175781 17.06640625 C-89.2301416 16.76105957 -88.40852539 16.45571289 -87.56201172 16.14111328 C-59.46222182 5.82335079 -29.8480158 0.96604716 0 0 Z " fill="#000000" transform="translate(249.0517578125,11.93359375)"/>
</svg>
