<?xml version="1.0" encoding="UTF-8"?>
<svg version="1.1" xmlns="http://www.w3.org/2000/svg" width="512" height="512">
<path d="M0 0 C1.17510164 -0.00525911 1.17510164 -0.00525911 2.3739427 -0.01062447 C5.0089082 -0.01995623 7.64365355 -0.01501058 10.27862835 -0.01015663 C12.18290169 -0.01389199 14.0871735 -0.01849306 15.99144286 -0.02388728 C21.23224582 -0.03614675 26.47298508 -0.03585334 31.71379912 -0.03349853 C37.3628705 -0.0330911 43.01192126 -0.04412235 48.66098309 -0.05361366 C59.73151243 -0.07024071 70.80202047 -0.07572398 81.87256125 -0.07683842 C90.86932637 -0.07778807 99.86608444 -0.08189421 108.86284733 -0.08823967 C130.20856584 -0.10298896 151.55427777 -0.1152889 172.90000153 -0.11424255 C173.92412594 -0.11419582 173.92412594 -0.11419582 174.96893975 -0.11414814 C178.42944768 -0.11398192 181.88995561 -0.11378384 185.35046355 -0.11357872 C186.03774039 -0.11353883 186.72501724 -0.11349894 187.43312066 -0.11345784 C188.8229622 -0.11337697 190.21280374 -0.11329337 191.60264528 -0.11320706 C213.22690021 -0.11198152 234.85109242 -0.12699482 256.4753294 -0.15435219 C280.76666332 -0.18507105 305.05794322 -0.20225946 329.34930056 -0.20042574 C342.21234656 -0.19976117 355.07532182 -0.20528303 367.93835163 -0.22678185 C378.88955939 -0.2449677 389.84066435 -0.24936231 400.79188064 -0.235763 C406.38068884 -0.22922031 411.96929968 -0.22916316 417.55808926 -0.2464695 C422.6736153 -0.26214758 427.78878664 -0.25939044 432.90430375 -0.24190123 C434.75556455 -0.23881973 436.60685147 -0.24250683 438.45808146 -0.25362138 C440.97456411 -0.26773017 443.48980049 -0.25716656 446.00624084 -0.24050903 C446.72500309 -0.25044539 447.44376534 -0.26038175 448.18430826 -0.27061921 C454.58993466 -0.18097328 459.66719747 2.04487102 464.43406963 6.22211266 C464.97289776 6.87308922 465.51172588 7.52406578 466.06688213 8.19476891 C466.62117901 8.84316734 467.17547588 9.49156578 467.74656963 10.15961266 C470.82110184 14.62183912 471.44259704 18.44668204 471.44915104 23.81599712 C471.45265711 24.46432832 471.45616319 25.11265952 471.45977551 25.78063712 C471.46908975 27.95614551 471.46416622 30.13138622 471.45930767 32.30690575 C471.46304392 33.88119544 471.46764534 35.45548328 471.47303832 37.02976817 C471.48528684 41.35844895 471.48500567 45.68705255 471.48264956 50.01574671 C471.48224187 54.68321593 471.49327605 59.35066025 471.5027647 64.0181179 C471.51938581 73.1635705 471.52487475 82.30899732 471.52598946 91.45446376 C471.5269394 98.88753743 471.53104701 106.32060258 471.53739071 113.75367355 C471.55500612 134.82254768 471.56422911 155.89140142 471.56272976 176.96028296 C471.56264985 178.09638647 471.56256994 179.23248997 471.5624876 180.40302086 C471.56240584 181.54050971 471.56232408 182.67799856 471.56223984 183.84995677 C471.56142685 202.28680293 471.5805671 220.72356741 471.60876434 239.16038994 C471.63748106 258.08604038 471.6513053 277.01165096 471.64957678 295.93732375 C471.64891246 306.56472165 471.65442311 317.19203393 471.67593288 327.81941223 C471.69412872 336.86754089 471.69850515 345.91554511 471.68491404 354.96368412 C471.67837633 359.58037956 471.67829611 364.19683615 471.69562054 368.81350899 C471.71132087 373.04085733 471.70851887 377.26777684 471.69105227 381.49511453 C471.68797566 383.02336299 471.69163967 384.55164322 471.70277242 386.07985423 C471.7651945 395.257386 471.54765841 402.28666138 465.22703838 409.49945641 C464.57606182 410.03828453 463.92508526 410.57711266 463.25438213 411.13226891 C462.6059837 411.68656578 461.95758526 412.24086266 461.28953838 412.81195641 C456.48849242 416.11993966 452.09152127 416.54686487 446.38376427 416.51453781 C445.20866263 416.51979692 445.20866263 416.51979692 444.00982156 416.52516228 C441.37485606 416.53449404 438.74011072 416.52954839 436.10513592 416.52469444 C434.20086258 416.52842981 432.29659077 416.53303087 430.39232141 416.53842509 C425.15151845 416.55068456 419.91077918 416.55039115 414.66996515 416.54803634 C409.02089376 416.54762892 403.371843 416.55866016 397.72278118 416.56815147 C386.65225184 416.58477853 375.58174379 416.59026179 364.51120301 416.59137623 C355.5144379 416.59232588 346.51767983 416.59643202 337.52091694 416.60277748 C316.17519842 416.61752678 294.8294865 416.62982671 273.48376274 416.62878036 C272.45963832 416.62873363 272.45963832 416.62873363 271.41482452 416.62868595 C267.95431659 416.62851973 264.49380865 416.62832165 261.03330072 416.62811653 C260.34602387 416.62807664 259.65874702 416.62803675 258.95064361 416.62799565 C257.56080206 416.62791478 256.17096052 416.62783118 254.78111898 416.62774487 C233.15686406 416.62651933 211.53267185 416.64153263 189.90843487 416.66889 C165.61710095 416.69960887 141.32582104 416.71679727 117.0344637 416.71496356 C104.17141771 416.71429898 91.30844245 416.71982084 78.44541264 416.74131966 C67.49420488 416.75950551 56.54309992 416.76390013 45.59188362 416.75030081 C40.00307543 416.74375812 34.41446459 416.74370097 28.82567501 416.76100731 C23.71014897 416.77668539 18.59497763 416.77392825 13.47946052 416.75643905 C11.62819972 416.75335754 9.7769128 416.75704464 7.92568281 416.7681592 C5.40920015 416.78226798 2.89396377 416.77170437 0.37752342 416.75504684 C-0.70061995 416.76995138 -0.70061995 416.76995138 -1.80054399 416.78515702 C-8.20617039 416.69551109 -13.2834332 414.46966679 -18.05030537 410.29242516 C-18.58913349 409.64144859 -19.12796162 408.99047203 -19.68311787 408.31976891 C-20.23741474 407.67137047 -20.79171162 407.02297203 -21.36280537 406.35492516 C-24.43733757 401.89269869 -25.05883277 398.06785578 -25.06538677 392.69854069 C-25.06889285 392.05020949 -25.07239892 391.40187829 -25.07601124 390.7339007 C-25.08532549 388.55839231 -25.08040196 386.38315159 -25.0755434 384.20763206 C-25.07927966 382.63334237 -25.08388108 381.05905453 -25.08927405 379.48476964 C-25.10152257 375.15608886 -25.1012414 370.82748526 -25.0988853 366.4987911 C-25.0984776 361.83132188 -25.10951179 357.16387756 -25.11900043 352.49641991 C-25.13562155 343.35096731 -25.14111048 334.20554049 -25.14222519 325.06007405 C-25.14317514 317.62700039 -25.14728275 310.19393523 -25.15362644 302.76086426 C-25.17124186 281.69199013 -25.18046484 260.62313639 -25.17896549 239.55425485 C-25.17888558 238.41815135 -25.17880567 237.28204784 -25.17872334 236.11151695 C-25.17864157 234.9740281 -25.17855981 233.83653925 -25.17847557 232.66458104 C-25.17766258 214.22773488 -25.19680283 195.7909704 -25.22500007 177.35414787 C-25.25371679 158.42849743 -25.26754103 139.50288685 -25.26581252 120.57721406 C-25.2651482 109.94981616 -25.27065884 99.32250388 -25.29216862 88.69512558 C-25.31036446 79.64699692 -25.31474088 70.59899271 -25.30114977 61.55085369 C-25.29461206 56.93415825 -25.29453184 52.31770166 -25.31185627 47.70102882 C-25.32755661 43.47368048 -25.3247546 39.24676097 -25.30728801 35.01942328 C-25.30421139 33.49117482 -25.30787541 31.96289459 -25.31900816 30.43468358 C-25.38143023 21.25715181 -25.16389415 14.22787643 -18.84327412 7.01508141 C-18.19229755 6.47625328 -17.54132099 5.93742516 -16.87061787 5.38226891 C-16.22221943 4.82797203 -15.57382099 4.27367516 -14.90577412 3.70258141 C-10.10472815 0.39459815 -5.70775701 -0.03232706 0 0 Z M-6.80811787 19.25726891 C-16.34369352 43.09620804 -8.80811787 70.58194569 -8.80811787 96.25726891 C144.31188213 96.25726891 297.43188213 96.25726891 455.19188213 96.25726891 C459.50995742 55.88380764 459.50995742 55.88380764 452.19188213 18.25726891 C448.24549959 15.83342181 444.10439083 15.97463937 439.59682083 16.00279331 C438.83645778 15.99958683 438.07609472 15.99638036 437.29269037 15.99307671 C434.7361079 15.98475278 432.17975825 15.99070934 429.62317181 15.99657249 C427.77522055 15.99355291 425.92727054 15.9896644 424.07932276 15.98497993 C418.99427668 15.97466642 413.90930084 15.97689026 408.82424891 15.98116052 C403.34290876 15.98362166 397.86158579 15.97462123 392.38025188 15.96712303 C381.63925814 15.95435713 370.89828938 15.95258468 360.15728933 15.95492329 C351.42938605 15.95670443 342.70149036 15.95496121 333.97358799 15.95069885 C332.73263594 15.95010366 331.49168389 15.94950847 330.21312724 15.94889525 C327.69235329 15.94768353 325.17157935 15.9464694 322.65080541 15.94525287 C305.7192892 15.93746274 288.7877761 15.9335486 271.85625839 15.93756962 C271.19401839 15.93772599 270.53177838 15.93788237 269.8494705 15.93804348 C266.49289832 15.93884928 263.13632615 15.93969505 259.77975399 15.94055679 C258.77979686 15.94081342 258.77979686 15.94081342 257.75963857 15.94107523 C256.41153442 15.94142189 255.06343026 15.94177042 253.7153261 15.94212082 C232.735571 15.94747886 211.75585792 15.93954576 190.77611065 15.92108727 C167.21067939 15.90037815 143.64526751 15.88967353 120.07982534 15.89366275 C107.60027171 15.89557778 95.12075637 15.89305792 82.6412096 15.87894821 C72.01787203 15.867059 61.39459632 15.86560185 50.77125794 15.87773838 C45.34880116 15.88364426 39.92645766 15.88467942 34.50400829 15.87273598 C29.54283715 15.8619353 24.58187467 15.86491084 19.62071352 15.87899766 C17.82332544 15.88166069 16.0259213 15.87922809 14.22854889 15.8712618 C11.78970701 15.86120035 9.35159673 15.86953915 6.91278458 15.8825388 C6.21122914 15.87522945 5.5096737 15.8679201 4.78685901 15.86038926 C0.21214856 15.91110412 -3.00577173 16.68287185 -6.80811787 19.25726891 Z M-8.80811787 112.25726891 C-8.86999287 158.33351891 -8.93186787 204.40976891 -8.99561787 251.88226891 C-9.02292988 266.44561363 -9.05024189 281.00895836 -9.07838154 296.01361656 C-9.08841315 309.03709877 -9.08841315 309.03709877 -9.09444904 322.06058311 C-9.09725063 327.87368964 -9.1082719 333.68671002 -9.12484455 339.4997921 C-9.14392333 346.20182403 -9.15262974 352.90377312 -9.14845272 359.60583242 C-9.14664325 363.03518984 -9.149538 366.46436203 -9.16576326 369.89368558 C-9.180627 373.56456235 -9.17710921 377.23497209 -9.16888142 380.90585899 C-9.17761941 381.97754011 -9.1863574 383.04922123 -9.19536018 384.15337753 C-9.16295375 389.51195815 -9.12209066 393.78506951 -5.80811787 398.25726891 C-1.68684527 400.44609543 2.22433638 400.5402422 6.78694344 400.5117445 C7.54730649 400.51495098 8.30766954 400.51815746 9.0910739 400.5214611 C11.64765636 400.52978503 14.20400602 400.52382847 16.76059246 400.51796532 C18.60854372 400.52098491 20.45649373 400.52487342 22.30444151 400.52955788 C27.38948759 400.53987139 32.47446343 400.53764755 37.55951536 400.53337729 C43.04085551 400.53091615 48.52217847 400.53991658 54.00351238 400.54741478 C64.74450612 400.56018068 75.48547489 400.56195313 86.22647493 400.55961452 C94.95437822 400.55783338 103.6822739 400.5595766 112.41017628 400.56383896 C113.65112833 400.56443415 114.89208037 400.56502934 116.17063703 400.56564256 C118.69141097 400.56685428 121.21218492 400.56806841 123.73295886 400.56928494 C140.66447507 400.57707507 157.59598816 400.58098921 174.52750587 400.57696819 C175.18974588 400.57681182 175.85198589 400.57665544 176.53429377 400.57649433 C179.89086595 400.57568853 183.24743811 400.57484276 186.60401028 400.57398102 C187.27064836 400.57380994 187.93728645 400.57363885 188.62412569 400.57346258 C189.97222985 400.57311592 191.32033401 400.57276739 192.66843816 400.57241699 C213.64819327 400.56705896 234.62790635 400.57499205 255.60765362 400.59345055 C279.17308488 400.61415966 302.73849676 400.62486429 326.30393893 400.62087506 C338.78349256 400.61896003 351.2630079 400.62147989 363.74255466 400.6355896 C374.36589223 400.64747881 384.98916794 400.64893596 395.61250632 400.63679943 C401.03496311 400.63089355 406.45730661 400.62985839 411.87975597 400.64180183 C416.84092712 400.65260251 421.8018896 400.64962697 426.76305074 400.63554015 C428.56043883 400.63287712 430.35784297 400.63530972 432.15521538 400.64327601 C434.59405726 400.65333746 437.03216754 400.64499867 439.47097969 400.63199902 C440.17253513 400.63930836 440.87409057 400.64661771 441.59690526 400.65414855 C446.17161571 400.60343369 449.38953599 399.83166597 453.19188213 397.25726891 C455.09801546 393.92656823 455.44137327 391.06361383 455.43797779 387.26916599 C455.44195953 386.28355246 455.44594128 385.29793892 455.45004368 384.28245831 C455.44421835 383.20786452 455.43839302 382.13327074 455.43239117 381.02611351 C455.4341032 379.88121452 455.43581524 378.73631554 455.43757915 377.55672264 C455.44031323 374.37683827 455.43404179 371.19711673 455.42402759 368.0172516 C455.4152946 364.53628541 455.4182168 361.05532545 455.41966343 357.57435131 C455.42072682 350.81708508 455.41149152 344.05987199 455.39866077 337.30261942 C455.38426375 329.48659401 455.38267144 321.67060054 455.38109112 313.85455894 C455.37058939 293.21795384 455.34266718 272.58136058 455.31688213 251.94476891 C455.27563213 205.84789391 455.23438213 159.75101891 455.19188213 112.25726891 C302.07188213 112.25726891 148.95188213 112.25726891 -8.80811787 112.25726891 Z " fill="#000000" transform="translate(32.80811786651611,47.74273109436035)"/>
<path d="M0 0 C0.77450255 -0.00453111 1.54900509 -0.00906223 2.34697741 -0.01373065 C4.93854775 -0.02637656 7.52990799 -0.02475416 10.12150574 -0.02310181 C11.98116323 -0.02908696 13.84081823 -0.03589248 15.70046997 -0.04345703 C20.75015006 -0.0611261 25.79976237 -0.06581281 30.84947038 -0.0670886 C34.00528242 -0.06851031 37.16107723 -0.07278028 40.31688499 -0.07808304 C51.32924366 -0.09658668 62.34155391 -0.10475328 73.35392761 -0.10317993 C83.61441715 -0.10197861 93.87469631 -0.1230783 104.13513261 -0.15466726 C112.94803443 -0.18083149 121.76086754 -0.19154716 130.5738079 -0.19026911 C135.83567588 -0.1897595 141.09735692 -0.19544229 146.35918617 -0.21662521 C151.30949381 -0.23600985 156.25943622 -0.23613043 161.20975685 -0.22159195 C163.02375828 -0.219503 164.83778258 -0.22420986 166.65174484 -0.23631287 C169.13422338 -0.25179982 171.61544795 -0.24243529 174.09790039 -0.22705078 C175.16675066 -0.24248147 175.16675066 -0.24248147 176.25719386 -0.25822389 C182.6496288 -0.17108016 187.72519172 2.06418569 192.48161316 6.23226929 C193.02044128 6.88324585 193.55926941 7.53422241 194.11442566 8.20492554 C194.66872253 8.85332397 195.22301941 9.50172241 195.79411316 10.16976929 C200.27354663 16.67100111 199.91406294 23.6388347 199.23942566 31.26742554 C197.55856983 37.92701887 192.77564244 42.45290001 187.23942566 46.26742554 C183.00713881 48.38472092 179.12049999 48.5548385 174.47885132 48.53485107 C173.70434877 48.53938219 172.92984623 48.5439133 172.13187391 48.54858172 C169.54030357 48.56122764 166.94894333 48.55960523 164.35734558 48.55795288 C162.49768809 48.56393803 160.63803308 48.57074355 158.77838135 48.57830811 C153.72870126 48.59597718 148.67908895 48.60066389 143.62938094 48.60193968 C140.4735689 48.60336138 137.31777409 48.60763136 134.16196632 48.61293411 C123.14960766 48.63143776 112.13729741 48.63960435 101.12492371 48.63803101 C90.86443417 48.63682968 80.60415501 48.65792937 70.34371871 48.68951833 C61.53081689 48.71568257 52.71798378 48.72639823 43.90504342 48.72512019 C38.64317544 48.72461058 33.3814944 48.73029336 28.11966515 48.75147629 C23.16935751 48.77086093 18.21941509 48.77098151 13.26909447 48.75644302 C11.45509304 48.75435408 9.64106873 48.75906094 7.82710648 48.77116394 C5.34462794 48.78665089 2.86340337 48.77728637 0.38095093 48.76190186 C-0.33161592 48.77218898 -1.04418276 48.78247611 -1.77834255 48.79307497 C-8.17077749 48.70593124 -13.2463404 46.47066538 -18.00276184 42.30258179 C-18.54158997 41.65160522 -19.08041809 41.00062866 -19.63557434 40.32992554 C-20.18987122 39.6815271 -20.74416809 39.03312866 -21.31526184 38.36508179 C-25.79469531 31.86384997 -25.43521163 24.89601637 -24.76057434 17.26742554 C-23.07971852 10.6078322 -18.29679112 6.08195107 -12.76057434 2.26742554 C-8.52828749 0.15013015 -4.64164867 -0.01998742 0 0 Z M-6.76057434 19.26742554 C-8.18099255 22.10826195 -8.07509706 24.12219831 -7.76057434 27.26742554 C-5.52851003 30.11523173 -4.21064436 31.1174022 -0.76057434 32.26742554 C1.5718111 32.36627628 3.90698207 32.4024731 6.24145508 32.40786743 C7.31700772 32.41232412 7.31700772 32.41232412 8.4142887 32.41687083 C10.82321654 32.42556045 13.2320947 32.4270663 15.64103699 32.42855835 C17.36571357 32.43318634 19.09038912 32.43821097 20.81506348 32.44360352 C25.50522137 32.45673133 30.19536494 32.46317321 34.88553834 32.46761417 C37.81518068 32.47054426 40.74481909 32.47464895 43.67445946 32.47911835 C52.83893847 32.49279423 62.00340853 32.50246047 71.16789705 32.50632024 C81.75010809 32.51080148 92.33219 32.52835206 102.91436177 32.55732083 C111.09194574 32.57893065 119.26949336 32.58902414 127.44710559 32.59036136 C132.33220709 32.59140988 137.21718722 32.59732775 142.10225868 32.61518097 C146.69790561 32.63164954 151.29333976 32.63382306 155.88900566 32.62504196 C157.57484125 32.62427094 159.26068822 32.62862291 160.94649506 32.63850021 C163.25006528 32.65120446 165.55288019 32.64535167 167.85644531 32.63491821 C169.14490262 32.63638477 170.43335993 32.63785133 171.7608614 32.63936234 C175.56631851 32.23247334 177.99435244 31.26611174 181.23942566 29.26742554 C182.65984387 26.42658912 182.55394838 24.41265276 182.23942566 21.26742554 C180.00736135 18.41961935 178.68949567 17.41744888 175.23942566 16.26742554 C172.90704022 16.16857479 170.57186925 16.13237798 168.23739624 16.12698364 C167.1618436 16.12252696 167.1618436 16.12252696 166.06456262 16.11798024 C163.65563478 16.10929062 161.24675661 16.10778477 158.83781433 16.10629272 C157.11313775 16.10166474 155.3884622 16.09664011 153.66378784 16.09124756 C148.97362995 16.07811974 144.28348638 16.07167786 139.59331298 16.0672369 C136.66367064 16.06430681 133.73403223 16.06020213 130.80439186 16.05573273 C121.63991285 16.04205684 112.47544279 16.03239061 103.31095427 16.02853084 C92.72874323 16.0240496 82.14666132 16.00649902 71.56448954 15.97753024 C63.38690557 15.95592043 55.20935795 15.94582693 47.03174573 15.94448972 C42.14664423 15.94344119 37.2616641 15.93752332 32.37659264 15.9196701 C27.78094571 15.90320153 23.18551156 15.90102801 18.58984566 15.90980911 C16.90401007 15.91058014 15.21816309 15.90622816 13.53235626 15.89635086 C11.22878603 15.88364661 8.92597112 15.8894994 6.62240601 15.89993286 C5.3339487 15.8984663 4.04549139 15.89699974 2.71798992 15.89548874 C-1.08746719 16.30237774 -3.51550112 17.26873933 -6.76057434 19.26742554 Z " fill="#000000" transform="translate(272.7605743408203,79.73257446289063)"/>
<path d="M0 0 C0.66515625 0.42667969 1.3303125 0.85335937 2.015625 1.29296875 C2.68078125 1.70933594 3.3459375 2.12570313 4.03125 2.5546875 C11.33294771 8.03096079 15.47216927 16.58044939 20.015625 24.29296875 C21.49375775 26.78003793 22.97567011 29.26485274 24.45703125 31.75 C27.3549001 36.61486224 30.24442886 41.48453378 33.12550354 46.35935974 C36.32210586 51.76733886 39.53167759 57.16506546 42.8046875 62.52734375 C43.63154053 63.88520996 43.63154053 63.88520996 44.47509766 65.27050781 C45.46129538 66.8853089 46.45268215 68.49695941 47.45068359 70.10449219 C53.88754148 80.66447665 55.99543076 90.91690753 53.39453125 103.234375 C50.41578533 111.69401342 44.66712013 118.23540043 36.703125 122.29296875 C31.05735109 124.84553215 26.36747967 125.45053225 20.20483398 125.4699707 C19.3036232 125.4765419 18.40241241 125.4831131 17.47389221 125.48988342 C14.4865002 125.5096181 11.49915857 125.52128188 8.51171875 125.53125 C7.48989061 125.53532553 6.46806248 125.53940105 5.41526985 125.54360008 C0.0026787 125.56446551 -5.40988709 125.57876295 -10.82250977 125.58813477 C-16.39860869 125.59917614 -21.97430603 125.63354862 -27.5502634 125.67330647 C-31.84928601 125.69952839 -36.14821396 125.70783176 -40.44730949 125.71141624 C-42.50168495 125.7162709 -44.55605649 125.72785271 -46.61035347 125.74645424 C-60.58303419 125.86507092 -71.34396111 125.64213354 -82.00390625 115.5859375 C-87.75702668 108.92502686 -90.17602344 101.39149724 -90.296875 92.73046875 C-90.32587891 92.06466797 -90.35488281 91.39886719 -90.38476562 90.71289062 C-90.53010585 78.98505228 -83.14862694 69.08607437 -77.296875 59.41796875 C-76.45230042 58.01193703 -75.60823253 56.60560082 -74.76464844 55.19897461 C-73.03388655 52.31631761 -71.298352 49.43661311 -69.55908203 46.55908203 C-67.48365274 43.12416119 -65.42051082 39.68210429 -63.36296082 36.2364502 C-61.85027284 33.7051419 -60.33210259 31.1771558 -58.81234741 28.65008545 C-58.10447148 27.4716082 -57.398221 26.29215276 -56.6937561 25.1116333 C-45.37737441 6.17223358 -45.37737441 6.17223358 -38.421875 1.85546875 C-37.71933594 1.40300781 -37.01679688 0.95054687 -36.29296875 0.484375 C-26.29607839 -4.67476469 -10.12892795 -5.18841939 0 0 Z M-30.6965332 17.77246094 C-35.53010343 23.30205934 -39.18617897 29.31879966 -42.80828857 35.69332886 C-44.63031707 38.89962712 -46.48099509 42.08936905 -48.328125 45.28125 C-48.70746185 45.93847549 -49.08679871 46.59570099 -49.47763062 47.27284241 C-54.00903771 55.10363071 -58.73010348 62.81873118 -63.46331787 70.52868652 C-64.50070699 72.21858792 -65.53555826 73.91004644 -66.5703125 75.6015625 C-67.1586084 76.55861084 -67.7469043 77.51565918 -68.35302734 78.50170898 C-72.19383986 85.07339552 -74.04544554 89.68461064 -72.984375 97.29296875 C-71.6366834 101.52054896 -69.32212999 104.3599526 -65.546875 106.66796875 C-60.12722936 109.14008781 -55.29440064 109.44465038 -49.39941406 109.45410156 C-48.65236206 109.45906647 -47.90531006 109.46403137 -47.13562012 109.46914673 C-44.67373723 109.48370418 -42.21191879 109.49056005 -39.75 109.49609375 C-38.02992757 109.50185103 -36.30985514 109.50760868 -34.58978271 109.5133667 C-30.98530785 109.52385883 -27.38085516 109.529713 -23.77636719 109.53320312 C-19.17555079 109.53868029 -14.57503144 109.56269919 -9.97430801 109.59117508 C-6.42078822 109.60987301 -2.86733892 109.61501088 0.68622589 109.616539 C2.38136669 109.61955055 4.0765067 109.62752803 5.77159882 109.64072418 C20.26483907 110.06116169 20.26483907 110.06116169 32.953125 103.85546875 C36.57542689 99.35503306 37.62745935 95.91896341 37.42578125 90.16894531 C36.97852268 87.03281084 36.11577685 85.14510284 34.546875 82.40625 C34.00095703 81.44662354 33.45503906 80.48699707 32.89257812 79.49829102 C32.27318359 78.44053467 31.65378906 77.38277832 31.015625 76.29296875 C30.68425537 75.72407928 30.35288574 75.15518982 30.01147461 74.56906128 C27.37348419 70.04405078 24.69937455 65.54095438 22.015625 61.04296875 C21.60098999 60.34786194 21.18635498 59.65275513 20.75915527 58.93658447 C19.06313065 56.0943311 17.36656554 53.25240645 15.66741943 50.41201782 C13.06070624 46.05289614 10.47721198 41.68107998 7.90625 37.30078125 C6.69324166 35.25619391 5.4797359 33.21190156 4.265625 31.16796875 C3.46318359 29.78496582 3.46318359 29.78496582 2.64453125 28.37402344 C-1.30936635 21.77340471 -5.31791923 16.66012175 -12.671875 13.91796875 C-19.07413038 12.70999604 -25.60709179 13.3746262 -30.6965332 17.77246094 Z " fill="#000000" transform="translate(273.984375,178.70703125)"/>
<path d="M0 0 C1.16917969 -0.00515625 2.33835938 -0.0103125 3.54296875 -0.015625 C4.76113281 -0.00015625 5.97929687 0.0153125 7.234375 0.03125 C8.43707031 0.01578125 9.63976562 0.0003125 10.87890625 -0.015625 C19.17433207 0.02079838 24.92718784 0.97591003 31.2265625 6.49609375 C31.76539063 7.14707031 32.30421875 7.79804688 32.859375 8.46875 C33.69082031 9.44134766 33.69082031 9.44134766 34.5390625 10.43359375 C39.00812038 16.91976695 38.68986248 23.91714735 37.984375 31.53125 C36.50757335 36.50213391 33.9302113 40.1491046 29.984375 43.53125 C30.26152344 44.22089844 30.53867187 44.91054688 30.82421875 45.62109375 C32.08066627 48.7727887 33.3190715 51.93078158 34.546875 55.09375 C34.98128906 56.20878906 35.41570312 57.32382812 35.86328125 58.47265625 C37.73224484 63.5716057 38.11300604 67.85733448 38.046875 73.28125 C38.02625 75.67375 38.005625 78.06625 37.984375 80.53125 C32.704375 80.53125 27.424375 80.53125 21.984375 80.53125 C21.613125 78.13875 21.241875 75.74625 20.859375 73.28125 C19.41355894 64.97163931 16.89561976 55.00841147 9.984375 49.53125 C8.664375 49.20125 7.344375 48.87125 5.984375 48.53125 C5.984375 59.09125 5.984375 69.65125 5.984375 80.53125 C0.704375 80.53125 -4.575625 80.53125 -10.015625 80.53125 C-10.1059774 70.69117857 -10.17937033 60.85138243 -10.22287369 51.01099014 C-10.24375265 46.44174036 -10.27207571 41.87278898 -10.31738281 37.30371094 C-10.36082988 32.89464127 -10.38475978 28.4858587 -10.39513397 24.07659149 C-10.40252743 22.39403513 -10.41696517 20.71149457 -10.43854523 19.02906036 C-10.46756503 16.67299899 -10.47158175 14.31812527 -10.46972656 11.96191406 C-10.48410767 11.26563904 -10.49848877 10.56936401 -10.51330566 9.85198975 C-10.48475101 6.5026231 -10.21732763 4.79598138 -8.16259766 2.09918213 C-5.32308211 0.02548657 -3.49704217 0.01489461 0 0 Z M5.984375 16.53125 C5.984375 21.81125 5.984375 27.09125 5.984375 32.53125 C13.77007284 32.6955191 13.77007284 32.6955191 19.984375 29.53125 C21.40479321 26.69041359 21.29889772 24.67647722 20.984375 21.53125 C18.75231069 18.68344381 17.43444501 17.68127334 13.984375 16.53125 C11.344375 16.53125 8.704375 16.53125 5.984375 16.53125 Z " fill="#000000" transform="translate(242.015625,335.46875)"/>
<path d="M0 0 C1.16917969 -0.00515625 2.33835938 -0.0103125 3.54296875 -0.015625 C4.76113281 -0.00015625 5.97929687 0.0153125 7.234375 0.03125 C8.43707031 0.01578125 9.63976562 0.0003125 10.87890625 -0.015625 C19.17433207 0.02079838 24.92718784 0.97591003 31.2265625 6.49609375 C31.76539063 7.14707031 32.30421875 7.79804688 32.859375 8.46875 C33.69082031 9.44134766 33.69082031 9.44134766 34.5390625 10.43359375 C39.00812038 16.91976695 38.68986248 23.91714735 37.984375 31.53125 C36.50757335 36.50213391 33.9302113 40.1491046 29.984375 43.53125 C30.26152344 44.22089844 30.53867188 44.91054688 30.82421875 45.62109375 C32.08066627 48.7727887 33.3190715 51.93078158 34.546875 55.09375 C34.98128906 56.20878906 35.41570312 57.32382812 35.86328125 58.47265625 C37.73224484 63.5716057 38.11300604 67.85733448 38.046875 73.28125 C38.02625 75.67375 38.005625 78.06625 37.984375 80.53125 C32.704375 80.53125 27.424375 80.53125 21.984375 80.53125 C21.613125 78.13875 21.241875 75.74625 20.859375 73.28125 C19.41355894 64.97163931 16.89561976 55.00841147 9.984375 49.53125 C8.664375 49.20125 7.344375 48.87125 5.984375 48.53125 C5.984375 59.09125 5.984375 69.65125 5.984375 80.53125 C0.704375 80.53125 -4.575625 80.53125 -10.015625 80.53125 C-10.1059774 70.69117857 -10.17937033 60.85138243 -10.22287369 51.01099014 C-10.24375265 46.44174036 -10.27207571 41.87278898 -10.31738281 37.30371094 C-10.36082988 32.89464127 -10.38475978 28.4858587 -10.39513397 24.07659149 C-10.40252743 22.39403513 -10.41696517 20.71149457 -10.43854523 19.02906036 C-10.46756503 16.67299899 -10.47158175 14.31812527 -10.46972656 11.96191406 C-10.48410767 11.26563904 -10.49848877 10.56936401 -10.51330566 9.85198975 C-10.48475101 6.5026231 -10.21732763 4.79598138 -8.16259766 2.09918213 C-5.32308211 0.02548657 -3.49704217 0.01489461 0 0 Z M5.984375 16.53125 C5.984375 21.81125 5.984375 27.09125 5.984375 32.53125 C13.77007284 32.6955191 13.77007284 32.6955191 19.984375 29.53125 C21.40479321 26.69041359 21.29889772 24.67647722 20.984375 21.53125 C18.75231069 18.68344381 17.43444501 17.68127334 13.984375 16.53125 C11.344375 16.53125 8.704375 16.53125 5.984375 16.53125 Z " fill="#000000" transform="translate(178.015625,335.46875)"/>
<path d="M0 0 C1.16917969 -0.00515625 2.33835937 -0.0103125 3.54296875 -0.015625 C4.76113281 -0.00015625 5.97929687 0.0153125 7.234375 0.03125 C8.43707031 0.01578125 9.63976562 0.0003125 10.87890625 -0.015625 C19.17433207 0.02079838 24.92718784 0.97591003 31.2265625 6.49609375 C31.76539063 7.14707031 32.30421875 7.79804688 32.859375 8.46875 C33.69082031 9.44134766 33.69082031 9.44134766 34.5390625 10.43359375 C38.99981358 16.90771086 38.71456146 23.92872041 37.984375 31.53125 C36.95885629 34.56140256 35.66995235 36.77303252 33.984375 39.53125 C32.45617311 43.29974786 33.49596459 45.74052774 34.859375 49.46875 C36.81106843 54.86661539 38.11920973 59.63186754 38.08203125 65.39453125 C38.07880859 66.28076172 38.07558594 67.16699219 38.07226562 68.08007812 C38.05969727 69.4480957 38.05969727 69.4480957 38.046875 70.84375 C38.04236328 71.77509766 38.03785156 72.70644531 38.03320312 73.66601562 C38.02146754 75.95445487 38.00353361 78.24286086 37.984375 80.53125 C32.704375 80.53125 27.424375 80.53125 21.984375 80.53125 C21.80261719 79.04753906 21.62085938 77.56382812 21.43359375 76.03515625 C21.18016108 74.05462684 20.92622816 72.0741614 20.671875 70.09375 C20.55392578 69.11986328 20.43597656 68.14597656 20.31445312 67.14257812 C19.50467958 60.93431431 18.15361866 55.40704446 15.984375 49.53125 C12.684375 49.20125 9.384375 48.87125 5.984375 48.53125 C5.984375 59.09125 5.984375 69.65125 5.984375 80.53125 C0.704375 80.53125 -4.575625 80.53125 -10.015625 80.53125 C-10.1059774 70.69117857 -10.17937033 60.85138243 -10.22287369 51.01099014 C-10.24375265 46.44174036 -10.27207571 41.87278898 -10.31738281 37.30371094 C-10.36082988 32.89464127 -10.38475978 28.4858587 -10.39513397 24.07659149 C-10.40252743 22.39403513 -10.41696517 20.71149457 -10.43854523 19.02906036 C-10.46756503 16.67299899 -10.47158175 14.31812527 -10.46972656 11.96191406 C-10.48410767 11.26563904 -10.49848877 10.56936401 -10.51330566 9.85198975 C-10.48475101 6.5026231 -10.21732763 4.79598138 -8.16259766 2.09918213 C-5.32308211 0.02548657 -3.49704217 0.01489461 0 0 Z M5.984375 16.53125 C5.984375 21.81125 5.984375 27.09125 5.984375 32.53125 C13.77007284 32.6955191 13.77007284 32.6955191 19.984375 29.53125 C21.40479321 26.69041359 21.29889772 24.67647722 20.984375 21.53125 C18.75231069 18.68344381 17.43444501 17.68127334 13.984375 16.53125 C11.344375 16.53125 8.704375 16.53125 5.984375 16.53125 Z " fill="#000000" transform="translate(370.015625,335.46875)"/>
<path d="M0 0 C1.32091644 0.00045319 1.32091644 0.00045319 2.66851807 0.00091553 C4.08121979 0.03188324 4.08121979 0.03188324 5.52246094 0.06347656 C6.49342712 0.06913635 7.46439331 0.07479614 8.46478271 0.08062744 C11.56263763 0.10299845 14.65933127 0.15319683 17.75683594 0.20410156 C19.85838172 0.2241656 21.95994565 0.24241653 24.06152344 0.25878906 C29.21040763 0.30286576 34.35842497 0.37189898 39.50683594 0.45410156 C39.50683594 5.73410156 39.50683594 11.01410156 39.50683594 16.45410156 C28.94683594 16.45410156 18.38683594 16.45410156 7.50683594 16.45410156 C7.50683594 21.73410156 7.50683594 27.01410156 7.50683594 32.45410156 C18.06683594 32.45410156 28.62683594 32.45410156 39.50683594 32.45410156 C39.50683594 37.73410156 39.50683594 43.01410156 39.50683594 48.45410156 C28.94683594 48.45410156 18.38683594 48.45410156 7.50683594 48.45410156 C7.50683594 53.73410156 7.50683594 59.01410156 7.50683594 64.45410156 C18.06683594 64.45410156 28.62683594 64.45410156 39.50683594 64.45410156 C39.50683594 69.73410156 39.50683594 75.01410156 39.50683594 80.45410156 C33.31384951 80.55298246 27.12132261 80.62557642 20.92773438 80.67382812 C18.82088212 80.69394282 16.71408568 80.72123823 14.60742188 80.75585938 C11.57896147 80.80438325 8.55123916 80.82707173 5.52246094 80.84472656 C4.10975922 80.87569427 4.10975922 80.87569427 2.66851807 80.9072876 C1.7879071 80.90758972 0.90729614 80.90789185 0 80.90820312 C-0.77277283 80.91708557 -1.54554565 80.92596802 -2.34173584 80.93511963 C-5.48856922 80.23154807 -6.6067756 79.04871559 -8.49316406 76.45410156 C-9.00109863 73.26660156 -9.00109863 73.26660156 -9.01074219 69.45410156 C-9.01775146 68.75768555 -9.02476074 68.06126953 -9.03198242 67.34375 C-9.04955602 65.04679225 -9.03794326 62.75107135 -9.02441406 60.45410156 C-9.02710919 58.85514083 -9.03099179 57.25618169 -9.03601074 55.65722656 C-9.04190488 52.30810931 -9.03334599 48.95941913 -9.01464844 45.61035156 C-8.99185841 41.31931565 -9.00498202 37.02928045 -9.02893829 32.73828125 C-9.04339886 29.4370979 -9.03878921 26.13615146 -9.02842712 22.83496094 C-9.02576053 21.25292848 -9.02902728 19.67087445 -9.03834534 18.08886719 C-9.04851585 15.87669994 -9.03300596 13.66614857 -9.01074219 11.45410156 C-9.00755981 10.19597656 -9.00437744 8.93785156 -9.00109863 7.64160156 C-8.49316406 4.45410156 -8.49316406 4.45410156 -6.74163818 2.04498291 C-4.20663238 0.25136945 -3.06669483 -0.03524937 0 0 Z " fill="#000000" transform="translate(112.4931640625,335.5458984375)"/>
<path d="M0 0 C5.83147404 3.52396603 10.54959146 8.98814584 12.5625 15.5 C12.87892475 18.92220616 12.89043424 22.33437821 12.8984375 25.76953125 C12.9050943 26.76450119 12.9117511 27.75947113 12.91860962 28.78459167 C12.92871898 30.88673051 12.93342717 32.98890133 12.93310547 35.09106445 C12.93747077 38.29107172 12.97378761 41.48969038 13.01171875 44.68945312 C13.01758899 46.73697448 13.021557 48.78450235 13.0234375 50.83203125 C13.03780853 51.78124954 13.05217957 52.73046783 13.06698608 53.70845032 C13.01779602 60.93685415 11.40289144 66.25867855 6.59765625 71.7421875 C5.94667969 72.28101563 5.29570312 72.81984375 4.625 73.375 C3.97660156 73.92929687 3.32820313 74.48359375 2.66015625 75.0546875 C-3.84107557 79.53412097 -10.80890917 79.17463728 -18.4375 78.5 C-25.09709333 76.81914417 -29.62297447 72.03621678 -33.4375 66.5 C-36.06555317 61.61110108 -35.76083835 56.6382672 -35.7734375 51.23046875 C-35.7800943 50.23549881 -35.7867511 49.24052887 -35.79360962 48.21540833 C-35.80371898 46.11326949 -35.80842717 44.01109867 -35.80810547 41.90893555 C-35.81247077 38.70892828 -35.84878761 35.51030962 -35.88671875 32.31054688 C-35.89258899 30.26302552 -35.896557 28.21549765 -35.8984375 26.16796875 C-35.91999405 24.74414131 -35.91999405 24.74414131 -35.94198608 23.29154968 C-35.89279602 16.06314585 -34.27789144 10.74132145 -29.47265625 5.2578125 C-28.82167969 4.71898437 -28.17070312 4.18015625 -27.5 3.625 C-26.85160156 3.07070313 -26.20320313 2.51640625 -25.53515625 1.9453125 C-18.47077988 -2.92213491 -7.84396301 -3.47595223 0 0 Z M-16.75 17.3125 C-20.85199671 22.62990314 -19.66085028 29.66319936 -19.67773438 36.06860352 C-19.68742021 38.29416562 -19.71844532 40.51879592 -19.75 42.74414062 C-19.75653272 44.16926538 -19.76178214 45.59439671 -19.765625 47.01953125 C-19.7749707 48.30964111 -19.78431641 49.59975098 -19.79394531 50.92895508 C-19.4080185 54.7953602 -18.47154328 57.21030949 -16.4375 60.5 C-13.59666359 61.92041821 -11.58272722 61.81452272 -8.4375 61.5 C-5.58969381 59.26793569 -4.58752334 57.95007001 -3.4375 54.5 C-3.20865515 49.97962066 -3.20919431 45.45683965 -3.19726562 40.93139648 C-3.18757979 38.70583438 -3.15655468 36.48120408 -3.125 34.25585938 C-3.11846728 32.83073462 -3.11321786 31.40560329 -3.109375 29.98046875 C-3.1000293 28.69035889 -3.09068359 27.40024902 -3.08105469 26.07104492 C-3.4669815 22.2046398 -4.40345672 19.78969051 -6.4375 16.5 C-10.23281479 14.60234261 -13.41071965 14.69522621 -16.75 17.3125 Z " fill="#000000" transform="translate(331.4375,337.5)"/>
<path d="M0 0 C5.82485779 3.51996782 10.54466582 8.98962934 12.5625 15.5 C13.36764105 23.33608208 13.68710392 31.11922577 8.5625 37.5 C3.75801361 42.54521222 -0.59927055 46.10562995 -7.70703125 46.8359375 C-16.22326573 46.92983204 -22.11345494 46.6177288 -28.40234375 40.62890625 C-34.7841668 33.72505269 -35.91792252 28.29832071 -35.7421875 18.9453125 C-35.04689797 11.08319245 -31.38995981 6.95041296 -25.53515625 1.9453125 C-18.47077988 -2.92213491 -7.84396301 -3.47595223 0 0 Z M-16.8125 17.125 C-18.92456506 20.21186432 -19.04945145 21.8282913 -18.4375 25.5 C-16.9375 28 -16.9375 28 -14.4375 29.5 C-10.7657913 30.11195145 -9.14936432 29.98706506 -6.0625 27.875 C-3.95043494 24.78813568 -3.82554855 23.1717087 -4.4375 19.5 C-5.9375 17 -5.9375 17 -8.4375 15.5 C-12.1092087 14.88804855 -13.72563568 15.01293494 -16.8125 17.125 Z " fill="#000000" transform="translate(203.4375,81.5)"/>
<path d="M0 0 C5.82485779 3.51996782 10.54466582 8.98962934 12.5625 15.5 C13.36764105 23.33608208 13.68710392 31.11922577 8.5625 37.5 C3.75801361 42.54521222 -0.59927055 46.10562995 -7.70703125 46.8359375 C-16.22326573 46.92983204 -22.11345494 46.6177288 -28.40234375 40.62890625 C-34.7841668 33.72505269 -35.91792252 28.29832071 -35.7421875 18.9453125 C-35.04689797 11.08319245 -31.38995981 6.95041296 -25.53515625 1.9453125 C-18.47077988 -2.92213491 -7.84396301 -3.47595223 0 0 Z M-16.8125 17.125 C-18.92456506 20.21186432 -19.04945145 21.8282913 -18.4375 25.5 C-16.9375 28 -16.9375 28 -14.4375 29.5 C-10.7657913 30.11195145 -9.14936432 29.98706506 -6.0625 27.875 C-3.95043494 24.78813568 -3.82554855 23.1717087 -4.4375 19.5 C-5.9375 17 -5.9375 17 -8.4375 15.5 C-12.1092087 14.88804855 -13.72563568 15.01293494 -16.8125 17.125 Z " fill="#000000" transform="translate(139.4375,81.5)"/>
<path d="M0 0 C5.82485779 3.51996782 10.54466582 8.98962934 12.5625 15.5 C13.36764105 23.33608208 13.68710392 31.11922577 8.5625 37.5 C3.75801361 42.54521222 -0.59927055 46.10562995 -7.70703125 46.8359375 C-16.22326573 46.92983204 -22.11345494 46.6177288 -28.40234375 40.62890625 C-34.7841668 33.72505269 -35.91792252 28.29832071 -35.7421875 18.9453125 C-35.04689797 11.08319245 -31.38995981 6.95041296 -25.53515625 1.9453125 C-18.47077988 -2.92213491 -7.84396301 -3.47595223 0 0 Z M-16.8125 17.125 C-18.92456506 20.21186432 -19.04945145 21.8282913 -18.4375 25.5 C-16.9375 28 -16.9375 28 -14.4375 29.5 C-10.7657913 30.11195145 -9.14936432 29.98706506 -6.0625 27.875 C-3.95043494 24.78813568 -3.82554855 23.1717087 -4.4375 19.5 C-5.9375 17 -5.9375 17 -8.4375 15.5 C-12.1092087 14.88804855 -13.72563568 15.01293494 -16.8125 17.125 Z " fill="#000000" transform="translate(75.4375,81.5)"/>
<path d="M0 0 C5.28 0 10.56 0 16 0 C16 10.56 16 21.12 16 32 C10.72 32 5.44 32 0 32 C0 21.44 0 10.88 0 0 Z " fill="#000000" transform="translate(248,208)"/>
<path d="M0 0 C5.28 0 10.56 0 16 0 C16 5.28 16 10.56 16 16 C10.72 16 5.44 16 0 16 C0 10.72 0 5.44 0 0 Z " fill="#000000" transform="translate(248,256)"/>
</svg>
