<?xml version="1.0" standalone="no"?>
<!DOCTYPE svg PUBLIC "-//W3C//DTD SVG 20010904//EN"
 "http://www.w3.org/TR/2001/REC-SVG-20010904/DTD/svg10.dtd">
<svg version="1.0" xmlns="http://www.w3.org/2000/svg"
 width="640.000000pt" height="640.000000pt" viewBox="0 0 640.000000 640.000000"
 preserveAspectRatio="xMidYMid meet">

<g transform="translate(0.000000,640.000000) scale(0.100000,-0.100000)"
fill="#000000" stroke="none">
<path d="M2929 5625 c-304 -39 -559 -115 -814 -242 -280 -140 -503 -309 -723
-548 -540 -588 -754 -1430 -561 -2214 112 -453 328 -832 665 -1163 865 -851
2225 -931 3194 -189 200 154 426 402 570 625 667 1040 434 2430 -538 3211
-132 106 -265 190 -442 279 -234 117 -470 192 -730 231 -145 22 -486 28 -621
10z m570 -210 c978 -143 1730 -867 1902 -1833 27 -148 37 -481 20 -633 -112
-972 -844 -1760 -1807 -1945 -115 -22 -176 -28 -351 -32 -303 -6 -485 18 -739
99 -685 219 -1221 749 -1444 1428 -82 248 -111 431 -111 697 0 360 71 672 227
990 137 282 366 566 614 765 295 236 675 400 1062 459 161 24 476 26 627 5z"/>
</g>
</svg>
