<?xml version="1.0" encoding="UTF-8"?>
<svg version="1.1" xmlns="http://www.w3.org/2000/svg" width="512" height="512">
<path d="M0 0 C0.93431681 -0.00367669 1.86863362 -0.00735338 2.83126307 -0.01114148 C5.96388961 -0.02215961 9.09648297 -0.02601902 12.22912598 -0.02983093 C14.47475286 -0.03609708 16.7203787 -0.04274401 18.96600342 -0.04974365 C26.34341715 -0.07077142 33.72083106 -0.081146 41.0982666 -0.09111023 C43.64036571 -0.0951585 46.18246471 -0.09927544 48.7245636 -0.10346031 C59.30185405 -0.12032816 69.87914236 -0.13496185 80.45644379 -0.14220905 C83.19903057 -0.14411875 85.94161735 -0.14603911 88.6842041 -0.147995 C89.70660988 -0.14872061 89.70660988 -0.14872061 90.74967033 -0.14946087 C101.77898283 -0.15775241 112.80818657 -0.18307558 123.83745164 -0.21557567 C135.17735345 -0.24871689 146.51718069 -0.26633198 157.85713816 -0.26985329 C164.21742806 -0.27220027 170.57754602 -0.28111499 176.93778992 -0.30631447 C182.92636069 -0.32965788 188.9146471 -0.33380306 194.90325165 -0.32355309 C197.09410805 -0.32305912 199.28497875 -0.32933827 201.47579193 -0.34310913 C212.9189395 -0.41097848 223.04720662 -0.34624924 233.7545166 4.14717102 C234.91453312 4.62869393 234.91453312 4.62869393 236.09798431 5.11994457 C248.72644856 10.68211391 257.75621601 21.40220142 262.7545166 34.08467102 C264.74271648 39.65577276 265.87746489 44.6806958 265.88873768 50.60265255 C265.89319552 51.69224362 265.89765337 52.7818347 265.9022463 53.90444368 C265.90196975 55.69158567 265.90196975 55.69158567 265.90168762 57.51483154 C265.90536431 58.78485506 265.909041 60.05487857 265.9128291 61.36338764 C265.92282705 64.88639827 265.9265623 68.40939186 265.92921841 71.93241465 C265.93312778 75.73275703 265.94270537 79.533086 265.95143127 83.3334198 C265.97117328 92.50755963 265.98125702 101.68170052 265.99015906 110.85585627 C265.99454389 115.17608165 265.99991003 119.49630581 266.00514793 123.81653023 C266.0221546 138.17603393 266.03665049 152.53553687 266.04389668 166.8950491 C266.04580655 170.61947061 266.04772689 174.34389211 266.04968262 178.0683136 C266.05016636 178.99399342 266.0506501 179.91967325 266.0511485 180.87340397 C266.05945541 195.88111197 266.08480596 210.88874044 266.11726329 225.89641368 C266.15031245 241.30319162 266.16834331 256.70992909 266.17154092 272.11674267 C266.17370752 280.76777366 266.18247868 289.41868851 266.20800209 298.06968498 C266.22967946 305.43400662 266.237774 312.79818389 266.22803531 320.16253381 C266.22348255 323.92029422 266.22543323 327.67775655 266.24479675 331.4354763 C266.26560179 335.50803752 266.25546967 339.57993415 266.24226379 343.65252686 C266.25871766 345.43632276 266.25871766 345.43632276 266.27550393 347.25615495 C266.22655791 353.48613522 266.05372131 357.46398846 261.7545166 362.14717102 C258.0322439 364.00830737 253.8077549 363.71436946 249.7545166 363.14717102 C245.32724374 359.98483326 244.84470708 358.59812341 243.7545166 353.14717102 C152.3445166 353.14717102 60.9345166 353.14717102 -33.2454834 353.14717102 C-33.5754834 355.12717102 -33.9054834 357.10717102 -34.2454834 359.14717102 C-36.4688815 361.87262676 -38.14994715 362.95468764 -41.62438965 363.56513977 C-46.26447388 363.82100134 -48.5181796 363.69635961 -52.3079834 360.83467102 C-54.99408081 357.10879396 -55.37106948 354.4821289 -55.37970448 350.00977707 C-55.38639124 348.40536432 -55.38639124 348.40536432 -55.39321309 346.76853919 C-55.39302873 345.58909744 -55.39284437 344.40965568 -55.39265442 343.19447327 C-55.39633111 341.94475935 -55.4000078 340.69504544 -55.4037959 339.4074614 C-55.41381941 335.93151232 -55.41753329 332.45558051 -55.42018521 328.97961903 C-55.42408751 325.23292112 -55.43366626 321.4862369 -55.44239807 317.73954773 C-55.46217004 308.68465918 -55.47223202 299.62976949 -55.48112586 290.57486475 C-55.4855097 286.30809543 -55.49087646 282.04132736 -55.49611473 277.77455902 C-55.51313176 263.58414849 -55.5276232 249.39373872 -55.53486347 235.20331955 C-55.53677331 231.51988982 -55.53869365 227.8364601 -55.54064941 224.1530304 C-55.54113315 223.23755221 -55.54161689 222.32207402 -55.54211529 221.37885407 C-55.55040525 206.56786084 -55.57572253 191.75694865 -55.60823009 176.94599077 C-55.64135287 161.73020477 -55.65931716 146.51445986 -55.66250771 131.29863763 C-55.66466856 122.75963079 -55.67335405 114.22074194 -55.69896889 105.68177032 C-55.72074773 98.40475977 -55.72869138 91.12789584 -55.71900211 83.85085639 C-55.71447737 80.14262467 -55.71623569 76.43469498 -55.73576355 72.72650528 C-55.84311801 51.11162986 -55.66835598 31.95277799 -39.9329834 15.27217102 C-28.69032391 4.75238981 -15.18766241 -0.00321294 0 0 Z " fill="#F1F1F1" transform="translate(161.2454833984375,84.85282897949219)"/>
<path d="M0 0 C0.93431681 -0.00367669 1.86863362 -0.00735338 2.83126307 -0.01114148 C5.96388961 -0.02215961 9.09648297 -0.02601902 12.22912598 -0.02983093 C14.47475286 -0.03609708 16.7203787 -0.04274401 18.96600342 -0.04974365 C26.34341715 -0.07077142 33.72083106 -0.081146 41.0982666 -0.09111023 C43.64036571 -0.0951585 46.18246471 -0.09927544 48.7245636 -0.10346031 C59.30185405 -0.12032816 69.87914236 -0.13496185 80.45644379 -0.14220905 C83.19903057 -0.14411875 85.94161735 -0.14603911 88.6842041 -0.147995 C89.70660988 -0.14872061 89.70660988 -0.14872061 90.74967033 -0.14946087 C101.77898283 -0.15775241 112.80818657 -0.18307558 123.83745164 -0.21557567 C135.17735345 -0.24871689 146.51718069 -0.26633198 157.85713816 -0.26985329 C164.21742806 -0.27220027 170.57754602 -0.28111499 176.93778992 -0.30631447 C182.92636069 -0.32965788 188.9146471 -0.33380306 194.90325165 -0.32355309 C197.09410805 -0.32305912 199.28497875 -0.32933827 201.47579193 -0.34310913 C212.9189395 -0.41097848 223.04720662 -0.34624924 233.7545166 4.14717102 C234.91453312 4.62869393 234.91453312 4.62869393 236.09798431 5.11994457 C248.72644856 10.68211391 257.75621601 21.40220142 262.7545166 34.08467102 C264.74271648 39.65577276 265.87746489 44.6806958 265.88873768 50.60265255 C265.89319552 51.69224362 265.89765337 52.7818347 265.9022463 53.90444368 C265.90196975 55.69158567 265.90196975 55.69158567 265.90168762 57.51483154 C265.90536431 58.78485506 265.909041 60.05487857 265.9128291 61.36338764 C265.92282705 64.88639827 265.9265623 68.40939186 265.92921841 71.93241465 C265.93312778 75.73275703 265.94270537 79.533086 265.95143127 83.3334198 C265.97117328 92.50755963 265.98125702 101.68170052 265.99015906 110.85585627 C265.99454389 115.17608165 265.99991003 119.49630581 266.00514793 123.81653023 C266.0221546 138.17603393 266.03665049 152.53553687 266.04389668 166.8950491 C266.04580655 170.61947061 266.04772689 174.34389211 266.04968262 178.0683136 C266.05016636 178.99399342 266.0506501 179.91967325 266.0511485 180.87340397 C266.05945541 195.88111197 266.08480596 210.88874044 266.11726329 225.89641368 C266.15031245 241.30319162 266.16834331 256.70992909 266.17154092 272.11674267 C266.17370752 280.76777366 266.18247868 289.41868851 266.20800209 298.06968498 C266.22967946 305.43400662 266.237774 312.79818389 266.22803531 320.16253381 C266.22348255 323.92029422 266.22543323 327.67775655 266.24479675 331.4354763 C266.26560179 335.50803752 266.25546967 339.57993415 266.24226379 343.65252686 C266.25871766 345.43632276 266.25871766 345.43632276 266.27550393 347.25615495 C266.22655791 353.48613522 266.05372131 357.46398846 261.7545166 362.14717102 C258.03998429 364.00443718 253.79872235 363.73218191 249.7545166 363.14717102 C246.93027372 360.95694185 245.33943057 359.31699895 243.7545166 356.14717102 C243.6591074 354.46188761 243.6279078 352.77281201 243.62702465 351.08483028 C243.624017 350.00654585 243.62100935 348.92826141 243.61791056 347.81730169 C243.61966094 346.62307248 243.62141131 345.42884327 243.62321472 344.19842529 C243.62004115 342.30653531 243.62004115 342.30653531 243.61680347 340.37642533 C243.61219662 337.59877952 243.61078752 334.82115603 243.61176872 332.04350662 C243.61335808 327.52445852 243.60816661 323.00543263 243.60214233 318.48638916 C243.59402016 311.92428023 243.58908226 305.36217521 243.58585167 298.80006218 C243.5803594 288.42608882 243.56346557 278.05214843 243.54450989 267.67819214 C243.53815266 264.13011461 243.53184427 260.582037 243.52553272 257.03395939 C243.52394896 256.14716191 243.5223652 255.26036443 243.52073344 254.3466943 C243.50278708 244.24592785 243.4865663 234.14515905 243.47155762 224.04438782 C243.46949381 222.65898964 243.46949381 222.65898964 243.46738831 221.24560363 C243.44547217 206.28827023 243.43470588 191.3309453 243.42718687 176.37359869 C243.41911288 161.01997545 243.39581163 145.66642474 243.3592332 130.31284291 C243.33721544 120.8418955 243.32754134 111.37109727 243.33373354 101.90012557 C243.33691069 95.40570209 243.3255611 88.91140585 243.30283912 82.41702174 C243.29018412 78.67108412 243.28398574 74.92543 243.29525566 71.17948151 C243.30732845 67.11433561 243.28848425 63.04990791 243.26676941 58.98480225 C243.27521195 57.80618809 243.28365448 56.62757393 243.29235286 55.41324419 C243.19769508 45.82992178 240.79684992 38.07995154 233.96469879 31.14218521 C223.22654006 21.44941909 211.18145856 22.28745616 197.56115723 22.37080383 C195.32271809 22.36266299 193.08428699 22.35197395 190.84587097 22.33894348 C184.79411375 22.31169581 178.74297336 22.32215208 172.69120598 22.34121799 C166.34270503 22.35646275 159.99425509 22.34230571 153.64575195 22.332901 C142.30499803 22.32130364 130.96455579 22.33988974 119.62386423 22.37045702 C109.36242652 22.39726006 99.10139619 22.39260274 88.83996582 22.36494446 C76.89460809 22.33276199 64.94949735 22.32092204 53.00408125 22.33861804 C46.69140825 22.34794765 40.37901523 22.34928694 34.06636047 22.32939911 C28.13003068 22.31200153 22.19446632 22.32420802 16.25821877 22.35876465 C14.08630961 22.36666353 11.91433547 22.36447922 9.74245262 22.35118866 C-2.97076489 22.28059462 -13.23517612 22.30236555 -23.36191559 30.95566177 C-31.46297929 39.30592663 -32.83773009 48.87508801 -32.73754883 60.08486938 C-32.74222782 61.35578704 -32.74690681 62.62670469 -32.75172758 63.93613499 C-32.76415953 67.43854133 -32.75199784 70.94048478 -32.73565269 74.44285882 C-32.7224217 78.22946894 -32.7324583 82.01602662 -32.73976135 85.80264282 C-32.74942012 92.3559364 -32.74500327 98.90909677 -32.7313385 105.46238136 C-32.71194136 114.94264536 -32.71843002 124.4227602 -32.73191231 133.90302815 C-32.7534711 149.2930916 -32.76021192 164.68311978 -32.75476074 180.07319641 C-32.75444011 180.99332042 -32.75411948 181.91344443 -32.75378913 182.86145099 C-32.75141543 189.39419119 -32.74851029 195.9269311 -32.7454834 202.45967102 C-32.74202295 209.93078093 -32.73880521 217.40189084 -32.73620605 224.8730011 C-32.73588054 225.79351548 -32.73555503 226.71402986 -32.73521966 227.66243861 C-32.73028018 243.00271911 -32.74094116 258.34295061 -32.76277781 273.6832158 C-32.775483 283.14245149 -32.77401337 292.60148546 -32.75432694 302.06071027 C-32.7417364 308.5363182 -32.74316585 315.01182364 -32.75570047 321.48743138 C-32.76242365 325.22484599 -32.76248396 328.96196166 -32.74511909 332.69934845 C-32.72642823 336.74791545 -32.73842074 340.79580886 -32.75341797 344.84439087 C-32.74292907 346.02919944 -32.73244018 347.214008 -32.72163343 348.43471986 C-32.78745211 356.37653518 -32.78745211 356.37653518 -35.15123749 360.35359478 C-38.90799211 363.57099432 -41.94243903 363.53745675 -46.7611084 363.50263977 C-49.2454834 363.14717102 -49.2454834 363.14717102 -52.3079834 360.83467102 C-54.99408081 357.10879396 -55.37106948 354.4821289 -55.37970448 350.00977707 C-55.38639124 348.40536432 -55.38639124 348.40536432 -55.39321309 346.76853919 C-55.39302873 345.58909744 -55.39284437 344.40965568 -55.39265442 343.19447327 C-55.39633111 341.94475935 -55.4000078 340.69504544 -55.4037959 339.4074614 C-55.41381941 335.93151232 -55.41753329 332.45558051 -55.42018521 328.97961903 C-55.42408751 325.23292112 -55.43366626 321.4862369 -55.44239807 317.73954773 C-55.46217004 308.68465918 -55.47223202 299.62976949 -55.48112586 290.57486475 C-55.4855097 286.30809543 -55.49087646 282.04132736 -55.49611473 277.77455902 C-55.51313176 263.58414849 -55.5276232 249.39373872 -55.53486347 235.20331955 C-55.53677331 231.51988982 -55.53869365 227.8364601 -55.54064941 224.1530304 C-55.54113315 223.23755221 -55.54161689 222.32207402 -55.54211529 221.37885407 C-55.55040525 206.56786084 -55.57572253 191.75694865 -55.60823009 176.94599077 C-55.64135287 161.73020477 -55.65931716 146.51445986 -55.66250771 131.29863763 C-55.66466856 122.75963079 -55.67335405 114.22074194 -55.69896889 105.68177032 C-55.72074773 98.40475977 -55.72869138 91.12789584 -55.71900211 83.85085639 C-55.71447737 80.14262467 -55.71623569 76.43469498 -55.73576355 72.72650528 C-55.84311801 51.11162986 -55.66835598 31.95277799 -39.9329834 15.27217102 C-28.69032391 4.75238981 -15.18766241 -0.00321294 0 0 Z " fill="#1B1B1B" transform="translate(161.2454833984375,84.85282897949219)"/>
<path d="M0 0 C0.71859509 -0.00382555 1.43719017 -0.00765109 2.17756087 -0.01159257 C4.58577922 -0.02191249 6.99375871 -0.01793238 9.4019928 -0.01396179 C11.12844056 -0.01830882 12.85488639 -0.02349194 14.58132935 -0.02944946 C19.27138297 -0.04285152 23.96135608 -0.0434168 28.65142512 -0.04088616 C32.56555315 -0.0398173 36.47966482 -0.04469764 40.39378935 -0.04949158 C49.62700499 -0.06059088 58.86017996 -0.06102176 68.09339905 -0.05497742 C77.62169715 -0.04893587 87.14984764 -0.06125227 96.67812055 -0.08254749 C104.85656519 -0.10015445 113.0349628 -0.10616629 121.2134257 -0.10290974 C126.0990297 -0.10109534 130.98452841 -0.10374872 135.87011528 -0.11762428 C140.46414418 -0.13018334 145.05794271 -0.12827678 149.651968 -0.11521339 C151.33821947 -0.11284389 153.02448706 -0.11559568 154.71072006 -0.12383652 C157.01241191 -0.13427426 159.3133265 -0.12622786 161.61499023 -0.11352539 C162.90307052 -0.11369313 164.1911508 -0.11386087 165.51826382 -0.1140337 C169.14513114 0.2913372 170.99383385 1.05581405 173.87098694 3.26069641 C176.68823927 7.48657491 176.67057077 11.29694329 175.87098694 16.26069641 C173.68075776 19.0849393 172.04081487 20.67578244 168.87098694 22.26069641 C166.57886439 22.36400463 164.28364888 22.40025614 161.98921204 22.40786743 C161.27303137 22.41154412 160.5568507 22.41522081 159.81896758 22.41900891 C157.40693823 22.4300667 154.99495193 22.43389313 152.582901 22.43769836 C150.85837161 22.44396145 149.13384357 22.45060812 147.40931702 22.45761108 C142.71497212 22.47503559 138.02063743 22.48557688 133.3262682 22.49381661 C130.39445378 22.49896389 127.46264255 22.50503976 124.53083038 22.51132774 C115.36101105 22.53038421 106.19119979 22.54461415 97.02136445 22.55293971 C86.43061526 22.56271361 75.84007499 22.58903521 65.24939942 22.62944061 C57.06759024 22.65958618 48.88584099 22.67440712 40.70397735 22.67772073 C35.81546377 22.68007307 30.92717326 22.68905738 26.03871918 22.7141819 C21.4389373 22.73744026 16.83952573 22.74170489 12.23970032 22.73142052 C10.55224629 22.73092449 8.86477418 22.73726454 7.17737579 22.75097656 C4.87137191 22.76866553 2.56670124 22.76160528 0.26069641 22.7484436 C-1.02905972 22.75083196 -2.31881584 22.75322031 -3.64765549 22.75568104 C-7.77478667 22.16887935 -9.91098086 20.86714522 -13.12901306 18.26069641 C-15.59042553 14.56857771 -15.81551513 11.54714836 -15.12901306 7.26069641 C-11.21189253 0.82542696 -7.24455986 0.01154935 0 0 Z " fill="#B4B4B4" transform="translate(186.12901306152344,276.7393035888672)"/>
<path d="M0 0 C0.72505334 -0.00367669 1.45010668 -0.00735338 2.19713134 -0.01114148 C4.63913365 -0.02219967 7.08109344 -0.02602575 9.52311707 -0.02983093 C11.26897314 -0.03609394 13.01482788 -0.04274059 14.76068115 -0.04974365 C19.51280836 -0.06716767 24.26492549 -0.07770907 29.01707673 -0.08594918 C31.98439538 -0.091096 34.95171089 -0.09717185 37.91902733 -0.10346031 C47.19830151 -0.12251566 56.4775677 -0.13674649 65.75685769 -0.14507228 C76.47722686 -0.15484924 87.1973898 -0.18117929 97.91768628 -0.22157317 C106.19799281 -0.25170533 114.47824011 -0.26653837 122.75860041 -0.26985329 C127.70688465 -0.27220696 132.65494866 -0.28120841 137.60317421 -0.30631447 C142.25794371 -0.32954975 146.91234726 -0.3338468 151.56715965 -0.32355309 C153.27599681 -0.32305652 154.9848517 -0.32941253 156.69363403 -0.34310913 C159.0262588 -0.36076058 161.35756062 -0.35375637 163.69018555 -0.34057617 C164.99561215 -0.34296453 166.30103876 -0.34535288 167.64602375 -0.34781361 C172.24301951 0.32349849 174.64400439 2.31283686 177.41056824 5.95967102 C178.37177439 9.32389254 177.8640177 11.77419821 177.03556824 15.14717102 C175.21217771 17.85284728 173.96099387 19.6844582 171.03556824 21.14717102 C168.70321169 21.2505689 166.36780756 21.28673569 164.03317261 21.29434204 C163.30403571 21.29801873 162.57489882 21.30169542 161.82366687 21.30548352 C159.36784507 21.31654195 156.91206554 21.32036783 154.45622253 21.32417297 C152.70051437 21.33043596 150.94480754 21.33708261 149.18910217 21.34408569 C144.4101163 21.36150988 139.63114043 21.37205115 134.85213065 21.38029122 C131.86806104 21.385438 128.88399455 21.39151385 125.89992714 21.39780235 C116.56832722 21.41685773 107.23673524 21.43108856 97.9051196 21.43941432 C87.12419041 21.44919133 76.34346628 21.47552151 65.56260937 21.51591522 C57.23559412 21.54604703 48.90863775 21.56088037 40.58156902 21.56419533 C35.60533962 21.56654903 30.62932922 21.57555097 25.65315819 21.60065651 C20.97212447 21.6238912 16.29145464 21.62818908 11.61037827 21.61789513 C9.89186584 21.61739854 8.17333578 21.62375497 6.45487785 21.63745117 C4.10911833 21.6551016 1.76467446 21.64809887 -0.58108521 21.63491821 C-2.55028663 21.63850074 -2.55028663 21.63850074 -4.55926991 21.64215565 C-8.52073713 21.06630479 -10.1583208 19.94456726 -12.96443176 17.14717102 C-14.70074813 13.67453829 -14.56633578 9.93524089 -13.96443176 6.14717102 C-9.57854562 0.60710431 -6.83515732 0.02239517 0 0 Z " fill="#B3B3B3" transform="translate(184.9644317626953,383.8528289794922)"/>
<path d="M0 0 C0.72505334 -0.00367669 1.45010668 -0.00735338 2.19713134 -0.01114148 C4.63913365 -0.02219967 7.08109344 -0.02602575 9.52311707 -0.02983093 C11.26897314 -0.03609394 13.01482788 -0.04274059 14.76068115 -0.04974365 C19.51280836 -0.06716767 24.26492549 -0.07770907 29.01707673 -0.08594918 C31.98439538 -0.091096 34.95171089 -0.09717185 37.91902733 -0.10346031 C47.19830151 -0.12251566 56.4775677 -0.13674649 65.75685769 -0.14507228 C76.47722686 -0.15484924 87.1973898 -0.18117929 97.91768628 -0.22157317 C106.19799281 -0.25170533 114.47824011 -0.26653837 122.75860041 -0.26985329 C127.70688465 -0.27220696 132.65494866 -0.28120841 137.60317421 -0.30631447 C142.25794371 -0.32954975 146.91234726 -0.3338468 151.56715965 -0.32355309 C153.27599681 -0.32305652 154.9848517 -0.32941253 156.69363403 -0.34310913 C159.0262588 -0.36076058 161.35756062 -0.35375637 163.69018555 -0.34057617 C164.99561215 -0.34296453 166.30103876 -0.34535288 167.64602375 -0.34781361 C172.24301951 0.32349849 174.64400439 2.31283686 177.41056824 5.95967102 C178.37177439 9.32389254 177.8640177 11.77419821 177.03556824 15.14717102 C175.21217771 17.85284728 173.96099387 19.6844582 171.03556824 21.14717102 C168.70321169 21.2505689 166.36780756 21.28673569 164.03317261 21.29434204 C163.30403571 21.29801873 162.57489882 21.30169542 161.82366687 21.30548352 C159.36784507 21.31654195 156.91206554 21.32036783 154.45622253 21.32417297 C152.70051437 21.33043596 150.94480754 21.33708261 149.18910217 21.34408569 C144.4101163 21.36150988 139.63114043 21.37205115 134.85213065 21.38029122 C131.86806104 21.385438 128.88399455 21.39151385 125.89992714 21.39780235 C116.56832722 21.41685773 107.23673524 21.43108856 97.9051196 21.43941432 C87.12419041 21.44919133 76.34346628 21.47552151 65.56260937 21.51591522 C57.23559412 21.54604703 48.90863775 21.56088037 40.58156902 21.56419533 C35.60533962 21.56654903 30.62932922 21.57555097 25.65315819 21.60065651 C20.97212447 21.6238912 16.29145464 21.62818908 11.61037827 21.61789513 C9.89186584 21.61739854 8.17333578 21.62375497 6.45487785 21.63745117 C4.10911833 21.6551016 1.76467446 21.64809887 -0.58108521 21.63491821 C-2.55028663 21.63850074 -2.55028663 21.63850074 -4.55926991 21.64215565 C-8.52073713 21.06630479 -10.1583208 19.94456726 -12.96443176 17.14717102 C-14.70074813 13.67453829 -14.56633578 9.93524089 -13.96443176 6.14717102 C-9.57854562 0.60710431 -6.83515732 0.02239517 0 0 Z " fill="#B3B3B3" transform="translate(184.9644317626953,223.8528289794922)"/>
<path d="M0 0 C0.72913689 -0.00367669 1.45827379 -0.00735338 2.20950574 -0.01114148 C4.66532754 -0.02219991 7.12110707 -0.02602579 9.57695007 -0.02983093 C11.33265824 -0.03609392 13.08836507 -0.04274057 14.84407043 -0.04974365 C19.62305631 -0.06716783 24.40203217 -0.07770911 29.18104196 -0.08594918 C32.16511157 -0.09109596 35.14917806 -0.09717181 38.13324547 -0.10346031 C47.46484539 -0.12251569 56.79643737 -0.13674652 66.12805301 -0.14507228 C76.9089822 -0.15484929 87.68970632 -0.18117947 98.47056323 -0.22157317 C106.79757849 -0.25170499 115.12453486 -0.26653833 123.45160359 -0.26985329 C128.42783298 -0.27220699 133.40384338 -0.28120893 138.38001442 -0.30631447 C143.06104814 -0.32954916 147.74171797 -0.33384704 152.42279434 -0.32355309 C154.14130677 -0.3230565 155.85983683 -0.32941293 157.57829475 -0.34310913 C159.92405428 -0.36075956 162.26849815 -0.35375683 164.61425781 -0.34057617 C165.92705876 -0.34296453 167.23985971 -0.34535288 168.59244251 -0.34781361 C173.20097728 0.32209695 175.59945073 2.30415031 178.37260437 5.95967102 C179.34599507 9.36653846 178.89420538 11.74008717 177.99760437 15.14717102 C175.42099746 18.26622149 173.84319397 19.86530782 169.99760437 21.14717102 C167.66530627 21.25021978 165.33012659 21.29096586 162.99557495 21.30107117 C161.92002231 21.30764455 161.92002231 21.30764455 160.82274133 21.31435072 C158.41382258 21.32773306 156.00494041 21.33391626 153.59599304 21.34004211 C151.87131586 21.34794343 150.14664034 21.3562124 148.42196655 21.36482239 C142.75318479 21.39103566 137.08439566 21.40634777 131.41557312 21.42060852 C129.46457222 21.42596819 127.51357137 21.4313457 125.56257057 21.43674088 C117.44819752 21.45836718 109.33382645 21.47710474 101.21943188 21.48836327 C89.58702418 21.5046089 77.95495016 21.53780445 66.32266825 21.59476411 C58.1450869 21.63344374 49.96759488 21.65299352 41.78992444 21.65828383 C36.90472178 21.66193955 32.01987507 21.6739845 27.13477135 21.70638657 C22.53902411 21.73643297 17.94384884 21.74279136 13.34802437 21.73100281 C11.6621729 21.7307818 9.97629514 21.73910979 8.29053497 21.75665665 C5.98652946 21.77933173 3.68460112 21.7710636 1.38058472 21.75517273 C0.09212741 21.75848288 -1.1963299 21.76179302 -2.52383137 21.76520348 C-7.10977899 20.95042351 -8.72806131 19.40380116 -12.00239563 16.14717102 C-13.6032619 12.94543848 -13.50156652 9.62140043 -13.00239563 6.14717102 C-9.24784554 0.26504254 -6.73414383 0.02194015 0 0 Z " fill="#B3B3B3" transform="translate(184.0023956298828,330.8528289794922)"/>
<path d="M0 0 C0.72913689 -0.00367669 1.45827379 -0.00735338 2.20950574 -0.01114148 C4.66532754 -0.02219991 7.12110707 -0.02602579 9.57695007 -0.02983093 C11.33265824 -0.03609392 13.08836507 -0.04274057 14.84407043 -0.04974365 C19.62305631 -0.06716783 24.40203217 -0.07770911 29.18104196 -0.08594918 C32.16511157 -0.09109596 35.14917806 -0.09717181 38.13324547 -0.10346031 C47.46484539 -0.12251569 56.79643737 -0.13674652 66.12805301 -0.14507228 C76.9089822 -0.15484929 87.68970632 -0.18117947 98.47056323 -0.22157317 C106.79757849 -0.25170499 115.12453486 -0.26653833 123.45160359 -0.26985329 C128.42783298 -0.27220699 133.40384338 -0.28120893 138.38001442 -0.30631447 C143.06104814 -0.32954916 147.74171797 -0.33384704 152.42279434 -0.32355309 C154.14130677 -0.3230565 155.85983683 -0.32941293 157.57829475 -0.34310913 C159.92405428 -0.36075956 162.26849815 -0.35375683 164.61425781 -0.34057617 C165.92705876 -0.34296453 167.23985971 -0.34535288 168.59244251 -0.34781361 C173.20097728 0.32209695 175.59945073 2.30415031 178.37260437 5.95967102 C179.34599507 9.36653846 178.89420538 11.74008717 177.99760437 15.14717102 C175.42099746 18.26622149 173.84319397 19.86530782 169.99760437 21.14717102 C167.66530627 21.25021978 165.33012659 21.29096586 162.99557495 21.30107117 C161.92002231 21.30764455 161.92002231 21.30764455 160.82274133 21.31435072 C158.41382258 21.32773306 156.00494041 21.33391626 153.59599304 21.34004211 C151.87131586 21.34794343 150.14664034 21.3562124 148.42196655 21.36482239 C142.75318479 21.39103566 137.08439566 21.40634777 131.41557312 21.42060852 C129.46457222 21.42596819 127.51357137 21.4313457 125.56257057 21.43674088 C117.44819752 21.45836718 109.33382645 21.47710474 101.21943188 21.48836327 C89.58702418 21.5046089 77.95495016 21.53780445 66.32266825 21.59476411 C58.1450869 21.63344374 49.96759488 21.65299352 41.78992444 21.65828383 C36.90472178 21.66193955 32.01987507 21.6739845 27.13477135 21.70638657 C22.53902411 21.73643297 17.94384884 21.74279136 13.34802437 21.73100281 C11.6621729 21.7307818 9.97629514 21.73910979 8.29053497 21.75665665 C5.98652946 21.77933173 3.68460112 21.7710636 1.38058472 21.75517273 C0.09212741 21.75848288 -1.1963299 21.76179302 -2.52383137 21.76520348 C-7.10977899 20.95042351 -8.72806131 19.40380116 -12.00239563 16.14717102 C-13.6032619 12.94543848 -13.50156652 9.62140043 -13.00239563 6.14717102 C-9.24784554 0.26504254 -6.73414383 0.02194015 0 0 Z " fill="#B3B3B3" transform="translate(184.0023956298828,170.8528289794922)"/>
</svg>
