<?xml version="1.0" encoding="UTF-8"?>
<svg version="1.1" xmlns="http://www.w3.org/2000/svg" width="512" height="512">
<path d="M0 0 C2.41592121 2.02722454 2.41592121 2.02722454 5.15730286 4.74943542 C5.91690316 5.49778238 5.91690316 5.49778238 6.69184893 6.26124746 C8.38877519 7.93682168 10.07478365 9.62296576 11.76098633 11.30932617 C12.97441477 12.51214266 14.18844961 13.71434767 15.40304565 14.91598511 C18.70142748 18.18356393 21.98991374 21.46092935 25.27578568 24.74108291 C27.32790061 26.78884686 29.38201199 28.83458599 31.43683434 30.87963295 C38.60181859 38.01086705 45.75845258 45.15036878 52.90795898 52.29711914 C59.57862078 58.96474344 66.26777219 65.61341551 72.96566373 72.25367564 C78.7114383 77.9517401 84.44371807 83.66314623 90.16571635 89.38508588 C93.5852745 92.80410492 97.01018047 96.21732292 100.44889259 99.61708641 C103.68109844 102.81354512 106.89624027 106.02622004 110.09890366 109.25226974 C111.27843349 110.43466989 112.46399528 111.61108711 113.65586281 112.78104973 C115.27976836 114.37693986 116.88070949 115.99280545 118.47761536 117.61564636 C119.38038617 118.51586108 120.28315699 119.4160758 121.21328449 120.34356976 C123 123 123 123 122.82683563 126.19703197 C122.10946267 128.62892217 121.38612762 130.99471064 120.4597168 133.35400391 C120.14318649 134.16871658 119.82665619 134.98342926 119.50053406 135.8228302 C119.15360001 136.69856186 118.80666595 137.57429352 118.44921875 138.4765625 C117.90023674 139.88339546 117.90023674 139.88339546 117.34016418 141.31864929 C116.12774441 144.4228018 114.90750742 147.52382271 113.6875 150.625 C112.39538371 153.92846633 111.10542245 157.23276901 109.81558228 160.53712463 C108.91776773 162.83688556 108.01929882 165.13639113 107.12020874 167.43565369 C102.62693605 178.93226413 98.19990536 190.45397945 93.77941895 201.97872925 C91.29652119 208.4483942 88.80598897 214.91512283 86.31600952 221.38206482 C84.57572683 225.90255186 82.83676778 230.42351638 81.10498047 234.94726562 C79.55764505 238.98899146 77.99874599 243.0261277 76.4375 247.0625 C76.0146875 248.17343018 75.591875 249.28436035 75.15625 250.42895508 C74.77339844 251.41275146 74.39054687 252.39654785 73.99609375 253.41015625 C73.67825928 254.23652588 73.3604248 255.06289551 73.03295898 255.91430664 C71.47628047 259.05746537 69.88686069 260.61273865 66.65075684 262.02583313 C65.72122192 262.33224228 64.79168701 262.63865143 63.83398438 262.9543457 C62.23806709 263.48768524 62.23806709 263.48768524 60.60990906 264.03179932 C59.44957657 264.40931335 58.28924408 264.78682739 57.09375 265.17578125 C55.88366776 265.57722351 54.67358551 265.97866577 53.42683411 266.39227295 C50.1391026 267.48264896 46.84777231 268.56175636 43.55563736 269.63875198 C40.10551401 270.76955152 36.65882883 271.91074006 33.21166992 273.05053711 C16.2443505 278.65516519 -0.74455034 284.19452822 -17.74414062 289.70043945 C-32.69185812 294.54669556 -47.59686973 299.5185595 -62.5 304.5 C-79.91974998 310.32263232 -97.35256015 316.09709237 -114.82769775 321.75131226 C-126.22830651 325.44200755 -137.60805624 329.192105 -148.97265625 332.9921875 C-149.95427325 333.3202687 -149.95427325 333.3202687 -150.9557209 333.6549778 C-158.07439951 336.03431228 -165.19136992 338.41861141 -172.3059082 340.81030273 C-189.13192012 346.45312317 -206.02916012 351.81260184 -223 357 C-221.69067481 354.11516642 -220.28865101 352.03349852 -218.06441498 349.78479958 C-217.15852607 348.86183694 -217.15852607 348.86183694 -216.23433638 347.9202286 C-215.56995825 347.25349072 -214.90558013 346.58675285 -214.22106934 345.89981079 C-213.16328238 344.82676038 -213.16328238 344.82676038 -212.084126 343.73203218 C-209.7139104 341.33036169 -207.33652037 338.93592622 -204.95898438 336.54150391 C-203.26030398 334.82374769 -201.56197874 333.10564018 -199.86398315 331.38720703 C-194.7637172 326.22959573 -189.65455809 321.08086018 -184.54250216 315.93494135 C-183.09866448 314.48150963 -181.65501355 313.02789264 -180.2114048 311.57423353 C-171.24494511 302.54584766 -162.27419767 293.52173656 -153.29351044 284.5075016 C-151.21482035 282.4209127 -149.13618399 280.3342703 -147.05761719 278.24755859 C-146.54100432 277.72892901 -146.02439146 277.21029942 -145.49212366 276.67595379 C-137.11833737 268.26813129 -128.76895237 259.83649615 -120.42911595 251.39501138 C-111.86554396 242.72792747 -103.27950278 234.08361581 -94.67127848 225.46087587 C-89.83880938 220.61907907 -85.01692595 215.76766215 -80.22026062 210.89036942 C-75.70999945 206.30438642 -71.16992229 201.74941392 -66.60834122 197.21446228 C-64.93781749 195.54383034 -63.27756463 193.86285617 -61.62845993 192.17107773 C-59.37726812 189.86477601 -57.09223822 187.59838576 -54.7947998 185.33828735 C-54.14826746 184.65816515 -53.50173511 183.97804294 -52.83561087 183.27731097 C-48.35287569 178.97484994 -48.35287569 178.97484994 -44.43269444 179.04772639 C-41.8896034 179.55512468 -39.48002614 180.24983023 -37 181 C-29.20821987 182.00171708 -21.89897323 179.42379319 -15.625 174.75 C-9.60745426 168.44590446 -7.67631338 161.4053144 -7.7890625 152.84765625 C-8.33525109 145.47411024 -11.58772383 139.95915538 -17 135 C-23.90998065 130.06429953 -30.68125443 129.17825653 -39 130 C-46.37620219 132.18680034 -51.88483548 135.790865 -55.75 142.5 C-58.97206319 148.45469907 -60.25510535 154.69972091 -58.31774342 161.33756769 C-57.95538714 162.54690625 -57.95538714 162.54690625 -57.58571053 163.78067589 C-56.99049713 166.72515443 -56.68580728 168.32792231 -57.96851325 171.07170987 C-59.66591724 173.18225089 -61.4767126 175.01918941 -63.44113159 176.88418579 C-64.15812796 177.61143525 -64.87512432 178.33868472 -65.61384785 179.08797204 C-68.02468267 181.5185804 -70.47591365 183.90380608 -72.92919922 186.29150391 C-74.66544909 188.02436904 -76.39906112 189.75988063 -78.13021851 191.49783325 C-81.86363731 195.23398498 -85.61466432 198.95097525 -89.38302231 202.65178299 C-94.83123372 208.00239479 -100.2459338 213.38591 -105.65307774 218.77798252 C-114.42688983 227.52554234 -123.22715393 236.24597908 -132.04443359 244.94970703 C-140.60862024 253.40371544 -149.16008956 261.87025878 -157.69482422 270.35400391 C-158.22106089 270.87708789 -158.74729756 271.40017188 -159.28948079 271.9391069 C-161.92942455 274.56339 -164.56912084 277.18792185 -167.20869422 279.81257749 C-189.10090897 301.58042679 -211.03663348 323.30393241 -233 345 C-233.66 344.67 -234.32 344.34 -235 344 C-219.51879336 296.94390584 -204.00960967 249.89711049 -188.47344971 202.85913086 C-186.2556466 196.14439845 -184.03792354 189.4296396 -181.8203125 182.71484375 C-181.45535297 181.60976849 -181.09039345 180.50469322 -180.71437454 179.36613083 C-171.52207515 151.53133464 -162.34503198 123.69150927 -153.17118454 95.85062695 C-151.96911391 92.20265226 -150.76690621 88.55472275 -149.56468582 84.90679741 C-148.50290241 81.68469438 -147.44125581 78.46254656 -146.38069534 75.24004078 C-145.90393423 73.79533426 -145.42502909 72.35133309 -144.94373703 70.90812969 C-143.89217081 67.75034815 -142.88003251 64.59532391 -141.93380737 61.40350342 C-139.60876918 53.71338833 -139.60876918 53.71338833 -136.86621094 50.49951172 C-132.73299101 48.33714061 -128.50881873 46.63642861 -124.140625 45.0078125 C-123.1479512 44.62916046 -122.1552774 44.25050842 -121.13252258 43.86038208 C-117.84143116 42.60696948 -114.54573378 41.36614869 -111.25 40.125 C-108.93833634 39.24677929 -106.62706357 38.36752906 -104.31616211 37.48730469 C-100.05098671 35.86303825 -95.78500048 34.2409536 -91.51788616 32.62178802 C-83.20536659 29.46629452 -74.90665631 26.27574965 -66.61328125 23.0703125 C-65.98099232 22.82595081 -65.34870338 22.58158913 -64.69725418 22.32982254 C-61.54606472 21.11179707 -58.39508971 19.8932181 -55.2442627 18.67425537 C-51.65625235 17.28626722 -48.06797589 15.89897089 -44.47949219 14.51220703 C-43.34677887 14.07445953 -42.21406555 13.63671204 -41.04702759 13.18569946 C-37.77351527 11.9223143 -34.49836452 10.66324696 -31.22314453 9.40429688 C-27.07897703 7.80950968 -22.94620011 6.18907139 -18.81982422 4.54882812 C-17.85084702 4.16805115 -16.88186981 3.78727417 -15.88352966 3.3949585 C-14.07390992 2.6836711 -12.26754925 1.96401226 -10.46522522 1.23443604 C-9.66837814 0.92342957 -8.87153107 0.6124231 -8.05053711 0.29199219 C-7.36076279 0.01683777 -6.67098846 -0.25831665 -5.96031189 -0.54180908 C-3.46291522 -1.1255348 -2.41552534 -0.90642283 0 0 Z " fill="#9772FF" transform="translate(266,124)"/>
<path d="M0 0 C1.15822266 0.07541016 1.15822266 0.07541016 2.33984375 0.15234375 C11.41525513 3.18616133 18.25697975 11.9722886 24.84692383 18.58813477 C26.01522285 19.7537195 27.18394598 20.91887926 28.35305786 22.08364868 C31.50818429 25.2297039 34.65700773 28.38199617 37.8044188 31.53576779 C41.10584185 34.84227459 44.41216479 38.14387608 47.71769714 41.4462738 C53.2632343 46.98817976 58.80455749 52.53427299 64.34350586 58.08276367 C70.74388954 64.49404637 77.15146792 70.89807078 83.56279927 77.29840428 C89.07577923 82.80230647 94.58484998 88.31009875 100.09067553 93.82115787 C103.3755584 97.10915567 106.66177035 100.39579449 109.95151711 103.67892647 C113.04146562 106.76309451 116.12647444 109.85212019 119.20775223 112.9449501 C120.33838404 114.07822403 121.47071684 115.20980387 122.60487556 116.33954811 C124.15388366 117.88308213 125.69658598 119.43265979 127.23786926 120.98390198 C128.10226026 121.84904702 128.96665125 122.71419207 129.85723591 123.60555363 C133.0818411 127.19817641 135.35356102 130.53538452 135.9375 135.375 C136.03804687 136.07238281 136.13859375 136.76976562 136.2421875 137.48828125 C135.74351383 144.63232366 132.43167956 149.43499614 127.50878906 154.24731445 C126.67643738 155.09039909 126.67643738 155.09039909 125.82727051 155.95051575 C124.0063795 157.78818945 122.16810005 159.60723136 120.328125 161.42578125 C119.0480039 162.70673194 117.76869943 163.98849919 116.49017334 165.27104187 C113.8148174 167.94924863 111.13093304 170.61850695 108.44042969 173.28149414 C105.00093019 176.68689586 101.58187764 180.11199478 98.16876602 183.54382038 C95.53213352 186.19104562 92.88580058 188.82839743 90.23638153 191.46282005 C88.97217668 192.72186055 87.71076641 193.98371382 86.45227814 195.2484684 C84.68904228 197.0171844 82.9133474 198.7723852 81.13378906 200.5246582 C80.62132629 201.04364685 80.10886353 201.5626355 79.58087158 202.09735107 C75.28335801 206.284014 70.20767164 209.51657862 64 209.4375 C57.22650357 208.7924051 53.32739723 205.70250692 48.60894775 200.98989868 C48.09478829 200.48041919 47.58062883 199.9709397 47.05088878 199.44602144 C45.3395701 197.74661495 43.63911221 196.03675227 41.93847656 194.32666016 C40.70994534 193.10219625 39.4807773 191.87837099 38.25102234 190.65513611 C34.91992735 187.33769992 31.59837054 184.01086545 28.27886295 180.68183947 C24.80227838 177.19765265 21.31837229 173.72079923 17.83563232 170.24276733 C11.9896677 164.40225787 6.150051 158.55545741 0.31396484 152.70507812 C-6.43329855 145.9414811 -13.1913118 139.1887697 -19.95499587 132.44159663 C-25.76360396 126.64660106 -31.56634704 120.84578134 -37.36422563 115.04005086 C-40.8263688 111.5732309 -44.29050638 108.10846917 -47.7599411 104.64894485 C-51.02039379 101.39715633 -54.2734235 98.13812 -57.52086449 94.8733387 C-58.71393049 93.67630528 -59.90955805 92.48181867 -61.10791206 91.29007912 C-62.74293929 89.6632469 -64.36844966 88.02745958 -65.99188232 86.3890686 C-67.36011705 85.01913726 -67.36011705 85.01913726 -68.75599289 83.62153053 C-71.94081853 79.88555093 -73.2238978 76.50611124 -73.25 71.625 C-73.26675781 70.90441406 -73.28351563 70.18382813 -73.30078125 69.44140625 C-72.37518242 63.38022684 -68.58852148 59.27310745 -64.38378906 55.10473633 C-63.82888794 54.54297195 -63.27398682 53.98120758 -62.70227051 53.40242004 C-60.8768046 51.55874296 -59.04056173 49.72627274 -57.203125 47.89453125 C-55.92344187 46.61028374 -54.64413033 45.32566586 -53.36517334 44.04069519 C-50.68693227 41.35353423 -48.00310602 38.67210741 -45.31542969 35.99438477 C-41.87938018 32.56982536 -38.45944262 29.12966868 -35.04376602 25.68480396 C-32.40675299 23.02940687 -29.76044987 20.38342271 -27.11138153 17.74005699 C-25.84688502 16.47571341 -24.58547118 15.20827867 -23.32727814 13.93766212 C-21.56391227 12.15934647 -19.7881702 10.39435179 -18.00878906 8.63208008 C-17.49632629 8.10994934 -16.98386353 7.5878186 -16.45587158 7.04986572 C-11.83811281 2.52416234 -6.66988861 -0.63258511 0 0 Z " fill="#9773FF" transform="translate(344.9375,30.9375)"/>
</svg>
