<?xml version="1.0" standalone="no"?>
<!DOCTYPE svg PUBLIC "-//W3C//DTD SVG 20010904//EN"
 "http://www.w3.org/TR/2001/REC-SVG-20010904/DTD/svg10.dtd">
<svg version="1.0" xmlns="http://www.w3.org/2000/svg"
 width="512.000000pt" height="512.000000pt" viewBox="0 0 512.000000 512.000000"
 preserveAspectRatio="xMidYMid meet">

<g transform="translate(0.000000,512.000000) scale(0.100000,-0.100000)"
fill="#000000" stroke="none">
<path d="M3769 4257 c-19 -7 -44 -20 -55 -28 -10 -8 -171 -167 -356 -354 -223
-225 -342 -353 -353 -377 -20 -50 -19 -124 4 -174 32 -69 115 -124 191 -124
74 0 101 19 267 183 l163 161 0 -631 0 -630 23 -44 c15 -29 40 -54 71 -74 41
-25 58 -29 116 -29 58 0 75 4 116 29 31 20 56 45 71 74 l23 44 0 631 0 631
158 -157 c164 -164 199 -188 272 -188 154 0 260 175 188 308 -26 48 -688 716
-732 739 -40 21 -124 26 -167 10z"/>
<path d="M770 3827 c-132 -42 -173 -237 -73 -348 64 -71 51 -70 819 -67 672 3
679 3 719 24 89 48 127 138 104 245 -14 66 -73 131 -134 148 -55 15 -1386 13
-1435 -2z"/>
<path d="M755 2751 c-154 -69 -154 -313 0 -382 38 -18 92 -19 1061 -19 l1021
0 44 23 c29 15 54 40 74 71 25 41 29 58 29 116 0 58 -4 75 -29 116 -20 31 -45
56 -74 71 l-44 23 -1021 0 c-969 0 -1023 -1 -1061 -19z"/>
<path d="M779 1694 c-105 -32 -166 -162 -127 -275 19 -57 49 -90 102 -115 l51
-24 1320 0 c936 0 1332 3 1360 11 61 17 120 82 134 148 23 107 -15 197 -104
245 l-40 21 -1325 2 c-1127 2 -1332 0 -1371 -13z"/>
</g>
</svg>
