<?xml version="1.0" encoding="UTF-8"?>
<svg version="1.1" xmlns="http://www.w3.org/2000/svg" width="512" height="512">
<path d="M0 0 C11.07070797 5.24401957 21.79214139 10.3930207 32.4375 16.3203125 C35.44446923 17.94658883 38.46212618 19.5528277 41.48054504 21.15773201 C44.57049665 22.80552654 47.64082123 24.4786018 50.68457031 26.21044922 C64.68870297 34.97704464 64.68870297 34.97704464 80.2487793 36.16552734 C84.40677832 34.47809451 88.02386444 32.12530276 91.68499756 29.55279541 C95.70257785 26.85799037 100.05999806 24.84139792 104.39453125 22.7109375 C106.13001623 21.82767038 107.86374906 20.94095202 109.59570312 20.05078125 C110.45301025 19.6120166 111.31031738 19.17325195 112.19360352 18.72119141 C113.96523055 17.81052193 115.73437894 16.8950169 117.5012207 15.97509766 C120.10420592 14.62227557 122.71684691 13.28998812 125.33203125 11.9609375 C126.50860039 11.33933243 126.50860039 11.33933243 127.7089386 10.70516968 C128.44798935 10.33372833 129.1870401 9.96228699 129.94848633 9.57958984 C130.58845047 9.24921722 131.22841461 8.9188446 131.88777161 8.57846069 C136.94093971 7.19458614 141.17932433 9.37324102 145.52026367 11.82666016 C147.10933784 12.71099228 147.10933784 12.71099228 148.73051453 13.6131897 C149.86487442 14.24872772 150.99923431 14.88426575 152.16796875 15.5390625 C154.60864508 16.86275271 157.05736772 18.17130261 159.50585938 19.48046875 C163.35093441 21.53754181 167.18188032 23.61128174 170.97045898 25.77099609 C185.35604225 34.78769308 185.35604225 34.78769308 201.30371094 36.20068359 C205.4580233 34.5172295 209.05344786 32.15155617 212.69485474 29.56085205 C216.70968025 26.84234717 221.08177896 24.83720732 225.4296875 22.7109375 C227.16983127 21.82787947 228.90812289 20.94116198 230.64453125 20.05078125 C231.50385254 19.6120166 232.36317383 19.17325195 233.24853516 18.72119141 C235.02663385 17.80982905 236.80262231 16.89433975 238.57666016 15.97509766 C241.18799298 14.62421233 243.80777752 13.2911501 246.4296875 11.9609375 C247.61399857 11.33933243 247.61399857 11.33933243 248.82223511 10.70516968 C249.56136139 10.33372833 250.30048767 9.96228699 251.06201172 9.57958984 C251.70419647 9.24921722 252.34638123 8.9188446 253.00802612 8.57846069 C256.61740226 7.5303133 259.30073897 8.66540519 262.59939575 10.24380493 C263.52581879 10.76614716 264.45224182 11.28848938 265.40673828 11.82666016 C266.99592575 12.71099228 266.99592575 12.71099228 268.61721802 13.6131897 C269.7567392 14.24872772 270.89626038 14.88426575 272.0703125 15.5390625 C275.14978413 17.20660248 278.24079361 18.85258919 281.33070564 20.50068092 C284.54702451 22.22182521 287.7449525 23.96679389 290.91552734 25.77099609 C305.19958689 34.71068686 305.19958689 34.71068686 321.01806641 36.33911133 C325.14581419 34.6838398 328.70198819 32.2612622 332.33917236 29.72949219 C337.04777444 26.66898184 342.14759275 24.34613421 347.19645309 21.90731812 C350.32208566 20.38737882 353.42376232 18.82019887 356.52734375 17.25585938 C357.78623377 16.62316802 359.04518592 15.99060028 360.30419922 15.3581543 C361.57780954 14.71795622 362.85140971 14.07773794 364.125 13.4375 C368.58990816 11.19319342 373.05550664 8.95028021 377.5227623 6.71064949 C379.29465435 5.82146965 381.06532078 4.92984884 382.83596802 4.03819275 C384.42560867 3.240895 384.42560867 3.240895 386.04736328 2.42749023 C386.98266876 1.95721909 387.91797424 1.48694794 388.88162231 1.00242615 C391 0 391 0 392 0 C392.09363161 24.25305619 392.16407128 48.50608511 392.20724869 72.75928593 C392.22783367 84.02163311 392.25587629 95.28386769 392.30175781 106.54614258 C392.3417503 116.3675882 392.36746232 126.18895222 392.37635398 136.01047701 C392.38154776 141.20615937 392.39366963 146.40160841 392.42292023 151.59721565 C392.45028581 156.49820088 392.45840271 161.39885902 392.45243073 166.29991341 C392.45352158 168.08840723 392.4613485 169.87691321 392.4768219 171.66534042 C392.65045103 192.78868331 387.47540064 210.95057522 373 227 C372.40832031 227.68449219 371.81664062 228.36898437 371.20703125 229.07421875 C359.83142674 241.42002407 342.3587963 250.27027538 325.563025 251.18774486 C321.31404913 251.26385903 317.06909819 251.27657471 312.81964111 251.26742554 C311.17121636 251.27116547 309.52279339 251.27576836 307.8743732 251.28115618 C303.35915533 251.29335909 298.84401171 251.29312892 294.32878113 251.29076743 C289.45337794 251.29035858 284.57799834 251.3014049 279.7026062 251.31088257 C270.15630324 251.3274785 260.61002499 251.33299147 251.06370881 251.33410732 C243.30230326 251.33505843 235.54090585 251.33917186 227.77950287 251.34550858 C205.76351433 251.36311688 183.74754528 251.37234805 161.73154965 251.37084763 C159.95210835 251.37072776 159.95210835 251.37072776 158.13671875 251.37060547 C156.94897239 251.37052371 155.76122603 251.37044195 154.53748736 251.37035771 C135.28949246 251.36954485 116.04157583 251.38868362 96.79360357 251.4168822 C77.01916329 251.44562297 57.24476117 251.45942185 37.47029948 251.45769465 C26.37275687 251.45703118 15.2752963 251.46250477 4.17777252 251.48405075 C-5.27086053 251.50227817 -14.71937432 251.50659699 -24.16801736 251.4930319 C-28.98585786 251.48651028 -33.80346967 251.48635599 -38.6212883 251.5037384 C-43.03809182 251.51950966 -47.45448608 251.5165643 -51.87127987 251.49917014 C-53.46275432 251.49610916 -55.05425964 251.49969838 -56.64569768 251.51089029 C-75.37256783 251.63378829 -90.75667459 246.16217392 -104.265625 232.93359375 C-115.20043216 221.61900133 -120.34724754 207.20844512 -120.22705078 191.72851562 C-120.22729185 190.71650841 -120.22753292 189.70450119 -120.2277813 188.66182709 C-120.22629729 185.40987632 -120.21110644 182.15815936 -120.1953125 178.90625 C-120.19236924 176.88899852 -120.19033054 174.87174551 -120.18920898 172.85449219 C-120.17875448 165.40297139 -120.15083193 157.95148336 -120.125 150.5 C-120.08375 133.835 -120.0425 117.17 -120 100 C-80.4 100 -40.8 100 0 100 C0 67 0 34 0 0 Z " fill="#E7F0F8" transform="translate(120,261)"/>
<path d="M0 0 C1.64842475 -0.00373993 3.29684773 -0.00834282 4.94526792 -0.01373065 C9.46048578 -0.02593355 13.9756294 -0.02570338 18.49085999 -0.02334189 C23.36626317 -0.02293304 28.24164277 -0.03397936 33.11703491 -0.04345703 C42.66333787 -0.06005297 52.20961612 -0.06556594 61.7559323 -0.06668179 C69.51733785 -0.06763289 77.27873527 -0.07174632 85.04013824 -0.07808304 C107.05612678 -0.09569134 129.07209584 -0.10492251 151.08809146 -0.10342209 C152.27438566 -0.10334218 153.46067986 -0.10326227 154.68292236 -0.10317993 C155.87066872 -0.10309817 157.05841508 -0.10301641 158.28215376 -0.10293217 C177.53014865 -0.10211931 196.77806528 -0.12125809 216.02603754 -0.14945666 C235.80047782 -0.17819743 255.57487994 -0.19199631 275.34934163 -0.19026911 C286.44688425 -0.18960564 297.54434481 -0.19507924 308.64186859 -0.21662521 C318.09050164 -0.23485264 327.53901543 -0.23917145 336.98765847 -0.22560637 C341.80549897 -0.21908474 346.62311079 -0.21893045 351.44092941 -0.23631287 C355.85773293 -0.25208413 360.27412719 -0.24913876 364.69092098 -0.2317446 C366.28239544 -0.22868362 367.87390075 -0.23227284 369.4653388 -0.24346475 C387.3193002 -0.36063415 402.40946893 4.44264155 415.53839111 16.92758179 C427.18270037 28.87097433 433.17588244 42.90068597 433.04669189 59.53890991 C433.0470535 61.05692074 433.0470535 61.05692074 433.04742241 62.60559845 C433.0459384 65.85754922 433.03074756 69.10926617 433.01495361 72.36117554 C433.01201035 74.37842702 433.00997165 76.39568003 433.0088501 78.41293335 C432.99839559 85.86445415 432.97047304 93.31594218 432.94464111 100.76742554 C432.90339111 117.43242554 432.86214111 134.09742554 432.81964111 151.26742554 C393.21964111 151.26742554 353.61964111 151.26742554 312.81964111 151.26742554 C312.81964111 169.41742554 312.81964111 187.56742554 312.81964111 206.26742554 C294.59241554 215.54147356 294.59241554 215.54147356 286.80792236 219.46859741 C281.49671151 222.14811189 276.18742567 224.83103574 270.88848877 227.53475952 C266.61611817 229.71441424 262.33611382 231.87832889 258.05037308 234.03156853 C256.4168926 234.85569812 254.78623857 235.68545481 253.15851974 236.52090645 C250.8775018 237.69046364 248.58723984 238.83958154 246.29376221 239.98446655 C245.62337921 240.33403915 244.95299622 240.68361176 244.26229858 241.04377747 C239.99987177 243.13784109 237.3756667 243.64117718 232.81964111 242.26742554 C230.08843994 241.11541748 230.08843994 241.11541748 227.27667236 239.65951538 C226.21537109 239.11580292 225.15406982 238.57209045 224.06060791 238.01190186 C222.92921387 237.42333405 221.79781982 236.83476624 220.63214111 236.22836304 C219.4449936 235.62088261 218.25723853 235.01458816 217.06890869 234.40942383 C212.04195202 231.84724602 207.02439505 229.26706361 202.01397705 226.67269897 C199.53715696 225.3910397 197.05622 224.11806608 194.57037354 222.85400391 C192.23286401 221.66456871 189.90198607 220.46199057 187.57867432 219.24505615 C186.51737305 218.70764801 185.45607178 218.17023987 184.36260986 217.61654663 C183.43472656 217.13769012 182.50684326 216.65883362 181.55084229 216.16546631 C177.24407672 214.74936737 174.18040292 215.69346248 170.08843994 217.41943359 C169.16055664 217.89988129 168.23267334 218.38032898 167.27667236 218.87533569 C166.21537109 219.41904816 165.15406982 219.96276062 164.06060791 220.52294922 C162.92921387 221.11151703 161.79781982 221.70008484 160.63214111 222.30648804 C159.4449936 222.91396847 158.25723853 223.52026291 157.06890869 224.12542725 C152.04195202 226.68760505 147.02439505 229.26778746 142.01397705 231.8621521 C139.53715696 233.14381137 137.05622 234.41678499 134.57037354 235.68084717 C132.23286401 236.87028236 129.90198607 238.07286051 127.57867432 239.28979492 C126.51737305 239.82720306 125.45607178 240.36461121 124.36260986 240.91830444 C122.97078491 241.6365892 122.97078491 241.6365892 121.55084229 242.36938477 C117.21498467 243.7950494 114.17151701 242.8856925 110.09999084 241.02362061 C109.17578842 240.50127838 108.251586 239.97893616 107.29937744 239.44076538 C105.71030327 238.55643326 105.71030327 238.55643326 104.08912659 237.65423584 C102.95476669 237.01869781 101.8204068 236.38315979 100.65167236 235.72836304 C98.21099603 234.40467283 95.7622734 233.09612293 93.31378174 231.78695679 C89.4687067 229.72988373 85.63776079 227.65614379 81.84918213 225.49642944 C67.46273973 216.47959685 67.46273973 216.47959685 51.51373291 215.06674194 C47.35867863 216.74982198 43.76278047 219.11464438 40.12155151 221.70657349 C36.11803598 224.42122973 31.7598179 226.42917564 27.42510986 228.55648804 C25.68956482 229.43963713 23.9558313 230.3263553 22.22393799 231.21664429 C21.36663086 231.65540894 20.50932373 232.09417358 19.6260376 232.54623413 C17.85441057 233.45690361 16.08526217 234.37240863 14.31842041 235.29232788 C11.71543519 236.64514997 9.1027942 237.97743742 6.48760986 239.30648804 C5.31104073 239.92809311 5.31104073 239.92809311 4.11070251 240.56225586 C3.37165176 240.9336972 2.63260101 241.30513855 1.87115479 241.68783569 C1.23119064 242.01820831 0.5912265 242.34858093 -0.06813049 242.68896484 C-5.55831664 244.19252236 -10.47289264 241.40482043 -15.27142334 238.95687866 C-16.29445305 238.44700661 -16.29445305 238.44700661 -17.33815002 237.92683411 C-19.57724245 236.80843781 -21.81042588 235.67875745 -24.04364014 234.54867554 C-25.6017648 233.76715028 -27.16021606 232.98627584 -28.71897888 232.20602417 C-31.97686385 230.573269 -35.23209862 228.93538999 -38.48529053 227.29330444 C-42.66291314 225.18464053 -46.84484576 223.08471106 -51.02850056 220.98804474 C-55.01413645 218.99025148 -58.9977721 216.98848587 -62.98114014 214.98617554 C-63.74448481 214.60280533 -64.50782948 214.21943512 -65.2943058 213.82444763 C-67.44273375 212.74446978 -69.58973554 211.66171358 -71.73626709 210.57797241 C-72.37779724 210.25586288 -73.01932739 209.93375336 -73.68029785 209.60188293 C-78.06544593 207.38233849 -78.06544593 207.38233849 -79.18035889 206.26742554 C-79.28553895 204.45376016 -79.32002249 202.63597207 -79.32752991 200.8192749 C-79.33468521 199.63635361 -79.34184052 198.45343231 -79.34921265 197.23466492 C-79.35190155 195.92467026 -79.35459045 194.6146756 -79.35736084 193.26498413 C-79.36362335 191.88032357 -79.37026996 190.4956647 -79.37727356 189.11100769 C-79.39836928 184.54597149 -79.40869176 179.98093479 -79.41864014 175.41586304 C-79.42268783 173.84210823 -79.42680476 172.2683536 -79.43099022 170.69459915 C-79.45006629 163.28941685 -79.46428339 155.88424458 -79.47260219 148.47904241 C-79.48233699 139.95476798 -79.50854711 131.43075583 -79.54910308 122.90657365 C-79.57940999 116.30764542 -79.5940854 109.70879162 -79.5973832 103.10979521 C-79.59972027 99.17502131 -79.60850091 95.24052676 -79.63384438 91.30582809 C-79.65738154 87.59080255 -79.66125736 83.87623499 -79.65108299 80.16115379 C-79.65036287 78.17325752 -79.66928005 76.18538318 -79.68914795 74.19758606 C-79.58180356 55.30053721 -72.86138881 38.32736357 -60.18035889 24.26742554 C-59.5886792 23.58293335 -58.99699951 22.89844116 -58.38739014 22.19320679 C-42.9210874 5.4078164 -22.06165571 -0.04749921 0 0 Z " fill="#E6F0F8" transform="translate(79.18035888671875,-0.267425537109375)"/>
<path d="M0 0 C0.79581543 -0.00170885 1.59163086 -0.0034177 2.41156191 -0.00517833 C5.05087204 -0.00844566 7.68992207 0.00248449 10.32920837 0.01345825 C12.23198948 0.01402296 14.13477102 0.01370464 16.03755188 0.01257324 C21.18358754 0.01200107 26.32952935 0.02373345 31.47554326 0.03772116 C36.86071496 0.05025111 42.24588897 0.0514008 47.631073 0.05377197 C57.81996774 0.05998009 68.0088194 0.07638186 78.1976952 0.09647095 C89.80106284 0.11885076 101.40443257 0.12982862 113.00781643 0.13986182 C136.86880132 0.16074868 160.72972716 0.19741658 184.59068298 0.24050903 C184.59068298 20.04050903 184.59068298 39.84050903 184.59068298 60.24050903 C124.86068298 60.24050903 65.13068298 60.24050903 3.59068298 60.24050903 C3.59068298 70.47050903 3.59068298 80.70050903 3.59068298 91.24050903 C63.32068298 91.24050903 123.05068298 91.24050903 184.59068298 91.24050903 C184.59068298 100.81050903 184.59068298 110.38050903 184.59068298 120.24050903 C124.86068298 120.24050903 65.13068298 120.24050903 3.59068298 120.24050903 C3.59068298 130.47050903 3.59068298 140.70050903 3.59068298 151.24050903 C63.32068298 151.24050903 123.05068298 151.24050903 184.59068298 151.24050903 C184.92068298 172.03050903 185.25068298 192.82050903 185.59068298 214.24050903 C174.20568298 219.68550903 174.20568298 219.68550903 162.59068298 225.24050903 C151.85517096 230.69511171 151.85517096 230.69511171 141.16075134 236.22976685 C138.86210219 237.43038046 136.55387702 238.61046595 134.24302673 239.78738403 C133.55869064 240.15176575 132.87435455 240.51614746 132.16928101 240.89157104 C127.75712941 243.11073168 125.33439535 243.39944465 120.59068298 242.24050903 C117.87103271 240.9967041 117.87103271 240.9967041 115.07041931 239.41384888 C113.48134514 238.52951675 113.48134514 238.52951675 111.86016846 237.62731934 C110.72580856 236.99178131 109.59144867 236.35624329 108.42271423 235.70144653 C105.9820379 234.37775632 103.53331527 233.06920642 101.08482361 231.76004028 C97.23974857 229.70296722 93.40880266 227.62922729 89.620224 225.46951294 C75.2337816 216.45268035 75.2337816 216.45268035 59.28477478 215.03982544 C55.1297205 216.72290548 51.53382234 219.08772788 47.89259338 221.67965698 C43.88907785 224.39431322 39.53085977 226.40225913 35.19615173 228.52957153 C33.46060669 229.41272063 31.72687317 230.2994388 29.99497986 231.18972778 C29.13767273 231.62849243 28.2803656 232.06725708 27.39707947 232.51931763 C25.62545244 233.4299871 23.85630404 234.34549213 22.08946228 235.26541138 C19.48647706 236.61823346 16.87383607 237.95052091 14.25865173 239.27957153 C13.0820826 239.90117661 13.0820826 239.90117661 11.88174438 240.53533936 C11.14269363 240.9067807 10.40364288 241.27822205 9.64219666 241.66091919 C9.00223251 241.99129181 8.36226837 242.32166443 7.70291138 242.66204834 C2.21272523 244.16560586 -2.70185077 241.37790393 -7.50038147 238.92996216 C-8.52341118 238.4200901 -8.52341118 238.4200901 -9.56710815 237.8999176 C-11.80620058 236.78152131 -14.03938401 235.65184094 -16.27259827 234.52175903 C-17.83072293 233.74023378 -19.38917419 232.95935934 -20.94793701 232.17910767 C-24.20582198 230.5463525 -27.46105675 228.90847349 -30.71424866 227.26638794 C-34.89187127 225.15772402 -39.07380389 223.05779455 -43.25745869 220.96112823 C-47.24309458 218.96333498 -51.22673023 216.96156937 -55.21009827 214.95925903 C-55.97344294 214.57588882 -56.73678761 214.19251862 -57.52326393 213.79753113 C-59.67169188 212.71755327 -61.81869367 211.63479707 -63.96522522 210.55105591 C-64.60675537 210.22894638 -65.24828552 209.90683685 -65.90925598 209.57496643 C-70.29440406 207.35542199 -70.29440406 207.35542199 -71.40931702 206.24050903 C-71.51449708 204.42684365 -71.54898062 202.60905557 -71.55648804 200.7923584 C-71.56364334 199.6094371 -71.57079865 198.42651581 -71.57817078 197.20774841 C-71.58085968 195.89775375 -71.58354858 194.58775909 -71.58631897 193.23806763 C-71.59258148 191.85340707 -71.59922809 190.4687482 -71.60623169 189.08409119 C-71.62732741 184.51905498 -71.63764989 179.95401828 -71.64759827 175.38894653 C-71.65164596 173.81519173 -71.65576289 172.24143709 -71.65994835 170.66768265 C-71.67902442 163.26250035 -71.69324152 155.85732807 -71.70156032 148.45212591 C-71.71129512 139.92785147 -71.73750524 131.40383933 -71.77806121 122.87965715 C-71.80836812 116.28072891 -71.82304353 109.68187511 -71.82634133 103.08287871 C-71.8286784 99.14810481 -71.83745904 95.21361025 -71.86280251 91.27891159 C-71.88633967 87.56388605 -71.89021549 83.84931848 -71.88004112 80.13423729 C-71.879321 78.14634101 -71.89823818 76.15846667 -71.91810608 74.17066956 C-71.81076169 55.2736207 -65.09034694 38.30044706 -52.40931702 24.24050903 C-51.81763733 23.55601685 -51.22595764 22.87152466 -50.61634827 22.16629028 C-37.88668177 8.35093794 -18.74940101 -0.15071398 0 0 Z " fill="#F9F9F9" transform="translate(71.40931701660156,-0.240509033203125)"/>
<path d="M0 0 C11.07070797 5.24401957 21.79214139 10.3930207 32.4375 16.3203125 C35.44446923 17.94658883 38.46212618 19.5528277 41.48054504 21.15773201 C44.57049665 22.80552654 47.64082123 24.4786018 50.68457031 26.21044922 C64.6855043 34.97770255 64.6855043 34.97770255 80.23999023 36.16333008 C84.39422236 34.47304872 88.00956171 32.11580969 91.67205811 29.54956055 C95.7333083 26.84624863 100.14662038 24.85766784 104.53515625 22.74609375 C106.28911442 21.86792559 108.0410804 20.98576698 109.79101562 20.09960938 C110.65637939 19.66285889 111.52174316 19.2261084 112.41333008 18.77612305 C114.21017506 17.86817898 116.00671479 16.95963058 117.80297852 16.05053711 C120.44116064 14.71646576 123.08173469 13.38723176 125.72265625 12.05859375 C126.9301931 11.44473061 126.9301931 11.44473061 128.16212463 10.81846619 C133.77341409 8 133.77341409 8 136 8 C136 38.36 136 68.72 136 100 C116.2 100 96.4 100 76 100 C76 110.23 76 120.46 76 131 C95.8 131 115.6 131 136 131 C136 140.57 136 150.14 136 160 C116.2 160 96.4 160 76 160 C76 170.23 76 180.46 76 191 C95.8 191 115.6 191 136 191 C136 210.8 136 230.6 136 251 C109.2350675 251.09039036 82.47025911 251.16403451 55.70521259 251.20724869 C43.2769708 251.22784956 30.84883076 251.25592289 18.4206543 251.30175781 C7.58475953 251.34170128 -3.2510615 251.36745079 -14.08702785 251.37635398 C-19.82142919 251.38155598 -25.55561966 251.39373108 -31.28995323 251.42292023 C-36.69488061 251.45020794 -42.09951161 251.45841807 -47.50450134 251.45243073 C-49.48089016 251.453525 -51.4572896 251.46139879 -53.43361855 251.4768219 C-73.51581438 251.62576423 -89.48253958 247.40986501 -104.265625 232.93359375 C-115.20043216 221.61900133 -120.34724754 207.20844512 -120.22705078 191.72851562 C-120.22729185 190.71650841 -120.22753292 189.70450119 -120.2277813 188.66182709 C-120.22629729 185.40987632 -120.21110644 182.15815936 -120.1953125 178.90625 C-120.19236924 176.88899852 -120.19033054 174.87174551 -120.18920898 172.85449219 C-120.17875448 165.40297139 -120.15083193 157.95148336 -120.125 150.5 C-120.08375 133.835 -120.0425 117.17 -120 100 C-80.4 100 -40.8 100 0 100 C0 67 0 34 0 0 Z " fill="#F8F8F8" transform="translate(120,261)"/>
<path d="M0 0 C11.60570917 10.04777838 21.31366948 23.4731111 22.51939774 39.28424072 C22.58431803 41.92535395 22.58740756 44.5593347 22.56689453 47.20117188 C22.5671356 48.21317909 22.56737667 49.22518631 22.56762505 50.26786041 C22.56614104 53.51981118 22.55095019 56.77152814 22.53515625 60.0234375 C22.53221299 62.04068898 22.53017429 64.05794199 22.52905273 66.07519531 C22.51859823 73.52671611 22.49067568 80.97820414 22.46484375 88.4296875 C22.42359375 105.0946875 22.38234375 121.7596875 22.33984375 138.9296875 C-17.26015625 138.9296875 -56.86015625 138.9296875 -97.66015625 138.9296875 C-97.76328125 122.2234375 -97.86640625 105.5171875 -97.97265625 88.3046875 C-98.01817627 83.05481934 -98.06369629 77.80495117 -98.1105957 72.39599609 C-98.13317871 65.92114258 -98.13317871 65.92114258 -98.13737488 62.87759399 C-98.14498803 60.77898843 -98.16243727 58.68040296 -98.18803406 56.5819397 C-98.3942977 38.76125863 -96.42858372 25.73930011 -85.66015625 10.9296875 C-85.19996094 10.28515625 -84.73976563 9.640625 -84.265625 8.9765625 C-75.5306852 -2.2001328 -60.92011982 -10.04906877 -46.953125 -11.8203125 C-29.50384971 -13.14504989 -14.31015635 -11.13712609 0 0 Z " fill="#A7CBF1" transform="translate(489.66015625,12.0703125)"/>
<path d="M0 0 C39.6 0 79.2 0 120 0 C120.103125 16.520625 120.20625 33.04125 120.3125 50.0625 C120.35802002 55.25105713 120.40354004 60.43961426 120.45043945 65.78540039 C120.47302246 72.19226074 120.47302246 72.19226074 120.47721863 75.20530701 C120.48482406 77.27970262 120.5022566 79.35407815 120.52787781 81.42832947 C120.73817982 99.37373472 118.96951421 113.13569198 108 128 C107.53980469 128.64324219 107.07960938 129.28648437 106.60546875 129.94921875 C99.88707439 138.56502708 90.06660214 144.17613962 80 148 C79.19691406 148.3196875 78.39382812 148.639375 77.56640625 148.96875 C64.49331669 153.37403447 48.54327947 152.43655727 36 147 C35.071875 146.59910156 34.14375 146.19820312 33.1875 145.78515625 C18.38925111 138.53317348 7.40885904 125.50881384 2 110 C0.15629873 103.76902629 -0.27734898 98.206332 -0.22705078 91.72851562 C-0.22729185 90.71650841 -0.22753292 89.70450119 -0.2277813 88.66182709 C-0.22629729 85.40987632 -0.21110644 82.15815936 -0.1953125 78.90625 C-0.19236924 76.88899852 -0.19033054 74.87174551 -0.18920898 72.85449219 C-0.17875448 65.40297139 -0.15083193 57.95148336 -0.125 50.5 C-0.08375 33.835 -0.0425 17.17 0 0 Z " fill="#E7F1F8" transform="translate(0,361)"/>
<path d="M0 0 C79.53 0 159.06 0 241 0 C241 10.23 241 20.46 241 31 C161.47 31 81.94 31 0 31 C0 20.77 0 10.54 0 0 Z " fill="#70C4AF" transform="translate(196,361)"/>
<path d="M0 0 C79.53 0 159.06 0 241 0 C241 10.23 241 20.46 241 31 C161.47 31 81.94 31 0 31 C0 20.77 0 10.54 0 0 Z " fill="#BDEFB0" transform="translate(75,120)"/>
<path d="M0 0 C79.53 0 159.06 0 241 0 C241 9.9 241 19.8 241 30 C161.47 30 81.94 30 0 30 C0 20.1 0 10.2 0 0 Z " fill="#E48D23" transform="translate(196,422)"/>
<path d="M0 0 C79.53 0 159.06 0 241 0 C241 9.9 241 19.8 241 30 C161.47 30 81.94 30 0 30 C0 20.1 0 10.2 0 0 Z " fill="#BCEAF9" transform="translate(75,60)"/>
<path d="M0 0 C79.53 0 159.06 0 241 0 C241 10.23 241 20.46 241 31 C161.47 31 81.94 31 0 31 C0 20.77 0 10.54 0 0 Z M60 1 C60 10.57 60 20.14 60 30 C119.4 30 178.8 30 240 30 C240 20.43 240 10.86 240 1 C180.6 1 121.2 1 60 1 Z " fill="#B8EBB5" transform="translate(196,361)"/>
<path d="M0 0 C19.8 0 39.6 0 60 0 C60 9.9 60 19.8 60 30 C40.2 30 20.4 30 0 30 C0 20.1 0 10.2 0 0 Z " fill="#F1CB31" transform="translate(196,422)"/>
<path d="M0 0 C19.8 0 39.6 0 60 0 C60 9.9 60 19.8 60 30 C40.2 30 20.4 30 0 30 C0 20.1 0 10.2 0 0 Z " fill="#88B4F9" transform="translate(256,60)"/>
<path d="M0 0 C19.8 0 39.6 0 60 0 C60 9.57 60 19.14 60 29 C40.2 29 20.4 29 0 29 C0 19.43 0 9.86 0 0 Z " fill="#70C4AF" transform="translate(256,121)"/>
</svg>
