<?xml version="1.0" encoding="UTF-8"?>
<svg version="1.1" xmlns="http://www.w3.org/2000/svg" width="64" height="64">
<path d="M0 0 C2.97 0 5.94 0 9 0 C9.33 1.65 9.66 3.3 10 5 C23.86 5 37.72 5 52 5 C50.875 12.875 50.875 12.875 48.71484375 16.83984375 C48.26689453 17.67451172 47.81894531 18.50917969 47.35742188 19.36914062 C46.88884766 20.21669922 46.42027344 21.06425781 45.9375 21.9375 C45.22883789 23.24944336 45.22883789 23.24944336 44.50585938 24.58789062 C43.34667254 26.73062992 42.17796683 28.86754529 41 31 C39.75911621 31.01401855 39.75911621 31.01401855 38.49316406 31.02832031 C34.74483585 31.08200319 30.99775838 31.1656571 27.25 31.25 C25.94804687 31.26417969 24.64609375 31.27835938 23.3046875 31.29296875 C22.05429687 31.32519531 20.80390625 31.35742188 19.515625 31.390625 C18.36352539 31.41157227 17.21142578 31.43251953 16.02441406 31.45410156 C12.44746591 32.09973089 11.25533407 33.22197049 9 36 C10.46022583 36.01401855 10.46022583 36.01401855 11.94995117 36.02832031 C15.5752472 36.06831092 19.19970263 36.13409325 22.82446289 36.20751953 C24.39075897 36.23567694 25.95719575 36.25691753 27.52368164 36.27099609 C29.78084066 36.29249967 32.03631739 36.33918189 34.29296875 36.390625 C35.33701118 36.39246796 35.33701118 36.39246796 36.40214539 36.39434814 C39.90989999 36.49909956 41.93799027 36.96171212 44.9465332 38.81933594 C47 41 47 41 47.5625 44.5 C47 48 47 48 45.4375 50.4375 C42.08147594 52.58879747 39.91578329 52.48947291 36 52 C33.5625 50.9375 33.5625 50.9375 32 49 C31.75 45.3125 31.75 45.3125 32 42 C28.04 42 24.08 42 20 42 C20 43.98 20 45.96 20 48 C19 50.375 19 50.375 17 52 C12.57790439 52.56153595 10.27828899 52.79893062 6.5 50.4375 C4.49806492 47.18435549 4.86322973 44.76118254 5 41 C4.34 40.01 3.68 39.02 3 38 C3.0625 35.625 3.0625 35.625 4 33 C4.87914062 32.37480469 5.75828125 31.74960937 6.6640625 31.10546875 C9.43640934 27.41982371 9.21387571 26.66770481 8.61328125 22.26171875 C8.20841537 20.06482355 7.77367046 17.87326913 7.3125 15.6875 C7.09916016 14.56537109 6.88582031 13.44324219 6.66601562 12.28710938 C6.13590509 9.51875434 5.57993764 6.75827094 5 4 C3.35 4 1.7 4 0 4 C0 2.68 0 1.36 0 0 Z M12 10 C12.57521118 19.45983643 12.57521118 19.45983643 15 26 C22.59 26 30.18 26 38 26 C40.64 20.72 43.28 15.44 46 10 C34.78 10 23.56 10 12 10 Z M11 42 C10.67 43.32 10.34 44.64 10 46 C11.485 46.99 11.485 46.99 13 48 C13.99 47.01 14.98 46.02 16 45 C15.34 44.01 14.68 43.02 14 42 C13.01 42 12.02 42 11 42 Z M38 42 C37.01 43.485 37.01 43.485 36 45 C36.99 45.99 37.98 46.98 39 48 C39.99 47.34 40.98 46.68 42 46 C41.67 44.68 41.34 43.36 41 42 C40.01 42 39.02 42 38 42 Z " fill="#FE440E" transform="translate(6,6)"/>
</svg>
