<?xml version="1.0" standalone="no"?>
<!DOCTYPE svg PUBLIC "-//W3C//DTD SVG 20010904//EN"
 "http://www.w3.org/TR/2001/REC-SVG-20010904/DTD/svg10.dtd">
<svg version="1.0" xmlns="http://www.w3.org/2000/svg"
 width="512.000000pt" height="512.000000pt" viewBox="0 0 512.000000 512.000000"
 preserveAspectRatio="xMidYMid meet">

<g transform="translate(0.000000,512.000000) scale(0.100000,-0.100000)"
fill="#000000" stroke="none">
<path d="M668 4789 c-125 -29 -246 -131 -306 -256 l-37 -78 0 -1895 0 -1895
37 -78 c50 -103 122 -175 225 -225 l78 -37 1895 0 1895 0 78 37 c103 50 175
122 225 225 l37 78 0 1895 0 1895 -38 79 c-61 128 -178 225 -308 255 -56 13
-3727 13 -3781 0z m3762 -125 c71 -20 145 -74 187 -138 67 -99 63 37 63 -1966
0 -2003 4 -1867 -63 -1966 -17 -27 -54 -65 -81 -86 -99 -74 42 -69 -2001 -66
l-1830 3 -67 33 c-77 38 -130 92 -167 171 l-26 56 0 1855 0 1855 26 55 c46 99
120 164 222 195 34 11 386 14 1861 14 1634 1 1825 -1 1876 -15z"/>
<path d="M2054 3380 c-56 -23 -54 12 -54 -822 l0 -767 24 -28 24 -28 137 0
137 0 24 28 24 28 0 295 c0 162 4 294 8 294 4 0 87 -136 183 -302 104 -179
186 -310 203 -322 24 -18 45 -21 164 -24 128 -4 139 -2 165 18 33 26 35 64 6
122 -11 22 -106 191 -210 375 -104 185 -189 338 -189 340 0 3 92 158 205 346
112 188 207 356 211 374 5 26 1 37 -19 57 -26 25 -29 26 -164 26 -118 0 -142
-3 -169 -19 -23 -14 -79 -97 -204 -300 -95 -155 -176 -284 -181 -287 -5 -3 -9
110 -9 270 l0 275 -24 28 c-24 28 -26 28 -148 30 -67 2 -133 -2 -144 -7z"/>
</g>
</svg>
