<?xml version="1.0" encoding="UTF-8"?>
<svg version="1.1" xmlns="http://www.w3.org/2000/svg" width="512" height="512">
<path d="M0 0 C1.64099853 1.3769893 3.26641371 2.77278242 4.875 4.1875 C5.62523437 4.84234375 6.37546875 5.4971875 7.1484375 6.171875 C19.23866 17.45608267 26.60573204 32.83431226 34.50390625 47.12109375 C37.20323135 51.99945562 39.96491176 56.83192894 42.8125 61.625 C46.94845862 68.59503123 51.01615388 75.60254821 55.0625 82.625 C55.69978027 83.73077393 56.33706055 84.83654785 56.99365234 85.97583008 C58.9546138 89.3794253 60.91488215 92.78341889 62.875 96.1875 C70.17969788 108.87097618 77.49098343 121.54999179 84.875 134.1875 C91.62201194 145.73479516 98.30839318 157.31652027 104.98388672 168.90527344 C108.11180146 174.33409938 111.24353731 179.76072007 114.375 185.1875 C118.13863919 191.70983275 121.90144622 198.23263762 125.66015625 204.7578125 C131.70555159 215.24982094 137.76610219 225.73231676 143.875 236.1875 C149.34154151 245.54331097 154.77837302 254.91579032 160.17944336 264.30957031 C163.410011 269.92699791 166.65929212 275.53209545 169.9453125 281.1171875 C184.99481781 306.76747618 195.09146467 330.01174442 188.875 360.1875 C185.01763301 374.71289757 178.62881912 386.81478974 168.875 398.1875 C168.41867187 398.78820312 167.96234375 399.38890625 167.4921875 400.0078125 C154.67250209 416.5121979 133.48605083 424.73725323 113.49500895 427.75390661 C107.66326497 428.45241473 101.87900796 428.46632881 96.01190186 428.44819641 C94.66398606 428.45122507 93.31607198 428.45511809 91.96816087 428.45978898 C88.30200797 428.46998598 84.63595377 428.46790858 80.96979308 428.46360838 C77.00100536 428.4611259 73.03224047 428.47017414 69.0634613 428.47764587 C61.30240357 428.49035325 53.5413805 428.49219149 45.78031412 428.48984561 C39.46688367 428.4880577 33.15346369 428.48982221 26.84003448 428.49407005 C25.48872428 428.49496284 25.48872428 428.49496284 24.11011489 428.49587366 C22.27957326 428.4970855 20.44903163 428.49829963 18.61849001 428.49951603 C1.47599223 428.5103765 -15.66648585 428.50823628 -32.80898473 428.50213119 C-48.46185885 428.49696444 -64.11467069 428.50821374 -79.7675325 428.52722941 C-95.87183875 428.54664225 -111.97611559 428.5548577 -128.08043361 428.55110615 C-137.10893348 428.5491992 -146.13738039 428.55163212 -155.16587067 428.56582069 C-162.85283184 428.57777956 -170.53970743 428.57908923 -178.22666988 428.56703053 C-182.14173705 428.56117304 -186.05664804 428.55995467 -189.97170448 428.57203293 C-221.88445992 428.6636242 -249.17723173 425.34001544 -273.125 402.1875 C-288.61069825 385.89226272 -296.96154065 363.34034185 -297.4375 341 C-296.50135636 312.3696069 -282.09463561 290.31863352 -267.98242188 266.35400391 C-264.85553152 261.02332989 -261.77171638 255.66794185 -258.6875 250.3125 C-258.06528564 249.23282959 -257.44307129 248.15315918 -256.80200195 247.04077148 C-255.53984958 244.85053236 -254.27788695 242.66018388 -253.01611328 240.46972656 C-249.88819852 235.04090058 -246.75641552 229.61430719 -243.625 224.1875 C-242.37498121 222.02084417 -241.12498122 219.8541775 -239.875 217.6875 C-222.375 187.35416667 -204.875 157.02083333 -187.375 126.6875 C-186.75616943 125.61483887 -186.13733887 124.54217773 -185.49975586 123.43701172 C-184.25064482 121.27192929 -183.00145871 119.10689018 -181.75219727 116.94189453 C-178.61297691 111.50134294 -175.47509437 106.06002784 -172.33984375 100.6171875 C-165.75495259 89.1890889 -159.14265157 77.77820004 -152.47998047 66.39526367 C-149.26816633 60.89674303 -146.08648113 55.38231879 -142.9375 49.84765625 C-142.58304306 49.2250592 -142.22858612 48.60246216 -141.86338806 47.96099854 C-140.14384246 44.93935057 -138.42772511 41.91583356 -136.71704102 38.88916016 C-122.40857496 13.69817291 -105.95292153 -6.85374859 -77.00390625 -14.84765625 C-50.19801419 -21.5153857 -22.109348 -17.16966316 0 0 Z M-75.125 117.1875 C-80.34696421 124.94273851 -81.48716076 133.29007998 -80.90234375 142.40234375 C-80.82499245 143.84467628 -80.82499245 143.84467628 -80.74607849 145.31614685 C-80.62248064 147.59230122 -80.49314717 149.86814796 -80.35955811 152.14373779 C-80.08763991 156.77601895 -79.84355675 161.40970865 -79.59814453 166.04345703 C-79.08900814 175.60954409 -78.55893223 185.17438383 -78.02319336 194.73901367 C-77.74289266 199.74575003 -77.46747585 204.75274242 -77.19320774 209.75981236 C-76.97703324 213.69055387 -76.75732599 217.62109265 -76.536726 221.55158806 C-76.43382813 223.39498854 -76.33215195 225.23845775 -76.23187447 227.08200264 C-75.90261883 233.12009067 -75.53002751 239.15404181 -75.125 245.1875 C-75.03319017 246.62893938 -75.03319017 246.62893938 -74.9395256 248.09949875 C-74.74414513 251.0640413 -74.52359432 254.02576103 -74.29663086 256.98803711 C-74.21117555 258.3409263 -74.21117555 258.3409263 -74.12399387 259.72114658 C-73.5635041 266.51152697 -72.04096946 272.52421421 -66.87109375 277.24609375 C-66.10925781 277.70113281 -65.34742188 278.15617188 -64.5625 278.625 C-63.79808594 279.09808594 -63.03367188 279.57117188 -62.24609375 280.05859375 C-56.74064906 282.98874755 -50.93146012 282.96874081 -45.0625 281.1875 C-40.22798073 279.17550085 -36.93836637 275.52920864 -34.125 271.1875 C-32.42647406 266.82949876 -31.80685427 262.99124354 -31.58447266 258.33056641 C-31.55010479 257.66503628 -31.51573692 256.99950615 -31.48032761 256.31380844 C-31.40641637 254.86347654 -31.33635001 253.41294471 -31.26969528 251.9622612 C-31.16125051 249.60288343 -31.04292702 247.2441773 -30.92202759 244.88540649 C-30.79171209 242.34083475 -30.66204103 239.79624637 -30.53530693 237.25149345 C-30.07594714 228.04457696 -29.54087834 218.84237309 -29.00304413 209.63976288 C-28.72303366 204.8368349 -28.44772919 200.03363691 -28.171875 195.23046875 C-27.83330276 189.34088958 -27.49382712 183.45136623 -27.15136719 177.56201172 C-26.86776787 172.68364954 -26.58696679 167.8051333 -26.30803299 162.92650223 C-26.20299832 161.098173 -26.09696397 159.26990089 -25.98984909 157.44169235 C-23.74453393 134.96019743 -23.74453393 134.96019743 -32.390625 114.94140625 C-38.13174278 109.13563624 -44.87743867 106.60529292 -52.9375 105.8125 C-61.74700335 106.10217419 -69.40680713 110.68835023 -75.125 117.1875 Z M-75.125 313.1875 C-79.69637103 319.89059846 -81.78499166 326.0036034 -81.125 334.1875 C-79.02775462 342.31282781 -75.97249178 348.89874233 -68.9140625 353.6875 C-62.60377799 357.37723447 -56.50883637 359.10083168 -49.125 358.1875 C-40.47971728 355.81614502 -34.02927637 351.62505632 -29.25 344 C-26.03462133 337.69658438 -25.34193434 330.84915859 -26.8125 323.9375 C-29.78334099 315.44938288 -34.17375806 309.63167478 -42.03515625 305.08203125 C-53.89087509 299.89667578 -66.74241839 303.72060435 -75.125 313.1875 Z " fill="#FF8817" transform="translate(309.125,50.8125)"/>
</svg>
