<?xml version="1.0" standalone="no"?>
<!DOCTYPE svg PUBLIC "-//W3C//DTD SVG 20010904//EN"
 "http://www.w3.org/TR/2001/REC-SVG-20010904/DTD/svg10.dtd">
<svg version="1.0" xmlns="http://www.w3.org/2000/svg"
 width="512.000000pt" height="512.000000pt" viewBox="0 0 512.000000 512.000000"
 preserveAspectRatio="xMidYMid meet">

<g transform="translate(0.000000,512.000000) scale(0.100000,-0.100000)"
fill="#000000" stroke="none">
<path d="M1185 4470 c-192 -25 -372 -153 -463 -327 -65 -126 -72 -168 -72
-479 l0 -271 26 -38 c34 -51 61 -73 107 -85 68 -19 148 17 185 83 15 28 18 72
22 312 6 312 8 322 78 393 72 72 94 76 407 82 276 5 281 5 314 29 37 27 70 90
71 136 0 40 -38 114 -71 138 -14 10 -43 22 -65 27 -47 11 -454 11 -539 0z"/>
<path d="M3391 4471 c-18 -5 -45 -18 -60 -28 -33 -24 -71 -98 -71 -138 1 -46
34 -109 71 -136 33 -24 38 -24 314 -29 255 -5 284 -7 325 -26 59 -27 107 -76
136 -139 23 -48 24 -59 24 -310 0 -231 2 -264 19 -301 57 -126 243 -135 303
-14 16 31 18 68 18 311 0 242 -2 285 -20 353 -55 215 -217 381 -430 442 -42
12 -119 17 -325 20 -148 2 -285 -1 -304 -5z"/>
<path d="M1555 3841 c-115 -41 -199 -118 -254 -231 l-36 -75 -3 -422 -3 -423
-332 0 c-198 0 -347 -4 -369 -10 -112 -31 -160 -164 -97 -266 43 -70 -132 -64
2106 -62 l2020 3 35 27 c87 66 86 198 -1 291 -52 57 -51 57 -420 57 l-340 0
-3 403 -3 402 -36 76 c-45 93 -118 167 -208 212 l-66 32 -970 2 c-916 2 -973
1 -1020 -16z"/>
<path d="M1262 1833 l3 -248 36 -75 c55 -114 141 -191 257 -231 53 -18 98 -19
1002 -19 926 0 948 0 1006 20 113 39 198 116 253 230 l36 75 3 248 4 247
-1302 0 -1302 0 4 -247z"/>
<path d="M765 1848 c-16 -6 -43 -22 -59 -37 -53 -49 -56 -67 -56 -359 0 -233
3 -279 19 -344 54 -212 200 -368 406 -435 75 -24 96 -26 321 -31 273 -5 339 0
386 31 38 26 78 98 78 142 -1 46 -34 109 -71 136 -33 24 -38 24 -314 29 -255
5 -284 7 -325 26 -59 27 -107 76 -136 139 -23 48 -24 59 -24 310 0 231 -3 265
-19 300 -22 49 -48 73 -98 91 -45 16 -67 16 -108 2z"/>
<path d="M4247 1846 c-45 -17 -73 -40 -96 -81 -13 -25 -17 -75 -21 -310 -6
-312 -8 -322 -78 -393 -72 -72 -94 -76 -407 -82 -276 -5 -281 -5 -314 -29 -39
-28 -70 -91 -71 -141 0 -55 38 -120 85 -144 38 -20 57 -21 320 -21 235 0 291
3 345 18 227 61 395 234 445 462 13 56 15 123 13 341 -3 267 -3 271 -27 306
-49 71 -124 99 -194 74z"/>
</g>
</svg>
