<?xml version="1.0" encoding="UTF-8"?>
<svg version="1.1" xmlns="http://www.w3.org/2000/svg" width="512" height="512">
<path d="M0 0 C8.1530388 6.85745615 13.07359693 16.65985666 18.25 25.8125 C19.57020785 28.12451897 20.89152162 30.43586034 22.21484375 32.74609375 C22.55180267 33.33510468 22.8887616 33.9241156 23.2359314 34.53097534 C27.50282366 41.97546217 31.90488193 49.33974226 36.30126953 56.70825195 C39.77666894 62.54758754 43.20228188 68.40756172 46.55078125 74.3203125 C46.89519257 74.92635315 47.23960388 75.5323938 47.5944519 76.15679932 C49.25037852 79.07069955 50.89734542 81.98854578 52.52929688 84.91601562 C53.11388672 85.94662109 53.69847656 86.97722656 54.30078125 88.0390625 C54.81165283 88.95123535 55.32252441 89.8634082 55.84887695 90.80322266 C57.21552877 93.17177141 57.21552877 93.17177141 60.3125 93.875 C62.49347293 93.49046004 64.65960108 93.01917253 66.8125 92.5 C79.87417977 89.5631336 92.66160842 89.21974336 105.9375 90.75 C106.6176416 90.82839111 107.2977832 90.90678223 107.99853516 90.98754883 C113.49429964 91.67336868 118.89427469 92.73601274 124.3125 93.875 C131.94955156 81.25299196 139.52076277 68.6017192 146.875 55.8125 C147.49076904 54.74177246 148.10653809 53.67104492 148.7409668 52.56787109 C149.98034595 50.41173761 151.21952358 48.25548827 152.45849609 46.09912109 C157.69365706 36.99515273 162.95556525 27.90795953 168.3125 18.875 C168.75851562 18.12138184 169.20453125 17.36776367 169.6640625 16.59130859 C176.22151008 5.61325465 183.05886667 -2.87772198 195.58203125 -6.84375 C207.04306413 -9.65809087 218.38406883 -7.85322804 228.4609375 -1.84375 C237.60765392 4.46433029 243.11492946 13.0048743 245.3125 23.875 C246.65319753 37.63238484 243.04821849 47.4047928 236 59 C234.73278876 61.12743493 233.46586984 63.25504401 232.19921875 65.3828125 C231.55259277 66.46079102 230.9059668 67.53876953 230.23974609 68.64941406 C227.22197559 73.70018476 224.26912529 78.78828339 221.3125 83.875 C220.14226126 85.88170533 218.97168775 87.88821548 217.80078125 89.89453125 C215.50566064 93.82893232 213.21144529 97.76385909 210.91796875 101.69921875 C204.8951857 112.03212875 198.86338084 122.35971773 192.81704712 132.67886353 C191.80709199 134.40256072 190.79745729 136.12644565 189.7878418 137.8503418 C189.13468994 138.96449463 188.48153809 140.07864746 187.80859375 141.2265625 C187.47815063 141.81537201 187.14770752 142.40418152 186.80725098 143.01083374 C184.73056792 146.66490738 182.48241121 150.01512495 179.93286133 153.35913086 C167.91275239 169.9362667 168.60859096 186.07410364 169.07287598 205.7010498 C169.17743212 210.68864716 169.1958354 215.67720032 169.22174358 220.66572094 C169.24261746 224.54130652 169.27704067 228.41479071 169.35810852 232.28962708 C169.67955387 250.14657087 169.67955387 250.14657087 165.0625 256.25 C158.52099782 262.49416117 152.42852997 262.31185234 143.80883789 262.27905273 C141.92244347 262.28934761 141.92244347 262.28934761 139.99794006 262.29985046 C136.5598441 262.31774856 133.12200383 262.31661989 129.68387532 262.31090808 C126.80869071 262.30781129 123.93355487 262.31391412 121.05837721 262.31994683 C114.2730075 262.33397948 107.48776372 262.33244136 100.70239258 262.32104492 C93.71313178 262.30956511 86.72425477 262.32363963 79.73504454 262.3504414 C73.72379616 262.37262589 67.71266801 262.37922961 61.70138162 262.37336498 C58.11572382 262.3700007 54.53031199 262.37237489 50.9446888 262.38961601 C46.94473233 262.40801112 42.94551859 262.39387003 38.94555664 262.37670898 C37.76455383 262.38637695 36.58355103 262.39604492 35.36676025 262.40600586 C27.42154388 262.33463672 22.82351346 261.2911212 17 255.625 C12.3418628 248.03396161 13.14784553 239.6401871 13.34375763 231.05822754 C13.42509709 227.05224275 13.43919043 223.04572183 13.46484375 219.0390625 C13.50017121 213.97872002 13.55389673 208.92114217 13.68603516 203.86230469 C14.22039724 182.43206958 13.40340813 167.25982457 0.15339661 149.45378113 C-3.0874648 144.91388888 -5.7577533 140.03869613 -8.5 135.1875 C-14.0770267 125.62276928 -19.67359555 116.06958391 -25.27590942 106.51965332 C-30.74671877 97.19367266 -36.20830853 87.86240858 -41.63598633 78.51123047 C-44.49389417 73.59594454 -47.38568593 68.70579667 -50.33984375 63.84765625 C-50.93313477 62.86531006 -51.52642578 61.88296387 -52.13769531 60.87084961 C-53.25402415 59.02614602 -54.37898115 57.18662125 -55.51464844 55.35375977 C-62.14618161 44.36088122 -64.61326297 33.40064899 -62.03125 20.62890625 C-58.99303958 10.34875462 -52.95582588 2.33282925 -43.6875 -3.125 C-28.97269204 -10.24286059 -13.44330522 -9.61207658 0 0 Z M-41.24609375 16.99609375 C-45.02629973 21.92367933 -46.4127927 26.89712054 -46.140625 33.02514648 C-44.59660806 42.73598146 -37.24965045 52.20313975 -32.25 60.5 C-30.82421003 62.88255801 -29.40211291 65.26731017 -27.98046875 67.65234375 C-27.62156555 68.25381729 -27.26266235 68.85529083 -26.8928833 69.47499084 C-23.22228622 75.63598077 -19.63600999 81.84476157 -16.0625 88.0625 C-9.56736161 99.35721096 -3.01767954 110.61890256 3.55664062 121.86767578 C5.3687413 124.97132652 7.1770351 128.07716852 8.984375 131.18359375 C10.19779905 133.26829763 11.41133904 135.35293403 12.625 137.4375 C13.20604492 138.43563721 13.78708984 139.43377441 14.38574219 140.4621582 C18.10872167 146.84539703 21.87211338 153.20205274 25.73754883 159.50024414 C28.81945348 164.56407137 29.46450974 168.4232862 29.48608398 174.25219727 C29.492771 175.00044769 29.49945801 175.74869812 29.50634766 176.5196228 C29.52038996 178.14344727 29.53228663 179.76729137 29.54229546 181.39114571 C29.55870354 183.9585857 29.58193904 186.52587917 29.60719299 189.09324646 C29.67799046 196.39241247 29.73821069 203.6916367 29.78930664 210.9909668 C29.82103647 215.45542982 29.86229055 219.9197217 29.90950203 224.38404655 C29.92555153 226.0877164 29.93785941 227.79142563 29.94640923 229.49514961 C29.95851669 231.87267656 29.98264445 234.24979813 30.00952148 236.62719727 C30.01011063 237.33530045 30.01069977 238.04340363 30.01130676 238.77296448 C29.96778109 242.76943947 29.96778109 242.76943947 32.3125 245.875 C34.48330495 246.17598418 34.48330495 246.17598418 37.02601624 246.12223816 C38.02019058 246.12643265 39.01436493 246.13062714 40.03866577 246.13494873 C41.6806041 246.12651947 41.6806041 246.12651947 43.35571289 246.11791992 C45.08012352 246.12076744 45.08012352 246.12076744 46.83937073 246.12367249 C50.65470105 246.12738946 54.46984273 246.11666351 58.28515625 246.10546875 C60.9254911 246.10427744 63.56582639 246.10382368 66.2061615 246.1040802 C71.74529385 246.10314315 77.28437147 246.09445306 82.82348633 246.08081055 C89.23552644 246.06507684 95.64750663 246.05981268 102.05956465 246.0605461 C108.21906019 246.06115558 114.37853295 246.05595028 120.53802299 246.04775429 C123.16360798 246.04456089 125.78919475 246.04259866 128.41478157 246.04186058 C132.07611268 246.03970457 135.73736691 246.03097664 139.39868164 246.02026367 C141.04365631 246.02094345 141.04365631 246.02094345 142.72186279 246.02163696 C144.20889458 246.01523949 144.20889458 246.01523949 145.72596741 246.00871277 C146.59262055 246.00703692 147.4592737 246.00536108 148.35218906 246.00363445 C150.31617473 246.09108826 150.31617473 246.09108826 151.3125 244.875 C151.42606441 242.68381849 151.46938437 240.48898076 151.48608398 238.29492188 C151.4961145 237.26300217 151.4961145 237.26300217 151.50634766 236.2102356 C151.52043346 234.71025896 151.53231616 233.21026043 151.54229546 231.71025085 C151.55868796 229.33007009 151.58193075 226.95004842 151.60719299 224.56994629 C151.67797591 217.8002924 151.73778687 211.03056933 151.78930664 204.26074219 C151.82128058 200.12274213 151.86261501 195.98491777 151.90950203 191.84706116 C151.92542889 190.27477721 151.93779297 188.7024527 151.94640923 187.13011169 C152.05916271 166.82736238 152.05916271 166.82736238 157.48046875 158.00390625 C158.11871582 156.94856689 158.75696289 155.89322754 159.41455078 154.8059082 C160.10274902 153.6943335 160.79094727 152.58275879 161.5 151.4375 C162.59181646 149.64138093 163.67894884 147.84247749 164.76605225 146.04350281 C165.51057634 144.81224911 166.2565592 143.58187638 167.00396729 142.35237122 C170.74809484 136.18790717 174.3509566 129.94478296 177.9375 123.6875 C179.17798531 121.52971785 180.41886861 119.37216445 181.66015625 117.21484375 C182.26617676 116.16151855 182.87219727 115.10819336 183.49658203 114.02294922 C188.15724826 105.94354207 192.87243245 97.89571926 197.57861328 89.84277344 C201.06758519 83.87094262 204.55178775 77.89632429 208.03417969 71.9206543 C211.10403945 66.65425695 214.18156649 61.39252383 217.26953125 56.13671875 C217.91470703 55.03650391 218.55988281 53.93628906 219.22460938 52.80273438 C220.46712073 50.68420782 221.71182251 48.56696404 222.95898438 46.45117188 C223.51521484 45.50177734 224.07144531 44.55238281 224.64453125 43.57421875 C225.13671143 42.73721436 225.6288916 41.90020996 226.13598633 41.0378418 C229.0573575 35.66734434 229.3429563 29.55051291 227.69921875 23.6875 C224.73322212 16.997675 219.5274628 12.27789286 212.875 9.375 C206.17723219 8.43496241 200.02352347 9.02626679 194.3125 12.875 C188.25581792 18.74323934 184.26299257 25.68934493 180.1875 33 C179.19831279 34.74478737 178.20910793 36.48956549 177.21818542 38.23336792 C176.54931401 39.41108208 175.88151757 40.5894074 175.21479797 41.76834106 C172.1294803 47.22074978 168.95201936 52.61557114 165.75 58 C161.74556754 64.7470081 157.77044802 71.50980282 153.82836914 78.29345703 C151.50304492 82.29205836 149.16719945 86.28445027 146.82958984 90.27587891 C145.49784742 92.55745757 144.17918365 94.8459914 142.86328125 97.13671875 C142.1806162 98.30002465 141.4971192 99.46284306 140.8125 100.625 C140.2659375 101.56859375 139.719375 102.5121875 139.15625 103.484375 C136.24562825 107.25831676 132.80264994 109.37828335 128.3125 110.875 C121.79802483 111.3666585 116.0461053 110.0392793 109.69921875 108.609375 C95.3058029 105.48831136 80.69410279 106.56467403 66.4375 110 C59.97852371 111.48043079 54.2224457 111.76372983 48.29711914 108.34765625 C41.51304165 103.3136354 37.53240696 93.19671148 33.4375 86 C32.10812723 83.67889396 30.77782307 81.3583645 29.4453125 79.0390625 C29.10526184 78.44695984 28.76521118 77.85485718 28.41485596 77.24481201 C24.12608176 69.79200142 19.72284687 62.40694381 15.31079102 55.02661133 C11.88813368 49.28517773 8.53185774 43.51786695 5.28515625 37.67578125 C4.62203875 36.49202278 3.9586308 35.30842697 3.29492188 34.125 C2.0565312 31.90773897 0.83151416 29.68292973 -0.37695312 27.44921875 C-4.54775322 20.01121264 -9.88226703 12.07671326 -18.4375 9.375 C-27.56971746 7.97004347 -34.95337437 10.00256108 -41.24609375 16.99609375 Z " fill="#000000" transform="translate(164.6875,250.125)"/>
<path d="M0 0 C17.03137752 13.49527406 27.80090395 31.98005446 31.16796875 53.484375 C32.72310796 77.97781748 27.05074075 98.60112724 10.88671875 117.359375 C-3.99167268 133.11296593 -23.57129131 142.11881231 -45.28710938 142.77587891 C-68.91858848 142.9920818 -87.66499922 134.76166307 -104.76953125 118.734375 C-119.06780472 103.88439965 -126.36806702 84.49569433 -126.95703125 63.984375 C-126.39350898 45.72625329 -121.21113586 28.72713338 -109.58203125 14.421875 C-108.90398437 13.58140625 -108.2259375 12.7409375 -107.52734375 11.875 C-81.08821598 -19.17450948 -32.6512612 -24.39555791 0 0 Z M-91.33203125 19.484375 C-103.12272971 31.90459127 -110.07601813 48.28266209 -109.7890625 65.5 C-108.46298731 84.21517444 -100.56044559 99.81525015 -86.39453125 112.171875 C-72.91469803 122.70997666 -56.51741332 127.17786648 -39.58203125 125.421875 C-22.68622238 122.81077954 -7.75599619 113.88343276 2.53515625 100.23828125 C12.45750916 85.39592348 16.48918224 69.48626696 13.41796875 51.796875 C10.37633081 38.74910104 4.0995639 27.67634095 -5.58203125 18.421875 C-6.09765625 17.8753125 -6.61328125 17.32875 -7.14453125 16.765625 C-11.03339585 12.95777841 -15.71279353 10.6200818 -20.51953125 8.171875 C-21.18799072 7.8301123 -21.8564502 7.48834961 -22.54516602 7.13623047 C-45.52697849 -4.11501911 -73.09865505 2.35910454 -91.33203125 19.484375 Z " fill="#000000" transform="translate(303.58203125,14.578125)"/>
<path d="M0 0 C3.94341952 3.81341668 5.10520369 9.02377445 6.6875 14.125 C7.1353514 15.45316871 7.587385 16.77993246 8.04296875 18.10546875 C11.6875 28.7610575 11.6875 28.7610575 11.6875 31.125 C12.5345752 31.10928955 13.38165039 31.0935791 14.25439453 31.07739258 C17.41892204 31.0260443 20.58323608 30.98854328 23.74804688 30.96020508 C25.11367816 30.94518572 26.47926176 30.92476392 27.84472656 30.89868164 C29.81553905 30.86199863 31.78671408 30.84681449 33.7578125 30.83203125 C34.94133301 30.8163208 36.12485352 30.80061035 37.34423828 30.78442383 C42.40770221 31.30023602 45.6201751 32.97341261 49.0625 36.6875 C51.18901681 41.18590095 51.70210159 45.23103941 50.6875 50.125 C47.94281936 55.24706825 44.57826929 58.03354294 39.875 61.1875 C38.98844727 61.79948242 38.98844727 61.79948242 38.08398438 62.42382812 C36.89638379 63.24362221 35.70613291 64.05959101 34.51318359 64.87158203 C31.5401168 66.91273273 28.6164182 69.02112918 25.6875 71.125 C25.94031738 71.89577881 26.19313477 72.66655762 26.45361328 73.46069336 C27.59619316 76.98766123 28.70448426 80.52452895 29.8125 84.0625 C30.21082031 85.27486328 30.60914063 86.48722656 31.01953125 87.73632812 C33.13021439 94.5682762 34.81224834 100.3727453 31.6875 107.125 C29.0295353 110.31455763 26.87018217 112.74911736 22.69140625 113.46875 C14.61051882 113.9859268 10.01264357 110.83684785 3.6875 106.125 C2.5664649 105.30200344 1.4453693 104.47908927 0.32421875 103.65625 C-2.57844081 101.50983406 -5.45159429 99.3268489 -8.3125 97.125 C-11.17999495 98.48042682 -13.70904727 100.02241643 -16.28125 101.875 C-17.38533203 102.66390625 -17.38533203 102.66390625 -18.51171875 103.46875 C-19.27097656 104.0153125 -20.03023437 104.561875 -20.8125 105.125 C-22.32104055 106.2109443 -23.83139794 107.29437016 -25.34375 108.375 C-26.00955078 108.85453125 -26.67535156 109.3340625 -27.36132812 109.828125 C-32.66156677 113.35100634 -37.01211944 113.91130342 -43.3125 113.125 C-47.4401867 111.24877877 -48.93268795 109.76210408 -51.25 105.875 C-53.54161001 97.78696465 -50.19923956 89.87526696 -47.75 82.125 C-47.42064453 81.06410156 -47.09128906 80.00320312 -46.75195312 78.91015625 C-45.94478221 76.31317156 -45.13151131 73.71826993 -44.3125 71.125 C-44.83158936 70.75213867 -45.35067871 70.37927734 -45.88549805 69.99511719 C-48.25798778 68.28978268 -50.62900352 66.58240995 -53 64.875 C-53.81662109 64.28847656 -54.63324219 63.70195312 -55.47460938 63.09765625 C-67.92947922 54.12208203 -67.92947922 54.12208203 -69.3125 50.125 C-70.01281352 45.19023261 -69.82700496 41.21337587 -67.6875 36.6875 C-64.2451751 32.97341261 -61.03270221 31.30023602 -55.96923828 30.78442383 C-54.78571777 30.80013428 -53.60219727 30.81584473 -52.3828125 30.83203125 C-50.44921875 30.8465332 -50.44921875 30.8465332 -48.4765625 30.86132812 C-47.13020214 30.88638812 -45.78384797 30.91178288 -44.4375 30.9375 C-43.06772295 30.95256496 -41.69792998 30.96625018 -40.328125 30.97851562 C-36.98917642 31.01378621 -33.65104325 31.06308104 -30.3125 31.125 C-30.12349121 30.42157471 -29.93448242 29.71814941 -29.73974609 28.9934082 C-28.22784423 23.402215 -26.68962081 17.83344442 -24.9375 12.3125 C-24.36902344 10.47751953 -24.36902344 10.47751953 -23.7890625 8.60546875 C-21.82942009 3.98631165 -19.37095665 0.44012508 -15.0625 -2.3125 C-9.47513568 -3.45536997 -4.96335124 -2.8094441 0 0 Z M-10.3125 23.125 C-10.68761719 24.36636719 -11.06273437 25.60773438 -11.44921875 26.88671875 C-11.9653333 28.52890142 -12.48230584 30.17081461 -13 31.8125 C-13.24427734 32.62912109 -13.48855469 33.44574219 -13.74023438 34.28710938 C-15.37613048 39.40187314 -17.03761736 42.62360178 -21.3125 46.125 C-23.77370841 47.35560421 -25.57026866 47.3307723 -28.3203125 47.44140625 C-29.30644531 47.48330078 -30.29257813 47.52519531 -31.30859375 47.56835938 C-32.34113281 47.60767578 -33.37367187 47.64699219 -34.4375 47.6875 C-35.99791016 47.75227539 -35.99791016 47.75227539 -37.58984375 47.81835938 C-40.16392528 47.9246288 -42.73810508 48.02666583 -45.3125 48.125 C-41.56557159 52.09337808 -37.33751239 55.022142 -32.87109375 58.125 C-29.21817569 60.98041076 -27.66123604 62.80270918 -26.46875 67.32421875 C-26.27634199 72.00454363 -27.32665992 75.54474715 -28.8125 79.9375 C-30.96778796 85.05296845 -30.96778796 85.05296845 -30.3125 90.125 C-29.33667969 89.41472656 -28.36085938 88.70445312 -27.35546875 87.97265625 C-26.07045687 87.04407102 -24.78529265 86.11569657 -23.5 85.1875 C-22.53610352 84.48463867 -22.53610352 84.48463867 -21.55273438 83.76757812 C-20.93076172 83.31962891 -20.30878906 82.87167969 -19.66796875 82.41015625 C-19.09715576 81.99644775 -18.52634277 81.58273926 -17.93823242 81.15649414 C-14.03314354 78.67879471 -9.782587 78.54339017 -5.3125 79.125 C-2.66848054 80.34908308 -0.6650401 81.48248206 1.6875 83.125 C2.56535156 83.72699219 3.44320312 84.32898438 4.34765625 84.94921875 C6.80844256 86.65550237 9.25315365 88.3812831 11.6875 90.125 C13.07309896 87.92293949 13.07309896 87.92293949 11.62109375 84.52734375 C11.26096191 83.45480347 11.26096191 83.45480347 10.89355469 82.3605957 C6.6487046 69.66784669 6.6487046 69.66784669 8.640625 63.90234375 C10.67617949 60.44645833 13.42006185 58.37247561 16.6875 56.125 C17.57308594 55.50238281 18.45867187 54.87976563 19.37109375 54.23828125 C21.15289578 52.99228352 22.94406945 51.75953657 24.74609375 50.54296875 C25.38675781 50.07503906 26.02742188 49.60710937 26.6875 49.125 C26.6875 48.795 26.6875 48.465 26.6875 48.125 C25.73496338 48.11098145 25.73496338 48.11098145 24.76318359 48.09667969 C21.862192 48.04271267 18.96276756 47.95911873 16.0625 47.875 C15.06347656 47.86082031 14.06445312 47.84664062 13.03515625 47.83203125 C7.17375179 47.63794501 3.18547356 47.28254722 -1.3125 43.125 C-2.66796875 40.8984375 -2.66796875 40.8984375 -3.5 38.5 C-3.80808594 37.63375 -4.11617187 36.7675 -4.43359375 35.875 C-5.78682323 31.64089533 -7.11050976 27.40481373 -8.3125 23.125 C-8.9725 23.125 -9.6325 23.125 -10.3125 23.125 Z " fill="#000000" transform="translate(124.3125,87.875)"/>
<path d="M0 0 C3.94341952 3.81341668 5.10520369 9.02377445 6.6875 14.125 C7.1353514 15.45316871 7.587385 16.77993246 8.04296875 18.10546875 C11.6875 28.7610575 11.6875 28.7610575 11.6875 31.125 C12.5345752 31.10928955 13.38165039 31.0935791 14.25439453 31.07739258 C17.41892204 31.0260443 20.58323608 30.98854328 23.74804688 30.96020508 C25.11367816 30.94518572 26.47926176 30.92476392 27.84472656 30.89868164 C29.81553905 30.86199863 31.78671408 30.84681449 33.7578125 30.83203125 C34.94133301 30.8163208 36.12485352 30.80061035 37.34423828 30.78442383 C42.40770221 31.30023602 45.6201751 32.97341261 49.0625 36.6875 C51.18901681 41.18590095 51.70210159 45.23103941 50.6875 50.125 C47.94281936 55.24706825 44.57826929 58.03354294 39.875 61.1875 C38.98844727 61.79948242 38.98844727 61.79948242 38.08398438 62.42382812 C36.89638379 63.24362221 35.70613291 64.05959101 34.51318359 64.87158203 C31.5401168 66.91273273 28.6164182 69.02112918 25.6875 71.125 C25.93508057 71.90625244 26.18266113 72.68750488 26.43774414 73.49243164 C27.55682168 77.05294091 28.65356179 80.6199573 29.75 84.1875 C30.13994141 85.41662109 30.52988281 86.64574219 30.93164062 87.91210938 C31.29580078 89.10771484 31.65996094 90.30332031 32.03515625 91.53515625 C32.37554932 92.62965088 32.71594238 93.72414551 33.06665039 94.85180664 C34.04851548 100.02831676 33.39183558 103.83776602 30.875 108.4375 C28.3144796 111.5832822 26.4525625 112.76947048 22.49609375 113.56640625 C14.54449577 113.97250104 9.90984287 110.76026756 3.6875 106.125 C2.5664649 105.30200344 1.4453693 104.47908927 0.32421875 103.65625 C-2.57844081 101.50983406 -5.45159429 99.3268489 -8.3125 97.125 C-11.33995906 98.55451409 -14.03777619 100.22405774 -16.7890625 102.12890625 C-17.624375 102.70447266 -18.4596875 103.28003906 -19.3203125 103.87304688 C-20.61582031 104.77120117 -20.61582031 104.77120117 -21.9375 105.6875 C-23.65809129 106.87740596 -25.37941006 108.06626088 -27.1015625 109.25390625 C-27.86162598 109.78056885 -28.62168945 110.30723145 -29.40478516 110.84985352 C-33.85695382 113.82575279 -38.07451761 113.68822391 -43.3125 113.125 C-47.4401867 111.24877877 -48.93268795 109.76210408 -51.25 105.875 C-53.54161001 97.78696465 -50.19923956 89.87526696 -47.75 82.125 C-47.42064453 81.06410156 -47.09128906 80.00320312 -46.75195312 78.91015625 C-45.94478221 76.31317156 -45.13151131 73.71826993 -44.3125 71.125 C-44.83158936 70.75213867 -45.35067871 70.37927734 -45.88549805 69.99511719 C-48.25798778 68.28978268 -50.62900352 66.58240995 -53 64.875 C-53.81662109 64.28847656 -54.63324219 63.70195312 -55.47460938 63.09765625 C-67.92947922 54.12208203 -67.92947922 54.12208203 -69.3125 50.125 C-70.01281352 45.19023261 -69.82700496 41.21337587 -67.6875 36.6875 C-64.2451751 32.97341261 -61.03270221 31.30023602 -55.96923828 30.78442383 C-54.78571777 30.80013428 -53.60219727 30.81584473 -52.3828125 30.83203125 C-50.44921875 30.8465332 -50.44921875 30.8465332 -48.4765625 30.86132812 C-47.13020214 30.88638812 -45.78384797 30.91178288 -44.4375 30.9375 C-43.06772295 30.95256496 -41.69792998 30.96625018 -40.328125 30.97851562 C-36.98917642 31.01378621 -33.65104325 31.06308104 -30.3125 31.125 C-30.12349121 30.42157471 -29.93448242 29.71814941 -29.73974609 28.9934082 C-28.22784423 23.402215 -26.68962081 17.83344442 -24.9375 12.3125 C-24.36902344 10.47751953 -24.36902344 10.47751953 -23.7890625 8.60546875 C-21.82942009 3.98631165 -19.37095665 0.44012508 -15.0625 -2.3125 C-9.47513568 -3.45536997 -4.96335124 -2.8094441 0 0 Z M-10.3125 23.125 C-10.68761719 24.36636719 -11.06273437 25.60773438 -11.44921875 26.88671875 C-11.9653333 28.52890142 -12.48230584 30.17081461 -13 31.8125 C-13.24427734 32.62912109 -13.48855469 33.44574219 -13.74023438 34.28710938 C-15.37093133 39.38561758 -17.00178177 42.68321395 -21.3125 46.125 C-24.16756049 47.07668683 -26.22187282 47.3150946 -29.19921875 47.44140625 C-30.13701172 47.48330078 -31.07480469 47.52519531 -32.04101562 47.56835938 C-33.01748047 47.60767578 -33.99394531 47.64699219 -35 47.6875 C-35.98806641 47.73068359 -36.97613281 47.77386719 -37.99414062 47.81835938 C-40.43345546 47.92441654 -42.87287113 48.02647714 -45.3125 48.125 C-41.56557159 52.09337808 -37.33751239 55.022142 -32.87109375 58.125 C-29.21817569 60.98041076 -27.66123604 62.80270918 -26.46875 67.32421875 C-26.27634199 72.00454363 -27.32665992 75.54474715 -28.8125 79.9375 C-30.96778796 85.05296845 -30.96778796 85.05296845 -30.3125 90.125 C-29.33667969 89.41472656 -28.36085938 88.70445312 -27.35546875 87.97265625 C-26.07045687 87.04407102 -24.78529265 86.11569657 -23.5 85.1875 C-22.53610352 84.48463867 -22.53610352 84.48463867 -21.55273438 83.76757812 C-20.93076172 83.31962891 -20.30878906 82.87167969 -19.66796875 82.41015625 C-19.09715576 81.99644775 -18.52634277 81.58273926 -17.93823242 81.15649414 C-14.03314354 78.67879471 -9.782587 78.54339017 -5.3125 79.125 C-2.66848054 80.34908308 -0.6650401 81.48248206 1.6875 83.125 C2.56535156 83.72699219 3.44320312 84.32898438 4.34765625 84.94921875 C6.80844256 86.65550237 9.25315365 88.3812831 11.6875 90.125 C13.07309896 87.92293949 13.07309896 87.92293949 11.62109375 84.52734375 C11.26096191 83.45480347 11.26096191 83.45480347 10.89355469 82.3605957 C6.6487046 69.66784669 6.6487046 69.66784669 8.640625 63.90234375 C10.67617949 60.44645833 13.42006185 58.37247561 16.6875 56.125 C17.57308594 55.50238281 18.45867187 54.87976563 19.37109375 54.23828125 C21.15289578 52.99228352 22.94406945 51.75953657 24.74609375 50.54296875 C25.38675781 50.07503906 26.02742188 49.60710937 26.6875 49.125 C26.6875 48.795 26.6875 48.465 26.6875 48.125 C26.08276855 48.11041748 25.47803711 48.09583496 24.85498047 48.08081055 C22.09020735 48.00590812 19.32658643 47.90938927 16.5625 47.8125 C15.61117187 47.78994141 14.65984375 47.76738281 13.6796875 47.74414062 C8.34932216 47.54055028 4.23259829 47.21537734 -0.3125 44.125 C-4.37380182 37.6746971 -6.22447971 30.41085804 -8.3125 23.125 C-8.9725 23.125 -9.6325 23.125 -10.3125 23.125 Z " fill="#000000" transform="translate(406.3125,87.875)"/>
<path d="M0 0 C11.76151705 12.44334413 16.98315417 27.4005918 16.75 44.4375 C15.58611803 60.31177091 8.9639998 74.2856342 -2.72460938 85.12402344 C-16.52796736 97.00975742 -31.99434794 99.81635896 -49.63818359 98.70800781 C-63.83065273 97.23808298 -77.29096877 89.44849748 -86.25 78.4375 C-96.4614806 64.32879377 -100.78157407 49.18951028 -98.625 31.8125 C-96.0237781 17.63497931 -88.54278096 4.5117314 -77.25 -4.5625 C-52.58623618 -20.91660863 -22.39681031 -20.85574538 0 0 Z M-73.75390625 16.28125 C-80.37029105 25.81713619 -83.27582677 36.01652627 -81.8515625 47.609375 C-79.27954839 59.70118161 -73.2670635 69.18468537 -62.93359375 75.89453125 C-52.61312863 81.82842313 -41.76824907 83.24149009 -30.1328125 80.77734375 C-17.90825005 76.77752232 -9.81604454 69.26333 -3.96875 57.9609375 C0.26609267 48.4325415 0.83367035 38.40662608 -2.25 28.4375 C-7.2597658 16.96001797 -14.00016541 9.09899023 -25.25 3.4375 C-43.01073903 -2.90082175 -61.63749954 1.17206178 -73.75390625 16.28125 Z " fill="#000000" transform="translate(297.25,232.5625)"/>
<path d="M0 0 C2.85695513 1.71417308 3.01592889 3.05628208 3.9375 6.3125 C4.02710493 11.59919079 1.60960773 14.23909833 -1.81915283 17.99014282 C-4.0624731 20.31061466 -6.34037543 22.59132493 -8.6328125 24.86328125 C-9.46585907 25.6958696 -10.29890564 26.52845795 -11.15719604 27.38627625 C-12.91151046 29.13757927 -14.66824496 30.88646099 -16.42724609 32.63305664 C-19.12788199 35.31536243 -21.82035655 38.00565809 -24.51171875 40.69726562 C-26.21827747 42.39891153 -27.92529284 44.10009961 -29.6328125 45.80078125 C-30.44114532 46.60800125 -31.24947815 47.41522125 -32.08230591 48.24690247 C-32.83003265 48.98824936 -33.5777594 49.72959625 -34.34814453 50.4934082 C-35.00670441 51.14815628 -35.66526428 51.80290436 -36.34378052 52.47749329 C-38.67170898 54.61747941 -39.94734752 54.9915756 -43.125 55.5 C-47.13116835 54.98307505 -47.6814772 54.76573153 -50.46484375 52.21875 C-51.1609375 51.58259766 -51.85703125 50.94644531 -52.57421875 50.29101562 C-53.37472656 49.53498047 -54.17523438 48.77894531 -55 48 C-55.95003906 47.10474609 -56.90007812 46.20949219 -57.87890625 45.28710938 C-60.54709923 42.75265404 -63.18081813 40.18502265 -65.80249023 37.60253906 C-66.8989066 36.52789713 -68.0015524 35.45957671 -69.11010742 34.39746094 C-70.73270953 32.84186121 -72.33464255 31.26735676 -73.93359375 29.6875 C-74.42830673 29.22061768 -74.92301971 28.75373535 -75.432724 28.27270508 C-78.9492602 24.73470687 -79.84927168 21.94534156 -80 17 C-78.65437601 14.05244268 -77.91445456 12.45722728 -75 11 C-71.62999923 10.25798148 -70.23432028 10.03956781 -67 11 C-62.73376856 14.24724667 -59.15026986 18.09733053 -55.5 22 C-54.47844862 23.06171383 -53.45502691 24.12163146 -52.4296875 25.1796875 C-49.93115117 27.76603313 -47.45904015 30.37600875 -45 33 C-42.1119626 31.69379546 -40.07028233 30.31090179 -37.85546875 28.05078125 C-36.97435425 27.15975708 -36.97435425 27.15975708 -36.07543945 26.25073242 C-35.45241943 25.61111572 -34.82939941 24.97149902 -34.1875 24.3125 C-33.53676514 23.65419189 -32.88603027 22.99588379 -32.21557617 22.31762695 C-30.13884462 20.21648964 -28.06867526 18.10906781 -26 16 C-23.27659192 13.2234152 -20.54666656 10.45348674 -17.8125 7.6875 C-17.18947998 7.0478833 -16.56645996 6.4082666 -15.92456055 5.74926758 C-15.33715088 5.15525146 -14.74974121 4.56123535 -14.14453125 3.94921875 C-13.63253174 3.42674561 -13.12053223 2.90427246 -12.59301758 2.3659668 C-8.37385962 -1.25183991 -5.388337 -1.27360693 0 0 Z " fill="#000000" transform="translate(294,51)"/>
</svg>
