<?xml version="1.0" standalone="no"?>
<!DOCTYPE svg PUBLIC "-//W3C//DTD SVG 20010904//EN"
 "http://www.w3.org/TR/2001/REC-SVG-20010904/DTD/svg10.dtd">
<svg version="1.0" xmlns="http://www.w3.org/2000/svg"
 width="512.000000pt" height="512.000000pt" viewBox="0 0 512.000000 512.000000"
 preserveAspectRatio="xMidYMid meet">

<g transform="translate(0.000000,512.000000) scale(0.100000,-0.100000)"
fill="#000000" stroke="none">
<path d="M2065 4950 l-950 -5 -70 -28 c-151 -60 -277 -187 -332 -337 l-28 -75
0 -1950 0 -1950 28 -75 c56 -153 184 -281 337 -337 l75 -28 1395 0 1395 0 65
24 c139 50 255 153 321 283 62 122 59 41 59 1683 l0 1500 -642 642 c-466 466
-651 645 -673 651 -16 4 -457 5 -980 2z m835 -578 c0 -211 4 -383 11 -418 29
-160 153 -326 300 -398 123 -60 169 -66 567 -66 l352 0 -2 -1432 -3 -1433 -27
-50 c-32 -60 -97 -124 -158 -156 l-45 -24 -1375 0 -1375 0 -50 27 c-68 36
-128 101 -162 173 l-28 60 -3 1855 c-1 1112 1 1879 7 1916 22 147 115 250 261
290 34 10 250 13 888 13 l842 1 0 -358z m1018 -650 c-29 -2 -161 -2 -293 0
-238 3 -241 3 -295 30 -72 35 -136 99 -169 168 -26 55 -26 55 -29 350 l-3 295
421 -420 420 -420 -52 -3z"/>
</g>
</svg>
