<?xml version="1.0" encoding="UTF-8"?>
<svg version="1.1" xmlns="http://www.w3.org/2000/svg" width="512" height="512">
<path d="M0 0 C0.66 0 1.32 0 2 0 C2.58225342 1.501073 2.58225342 1.501073 3.17626953 3.0324707 C13.2435898 28.96193285 23.49678991 54.81434045 33.83998108 80.63468933 C36.74690865 87.89158647 39.6527015 95.14893823 42.55859375 102.40625 C43.03239408 103.58951496 43.03239408 103.58951496 43.51576614 104.79668427 C49.35873289 119.38973967 55.19298687 133.98621197 60.99667358 148.59494019 C61.91015907 150.89306458 62.82487839 153.19069894 63.74087524 155.48782349 C64.98419114 158.6064706 66.22321408 161.72678623 67.4609375 164.84765625 C67.82498184 165.75837891 68.18902618 166.66910156 68.56410217 167.60742188 C68.8889006 168.42927979 69.21369904 169.2511377 69.54833984 170.09790039 C69.83091644 170.80878311 70.11349304 171.51966583 70.40463257 172.25209045 C71 174 71 174 71 176 C71.75393539 176.03669296 72.50787079 176.07338593 73.28465271 176.1111908 C105.88064193 177.72745573 138.44013112 179.94101244 171.00383317 182.09595048 C177.32673918 182.51423054 183.64979965 182.93013552 189.97290331 183.34541565 C197.63759314 183.84882822 205.30217669 184.35384454 212.96672893 184.85934711 C215.14124266 185.00265974 217.31577531 185.14568213 219.49031258 185.28863716 C223.54318656 185.5551727 227.59593926 185.82351176 231.64868164 186.09204102 C232.82846085 186.1694603 234.00824005 186.24687958 235.22377014 186.3266449 C242.48948515 186.8099023 249.74542514 187.37123866 257 188 C255.10046472 192.22687357 252.20268107 194.65840876 248.6875 197.5625 C248.06302979 198.0877124 247.43855957 198.6129248 246.79516602 199.15405273 C245.49918373 200.24343626 244.20090056 201.33008812 242.90039062 202.4140625 C240.59994521 204.33385868 238.31490571 206.27131697 236.03076172 208.21044922 C232.82434445 210.9314328 229.60891654 213.64177283 226.39550781 216.35449219 C224.78415516 217.71508114 223.17319871 219.07613696 221.5625 220.4375 C220.76404663 221.11220337 220.76404663 221.11220337 219.94946289 221.80053711 C216.5079859 224.71263563 213.08337651 227.64363787 209.66601562 230.58398438 C205.00818074 234.59165256 200.33696364 238.56841613 195.5625 242.4375 C190.45692535 246.58060991 185.50199947 250.8823045 180.54711914 255.20288086 C176.91262149 258.36465838 173.24479157 261.46850206 169.5 264.5 C164.46651459 268.57757127 159.57666691 272.80505915 154.69189453 277.05810547 C149.04598832 281.97126036 143.34284313 286.81315805 137.61914062 291.63525391 C134.78485097 294.02422845 131.95503352 296.4184867 129.125 298.8125 C128.11695313 299.66457031 127.10890625 300.51664062 126.0703125 301.39453125 C123.80938729 303.30936635 121.55710435 305.23401405 119.30810547 307.1628418 C118.68612274 307.69620651 118.06414001 308.22957123 117.42330933 308.77909851 C116.95361725 309.181996 116.48392517 309.58489349 116 310 C118.5088819 321.53154461 121.18529264 333.00153064 124.09765625 344.4375 C124.48889524 345.98179597 124.87992571 347.52614477 125.27076721 349.07054138 C126.31505963 353.19390391 127.36277771 357.31638843 128.41132355 361.43867111 C129.28918128 364.89162515 130.16501822 368.34509062 131.04095078 371.79853344 C138.33273258 400.54325833 145.69266659 429.27051786 153.08227539 457.99023438 C153.37355552 459.12235776 153.37355552 459.12235776 153.6707201 460.27735233 C154.57574083 463.79460927 155.48113962 467.31176802 156.38734436 470.82872009 C156.99991212 473.20768299 157.61140411 475.58692332 158.22149658 477.96652222 C158.69906503 479.82739172 159.17947934 481.68753721 159.66473389 483.54641724 C160.58920283 487.1296613 161.23219075 490.28494808 161 494 C152.91793295 489.8629592 145.37383428 485.08561863 137.78515625 480.12109375 C132.59290073 476.72436209 127.36172191 473.39014311 122.125 470.0625 C120.72773682 469.17425537 120.72773682 469.17425537 119.30224609 468.26806641 C110.98691353 462.98567312 102.65908498 457.72315155 94.32666016 452.46777344 C90.38339755 449.98016643 86.44179232 447.48993586 82.5 445 C80.9166744 443.99998776 79.33334107 442.99998775 77.75 442 C68.25 436 58.75 430 49.25 424 C48.46584717 423.5047583 47.68169434 423.0095166 46.8737793 422.49926758 C45.29446854 421.5017825 43.71520402 420.50422421 42.13598633 419.5065918 C38.11648855 416.96750329 34.09613233 414.42979166 30.07421875 411.89453125 C28.85822998 411.12713623 28.85822998 411.12713623 27.61767578 410.34423828 C26.01461303 409.33382883 24.41014826 408.32563987 22.80419922 407.31982422 C19.11281204 405.00140115 15.45926992 402.65149265 11.87109375 400.17578125 C11.23469971 399.74354248 10.59830566 399.31130371 9.94262695 398.8659668 C8.24667483 397.70807228 6.56417517 396.5305421 4.8828125 395.3515625 C2.16184995 393.73394349 2.16184995 393.73394349 -0.34375 394.4375 C-4.15389048 396.6787591 -7.90812394 398.98190131 -11.625 401.375 C-13.3358673 402.4662559 -15.0468068 403.55739861 -16.7578125 404.6484375 C-17.62954102 405.2062793 -18.50126953 405.76412109 -19.39941406 406.33886719 C-23.42273353 408.90877571 -27.46163082 411.45383389 -31.5 414 C-33.08341854 414.99986507 -34.66675163 415.99986548 -36.25 417 C-64.75 435 -93.25 453 -121.75 471 C-122.53487793 471.49580566 -123.31975586 471.99161133 -124.12841797 472.50244141 C-125.70001736 473.49484316 -127.27195352 474.48671179 -128.84423828 475.47802734 C-132.98512687 478.08984015 -137.11847901 480.71269396 -141.2421875 483.3515625 C-142.10134766 483.89941406 -142.96050781 484.44726562 -143.84570312 485.01171875 C-145.48981004 486.06039235 -147.1318593 487.11230142 -148.77148438 488.16796875 C-149.51462891 488.64105469 -150.25777344 489.11414063 -151.0234375 489.6015625 C-151.99676025 490.22538818 -151.99676025 490.22538818 -152.98974609 490.86181641 C-155.25534397 492.14457294 -157.56674373 493.08126238 -160 494 C-156.76595552 478.4577474 -152.75403297 463.11371126 -148.77560425 447.74972534 C-146.66769357 439.60871081 -144.57251721 431.46441164 -142.4765625 423.3203125 C-142.25752447 422.46954321 -142.03848644 421.61877392 -141.8128109 420.74222374 C-136.53588033 400.2422825 -131.32949642 379.72455266 -126.13740158 359.20298386 C-125.43950729 356.44543128 -124.74098153 353.68803939 -124.04226685 350.93069458 C-122.93926586 346.57759171 -121.83767103 342.22413551 -120.73724747 337.8703804 C-120.33262533 336.27016638 -119.9276061 334.6700527 -119.52215195 333.07004929 C-117.57939322 325.40131064 -115.65410919 317.73748874 -114 310 C-119.86408998 304.61928403 -125.84384278 299.4469185 -132.02734375 294.4375 C-135.32795041 291.73108928 -138.57569191 288.96958695 -141.8125 286.1875 C-142.399104 285.68331543 -142.98570801 285.17913086 -143.59008789 284.65966797 C-145.99851812 282.58742744 -148.40497822 280.51290556 -150.81152344 278.43847656 C-156.63835913 273.41838502 -162.46234648 268.40626351 -168.4375 263.5625 C-174.78276881 258.40813208 -180.92509448 253.02637235 -187.09033203 247.65966797 C-194.13272391 241.5392154 -201.19002801 235.43969663 -208.4375 229.5625 C-213.48854068 225.46084729 -218.40128396 221.21408989 -223.30786133 216.94213867 C-227.38926613 213.39036997 -231.49144707 209.86593382 -235.625 206.375 C-236.14392822 205.93567139 -236.66285645 205.49634277 -237.19750977 205.04370117 C-240.01789193 202.6595825 -242.8517633 200.29313581 -245.69921875 197.94140625 C-246.30362793 197.43883301 -246.90803711 196.93625977 -247.53076172 196.41845703 C-248.69629537 195.44968105 -249.86575526 194.48560448 -251.03955078 193.52685547 C-252.39731788 192.3948914 -253.70424036 191.20244798 -255 190 C-255 189.34 -255 188.68 -255 188 C-231.63470062 186.43297078 -208.26924965 184.86821956 -184.90361595 183.30618286 C-174.05464903 182.58085556 -163.20573302 181.85478186 -152.35693359 181.12695312 C-142.90154287 180.49260787 -133.44605976 179.85966091 -123.9904629 179.22839546 C-118.98345463 178.89407329 -113.97649555 178.55904934 -108.96964645 178.22235107 C-104.25684699 177.90544911 -99.54392622 177.59041727 -94.83090591 177.27681732 C-93.10149277 177.16141309 -91.37212499 177.04532653 -89.64280701 176.92850494 C-87.28033124 176.76901411 -84.91770391 176.61198749 -82.55502319 176.45556641 C-81.87212955 176.40887503 -81.1892359 176.36218365 -80.48564851 176.31407738 C-76.64997344 176.06314663 -72.84355076 175.9567068 -69 176 C-68.86746826 175.26280731 -68.73493652 174.52561462 -68.59838867 173.76608276 C-68.05915012 171.2734245 -67.36824972 169.10492372 -66.42578125 166.74267578 C-66.09615891 165.91039459 -65.76653656 165.0781134 -65.42692566 164.22061157 C-65.05916519 163.30476288 -64.69140472 162.38891418 -64.3125 161.4453125 C-63.91464798 160.44446625 -63.51679596 159.44362 -63.10688782 158.41244507 C-61.74193743 154.98168434 -60.37089504 151.55338923 -59 148.125 C-58.01676958 145.6570599 -57.03390249 143.18897806 -56.05151367 140.72070312 C-54.07472698 135.75552694 -52.09600262 130.79112827 -50.11555386 125.82741165 C-44.89800747 112.75028444 -39.6931195 99.66812679 -34.48828125 86.5859375 C-32.63091086 81.9177855 -30.7734786 77.24965813 -28.91601562 72.58154297 C-28.45355501 71.41930017 -27.9910944 70.25705738 -27.51461983 69.05959511 C-22.94928088 57.58651114 -18.38225824 46.11409779 -13.81432152 34.64204788 C-12.98132662 32.55003624 -12.1483601 30.45801328 -11.31542397 28.36597824 C-10.16129584 25.46725875 -9.00705812 22.56858292 -7.8527832 19.66992188 C-7.51987274 18.83375399 -7.18696228 17.9975861 -6.84396362 17.13607979 C-4.56824872 11.42180655 -2.28575564 5.71026399 0 0 Z " fill="#FFFFFF" transform="translate(255,9)"/>
</svg>
