<?xml version="1.0" encoding="UTF-8"?>
<svg version="1.1" xmlns="http://www.w3.org/2000/svg" width="512" height="512">
<path d="M0 0 C1.22396484 0.62648438 1.22396484 0.62648438 2.47265625 1.265625 C21.24954224 11.62118177 34.4034735 30.16684526 40.375 50.5 C45.30861676 68.86163455 43.00298157 87.12896879 39.66699219 105.55932617 C39.30744015 107.62159826 38.94945051 109.68414325 38.59288025 111.74693298 C37.63140161 117.28268744 36.64814301 122.81436105 35.66034985 128.3454721 C34.62345754 134.17241479 33.60644972 140.00282958 32.5869751 145.83283997 C30.87364478 155.61454231 29.14727797 165.39386652 27.41162109 175.17163086 C24.9730193 188.90966684 22.55982941 202.65208015 20.15087271 216.39534032 C18.47024078 225.97737183 16.7831062 235.5582601 15.09503269 245.13898301 C14.68878299 247.44511756 14.2827552 249.75129122 13.87695217 252.05750442 C12.71925308 258.63624237 11.55747901 265.21423401 10.38928413 271.79111671 C10.0380718 273.77161713 9.68815178 275.75234729 9.33971214 277.7333374 C7.68098866 287.15780279 5.95528123 296.56011872 3.92730713 305.91304016 C3.77388407 306.63535896 3.620461 307.35767777 3.46238875 308.10188502 C1.00058697 319.14068404 -4.00338373 328.04243305 -13 335 C-24.8505137 342.43655718 -37.33933881 344.88702221 -51 341.8125 C-62.46873761 338.62592374 -71.02903219 333.41770253 -77.75390625 323.3828125 C-80.83932548 317.79967293 -82.60776548 312.12546821 -83.92730713 305.91304016 C-84.0964954 305.13275178 -84.26568367 304.3524634 -84.43999887 303.54852992 C-86.47231261 294.01764623 -88.16262797 284.42543523 -89.85058594 274.82885742 C-90.21541345 272.77158045 -90.58053976 270.71435645 -90.94593811 268.65718079 C-92.13132048 261.97431356 -93.30816755 255.28995585 -94.484375 248.60546875 C-94.89295897 246.28608339 -95.30158199 243.9667049 -95.71024323 241.64733315 C-97.41056362 231.99400697 -99.10881984 222.34032213 -100.80112839 212.68558788 C-103.2116128 198.93365003 -105.63431958 185.18399888 -108.07450461 171.43729895 C-109.79842271 161.71999037 -111.5084909 152.00030504 -113.208462 142.27877885 C-114.22023 136.49482356 -115.23771123 130.7120213 -116.2700119 124.93169212 C-117.24123005 119.49150408 -118.19503019 114.04852991 -119.13632011 108.60308647 C-119.48162834 106.62251215 -119.83285948 104.6429583 -120.19094276 102.66465378 C-124.91838236 76.49386986 -125.07465733 51.01449728 -110.3125 27.8125 C-97.01298084 9.02629708 -79.15494271 -4.20747801 -56.16894531 -8.53271484 C-36.78969895 -11.39033253 -17.35431821 -9.20509858 0 0 Z " fill="#FFFFFF" transform="translate(296,9)"/>
<path d="M0 0 C12.15123158 12.80181565 18.43191754 29.26467933 18.21484375 46.84765625 C16.96420016 65.19800853 9.91614451 81.1115523 -3.3671875 93.83203125 C-19.34477443 106.98864957 -37.79963174 109.9274895 -58 108 C-74.01861846 105.41635186 -88.65423119 96.50242305 -98.18896484 83.36132812 C-107.54574027 69.43683652 -112.02285383 52.20804557 -109.46875 35.53125 C-107.10061549 23.69057745 -103.40582414 14.55539598 -96 5 C-95.18015625 3.93072266 -95.18015625 3.93072266 -94.34375 2.83984375 C-84.15637098 -9.63008481 -69.70284223 -15.6197609 -54.3125 -18.75 C-33.87582076 -20.71828673 -14.90282458 -13.9867589 0 0 Z " fill="#FFFFFF" transform="translate(302,404)"/>
</svg>
