<?xml version="1.0" encoding="UTF-8"?>
<svg version="1.1" xmlns="http://www.w3.org/2000/svg" width="54" height="54">
<path d="M0 0 C6.29366569 3.78944924 9.74240173 9.38548128 11.5 16.375 C12.04395358 21.45190008 11.1398963 24.93860407 9.05859375 29.48046875 C8.35256391 31.87504548 8.69359142 33.02731274 9.5 35.375 C12.0400869 37.9906419 14.64861695 40.44423991 17.37109375 42.86523438 C19.0078125 44.40234375 19.0078125 44.40234375 21.5 47.375 C21.3671875 50.25390625 21.3671875 50.25390625 20.5 52.375 C14.43014572 52.03964893 11.66111531 47.73178787 7.87304688 43.50390625 C6.19027191 41.65415685 6.19027191 41.65415685 3.5 39.375 C1.48649117 39.59177498 1.48649117 39.59177498 -0.5 40.375 C-8.56226398 42.9610092 -14.35362643 43.04827222 -22.12890625 39.7109375 C-27.50094536 36.68418729 -30.59905069 32.16271173 -32.5 26.375 C-33.59745257 18.32349699 -32.85557634 12.15300833 -28.22265625 5.40625 C-21.46709885 -2.55948662 -9.43937215 -4.34969156 0 0 Z M-21.25 8.5625 C-24.26160174 12.32700217 -26.65055241 15.63682805 -26.375 20.6484375 C-25.48119129 25.45265931 -24.1253762 28.95103359 -20.5 32.375 C-16.06777353 35.23132372 -12.73955679 35.93638108 -7.5 35.375 C-2.2409029 33.48172504 0.29008594 30.77716785 3.5 26.375 C4.91798392 22.12104824 5.42430874 18.46524175 3.55859375 14.24609375 C0.46259653 8.97610475 -2.39229303 6.25326501 -8.375 4.5625 C-13.58199702 4.25008018 -17.16273829 5.3112691 -21.25 8.5625 Z " fill="#A4A1A1" transform="translate(32.5,1.625)"/>
</svg>
