<svg width="16" height="16" viewBox="0 0 16 16" fill="none" xmlns="http://www.w3.org/2000/svg">
<path d="M12.6667 6.99967V6.66634C12.6667 4.15234 12.6667 2.89501 11.8853 2.11434C11.104 1.33367 9.84733 1.33301 7.33333 1.33301C4.81933 1.33301 3.562 1.33301 2.78133 2.11434C2.00067 2.89567 2 4.15234 2 6.66634V9.66634C2 11.8577 2 12.9537 2.60533 13.6917C2.71644 13.8268 2.83956 13.9499 2.97467 14.061C3.71333 14.6663 4.808 14.6663 7 14.6663M4.66667 4.66634H10M4.66667 7.33301H7.33333" stroke="#FE450F" stroke-linecap="round" stroke-linejoin="round"/>
<path d="M12 12.3327L11 11.966V10.3327M8 11.666C8 12.06 8.0776 12.4501 8.22836 12.8141C8.37913 13.178 8.6001 13.5088 8.87868 13.7873C9.15726 14.0659 9.48797 14.2869 9.85195 14.4377C10.2159 14.5884 10.606 14.666 11 14.666C11.394 14.666 11.7841 14.5884 12.1481 14.4377C12.512 14.2869 12.8427 14.0659 13.1213 13.7873C13.3999 13.5088 13.6209 13.178 13.7716 12.8141C13.9224 12.4501 14 12.06 14 11.666C14 10.8704 13.6839 10.1073 13.1213 9.5447C12.5587 8.98209 11.7956 8.66602 11 8.66602C10.2044 8.66602 9.44129 8.98209 8.87868 9.5447C8.31607 10.1073 8 10.8704 8 11.666Z" stroke="#FE450F" stroke-linecap="round" stroke-linejoin="round"/>
</svg>
