<?xml version="1.0" encoding="UTF-8"?>
<svg version="1.1" xmlns="http://www.w3.org/2000/svg" width="512" height="512">
<path d="M0 0 C1.53450793 -0.00417831 3.06901277 -0.00965854 4.60351193 -0.01631981 C8.79919869 -0.03072805 12.99468824 -0.02654422 17.19038558 -0.019153 C21.72356094 -0.01441214 26.2566942 -0.02693929 30.78985596 -0.03717041 C39.66259329 -0.05434584 48.53525976 -0.05520101 57.4080094 -0.04995751 C64.62163438 -0.04591219 71.83523847 -0.04736366 79.04886246 -0.05270576 C80.59028467 -0.0538284 80.59028467 -0.0538284 82.16284672 -0.05497371 C84.25060661 -0.05650523 86.3383665 -0.05804357 88.42612638 -0.05958868 C107.99442155 -0.07330921 127.56267671 -0.06787919 147.13097097 -0.05640347 C165.02161346 -0.04647183 182.91215252 -0.05941136 200.80277906 -0.08333766 C219.18620609 -0.10773721 237.56958495 -0.1173344 255.95302784 -0.11068493 C266.26860062 -0.10719459 276.58409387 -0.10941261 286.89965439 -0.12693596 C295.68112349 -0.14166863 304.46245705 -0.14227942 313.24392353 -0.12486505 C317.72140371 -0.11636144 322.19864185 -0.11418984 326.67610931 -0.1295166 C330.78073443 -0.14339277 334.88491084 -0.13856322 338.98951019 -0.11927737 C340.46855234 -0.11552599 341.94763068 -0.11841431 343.4266405 -0.12888902 C359.32709185 -0.23342725 370.82535548 3.86332431 382.50564575 14.70018005 C393.26287724 26.06631144 395.21061424 38.50996143 395.14332581 53.6320343 C395.14750411 55.16654223 395.15298435 56.70104707 395.15964562 58.23554623 C395.17405385 62.43123299 395.16987003 66.62672254 395.1624788 70.82241988 C395.15773795 75.35559524 395.1702651 79.8887285 395.18049622 84.42189026 C395.19767165 93.29462759 395.19852682 102.16729406 395.19328331 111.0400437 C395.189238 118.25366868 395.19068947 125.46727277 395.19603157 132.68089676 C395.19677999 133.70851157 395.19752841 134.73612637 395.19829952 135.79488102 C395.19983103 137.88264091 395.20136938 139.9704008 395.20291448 142.05816068 C395.21663502 161.62645585 395.211205 181.19471102 395.19972927 200.76300527 C395.18979764 218.65364776 395.20273717 236.54418683 395.22666346 254.43481337 C395.25106302 272.81824039 395.2606602 291.20161926 395.25401074 309.58506215 C395.25052039 319.90063493 395.25273841 330.21612817 395.27026176 340.53168869 C395.28499444 349.31315779 395.28560523 358.09449136 395.26819085 366.87595783 C395.25968724 371.35343801 395.25751565 375.83067616 395.27284241 380.30814362 C395.28671858 384.41276873 395.28188903 388.51694514 395.26260317 392.6215445 C395.2588518 394.10058664 395.26174011 395.57966499 395.27221482 397.0586748 C395.37675305 412.95912615 391.2800015 424.45738978 380.44314575 436.13768005 C369.07701437 446.89491154 356.63336438 448.84264854 341.5112915 448.77536011 C339.97678357 448.77953841 338.44227874 448.78501865 336.90777957 448.79167992 C332.71209282 448.80608815 328.51660327 448.80190433 324.32090592 448.79451311 C319.78773056 448.78977225 315.2545973 448.8022994 310.72143555 448.81253052 C301.84869822 448.82970595 292.97603174 448.83056112 284.10328211 448.82531761 C276.88965712 448.8212723 269.67605304 448.82272377 262.46242905 448.82806587 C260.92100684 448.82918851 260.92100684 448.82918851 259.34844478 448.83033382 C257.26068489 448.83186533 255.17292501 448.83340368 253.08516513 448.83494879 C233.51686996 448.84866932 213.94861479 448.8432393 194.38032053 448.83176357 C176.48967804 448.82183194 158.59913898 448.83477147 140.70851244 448.85869776 C122.32508542 448.88309732 103.94170655 448.89269451 85.55826366 448.88604504 C75.24269088 448.88255469 64.92719763 448.88477271 54.61163712 448.90229607 C45.83016801 448.91702874 37.04883445 448.91763953 28.26736797 448.90022516 C23.7898878 448.89172154 19.31264965 448.88954995 14.83518219 448.90487671 C10.73055707 448.91875288 6.62638066 448.91392333 2.52178131 448.89463747 C1.04273916 448.8908861 -0.43633918 448.89377442 -1.91534899 448.90424912 C-17.81580035 449.00878735 -29.31406398 444.9120358 -40.99435425 434.07518005 C-51.75158574 422.70904867 -53.69932273 410.26539868 -53.6320343 395.14332581 C-53.63621261 393.60881788 -53.64169284 392.07431304 -53.64835411 390.53981388 C-53.66276235 386.34412712 -53.65857853 382.14863757 -53.6511873 377.95294023 C-53.64644644 373.41976486 -53.65897359 368.8866316 -53.66920471 364.35346985 C-53.68638015 355.48073252 -53.68723532 346.60806605 -53.68199181 337.73531641 C-53.67794649 330.52169142 -53.67939796 323.30808734 -53.68474007 316.09446335 C-53.68548849 315.06684854 -53.68623691 314.03923373 -53.68700801 312.98047908 C-53.68853953 310.89271919 -53.69007787 308.80495931 -53.69162298 306.71719943 C-53.70534351 287.14890426 -53.6999135 267.58064909 -53.68843777 248.01235484 C-53.67850614 230.12171234 -53.69144566 212.23117328 -53.71537196 194.34054674 C-53.73977152 175.95711972 -53.7493687 157.57374085 -53.74271923 139.19029796 C-53.73922889 128.87472518 -53.74144691 118.55923193 -53.75897026 108.24367142 C-53.77370294 99.46220231 -53.77431373 90.68086875 -53.75689935 81.89940228 C-53.74839574 77.4219221 -53.74622415 72.94468395 -53.7615509 68.46721649 C-53.77542707 64.36259138 -53.77059752 60.25841497 -53.75131167 56.15381561 C-53.7475603 54.67477347 -53.75044861 53.19569512 -53.76092332 51.71668531 C-53.86546155 35.81623396 -49.76870999 24.31797033 -38.93185425 12.63768005 C-27.56572286 1.88044856 -15.12207287 -0.06728843 0 0 Z M46.81814575 102.13768005 C42.07425187 109.61290677 42.41385231 117.55503434 42.43997192 126.09324646 C42.44312793 128.25050109 42.41964015 130.40637596 42.39431763 132.5634613 C42.07486046 144.57631697 42.07486046 144.57631697 47.20779419 154.99266052 C51.9283483 159.08199439 55.15829392 159.74358952 61.21658325 159.6650238 C64.98024977 159.25391561 66.97354763 157.90481645 69.75564575 155.38768005 C76.50965922 146.80825754 74.75564575 139.86184515 74.75564575 128.38768005 C101.15564575 128.38768005 127.55564575 128.38768005 154.75564575 128.38768005 C154.75564575 191.74768005 154.75564575 255.10768005 154.75564575 320.38768005 C149.47564575 320.38768005 144.19564575 320.38768005 138.75564575 320.38768005 C131.72252566 321.91293501 128.77439517 323.48514185 124.75564575 329.38768005 C122.89834175 333.10228805 123.3128167 337.33361124 123.75564575 341.38768005 C126.10357233 346.26414295 129.04325429 348.79105619 133.75564575 351.38768005 C137.5505327 352.37105426 141.14471071 352.5245092 145.05545044 352.54881287 C146.93330231 352.56322418 146.93330231 352.56322418 148.84909058 352.57792664 C150.20856543 352.58277596 151.56804242 352.58705446 152.92752075 352.59080505 C153.61778603 352.59363243 154.3080513 352.59645981 155.0192337 352.59937286 C158.6735624 352.6143299 162.32785199 352.62358081 165.98220825 352.62791443 C169.73557603 352.63338788 173.48857901 352.65740172 177.24183273 352.68588638 C180.14683031 352.70461631 183.05174191 352.70972387 185.95679474 352.71125031 C187.33933756 352.71425506 188.72187967 352.72220896 190.10436249 352.73543549 C202.52497423 353.15232042 202.52497423 353.15232042 213.36618042 347.93559265 C217.44563321 343.20744146 218.11157962 339.98691387 218.0329895 333.92674255 C217.62188131 330.16307603 216.27278215 328.16977818 213.75564575 325.38768005 C205.17622324 318.63366658 198.22981085 320.38768005 186.75564575 320.38768005 C186.75564575 257.02768005 186.75564575 193.66768005 186.75564575 128.38768005 C213.15564575 128.38768005 239.55564575 128.38768005 266.75564575 128.38768005 C266.75564575 133.66768005 266.75564575 138.94768005 266.75564575 144.38768005 C268.28090071 151.42080014 269.85310755 154.36893064 275.75564575 158.38768005 C279.47025375 160.24498405 283.70157693 159.83050911 287.75564575 159.38768005 C292.63210865 157.03975347 295.15902189 154.10007151 297.75564575 149.38768005 C299.35280793 143.34372366 298.97919631 137.03937062 298.99588013 130.83299255 C299.00555483 128.65811964 299.03660051 126.48420547 299.06814575 124.30955505 C299.36354553 112.36982143 299.36354553 112.36982143 294.48025513 101.81858826 C288.50891748 96.27730556 281.13927204 96.09268636 273.47052002 96.12698364 C272.55617341 96.1231581 271.6418268 96.11933255 270.69977272 96.11539108 C267.64688615 96.10510179 264.59418909 96.1090455 261.54129028 96.11302185 C259.34799018 96.10867312 257.15469159 96.10348944 254.96139526 96.09753418 C249.0109649 96.08415013 243.06059807 96.08356487 237.11015558 96.08609748 C232.13999098 96.08716761 227.1698392 96.08228272 222.19967735 96.07749206 C209.80243699 96.06576482 197.40522794 96.06662078 185.0079857 96.07304887 C174.25417461 96.0782168 163.50045413 96.06696441 152.74666096 96.04795065 C141.69147523 96.0285546 130.63633443 96.02061052 119.58113182 96.0240739 C113.37977108 96.02588603 107.17849333 96.02325748 100.97714615 96.00935936 C95.14453095 95.99677661 89.312097 95.99872952 83.47948456 96.01177025 C81.34178226 96.0141346 79.20406719 96.01140642 77.06637955 96.00314713 C74.14228993 95.99266618 71.21880693 96.00079138 68.29473877 96.01345825 C67.45415676 96.00608397 66.61357476 95.99870968 65.74752057 95.99111193 C58.99885163 96.05237356 51.58529143 96.89850272 46.81814575 102.13768005 Z " fill="#2BB6A7" transform="translate(85.24435424804688,31.612319946289063)"/>
</svg>
