<?xml version="1.0" encoding="UTF-8"?>
<svg version="1.1" xmlns="http://www.w3.org/2000/svg" width="64" height="64">
<path d="M0 0 C1.21945313 -0.020625 2.43890625 -0.04125 3.6953125 -0.0625 C4.87609375 -0.06765625 6.056875 -0.0728125 7.2734375 -0.078125 C8.34770996 -0.0874707 9.42198242 -0.09681641 10.52880859 -0.10644531 C14.9989177 0.40817062 18.40182578 1.90029052 21.4375 5.25 C23.24955413 8.30188064 23.74880634 10.78375659 23.72265625 14.26171875 C23.71943359 15.01904297 23.71621094 15.77636719 23.71289062 16.55664062 C23.70032227 17.73516602 23.70032227 17.73516602 23.6875 18.9375 C23.68298828 19.73478516 23.67847656 20.53207031 23.67382812 21.35351562 C23.6620585 23.31904257 23.64412348 25.28453085 23.625 27.25 C21.975 26.92 20.325 26.59 18.625 26.25 C18.57601562 25.21359375 18.52703125 24.1771875 18.4765625 23.109375 C18.40150403 21.73955792 18.32595753 20.36976752 18.25 19 C18.2190625 18.31808594 18.188125 17.63617187 18.15625 16.93359375 C17.87263109 11.77539429 17.87263109 11.77539429 15.625 7.25 C10.48335643 5.53611881 5.06979988 6.02318708 -0.3125 6 C-2.10204102 5.9690625 -2.10204102 5.9690625 -3.92773438 5.9375 C-5.64766602 5.92976562 -5.64766602 5.92976562 -7.40234375 5.921875 C-8.45156006 5.9125293 -9.50077637 5.90318359 -10.58178711 5.89355469 C-13.77275553 6.30075807 -15.12563557 6.97503358 -17.375 9.25 C-18.84399817 15.98419686 -18.52427771 22.94595549 -18.5 29.8125 C-18.50386719 30.91013672 -18.50773437 32.00777344 -18.51171875 33.13867188 C-19.09454496 42.71088927 -19.09454496 42.71088927 -15.734375 51.14453125 C-12.64669424 52.5912426 -10.02298239 52.76760088 -6.625 52.9375 C-5.45453125 53.00324219 -4.2840625 53.06898437 -3.078125 53.13671875 C-2.18609375 53.17410156 -1.2940625 53.21148437 -0.375 53.25 C-0.045 54.9 0.285 56.55 0.625 58.25 C-1.60389496 58.30428973 -3.83317471 58.34292338 -6.0625 58.375 C-7.30386719 58.39820313 -8.54523437 58.42140625 -9.82421875 58.4453125 C-14.9560862 58.16303156 -17.25565538 57.32181095 -20.98510742 53.75073242 C-24.23644262 49.72550253 -24.06519632 45.87229146 -23.96875 40.87109375 C-23.96879028 39.98140396 -23.96883057 39.09171417 -23.96887207 38.17506409 C-23.96352972 36.30161441 -23.94600207 34.42816432 -23.91699219 32.55493164 C-23.87507796 29.6928236 -23.87593241 26.83306692 -23.8828125 23.97070312 C-23.87232091 22.14581704 -23.85938297 20.32094303 -23.84375 18.49609375 C-23.84354858 17.64389755 -23.84334717 16.79170135 -23.84313965 15.91368103 C-23.72969738 10.20225761 -22.61152279 6.9727234 -18.9375 2.5 C-14.04089479 -1.41728417 -5.87162924 0.02467071 0 0 Z " fill="#FE440E" transform="translate(29.375,2.75)"/>
<path d="M0 0 C5.713887 4.80860037 5.713887 4.80860037 6.13671875 9.05078125 C6.25682096 13.6778769 6.24779543 16.90769301 4.2734375 21.16015625 C0.45183028 25.18290069 -2.52932886 26.48546362 -8.0390625 27.09765625 C-13.49437889 26.8677387 -17.2948434 24.58343787 -21.0390625 20.59765625 C-22.72958602 15.92385592 -22.969795 11.55446686 -22.1015625 6.66015625 C-20.06992113 2.84744261 -17.37731502 0.4876714 -13.7890625 -1.83984375 C-8.88473264 -2.75227721 -4.30697264 -2.7458952 0 0 Z M-17.1015625 7.66015625 C-18.42100575 11.21250347 -18.09159533 12.6895594 -16.8515625 16.34765625 C-15.3403833 19.84513995 -15.3403833 19.84513995 -12.1015625 21.66015625 C-6.2162976 22.12315823 -6.2162976 22.12315823 -1.1015625 19.66015625 C1.39430518 16.08274591 1.99970085 14.39431553 1.3984375 10.03515625 C-0.28098077 6.25646514 -1.54340192 4.72885426 -5.1015625 2.66015625 C-10.21578238 1.76516777 -13.57159082 4.13018457 -17.1015625 7.66015625 Z " fill="#FE440E" transform="translate(52.1015625,34.33984375)"/>
<path d="M0 0 C1.00023193 0.00523682 2.00046387 0.01047363 3.03100586 0.01586914 C4.1105957 0.0190918 5.19018555 0.02231445 6.30249023 0.02563477 C8.00695312 0.03820313 8.00695312 0.03820313 9.74584961 0.05102539 C11.45611328 0.05779297 11.45611328 0.05779297 13.20092773 0.06469727 C16.02845312 0.07652792 18.85587601 0.09301129 21.68334961 0.11352539 C22.01334961 1.76352539 22.34334961 3.41352539 22.68334961 5.11352539 C14.43334961 5.11352539 6.18334961 5.11352539 -2.31665039 5.11352539 C-2.64665039 3.79352539 -2.97665039 2.47352539 -3.31665039 1.11352539 C-2.31665039 0.11352539 -2.31665039 0.11352539 0 0 Z " fill="#FE450E" transform="translate(19.316650390625,15.886474609375)"/>
<path d="M0 0 C1.93166016 0.01740234 1.93166016 0.01740234 3.90234375 0.03515625 C5.19269531 0.04417969 6.48304687 0.05320312 7.8125 0.0625 C8.81152344 0.07410156 9.81054688 0.08570312 10.83984375 0.09765625 C11.40234375 2.03515625 11.40234375 2.03515625 11.83984375 4.09765625 C10.83984375 5.09765625 10.83984375 5.09765625 7.6796875 5.1953125 C5.74802734 5.17791016 5.74802734 5.17791016 3.77734375 5.16015625 C2.48699219 5.15113281 1.19664063 5.14210938 -0.1328125 5.1328125 C-1.13183594 5.12121094 -2.13085938 5.10960937 -3.16015625 5.09765625 C-3.72265625 3.16015625 -3.72265625 3.16015625 -4.16015625 1.09765625 C-3.16015625 0.09765625 -3.16015625 0.09765625 0 0 Z " fill="#FE440E" transform="translate(20.16015625,26.90234375)"/>
<path d="M0 0 C1.32 0 2.64 0 4 0 C4.33 2.31 4.66 4.62 5 7 C5.99 7.33 6.98 7.66 8 8 C7.67 9.65 7.34 11.3 7 13 C4.69 12.34 2.38 11.68 0 11 C0 7.37 0 3.74 0 0 Z " fill="#FE440E" transform="translate(42,39)"/>
</svg>
