<?xml version="1.0" encoding="UTF-8"?>
<svg version="1.1" xmlns="http://www.w3.org/2000/svg" width="512" height="512">
<path d="M0 0 C1.05700712 -0.00644889 2.11401423 -0.01289778 3.20305187 -0.0195421 C4.9356197 -0.01489629 4.9356197 -0.01489629 6.7031889 -0.01015663 C7.93504931 -0.01468774 9.16690972 -0.01921886 10.43609923 -0.02388728 C13.85270262 -0.03436043 17.26909556 -0.03585663 20.68570006 -0.03349853 C24.37156821 -0.0330904 28.05740496 -0.04412909 31.74325848 -0.05361366 C38.9636347 -0.07022567 46.18397828 -0.0757233 53.40437201 -0.07683842 C59.27375458 -0.07778881 65.14312637 -0.08189867 71.01250553 -0.08823967 C87.65437853 -0.10585275 104.29622574 -0.11507845 120.93810812 -0.11357872 C121.83525198 -0.11349881 122.73239585 -0.1134189 123.65672588 -0.11333656 C125.00408539 -0.11321392 125.00408539 -0.11321392 126.37866428 -0.1130888 C140.93560393 -0.11227592 155.4924401 -0.13141401 170.04934982 -0.1596133 C184.99735816 -0.18834164 199.94531604 -0.20215361 214.89335269 -0.20042574 C223.28510577 -0.19976182 231.67675037 -0.20525524 240.06847858 -0.22678185 C247.21353167 -0.24499302 254.35842711 -0.24934157 261.50349335 -0.235763 C265.14808412 -0.22923291 268.79237246 -0.22911723 272.43693447 -0.2464695 C276.39049069 -0.2650991 280.34360532 -0.25264658 284.29718304 -0.23720741 C286.01971262 -0.2526381 286.01971262 -0.2526381 287.77704078 -0.26838052 C295.54620088 -0.20127353 300.92761416 0.95968567 306.93284893 6.22211266 C307.47167706 6.87308922 308.01050518 7.52406578 308.56566143 8.19476891 C309.11995831 8.84316734 309.67425518 9.49156578 310.24534893 10.15961266 C314.06236891 15.69944976 314.00794817 20.85198333 314.04466534 27.36835289 C314.05780773 28.38357018 314.07095013 29.39878746 314.08449078 30.44476891 C314.12385011 33.79763665 314.14725252 37.15032606 314.16722393 40.50336266 C314.17537498 41.64970743 314.18352604 42.79605221 314.1919241 43.9771347 C314.23359193 50.03998781 314.2622229 56.10275099 314.28099346 62.16571617 C314.30316138 68.42866277 314.37201796 74.69019574 314.45133686 80.95264149 C314.50358986 85.76965053 314.52036938 90.5863198 314.52755642 95.40358734 C314.53730282 97.71253681 314.56057326 100.02147036 314.59763241 102.33014297 C314.64627557 105.5601737 314.64451793 108.78650648 314.63060284 112.01679039 C314.66903301 113.44539139 314.66903301 113.44539139 314.70823956 114.90285301 C314.66613459 117.5845332 314.46786926 119.69100091 313.69066143 122.25726891 C312.09425312 123.78582335 312.09425312 123.78582335 310.07210159 125.12202263 C305.82776074 128.10194749 302.25513037 131.41713142 298.61212444 135.09529686 C297.94728139 135.75843106 297.28243834 136.42156526 296.59744853 137.10479444 C294.39043258 139.30853933 292.19060012 141.51931255 289.99071026 143.7301693 C288.40203386 145.31941035 286.81291593 146.90821012 285.22339153 148.49660301 C280.92165681 152.79776511 276.6261074 157.10505646 272.33165479 161.41348767 C267.83192539 165.92574972 263.32650276 170.43231992 258.82168865 174.93950462 C251.26054258 182.50615679 243.70289516 190.07628559 236.14793682 197.64911461 C228.38172223 205.43368023 220.61341646 213.21614914 212.84227276 220.9957943 C212.12382604 221.71502919 212.12382604 221.71502919 211.39086524 222.44879407 C208.98710124 224.85516897 206.58329555 227.26150221 204.17946875 229.66781437 C187.61671522 246.24777585 171.05836904 262.83212936 154.50462627 279.42108727 C153.80638436 280.12080837 153.10814244 280.82052948 152.38874167 281.54145426 C151.10540291 282.82753622 149.82209183 284.11364579 148.5388158 285.39979035 C147.96948406 285.97035548 147.40015233 286.54092061 146.81356812 287.1287756 C146.28304199 287.66266938 145.75251586 288.19656317 145.20591319 288.74663556 C143.77258854 290.17559151 142.31455736 291.57964029 140.85520744 292.98200703 C138.17548745 295.79879387 137.43048436 298.12505869 136.37425518 301.85101891 C136.19105221 302.47899376 136.00784924 303.10696861 135.81909466 303.75397301 C135.24005078 305.75102771 134.68359685 307.75353502 134.12816143 309.75726891 C133.75273523 311.07020648 133.37579273 312.38271147 132.99730206 313.69476891 C131.5360604 318.77434586 130.0791121 323.85483954 128.66820049 328.94867516 C128.33916729 330.09207359 128.01013409 331.23547203 127.67113018 332.41351891 C127.38777813 333.42221031 127.10442608 334.43090172 126.8124876 335.47015953 C125.18190073 339.52125414 122.60394572 342.2542471 119.49534893 345.25726891 C115.04005542 350.19473704 115.2569985 355.68224923 115.38597393 362.03070641 C115.90842508 367.56333016 117.49753098 371.17146186 121.52659893 375.00336266 C127.02432258 379.39522235 132.28970919 381.79969948 139.48363018 381.56586266 C144.16242522 380.91165946 149.84835964 379.58046428 152.89158916 375.74286461 C158.97504355 368.12837799 168.63133068 366.90869277 177.62816143 364.56976891 C180.21146511 363.88083956 182.7926392 363.18508147 185.37170696 362.48045921 C186.96841691 362.04601459 188.56778538 361.6211749 190.17013836 361.20802879 C198.4012423 359.00590884 204.12037056 356.41266831 209.57472515 349.74310875 C212.20605618 346.65177392 215.03011585 343.80038468 217.90135479 340.93305016 C218.481899 340.35204552 219.06244322 339.77104088 219.66057968 339.17243004 C221.53185436 337.30282647 223.40613577 335.43626939 225.28050518 333.56976891 C226.59351449 332.2586279 227.9063008 330.94726354 229.21887493 329.63568687 C232.65085799 326.20749653 236.08583492 322.78232169 239.52147198 319.35779381 C243.0360833 315.85346687 246.54781632 312.34625807 250.05980206 308.83930016 C256.93396187 301.97582033 263.81129212 295.1155269 270.69066143 288.25726891 C273.75305393 289.60549202 274.7609758 290.34968207 276.87816143 293.13226891 C280.56682409 297.72060539 285.44149838 299.8096288 291.21409893 300.60492516 C298.66551131 300.86859052 304.43853356 299.02738882 310.42894268 294.64398766 C311.04422832 294.19628014 311.65951397 293.74857262 312.29344463 293.2872982 C312.75452618 292.94738853 313.21560772 292.60747887 313.69066143 292.25726891 C313.78422742 308.1562675 313.85470053 324.05519139 313.89791012 339.9543972 C313.91850906 347.33718651 313.94657826 354.71980445 313.99241924 362.10248375 C314.03236916 368.53949286 314.05811363 374.97637782 314.06701541 381.41350746 C314.07221648 384.81993803 314.08438421 388.22601351 314.11358166 391.63232994 C314.14265307 395.4411168 314.14661566 399.24917005 314.14476299 403.05805016 C314.16633465 404.7401181 314.16633465 404.7401181 314.18834209 406.45616722 C314.14771574 414.18399096 312.959274 419.52728159 307.72581768 425.49945641 C307.07484112 426.03828453 306.42386456 426.57711266 305.75316143 427.13226891 C305.10476299 427.68656578 304.45636456 428.24086266 303.78831768 428.81195641 C299.77782399 431.57523883 296.218872 432.50705799 291.38132286 432.51453781 C290.32431575 432.5209867 289.26730863 432.5274356 288.178271 432.53407991 C287.02322578 432.53098271 285.86818056 432.5278855 284.67813396 432.52469444 C283.44627355 432.52922556 282.21441314 432.53375667 280.94522363 432.53842509 C277.52862024 432.54889824 274.11222731 432.55039444 270.6956228 432.54803634 C267.00975465 432.54762821 263.3239179 432.5586669 259.63806438 432.56815147 C252.41768816 432.58476349 245.19734458 432.59026111 237.97695085 432.59137623 C232.10756828 432.59232662 226.23819649 432.59643649 220.36881733 432.60277748 C203.72694433 432.62039056 187.08509712 432.62961627 170.44321474 432.62811653 C169.54607088 432.62803662 168.64892702 432.62795671 167.72459698 432.62787437 C166.37723747 432.62775173 166.37723747 432.62775173 165.00265858 432.62762661 C150.44571893 432.62681373 135.88888276 432.64595182 121.33197304 432.67415111 C106.3839647 432.70287945 91.43600682 432.71669143 76.48797017 432.71496356 C68.09621709 432.71429963 59.70457249 432.71979305 51.31284428 432.74131966 C44.1677912 432.75953083 37.02289575 432.76387938 29.87782951 432.75030081 C26.23323874 432.74377072 22.5889504 432.74365504 18.94438839 432.76100731 C14.99083217 432.77963691 11.03771754 432.7671844 7.08413982 432.75174522 C5.93578677 432.76203235 4.78743371 432.77231948 3.60428208 432.78291833 C-4.16487802 432.71581134 -9.5462913 431.55485214 -15.55152607 426.29242516 C-16.09035419 425.64144859 -16.62918232 424.99047203 -17.18433857 424.31976891 C-17.73863544 423.67137047 -18.29293232 423.02297203 -18.86402607 422.35492516 C-21.99737464 417.80733548 -22.56019889 413.91994502 -22.56660748 408.44866276 C-22.57186659 407.43564499 -22.57186659 407.43564499 -22.57723194 406.40216222 C-22.58655025 404.13476292 -22.58162159 401.86762021 -22.57676411 399.60021019 C-22.58050015 397.95992378 -22.58510149 396.31963915 -22.59049475 394.67935735 C-22.60274582 390.16825226 -22.60246181 385.6572212 -22.600106 381.14610326 C-22.59969837 376.28231368 -22.61073187 371.418548 -22.62022114 366.55476952 C-22.63684363 357.02430159 -22.64233125 347.49385841 -22.64344589 337.9633772 C-22.64439577 330.21756526 -22.64850304 322.4717615 -22.65484715 314.72595215 C-22.67246291 292.77167774 -22.68168548 270.8174229 -22.6801862 248.86314138 C-22.68010628 247.67924594 -22.68002637 246.49535051 -22.67994404 245.27557945 C-22.67986228 244.09024076 -22.67978052 242.90490208 -22.67969628 241.68364403 C-22.67888327 222.47081612 -22.69802384 203.25806659 -22.72622077 184.04526135 C-22.75493573 164.32408241 -22.76876183 144.60294172 -22.76703322 124.88174134 C-22.76636884 113.80721402 -22.77188209 102.73276886 -22.79338932 91.65826035 C-22.81158284 82.22951608 -22.81596349 72.80089123 -22.80237047 63.37213703 C-22.79583161 58.56101953 -22.79575675 53.75013124 -22.81307697 48.93903542 C-22.82877213 44.53405235 -22.82598055 40.1294809 -22.80850871 35.72450808 C-22.80543096 34.13165717 -22.80910034 32.5387758 -22.82022886 30.94596078 C-22.88122229 21.5961784 -22.78646107 14.36635105 -16.34449482 7.01508141 C-15.69351826 6.47625328 -15.04254169 5.93742516 -14.37183857 5.38226891 C-13.72344013 4.82797203 -13.07504169 4.27367516 -12.40699482 3.70258141 C-8.39650113 0.93929898 -4.83754914 0.00747982 0 0 Z M26.69066143 66.25726891 C24.61089431 68.41798357 24.61089431 68.41798357 23.69066143 71.25726891 C24.45238834 74.78891186 25.12937555 76.69598303 27.69066143 79.25726891 C31.73608524 80.5760044 35.82329618 80.40230498 40.03451824 80.3977108 C41.30842138 80.40216748 41.30842138 80.40216748 42.60805994 80.4067142 C45.458439 80.41539714 48.30877605 80.41690909 51.15916729 80.41840172 C53.20088065 80.42303008 55.24259314 80.42805476 57.28430462 80.43344688 C62.83381294 80.44656883 68.38330916 80.45301513 73.93283057 80.45745754 C77.39833378 80.46038784 80.86383367 80.46449251 84.32933521 80.46896172 C95.16769805 80.48263443 106.00605332 80.49230291 116.84442419 80.49616361 C129.3645639 80.50064771 141.88459461 80.51821294 154.40470117 80.5471642 C164.07781828 80.56875765 173.75090466 80.57886659 183.42404562 80.58020473 C189.2039131 80.58125418 194.98367809 80.58719219 200.76352024 80.60502434 C206.19800027 80.62146519 211.63230032 80.62367993 217.0667963 80.61488533 C219.06266288 80.61411289 221.05853899 80.61848482 223.05438137 80.62834358 C225.77641067 80.64100239 228.49779662 80.63521946 231.21982098 80.62476158 C232.01184554 80.63281799 232.8038701 80.64087439 233.6198954 80.64917493 C239.41495576 80.59700726 242.63137782 79.31655252 246.69066143 75.25726891 C247.19108289 72.34188862 247.19108289 72.34188862 246.69066143 69.25726891 C244.45859712 66.40946272 243.14073144 65.40729224 239.69066143 64.25726891 C236.94104095 64.15911792 234.21681216 64.11821439 231.46705914 64.12355614 C230.6186448 64.12129058 229.77023046 64.11902502 228.8961066 64.11669081 C226.04261769 64.11034186 223.18917617 64.11118075 220.33568096 64.11200523 C218.29411539 64.1090143 216.25255039 64.10561192 214.21098614 64.10182762 C208.65728316 64.0929767 203.10359558 64.09064905 197.54988623 64.09001184 C192.91755347 64.08906352 188.28522432 64.08538611 183.65289295 64.08183974 C172.72586471 64.07369101 161.7988447 64.07125588 150.87181377 64.07196617 C139.59117931 64.07256707 128.31059265 64.06201374 117.02997029 64.04622251 C107.35262709 64.03315719 97.67529953 64.02778185 87.99794757 64.02842158 C82.21473727 64.02867687 76.43156942 64.02580884 70.64836788 64.01524353 C65.20982513 64.00557953 59.77136558 64.0054717 54.33281994 64.01276016 C52.33534531 64.01380812 50.33786554 64.01143064 48.34039974 64.0053997 C45.61624493 63.99770666 42.89237939 64.00230678 40.16823101 64.01003075 C39.37552433 64.00488718 38.58281765 63.99974362 37.76608956 63.99444419 C33.64639451 64.0203032 30.34904351 64.2889151 26.69066143 66.25726891 Z M26.69066143 106.25726891 C24.61089431 108.41798357 24.61089431 108.41798357 23.69066143 111.25726891 C24.45238834 114.78891186 25.12937555 116.69598303 27.69066143 119.25726891 C31.73608524 120.5760044 35.82329618 120.40230498 40.03451824 120.3977108 C41.30842138 120.40216748 41.30842138 120.40216748 42.60805994 120.4067142 C45.458439 120.41539714 48.30877605 120.41690909 51.15916729 120.41840172 C53.20088065 120.42303008 55.24259314 120.42805476 57.28430462 120.43344688 C62.83381294 120.44656883 68.38330916 120.45301513 73.93283057 120.45745754 C77.39833378 120.46038784 80.86383367 120.46449251 84.32933521 120.46896172 C95.16769805 120.48263443 106.00605332 120.49230291 116.84442419 120.49616361 C129.3645639 120.50064771 141.88459461 120.51821294 154.40470117 120.5471642 C164.07781828 120.56875765 173.75090466 120.57886659 183.42404562 120.58020473 C189.2039131 120.58125418 194.98367809 120.58719219 200.76352024 120.60502434 C206.19800027 120.62146519 211.63230032 120.62367993 217.0667963 120.61488533 C219.06266288 120.61411289 221.05853899 120.61848482 223.05438137 120.62834358 C225.77641067 120.64100239 228.49779662 120.63521946 231.21982098 120.62476158 C232.01184554 120.63281799 232.8038701 120.64087439 233.6198954 120.64917493 C239.41495576 120.59700726 242.63137782 119.31655252 246.69066143 115.25726891 C247.19108289 112.34188862 247.19108289 112.34188862 246.69066143 109.25726891 C244.45859712 106.40946272 243.14073144 105.40729224 239.69066143 104.25726891 C236.94104095 104.15911792 234.21681216 104.11821439 231.46705914 104.12355614 C230.6186448 104.12129058 229.77023046 104.11902502 228.8961066 104.11669081 C226.04261769 104.11034186 223.18917617 104.11118075 220.33568096 104.11200523 C218.29411539 104.1090143 216.25255039 104.10561192 214.21098614 104.10182762 C208.65728316 104.0929767 203.10359558 104.09064905 197.54988623 104.09001184 C192.91755347 104.08906352 188.28522432 104.08538611 183.65289295 104.08183974 C172.72586471 104.07369101 161.7988447 104.07125588 150.87181377 104.07196617 C139.59117931 104.07256707 128.31059265 104.06201374 117.02997029 104.04622251 C107.35262709 104.03315719 97.67529953 104.02778185 87.99794757 104.02842158 C82.21473727 104.02867687 76.43156942 104.02580884 70.64836788 104.01524353 C65.20982513 104.00557953 59.77136558 104.0054717 54.33281994 104.01276016 C52.33534531 104.01380812 50.33786554 104.01143064 48.34039974 104.0053997 C45.61624493 103.99770666 42.89237939 104.00230678 40.16823101 104.01003075 C39.37552433 104.00488718 38.58281765 103.99974362 37.76608956 103.99444419 C33.64639451 104.0203032 30.34904351 104.2889151 26.69066143 106.25726891 Z M26.69066143 146.25726891 C24.61089431 148.41798357 24.61089431 148.41798357 23.69066143 151.25726891 C24.45238834 154.78891186 25.12937555 156.69598303 27.69066143 159.25726891 C31.73608524 160.5760044 35.82329618 160.40230498 40.03451824 160.3977108 C41.30842138 160.40216748 41.30842138 160.40216748 42.60805994 160.4067142 C45.458439 160.41539714 48.30877605 160.41690909 51.15916729 160.41840172 C53.20088065 160.42303008 55.24259314 160.42805476 57.28430462 160.43344688 C62.83381294 160.44656883 68.38330916 160.45301513 73.93283057 160.45745754 C77.39833378 160.46038784 80.86383367 160.46449251 84.32933521 160.46896172 C95.16769805 160.48263443 106.00605332 160.49230291 116.84442419 160.49616361 C129.3645639 160.50064771 141.88459461 160.51821294 154.40470117 160.5471642 C164.07781828 160.56875765 173.75090466 160.57886659 183.42404562 160.58020473 C189.2039131 160.58125418 194.98367809 160.58719219 200.76352024 160.60502434 C206.19800027 160.62146519 211.63230032 160.62367993 217.0667963 160.61488533 C219.06266288 160.61411289 221.05853899 160.61848482 223.05438137 160.62834358 C225.77641067 160.64100239 228.49779662 160.63521946 231.21982098 160.62476158 C232.01184554 160.63281799 232.8038701 160.64087439 233.6198954 160.64917493 C239.41495576 160.59700726 242.63137782 159.31655252 246.69066143 155.25726891 C247.19108289 152.34188862 247.19108289 152.34188862 246.69066143 149.25726891 C244.45859712 146.40946272 243.14073144 145.40729224 239.69066143 144.25726891 C236.94104095 144.15911792 234.21681216 144.11821439 231.46705914 144.12355614 C230.6186448 144.12129058 229.77023046 144.11902502 228.8961066 144.11669081 C226.04261769 144.11034186 223.18917617 144.11118075 220.33568096 144.11200523 C218.29411539 144.1090143 216.25255039 144.10561192 214.21098614 144.10182762 C208.65728316 144.0929767 203.10359558 144.09064905 197.54988623 144.09001184 C192.91755347 144.08906352 188.28522432 144.08538611 183.65289295 144.08183974 C172.72586471 144.07369101 161.7988447 144.07125588 150.87181377 144.07196617 C139.59117931 144.07256707 128.31059265 144.06201374 117.02997029 144.04622251 C107.35262709 144.03315719 97.67529953 144.02778185 87.99794757 144.02842158 C82.21473727 144.02867687 76.43156942 144.02580884 70.64836788 144.01524353 C65.20982513 144.00557953 59.77136558 144.0054717 54.33281994 144.01276016 C52.33534531 144.01380812 50.33786554 144.01143064 48.34039974 144.0053997 C45.61624493 143.99770666 42.89237939 144.00230678 40.16823101 144.01003075 C39.37552433 144.00488718 38.58281765 143.99974362 37.76608956 143.99444419 C33.64639451 144.0203032 30.34904351 144.2889151 26.69066143 146.25726891 Z M26.69066143 186.25726891 C24.61089431 188.41798357 24.61089431 188.41798357 23.69066143 191.25726891 C24.45238834 194.78891186 25.12937555 196.69598303 27.69066143 199.25726891 C31.76618281 200.58730651 35.90019783 200.41247705 40.14354229 200.41840172 C41.41984257 200.42584908 41.41984257 200.42584908 42.72192669 200.43344688 C45.53312777 200.44803729 48.34427247 200.45486445 51.15550518 200.46039391 C53.11079186 200.46614685 55.06607852 200.47190457 57.02136517 200.47766685 C61.11938521 200.48816721 65.21738569 200.49401655 69.31541729 200.49750328 C74.56570064 200.5029934 79.81572536 200.52703658 85.06592751 200.55547523 C89.10396361 200.57409801 93.14193728 200.57930697 97.1800127 200.58083916 C99.11569988 200.58386579 101.05138596 200.59189469 102.98703098 200.60502434 C105.69435001 200.62208117 108.40103506 200.62020578 111.10838604 200.61371422 C111.90699047 200.622929 112.7055949 200.63214378 113.52839947 200.6416378 C119.37119342 200.59775684 122.59777262 199.35015771 126.69066143 195.25726891 C127.19108289 192.34188862 127.19108289 192.34188862 126.69066143 189.25726891 C124.45859712 186.40946272 123.14073144 185.40729224 119.69066143 184.25726891 C116.90264917 184.15563338 114.13955266 184.11043404 111.35130596 184.11200523 C110.50058514 184.10864662 109.64986431 184.10528801 108.77336407 184.10182762 C105.95671923 184.09231675 103.14013383 184.09037441 100.32347393 184.08930016 C98.36675778 184.08608757 96.41004187 184.0827235 94.45332623 184.0792141 C90.34932683 184.07322242 86.24534849 184.07137423 82.14134502 184.07196617 C76.88324349 184.07206777 71.62527705 184.05841774 66.36720753 184.04119396 C62.32488161 184.03007362 58.28258833 184.02804698 54.24024868 184.0285759 C52.3017801 184.02739575 50.36331067 184.02297204 48.42485714 184.01524353 C45.71274395 184.00544343 43.0009239 184.00832184 40.28880596 184.01434898 C39.08854275 184.00591972 39.08854275 184.00591972 37.86403179 183.99732018 C33.71244348 184.02075783 30.37585833 184.26683943 26.69066143 186.25726891 Z " fill="#000000" transform="translate(110.30933856964111,39.74273109436035)"/>
<path d="M0 0 C2.46542557 1.1716478 4.02694263 2.71175212 5.94844151 4.65149307 C6.74896946 5.45224762 7.54949741 6.25300217 8.37428379 7.078022 C9.22858982 7.94781189 10.08289585 8.81760178 10.96308994 9.71374893 C12.28636295 11.04338921 12.28636295 11.04338921 13.63636875 12.3998909 C15.97625072 14.75372325 18.30941893 17.11383022 20.63960361 19.4772377 C23.02061157 21.88897685 25.41017347 24.29220747 27.79902744 26.69617081 C32.48143274 31.41167327 37.15517223 36.13563424 41.82246494 40.86609268 C40.27413681 44.55604103 38.03448712 46.90071979 35.21611118 49.71295547 C34.74479381 50.1859817 34.27347644 50.65900792 33.78787673 51.14636827 C32.20955497 52.72798063 30.62419817 54.30234497 29.03877354 55.87683487 C27.90505844 57.00998577 26.77178367 58.14357736 25.63891697 59.27757645 C22.56301752 62.35405004 19.48098773 65.42431542 16.39783144 68.49351406 C13.17648045 71.70236806 9.96078705 74.91688141 6.74449253 78.13080215 C0.65347015 84.21560674 -5.44263285 90.29529484 -11.54057157 96.37316728 C-18.48275778 103.29300383 -25.41927023 110.21851585 -32.35530877 117.14451361 C-46.62307407 131.39137013 -60.89795974 145.63107397 -75.17753506 159.86609268 C-78.42993977 158.3167843 -80.65022293 156.65988278 -83.22758389 154.12244034 C-84.01131878 153.35469284 -84.79505367 152.58694534 -85.60253811 151.79593277 C-86.43810741 150.96572617 -87.27367672 150.13551956 -88.13456631 149.28015518 C-88.99692394 148.42682602 -89.85928158 147.57349686 -90.74777126 146.69430923 C-92.56684847 144.88973172 -94.38313333 143.08233569 -96.19682217 141.27234268 C-98.9846292 138.49647539 -101.79053597 135.73980097 -104.59745693 132.98328018 C-106.36097269 131.22922325 -108.12338126 129.47405229 -109.88456631 127.71765518 C-110.73025677 126.89149704 -111.57594723 126.0653389 -112.44726467 125.21414566 C-113.21523876 124.44009384 -113.98321285 123.66604202 -114.77445889 122.86853409 C-115.45744549 122.19061813 -116.14043209 121.51270218 -116.84411526 120.81424332 C-118.17753506 118.86609268 -118.17753506 118.86609268 -118.03957272 117.04768276 C-116.84390745 114.02176916 -115.01302982 112.31734083 -112.71835232 110.01250076 C-112.01689129 109.30190308 -112.01689129 109.30190308 -111.30125934 108.57694989 C-109.73154598 106.99058006 -108.15130248 105.41514264 -106.5708456 103.83948135 C-105.44358727 102.70488442 -104.31695432 101.56966586 -103.19090176 100.43387222 C-100.12983746 97.35056594 -97.05917091 94.2769959 -93.98602176 91.20573974 C-91.42359842 88.64343593 -88.86552745 86.07680834 -86.30733806 83.51027852 C-80.27478404 77.4584823 -74.23407948 71.41490571 -68.18852139 65.37610245 C-61.94437482 59.13860401 -55.71515036 52.88647843 -49.49288815 46.62715548 C-44.15487968 41.25850576 -38.80730919 35.89951324 -33.45200855 30.54811269 C-30.25141586 27.34959255 -27.05475573 24.14736957 -23.86742115 20.93563271 C-20.87188823 17.91792619 -17.86465653 14.91240049 -14.8478384 11.91597748 C-13.74053702 10.81210235 -12.6375199 9.70391109 -11.53907108 8.59122658 C-10.04316505 7.07727393 -8.53281912 5.57942218 -7.01766872 4.08476639 C-6.17460517 3.24099032 -5.33154161 2.39721426 -4.46293068 1.52786922 C-2.17753506 -0.13390732 -2.17753506 -0.13390732 0 0 Z " fill="#000000" transform="translate(388.17753505706787,217.13390731811523)"/>
<path d="M0 0 C7.58905226 4.39257644 12.628545 10.71100827 15.00390625 19.1796875 C16.39293597 26.81309409 16.17060827 34.63781459 12.4375 41.5625 C9.62243605 45.40076982 6.60422256 49.01072523 3.4375 52.5625 C4.3455162 53.69449353 5.26433826 54.81782363 6.1875 55.9375 C6.69796875 56.56398437 7.2084375 57.19046875 7.734375 57.8359375 C9.51949481 59.64562318 11.11699644 60.56367455 13.4375 61.5625 C14.30375 60.758125 15.17 59.95375 16.0625 59.125 C19.11846887 56.60112924 21.37269289 55.5625 25.4375 55.5625 C28.96656067 57.16661848 30.26522908 58.30409362 32.4375 61.5625 C32.58402579 66.89676335 31.77816049 69.63987025 28.21766663 73.63084412 C26.77254363 75.09919968 25.30794127 76.54854081 23.82836914 77.98217773 C22.6332798 79.18120979 22.6332798 79.18120979 21.41404724 80.40446472 C18.78332185 83.0354113 16.12858113 85.64060839 13.47265625 88.24609375 C11.63896379 90.06926459 9.80674327 91.89391698 7.97593689 93.71998596 C4.14018427 97.53899543 0.29411785 101.34708766 -3.56225586 105.14526367 C-9.00378037 110.50470816 -14.42230843 115.88694807 -19.83649623 121.27398765 C-27.48412993 128.88047909 -35.1422914 136.47647787 -42.82397461 144.04858398 C-43.58197357 144.79918091 -44.33997253 145.54977783 -45.12094116 146.32312012 C-46.15783836 147.34278114 -46.15783836 147.34278114 -47.21568298 148.38304138 C-47.81723678 148.97642524 -48.41879057 149.56980909 -49.03857327 150.18117428 C-51.96282472 152.83178973 -54.68687958 152.96614652 -58.5859375 152.90234375 C-60.5625 152.5625 -60.5625 152.5625 -63.0625 150.5 C-65.07887315 146.55126925 -65.50005296 144.96178696 -64.5625 140.5625 C-58.22763205 132.2078885 -50.07313487 124.94168254 -42.65234375 117.5546875 C-41.43187308 116.33608682 -40.21162663 115.11726152 -38.99159241 113.89822388 C-35.81281986 110.7232308 -32.63105383 107.55125484 -29.4486084 104.37994385 C-26.18849922 101.13014824 -22.93129429 97.87744448 -19.67382812 94.625 C-13.30619006 88.26801842 -6.93537893 81.91422729 -0.5625 75.5625 C-1.4705162 74.43050647 -2.38933826 73.30717637 -3.3125 72.1875 C-3.82296875 71.56101562 -4.3334375 70.93453125 -4.859375 70.2890625 C-6.72440313 68.21262905 -6.72440313 68.21262905 -10.5625 66.5625 C-13.2025 69.2025 -15.8425 71.8425 -18.5625 74.5625 C-22.09955662 72.79397169 -23.8762448 71.51277144 -26.61254883 68.81884766 C-27.39628372 68.05110016 -28.18001862 67.28335266 -28.98750305 66.49234009 C-29.82307236 65.66213348 -30.65864166 64.83192688 -31.51953125 63.9765625 C-32.38188889 63.12323334 -33.24424652 62.26990417 -34.13273621 61.39071655 C-35.95181341 59.58613904 -37.76809827 57.77874301 -39.58178711 55.96875 C-42.36959414 53.19288271 -45.17550092 50.43620828 -47.98242188 47.6796875 C-49.74593764 45.92563056 -51.5083462 44.17045961 -53.26953125 42.4140625 C-54.11522171 41.58790436 -54.96091217 40.76174622 -55.83222961 39.91055298 C-56.6002037 39.13650116 -57.3681778 38.36244934 -58.15942383 37.56494141 C-58.84241043 36.88702545 -59.52539703 36.2091095 -60.2290802 35.51065063 C-61.5625 33.5625 -61.5625 33.5625 -61.41105652 31.47247314 C-60.08204188 28.48106101 -57.82705071 26.40025199 -55.53125 24.1328125 C-55.02130493 23.61999725 -54.51135986 23.10718201 -53.98596191 22.5788269 C-52.90350842 21.49433345 -51.81726321 20.41361328 -50.72753906 19.33642578 C-49.08566859 17.71044438 -47.46020399 16.0693254 -45.8359375 14.42578125 C-33.01447177 1.57635747 -18.45813834 -8.41336861 0 0 Z " fill="#000000" transform="translate(460.5625,173.4375)"/>
<path d="M0 0 C5.12803756 4.29678885 9.95013808 8.79010433 14.68359375 13.515625 C15.38396255 14.21266541 16.08433136 14.90970581 16.80592346 15.62786865 C18.27190383 17.08882079 19.7365636 18.55109918 21.19995117 20.01464844 C23.45016667 22.26265424 25.70828991 24.50251569 27.96679688 26.7421875 C29.39371722 28.16617778 30.8201668 29.59063998 32.24609375 31.015625 C32.92409531 31.68644104 33.60209686 32.35725708 34.30064392 33.04840088 C34.91871414 33.66954773 35.53678436 34.29069458 36.17358398 34.93066406 C36.72094711 35.47660217 37.26831024 36.02254028 37.83226013 36.58502197 C39 38 39 38 39 40 C37.33614258 40.43699219 37.33614258 40.43699219 35.63867188 40.8828125 C31.48612838 41.98120521 27.34407033 43.11546123 23.20410156 44.26025391 C21.41831203 44.74878246 19.62989666 45.22782339 17.83886719 45.69677734 C3.66252675 49.34541316 3.66252675 49.34541316 -7 59 C-9.88861709 60.44430855 -11.79647701 60.37688506 -15 60 C-18.81183681 57.34828743 -19.84146176 55.74391019 -20.8125 51.1875 C-20.64679198 48.45582842 -20.34096047 47.34850014 -18.41015625 45.375 C-17.73855469 44.818125 -17.06695312 44.26125 -16.375 43.6875 C-10.18952544 38.10097104 -8.86894768 30.45796764 -6.74414062 22.68310547 C-5.70763585 18.94583925 -4.57719637 15.23896246 -3.44970703 11.52832031 C-2.28418073 7.69015732 -1.14257539 3.84504982 0 0 Z " fill="#000000" transform="translate(260,347)"/>
</svg>
