<?xml version="1.0" encoding="UTF-8"?>
<svg version="1.1" xmlns="http://www.w3.org/2000/svg" width="512" height="512">
<path d="M0 0 C16.34827142 12.88252908 28.03008822 30.32152441 31.578125 51.05859375 C31.95577868 54.73166383 32.15231371 58.39255601 32.23828125 62.08203125 C32.26446533 62.7560498 32.29064941 63.43006836 32.31762695 64.12451172 C32.33448024 69.16926119 30.99206336 71.94389144 27.86328125 75.83203125 C22.83493092 80.26176845 19.98162834 81.13219713 13.40234375 81.046875 C8.63375953 80.64337941 5.84897922 78.87249021 2.61328125 75.45703125 C-0.58613256 70.65791053 -1.40292284 66.47862364 -1.94921875 60.76953125 C-3.36200954 48.72021211 -7.96319066 38.27092092 -17.08203125 30.0859375 C-28.9281334 20.77164934 -41.39758714 18.56735284 -56.13671875 19.83203125 C-67.78114247 21.9132744 -77.73647173 28.79052395 -84.63671875 38.328125 C-89.01984696 45.64475308 -92.19659217 53.49886689 -92.34204102 62.05957031 C-92.36198624 63.10034729 -92.38193146 64.14112427 -92.40248108 65.21343994 C-92.41919357 66.33023132 -92.43590607 67.44702271 -92.453125 68.59765625 C-92.48429665 70.32045807 -92.48429665 70.32045807 -92.51609802 72.07806396 C-92.58146868 75.74599236 -92.64042069 79.41399218 -92.69921875 83.08203125 C-92.74241582 85.56901779 -92.7860305 88.05599712 -92.83007812 90.54296875 C-92.93713733 96.63924747 -93.038927 102.7355972 -93.13671875 108.83203125 C-92.30407627 108.82235242 -92.30407627 108.82235242 -91.45461273 108.81247807 C-77.82700761 108.65658282 -64.19956267 108.54187702 -50.57125092 108.46934605 C-43.98010128 108.4330719 -37.38960303 108.38400122 -30.79882812 108.30395508 C-24.41854101 108.22696501 -18.03887373 108.18584783 -11.65815735 108.16789055 C-9.24406701 108.15512127 -6.83000416 108.1301953 -4.41618347 108.09192085 C28.75697776 107.58763473 58.45362974 118.47774987 82.73144531 141.23535156 C104.69680449 162.68823314 115.64901636 192.2024998 116.09762859 222.60231304 C116.14116528 228.36523409 116.13986191 234.12758308 116.12890625 239.890625 C116.13025658 242.40918515 116.13220016 244.92774505 116.13470459 247.44630432 C116.13763908 252.70356255 116.13360841 257.96076949 116.12402344 263.21801758 C116.11435181 268.58393989 116.11434308 273.94975153 116.12402344 279.31567383 C116.13569118 285.84285448 116.13740013 292.36995483 116.13091278 298.89714241 C116.12958989 301.36519452 116.13117561 303.83325015 116.13587189 306.30129814 C116.18457845 339.08664716 116.18457845 339.08664716 111.36328125 354.64453125 C111.10828857 355.47291504 110.8532959 356.30129883 110.59057617 357.15478516 C101.17070973 386.06280399 80.5148027 408.96733196 53.67089844 422.92529297 C33.16500918 433.21147243 12.92844669 434.45634792 -9.68828583 434.36933327 C-13.22140107 434.35902067 -16.75448024 434.36864844 -20.28759766 434.37487793 C-26.21459548 434.38210237 -32.14139226 434.37270522 -38.06835938 434.35351562 C-44.86624331 434.33175684 -51.66364691 434.33881195 -58.46151924 434.36082125 C-64.3568837 434.37912556 -70.25210578 434.38146114 -76.14748955 434.37106657 C-79.64277866 434.36491315 -83.13784403 434.36376496 -86.63311768 434.37721252 C-122.76475449 434.49708994 -152.25691151 426.2634252 -178.70214844 400.28076172 C-200.70899477 378.05669328 -210.26378518 348.20681218 -210.29785156 317.44165039 C-210.30281647 316.34904907 -210.30778137 315.25644775 -210.31289673 314.1307373 C-210.32741016 310.54288077 -210.33430344 306.95506848 -210.33984375 303.3671875 C-210.34267113 302.13132841 -210.3454985 300.89546932 -210.34841156 299.62215996 C-210.36182787 293.74939271 -210.37173466 287.8766412 -210.37561345 282.00385958 C-210.3796352 275.9522919 -210.39185303 269.90088022 -210.41796875 263.84936523 C-210.44572033 257.31496627 -210.45837434 250.78070064 -210.460289 244.24624443 C-210.46328723 241.77507857 -210.4712181 239.30391296 -210.48447418 236.83278084 C-210.67018133 199.54282994 -203.17555238 169.54615748 -177.13671875 141.83203125 C-176.62109375 141.24035156 -176.10546875 140.64867187 -175.57421875 140.0390625 C-167.40598688 131.08378746 -156.17420156 124.49208977 -145.32421875 119.33203125 C-144.34026123 118.86132202 -144.34026123 118.86132202 -143.33642578 118.38110352 C-139.42741069 116.60881636 -135.5206124 115.33498633 -131.37231445 114.22851562 C-130.38955032 113.96502319 -129.40678619 113.70153076 -128.39424133 113.43005371 C-127.64925888 113.2327063 -126.90427643 113.03535889 -126.13671875 112.83203125 C-126.1456012 112.13062515 -126.15448364 111.42921906 -126.16363525 110.70655823 C-126.24460938 104.01608756 -126.30509599 97.32575848 -126.34396744 90.63490391 C-126.36462521 87.19705955 -126.39252866 83.75962822 -126.43847656 80.32202148 C-126.91001777 44.04786369 -126.91001777 44.04786369 -118.44921875 28.45703125 C-118.10673096 27.80331543 -117.76424316 27.14959961 -117.41137695 26.47607422 C-106.76022918 6.86023049 -89.29120211 -5.68496705 -68.4140625 -12.2578125 C-44.97450148 -18.76724959 -19.79300979 -13.68010016 0 0 Z M-97.38671875 206.45703125 C-109.112564 221.89847356 -112.35287933 240.03270911 -109.84814453 259.01953125 C-107.95288364 269.11402145 -103.11589806 279.17300763 -95.63671875 286.26953125 C-93.74042676 288.40129052 -93.15531066 289.47817091 -93.00366211 292.36450195 C-94.01141685 303.0222195 -95.80265269 313.51739876 -97.62817383 324.05908203 C-98.0447653 326.47718112 -98.45238385 328.89667568 -98.859375 331.31640625 C-98.98748062 332.03850281 -99.11558624 332.76059937 -99.24757385 333.50457764 C-100.49429194 340.95019392 -101.58005823 348.31513334 -97.13671875 354.83203125 C-92.6310536 359.37462809 -89.0325777 360.93640611 -82.62628174 360.98977661 C-81.87973328 360.99089447 -81.13318481 360.99201233 -80.36401367 360.99316406 C-79.17812401 361.00061142 -79.17812401 361.00061142 -77.96827698 361.00820923 C-75.35123831 361.02282106 -72.73426027 361.02963145 -70.1171875 361.03515625 C-68.2973887 361.04090881 -66.47758991 361.04666653 -64.65779114 361.0524292 C-60.8404614 361.0629366 -57.02315271 361.06878088 -53.20581055 361.07226562 C-48.31991409 361.07774775 -43.43429667 361.10177085 -38.54848766 361.13023758 C-34.78834731 361.14888345 -31.02827388 361.15407061 -27.2680912 361.1556015 C-25.46720162 361.15862449 -23.66631312 361.1666411 -21.86546898 361.17978668 C-19.34263408 361.19688695 -16.82047715 361.19495729 -14.29760742 361.18847656 C-13.18689377 361.20229874 -13.18689377 361.20229874 -12.05374146 361.21640015 C-6.6535986 361.17305761 -2.52836569 360.01348594 1.5078125 356.33203125 C6.34353065 350.12161062 6.45454162 345.01001093 5.58764648 337.41815186 C5.2049343 334.86909263 4.77774053 332.33175857 4.33203125 329.79296875 C4.17665894 328.86787506 4.02128662 327.94278137 3.86120605 326.98965454 C3.36881885 324.06089022 2.86702458 321.13386208 2.36328125 318.20703125 C1.86012098 315.27297488 1.35924231 312.33861715 0.86535645 309.40298462 C0.55929937 307.5844763 0.24798253 305.76684265 -0.06945801 303.95028687 C-2.18307845 291.41270229 -2.18307845 291.41270229 0.1484375 287.890625 C0.73496094 287.35566406 1.32148438 286.82070313 1.92578125 286.26953125 C13.21849925 274.44997245 16.37799467 258.81628245 16.28320312 243.02954102 C15.863438 227.19551613 9.42280607 212.6499137 -1.5625 201.1796875 C-9.69852821 193.75972854 -18.68542161 188.37534852 -29.13671875 184.83203125 C-29.83539063 184.58710938 -30.5340625 184.3421875 -31.25390625 184.08984375 C-55.59583757 177.17559867 -81.40167552 187.91561309 -97.38671875 206.45703125 Z " fill="#4781F0" transform="translate(303.13671875,46.16796875)"/>
<path d="M0 0 C8.34180132 4.93254339 14.68265899 11.91762108 17.24609375 21.328125 C18.24499314 32.43216942 17.65857719 42.16551381 10.37109375 51.140625 C8.35793143 53.3372654 6.48466408 54.89546475 4.05859375 56.703125 C0.3547976 60.1600014 -0.74728636 63.41466702 -1.75390625 68.328125 C-1.78763048 71.47924051 -1.31028581 74.43516579 -0.734375 77.52734375 C-0.59695389 78.36602493 -0.45953278 79.20470612 -0.31794739 80.06880188 C0.12055646 82.72165052 0.58825594 85.36825361 1.05859375 88.015625 C1.51221196 90.67439201 1.95965329 93.33408487 2.40299988 95.99458313 C2.6795143 97.64196834 2.96293122 99.28821488 3.25434875 100.93302917 C3.38415634 101.68433609 3.51396393 102.43564301 3.64770508 103.2097168 C3.76334305 103.86207809 3.87898102 104.51443939 3.99812317 105.18656921 C4.31041904 107.88365945 4.24609375 110.61301461 4.24609375 113.328125 C-8.29390625 113.328125 -20.83390625 113.328125 -33.75390625 113.328125 C-32.63534955 98.78688789 -32.63534955 98.78688789 -31.45703125 92.375 C-31.21779499 91.00016584 -30.97954132 89.6251604 -30.7421875 88.25 C-30.37445086 86.15286733 -30.00009468 84.05773382 -29.60888672 81.96484375 C-27.27839478 70.33405828 -27.27839478 70.33405828 -30.75390625 59.328125 C-32.70584212 57.00554106 -32.70584212 57.00554106 -35.06640625 55.390625 C-40.69285846 50.81052769 -45.53203015 44.67252004 -46.75390625 37.328125 C-47.51853486 25.85869578 -46.9400485 17.26695066 -39.50390625 8.078125 C-29.28602665 -2.90554857 -13.8502854 -6.45891799 0 0 Z " fill="#4781F0" transform="translate(270.75390625,262.671875)"/>
</svg>
