<?xml version="1.0" encoding="UTF-8"?>
<svg version="1.1" xmlns="http://www.w3.org/2000/svg" width="512" height="512">
<path d="M0 0 C0.67752354 -0.00205263 1.35504708 -0.00410527 2.05310163 -0.0062201 C4.32788681 -0.01188343 6.60261132 -0.01043367 8.87740231 -0.00901413 C10.52308612 -0.01159816 12.16876931 -0.01461142 13.81445163 -0.01801753 C18.34062019 -0.02608653 22.86677289 -0.02787705 27.39294779 -0.028615 C32.27316661 -0.03046575 37.15337721 -0.03801326 42.03359127 -0.04475021 C52.7073131 -0.05833389 63.38103118 -0.06435846 74.05476022 -0.06876087 C80.72026064 -0.07152353 87.3857596 -0.07576096 94.05125904 -0.08026505 C112.50777661 -0.09245832 130.96429301 -0.10275715 149.42081451 -0.10614014 C150.60216466 -0.1063597 151.78351482 -0.10657927 153.00066346 -0.10680549 C154.18483664 -0.10702377 155.36900982 -0.10724204 156.58906704 -0.10746694 C158.98864051 -0.1079104 161.38821397 -0.10835696 163.78778744 -0.10880661 C165.57319345 -0.10913875 165.57319345 -0.10913875 167.39466827 -0.10947761 C186.67590951 -0.11342456 205.95711292 -0.13087518 225.23833955 -0.15416613 C245.03637455 -0.17788819 264.83439059 -0.1903424 284.63244003 -0.19150805 C295.74732392 -0.19242439 306.86215854 -0.19816627 317.97702885 -0.21632767 C327.44297011 -0.23174024 336.90884688 -0.23684231 346.37479831 -0.22858956 C351.20257852 -0.22468703 356.03022894 -0.2255933 360.85799313 -0.23964691 C365.2828585 -0.2524096 369.70749684 -0.25116755 374.132362 -0.2390562 C375.72797621 -0.23710329 377.32360664 -0.24015877 378.9191981 -0.24890056 C399.73079387 -0.35564691 416.27388017 5.58636498 431.31586361 20.21736526 C442.30012445 31.85270084 449.28613808 46.86873418 449.30276012 62.96009541 C449.30583907 63.97638071 449.30583907 63.97638071 449.30898023 65.01319703 C449.31464356 67.28798222 449.3131938 69.56270672 449.31177425 71.83749771 C449.31435828 73.48318153 449.31737155 75.12886472 449.32077765 76.77454704 C449.32884666 81.3007156 449.33063717 85.8268683 449.33137512 90.3530432 C449.33322588 95.23326202 449.34077338 100.11347261 449.34751034 104.99368668 C449.36109401 115.66740851 449.36711858 126.34112659 449.371521 137.01485562 C449.37428366 143.68035604 449.37852108 150.34585501 449.38302517 157.01135445 C449.39521844 175.46787201 449.40551728 193.92438841 449.40890026 212.38090992 C449.40911983 213.56226007 449.40933939 214.74361022 449.40956561 215.96075886 C449.40978389 217.14493204 449.41000217 218.32910523 449.41022706 219.54916245 C449.41067053 221.94873591 449.41111709 224.34830938 449.41156673 226.74788284 C449.41178816 227.93815352 449.41200959 229.12842419 449.41223773 230.35476368 C449.41618468 249.63600491 449.4336353 268.91720833 449.45692626 288.19843496 C449.48064832 307.99646996 449.49310252 327.79448599 449.49426818 347.59253544 C449.49518452 358.70741932 449.5009264 369.82225395 449.51908779 380.93712425 C449.53450037 390.40306551 449.53960243 399.86894229 449.53134969 409.33489371 C449.52744715 414.16267393 449.52835342 418.99032434 449.54240704 423.81808853 C449.55516972 428.2429539 449.55392768 432.66759224 449.54181632 437.09245741 C449.53986341 438.68807162 449.54291889 440.28370205 449.55166069 441.87929351 C449.6546007 461.94879416 444.28773021 478.47122005 430.17133236 493.13142776 C416.8025049 506.00434817 401.04993584 512.54699265 382.51898861 512.39509964 C381.33176205 512.36996292 380.14453548 512.3448262 378.92133236 512.31892776 C377.68769955 512.30539261 376.45406673 512.29185745 375.18305111 512.27791214 C372.17866632 512.24297743 369.17524827 512.19392922 366.17133236 512.13142776 C366.17133236 509.82142776 366.17133236 507.51142776 366.17133236 505.13142776 C361.55133236 505.13142776 356.93133236 505.13142776 352.17133236 505.13142776 C352.17133236 507.44142776 352.17133236 509.75142776 352.17133236 512.13142776 C346.89133236 512.13142776 341.61133236 512.13142776 336.17133236 512.13142776 C336.17133236 509.82142776 336.17133236 507.51142776 336.17133236 505.13142776 C331.55133236 505.13142776 326.93133236 505.13142776 322.17133236 505.13142776 C322.17133236 507.44142776 322.17133236 509.75142776 322.17133236 512.13142776 C280.46295099 512.20012751 238.75457615 512.25297363 197.04614939 512.28462375 C192.11961523 512.28837577 187.19308119 512.29225875 182.2665472 512.29622269 C181.28578267 512.29700962 180.30501813 512.29779655 179.29453346 512.29860733 C163.42406719 512.31165337 147.55363359 512.3353028 131.68318668 512.36288615 C115.39287201 512.39096265 99.10257442 512.40760877 82.81223655 512.41369325 C72.76409407 512.41780503 62.71604396 512.43078149 52.66792992 512.45517717 C45.77310559 512.47106205 38.87832886 512.47582189 31.98348758 512.4719319 C28.00836459 512.47001463 24.03340277 512.47290785 20.0583086 512.48904419 C16.41226238 512.50373603 12.76648437 512.50432059 9.12042531 512.49412445 C7.19068802 512.49227396 5.26095348 512.50512922 3.33126283 512.51867169 C-16.26737254 512.4186097 -31.83367206 504.77293624 -45.81694889 491.20174026 C-56.17272869 480.13414411 -62.95702687 465.13733714 -62.95171547 449.90955257 C-62.95370652 448.64905832 -62.95569757 447.38856407 -62.95774895 446.08987302 C-62.95489608 444.69362411 -62.95195049 443.2973754 -62.94892216 441.90112686 C-62.94935823 440.41600807 -62.95023381 438.93088935 -62.95151132 437.44577104 C-62.95374917 433.36389296 -62.94974467 429.28204108 -62.94473326 425.20016634 C-62.94041879 420.79871345 -62.9418759 416.39726206 -62.94263554 411.99580765 C-62.94316014 404.36968192 -62.94001998 396.74356475 -62.9343977 389.11744118 C-62.92627408 378.09131741 -62.92366659 367.06519779 -62.92240971 356.03907136 C-62.92022055 338.15033951 -62.91356413 320.26161222 -62.90410709 302.37288284 C-62.89492947 284.99462787 -62.88785035 267.61637413 -62.88359928 250.23811722 C-62.88333656 249.16709942 -62.88307383 248.09608163 -62.88280315 246.99260875 C-62.88149812 241.61968035 -62.88023441 236.24675194 -62.87899125 230.87382352 C-62.86862286 186.29302178 -62.85100823 141.71222501 -62.82866764 97.13142776 C-60.51866764 97.13142776 -58.20866764 97.13142776 -55.82866764 97.13142776 C-55.82866764 92.51142776 -55.82866764 87.89142776 -55.82866764 83.13142776 C-58.13866764 83.13142776 -60.44866764 83.13142776 -62.82866764 83.13142776 C-62.91709312 78.88156297 -62.96953192 74.63194031 -63.01616764 70.38142776 C-63.04130436 69.1942012 -63.06644108 68.00697464 -63.09233952 66.78377151 C-63.25004306 47.54393876 -56.10048203 31.71986616 -42.74273014 17.98689651 C-31.10739456 7.00263567 -16.09136123 0.01662204 0 0 Z " fill="#020101" transform="translate(62.828667640686035,-0.13142776489257813)"/>
<path d="M0 0 C1.61328867 -0.00445693 3.22657516 -0.00977247 4.83985847 -0.01586872 C9.25806844 -0.03000466 13.6762079 -0.03171285 18.09443724 -0.03127182 C22.8656055 -0.03292393 27.63674505 -0.04599782 32.40789795 -0.0574646 C42.83372625 -0.08028349 53.25953415 -0.0882319 63.68538404 -0.09329104 C70.20018074 -0.09655175 76.71497156 -0.1030765 83.22976494 -0.11029243 C101.28153702 -0.12985448 119.33330365 -0.14626095 137.38508701 -0.14916897 C138.53954954 -0.14935654 139.69401207 -0.14954411 140.88345831 -0.14973736 C143.22364771 -0.1501036 145.56383711 -0.1504673 147.90402652 -0.15082847 C149.64644161 -0.15110269 149.64644161 -0.15110269 151.42405701 -0.15138245 C152.58709152 -0.151563 153.75012603 -0.15174354 154.94840401 -0.15192956 C173.78699876 -0.15547002 192.62547912 -0.18248615 211.46403421 -0.21988034 C230.82377496 -0.25800029 250.183459 -0.27732672 269.5432381 -0.27762848 C280.40559734 -0.27821222 291.2678201 -0.28665079 302.13014412 -0.31562614 C311.38071499 -0.34018937 320.63109962 -0.34738959 329.88169432 -0.33237862 C334.59667077 -0.3252299 339.3112798 -0.32597882 344.0262146 -0.34878922 C348.35258226 -0.36951818 352.67830329 -0.36665049 357.00466501 -0.34591437 C358.559857 -0.34244588 360.115097 -0.34721584 361.67022616 -0.36161881 C375.9940655 -0.48560381 389.70795513 2.02583389 401.14353943 11.27415466 C402.05812927 11.94897888 402.05812927 11.94897888 402.99119568 12.63743591 C413.23723344 20.63159724 419.03960129 32.67718655 421.14353943 45.27415466 C421.40277889 48.89230384 421.3975214 52.49200021 421.37059021 56.1181488 C421.37088226 57.16309509 421.37117432 58.20804138 421.37147522 59.28465271 C421.37009125 62.70962574 421.35457406 66.13437628 421.33885193 69.55931091 C421.33511849 71.94541302 421.33227308 74.33151666 421.33027649 76.71762085 C421.32266615 82.97621445 421.30304004 89.23471418 421.28086853 95.49327087 C421.26035401 101.88831818 421.2512628 108.28338076 421.24119568 114.67845154 C421.21979165 127.21039246 421.18607551 139.74226855 421.14353943 152.27415466 C417.06719821 150.6962674 413.38085409 148.76593377 409.63963318 146.52024841 C409.01258484 146.14760864 408.3855365 145.77496887 407.73948669 145.39103699 C405.68445011 144.16825997 403.6326732 142.94013116 401.58103943 141.71165466 C400.14177078 140.85316474 398.70239765 139.99484996 397.26292419 139.13670349 C389.17683329 134.31077105 381.10680491 129.45814869 373.05857849 124.56932068 C370.74072847 123.16160227 368.41685262 121.76469825 366.08787537 120.37547302 C360.69852246 117.14009604 355.4590331 113.84102639 350.37791443 110.13743591 C334.54834736 98.92378722 321.00406381 98.28296088 302.14353943 99.27415466 C301.87565613 99.86422302 301.60777283 100.45429138 301.33177185 101.0622406 C300.1318046 103.29599924 298.8774193 104.83688891 297.13182068 106.66477966 C296.54231628 107.28779968 295.95281189 107.9108197 295.34544373 108.55271912 C294.72194031 109.20329285 294.09843689 109.85386658 293.45603943 110.52415466 C292.17650847 111.87618213 290.89785176 113.22903754 289.62010193 114.58274841 C289.01198669 115.22582947 288.40387146 115.86891052 287.77732849 116.53147888 C285.37636715 119.09245647 283.07059214 121.72787935 280.78025818 124.38743591 C278.76480171 126.71074254 276.7050548 128.99163931 274.64353943 131.27415466 C271.97305599 134.23285217 269.32055885 137.20341938 266.70603943 140.21165466 C262.94826449 144.53530629 259.06529907 148.74269934 255.18260193 152.95384216 C253.12776615 155.09362348 253.12776615 155.09362348 252.14353943 157.27415466 C251.48353943 157.27415466 250.82353943 157.27415466 250.14353943 157.27415466 C249.81219246 156.35741974 249.81219246 156.35741974 249.47415161 155.42216492 C247.06748348 148.76422942 244.65959672 142.10673529 242.25105286 135.44947815 C241.30613792 132.83765896 240.36151719 130.22573364 239.41712952 127.61372375 C234.15010083 113.04710758 228.86532193 98.48748935 223.51853943 83.94993591 C222.85638176 82.14741867 222.85638176 82.14741867 222.18084717 80.30848694 C220.07150218 74.56672115 217.95757018 68.8267252 215.8356781 63.08958435 C215.07740425 61.02748973 214.31933575 58.96531958 213.56150818 56.90306091 C213.21253479 55.96513199 212.8635614 55.02720306 212.50401306 54.06085205 C212.19065002 53.20513107 211.87728699 52.3494101 211.5544281 51.46775818 C211.28023544 50.72558548 211.00604279 49.98341278 210.72354126 49.21875 C210.14353943 47.27415466 210.14353943 47.27415466 210.14353943 44.27415466 C190.34353943 44.27415466 170.54353943 44.27415466 150.14353943 44.27415466 C149.48353943 47.24415466 148.82353943 50.21415466 148.14353943 53.27415466 C147.56548042 55.1091687 146.94740074 56.93248925 146.2743988 58.73484802 C145.91153778 59.71584473 145.54867676 60.69684143 145.17481995 61.70756531 C144.78293488 62.74918823 144.3910498 63.79081116 143.98728943 64.86399841 C143.36550308 66.53942719 143.36550308 66.53942719 142.7311554 68.248703 C141.60715461 71.27568665 140.47830892 74.30081116 139.3476944 77.32532883 C137.43213309 82.45683104 135.53200357 87.59408889 133.62951279 92.73044777 C133.14270391 94.04452927 132.65568542 95.35853313 132.16846085 96.67246056 C127.20008128 110.07171139 122.34139829 123.50934479 117.51853943 136.96165466 C116.06058931 141.02559434 114.60224502 145.08939235 113.14353943 149.15306091 C112.80104156 150.10735489 112.4585437 151.06164886 112.10566711 152.04486084 C107.51904873 164.81259081 102.84413474 177.54799809 98.14353943 190.27415466 C94.64131938 189.74529217 92.48631521 189.07585275 89.77244568 186.80540466 C75.85814878 176.22405103 61.91788583 176.71169142 45.14353943 177.27415466 C44.85325867 178.04348328 44.56297791 178.81281189 44.26390076 179.60545349 C42.89502049 182.86612688 41.0385198 185.19778808 38.83103943 187.96165466 C34.7194617 193.18369167 30.76660864 198.49796761 26.89353943 203.89915466 C22.35297035 210.22315875 17.77206618 216.51421984 13.14353943 222.77415466 C8.60585429 228.91418638 4.10387198 235.07770362 -0.35646057 241.27415466 C-7.6964959 251.46771929 -15.16100664 261.56817093 -22.62696838 271.66966248 C-28.95619915 280.23561754 -35.26199057 288.81557483 -41.48146057 297.46165466 C-45.81182255 303.47431555 -50.17860766 309.45784165 -54.60646057 315.39915466 C-55.12031311 316.09291199 -55.63416565 316.78666931 -56.16358948 317.50144958 C-57.3694797 319.11143473 -58.609335 320.69589575 -59.85646057 322.27415466 C-60.18646057 322.27415466 -60.51646057 322.27415466 -60.85646057 322.27415466 C-60.85646057 243.40415466 -60.85646057 164.53415466 -60.85646057 83.27415466 C-63.49646057 83.27415466 -66.13646057 83.27415466 -68.85646057 83.27415466 C-68.85646057 78.32415466 -68.85646057 73.37415466 -68.85646057 68.27415466 C-66.21646057 68.27415466 -63.57646057 68.27415466 -60.85646057 68.27415466 C-60.87217102 67.64025818 -60.88788147 67.00636169 -60.90406799 66.35325623 C-61.33435588 46.36030153 -60.09362299 30.46587753 -45.79786682 15.08274841 C-32.29033359 2.49927178 -17.83844314 -0.03110632 0 0 Z " fill="#FEFEFE" transform="translate(75.85646057128906,14.725845336914063)"/>
<path d="M0 0 C0.74926758 0.03254883 1.49853516 0.06509766 2.27050781 0.09863281 C3.44661621 0.12231934 3.44661621 0.12231934 4.64648438 0.14648438 C12.71021279 0.65148555 18.67812543 4.16971997 25.06054688 8.88085938 C27.60145561 10.71619345 30.21984623 12.43088237 32.83300781 14.16113281 C28.10508927 28.71799293 22.98496707 43.09875503 17.64672852 57.44213867 C15.32443366 63.68484357 13.01480362 69.93221897 10.70800781 76.18066406 C10.34752098 77.15687399 10.34752098 77.15687399 9.97975159 78.15280533 C4.5790786 92.78601581 -0.69104377 107.46535669 -5.94743347 122.15088272 C-13.67253355 143.73269779 -21.47703852 165.28236067 -29.41699219 186.78613281 C-29.85603882 187.97524261 -30.29508545 189.16435242 -30.74743652 190.38949585 C-32.81664757 195.99187556 -34.88761226 201.59360442 -36.95996094 207.19482422 C-39.71795962 214.64931342 -42.47190455 222.10527899 -45.21472168 229.56536865 C-45.88755613 231.39364686 -46.56286239 233.22101482 -47.23828125 235.04833984 C-47.62209961 236.09231934 -48.00591797 237.13629883 -48.40136719 238.21191406 C-48.72331055 239.08501221 -49.04525391 239.95811035 -49.37695312 240.85766602 C-50.08557752 242.92375724 -50.63723744 245.04211384 -51.16699219 247.16113281 C-30.37699219 246.83113281 -9.58699219 246.50113281 11.83300781 246.16113281 C15.19488281 236.81800781 18.55675781 227.47488281 22.02050781 217.84863281 C28.49945773 199.8670814 34.98145398 181.88761427 41.64550781 163.97363281 C41.91317963 163.25315765 42.18085144 162.5326825 42.45663452 161.79037476 C46.63171891 150.56371061 46.63171891 150.56371061 47.83300781 148.16113281 C96.01300781 148.16113281 144.19300781 148.16113281 193.83300781 148.16113281 C198.02842733 158.94935442 202.18364953 169.70402194 206.08300781 180.59472656 C206.54925573 181.89119874 207.01573327 183.18758836 207.48242188 184.48390198 C208.69160245 187.84418828 209.89818477 191.20540075 211.10400391 194.56689453 C213.03107894 199.93766426 214.96227544 205.30695325 216.89343262 210.67625618 C217.55152431 212.50713617 218.20840971 214.33844963 218.86523438 216.16978455 C222.4644698 226.18897376 226.15216595 236.17027632 229.83300781 246.16113281 C250.62300781 246.49113281 271.41300781 246.82113281 292.83300781 247.16113281 C283.55499014 220.9296465 274.17181371 194.75015119 264.51123047 168.6574707 C264.13857559 167.64882965 263.76592072 166.6401886 263.38197327 165.60098267 C262.68384571 163.71184082 261.98395015 161.82335103 261.28196716 159.93563843 C260.97275833 159.09860382 260.6635495 158.26156921 260.3449707 157.39916992 C260.07568253 156.67330185 259.80639435 155.94743378 259.52894592 155.1995697 C258.8475494 153.20372585 258.31273774 151.21387145 257.83300781 149.16113281 C266.62923966 153.84979267 275.2110693 158.87127331 283.77050781 163.97363281 C285.18691243 164.81594809 286.60333528 165.6582327 288.01977539 166.50048828 C298.18899213 172.5542144 308.30721946 178.68870032 318.40893555 184.85424805 C328.39779507 190.93495285 338.47891778 196.85273613 348.59545898 202.71826172 C349.18501877 203.06125305 349.77457855 203.40424438 350.38200378 203.75762939 C351.97392222 204.68361735 353.56746868 205.60680487 355.16113281 206.52978516 C356.04285156 207.06812988 356.92457031 207.60647461 357.83300781 208.16113281 C358.59991943 208.56895996 359.36683105 208.97678711 360.15698242 209.39697266 C362.7731327 212.15069471 362.42405307 215.20061036 362.39941406 218.80175781 C362.40561264 219.56099548 362.41181122 220.32023315 362.41819763 221.10247803 C362.42530673 222.71641766 362.42210268 224.33043045 362.40942383 225.94433594 C362.39578602 228.36181712 362.42932345 230.77524305 362.46777344 233.19238281 C362.53793511 247.30749553 359.82030589 259.84037173 350.83300781 271.16113281 C350.383125 271.77214844 349.93324219 272.38316406 349.46972656 273.01269531 C341.58315644 283.09861879 329.31493005 289.07651515 316.83300781 291.16113281 C312.82823438 291.38796978 308.84246947 291.35136811 304.83300781 291.28613281 C303.77210938 291.27710938 302.71121094 291.26808594 301.61816406 291.25878906 C299.02287143 291.23540805 296.42806316 291.20263837 293.83300781 291.16113281 C293.83300781 293.80113281 293.83300781 296.44113281 293.83300781 299.16113281 C289.21300781 299.16113281 284.59300781 299.16113281 279.83300781 299.16113281 C279.83300781 301.47113281 279.83300781 303.78113281 279.83300781 306.16113281 C274.55300781 306.16113281 269.27300781 306.16113281 263.83300781 306.16113281 C263.83300781 303.85113281 263.83300781 301.54113281 263.83300781 299.16113281 C259.21300781 299.16113281 254.59300781 299.16113281 249.83300781 299.16113281 C249.83300781 296.52113281 249.83300781 293.88113281 249.83300781 291.16113281 C249.15199029 291.16227197 248.47097276 291.16341113 247.76931834 291.16458482 C207.38580341 291.23175303 167.0022957 291.28320967 126.61873619 291.3143288 C121.76730841 291.31808082 116.91588074 291.32196379 112.06445312 291.32592773 C110.61573593 291.32710813 110.61573593 291.32710813 109.13775173 291.32831237 C93.50977992 291.34135799 77.88184131 291.36500719 62.25388917 291.3925912 C46.21217726 291.42066888 30.1704827 291.43731407 14.12874722 291.4433983 C4.23415144 291.44750983 -5.66035053 291.46048495 -15.55491742 291.48488221 C-22.34461799 291.50076857 -29.13427022 291.50552661 -35.92398801 291.50163694 C-39.83835399 291.49971991 -43.7525563 291.50261028 -47.66689301 291.51874924 C-51.25742785 291.53344432 -54.84769034 291.5340236 -58.43823823 291.5238295 C-60.33815131 291.52197961 -62.2380616 291.53483195 -64.13792729 291.54837674 C-79.54016501 291.46855133 -93.80680525 287.1517729 -105.13574219 276.35644531 C-111.23502204 269.76453132 -115.37940978 262.68241554 -118.16699219 254.16113281 C-118.50505386 253.13506424 -118.84311554 252.10899567 -119.19142151 251.05183411 C-120.3835448 246.83116534 -120.52704261 242.75586612 -120.6003418 238.39038086 C-120.62151566 237.54045059 -120.64268951 236.69052032 -120.664505 235.81483459 C-120.86963133 226.934737 -120.95526499 218.0516628 -121.03198242 209.16967773 C-121.07192853 204.97387828 -121.14829201 200.78122592 -121.25756836 196.58666992 C-121.39011743 191.48826517 -121.4564598 186.39277592 -121.47827339 181.29273415 C-121.49702639 179.36745129 -121.53777287 177.44223212 -121.60261345 175.51795006 C-122.07686434 160.65241148 -118.36185337 152.19126904 -108.67772865 140.9344883 C-106.75185327 138.67382818 -105.01465013 136.29756723 -103.29199219 133.87988281 C-102.25103166 132.47311002 -101.20938541 131.06684433 -100.16699219 129.66113281 C-95.62849367 123.52170816 -91.12731728 117.3575735 -86.66699219 111.16113281 C-79.32695686 100.96756818 -71.86244612 90.86711654 -64.39648438 80.765625 C-57.567338 71.5230862 -50.77492289 62.25725001 -44.0612793 52.93041992 C-39.55850434 46.6829645 -34.99232216 40.48375386 -30.41503906 34.29077148 C-25.76562008 27.99262697 -21.17082233 21.65646629 -16.60449219 15.29785156 C-15.61795862 13.92595332 -14.62407614 12.55930475 -13.62231445 11.19848633 C-12.62185271 9.79790702 -11.66841706 8.36291205 -10.7565918 6.90307617 C-7.72076979 2.26657615 -5.6742367 0.16591335 0 0 Z " fill="#6FE1BC" transform="translate(135.1669921875,205.8388671875)"/>
<path d="M0 0 C8.91273947 1.165774 16.01650985 6.22727843 23.39941406 11.04199219 C28.16658992 14.12141996 33.04170476 17.0205898 37.90338135 19.94760132 C40.25755769 21.36943182 42.60397252 22.80382092 44.95077515 24.23777771 C55.04663496 30.40348114 65.22709278 36.42560138 75.41723633 42.43383789 C95.96734296 54.56890546 95.96734296 54.56890546 98.33984375 56.94140625 C98.43772284 59.6977914 98.46977607 62.42911464 98.46009827 65.18592834 C98.4613799 66.49803029 98.4613799 66.49803029 98.46268743 67.83663934 C98.46434492 70.79093418 98.45881648 73.74517322 98.45336914 76.69946289 C98.4530873 78.80795795 98.45324494 80.91645311 98.45381165 83.02494812 C98.45409975 88.76851591 98.44820101 94.51206301 98.44123769 100.25562596 C98.43500621 106.25077413 98.43440052 112.24592271 98.43321228 118.24107361 C98.43009835 129.60248721 98.42188414 140.96389125 98.41186279 152.32530063 C98.40070355 165.25615271 98.39519168 178.18700523 98.39016736 191.11786091 C98.37970158 217.72571467 98.36210095 244.33355993 98.33984375 270.94140625 C94.49845588 269.44651816 91.05053164 267.71495626 87.4921875 265.625 C86.93213516 265.29697891 86.37208282 264.96895782 85.7950592 264.6309967 C83.95359982 263.55069595 82.11538509 262.46501082 80.27734375 261.37890625 C78.97595396 260.61320901 77.67452094 259.84758524 76.37304688 259.08203125 C67.06951106 253.59923181 57.82941597 248.01551321 48.61346436 242.38705444 C40.21337261 237.25810249 31.76034209 232.23089154 23.25665283 227.27566528 C21.4180764 226.20060551 19.5840792 225.1181463 17.75146484 224.03295898 C12.25404872 220.78207053 6.74441261 217.598702 1.09375 214.6171875 C0.13654053 214.08770508 -0.82066895 213.55822266 -1.80688477 213.01269531 C-3.53267438 212.05829891 -5.28050752 211.14188468 -7.05444336 210.28027344 C-14.98534195 205.77095104 -16.9496016 197.94726253 -19.69281006 189.78665161 C-20.73007452 186.73575637 -21.82172197 183.70856531 -22.92626953 180.68139648 C-24.87117238 175.35081963 -26.79589886 170.01340282 -28.70959282 164.67154694 C-28.93525995 164.04163597 -29.16092709 163.41172501 -29.39343262 162.76272583 C-29.62171249 162.12548206 -29.84999237 161.4882383 -30.08518982 160.83168411 C-32.25804163 154.7698264 -34.43894305 148.71085913 -36.62109375 142.65234375 C-36.86800461 141.96672678 -37.11491547 141.28110981 -37.36930847 140.57471657 C-43.85941417 122.56124991 -50.48967298 104.59963095 -57.13330078 86.64233398 C-57.55823822 85.49304413 -57.98317566 84.34375427 -58.42098999 83.15963745 C-59.21087369 81.02403764 -60.00168023 78.88877883 -60.79360962 76.75393677 C-66.27240979 61.94779569 -66.27240979 61.94779569 -64.66015625 57.94140625 C-62.63324854 55.32299746 -60.35552025 52.98713925 -58.03515625 50.62890625 C-56.74657013 49.28594804 -55.45879958 47.94220676 -54.171875 46.59765625 C-53.55747559 45.96085937 -52.94307617 45.3240625 -52.31005859 44.66796875 C-49.88115968 42.12621481 -47.58340964 39.48267522 -45.2890625 36.8203125 C-41.05044158 31.93115983 -36.66856361 27.16548151 -32.33203125 22.36328125 C-23.9923411 13.40637898 -23.9923411 13.40637898 -16.48828125 3.77734375 C-12.2515167 -1.26114215 -6.07369128 -0.36524568 0 0 Z " fill="#6FE1BC" transform="translate(398.66015625,128.05859375)"/>
<path d="M0 0 C8.69517537 4.9521339 17.36684064 9.9402729 26 15 C25.406819 19.18322046 24.4447372 22.90822603 22.97460938 26.8659668 C22.34891052 28.5625367 22.34891052 28.5625367 21.71057129 30.29338074 C21.03399475 32.10302055 21.03399475 32.10302055 20.34375 33.94921875 C19.87626884 35.21123251 19.40927621 36.47342734 18.94274902 37.73579407 C17.7181247 41.04566802 16.4871979 44.35316205 15.25482178 47.66015625 C14.00091817 51.02796269 12.75251371 54.39780532 11.50390625 57.76757812 C10.10100313 61.55359146 8.6971629 65.33923815 7.28942871 69.12345886 C6.66372986 70.80584404 6.66372986 70.80584404 6.02539062 72.5222168 C5.6575647 73.51005661 5.28973877 74.49789642 4.9107666 75.51567078 C4.24442819 77.33326486 3.61218095 79.16345716 3 81 C3.98392353 80.9737289 3.98392353 80.9737289 4.9877243 80.94692707 C21.11278932 80.52325125 37.23586279 80.21099638 53.36515045 80.01556873 C61.16623911 79.91849133 68.96352867 79.78622065 76.76220703 79.56665039 C141.829703 77.7708831 141.829703 77.7708831 165.15718079 97.68103027 C169.65228957 101.34782032 174.62544549 104.07510077 179.6875 106.875 C181.21463069 107.76413496 182.73988208 108.65652143 184.26171875 109.5546875 C184.86975342 109.91030762 185.47778809 110.26592773 186.10424805 110.63232422 C193.0234863 115.62415586 194.89766275 121.06520895 197.66015625 129.015625 C198.08733948 130.20822937 198.51452271 131.40083374 198.95465088 132.62957764 C200.10108783 135.83775998 201.23507786 139.04981565 202.36349869 142.26434326 C203.52870732 145.57435761 204.70950864 148.87879247 205.8894043 152.18359375 C207.52369277 156.7646264 209.15360462 161.34716273 210.77736378 165.93193817 C213.16473895 172.67109418 215.58425189 179.39736702 218.046875 186.109375 C218.33618393 186.89838196 218.62549286 187.68738892 218.92356873 188.50030518 C219.97061489 191.35288673 221.01920278 194.20489057 222.0708313 197.05578613 C222.75446254 198.91115611 223.43401496 200.76802754 224.11328125 202.625 C224.66689331 204.12933594 224.66689331 204.12933594 225.23168945 205.6640625 C226 208 226 208 226 210 C215.44 210 204.88 210 194 210 C192.47890625 205.83503906 190.9578125 201.67007813 189.390625 197.37890625 C188.87226578 195.95958801 188.35390656 194.54026978 187.81983948 193.07794189 C185.23545291 186.00126633 182.65200908 178.92424801 180.07006836 171.84667969 C179.01939982 168.96678544 177.96869186 166.08690558 176.91796875 163.20703125 C176.65856443 162.49600124 176.39916012 161.78497124 176.13189507 161.05239487 C173.3399922 153.40040679 170.54459755 145.74975349 167.73202515 138.10533142 C166.58956136 135.00012497 165.4501275 131.89381226 164.31115723 128.787323 C163.8145991 127.43603798 163.31632511 126.08538217 162.81628418 124.73538208 C162.14544569 122.924101 161.48070585 121.11056447 160.81640625 119.296875 C160.46006104 118.33104492 160.10371582 117.36521484 159.73657227 116.37011719 C159 114 159 114 159 111 C103.56 111 48.12 111 -9 111 C-9.66 113.97 -10.32 116.94 -11 120 C-11.50506225 121.63662233 -12.04476014 123.26362133 -12.64135742 124.86914062 C-12.95367813 125.71854721 -13.26599884 126.5679538 -13.58778381 127.44309998 C-13.92361984 128.33843948 -14.25945587 129.23377899 -14.60546875 130.15625 C-14.96197006 131.12123917 -15.31847137 132.08622833 -15.68577576 133.08045959 C-16.84773037 136.22229371 -18.01761622 139.36111081 -19.1875 142.5 C-19.99395618 144.67676889 -20.79977622 146.85377356 -21.60498047 149.03100586 C-23.25294516 153.48613334 -24.90333442 157.94035154 -26.55517578 162.39404297 C-29.94259015 171.53628959 -33.29001579 180.69311744 -36.63467407 189.85107422 C-37.89611368 193.30478554 -39.15892636 196.75799401 -40.42179871 200.21118164 C-41.61486878 203.47399814 -42.80738426 206.73701741 -44 210 C-54.56 210 -65.12 210 -76 210 C-72.62569587 197.62755152 -72.62569587 197.62755152 -71.09667969 193.53442383 C-70.74981613 192.59816162 -70.40295258 191.66189941 -70.045578 190.69726562 C-69.67475601 189.71048828 -69.30393402 188.72371094 -68.921875 187.70703125 C-68.52257278 186.63155029 -68.12327057 185.55606934 -67.71186829 184.44799805 C-66.84764543 182.1206893 -65.98147739 179.79410212 -65.11355591 177.46817017 C-62.7451359 171.11847647 -60.39333564 164.76264259 -58.04296875 158.40625 C-57.79751753 157.74280893 -57.55206631 157.07936787 -57.29917717 156.39582253 C-51.70022237 141.25574937 -46.24095093 126.06627706 -40.79903793 110.86919022 C-38.6204765 104.78582942 -36.43970792 98.70325948 -34.2578125 92.62109375 C-34.02703444 91.97775526 -33.79625637 91.33441677 -33.55848503 90.67158318 C-28.2778652 75.95540845 -22.89274565 61.27912745 -17.45303345 46.62113953 C-15.31695161 40.86347711 -13.19589505 35.10035781 -11.078125 29.3359375 C-10.42131385 27.54898776 -9.76449428 25.76204111 -9.10766602 23.97509766 C-8.15615651 21.38630818 -7.20490603 18.79742543 -6.25460815 16.20819092 C-5.39346111 13.86235874 -4.53088021 11.5170586 -3.66796875 9.171875 C-3.28315338 8.12185806 -3.28315338 8.12185806 -2.89056396 7.05062866 C-1.11391595 2.2278319 -1.11391595 2.2278319 0 0 Z " fill="#FA3200" transform="translate(181,228)"/>
<path d="M0 0 C12.54 0 25.08 0 38 0 C43.9971924 15.14208247 49.54059065 30.43585848 55.0378418 45.7645874 C56.90920256 50.98171924 58.7843642 56.19748384 60.66011047 61.41304016 C61.3565496 63.35151076 62.05113362 65.29063856 62.7454834 67.2298584 C65.17560894 74.00583727 67.65121659 80.76177531 70.18945312 87.49804688 C70.96441932 89.56639657 71.73873193 91.63498999 72.51294708 93.70362091 C73.25036982 95.66259931 73.99948424 97.61683698 74.7489624 99.57122803 C75.19048645 100.75074036 75.6320105 101.93025269 76.08691406 103.14550781 C76.48138733 104.18249817 76.8758606 105.21948853 77.2822876 106.28790283 C78.02875124 109.1086454 78.10907298 110.34045404 77 113 C74.9609375 115.515625 74.9609375 115.515625 72.375 118.25 C71.46427966 119.22473368 70.55412682 120.19999788 69.64453125 121.17578125 C68.77183594 122.10777344 67.89914062 123.03976563 67 124 C65.67940232 125.47194159 64.36569438 126.95012826 63.0625 128.4375 C62.53785156 129.03433594 62.01320313 129.63117188 61.47265625 130.24609375 C59.92846293 132.03507284 59.92846293 132.03507284 58.43359375 134.22265625 C57.96050781 134.80917969 57.48742187 135.39570313 57 136 C56.34 136 55.68 136 55 136 C54.76799896 135.35775482 54.53599792 134.71550964 54.29696655 134.05380249 C51.56611833 126.49486181 48.83329129 118.93663761 46.09963608 111.3787117 C45.37847454 109.38460755 44.65755176 107.39041721 43.93667603 105.39620972 C39.15899541 92.18090817 34.37858426 78.9671314 29.48828125 65.79296875 C29.15638794 64.89801697 28.82449463 64.00306519 28.48254395 63.08099365 C26.9666071 58.99646582 25.44459409 54.91434677 23.91357422 50.83544922 C23.38366166 49.41248234 22.85386825 47.98947107 22.32421875 46.56640625 C21.87135498 45.35927979 21.41849121 44.15215332 20.9519043 42.90844727 C20 40 20 40 20 37 C19.34 37 18.68 37 18 37 C17.9172583 37.76062744 17.8345166 38.52125488 17.74926758 39.30493164 C16.70495591 44.45503172 14.8550309 49.20852435 13.01171875 54.12109375 C12.60074951 55.22997955 12.18978027 56.33886536 11.76635742 57.48135376 C10.64461728 60.50615431 9.51837178 63.52923232 8.39040756 66.55171585 C6.48583801 71.66135938 4.5949966 76.77611697 2.70124245 81.88977623 C1.96335725 83.88174558 1.22483208 85.87347687 0.48625183 87.8651886 C-4.84227303 102.24164788 -10.08159042 116.65029237 -15.3125 131.0625 C-16.19244993 133.48560088 -17.07241375 135.90869672 -17.95239258 138.33178711 C-19.96955363 143.88738982 -21.98542277 149.44345984 -24 155 C-29.42589438 152.93967871 -34.25679947 150.12029605 -39.25 147.1875 C-40.63445312 146.40536133 -40.63445312 146.40536133 -42.046875 145.60742188 C-43.36171875 144.83301758 -43.36171875 144.83301758 -44.703125 144.04296875 C-45.50395508 143.57914795 -46.30478516 143.11532715 -47.12988281 142.63745117 C-49.57409849 140.49732656 -49.6535334 139.19377438 -50 136 C-49.4777832 133.66545105 -49.4777832 133.66545105 -48.55078125 131.21557617 C-48.20365585 130.27897659 -47.85653046 129.34237701 -47.49888611 128.37739563 C-47.10737869 127.35953476 -46.71587128 126.34167389 -46.3125 125.29296875 C-45.90717545 124.20795578 -45.50185089 123.12294281 -45.08424377 122.00505066 C-44.1992407 119.63951334 -43.30861839 117.27607259 -42.41311646 114.91448975 C-40.24214927 109.18872496 -38.10360129 103.45093144 -35.96365547 97.71351624 C-35.20660996 95.68496834 -34.44806083 93.65698675 -33.68943787 91.62902832 C-29.94864034 81.61649141 -26.29681959 71.57374252 -22.69140625 61.51171875 C-22.4335371 60.79220976 -22.17566795 60.07270077 -21.90998459 59.33138847 C-19.6302676 52.96781797 -17.35648645 46.602133 -15.08618164 40.23519897 C-13.90716453 36.92880218 -12.72563042 33.62331347 -11.54267693 30.31832314 C-10.9095775 28.54676283 -10.2797255 26.77404299 -9.65003967 25.00126648 C-6.63204047 16.56694851 -3.33356607 8.33391517 0 0 Z " fill="#FA6941" transform="translate(237,74)"/>
<path d="M0 0 C9.21027117 7.4224889 15.10091716 17.31824673 17 29 C18.12995145 42.98987512 14.43310041 55.04834798 6.25390625 66.4296875 C-1.72090743 75.24485789 -14.14584046 80.33960689 -25.828125 81.2109375 C-38.06352505 81.61878417 -47.21819666 78.27129356 -57 71 C-57.64839844 70.52175781 -58.29679687 70.04351562 -58.96484375 69.55078125 C-63.3275544 65.78163668 -65.78796128 61.06385562 -68.375 56 C-68.72135498 55.32332275 -69.06770996 54.64664551 -69.42456055 53.94946289 C-74.7517505 42.94385437 -74.21014892 30.48936064 -70.3203125 19.10546875 C-65.47446139 7.70768287 -56.60594219 -0.92027292 -45.39453125 -6.03515625 C-30.10751411 -12.19485157 -13.46512156 -9.14964347 0 0 Z " fill="#030303" transform="translate(118,54)"/>
<path d="M0 0 C-1.25103516 0.94746094 -1.25103516 0.94746094 -2.52734375 1.9140625 C-15.06116699 11.73872776 -22.25891714 22.36761806 -26 38 C-26.2652058 38.9365953 -26.2652058 38.9365953 -26.53576928 39.89211172 C-27.03499346 42.1588915 -27.10788913 44.14861037 -27.08394146 46.4684 C-27.07729872 47.36336298 -27.07065599 48.25832595 -27.06381196 49.18040901 C-27.05134944 50.15966203 -27.03888692 51.13891505 -27.02604675 52.14784241 C-27.01702326 53.19141087 -27.00799976 54.23497932 -26.99870282 55.31017107 C-26.97831721 57.60145899 -26.95556779 59.89272677 -26.93078995 62.18397141 C-26.86925622 67.88317765 -26.82178373 73.5825019 -26.77207072 79.28182136 C-26.75395409 81.32937686 -26.73515221 83.37692512 -26.71618688 85.42447293 C-26.6244652 95.40280268 -26.55568336 105.38113014 -26.50056458 115.35972595 C-26.4965433 116.08220941 -26.49252203 116.80469287 -26.4883789 117.54906977 C-26.45117893 124.25980291 -26.41548224 130.97054373 -26.3806957 137.68128979 C-26.35675716 142.2833808 -26.33197849 146.88546666 -26.30639648 151.48754883 C-26.30215864 152.25188153 -26.29792079 153.01621424 -26.29355452 153.80370855 C-26.22366059 166.15507871 -26.10710498 178.50560284 -25.97399636 190.85643417 C-25.83825724 203.55904141 -25.75666045 216.26120593 -25.72343141 228.96449751 C-25.70122995 236.78605492 -25.63743941 244.60492998 -25.51852296 252.42562484 C-25.43151433 258.44174719 -25.41983812 264.45572835 -25.43478584 270.47255516 C-25.42937888 272.92390612 -25.40030829 275.37534927 -25.3445816 277.82607269 C-24.97814667 294.75505502 -28.04509789 304.85478735 -39.51276284 317.5513944 C-41 319 -41 319 -43 320 C-43 241.13 -43 162.26 -43 81 C-45.64 81 -48.28 81 -51 81 C-51 76.05 -51 71.1 -51 66 C-48.36 66 -45.72 66 -43 66 C-43.01571045 65.36610352 -43.0314209 64.73220703 -43.04760742 64.07910156 C-43.47789531 44.08614687 -42.23716242 28.19172287 -27.94140625 12.80859375 C-22.38113407 7.62870236 -8.20008457 -4.10004229 0 0 Z " fill="#9BE3F7" transform="translate(58,17)"/>
<path d="M0 0 C2.70462047 2.3519781 3.76979013 4.48256354 4.96679688 7.83959961 C5.3263446 8.83456451 5.68589233 9.82952942 6.05633545 10.85464478 C6.43993225 11.94288544 6.82352905 13.0311261 7.21875 14.15234375 C7.62957825 15.29569183 8.04040649 16.43903992 8.46368408 17.61703491 C9.58393051 20.738702 10.69680302 23.86281737 11.80662537 26.98819351 C12.9656144 30.2464968 14.13375074 33.50151252 15.30175781 36.7565918 C15.77765813 38.08308081 16.25354919 39.40957313 16.72943115 40.73606873 C16.96681755 41.39771971 17.20420395 42.05937069 17.44878387 42.7410717 C18.17653348 44.77080527 18.90311804 46.80095275 19.62945557 48.83119202 C22.90539867 57.98315945 26.22552126 67.11803797 29.578125 76.2421875 C30.23784302 78.03871513 30.23784302 78.03871513 30.91088867 79.87153625 C32.60547926 84.4839614 34.30111241 89.09598969 36.00219727 93.70602417 C37.16608875 96.86145618 38.32561034 100.01846368 39.484375 103.17578125 C39.828172 104.1033725 40.17196899 105.03096375 40.52618408 105.98666382 C40.83948669 106.84224884 41.15278931 107.69783386 41.47558594 108.5793457 C41.74755798 109.31707718 42.01953003 110.05480865 42.29974365 110.81489563 C43.06043787 113.18859245 43.55397433 115.5493644 44 118 C43.37633545 117.64301025 42.7526709 117.28602051 42.11010742 116.91821289 C36.81437897 113.95170209 31.54208994 111.36601056 25.92578125 109.05859375 C12.9139252 103.30732603 3.37118808 97.11995961 -2.23046875 83.58203125 C-5.52153067 75.0770966 -8.13642298 66.33723191 -10.54396057 57.54566956 C-12.74415492 49.54066844 -15.52255321 41.8204932 -18.5809021 34.10443115 C-18.91079132 33.24529114 -19.24068054 32.38615112 -19.58056641 31.50097656 C-19.87879303 30.75027893 -20.17701965 29.9995813 -20.48428345 29.22613525 C-21.11723367 26.49395067 -20.76921654 24.67808059 -20 22 C-18.6965332 20.16650391 -18.6965332 20.16650391 -17.05078125 18.4765625 C-16.44943359 17.8475 -15.84808594 17.2184375 -15.22851562 16.5703125 C-14.59623047 15.92835938 -13.96394531 15.28640625 -13.3125 14.625 C-12.07803471 13.34769838 -10.84495168 12.06905935 -9.61328125 10.7890625 C-9.01209473 10.16676758 -8.4109082 9.54447266 -7.79150391 8.90332031 C-5.08321186 6.02599069 -2.5431782 3.02368652 0 0 Z " fill="#F93200" transform="translate(320,202)"/>
<path d="M0 0 C7.17401055 4.60728048 11.2965789 10.96866869 14 19 C15.50458542 28.05066001 13.47190952 36.60334488 8.52734375 44.2890625 C3.0159264 51.2467383 -4.82182966 55.2649466 -13.59375 56.30859375 C-22.90046662 56.72139166 -29.96728867 54.16218829 -37.16796875 48.20703125 C-43.3555526 41.80835712 -46.10758956 33.8584775 -46.625 25.0625 C-46.28881653 16.43379102 -42.45350374 8.88929008 -36.1875 3 C-25.25899235 -5.43350873 -12.25371698 -7.04115813 0 0 Z " fill="#FAEB82" transform="translate(106,64)"/>
<path d="M0 0 C0.66 0 1.32 0 2 0 C2.27117645 0.75310959 2.54235291 1.50621918 2.82174683 2.28215027 C5.38085762 9.3888081 7.94081169 16.49516133 10.50170708 23.60117626 C11.81817081 27.25421435 13.13431127 30.90736822 14.44970703 34.56079102 C15.71978459 38.08830792 16.99071903 41.615515 18.26224136 45.14251137 C18.74654625 46.48636247 19.23054533 47.83032382 19.71422958 49.17439842 C20.3931427 51.06081417 21.07325647 52.94679768 21.75341797 54.83276367 C22.13980438 55.90531906 22.5261908 56.97787445 22.92428589 58.08293152 C23.627359 59.98949051 24.36744598 61.88291044 25.14822388 63.75898743 C26.16955698 66.44610234 26.15690818 67.38662705 25 70 C23.25 72.2265625 23.25 72.2265625 21 74.625 C20.18789063 75.5015625 19.37578125 76.378125 18.5390625 77.28125 C17.70117188 78.1784375 16.86328125 79.075625 16 80 C14.45440293 81.70477816 12.91261366 83.41301778 11.375 85.125 C10.27091797 86.34896484 10.27091797 86.34896484 9.14453125 87.59765625 C6.52542147 90.53163168 3.95919244 93.50893938 1.41015625 96.50390625 C0 98 0 98 -2 99 C-4.70556641 97.64477539 -4.70556641 97.64477539 -8.1015625 95.59765625 C-8.69802582 95.24110458 -9.29448914 94.88455292 -9.9090271 94.51719666 C-11.81896593 93.3731185 -13.72194924 92.21799216 -15.625 91.0625 C-16.91622502 90.28637414 -18.20788643 89.5109738 -19.5 88.73632812 C-22.67177937 86.83262123 -25.83741259 84.91894772 -29 83 C-27.54121854 75.43269592 -25.12496608 68.4570617 -22.421875 61.25 C-21.73524176 59.39659842 -21.04860957 57.54319645 -20.36203384 55.68977356 C-19.40413101 53.10847511 -18.44082166 50.52920763 -17.4776001 47.94989014 C-15.34708003 42.24032511 -13.22972495 36.52584729 -11.109375 30.8125 C-10.66025757 29.60408447 -10.21114014 28.39566895 -9.74841309 27.15063477 C-6.40281475 18.13330595 -3.14678872 9.08853084 0 0 Z " fill="#FBFBFB" transform="translate(255,155)"/>
<path d="M0 0 C0.33 0 0.66 0 1 0 C1.00054477 0.54700813 1.00108953 1.09401627 1.00165081 1.6576004 C1.01669575 15.040743 1.05976183 28.42355133 1.13209057 41.80651093 C1.16624352 48.27876839 1.19145236 54.75079272 1.19555664 61.22314453 C1.19986464 67.48036787 1.22853437 73.73706633 1.27343178 79.99412537 C1.28632706 82.3700402 1.29074307 84.7460181 1.28615379 87.1219635 C1.25590318 107.55631285 3.5528792 126.40323662 18.0546875 142.140625 C21.46559206 145.40084703 25.18498804 148.23173736 29 151 C25.75923257 152.62038372 23.12062548 151.13513434 19.7890625 150.07421875 C7.01370313 145.1537372 -3.34133206 135.72369943 -9.25390625 123.3828125 C-10.26090077 120.93778521 -11.17786692 118.51315563 -12 116 C-12.33806168 114.97393143 -12.67612335 113.94786285 -13.02442932 112.89070129 C-14.21655261 108.67003253 -14.36005042 104.5947333 -14.43334961 100.22924805 C-14.45452347 99.37931778 -14.47569733 98.52938751 -14.49751282 97.65370178 C-14.70263914 88.77360418 -14.7882728 79.89052999 -14.86499023 71.00854492 C-14.90493634 66.81274547 -14.98129982 62.62009311 -15.09057617 58.42553711 C-15.22312524 53.32713235 -15.28946762 48.23164311 -15.3112812 43.13160133 C-15.33003421 41.20631848 -15.37078069 39.28109931 -15.43562126 37.35681725 C-15.93509944 21.7005217 -11.44260661 12.61090679 -1 1 C-0.67 0.67 -0.34 0.34 0 0 Z " fill="#0BCA88" transform="translate(29,344)"/>
<path d="M0 0 C3.86140222 1.43405845 7.29785785 3.23146925 10.84765625 5.31640625 C11.68916229 5.80925362 11.68916229 5.80925362 12.54766846 6.3120575 C14.388189 7.39177223 16.22545897 8.47687728 18.0625 9.5625 C19.3485176 10.31939342 20.63456956 11.07622848 21.9206543 11.83300781 C35.36045456 19.75586939 48.70149453 27.84253866 62 36 C62.8461084 36.51369141 63.6922168 37.02738281 64.56396484 37.55664062 C66.39308954 38.67695446 68.1999311 39.8335729 70 41 C70 41.33 70 41.66 70 42 C41.95 42 13.9 42 -15 42 C-13.21612731 36.05375769 -11.46906195 30.32507609 -9.3359375 24.53125 C-9.09839752 23.88426147 -8.86085754 23.23727295 -8.61611938 22.57067871 C-8.12177623 21.22596763 -7.6260365 19.88176914 -7.12890625 18.53808594 C-6.36652852 16.47709847 -5.60871121 14.41447604 -4.8515625 12.3515625 C-1.15629186 2.31258372 -1.15629186 2.31258372 0 0 Z " fill="#6CDAB6" transform="translate(220,252)"/>
<path d="M0 0 C2.33590582 2.10920991 3.54812626 3.84820099 4.62573242 6.79711914 C4.90579636 7.55122574 5.18586029 8.30533234 5.47441101 9.08229065 C5.76516006 9.8917363 6.05590912 10.70118195 6.35546875 11.53515625 C6.66196854 12.36961777 6.96846832 13.20407928 7.28425598 14.06382751 C7.92934976 15.82505471 8.57042856 17.58775698 9.20776367 19.35180664 C10.18618499 22.05886167 11.17694717 24.7611443 12.16992188 27.46289062 C12.79499734 29.17421398 13.41937059 30.88579402 14.04296875 32.59765625 C14.3397905 33.40912613 14.63661224 34.22059601 14.94242859 35.05665588 C17 40.76655917 17 40.76655917 17 43 C12.82983925 41.47043463 9.06121707 39.42654758 5.23828125 37.19140625 C4.60641403 36.8240184 3.97454681 36.45663055 3.3235321 36.07810974 C1.99547092 35.30413372 0.66848674 34.52830703 -0.6574707 33.75073242 C-2.68728876 32.56262364 -4.72328312 31.38562417 -6.75976562 30.20898438 C-8.0524752 29.45379538 -9.34480635 28.69795817 -10.63671875 27.94140625 C-11.24505051 27.59130997 -11.85338226 27.24121368 -12.48014832 26.88050842 C-15.46908764 25.11318593 -17.03581801 23.94627298 -19 21 C-18.60208252 20.57702637 -18.20416504 20.15405273 -17.79418945 19.71826172 C-15.96521593 17.77213825 -14.13884621 15.82358916 -12.3125 13.875 C-11.68666016 13.20984375 -11.06082031 12.5446875 -10.41601562 11.859375 C-6.80763861 8.00540164 -3.33465583 4.09340161 0 0 Z " fill="#6CDBB7" transform="translate(286,240)"/>
<path d="M0 0 C5.28 0 10.56 0 16 0 C16 4.95 16 9.9 16 15 C10.72 15 5.44 15 0 15 C0 10.05 0 5.1 0 0 Z " fill="#030706" transform="translate(399,497)"/>
<path d="M0 0 C4.95 0 9.9 0 15 0 C15 4.62 15 9.24 15 14 C10.05 14 5.1 14 0 14 C0 9.38 0 4.76 0 0 Z " fill="#000000" transform="translate(452,38)"/>
<path d="M0 0 C4.95 0 9.9 0 15 0 C15 4.62 15 9.24 15 14 C10.05 14 5.1 14 0 14 C0 9.38 0 4.76 0 0 Z " fill="#000000" transform="translate(422,38)"/>
</svg>
