<?xml version="1.0" encoding="UTF-8"?>
<svg version="1.1" xmlns="http://www.w3.org/2000/svg" width="512" height="512">
<path d="M0 0 C1.32010071 0.00081573 1.32010071 0.00081573 2.66687012 0.00164795 C16.96334702 0.04217268 30.6976931 0.90439858 44.625 4.375 C45.48883301 4.58930664 46.35266602 4.80361328 47.24267578 5.02441406 C90.13894695 16.07211352 128.48630517 41.57953671 154.625 77.375 C155.03959473 77.93993164 155.45418945 78.50486328 155.88134766 79.08691406 C182.97262124 116.51861431 195.92972403 164.18944804 190.01171875 210.2109375 C189.20857741 215.02930948 188.01432242 219.69512804 186.625 224.375 C186.35655273 225.2932959 186.08810547 226.2115918 185.81152344 227.15771484 C179.78537242 247.30160947 171.43012977 266.56914316 161.74267578 285.20898438 C160.49601196 287.62497421 159.27764571 290.05434129 158.05859375 292.484375 C150.05247904 308.29464085 140.96392975 323.33119711 131.625 338.375 C130.61556963 340.01152401 129.6064147 341.64821798 128.59765625 343.28515625 C123.77014987 351.09221647 118.78500953 358.78305554 113.625 366.375 C113.15723145 367.06432617 112.68946289 367.75365234 112.20751953 368.46386719 C95.63224224 392.86911927 78.33209529 416.65893167 60.38623047 440.07470703 C58.86932677 442.05589176 57.35709421 444.04047074 55.84765625 446.02734375 C50.8558411 452.57252764 45.72490917 458.98538451 40.51538086 465.35791016 C36.95496866 469.71796192 33.45726745 474.12037482 30 478.5625 C25.99257789 483.70234391 21.85986639 488.71514484 17.62646484 493.67016602 C13.84280631 498.09899909 10.15867153 502.59982609 6.5 507.1328125 C4.94812144 508.98860061 3.37147403 510.70493421 1.625 512.375 C-6.89263647 508.79263835 -12.60670899 498.90728022 -18.14672852 491.76074219 C-21.29378825 487.71163811 -24.53802063 483.76863767 -27.875 479.875 C-33.05349453 473.81679303 -37.99426481 467.59556703 -42.87988281 461.29980469 C-44.45488183 459.27216063 -46.03560866 457.24907767 -47.6171875 455.2265625 C-61.19469687 437.84571466 -74.5895954 420.34886221 -87.375 402.375 C-88.12426758 401.3243335 -88.12426758 401.3243335 -88.88867188 400.25244141 C-110.37587116 370.09631679 -130.8268571 339.24605189 -148.93847656 306.93066406 C-150.33016108 304.4547712 -151.73811554 301.98874835 -153.1484375 299.5234375 C-168.04144114 273.26122125 -180.92978577 244.98875739 -187.375 215.375 C-187.55901367 214.57747314 -187.74302734 213.77994629 -187.93261719 212.95825195 C-189.65436054 204.74160775 -189.77401095 196.54713997 -189.75 188.1875 C-189.74912384 187.44100189 -189.74824768 186.69450378 -189.74734497 185.92538452 C-189.63805769 157.55039714 -182.88550082 130.83035155 -170.375 105.375 C-170.06481934 104.73159668 -169.75463867 104.08819336 -169.43505859 103.42529297 C-156.55126735 76.94232281 -136.0990269 53.67215968 -112.375 36.375 C-111.79943359 35.95508789 -111.22386719 35.53517578 -110.63085938 35.10253906 C-78.0916645 11.71156901 -39.9211529 -0.09297093 0 0 Z " fill="#FF2E39" transform="translate(255.375,-0.375)"/>
<path d="M0 0 C11.87715997 9.18059466 20.90835693 19.6720444 28.31054688 32.77197266 C28.79523438 33.61630859 29.27992188 34.46064453 29.77929688 35.33056641 C36.52263138 47.85096493 39.71599466 62.79555832 39.62304688 76.95947266 C39.61740723 77.87365967 39.61176758 78.78784668 39.60595703 79.72973633 C39.15963792 104.92909004 28.32313931 128.60323141 10.68164062 146.42822266 C-2.28284978 158.67348813 -17.50489529 166.24743085 -34.68945312 170.77197266 C-35.5221875 170.99884766 -36.35492188 171.22572266 -37.21289062 171.45947266 C-59.68719774 176.56404714 -84.69141302 171.64360863 -104.31445312 160.02197266 C-128.62419974 144.37129343 -143.59753422 122.18662776 -149.77929688 94.02587891 C-154.08538863 71.72086791 -149.17696733 47.33356997 -137.37695312 28.02197266 C-127.51869997 13.46109546 -116.05704929 2.38013743 -100.68945312 -6.22802734 C-99.84640625 -6.71142578 -99.00335938 -7.19482422 -98.13476562 -7.69287109 C-68.09274641 -23.89586178 -27.41230135 -19.92541558 0 0 Z " fill="#FFFEFE" transform="translate(311.689453125,114.22802734375)"/>
</svg>
